  0
SECTION
  2
HEADER
  9
$ACADVER
  1
AC1009
  9
$DWGCODEPAGE
  3
ANSI_1252
  9
$INSBASE
 10
0.0
 20
0.0
 30
0.0
  9
$EXTMIN
 10
1e+20
 20
1e+20
 30
1e+20
  9
$EXTMAX
 10
-1e+20
 20
-1e+20
 30
-1e+20
  9
$LIMMIN
 10
0.0
 20
0.0
  9
$LIMMAX
 10
420.0
 20
297.0
  9
$ORTHOMODE
 70
0
  9
$REGENMODE
 70
1
  9
$FILLMODE
 70
1
  9
$DRAGMODE
 70
2
  9
$QTEXTMODE
 70
0
  9
$MIRRTEXT
 70
1
  9
$OSMODE
 70
20583
  9
$LTSCALE
 40
1.0
  9
$ATTMODE
 70
1
  9
$TEXTSIZE
 40
2.5
  9
$TRACEWID
 40
1.0
  9
$TEXTSTYLE
  7
Standard
  9
$CLAYER
  8
0
  9
$CELTYPE
  6
ByLayer
  9
$CECOLOR
 62
256
  9
$DIMSCALE
 40
1.0
  9
$DIMASZ
 40
2.5
  9
$DIMEXO
 40
0.625
  9
$DIMDLI
 40
3.75
  9
$DIMRND
 40
0.0
  9
$DIMDLE
 40
0.0
  9
$DIMEXE
 40
1.25
  9
$DIMTP
 40
0.0
  9
$DIMTM
 40
0.0
  9
$DIMTXT
 40
2.5
  9
$DIMCEN
 40
2.5
  9
$DIMTSZ
 40
0.0
  9
$DIMTOL
 70
0
  9
$DIMLIM
 70
0
  9
$DIMTIH
 70
0
  9
$DIMTOH
 70
0
  9
$DIMSE1
 70
0
  9
$DIMSE2
 70
0
  9
$DIMTAD
 70
1
  9
$DIMZIN
 70
8
  9
$DIMBLK
  1

  9
$DIMASO
 70
1
  9
$DIMSHO
 70
1
  9
$DIMPOST
  1

  9
$DIMAPOST
  1

  9
$DIMALT
 70
0
  9
$DIMALTD
 70
3
  9
$DIMALTF
 40
0.03937007874
  9
$DIMLFAC
 40
1.0
  9
$DIMTOFL
 70
1
  9
$DIMTVP
 40
0.0
  9
$DIMTIX
 70
0
  9
$DIMSOXD
 70
0
  9
$DIMSAH
 70
0
  9
$DIMBLK1
  1

  9
$DIMBLK2
  1

  9
$DIMSTYLE
  2
ISO-25
  9
$DIMCLRD
 70
0
  9
$DIMCLRE
 70
0
  9
$DIMCLRT
 70
0
  9
$DIMTFAC
 40
1.0
  9
$DIMGAP
 40
0.625
  9
$COORDS
 70
1
  9
$ATTDIA
 70
0
  9
$ATTREQ
 70
1
  9
$HANDLING
 70
1
  9
$LUNITS
 70
2
  9
$LUPREC
 70
4
  9
$SKETCHINC
 40
1.0
  9
$FILLETRAD
 40
10.0
  9
$AUNITS
 70
0
  9
$AUPREC
 70
2
  9
$MENU
  1
.
  9
$ELEVATION
 40
0.0
  9
$PELEVATION
 40
0.0
  9
$THICKNESS
 40
0.0
  9
$LIMCHECK
 70
0
  9
$CHAMFERA
 40
0.0
  9
$CHAMFERB
 40
0.0
  9
$SKPOLY
 70
0
  9
$TDCREATE
 40
2460712.7962037036
  9
$TDUPDATE
 40
2460712.7962037036
  9
$TDINDWG
 40
0.0
  9
$TDUSRTIMER
 40
0.0
  9
$USRTIMER
 70
1
  9
$ANGBASE
 50
0.0
  9
$ANGDIR
 70
0
  9
$PDMODE
 70
0
  9
$PDSIZE
 40
0.0
  9
$PLINEWID
 40
0.0
  9
$SPLFRAME
 70
0
  9
$SPLINETYPE
 70
6
  9
$SPLINESEGS
 70
8
  9
$HANDSEED
  5
1FF
  9
$SURFTAB1
 70
6
  9
$SURFTAB2
 70
6
  9
$SURFTYPE
 70
6
  9
$SURFU
 70
6
  9
$SURFV
 70
6
  9
$UCSNAME
  2

  9
$UCSORG
 10
0.0
 20
0.0
 30
0.0
  9
$UCSXDIR
 10
1.0
 20
0.0
 30
0.0
  9
$UCSYDIR
 10
0.0
 20
1.0
 30
0.0
  9
$PUCSNAME
  2

  9
$PUCSORG
 10
0.0
 20
0.0
 30
0.0
  9
$PUCSXDIR
 10
1.0
 20
0.0
 30
0.0
  9
$PUCSYDIR
 10
0.0
 20
1.0
 30
0.0
  9
$USERI1
 70
0
  9
$USERI2
 70
0
  9
$USERI3
 70
0
  9
$USERI4
 70
0
  9
$USERI5
 70
0
  9
$USERR1
 40
0.0
  9
$USERR2
 40
0.0
  9
$USERR3
 40
0.0
  9
$USERR4
 40
0.0
  9
$USERR5
 40
0.0
  9
$WORLDVIEW
 70
1
  9
$SHADEDGE
 70
3
  9
$SHADEDIF
 70
70
  9
$TILEMODE
 70
1
  9
$MAXACTVP
 70
64
  9
$PLIMCHECK
 70
0
  9
$PEXTMIN
 10
1e+20
 20
1e+20
 30
1e+20
  9
$PEXTMAX
 10
-1e+20
 20
-1e+20
 30
-1e+20
  9
$PLIMMIN
 10
0.0
 20
0.0
  9
$PLIMMAX
 10
420.0
 20
297.0
  9
$UNITMODE
 70
0
  9
$VISRETAIN
 70
1
  9
$PLINEGEN
 70
0
  9
$PSLTSCALE
 70
1
  0
ENDSEC
  0
SECTION
  2
TABLES
  0
TABLE
  2
VPORT
 70
1
  0
VPORT
  5
1F3
  2
*Active
 70
0
 10
0.0
 20
0.0
 11
1.0
 21
1.0
 12
0.0
 22
0.0
 13
0.0
 23
0.0
 14
0.5
 24
0.5
 15
0.5
 25
0.5
 16
0.0
 26
0.0
 36
1.0
 17
0.0
 27
0.0
 37
0.0
 40
1000.0
 41
1.34
 42
50.0
 43
0.0
 44
0.0
 50
0.0
 51
0.0
 71
0
 72
1000
 73
1
 74
3
 75
0
 76
0
 77
0
 78
0
  0
ENDTAB
  0
TABLE
  2
LTYPE
 70
3
  0
LTYPE
  5
1F4
  2
ByBlock
 70
0
  3

 72
65
 73
0
 40
0.0
  0
LTYPE
  5
1F5
  2
ByLayer
 70
0
  3

 72
65
 73
0
 40
0.0
  0
LTYPE
  5
1F6
  2
Continuous
 70
0
  3

 72
65
 73
0
 40
0.0
  0
ENDTAB
  0
TABLE
  2
LAYER
 70
2
  0
LAYER
  5
1F7
  2
0
 70
0
 62
7
  6
Continuous
  0
LAYER
  5
1F8
  2
Defpoints
 70
0
 62
7
  6
Continuous
  0
ENDTAB
  0
TABLE
  2
STYLE
 70
1
  0
STYLE
  5
1F9
  2
Standard
 70
0
 40
0.0
 41
1.0
 50
0.0
 71
0
 42
2.5
  3
txt
  4

  0
ENDTAB
  0
TABLE
  2
VIEW
 70
0
  0
ENDTAB
  0
TABLE
  2
UCS
 70
0
  0
ENDTAB
  0
TABLE
  2
APPID
 70
3
  0
APPID
  5
1FA
  2
ACAD
 70
0
  0
APPID
  5
1FD
  2
HATCHBACKGROUNDCOLOR
 70
0
  0
APPID
  5
1FE
  2
EZDXF
 70
0
  0
ENDTAB
  0
TABLE
  2
DIMSTYLE
 70
1
  0
DIMSTYLE
105
1FB
  2
Standard
 70
0
  3

  4

  5

  6

  7

 40
1.0
 41
2.5
 42
0.625
 43
3.75
 44
1.25
 45
0.0
 46
0.0
 47
0.0
 48
0.0
140
2.5
141
2.5
142
0.0
143
0.03937007874
144
1.0
145
0.0
146
1.0
147
0.625
 71
0
 72
0
 73
0
 74
0
 75
0
 76
0
 77
1
 78
8
170
0
171
3
172
1
173
0
174
0
175
0
176
0
177
0
178
0
  0
ENDTAB
  0
ENDSEC
  0
SECTION
  2
BLOCKS
  0
BLOCK
  5
1D4
  8
0
  2
$Model_Space
 70
0
 10
0.0
 20
0.0
 30
0.0
  3
$Model_Space
  1

1001
EZDXF
1000
WRITTEN_BY_EZDXF
1000
1.3.5 @ 2025-02-06T00:06:32.750477+00:00
  0
ENDBLK
  5
1D5
  8
0
  0
BLOCK
  5
1D6
  8
0
  2
$Paper_Space
 70
0
 10
0.0
 20
0.0
 30
0.0
  3
$Paper_Space
  1

  0
ENDBLK
  5
1D7
  8
0
  0
ENDSEC
  0
SECTION
  2
ENTITIES
  0
LINE
  5
100
  8
0
 10
5.64999
 20
3.23499
 30
0.0
 11
3.35001
 21
3.23499
 31
0.0
  0
LINE
  5
101
  8
0
 10
3.35001
 20
3.23499
 30
0.0
 11
3.35001
 21
3.22499
 31
0.0
  0
LINE
  5
102
  8
0
 10
3.35001
 20
3.22499
 30
0.0
 11
5.64999
 21
3.22499
 31
0.0
  0
LINE
  5
103
  8
0
 10
5.64999
 20
3.22499
 30
0.0
 11
5.64999
 21
3.23499
 31
0.0
  0
LINE
  5
104
  8
0
 10
5.64999
 20
3.19499
 30
0.0
 11
3.35001
 21
3.19499
 31
0.0
  0
LINE
  5
105
  8
0
 10
3.35001
 20
3.19499
 30
0.0
 11
3.35001
 21
3.185
 31
0.0
  0
LINE
  5
106
  8
0
 10
3.35001
 20
3.185
 30
0.0
 11
5.64999
 21
3.185
 31
0.0
  0
LINE
  5
107
  8
0
 10
5.64999
 20
3.185
 30
0.0
 11
5.64999
 21
3.19499
 31
0.0
  0
LINE
  5
108
  8
0
 10
5.64999
 20
3.155
 30
0.0
 11
3.35001
 21
3.155
 31
0.0
  0
LINE
  5
109
  8
0
 10
3.35001
 20
3.155
 30
0.0
 11
3.35001
 21
3.14499
 31
0.0
  0
LINE
  5
10A
  8
0
 10
3.35001
 20
3.14499
 30
0.0
 11
5.64999
 21
3.14499
 31
0.0
  0
LINE
  5
10B
  8
0
 10
5.64999
 20
3.14499
 30
0.0
 11
5.64999
 21
3.155
 31
0.0
  0
LINE
  5
10C
  8
0
 10
5.64999
 20
3.11499
 30
0.0
 11
3.35001
 21
3.11499
 31
0.0
  0
LINE
  5
10D
  8
0
 10
3.35001
 20
3.11499
 30
0.0
 11
3.35001
 21
3.105
 31
0.0
  0
LINE
  5
10E
  8
0
 10
3.35001
 20
3.105
 30
0.0
 11
5.64999
 21
3.105
 31
0.0
  0
LINE
  5
10F
  8
0
 10
5.64999
 20
3.105
 30
0.0
 11
5.64999
 21
3.11499
 31
0.0
  0
LINE
  5
110
  8
0
 10
5.64999
 20
3.075
 30
0.0
 11
3.35001
 21
3.075
 31
0.0
  0
LINE
  5
111
  8
0
 10
3.35001
 20
3.075
 30
0.0
 11
3.35001
 21
3.06499
 31
0.0
  0
LINE
  5
112
  8
0
 10
3.35001
 20
3.06499
 30
0.0
 11
5.64999
 21
3.06499
 31
0.0
  0
LINE
  5
113
  8
0
 10
5.64999
 20
3.06499
 30
0.0
 11
5.64999
 21
3.075
 31
0.0
  0
LINE
  5
114
  8
0
 10
5.64999
 20
3.03499
 30
0.0
 11
3.35001
 21
3.03499
 31
0.0
  0
LINE
  5
115
  8
0
 10
3.35001
 20
3.03499
 30
0.0
 11
3.35001
 21
3.02499
 31
0.0
  0
LINE
  5
116
  8
0
 10
3.35001
 20
3.02499
 30
0.0
 11
5.64999
 21
3.02499
 31
0.0
  0
LINE
  5
117
  8
0
 10
5.64999
 20
3.02499
 30
0.0
 11
5.64999
 21
3.03499
 31
0.0
  0
LINE
  5
118
  8
0
 10
5.64999
 20
2.995
 30
0.0
 11
3.35001
 21
2.995
 31
0.0
  0
LINE
  5
119
  8
0
 10
3.35001
 20
2.995
 30
0.0
 11
3.35001
 21
2.98499
 31
0.0
  0
LINE
  5
11A
  8
0
 10
3.35001
 20
2.98499
 30
0.0
 11
5.64999
 21
2.98499
 31
0.0
  0
LINE
  5
11B
  8
0
 10
5.64999
 20
2.98499
 30
0.0
 11
5.64999
 21
2.995
 31
0.0
  0
LINE
  5
11C
  8
0
 10
5.64999
 20
2.95499
 30
0.0
 11
3.35001
 21
2.95499
 31
0.0
  0
LINE
  5
11D
  8
0
 10
3.35001
 20
2.95499
 30
0.0
 11
3.35001
 21
2.94499
 31
0.0
  0
LINE
  5
11E
  8
0
 10
3.35001
 20
2.94499
 30
0.0
 11
5.64999
 21
2.94499
 31
0.0
  0
LINE
  5
11F
  8
0
 10
5.64999
 20
2.94499
 30
0.0
 11
5.64999
 21
2.95499
 31
0.0
  0
LINE
  5
120
  8
0
 10
5.64999
 20
2.91499
 30
0.0
 11
3.35001
 21
2.91499
 31
0.0
  0
LINE
  5
121
  8
0
 10
3.35001
 20
2.91499
 30
0.0
 11
3.35001
 21
2.905
 31
0.0
  0
LINE
  5
122
  8
0
 10
3.35001
 20
2.905
 30
0.0
 11
5.64999
 21
2.905
 31
0.0
  0
LINE
  5
123
  8
0
 10
5.64999
 20
2.905
 30
0.0
 11
5.64999
 21
2.91499
 31
0.0
  0
LINE
  5
124
  8
0
 10
5.64999
 20
2.875
 30
0.0
 11
3.35001
 21
2.875
 31
0.0
  0
LINE
  5
125
  8
0
 10
3.35001
 20
2.875
 30
0.0
 11
3.35001
 21
2.86499
 31
0.0
  0
LINE
  5
126
  8
0
 10
3.35001
 20
2.86499
 30
0.0
 11
5.64999
 21
2.86499
 31
0.0
  0
LINE
  5
127
  8
0
 10
5.64999
 20
2.86499
 30
0.0
 11
5.64999
 21
2.875
 31
0.0
  0
LINE
  5
128
  8
0
 10
5.64999
 20
2.83499
 30
0.0
 11
3.35001
 21
2.83499
 31
0.0
  0
LINE
  5
129
  8
0
 10
3.35001
 20
2.83499
 30
0.0
 11
3.35001
 21
2.825
 31
0.0
  0
LINE
  5
12A
  8
0
 10
3.35001
 20
2.825
 30
0.0
 11
5.64999
 21
2.825
 31
0.0
  0
LINE
  5
12B
  8
0
 10
5.64999
 20
2.825
 30
0.0
 11
5.64999
 21
2.83499
 31
0.0
  0
LINE
  5
12C
  8
0
 10
5.64999
 20
2.795
 30
0.0
 11
3.35001
 21
2.795
 31
0.0
  0
LINE
  5
12D
  8
0
 10
3.35001
 20
2.795
 30
0.0
 11
3.35001
 21
2.78499
 31
0.0
  0
LINE
  5
12E
  8
0
 10
3.35001
 20
2.78499
 30
0.0
 11
5.64999
 21
2.78499
 31
0.0
  0
LINE
  5
12F
  8
0
 10
5.64999
 20
2.78499
 30
0.0
 11
5.64999
 21
2.795
 31
0.0
  0
LINE
  5
130
  8
0
 10
5.64999
 20
2.75499
 30
0.0
 11
3.35001
 21
2.75499
 31
0.0
  0
LINE
  5
131
  8
0
 10
3.35001
 20
2.75499
 30
0.0
 11
3.35001
 21
2.745
 31
0.0
  0
LINE
  5
132
  8
0
 10
3.35001
 20
2.745
 30
0.0
 11
5.64999
 21
2.745
 31
0.0
  0
LINE
  5
133
  8
0
 10
5.64999
 20
2.745
 30
0.0
 11
5.64999
 21
2.75499
 31
0.0
  0
LINE
  5
134
  8
0
 10
5.64999
 20
2.715
 30
0.0
 11
3.35001
 21
2.715
 31
0.0
  0
LINE
  5
135
  8
0
 10
3.35001
 20
2.715
 30
0.0
 11
3.35001
 21
2.70499
 31
0.0
  0
LINE
  5
136
  8
0
 10
3.35001
 20
2.70499
 30
0.0
 11
5.64999
 21
2.70499
 31
0.0
  0
LINE
  5
137
  8
0
 10
5.64999
 20
2.70499
 30
0.0
 11
5.64999
 21
2.715
 31
0.0
  0
LINE
  5
138
  8
0
 10
5.64999
 20
2.67499
 30
0.0
 11
3.35001
 21
2.67499
 31
0.0
  0
LINE
  5
139
  8
0
 10
3.35001
 20
2.67499
 30
0.0
 11
3.35001
 21
2.66499
 31
0.0
  0
LINE
  5
13A
  8
0
 10
3.35001
 20
2.66499
 30
0.0
 11
5.64999
 21
2.66499
 31
0.0
  0
LINE
  5
13B
  8
0
 10
5.64999
 20
2.66499
 30
0.0
 11
5.64999
 21
2.67499
 31
0.0
  0
LINE
  5
13C
  8
0
 10
5.64999
 20
2.63499
 30
0.0
 11
3.35001
 21
2.63499
 31
0.0
  0
LINE
  5
13D
  8
0
 10
3.35001
 20
2.63499
 30
0.0
 11
3.35001
 21
2.625
 31
0.0
  0
LINE
  5
13E
  8
0
 10
3.35001
 20
2.625
 30
0.0
 11
5.64999
 21
2.625
 31
0.0
  0
LINE
  5
13F
  8
0
 10
5.64999
 20
2.625
 30
0.0
 11
5.64999
 21
2.63499
 31
0.0
  0
LINE
  5
140
  8
0
 10
5.64999
 20
2.59499
 30
0.0
 11
3.35001
 21
2.59499
 31
0.0
  0
LINE
  5
141
  8
0
 10
3.35001
 20
2.59499
 30
0.0
 11
3.35001
 21
2.58499
 31
0.0
  0
LINE
  5
142
  8
0
 10
3.35001
 20
2.58499
 30
0.0
 11
5.64999
 21
2.58499
 31
0.0
  0
LINE
  5
143
  8
0
 10
5.64999
 20
2.58499
 30
0.0
 11
5.64999
 21
2.59499
 31
0.0
  0
LINE
  5
144
  8
0
 10
5.64999
 20
2.55499
 30
0.0
 11
3.35001
 21
2.55499
 31
0.0
  0
LINE
  5
145
  8
0
 10
3.35001
 20
2.55499
 30
0.0
 11
3.35001
 21
2.545
 31
0.0
  0
LINE
  5
146
  8
0
 10
3.35001
 20
2.545
 30
0.0
 11
5.64999
 21
2.545
 31
0.0
  0
LINE
  5
147
  8
0
 10
5.64999
 20
2.545
 30
0.0
 11
5.64999
 21
2.55499
 31
0.0
  0
LINE
  5
148
  8
0
 10
5.64999
 20
2.515
 30
0.0
 11
3.35001
 21
2.515
 31
0.0
  0
LINE
  5
149
  8
0
 10
3.35001
 20
2.515
 30
0.0
 11
3.35001
 21
2.50499
 31
0.0
  0
LINE
  5
14A
  8
0
 10
3.35001
 20
2.50499
 30
0.0
 11
5.64999
 21
2.50499
 31
0.0
  0
LINE
  5
14B
  8
0
 10
5.64999
 20
2.50499
 30
0.0
 11
5.64999
 21
2.515
 31
0.0
  0
LINE
  5
14C
  8
0
 10
5.64999
 20
2.47499
 30
0.0
 11
3.35001
 21
2.47499
 31
0.0
  0
LINE
  5
14D
  8
0
 10
3.35001
 20
2.47499
 30
0.0
 11
3.35001
 21
2.465
 31
0.0
  0
LINE
  5
14E
  8
0
 10
3.35001
 20
2.465
 30
0.0
 11
5.64999
 21
2.465
 31
0.0
  0
LINE
  5
14F
  8
0
 10
5.64999
 20
2.465
 30
0.0
 11
5.64999
 21
2.47499
 31
0.0
  0
LINE
  5
150
  8
0
 10
5.64999
 20
2.435
 30
0.0
 11
3.35001
 21
2.435
 31
0.0
  0
LINE
  5
151
  8
0
 10
3.35001
 20
2.435
 30
0.0
 11
3.35001
 21
2.42499
 31
0.0
  0
LINE
  5
152
  8
0
 10
3.35001
 20
2.42499
 30
0.0
 11
5.64999
 21
2.42499
 31
0.0
  0
LINE
  5
153
  8
0
 10
5.64999
 20
2.42499
 30
0.0
 11
5.64999
 21
2.435
 31
0.0
  0
LINE
  5
154
  8
0
 10
5.64999
 20
2.39499
 30
0.0
 11
3.35001
 21
2.39499
 31
0.0
  0
LINE
  5
155
  8
0
 10
3.35001
 20
2.39499
 30
0.0
 11
3.35001
 21
2.38499
 31
0.0
  0
LINE
  5
156
  8
0
 10
3.35001
 20
2.38499
 30
0.0
 11
5.64999
 21
2.38499
 31
0.0
  0
LINE
  5
157
  8
0
 10
5.64999
 20
2.38499
 30
0.0
 11
5.64999
 21
2.39499
 31
0.0
  0
LINE
  5
158
  8
0
 10
5.64999
 20
2.355
 30
0.0
 11
3.35001
 21
2.355
 31
0.0
  0
LINE
  5
159
  8
0
 10
3.35001
 20
2.355
 30
0.0
 11
3.35001
 21
2.34499
 31
0.0
  0
LINE
  5
15A
  8
0
 10
3.35001
 20
2.34499
 30
0.0
 11
5.64999
 21
2.34499
 31
0.0
  0
LINE
  5
15B
  8
0
 10
5.64999
 20
2.34499
 30
0.0
 11
5.64999
 21
2.355
 31
0.0
  0
LINE
  5
15C
  8
0
 10
5.64999
 20
2.31499
 30
0.0
 11
3.35001
 21
2.31499
 31
0.0
  0
LINE
  5
15D
  8
0
 10
3.35001
 20
2.31499
 30
0.0
 11
3.35001
 21
2.30499
 31
0.0
  0
LINE
  5
15E
  8
0
 10
3.35001
 20
2.30499
 30
0.0
 11
5.64999
 21
2.30499
 31
0.0
  0
LINE
  5
15F
  8
0
 10
5.64999
 20
2.30499
 30
0.0
 11
5.64999
 21
2.31499
 31
0.0
  0
LINE
  5
160
  8
0
 10
5.64999
 20
2.27499
 30
0.0
 11
3.35001
 21
2.27499
 31
0.0
  0
LINE
  5
161
  8
0
 10
3.35001
 20
2.27499
 30
0.0
 11
3.35001
 21
2.265
 31
0.0
  0
LINE
  5
162
  8
0
 10
3.35001
 20
2.265
 30
0.0
 11
5.64999
 21
2.265
 31
0.0
  0
LINE
  5
163
  8
0
 10
5.64999
 20
2.265
 30
0.0
 11
5.64999
 21
2.27499
 31
0.0
  0
LINE
  5
164
  8
0
 10
5.64999
 20
2.235
 30
0.0
 11
3.35001
 21
2.235
 31
0.0
  0
LINE
  5
165
  8
0
 10
3.35001
 20
2.235
 30
0.0
 11
3.35001
 21
2.22501
 31
0.0
  0
LINE
  5
166
  8
0
 10
3.35001
 20
2.22501
 30
0.0
 11
5.64999
 21
2.22501
 31
0.0
  0
LINE
  5
167
  8
0
 10
5.64999
 20
2.22501
 30
0.0
 11
5.64999
 21
2.235
 31
0.0
  0
LINE
  5
168
  8
0
 10
5.64999
 20
2.19501
 30
0.0
 11
3.35001
 21
2.19501
 31
0.0
  0
LINE
  5
169
  8
0
 10
3.35001
 20
2.19501
 30
0.0
 11
3.35001
 21
2.18501
 31
0.0
  0
LINE
  5
16A
  8
0
 10
3.35001
 20
2.18501
 30
0.0
 11
5.64999
 21
2.18501
 31
0.0
  0
LINE
  5
16B
  8
0
 10
5.64999
 20
2.18501
 30
0.0
 11
5.64999
 21
2.19501
 31
0.0
  0
LINE
  5
16C
  8
0
 10
5.64999
 20
2.15501
 30
0.0
 11
3.35001
 21
2.15501
 31
0.0
  0
LINE
  5
16D
  8
0
 10
3.35001
 20
2.15501
 30
0.0
 11
3.35001
 21
2.145
 31
0.0
  0
LINE
  5
16E
  8
0
 10
3.35001
 20
2.145
 30
0.0
 11
5.64999
 21
2.145
 31
0.0
  0
LINE
  5
16F
  8
0
 10
5.64999
 20
2.145
 30
0.0
 11
5.64999
 21
2.15501
 31
0.0
  0
LINE
  5
170
  8
0
 10
5.64999
 20
2.11501
 30
0.0
 11
3.35001
 21
2.11501
 31
0.0
  0
LINE
  5
171
  8
0
 10
3.35001
 20
2.11501
 30
0.0
 11
3.35001
 21
2.10501
 31
0.0
  0
LINE
  5
172
  8
0
 10
3.35001
 20
2.10501
 30
0.0
 11
5.64999
 21
2.10501
 31
0.0
  0
LINE
  5
173
  8
0
 10
5.64999
 20
2.10501
 30
0.0
 11
5.64999
 21
2.11501
 31
0.0
  0
LINE
  5
174
  8
0
 10
5.64999
 20
2.07501
 30
0.0
 11
3.35001
 21
2.07501
 31
0.0
  0
LINE
  5
175
  8
0
 10
3.35001
 20
2.07501
 30
0.0
 11
3.35001
 21
2.065
 31
0.0
  0
LINE
  5
176
  8
0
 10
3.35001
 20
2.065
 30
0.0
 11
5.64999
 21
2.065
 31
0.0
  0
LINE
  5
177
  8
0
 10
5.64999
 20
2.065
 30
0.0
 11
5.64999
 21
2.07501
 31
0.0
  0
LINE
  5
178
  8
0
 10
5.64999
 20
2.035
 30
0.0
 11
3.35001
 21
2.035
 31
0.0
  0
LINE
  5
179
  8
0
 10
3.35001
 20
2.035
 30
0.0
 11
3.35001
 21
2.02501
 31
0.0
  0
LINE
  5
17A
  8
0
 10
3.35001
 20
2.02501
 30
0.0
 11
5.64999
 21
2.02501
 31
0.0
  0
LINE
  5
17B
  8
0
 10
5.64999
 20
2.02501
 30
0.0
 11
5.64999
 21
2.035
 31
0.0
  0
LINE
  5
17C
  8
0
 10
5.64999
 20
1.99501
 30
0.0
 11
3.35001
 21
1.99501
 31
0.0
  0
LINE
  5
17D
  8
0
 10
3.35001
 20
1.99501
 30
0.0
 11
3.35001
 21
1.985
 31
0.0
  0
LINE
  5
17E
  8
0
 10
3.35001
 20
1.985
 30
0.0
 11
5.64999
 21
1.985
 31
0.0
  0
LINE
  5
17F
  8
0
 10
5.64999
 20
1.985
 30
0.0
 11
5.64999
 21
1.99501
 31
0.0
  0
LINE
  5
180
  8
0
 10
5.64999
 20
1.955
 30
0.0
 11
3.35001
 21
1.955
 31
0.0
  0
LINE
  5
181
  8
0
 10
3.35001
 20
1.955
 30
0.0
 11
3.35001
 21
1.94501
 31
0.0
  0
LINE
  5
182
  8
0
 10
3.35001
 20
1.94501
 30
0.0
 11
5.64999
 21
1.94501
 31
0.0
  0
LINE
  5
183
  8
0
 10
5.64999
 20
1.94501
 30
0.0
 11
5.64999
 21
1.955
 31
0.0
  0
LINE
  5
184
  8
0
 10
5.64999
 20
1.91501
 30
0.0
 11
3.35001
 21
1.91501
 31
0.0
  0
LINE
  5
185
  8
0
 10
3.35001
 20
1.91501
 30
0.0
 11
3.35001
 21
1.90501
 31
0.0
  0
LINE
  5
186
  8
0
 10
3.35001
 20
1.90501
 30
0.0
 11
5.64999
 21
1.90501
 31
0.0
  0
LINE
  5
187
  8
0
 10
5.64999
 20
1.90501
 30
0.0
 11
5.64999
 21
1.91501
 31
0.0
  0
LINE
  5
188
  8
0
 10
5.64999
 20
1.875
 30
0.0
 11
3.35001
 21
1.875
 31
0.0
  0
LINE
  5
189
  8
0
 10
3.35001
 20
1.875
 30
0.0
 11
3.35001
 21
1.86501
 31
0.0
  0
LINE
  5
18A
  8
0
 10
3.35001
 20
1.86501
 30
0.0
 11
5.64999
 21
1.86501
 31
0.0
  0
LINE
  5
18B
  8
0
 10
5.64999
 20
1.86501
 30
0.0
 11
5.64999
 21
1.875
 31
0.0
  0
LINE
  5
18C
  8
0
 10
5.64999
 20
1.83501
 30
0.0
 11
3.35001
 21
1.83501
 31
0.0
  0
LINE
  5
18D
  8
0
 10
3.35001
 20
1.83501
 30
0.0
 11
3.35001
 21
1.82501
 31
0.0
  0
LINE
  5
18E
  8
0
 10
3.35001
 20
1.82501
 30
0.0
 11
5.64999
 21
1.82501
 31
0.0
  0
LINE
  5
18F
  8
0
 10
5.64999
 20
1.82501
 30
0.0
 11
5.64999
 21
1.83501
 31
0.0
  0
LINE
  5
190
  8
0
 10
5.64999
 20
1.79501
 30
0.0
 11
3.35001
 21
1.79501
 31
0.0
  0
LINE
  5
191
  8
0
 10
3.35001
 20
1.79501
 30
0.0
 11
3.35001
 21
1.785
 31
0.0
  0
LINE
  5
192
  8
0
 10
3.35001
 20
1.785
 30
0.0
 11
5.64999
 21
1.785
 31
0.0
  0
LINE
  5
193
  8
0
 10
5.64999
 20
1.785
 30
0.0
 11
5.64999
 21
1.79501
 31
0.0
  0
LINE
  5
194
  8
0
 10
5.64999
 20
1.755
 30
0.0
 11
3.35001
 21
1.755
 31
0.0
  0
LINE
  5
195
  8
0
 10
3.35001
 20
1.755
 30
0.0
 11
3.35001
 21
1.74501
 31
0.0
  0
LINE
  5
196
  8
0
 10
3.35001
 20
1.74501
 30
0.0
 11
5.64999
 21
1.74501
 31
0.0
  0
LINE
  5
197
  8
0
 10
5.64999
 20
1.74501
 30
0.0
 11
5.64999
 21
1.755
 31
0.0
  0
LINE
  5
198
  8
0
 10
5.64999
 20
1.71501
 30
0.0
 11
3.35001
 21
1.71501
 31
0.0
  0
LINE
  5
199
  8
0
 10
3.35001
 20
1.71501
 30
0.0
 11
3.35001
 21
1.705
 31
0.0
  0
LINE
  5
19A
  8
0
 10
3.35001
 20
1.705
 30
0.0
 11
5.64999
 21
1.705
 31
0.0
  0
LINE
  5
19B
  8
0
 10
5.64999
 20
1.705
 30
0.0
 11
5.64999
 21
1.71501
 31
0.0
  0
LINE
  5
19C
  8
0
 10
5.64999
 20
1.675
 30
0.0
 11
3.35001
 21
1.675
 31
0.0
  0
LINE
  5
19D
  8
0
 10
3.35001
 20
1.675
 30
0.0
 11
3.35001
 21
1.66501
 31
0.0
  0
LINE
  5
19E
  8
0
 10
3.35001
 20
1.66501
 30
0.0
 11
5.64999
 21
1.66501
 31
0.0
  0
LINE
  5
19F
  8
0
 10
5.64999
 20
1.66501
 30
0.0
 11
5.64999
 21
1.675
 31
0.0
  0
LINE
  5
1A0
  8
0
 10
5.64999
 20
1.63501
 30
0.0
 11
3.35001
 21
1.63501
 31
0.0
  0
LINE
  5
1A1
  8
0
 10
3.35001
 20
1.63501
 30
0.0
 11
3.35001
 21
1.625
 31
0.0
  0
LINE
  5
1A2
  8
0
 10
3.35001
 20
1.625
 30
0.0
 11
5.64999
 21
1.625
 31
0.0
  0
LINE
  5
1A3
  8
0
 10
5.64999
 20
1.625
 30
0.0
 11
5.64999
 21
1.63501
 31
0.0
  0
LINE
  5
1A4
  8
0
 10
5.64999
 20
1.595
 30
0.0
 11
3.35001
 21
1.595
 31
0.0
  0
LINE
  5
1A5
  8
0
 10
3.35001
 20
1.595
 30
0.0
 11
3.35001
 21
1.58501
 31
0.0
  0
LINE
  5
1A6
  8
0
 10
3.35001
 20
1.58501
 30
0.0
 11
5.64999
 21
1.58501
 31
0.0
  0
LINE
  5
1A7
  8
0
 10
5.64999
 20
1.58501
 30
0.0
 11
5.64999
 21
1.595
 31
0.0
  0
LINE
  5
1A8
  8
0
 10
5.64999
 20
1.55501
 30
0.0
 11
3.35001
 21
1.55501
 31
0.0
  0
LINE
  5
1A9
  8
0
 10
3.35001
 20
1.55501
 30
0.0
 11
3.35001
 21
1.54501
 31
0.0
  0
LINE
  5
1AA
  8
0
 10
3.35001
 20
1.54501
 30
0.0
 11
5.64999
 21
1.54501
 31
0.0
  0
LINE
  5
1AB
  8
0
 10
5.64999
 20
1.54501
 30
0.0
 11
5.64999
 21
1.55501
 31
0.0
  0
LINE
  5
1AC
  8
0
 10
5.64999
 20
1.51501
 30
0.0
 11
3.35001
 21
1.51501
 31
0.0
  0
LINE
  5
1AD
  8
0
 10
3.35001
 20
1.51501
 30
0.0
 11
3.35001
 21
1.505
 31
0.0
  0
LINE
  5
1AE
  8
0
 10
3.35001
 20
1.505
 30
0.0
 11
5.64999
 21
1.505
 31
0.0
  0
LINE
  5
1AF
  8
0
 10
5.64999
 20
1.505
 30
0.0
 11
5.64999
 21
1.51501
 31
0.0
  0
LINE
  5
1B0
  8
0
 10
5.64999
 20
1.47501
 30
0.0
 11
3.35001
 21
1.47501
 31
0.0
  0
LINE
  5
1B1
  8
0
 10
3.35001
 20
1.47501
 30
0.0
 11
3.35001
 21
1.46501
 31
0.0
  0
LINE
  5
1B2
  8
0
 10
3.35001
 20
1.46501
 30
0.0
 11
5.64999
 21
1.46501
 31
0.0
  0
LINE
  5
1B3
  8
0
 10
5.64999
 20
1.46501
 30
0.0
 11
5.64999
 21
1.47501
 31
0.0
  0
LINE
  5
1B4
  8
0
 10
5.64999
 20
1.43501
 30
0.0
 11
3.35001
 21
1.43501
 31
0.0
  0
LINE
  5
1B5
  8
0
 10
3.35001
 20
1.43501
 30
0.0
 11
3.35001
 21
1.425
 31
0.0
  0
LINE
  5
1B6
  8
0
 10
3.35001
 20
1.425
 30
0.0
 11
5.64999
 21
1.425
 31
0.0
  0
LINE
  5
1B7
  8
0
 10
5.64999
 20
1.425
 30
0.0
 11
5.64999
 21
1.43501
 31
0.0
  0
LINE
  5
1B8
  8
0
 10
5.64999
 20
1.395
 30
0.0
 11
3.35001
 21
1.395
 31
0.0
  0
LINE
  5
1B9
  8
0
 10
3.35001
 20
1.395
 30
0.0
 11
3.35001
 21
1.38501
 31
0.0
  0
LINE
  5
1BA
  8
0
 10
3.35001
 20
1.38501
 30
0.0
 11
5.64999
 21
1.38501
 31
0.0
  0
LINE
  5
1BB
  8
0
 10
5.64999
 20
1.38501
 30
0.0
 11
5.64999
 21
1.395
 31
0.0
  0
LINE
  5
1BC
  8
0
 10
5.64999
 20
1.35501
 30
0.0
 11
3.35001
 21
1.35501
 31
0.0
  0
LINE
  5
1BD
  8
0
 10
3.35001
 20
1.35501
 30
0.0
 11
3.35001
 21
1.345
 31
0.0
  0
LINE
  5
1BE
  8
0
 10
3.35001
 20
1.345
 30
0.0
 11
5.64999
 21
1.345
 31
0.0
  0
LINE
  5
1BF
  8
0
 10
5.64999
 20
1.345
 30
0.0
 11
5.64999
 21
1.35501
 31
0.0
  0
LINE
  5
1C0
  8
0
 10
5.64999
 20
1.315
 30
0.0
 11
3.35001
 21
1.315
 31
0.0
  0
LINE
  5
1C1
  8
0
 10
3.35001
 20
1.315
 30
0.0
 11
3.35001
 21
1.30501
 31
0.0
  0
LINE
  5
1C2
  8
0
 10
3.35001
 20
1.30501
 30
0.0
 11
5.64999
 21
1.30501
 31
0.0
  0
LINE
  5
1C3
  8
0
 10
5.64999
 20
1.30501
 30
0.0
 11
5.64999
 21
1.315
 31
0.0
  0
LINE
  5
1C4
  8
0
 10
5.64999
 20
1.27501
 30
0.0
 11
3.35001
 21
1.27501
 31
0.0
  0
LINE
  5
1C5
  8
0
 10
3.35001
 20
1.27501
 30
0.0
 11
3.35001
 21
1.26501
 31
0.0
  0
LINE
  5
1C6
  8
0
 10
3.35001
 20
1.26501
 30
0.0
 11
5.64999
 21
1.26501
 31
0.0
  0
LINE
  5
1C7
  8
0
 10
5.64999
 20
1.26501
 30
0.0
 11
5.64999
 21
1.27501
 31
0.0
  0
ENDSEC
  0
EOF
