  0
SECTION
  2
HEADER
  9
$ACADVER
  1
AC1009
  9
$DWGCODEPAGE
  3
ANSI_1252
  9
$INSBASE
 10
0.0
 20
0.0
 30
0.0
  9
$EXTMIN
 10
1e+20
 20
1e+20
 30
1e+20
  9
$EXTMAX
 10
-1e+20
 20
-1e+20
 30
-1e+20
  9
$LIMMIN
 10
0.0
 20
0.0
  9
$LIMMAX
 10
420.0
 20
297.0
  9
$ORTHOMODE
 70
0
  9
$REGENMODE
 70
1
  9
$FILLMODE
 70
1
  9
$DRAGMODE
 70
2
  9
$QTEXTMODE
 70
0
  9
$MIRRTEXT
 70
1
  9
$OSMODE
 70
20583
  9
$LTSCALE
 40
1.0
  9
$ATTMODE
 70
1
  9
$TEXTSIZE
 40
2.5
  9
$TRACEWID
 40
1.0
  9
$TEXTSTYLE
  7
Standard
  9
$CLAYER
  8
0
  9
$CELTYPE
  6
ByLayer
  9
$CECOLOR
 62
256
  9
$DIMSCALE
 40
1.0
  9
$DIMASZ
 40
2.5
  9
$DIMEXO
 40
0.625
  9
$DIMDLI
 40
3.75
  9
$DIMRND
 40
0.0
  9
$DIMDLE
 40
0.0
  9
$DIMEXE
 40
1.25
  9
$DIMTP
 40
0.0
  9
$DIMTM
 40
0.0
  9
$DIMTXT
 40
2.5
  9
$DIMCEN
 40
2.5
  9
$DIMTSZ
 40
0.0
  9
$DIMTOL
 70
0
  9
$DIMLIM
 70
0
  9
$DIMTIH
 70
0
  9
$DIMTOH
 70
0
  9
$DIMSE1
 70
0
  9
$DIMSE2
 70
0
  9
$DIMTAD
 70
1
  9
$DIMZIN
 70
8
  9
$DIMBLK
  1

  9
$DIMASO
 70
1
  9
$DIMSHO
 70
1
  9
$DIMPOST
  1

  9
$DIMAPOST
  1

  9
$DIMALT
 70
0
  9
$DIMALTD
 70
3
  9
$DIMALTF
 40
0.03937007874
  9
$DIMLFAC
 40
1.0
  9
$DIMTOFL
 70
1
  9
$DIMTVP
 40
0.0
  9
$DIMTIX
 70
0
  9
$DIMSOXD
 70
0
  9
$DIMSAH
 70
0
  9
$DIMBLK1
  1

  9
$DIMBLK2
  1

  9
$DIMSTYLE
  2
ISO-25
  9
$DIMCLRD
 70
0
  9
$DIMCLRE
 70
0
  9
$DIMCLRT
 70
0
  9
$DIMTFAC
 40
1.0
  9
$DIMGAP
 40
0.625
  9
$COORDS
 70
1
  9
$ATTDIA
 70
0
  9
$ATTREQ
 70
1
  9
$HANDLING
 70
1
  9
$LUNITS
 70
2
  9
$LUPREC
 70
4
  9
$SKETCHINC
 40
1.0
  9
$FILLETRAD
 40
10.0
  9
$AUNITS
 70
0
  9
$AUPREC
 70
2
  9
$MENU
  1
.
  9
$ELEVATION
 40
0.0
  9
$PELEVATION
 40
0.0
  9
$THICKNESS
 40
0.0
  9
$LIMCHECK
 70
0
  9
$CHAMFERA
 40
0.0
  9
$CHAMFERB
 40
0.0
  9
$SKPOLY
 70
0
  9
$TDCREATE
 40
2459782.8146412037
  9
$TDUPDATE
 40
2459782.8146412037
  9
$TDINDWG
 40
0.0
  9
$TDUSRTIMER
 40
0.0
  9
$USRTIMER
 70
1
  9
$ANGBASE
 50
0.0
  9
$ANGDIR
 70
0
  9
$PDMODE
 70
0
  9
$PDSIZE
 40
0.0
  9
$PLINEWID
 40
0.0
  9
$SPLFRAME
 70
0
  9
$SPLINETYPE
 70
6
  9
$SPLINESEGS
 70
8
  9
$HANDSEED
  5
447
  9
$SURFTAB1
 70
6
  9
$SURFTAB2
 70
6
  9
$SURFTYPE
 70
6
  9
$SURFU
 70
6
  9
$SURFV
 70
6
  9
$UCSNAME
  2

  9
$UCSORG
 10
0.0
 20
0.0
 30
0.0
  9
$UCSXDIR
 10
1.0
 20
0.0
 30
0.0
  9
$UCSYDIR
 10
0.0
 20
1.0
 30
0.0
  9
$PUCSNAME
  2

  9
$PUCSORG
 10
0.0
 20
0.0
 30
0.0
  9
$PUCSXDIR
 10
1.0
 20
0.0
 30
0.0
  9
$PUCSYDIR
 10
0.0
 20
1.0
 30
0.0
  9
$USERI1
 70
0
  9
$USERI2
 70
0
  9
$USERI3
 70
0
  9
$USERI4
 70
0
  9
$USERI5
 70
0
  9
$USERR1
 40
0.0
  9
$USERR2
 40
0.0
  9
$USERR3
 40
0.0
  9
$USERR4
 40
0.0
  9
$USERR5
 40
0.0
  9
$WORLDVIEW
 70
1
  9
$SHADEDGE
 70
3
  9
$SHADEDIF
 70
70
  9
$TILEMODE
 70
1
  9
$MAXACTVP
 70
64
  9
$PLIMCHECK
 70
0
  9
$PEXTMIN
 10
1e+20
 20
1e+20
 30
1e+20
  9
$PEXTMAX
 10
-1e+20
 20
-1e+20
 30
-1e+20
  9
$PLIMMIN
 10
0.0
 20
0.0
  9
$PLIMMAX
 10
420.0
 20
297.0
  9
$UNITMODE
 70
0
  9
$VISRETAIN
 70
1
  9
$PLINEGEN
 70
0
  9
$PSLTSCALE
 70
1
  0
ENDSEC
  0
SECTION
  2
TABLES
  0
TABLE
  2
VPORT
 70
1
  0
VPORT
  5
43B
  2
*Active
 70
0
 10
0.0
 20
0.0
 11
1.0
 21
1.0
 12
0.0
 22
0.0
 13
0.0
 23
0.0
 14
0.5
 24
0.5
 15
0.5
 25
0.5
 16
0.0
 26
0.0
 36
1.0
 17
0.0
 27
0.0
 37
0.0
 40
1000.0
 41
1.34
 42
50.0
 43
0.0
 44
0.0
 50
0.0
 51
0.0
 71
0
 72
1000
 73
1
 74
3
 75
0
 76
0
 77
0
 78
0
  0
ENDTAB
  0
TABLE
  2
LTYPE
 70
3
  0
LTYPE
  5
43C
  2
ByBlock
 70
0
  3

 72
65
 73
0
 40
0.0
  0
LTYPE
  5
43D
  2
ByLayer
 70
0
  3

 72
65
 73
0
 40
0.0
  0
LTYPE
  5
43E
  2
Continuous
 70
0
  3

 72
65
 73
0
 40
0.0
  0
ENDTAB
  0
TABLE
  2
LAYER
 70
2
  0
LAYER
  5
43F
  2
0
 70
0
 62
7
  6
Continuous
  0
LAYER
  5
440
  2
Defpoints
 70
0
 62
7
  6
Continuous
  0
ENDTAB
  0
TABLE
  2
STYLE
 70
1
  0
STYLE
  5
441
  2
Standard
 70
0
 40
0.0
 41
1.0
 50
0.0
 71
0
 42
2.5
  3
txt
  4

  0
ENDTAB
  0
TABLE
  2
VIEW
 70
0
  0
ENDTAB
  0
TABLE
  2
UCS
 70
0
  0
ENDTAB
  0
TABLE
  2
APPID
 70
3
  0
APPID
  5
442
  2
ACAD
 70
0
  0
APPID
  5
445
  2
HATCHBACKGROUNDCOLOR
 70
0
  0
APPID
  5
446
  2
EZDXF
 70
0
  0
ENDTAB
  0
TABLE
  2
DIMSTYLE
 70
1
  0
DIMSTYLE
105
443
  2
Standard
 70
0
  3

  4

  5

  6

  7

 40
1.0
 41
2.5
 42
0.625
 43
3.75
 44
1.25
 45
0.0
 46
0.0
 47
0.0
 48
0.0
140
2.5
141
2.5
142
0.0
143
0.03937007874
144
1.0
145
0.0
146
1.0
147
0.625
 71
0
 72
0
 73
0
 74
0
 75
0
 76
0
 77
1
 78
8
170
0
171
3
172
1
173
0
174
0
175
0
176
0
177
0
178
0
  0
ENDTAB
  0
ENDSEC
  0
SECTION
  2
BLOCKS
  0
BLOCK
  5
41C
  8
0
  2
$Model_Space
 70
0
 10
0.0
 20
0.0
 30
0.0
  3
$Model_Space
  1

1001
EZDXF
1000
WRITTEN_BY_EZDXF
1000
0.17.2 @ 2022-07-21T23:33:05.654475+00:00
  0
ENDBLK
  5
41D
  8
0
  0
BLOCK
  5
41E
  8
0
  2
$Paper_Space
 70
0
 10
0.0
 20
0.0
 30
0.0
  3
$Paper_Space
  1

  0
ENDBLK
  5
41F
  8
0
  0
ENDSEC
  0
SECTION
  2
ENTITIES
  0
LINE
  5
100
  8
0
 10
6.75
 20
10.945
 30
0.0
 11
5.25
 21
10.945
 31
0.0
  0
LINE
  5
101
  8
0
 10
5.25
 20
10.945
 30
0.0
 11
5.25
 21
10.935
 31
0.0
  0
LINE
  5
102
  8
0
 10
5.25
 20
10.935
 30
0.0
 11
6.75
 21
10.935
 31
0.0
  0
LINE
  5
103
  8
0
 10
6.75
 20
10.935
 30
0.0
 11
6.75
 21
10.945
 31
0.0
  0
LINE
  5
104
  8
0
 10
6.75
 20
10.905
 30
0.0
 11
5.25
 21
10.905
 31
0.0
  0
LINE
  5
105
  8
0
 10
5.25
 20
10.905
 30
0.0
 11
5.25
 21
10.895
 31
0.0
  0
LINE
  5
106
  8
0
 10
5.25
 20
10.895
 30
0.0
 11
6.75
 21
10.895
 31
0.0
  0
LINE
  5
107
  8
0
 10
6.75
 20
10.895
 30
0.0
 11
6.75
 21
10.905
 31
0.0
  0
LINE
  5
108
  8
0
 10
6.75
 20
10.865
 30
0.0
 11
5.25
 21
10.865
 31
0.0
  0
LINE
  5
109
  8
0
 10
5.25
 20
10.865
 30
0.0
 11
5.25
 21
10.855
 31
0.0
  0
LINE
  5
10A
  8
0
 10
5.25
 20
10.855
 30
0.0
 11
6.75
 21
10.855
 31
0.0
  0
LINE
  5
10B
  8
0
 10
6.75
 20
10.855
 30
0.0
 11
6.75
 21
10.865
 31
0.0
  0
LINE
  5
10C
  8
0
 10
6.75
 20
10.825
 30
0.0
 11
5.25
 21
10.825
 31
0.0
  0
LINE
  5
10D
  8
0
 10
5.25
 20
10.825
 30
0.0
 11
5.25
 21
10.815
 31
0.0
  0
LINE
  5
10E
  8
0
 10
5.25
 20
10.815
 30
0.0
 11
6.75
 21
10.815
 31
0.0
  0
LINE
  5
10F
  8
0
 10
6.75
 20
10.815
 30
0.0
 11
6.75
 21
10.825
 31
0.0
  0
LINE
  5
110
  8
0
 10
6.75
 20
10.785
 30
0.0
 11
5.25
 21
10.785
 31
0.0
  0
LINE
  5
111
  8
0
 10
5.25
 20
10.785
 30
0.0
 11
5.25
 21
10.775
 31
0.0
  0
LINE
  5
112
  8
0
 10
5.25
 20
10.775
 30
0.0
 11
6.75
 21
10.775
 31
0.0
  0
LINE
  5
113
  8
0
 10
6.75
 20
10.775
 30
0.0
 11
6.75
 21
10.785
 31
0.0
  0
LINE
  5
114
  8
0
 10
6.75
 20
10.745
 30
0.0
 11
5.25
 21
10.745
 31
0.0
  0
LINE
  5
115
  8
0
 10
5.25
 20
10.745
 30
0.0
 11
5.25
 21
10.735
 31
0.0
  0
LINE
  5
116
  8
0
 10
5.25
 20
10.735
 30
0.0
 11
6.75
 21
10.735
 31
0.0
  0
LINE
  5
117
  8
0
 10
6.75
 20
10.735
 30
0.0
 11
6.75
 21
10.745
 31
0.0
  0
LINE
  5
118
  8
0
 10
6.75
 20
10.705
 30
0.0
 11
5.25
 21
10.705
 31
0.0
  0
LINE
  5
119
  8
0
 10
5.25
 20
10.705
 30
0.0
 11
5.25
 21
10.695
 31
0.0
  0
LINE
  5
11A
  8
0
 10
5.25
 20
10.695
 30
0.0
 11
6.75
 21
10.695
 31
0.0
  0
LINE
  5
11B
  8
0
 10
6.75
 20
10.695
 30
0.0
 11
6.75
 21
10.705
 31
0.0
  0
LINE
  5
11C
  8
0
 10
6.75
 20
10.665
 30
0.0
 11
5.25
 21
10.665
 31
0.0
  0
LINE
  5
11D
  8
0
 10
5.25
 20
10.665
 30
0.0
 11
5.25
 21
10.655
 31
0.0
  0
LINE
  5
11E
  8
0
 10
5.25
 20
10.655
 30
0.0
 11
6.75
 21
10.655
 31
0.0
  0
LINE
  5
11F
  8
0
 10
6.75
 20
10.655
 30
0.0
 11
6.75
 21
10.665
 31
0.0
  0
LINE
  5
120
  8
0
 10
6.75
 20
10.625
 30
0.0
 11
5.25
 21
10.625
 31
0.0
  0
LINE
  5
121
  8
0
 10
5.25
 20
10.625
 30
0.0
 11
5.25
 21
10.615
 31
0.0
  0
LINE
  5
122
  8
0
 10
5.25
 20
10.615
 30
0.0
 11
6.75
 21
10.615
 31
0.0
  0
LINE
  5
123
  8
0
 10
6.75
 20
10.615
 30
0.0
 11
6.75
 21
10.625
 31
0.0
  0
LINE
  5
124
  8
0
 10
6.75
 20
10.585
 30
0.0
 11
5.25
 21
10.585
 31
0.0
  0
LINE
  5
125
  8
0
 10
5.25
 20
10.585
 30
0.0
 11
5.25
 21
10.575
 31
0.0
  0
LINE
  5
126
  8
0
 10
5.25
 20
10.575
 30
0.0
 11
6.75
 21
10.575
 31
0.0
  0
LINE
  5
127
  8
0
 10
6.75
 20
10.575
 30
0.0
 11
6.75
 21
10.585
 31
0.0
  0
LINE
  5
128
  8
0
 10
6.75
 20
10.545
 30
0.0
 11
5.25
 21
10.545
 31
0.0
  0
LINE
  5
129
  8
0
 10
5.25
 20
10.545
 30
0.0
 11
5.25
 21
10.535
 31
0.0
  0
LINE
  5
12A
  8
0
 10
5.25
 20
10.535
 30
0.0
 11
6.75
 21
10.535
 31
0.0
  0
LINE
  5
12B
  8
0
 10
6.75
 20
10.535
 30
0.0
 11
6.75
 21
10.545
 31
0.0
  0
LINE
  5
12C
  8
0
 10
6.75
 20
10.505
 30
0.0
 11
5.25
 21
10.505
 31
0.0
  0
LINE
  5
12D
  8
0
 10
5.25
 20
10.505
 30
0.0
 11
5.25
 21
10.495
 31
0.0
  0
LINE
  5
12E
  8
0
 10
5.25
 20
10.495
 30
0.0
 11
6.75
 21
10.495
 31
0.0
  0
LINE
  5
12F
  8
0
 10
6.75
 20
10.495
 30
0.0
 11
6.75
 21
10.505
 31
0.0
  0
LINE
  5
130
  8
0
 10
6.75
 20
10.465
 30
0.0
 11
5.25
 21
10.465
 31
0.0
  0
LINE
  5
131
  8
0
 10
5.25
 20
10.465
 30
0.0
 11
5.25
 21
10.455
 31
0.0
  0
LINE
  5
132
  8
0
 10
5.25
 20
10.455
 30
0.0
 11
6.75
 21
10.455
 31
0.0
  0
LINE
  5
133
  8
0
 10
6.75
 20
10.455
 30
0.0
 11
6.75
 21
10.465
 31
0.0
  0
LINE
  5
134
  8
0
 10
6.75
 20
10.425
 30
0.0
 11
5.25
 21
10.425
 31
0.0
  0
LINE
  5
135
  8
0
 10
5.25
 20
10.425
 30
0.0
 11
5.25
 21
10.415
 31
0.0
  0
LINE
  5
136
  8
0
 10
5.25
 20
10.415
 30
0.0
 11
6.75
 21
10.415
 31
0.0
  0
LINE
  5
137
  8
0
 10
6.75
 20
10.415
 30
0.0
 11
6.75
 21
10.425
 31
0.0
  0
LINE
  5
138
  8
0
 10
6.75
 20
10.385
 30
0.0
 11
5.25
 21
10.385
 31
0.0
  0
LINE
  5
139
  8
0
 10
5.25
 20
10.385
 30
0.0
 11
5.25
 21
10.375
 31
0.0
  0
LINE
  5
13A
  8
0
 10
5.25
 20
10.375
 30
0.0
 11
6.75
 21
10.375
 31
0.0
  0
LINE
  5
13B
  8
0
 10
6.75
 20
10.375
 30
0.0
 11
6.75
 21
10.385
 31
0.0
  0
LINE
  5
13C
  8
0
 10
6.75
 20
10.345
 30
0.0
 11
5.25
 21
10.345
 31
0.0
  0
LINE
  5
13D
  8
0
 10
5.25
 20
10.345
 30
0.0
 11
5.25
 21
10.335
 31
0.0
  0
LINE
  5
13E
  8
0
 10
5.25
 20
10.335
 30
0.0
 11
6.75
 21
10.335
 31
0.0
  0
LINE
  5
13F
  8
0
 10
6.75
 20
10.335
 30
0.0
 11
6.75
 21
10.345
 31
0.0
  0
LINE
  5
140
  8
0
 10
6.75
 20
10.305
 30
0.0
 11
5.25
 21
10.305
 31
0.0
  0
LINE
  5
141
  8
0
 10
5.25
 20
10.305
 30
0.0
 11
5.25
 21
10.295
 31
0.0
  0
LINE
  5
142
  8
0
 10
5.25
 20
10.295
 30
0.0
 11
6.75
 21
10.295
 31
0.0
  0
LINE
  5
143
  8
0
 10
6.75
 20
10.295
 30
0.0
 11
6.75
 21
10.305
 31
0.0
  0
LINE
  5
144
  8
0
 10
6.75
 20
10.265
 30
0.0
 11
5.25
 21
10.265
 31
0.0
  0
LINE
  5
145
  8
0
 10
5.25
 20
10.265
 30
0.0
 11
5.25
 21
10.255
 31
0.0
  0
LINE
  5
146
  8
0
 10
5.25
 20
10.255
 30
0.0
 11
6.75
 21
10.255
 31
0.0
  0
LINE
  5
147
  8
0
 10
6.75
 20
10.255
 30
0.0
 11
6.75
 21
10.265
 31
0.0
  0
LINE
  5
148
  8
0
 10
6.75
 20
10.225
 30
0.0
 11
5.25
 21
10.225
 31
0.0
  0
LINE
  5
149
  8
0
 10
5.25
 20
10.225
 30
0.0
 11
5.25
 21
10.215
 31
0.0
  0
LINE
  5
14A
  8
0
 10
5.25
 20
10.215
 30
0.0
 11
6.75
 21
10.215
 31
0.0
  0
LINE
  5
14B
  8
0
 10
6.75
 20
10.215
 30
0.0
 11
6.75
 21
10.225
 31
0.0
  0
LINE
  5
14C
  8
0
 10
6.75
 20
10.185
 30
0.0
 11
5.25
 21
10.185
 31
0.0
  0
LINE
  5
14D
  8
0
 10
5.25
 20
10.185
 30
0.0
 11
5.25
 21
10.175
 31
0.0
  0
LINE
  5
14E
  8
0
 10
5.25
 20
10.175
 30
0.0
 11
6.75
 21
10.175
 31
0.0
  0
LINE
  5
14F
  8
0
 10
6.75
 20
10.175
 30
0.0
 11
6.75
 21
10.185
 31
0.0
  0
LINE
  5
150
  8
0
 10
6.75
 20
10.145
 30
0.0
 11
5.25
 21
10.145
 31
0.0
  0
LINE
  5
151
  8
0
 10
5.25
 20
10.145
 30
0.0
 11
5.25
 21
10.135
 31
0.0
  0
LINE
  5
152
  8
0
 10
5.25
 20
10.135
 30
0.0
 11
6.75
 21
10.135
 31
0.0
  0
LINE
  5
153
  8
0
 10
6.75
 20
10.135
 30
0.0
 11
6.75
 21
10.145
 31
0.0
  0
LINE
  5
154
  8
0
 10
6.75
 20
10.105
 30
0.0
 11
5.25
 21
10.105
 31
0.0
  0
LINE
  5
155
  8
0
 10
5.25
 20
10.105
 30
0.0
 11
5.25
 21
10.095
 31
0.0
  0
LINE
  5
156
  8
0
 10
5.25
 20
10.095
 30
0.0
 11
6.75
 21
10.095
 31
0.0
  0
LINE
  5
157
  8
0
 10
6.75
 20
10.095
 30
0.0
 11
6.75
 21
10.105
 31
0.0
  0
LINE
  5
158
  8
0
 10
6.75
 20
10.065
 30
0.0
 11
5.25
 21
10.065
 31
0.0
  0
LINE
  5
159
  8
0
 10
5.25
 20
10.065
 30
0.0
 11
5.25
 21
10.055
 31
0.0
  0
LINE
  5
15A
  8
0
 10
5.25
 20
10.055
 30
0.0
 11
6.75
 21
10.055
 31
0.0
  0
LINE
  5
15B
  8
0
 10
6.75
 20
10.055
 30
0.0
 11
6.75
 21
10.065
 31
0.0
  0
LINE
  5
15C
  8
0
 10
6.75
 20
10.025
 30
0.0
 11
5.25
 21
10.025
 31
0.0
  0
LINE
  5
15D
  8
0
 10
5.25
 20
10.025
 30
0.0
 11
5.25
 21
10.015
 31
0.0
  0
LINE
  5
15E
  8
0
 10
5.25
 20
10.015
 30
0.0
 11
6.75
 21
10.015
 31
0.0
  0
LINE
  5
15F
  8
0
 10
6.75
 20
10.015
 30
0.0
 11
6.75
 21
10.025
 31
0.0
  0
LINE
  5
160
  8
0
 10
6.75
 20
9.98499
 30
0.0
 11
5.25
 21
9.98499
 31
0.0
  0
LINE
  5
161
  8
0
 10
5.25
 20
9.98499
 30
0.0
 11
5.25
 21
9.97499
 31
0.0
  0
LINE
  5
162
  8
0
 10
5.25
 20
9.97499
 30
0.0
 11
6.75
 21
9.97499
 31
0.0
  0
LINE
  5
163
  8
0
 10
6.75
 20
9.97499
 30
0.0
 11
6.75
 21
9.98499
 31
0.0
  0
LINE
  5
164
  8
0
 10
6.75
 20
9.94499
 30
0.0
 11
5.25
 21
9.94499
 31
0.0
  0
LINE
  5
165
  8
0
 10
5.25
 20
9.94499
 30
0.0
 11
5.25
 21
9.935
 31
0.0
  0
LINE
  5
166
  8
0
 10
5.25
 20
9.935
 30
0.0
 11
6.75
 21
9.935
 31
0.0
  0
LINE
  5
167
  8
0
 10
6.75
 20
9.935
 30
0.0
 11
6.75
 21
9.94499
 31
0.0
  0
LINE
  5
168
  8
0
 10
6.75
 20
9.905
 30
0.0
 11
5.25
 21
9.905
 31
0.0
  0
LINE
  5
169
  8
0
 10
5.25
 20
9.905
 30
0.0
 11
5.25
 21
9.89499
 31
0.0
  0
LINE
  5
16A
  8
0
 10
5.25
 20
9.89499
 30
0.0
 11
6.75
 21
9.89499
 31
0.0
  0
LINE
  5
16B
  8
0
 10
6.75
 20
9.89499
 30
0.0
 11
6.75
 21
9.905
 31
0.0
  0
LINE
  5
16C
  8
0
 10
6.75
 20
9.86499
 30
0.0
 11
5.25
 21
9.86499
 31
0.0
  0
LINE
  5
16D
  8
0
 10
5.25
 20
9.86499
 30
0.0
 11
5.25
 21
9.855
 31
0.0
  0
LINE
  5
16E
  8
0
 10
5.25
 20
9.855
 30
0.0
 11
6.75
 21
9.855
 31
0.0
  0
LINE
  5
16F
  8
0
 10
6.75
 20
9.855
 30
0.0
 11
6.75
 21
9.86499
 31
0.0
  0
LINE
  5
170
  8
0
 10
6.75
 20
9.825
 30
0.0
 11
5.25
 21
9.825
 31
0.0
  0
LINE
  5
171
  8
0
 10
5.25
 20
9.825
 30
0.0
 11
5.25
 21
9.81499
 31
0.0
  0
LINE
  5
172
  8
0
 10
5.25
 20
9.81499
 30
0.0
 11
6.75
 21
9.81499
 31
0.0
  0
LINE
  5
173
  8
0
 10
6.75
 20
9.81499
 30
0.0
 11
6.75
 21
9.825
 31
0.0
  0
LINE
  5
174
  8
0
 10
6.75
 20
9.78499
 30
0.0
 11
5.25
 21
9.78499
 31
0.0
  0
LINE
  5
175
  8
0
 10
5.25
 20
9.78499
 30
0.0
 11
5.25
 21
9.77499
 31
0.0
  0
LINE
  5
176
  8
0
 10
5.25
 20
9.77499
 30
0.0
 11
6.75
 21
9.77499
 31
0.0
  0
LINE
  5
177
  8
0
 10
6.75
 20
9.77499
 30
0.0
 11
6.75
 21
9.78499
 31
0.0
  0
LINE
  5
178
  8
0
 10
6.75
 20
9.745
 30
0.0
 11
5.25
 21
9.745
 31
0.0
  0
LINE
  5
179
  8
0
 10
5.25
 20
9.745
 30
0.0
 11
5.25
 21
9.73499
 31
0.0
  0
LINE
  5
17A
  8
0
 10
5.25
 20
9.73499
 30
0.0
 11
6.75
 21
9.73499
 31
0.0
  0
LINE
  5
17B
  8
0
 10
6.75
 20
9.73499
 30
0.0
 11
6.75
 21
9.745
 31
0.0
  0
LINE
  5
17C
  8
0
 10
6.75
 20
9.70499
 30
0.0
 11
5.25
 21
9.70499
 31
0.0
  0
LINE
  5
17D
  8
0
 10
5.25
 20
9.70499
 30
0.0
 11
5.25
 21
9.69499
 31
0.0
  0
LINE
  5
17E
  8
0
 10
5.25
 20
9.69499
 30
0.0
 11
6.75
 21
9.69499
 31
0.0
  0
LINE
  5
17F
  8
0
 10
6.75
 20
9.69499
 30
0.0
 11
6.75
 21
9.70499
 31
0.0
  0
LINE
  5
180
  8
0
 10
6.75
 20
9.66499
 30
0.0
 11
5.25
 21
9.66499
 31
0.0
  0
LINE
  5
181
  8
0
 10
5.25
 20
9.66499
 30
0.0
 11
5.25
 21
9.655
 31
0.0
  0
LINE
  5
182
  8
0
 10
5.25
 20
9.655
 30
0.0
 11
6.75
 21
9.655
 31
0.0
  0
LINE
  5
183
  8
0
 10
6.75
 20
9.655
 30
0.0
 11
6.75
 21
9.66499
 31
0.0
  0
LINE
  5
184
  8
0
 10
6.75
 20
9.625
 30
0.0
 11
5.25
 21
9.625
 31
0.0
  0
LINE
  5
185
  8
0
 10
5.25
 20
9.625
 30
0.0
 11
5.25
 21
9.61499
 31
0.0
  0
LINE
  5
186
  8
0
 10
5.25
 20
9.61499
 30
0.0
 11
6.75
 21
9.61499
 31
0.0
  0
LINE
  5
187
  8
0
 10
6.75
 20
9.61499
 30
0.0
 11
6.75
 21
9.625
 31
0.0
  0
LINE
  5
188
  8
0
 10
6.75
 20
9.58499
 30
0.0
 11
5.25
 21
9.58499
 31
0.0
  0
LINE
  5
189
  8
0
 10
5.25
 20
9.58499
 30
0.0
 11
5.25
 21
9.575
 31
0.0
  0
LINE
  5
18A
  8
0
 10
5.25
 20
9.575
 30
0.0
 11
6.75
 21
9.575
 31
0.0
  0
LINE
  5
18B
  8
0
 10
6.75
 20
9.575
 30
0.0
 11
6.75
 21
9.58499
 31
0.0
  0
LINE
  5
18C
  8
0
 10
6.75
 20
9.545
 30
0.0
 11
5.25
 21
9.545
 31
0.0
  0
LINE
  5
18D
  8
0
 10
5.25
 20
9.545
 30
0.0
 11
5.25
 21
9.53499
 31
0.0
  0
LINE
  5
18E
  8
0
 10
5.25
 20
9.53499
 30
0.0
 11
6.75
 21
9.53499
 31
0.0
  0
LINE
  5
18F
  8
0
 10
6.75
 20
9.53499
 30
0.0
 11
6.75
 21
9.545
 31
0.0
  0
LINE
  5
190
  8
0
 10
6.75
 20
9.50499
 30
0.0
 11
5.25
 21
9.50499
 31
0.0
  0
LINE
  5
191
  8
0
 10
5.25
 20
9.50499
 30
0.0
 11
5.25
 21
9.495
 31
0.0
  0
LINE
  5
192
  8
0
 10
5.25
 20
9.495
 30
0.0
 11
6.75
 21
9.495
 31
0.0
  0
LINE
  5
193
  8
0
 10
6.75
 20
9.495
 30
0.0
 11
6.75
 21
9.50499
 31
0.0
  0
LINE
  5
194
  8
0
 10
6.75
 20
9.465
 30
0.0
 11
5.25
 21
9.465
 31
0.0
  0
LINE
  5
195
  8
0
 10
5.25
 20
9.465
 30
0.0
 11
5.25
 21
9.45499
 31
0.0
  0
LINE
  5
196
  8
0
 10
5.25
 20
9.45499
 30
0.0
 11
6.75
 21
9.45499
 31
0.0
  0
LINE
  5
197
  8
0
 10
6.75
 20
9.45499
 30
0.0
 11
6.75
 21
9.465
 31
0.0
  0
LINE
  5
198
  8
0
 10
6.75
 20
9.42499
 30
0.0
 11
5.25
 21
9.42499
 31
0.0
  0
LINE
  5
199
  8
0
 10
5.25
 20
9.42499
 30
0.0
 11
5.25
 21
9.41499
 31
0.0
  0
LINE
  5
19A
  8
0
 10
5.25
 20
9.41499
 30
0.0
 11
6.75
 21
9.41499
 31
0.0
  0
LINE
  5
19B
  8
0
 10
6.75
 20
9.41499
 30
0.0
 11
6.75
 21
9.42499
 31
0.0
  0
LINE
  5
19C
  8
0
 10
6.75
 20
9.38499
 30
0.0
 11
5.25
 21
9.38499
 31
0.0
  0
LINE
  5
19D
  8
0
 10
5.25
 20
9.38499
 30
0.0
 11
5.25
 21
9.375
 31
0.0
  0
LINE
  5
19E
  8
0
 10
5.25
 20
9.375
 30
0.0
 11
6.75
 21
9.375
 31
0.0
  0
LINE
  5
19F
  8
0
 10
6.75
 20
9.375
 30
0.0
 11
6.75
 21
9.38499
 31
0.0
  0
LINE
  5
1A0
  8
0
 10
6.75
 20
9.34499
 30
0.0
 11
5.25
 21
9.34499
 31
0.0
  0
LINE
  5
1A1
  8
0
 10
5.25
 20
9.34499
 30
0.0
 11
5.25
 21
9.33499
 31
0.0
  0
LINE
  5
1A2
  8
0
 10
5.25
 20
9.33499
 30
0.0
 11
6.75
 21
9.33499
 31
0.0
  0
LINE
  5
1A3
  8
0
 10
6.75
 20
9.33499
 30
0.0
 11
6.75
 21
9.34499
 31
0.0
  0
LINE
  5
1A4
  8
0
 10
6.75
 20
9.30499
 30
0.0
 11
5.25
 21
9.30499
 31
0.0
  0
LINE
  5
1A5
  8
0
 10
5.25
 20
9.30499
 30
0.0
 11
5.25
 21
9.295
 31
0.0
  0
LINE
  5
1A6
  8
0
 10
5.25
 20
9.295
 30
0.0
 11
6.75
 21
9.295
 31
0.0
  0
LINE
  5
1A7
  8
0
 10
6.75
 20
9.295
 30
0.0
 11
6.75
 21
9.30499
 31
0.0
  0
LINE
  5
1A8
  8
0
 10
6.75
 20
9.265
 30
0.0
 11
5.25
 21
9.265
 31
0.0
  0
LINE
  5
1A9
  8
0
 10
5.25
 20
9.265
 30
0.0
 11
5.25
 21
9.25499
 31
0.0
  0
LINE
  5
1AA
  8
0
 10
5.25
 20
9.25499
 30
0.0
 11
6.75
 21
9.25499
 31
0.0
  0
LINE
  5
1AB
  8
0
 10
6.75
 20
9.25499
 30
0.0
 11
6.75
 21
9.265
 31
0.0
  0
LINE
  5
1AC
  8
0
 10
6.75
 20
9.22499
 30
0.0
 11
5.25
 21
9.22499
 31
0.0
  0
LINE
  5
1AD
  8
0
 10
5.25
 20
9.22499
 30
0.0
 11
5.25
 21
9.215
 31
0.0
  0
LINE
  5
1AE
  8
0
 10
5.25
 20
9.215
 30
0.0
 11
6.75
 21
9.215
 31
0.0
  0
LINE
  5
1AF
  8
0
 10
6.75
 20
9.215
 30
0.0
 11
6.75
 21
9.22499
 31
0.0
  0
LINE
  5
1B0
  8
0
 10
6.75
 20
9.185
 30
0.0
 11
5.25
 21
9.185
 31
0.0
  0
LINE
  5
1B1
  8
0
 10
5.25
 20
9.185
 30
0.0
 11
5.25
 21
9.17499
 31
0.0
  0
LINE
  5
1B2
  8
0
 10
5.25
 20
9.17499
 30
0.0
 11
6.75
 21
9.17499
 31
0.0
  0
LINE
  5
1B3
  8
0
 10
6.75
 20
9.17499
 30
0.0
 11
6.75
 21
9.185
 31
0.0
  0
LINE
  5
1B4
  8
0
 10
6.75
 20
9.14499
 30
0.0
 11
5.25
 21
9.14499
 31
0.0
  0
LINE
  5
1B5
  8
0
 10
5.25
 20
9.14499
 30
0.0
 11
5.25
 21
9.13499
 31
0.0
  0
LINE
  5
1B6
  8
0
 10
5.25
 20
9.13499
 30
0.0
 11
6.75
 21
9.13499
 31
0.0
  0
LINE
  5
1B7
  8
0
 10
6.75
 20
9.13499
 30
0.0
 11
6.75
 21
9.14499
 31
0.0
  0
LINE
  5
1B8
  8
0
 10
6.75
 20
9.105
 30
0.0
 11
5.25
 21
9.105
 31
0.0
  0
LINE
  5
1B9
  8
0
 10
5.25
 20
9.105
 30
0.0
 11
5.25
 21
9.09499
 31
0.0
  0
LINE
  5
1BA
  8
0
 10
5.25
 20
9.09499
 30
0.0
 11
6.75
 21
9.09499
 31
0.0
  0
LINE
  5
1BB
  8
0
 10
6.75
 20
9.09499
 30
0.0
 11
6.75
 21
9.105
 31
0.0
  0
LINE
  5
1BC
  8
0
 10
6.75
 20
9.06499
 30
0.0
 11
5.25
 21
9.06499
 31
0.0
  0
LINE
  5
1BD
  8
0
 10
5.25
 20
9.06499
 30
0.0
 11
5.25
 21
9.05499
 31
0.0
  0
LINE
  5
1BE
  8
0
 10
5.25
 20
9.05499
 30
0.0
 11
6.75
 21
9.05499
 31
0.0
  0
LINE
  5
1BF
  8
0
 10
6.75
 20
9.05499
 30
0.0
 11
6.75
 21
9.06499
 31
0.0
  0
LINE
  5
1C0
  8
0
 10
6.75
 20
9.02499
 30
0.0
 11
5.25
 21
9.02499
 31
0.0
  0
LINE
  5
1C1
  8
0
 10
5.25
 20
9.02499
 30
0.0
 11
5.25
 21
9.015
 31
0.0
  0
LINE
  5
1C2
  8
0
 10
5.25
 20
9.015
 30
0.0
 11
6.75
 21
9.015
 31
0.0
  0
LINE
  5
1C3
  8
0
 10
6.75
 20
9.015
 30
0.0
 11
6.75
 21
9.02499
 31
0.0
  0
LINE
  5
1C4
  8
0
 10
6.75
 20
8.985
 30
0.0
 11
5.25
 21
8.985
 31
0.0
  0
LINE
  5
1C5
  8
0
 10
5.25
 20
8.985
 30
0.0
 11
5.25
 21
8.97501
 31
0.0
  0
LINE
  5
1C6
  8
0
 10
5.25
 20
8.97501
 30
0.0
 11
6.75
 21
8.97501
 31
0.0
  0
LINE
  5
1C7
  8
0
 10
6.75
 20
8.97501
 30
0.0
 11
6.75
 21
8.985
 31
0.0
  0
LINE
  5
1C8
  8
0
 10
6.75
 20
8.94501
 30
0.0
 11
5.25
 21
8.94501
 31
0.0
  0
LINE
  5
1C9
  8
0
 10
5.25
 20
8.94501
 30
0.0
 11
5.25
 21
8.93501
 31
0.0
  0
LINE
  5
1CA
  8
0
 10
5.25
 20
8.93501
 30
0.0
 11
6.75
 21
8.93501
 31
0.0
  0
LINE
  5
1CB
  8
0
 10
6.75
 20
8.93501
 30
0.0
 11
6.75
 21
8.94501
 31
0.0
  0
LINE
  5
1CC
  8
0
 10
6.75
 20
8.90501
 30
0.0
 11
5.25
 21
8.90501
 31
0.0
  0
LINE
  5
1CD
  8
0
 10
5.25
 20
8.90501
 30
0.0
 11
5.25
 21
8.895
 31
0.0
  0
LINE
  5
1CE
  8
0
 10
5.25
 20
8.895
 30
0.0
 11
6.75
 21
8.895
 31
0.0
  0
LINE
  5
1CF
  8
0
 10
6.75
 20
8.895
 30
0.0
 11
6.75
 21
8.90501
 31
0.0
  0
LINE
  5
1D0
  8
0
 10
6.75
 20
8.86501
 30
0.0
 11
5.25
 21
8.86501
 31
0.0
  0
LINE
  5
1D1
  8
0
 10
5.25
 20
8.86501
 30
0.0
 11
5.25
 21
8.85501
 31
0.0
  0
LINE
  5
1D2
  8
0
 10
5.25
 20
8.85501
 30
0.0
 11
6.75
 21
8.85501
 31
0.0
  0
LINE
  5
1D3
  8
0
 10
6.75
 20
8.85501
 30
0.0
 11
6.75
 21
8.86501
 31
0.0
  0
LINE
  5
1D4
  8
0
 10
6.75
 20
8.82501
 30
0.0
 11
5.25
 21
8.82501
 31
0.0
  0
LINE
  5
1D5
  8
0
 10
5.25
 20
8.82501
 30
0.0
 11
5.25
 21
8.815
 31
0.0
  0
LINE
  5
1D6
  8
0
 10
5.25
 20
8.815
 30
0.0
 11
6.75
 21
8.815
 31
0.0
  0
LINE
  5
1D7
  8
0
 10
6.75
 20
8.815
 30
0.0
 11
6.75
 21
8.82501
 31
0.0
  0
LINE
  5
1D8
  8
0
 10
6.75
 20
8.785
 30
0.0
 11
5.25
 21
8.785
 31
0.0
  0
LINE
  5
1D9
  8
0
 10
5.25
 20
8.785
 30
0.0
 11
5.25
 21
8.77501
 31
0.0
  0
LINE
  5
1DA
  8
0
 10
5.25
 20
8.77501
 30
0.0
 11
6.75
 21
8.77501
 31
0.0
  0
LINE
  5
1DB
  8
0
 10
6.75
 20
8.77501
 30
0.0
 11
6.75
 21
8.785
 31
0.0
  0
LINE
  5
1DC
  8
0
 10
6.75
 20
8.74501
 30
0.0
 11
5.25
 21
8.74501
 31
0.0
  0
LINE
  5
1DD
  8
0
 10
5.25
 20
8.74501
 30
0.0
 11
5.25
 21
8.735
 31
0.0
  0
LINE
  5
1DE
  8
0
 10
5.25
 20
8.735
 30
0.0
 11
6.75
 21
8.735
 31
0.0
  0
LINE
  5
1DF
  8
0
 10
6.75
 20
8.735
 30
0.0
 11
6.75
 21
8.74501
 31
0.0
  0
LINE
  5
1E0
  8
0
 10
6.75
 20
8.705
 30
0.0
 11
5.25
 21
8.705
 31
0.0
  0
LINE
  5
1E1
  8
0
 10
5.25
 20
8.705
 30
0.0
 11
5.25
 21
8.69501
 31
0.0
  0
LINE
  5
1E2
  8
0
 10
5.25
 20
8.69501
 30
0.0
 11
6.75
 21
8.69501
 31
0.0
  0
LINE
  5
1E3
  8
0
 10
6.75
 20
8.69501
 30
0.0
 11
6.75
 21
8.705
 31
0.0
  0
LINE
  5
1E4
  8
0
 10
6.75
 20
8.66501
 30
0.0
 11
5.25
 21
8.66501
 31
0.0
  0
LINE
  5
1E5
  8
0
 10
5.25
 20
8.66501
 30
0.0
 11
5.25
 21
8.65501
 31
0.0
  0
LINE
  5
1E6
  8
0
 10
5.25
 20
8.65501
 30
0.0
 11
6.75
 21
8.65501
 31
0.0
  0
LINE
  5
1E7
  8
0
 10
6.75
 20
8.65501
 30
0.0
 11
6.75
 21
8.66501
 31
0.0
  0
LINE
  5
1E8
  8
0
 10
6.75
 20
8.625
 30
0.0
 11
5.25
 21
8.625
 31
0.0
  0
LINE
  5
1E9
  8
0
 10
5.25
 20
8.625
 30
0.0
 11
5.25
 21
8.61501
 31
0.0
  0
LINE
  5
1EA
  8
0
 10
5.25
 20
8.61501
 30
0.0
 11
6.75
 21
8.61501
 31
0.0
  0
LINE
  5
1EB
  8
0
 10
6.75
 20
8.61501
 30
0.0
 11
6.75
 21
8.625
 31
0.0
  0
LINE
  5
1EC
  8
0
 10
6.75
 20
8.58501
 30
0.0
 11
5.25
 21
8.58501
 31
0.0
  0
LINE
  5
1ED
  8
0
 10
5.25
 20
8.58501
 30
0.0
 11
5.25
 21
8.57501
 31
0.0
  0
LINE
  5
1EE
  8
0
 10
5.25
 20
8.57501
 30
0.0
 11
6.75
 21
8.57501
 31
0.0
  0
LINE
  5
1EF
  8
0
 10
6.75
 20
8.57501
 30
0.0
 11
6.75
 21
8.58501
 31
0.0
  0
LINE
  5
1F0
  8
0
 10
6.75
 20
8.54501
 30
0.0
 11
5.25
 21
8.54501
 31
0.0
  0
LINE
  5
1F1
  8
0
 10
5.25
 20
8.54501
 30
0.0
 11
5.25
 21
8.535
 31
0.0
  0
LINE
  5
1F2
  8
0
 10
5.25
 20
8.535
 30
0.0
 11
6.75
 21
8.535
 31
0.0
  0
LINE
  5
1F3
  8
0
 10
6.75
 20
8.535
 30
0.0
 11
6.75
 21
8.54501
 31
0.0
  0
LINE
  5
1F4
  8
0
 10
6.75
 20
8.505
 30
0.0
 11
5.25
 21
8.505
 31
0.0
  0
LINE
  5
1F5
  8
0
 10
5.25
 20
8.505
 30
0.0
 11
5.25
 21
8.49501
 31
0.0
  0
LINE
  5
1F6
  8
0
 10
5.25
 20
8.49501
 30
0.0
 11
6.75
 21
8.49501
 31
0.0
  0
LINE
  5
1F7
  8
0
 10
6.75
 20
8.49501
 30
0.0
 11
6.75
 21
8.505
 31
0.0
  0
LINE
  5
1F8
  8
0
 10
6.75
 20
8.46501
 30
0.0
 11
5.25
 21
8.46501
 31
0.0
  0
LINE
  5
1F9
  8
0
 10
5.25
 20
8.46501
 30
0.0
 11
5.25
 21
8.455
 31
0.0
  0
LINE
  5
1FA
  8
0
 10
5.25
 20
8.455
 30
0.0
 11
6.75
 21
8.455
 31
0.0
  0
LINE
  5
1FB
  8
0
 10
6.75
 20
8.455
 30
0.0
 11
6.75
 21
8.46501
 31
0.0
  0
LINE
  5
1FC
  8
0
 10
6.75
 20
8.425
 30
0.0
 11
5.25
 21
8.425
 31
0.0
  0
LINE
  5
1FD
  8
0
 10
5.25
 20
8.425
 30
0.0
 11
5.25
 21
8.41501
 31
0.0
  0
LINE
  5
1FE
  8
0
 10
5.25
 20
8.41501
 30
0.0
 11
6.75
 21
8.41501
 31
0.0
  0
LINE
  5
1FF
  8
0
 10
6.75
 20
8.41501
 30
0.0
 11
6.75
 21
8.425
 31
0.0
  0
LINE
  5
200
  8
0
 10
6.75
 20
8.38501
 30
0.0
 11
5.25
 21
8.38501
 31
0.0
  0
LINE
  5
201
  8
0
 10
5.25
 20
8.38501
 30
0.0
 11
5.25
 21
8.375
 31
0.0
  0
LINE
  5
202
  8
0
 10
5.25
 20
8.375
 30
0.0
 11
6.75
 21
8.375
 31
0.0
  0
LINE
  5
203
  8
0
 10
6.75
 20
8.375
 30
0.0
 11
6.75
 21
8.38501
 31
0.0
  0
LINE
  5
204
  8
0
 10
6.75
 20
8.345
 30
0.0
 11
5.25
 21
8.345
 31
0.0
  0
LINE
  5
205
  8
0
 10
5.25
 20
8.345
 30
0.0
 11
5.25
 21
8.33501
 31
0.0
  0
LINE
  5
206
  8
0
 10
5.25
 20
8.33501
 30
0.0
 11
6.75
 21
8.33501
 31
0.0
  0
LINE
  5
207
  8
0
 10
6.75
 20
8.33501
 30
0.0
 11
6.75
 21
8.345
 31
0.0
  0
LINE
  5
208
  8
0
 10
6.75
 20
8.30501
 30
0.0
 11
5.25
 21
8.30501
 31
0.0
  0
LINE
  5
209
  8
0
 10
5.25
 20
8.30501
 30
0.0
 11
5.25
 21
8.29501
 31
0.0
  0
LINE
  5
20A
  8
0
 10
5.25
 20
8.29501
 30
0.0
 11
6.75
 21
8.29501
 31
0.0
  0
LINE
  5
20B
  8
0
 10
6.75
 20
8.29501
 30
0.0
 11
6.75
 21
8.30501
 31
0.0
  0
LINE
  5
20C
  8
0
 10
6.75
 20
8.26501
 30
0.0
 11
5.25
 21
8.26501
 31
0.0
  0
LINE
  5
20D
  8
0
 10
5.25
 20
8.26501
 30
0.0
 11
5.25
 21
8.255
 31
0.0
  0
LINE
  5
20E
  8
0
 10
5.25
 20
8.255
 30
0.0
 11
6.75
 21
8.255
 31
0.0
  0
LINE
  5
20F
  8
0
 10
6.75
 20
8.255
 30
0.0
 11
6.75
 21
8.26501
 31
0.0
  0
LINE
  5
210
  8
0
 10
6.75
 20
8.22501
 30
0.0
 11
5.25
 21
8.22501
 31
0.0
  0
LINE
  5
211
  8
0
 10
5.25
 20
8.22501
 30
0.0
 11
5.25
 21
8.21501
 31
0.0
  0
LINE
  5
212
  8
0
 10
5.25
 20
8.21501
 30
0.0
 11
6.75
 21
8.21501
 31
0.0
  0
LINE
  5
213
  8
0
 10
6.75
 20
8.21501
 30
0.0
 11
6.75
 21
8.22501
 31
0.0
  0
LINE
  5
214
  8
0
 10
6.75
 20
8.18501
 30
0.0
 11
5.25
 21
8.18501
 31
0.0
  0
LINE
  5
215
  8
0
 10
5.25
 20
8.18501
 30
0.0
 11
5.25
 21
8.175
 31
0.0
  0
LINE
  5
216
  8
0
 10
5.25
 20
8.175
 30
0.0
 11
6.75
 21
8.175
 31
0.0
  0
LINE
  5
217
  8
0
 10
6.75
 20
8.175
 30
0.0
 11
6.75
 21
8.18501
 31
0.0
  0
LINE
  5
218
  8
0
 10
6.75
 20
8.145
 30
0.0
 11
5.25
 21
8.145
 31
0.0
  0
LINE
  5
219
  8
0
 10
5.25
 20
8.145
 30
0.0
 11
5.25
 21
8.13501
 31
0.0
  0
LINE
  5
21A
  8
0
 10
5.25
 20
8.13501
 30
0.0
 11
6.75
 21
8.13501
 31
0.0
  0
LINE
  5
21B
  8
0
 10
6.75
 20
8.13501
 30
0.0
 11
6.75
 21
8.145
 31
0.0
  0
LINE
  5
21C
  8
0
 10
6.75
 20
8.10501
 30
0.0
 11
5.25
 21
8.10501
 31
0.0
  0
LINE
  5
21D
  8
0
 10
5.25
 20
8.10501
 30
0.0
 11
5.25
 21
8.095
 31
0.0
  0
LINE
  5
21E
  8
0
 10
5.25
 20
8.095
 30
0.0
 11
6.75
 21
8.095
 31
0.0
  0
LINE
  5
21F
  8
0
 10
6.75
 20
8.095
 30
0.0
 11
6.75
 21
8.10501
 31
0.0
  0
LINE
  5
220
  8
0
 10
6.75
 20
8.065
 30
0.0
 11
5.25
 21
8.065
 31
0.0
  0
LINE
  5
221
  8
0
 10
5.25
 20
8.065
 30
0.0
 11
5.25
 21
8.05501
 31
0.0
  0
LINE
  5
222
  8
0
 10
5.25
 20
8.05501
 30
0.0
 11
6.75
 21
8.05501
 31
0.0
  0
LINE
  5
223
  8
0
 10
6.75
 20
8.05501
 30
0.0
 11
6.75
 21
8.065
 31
0.0
  0
LINE
  5
224
  8
0
 10
6.75
 20
8.02501
 30
0.0
 11
5.25
 21
8.02501
 31
0.0
  0
LINE
  5
225
  8
0
 10
5.25
 20
8.02501
 30
0.0
 11
5.25
 21
8.01501
 31
0.0
  0
LINE
  5
226
  8
0
 10
5.25
 20
8.01501
 30
0.0
 11
6.75
 21
8.01501
 31
0.0
  0
LINE
  5
227
  8
0
 10
6.75
 20
8.01501
 30
0.0
 11
6.75
 21
8.02501
 31
0.0
  0
LINE
  5
228
  8
0
 10
6.75
 20
7.985
 30
0.0
 11
5.25
 21
7.985
 31
0.0
  0
LINE
  5
229
  8
0
 10
5.25
 20
7.985
 30
0.0
 11
5.25
 21
7.97501
 31
0.0
  0
LINE
  5
22A
  8
0
 10
5.25
 20
7.97501
 30
0.0
 11
6.75
 21
7.97501
 31
0.0
  0
LINE
  5
22B
  8
0
 10
6.75
 20
7.97501
 30
0.0
 11
6.75
 21
7.985
 31
0.0
  0
LINE
  5
22C
  8
0
 10
6.75
 20
7.94501
 30
0.0
 11
5.25
 21
7.94501
 31
0.0
  0
LINE
  5
22D
  8
0
 10
5.25
 20
7.94501
 30
0.0
 11
5.25
 21
7.93501
 31
0.0
  0
LINE
  5
22E
  8
0
 10
5.25
 20
7.93501
 30
0.0
 11
6.75
 21
7.93501
 31
0.0
  0
LINE
  5
22F
  8
0
 10
6.75
 20
7.93501
 30
0.0
 11
6.75
 21
7.94501
 31
0.0
  0
LINE
  5
230
  8
0
 10
6.75
 20
7.90501
 30
0.0
 11
5.25
 21
7.90501
 31
0.0
  0
LINE
  5
231
  8
0
 10
5.25
 20
7.90501
 30
0.0
 11
5.25
 21
7.895
 31
0.0
  0
LINE
  5
232
  8
0
 10
5.25
 20
7.895
 30
0.0
 11
6.75
 21
7.895
 31
0.0
  0
LINE
  5
233
  8
0
 10
6.75
 20
7.895
 30
0.0
 11
6.75
 21
7.90501
 31
0.0
  0
LINE
  5
234
  8
0
 10
6.75
 20
7.86501
 30
0.0
 11
5.25
 21
7.86501
 31
0.0
  0
LINE
  5
235
  8
0
 10
5.25
 20
7.86501
 30
0.0
 11
5.25
 21
7.85501
 31
0.0
  0
LINE
  5
236
  8
0
 10
5.25
 20
7.85501
 30
0.0
 11
6.75
 21
7.85501
 31
0.0
  0
LINE
  5
237
  8
0
 10
6.75
 20
7.85501
 30
0.0
 11
6.75
 21
7.86501
 31
0.0
  0
LINE
  5
238
  8
0
 10
6.75
 20
7.82501
 30
0.0
 11
5.25
 21
7.82501
 31
0.0
  0
LINE
  5
239
  8
0
 10
5.25
 20
7.82501
 30
0.0
 11
5.25
 21
7.815
 31
0.0
  0
LINE
  5
23A
  8
0
 10
5.25
 20
7.815
 30
0.0
 11
6.75
 21
7.815
 31
0.0
  0
LINE
  5
23B
  8
0
 10
6.75
 20
7.815
 30
0.0
 11
6.75
 21
7.82501
 31
0.0
  0
LINE
  5
23C
  8
0
 10
6.75
 20
7.785
 30
0.0
 11
5.25
 21
7.785
 31
0.0
  0
LINE
  5
23D
  8
0
 10
5.25
 20
7.785
 30
0.0
 11
5.25
 21
7.77501
 31
0.0
  0
LINE
  5
23E
  8
0
 10
5.25
 20
7.77501
 30
0.0
 11
6.75
 21
7.77501
 31
0.0
  0
LINE
  5
23F
  8
0
 10
6.75
 20
7.77501
 30
0.0
 11
6.75
 21
7.785
 31
0.0
  0
LINE
  5
240
  8
0
 10
6.75
 20
7.74501
 30
0.0
 11
5.25
 21
7.74501
 31
0.0
  0
LINE
  5
241
  8
0
 10
5.25
 20
7.74501
 30
0.0
 11
5.25
 21
7.735
 31
0.0
  0
LINE
  5
242
  8
0
 10
5.25
 20
7.735
 30
0.0
 11
6.75
 21
7.735
 31
0.0
  0
LINE
  5
243
  8
0
 10
6.75
 20
7.735
 30
0.0
 11
6.75
 21
7.74501
 31
0.0
  0
LINE
  5
244
  8
0
 10
6.75
 20
7.705
 30
0.0
 11
5.25
 21
7.705
 31
0.0
  0
LINE
  5
245
  8
0
 10
5.25
 20
7.705
 30
0.0
 11
5.25
 21
7.69501
 31
0.0
  0
LINE
  5
246
  8
0
 10
5.25
 20
7.69501
 30
0.0
 11
6.75
 21
7.69501
 31
0.0
  0
LINE
  5
247
  8
0
 10
6.75
 20
7.69501
 30
0.0
 11
6.75
 21
7.705
 31
0.0
  0
LINE
  5
248
  8
0
 10
6.75
 20
7.66501
 30
0.0
 11
5.25
 21
7.66501
 31
0.0
  0
LINE
  5
249
  8
0
 10
5.25
 20
7.66501
 30
0.0
 11
5.25
 21
7.65501
 31
0.0
  0
LINE
  5
24A
  8
0
 10
5.25
 20
7.65501
 30
0.0
 11
6.75
 21
7.65501
 31
0.0
  0
LINE
  5
24B
  8
0
 10
6.75
 20
7.65501
 30
0.0
 11
6.75
 21
7.66501
 31
0.0
  0
LINE
  5
24C
  8
0
 10
6.75
 20
7.625
 30
0.0
 11
5.25
 21
7.625
 31
0.0
  0
LINE
  5
24D
  8
0
 10
5.25
 20
7.625
 30
0.0
 11
5.25
 21
7.61501
 31
0.0
  0
LINE
  5
24E
  8
0
 10
5.25
 20
7.61501
 30
0.0
 11
6.75
 21
7.61501
 31
0.0
  0
LINE
  5
24F
  8
0
 10
6.75
 20
7.61501
 30
0.0
 11
6.75
 21
7.625
 31
0.0
  0
LINE
  5
250
  8
0
 10
6.75
 20
7.58501
 30
0.0
 11
5.25
 21
7.58501
 31
0.0
  0
LINE
  5
251
  8
0
 10
5.25
 20
7.58501
 30
0.0
 11
5.25
 21
7.57501
 31
0.0
  0
LINE
  5
252
  8
0
 10
5.25
 20
7.57501
 30
0.0
 11
6.75
 21
7.57501
 31
0.0
  0
LINE
  5
253
  8
0
 10
6.75
 20
7.57501
 30
0.0
 11
6.75
 21
7.58501
 31
0.0
  0
LINE
  5
254
  8
0
 10
6.75
 20
7.54501
 30
0.0
 11
5.25
 21
7.54501
 31
0.0
  0
LINE
  5
255
  8
0
 10
5.25
 20
7.54501
 30
0.0
 11
5.25
 21
7.535
 31
0.0
  0
LINE
  5
256
  8
0
 10
5.25
 20
7.535
 30
0.0
 11
6.75
 21
7.535
 31
0.0
  0
LINE
  5
257
  8
0
 10
6.75
 20
7.535
 30
0.0
 11
6.75
 21
7.54501
 31
0.0
  0
LINE
  5
258
  8
0
 10
6.75
 20
7.505
 30
0.0
 11
5.25
 21
7.505
 31
0.0
  0
LINE
  5
259
  8
0
 10
5.25
 20
7.505
 30
0.0
 11
5.25
 21
7.49501
 31
0.0
  0
LINE
  5
25A
  8
0
 10
5.25
 20
7.49501
 30
0.0
 11
6.75
 21
7.49501
 31
0.0
  0
LINE
  5
25B
  8
0
 10
6.75
 20
7.49501
 30
0.0
 11
6.75
 21
7.505
 31
0.0
  0
LINE
  5
25C
  8
0
 10
6.75
 20
7.46501
 30
0.0
 11
5.25
 21
7.46501
 31
0.0
  0
LINE
  5
25D
  8
0
 10
5.25
 20
7.46501
 30
0.0
 11
5.25
 21
7.455
 31
0.0
  0
LINE
  5
25E
  8
0
 10
5.25
 20
7.455
 30
0.0
 11
6.75
 21
7.455
 31
0.0
  0
LINE
  5
25F
  8
0
 10
6.75
 20
7.455
 30
0.0
 11
6.75
 21
7.46501
 31
0.0
  0
LINE
  5
260
  8
0
 10
6.75
 20
7.425
 30
0.0
 11
5.25
 21
7.425
 31
0.0
  0
LINE
  5
261
  8
0
 10
5.25
 20
7.425
 30
0.0
 11
5.25
 21
7.41501
 31
0.0
  0
LINE
  5
262
  8
0
 10
5.25
 20
7.41501
 30
0.0
 11
6.75
 21
7.41501
 31
0.0
  0
LINE
  5
263
  8
0
 10
6.75
 20
7.41501
 30
0.0
 11
6.75
 21
7.425
 31
0.0
  0
LINE
  5
264
  8
0
 10
6.75
 20
7.38501
 30
0.0
 11
5.25
 21
7.38501
 31
0.0
  0
LINE
  5
265
  8
0
 10
5.25
 20
7.38501
 30
0.0
 11
5.25
 21
7.375
 31
0.0
  0
LINE
  5
266
  8
0
 10
5.25
 20
7.375
 30
0.0
 11
6.75
 21
7.375
 31
0.0
  0
LINE
  5
267
  8
0
 10
6.75
 20
7.375
 30
0.0
 11
6.75
 21
7.38501
 31
0.0
  0
LINE
  5
268
  8
0
 10
6.75
 20
7.345
 30
0.0
 11
5.25
 21
7.345
 31
0.0
  0
LINE
  5
269
  8
0
 10
5.25
 20
7.345
 30
0.0
 11
5.25
 21
7.33501
 31
0.0
  0
LINE
  5
26A
  8
0
 10
5.25
 20
7.33501
 30
0.0
 11
6.75
 21
7.33501
 31
0.0
  0
LINE
  5
26B
  8
0
 10
6.75
 20
7.33501
 30
0.0
 11
6.75
 21
7.345
 31
0.0
  0
LINE
  5
26C
  8
0
 10
6.75
 20
7.30501
 30
0.0
 11
5.25
 21
7.30501
 31
0.0
  0
LINE
  5
26D
  8
0
 10
5.25
 20
7.30501
 30
0.0
 11
5.25
 21
7.29501
 31
0.0
  0
LINE
  5
26E
  8
0
 10
5.25
 20
7.29501
 30
0.0
 11
6.75
 21
7.29501
 31
0.0
  0
LINE
  5
26F
  8
0
 10
6.75
 20
7.29501
 30
0.0
 11
6.75
 21
7.30501
 31
0.0
  0
LINE
  5
270
  8
0
 10
6.75
 20
7.26501
 30
0.0
 11
5.25
 21
7.26501
 31
0.0
  0
LINE
  5
271
  8
0
 10
5.25
 20
7.26501
 30
0.0
 11
5.25
 21
7.255
 31
0.0
  0
LINE
  5
272
  8
0
 10
5.25
 20
7.255
 30
0.0
 11
6.75
 21
7.255
 31
0.0
  0
LINE
  5
273
  8
0
 10
6.75
 20
7.255
 30
0.0
 11
6.75
 21
7.26501
 31
0.0
  0
LINE
  5
274
  8
0
 10
6.75
 20
7.22501
 30
0.0
 11
5.25
 21
7.22501
 31
0.0
  0
LINE
  5
275
  8
0
 10
5.25
 20
7.22501
 30
0.0
 11
5.25
 21
7.21501
 31
0.0
  0
LINE
  5
276
  8
0
 10
5.25
 20
7.21501
 30
0.0
 11
6.75
 21
7.21501
 31
0.0
  0
LINE
  5
277
  8
0
 10
6.75
 20
7.21501
 30
0.0
 11
6.75
 21
7.22501
 31
0.0
  0
LINE
  5
278
  8
0
 10
6.75
 20
7.18501
 30
0.0
 11
5.25
 21
7.18501
 31
0.0
  0
LINE
  5
279
  8
0
 10
5.25
 20
7.18501
 30
0.0
 11
5.25
 21
7.175
 31
0.0
  0
LINE
  5
27A
  8
0
 10
5.25
 20
7.175
 30
0.0
 11
6.75
 21
7.175
 31
0.0
  0
LINE
  5
27B
  8
0
 10
6.75
 20
7.175
 30
0.0
 11
6.75
 21
7.18501
 31
0.0
  0
LINE
  5
27C
  8
0
 10
6.75
 20
7.145
 30
0.0
 11
5.25
 21
7.145
 31
0.0
  0
LINE
  5
27D
  8
0
 10
5.25
 20
7.145
 30
0.0
 11
5.25
 21
7.13501
 31
0.0
  0
LINE
  5
27E
  8
0
 10
5.25
 20
7.13501
 30
0.0
 11
6.75
 21
7.13501
 31
0.0
  0
LINE
  5
27F
  8
0
 10
6.75
 20
7.13501
 30
0.0
 11
6.75
 21
7.145
 31
0.0
  0
LINE
  5
280
  8
0
 10
6.75
 20
7.10501
 30
0.0
 11
5.25
 21
7.10501
 31
0.0
  0
LINE
  5
281
  8
0
 10
5.25
 20
7.10501
 30
0.0
 11
5.25
 21
7.095
 31
0.0
  0
LINE
  5
282
  8
0
 10
5.25
 20
7.095
 30
0.0
 11
6.75
 21
7.095
 31
0.0
  0
LINE
  5
283
  8
0
 10
6.75
 20
7.095
 30
0.0
 11
6.75
 21
7.10501
 31
0.0
  0
LINE
  5
284
  8
0
 10
6.75
 20
7.065
 30
0.0
 11
5.25
 21
7.065
 31
0.0
  0
LINE
  5
285
  8
0
 10
5.25
 20
7.065
 30
0.0
 11
5.25
 21
7.05501
 31
0.0
  0
LINE
  5
286
  8
0
 10
5.25
 20
7.05501
 30
0.0
 11
6.75
 21
7.05501
 31
0.0
  0
LINE
  5
287
  8
0
 10
6.75
 20
7.05501
 30
0.0
 11
6.75
 21
7.065
 31
0.0
  0
LINE
  5
288
  8
0
 10
6.75
 20
4.94499
 30
0.0
 11
5.25
 21
4.94499
 31
0.0
  0
LINE
  5
289
  8
0
 10
5.25
 20
4.94499
 30
0.0
 11
5.25
 21
4.935
 31
0.0
  0
LINE
  5
28A
  8
0
 10
5.25
 20
4.935
 30
0.0
 11
6.75
 21
4.935
 31
0.0
  0
LINE
  5
28B
  8
0
 10
6.75
 20
4.935
 30
0.0
 11
6.75
 21
4.94499
 31
0.0
  0
LINE
  5
28C
  8
0
 10
6.75
 20
4.905
 30
0.0
 11
5.25
 21
4.905
 31
0.0
  0
LINE
  5
28D
  8
0
 10
5.25
 20
4.905
 30
0.0
 11
5.25
 21
4.89499
 31
0.0
  0
LINE
  5
28E
  8
0
 10
5.25
 20
4.89499
 30
0.0
 11
6.75
 21
4.89499
 31
0.0
  0
LINE
  5
28F
  8
0
 10
6.75
 20
4.89499
 30
0.0
 11
6.75
 21
4.905
 31
0.0
  0
LINE
  5
290
  8
0
 10
6.75
 20
4.86499
 30
0.0
 11
5.25
 21
4.86499
 31
0.0
  0
LINE
  5
291
  8
0
 10
5.25
 20
4.86499
 30
0.0
 11
5.25
 21
4.855
 31
0.0
  0
LINE
  5
292
  8
0
 10
5.25
 20
4.855
 30
0.0
 11
6.75
 21
4.855
 31
0.0
  0
LINE
  5
293
  8
0
 10
6.75
 20
4.855
 30
0.0
 11
6.75
 21
4.86499
 31
0.0
  0
LINE
  5
294
  8
0
 10
6.75
 20
4.825
 30
0.0
 11
5.25
 21
4.825
 31
0.0
  0
LINE
  5
295
  8
0
 10
5.25
 20
4.825
 30
0.0
 11
5.25
 21
4.81499
 31
0.0
  0
LINE
  5
296
  8
0
 10
5.25
 20
4.81499
 30
0.0
 11
6.75
 21
4.81499
 31
0.0
  0
LINE
  5
297
  8
0
 10
6.75
 20
4.81499
 30
0.0
 11
6.75
 21
4.825
 31
0.0
  0
LINE
  5
298
  8
0
 10
6.75
 20
4.78499
 30
0.0
 11
5.25
 21
4.78499
 31
0.0
  0
LINE
  5
299
  8
0
 10
5.25
 20
4.78499
 30
0.0
 11
5.25
 21
4.77499
 31
0.0
  0
LINE
  5
29A
  8
0
 10
5.25
 20
4.77499
 30
0.0
 11
6.75
 21
4.77499
 31
0.0
  0
LINE
  5
29B
  8
0
 10
6.75
 20
4.77499
 30
0.0
 11
6.75
 21
4.78499
 31
0.0
  0
LINE
  5
29C
  8
0
 10
6.75
 20
4.745
 30
0.0
 11
5.25
 21
4.745
 31
0.0
  0
LINE
  5
29D
  8
0
 10
5.25
 20
4.745
 30
0.0
 11
5.25
 21
4.73499
 31
0.0
  0
LINE
  5
29E
  8
0
 10
5.25
 20
4.73499
 30
0.0
 11
6.75
 21
4.73499
 31
0.0
  0
LINE
  5
29F
  8
0
 10
6.75
 20
4.73499
 30
0.0
 11
6.75
 21
4.745
 31
0.0
  0
LINE
  5
2A0
  8
0
 10
6.75
 20
4.70499
 30
0.0
 11
5.25
 21
4.70499
 31
0.0
  0
LINE
  5
2A1
  8
0
 10
5.25
 20
4.70499
 30
0.0
 11
5.25
 21
4.69499
 31
0.0
  0
LINE
  5
2A2
  8
0
 10
5.25
 20
4.69499
 30
0.0
 11
6.75
 21
4.69499
 31
0.0
  0
LINE
  5
2A3
  8
0
 10
6.75
 20
4.69499
 30
0.0
 11
6.75
 21
4.70499
 31
0.0
  0
LINE
  5
2A4
  8
0
 10
6.75
 20
4.66499
 30
0.0
 11
5.25
 21
4.66499
 31
0.0
  0
LINE
  5
2A5
  8
0
 10
5.25
 20
4.66499
 30
0.0
 11
5.25
 21
4.655
 31
0.0
  0
LINE
  5
2A6
  8
0
 10
5.25
 20
4.655
 30
0.0
 11
6.75
 21
4.655
 31
0.0
  0
LINE
  5
2A7
  8
0
 10
6.75
 20
4.655
 30
0.0
 11
6.75
 21
4.66499
 31
0.0
  0
LINE
  5
2A8
  8
0
 10
6.75
 20
4.625
 30
0.0
 11
5.25
 21
4.625
 31
0.0
  0
LINE
  5
2A9
  8
0
 10
5.25
 20
4.625
 30
0.0
 11
5.25
 21
4.61499
 31
0.0
  0
LINE
  5
2AA
  8
0
 10
5.25
 20
4.61499
 30
0.0
 11
6.75
 21
4.61499
 31
0.0
  0
LINE
  5
2AB
  8
0
 10
6.75
 20
4.61499
 30
0.0
 11
6.75
 21
4.625
 31
0.0
  0
LINE
  5
2AC
  8
0
 10
6.75
 20
4.58499
 30
0.0
 11
5.25
 21
4.58499
 31
0.0
  0
LINE
  5
2AD
  8
0
 10
5.25
 20
4.58499
 30
0.0
 11
5.25
 21
4.575
 31
0.0
  0
LINE
  5
2AE
  8
0
 10
5.25
 20
4.575
 30
0.0
 11
6.75
 21
4.575
 31
0.0
  0
LINE
  5
2AF
  8
0
 10
6.75
 20
4.575
 30
0.0
 11
6.75
 21
4.58499
 31
0.0
  0
LINE
  5
2B0
  8
0
 10
6.75
 20
4.545
 30
0.0
 11
5.25
 21
4.545
 31
0.0
  0
LINE
  5
2B1
  8
0
 10
5.25
 20
4.545
 30
0.0
 11
5.25
 21
4.53499
 31
0.0
  0
LINE
  5
2B2
  8
0
 10
5.25
 20
4.53499
 30
0.0
 11
6.75
 21
4.53499
 31
0.0
  0
LINE
  5
2B3
  8
0
 10
6.75
 20
4.53499
 30
0.0
 11
6.75
 21
4.545
 31
0.0
  0
LINE
  5
2B4
  8
0
 10
6.75
 20
4.50499
 30
0.0
 11
5.25
 21
4.50499
 31
0.0
  0
LINE
  5
2B5
  8
0
 10
5.25
 20
4.50499
 30
0.0
 11
5.25
 21
4.495
 31
0.0
  0
LINE
  5
2B6
  8
0
 10
5.25
 20
4.495
 30
0.0
 11
6.75
 21
4.495
 31
0.0
  0
LINE
  5
2B7
  8
0
 10
6.75
 20
4.495
 30
0.0
 11
6.75
 21
4.50499
 31
0.0
  0
LINE
  5
2B8
  8
0
 10
6.75
 20
4.465
 30
0.0
 11
5.25
 21
4.465
 31
0.0
  0
LINE
  5
2B9
  8
0
 10
5.25
 20
4.465
 30
0.0
 11
5.25
 21
4.45499
 31
0.0
  0
LINE
  5
2BA
  8
0
 10
5.25
 20
4.45499
 30
0.0
 11
6.75
 21
4.45499
 31
0.0
  0
LINE
  5
2BB
  8
0
 10
6.75
 20
4.45499
 30
0.0
 11
6.75
 21
4.465
 31
0.0
  0
LINE
  5
2BC
  8
0
 10
6.75
 20
4.42499
 30
0.0
 11
5.25
 21
4.42499
 31
0.0
  0
LINE
  5
2BD
  8
0
 10
5.25
 20
4.42499
 30
0.0
 11
5.25
 21
4.41499
 31
0.0
  0
LINE
  5
2BE
  8
0
 10
5.25
 20
4.41499
 30
0.0
 11
6.75
 21
4.41499
 31
0.0
  0
LINE
  5
2BF
  8
0
 10
6.75
 20
4.41499
 30
0.0
 11
6.75
 21
4.42499
 31
0.0
  0
LINE
  5
2C0
  8
0
 10
6.75
 20
4.38499
 30
0.0
 11
5.25
 21
4.38499
 31
0.0
  0
LINE
  5
2C1
  8
0
 10
5.25
 20
4.38499
 30
0.0
 11
5.25
 21
4.375
 31
0.0
  0
LINE
  5
2C2
  8
0
 10
5.25
 20
4.375
 30
0.0
 11
6.75
 21
4.375
 31
0.0
  0
LINE
  5
2C3
  8
0
 10
6.75
 20
4.375
 30
0.0
 11
6.75
 21
4.38499
 31
0.0
  0
LINE
  5
2C4
  8
0
 10
6.75
 20
4.34499
 30
0.0
 11
5.25
 21
4.34499
 31
0.0
  0
LINE
  5
2C5
  8
0
 10
5.25
 20
4.34499
 30
0.0
 11
5.25
 21
4.33499
 31
0.0
  0
LINE
  5
2C6
  8
0
 10
5.25
 20
4.33499
 30
0.0
 11
6.75
 21
4.33499
 31
0.0
  0
LINE
  5
2C7
  8
0
 10
6.75
 20
4.33499
 30
0.0
 11
6.75
 21
4.34499
 31
0.0
  0
LINE
  5
2C8
  8
0
 10
6.75
 20
4.30499
 30
0.0
 11
5.25
 21
4.30499
 31
0.0
  0
LINE
  5
2C9
  8
0
 10
5.25
 20
4.30499
 30
0.0
 11
5.25
 21
4.295
 31
0.0
  0
LINE
  5
2CA
  8
0
 10
5.25
 20
4.295
 30
0.0
 11
6.75
 21
4.295
 31
0.0
  0
LINE
  5
2CB
  8
0
 10
6.75
 20
4.295
 30
0.0
 11
6.75
 21
4.30499
 31
0.0
  0
LINE
  5
2CC
  8
0
 10
6.75
 20
4.265
 30
0.0
 11
5.25
 21
4.265
 31
0.0
  0
LINE
  5
2CD
  8
0
 10
5.25
 20
4.265
 30
0.0
 11
5.25
 21
4.25499
 31
0.0
  0
LINE
  5
2CE
  8
0
 10
5.25
 20
4.25499
 30
0.0
 11
6.75
 21
4.25499
 31
0.0
  0
LINE
  5
2CF
  8
0
 10
6.75
 20
4.25499
 30
0.0
 11
6.75
 21
4.265
 31
0.0
  0
LINE
  5
2D0
  8
0
 10
6.75
 20
4.22499
 30
0.0
 11
5.25
 21
4.22499
 31
0.0
  0
LINE
  5
2D1
  8
0
 10
5.25
 20
4.22499
 30
0.0
 11
5.25
 21
4.215
 31
0.0
  0
LINE
  5
2D2
  8
0
 10
5.25
 20
4.215
 30
0.0
 11
6.75
 21
4.215
 31
0.0
  0
LINE
  5
2D3
  8
0
 10
6.75
 20
4.215
 30
0.0
 11
6.75
 21
4.22499
 31
0.0
  0
LINE
  5
2D4
  8
0
 10
6.75
 20
4.185
 30
0.0
 11
5.25
 21
4.185
 31
0.0
  0
LINE
  5
2D5
  8
0
 10
5.25
 20
4.185
 30
0.0
 11
5.25
 21
4.17499
 31
0.0
  0
LINE
  5
2D6
  8
0
 10
5.25
 20
4.17499
 30
0.0
 11
6.75
 21
4.17499
 31
0.0
  0
LINE
  5
2D7
  8
0
 10
6.75
 20
4.17499
 30
0.0
 11
6.75
 21
4.185
 31
0.0
  0
LINE
  5
2D8
  8
0
 10
6.75
 20
4.14499
 30
0.0
 11
5.25
 21
4.14499
 31
0.0
  0
LINE
  5
2D9
  8
0
 10
5.25
 20
4.14499
 30
0.0
 11
5.25
 21
4.13499
 31
0.0
  0
LINE
  5
2DA
  8
0
 10
5.25
 20
4.13499
 30
0.0
 11
6.75
 21
4.13499
 31
0.0
  0
LINE
  5
2DB
  8
0
 10
6.75
 20
4.13499
 30
0.0
 11
6.75
 21
4.14499
 31
0.0
  0
LINE
  5
2DC
  8
0
 10
6.75
 20
4.105
 30
0.0
 11
5.25
 21
4.105
 31
0.0
  0
LINE
  5
2DD
  8
0
 10
5.25
 20
4.105
 30
0.0
 11
5.25
 21
4.09499
 31
0.0
  0
LINE
  5
2DE
  8
0
 10
5.25
 20
4.09499
 30
0.0
 11
6.75
 21
4.09499
 31
0.0
  0
LINE
  5
2DF
  8
0
 10
6.75
 20
4.09499
 30
0.0
 11
6.75
 21
4.105
 31
0.0
  0
LINE
  5
2E0
  8
0
 10
6.75
 20
4.06499
 30
0.0
 11
5.25
 21
4.06499
 31
0.0
  0
LINE
  5
2E1
  8
0
 10
5.25
 20
4.06499
 30
0.0
 11
5.25
 21
4.05499
 31
0.0
  0
LINE
  5
2E2
  8
0
 10
5.25
 20
4.05499
 30
0.0
 11
6.75
 21
4.05499
 31
0.0
  0
LINE
  5
2E3
  8
0
 10
6.75
 20
4.05499
 30
0.0
 11
6.75
 21
4.06499
 31
0.0
  0
LINE
  5
2E4
  8
0
 10
6.75
 20
4.02499
 30
0.0
 11
5.25
 21
4.02499
 31
0.0
  0
LINE
  5
2E5
  8
0
 10
5.25
 20
4.02499
 30
0.0
 11
5.25
 21
4.015
 31
0.0
  0
LINE
  5
2E6
  8
0
 10
5.25
 20
4.015
 30
0.0
 11
6.75
 21
4.015
 31
0.0
  0
LINE
  5
2E7
  8
0
 10
6.75
 20
4.015
 30
0.0
 11
6.75
 21
4.02499
 31
0.0
  0
LINE
  5
2E8
  8
0
 10
6.75
 20
3.98499
 30
0.0
 11
5.25
 21
3.98499
 31
0.0
  0
LINE
  5
2E9
  8
0
 10
5.25
 20
3.98499
 30
0.0
 11
5.25
 21
3.97499
 31
0.0
  0
LINE
  5
2EA
  8
0
 10
5.25
 20
3.97499
 30
0.0
 11
6.75
 21
3.97499
 31
0.0
  0
LINE
  5
2EB
  8
0
 10
6.75
 20
3.97499
 30
0.0
 11
6.75
 21
3.98499
 31
0.0
  0
LINE
  5
2EC
  8
0
 10
6.75
 20
3.94499
 30
0.0
 11
5.25
 21
3.94499
 31
0.0
  0
LINE
  5
2ED
  8
0
 10
5.25
 20
3.94499
 30
0.0
 11
5.25
 21
3.935
 31
0.0
  0
LINE
  5
2EE
  8
0
 10
5.25
 20
3.935
 30
0.0
 11
6.75
 21
3.935
 31
0.0
  0
LINE
  5
2EF
  8
0
 10
6.75
 20
3.935
 30
0.0
 11
6.75
 21
3.94499
 31
0.0
  0
LINE
  5
2F0
  8
0
 10
6.75
 20
3.905
 30
0.0
 11
5.25
 21
3.905
 31
0.0
  0
LINE
  5
2F1
  8
0
 10
5.25
 20
3.905
 30
0.0
 11
5.25
 21
3.89499
 31
0.0
  0
LINE
  5
2F2
  8
0
 10
5.25
 20
3.89499
 30
0.0
 11
6.75
 21
3.89499
 31
0.0
  0
LINE
  5
2F3
  8
0
 10
6.75
 20
3.89499
 30
0.0
 11
6.75
 21
3.905
 31
0.0
  0
LINE
  5
2F4
  8
0
 10
6.75
 20
3.86499
 30
0.0
 11
5.25
 21
3.86499
 31
0.0
  0
LINE
  5
2F5
  8
0
 10
5.25
 20
3.86499
 30
0.0
 11
5.25
 21
3.855
 31
0.0
  0
LINE
  5
2F6
  8
0
 10
5.25
 20
3.855
 30
0.0
 11
6.75
 21
3.855
 31
0.0
  0
LINE
  5
2F7
  8
0
 10
6.75
 20
3.855
 30
0.0
 11
6.75
 21
3.86499
 31
0.0
  0
LINE
  5
2F8
  8
0
 10
6.75
 20
3.825
 30
0.0
 11
5.25
 21
3.825
 31
0.0
  0
LINE
  5
2F9
  8
0
 10
5.25
 20
3.825
 30
0.0
 11
5.25
 21
3.81499
 31
0.0
  0
LINE
  5
2FA
  8
0
 10
5.25
 20
3.81499
 30
0.0
 11
6.75
 21
3.81499
 31
0.0
  0
LINE
  5
2FB
  8
0
 10
6.75
 20
3.81499
 30
0.0
 11
6.75
 21
3.825
 31
0.0
  0
LINE
  5
2FC
  8
0
 10
6.75
 20
3.78499
 30
0.0
 11
5.25
 21
3.78499
 31
0.0
  0
LINE
  5
2FD
  8
0
 10
5.25
 20
3.78499
 30
0.0
 11
5.25
 21
3.77499
 31
0.0
  0
LINE
  5
2FE
  8
0
 10
5.25
 20
3.77499
 30
0.0
 11
6.75
 21
3.77499
 31
0.0
  0
LINE
  5
2FF
  8
0
 10
6.75
 20
3.77499
 30
0.0
 11
6.75
 21
3.78499
 31
0.0
  0
LINE
  5
300
  8
0
 10
6.75
 20
3.745
 30
0.0
 11
5.25
 21
3.745
 31
0.0
  0
LINE
  5
301
  8
0
 10
5.25
 20
3.745
 30
0.0
 11
5.25
 21
3.73499
 31
0.0
  0
LINE
  5
302
  8
0
 10
5.25
 20
3.73499
 30
0.0
 11
6.75
 21
3.73499
 31
0.0
  0
LINE
  5
303
  8
0
 10
6.75
 20
3.73499
 30
0.0
 11
6.75
 21
3.745
 31
0.0
  0
LINE
  5
304
  8
0
 10
6.75
 20
3.70499
 30
0.0
 11
5.25
 21
3.70499
 31
0.0
  0
LINE
  5
305
  8
0
 10
5.25
 20
3.70499
 30
0.0
 11
5.25
 21
3.69499
 31
0.0
  0
LINE
  5
306
  8
0
 10
5.25
 20
3.69499
 30
0.0
 11
6.75
 21
3.69499
 31
0.0
  0
LINE
  5
307
  8
0
 10
6.75
 20
3.69499
 30
0.0
 11
6.75
 21
3.70499
 31
0.0
  0
LINE
  5
308
  8
0
 10
6.75
 20
3.66499
 30
0.0
 11
5.25
 21
3.66499
 31
0.0
  0
LINE
  5
309
  8
0
 10
5.25
 20
3.66499
 30
0.0
 11
5.25
 21
3.655
 31
0.0
  0
LINE
  5
30A
  8
0
 10
5.25
 20
3.655
 30
0.0
 11
6.75
 21
3.655
 31
0.0
  0
LINE
  5
30B
  8
0
 10
6.75
 20
3.655
 30
0.0
 11
6.75
 21
3.66499
 31
0.0
  0
LINE
  5
30C
  8
0
 10
6.75
 20
3.625
 30
0.0
 11
5.25
 21
3.625
 31
0.0
  0
LINE
  5
30D
  8
0
 10
5.25
 20
3.625
 30
0.0
 11
5.25
 21
3.61499
 31
0.0
  0
LINE
  5
30E
  8
0
 10
5.25
 20
3.61499
 30
0.0
 11
6.75
 21
3.61499
 31
0.0
  0
LINE
  5
30F
  8
0
 10
6.75
 20
3.61499
 30
0.0
 11
6.75
 21
3.625
 31
0.0
  0
LINE
  5
310
  8
0
 10
6.75
 20
3.58499
 30
0.0
 11
5.25
 21
3.58499
 31
0.0
  0
LINE
  5
311
  8
0
 10
5.25
 20
3.58499
 30
0.0
 11
5.25
 21
3.575
 31
0.0
  0
LINE
  5
312
  8
0
 10
5.25
 20
3.575
 30
0.0
 11
6.75
 21
3.575
 31
0.0
  0
LINE
  5
313
  8
0
 10
6.75
 20
3.575
 30
0.0
 11
6.75
 21
3.58499
 31
0.0
  0
LINE
  5
314
  8
0
 10
6.75
 20
3.545
 30
0.0
 11
5.25
 21
3.545
 31
0.0
  0
LINE
  5
315
  8
0
 10
5.25
 20
3.545
 30
0.0
 11
5.25
 21
3.53499
 31
0.0
  0
LINE
  5
316
  8
0
 10
5.25
 20
3.53499
 30
0.0
 11
6.75
 21
3.53499
 31
0.0
  0
LINE
  5
317
  8
0
 10
6.75
 20
3.53499
 30
0.0
 11
6.75
 21
3.545
 31
0.0
  0
LINE
  5
318
  8
0
 10
6.75
 20
3.50499
 30
0.0
 11
5.25
 21
3.50499
 31
0.0
  0
LINE
  5
319
  8
0
 10
5.25
 20
3.50499
 30
0.0
 11
5.25
 21
3.495
 31
0.0
  0
LINE
  5
31A
  8
0
 10
5.25
 20
3.495
 30
0.0
 11
6.75
 21
3.495
 31
0.0
  0
LINE
  5
31B
  8
0
 10
6.75
 20
3.495
 30
0.0
 11
6.75
 21
3.50499
 31
0.0
  0
LINE
  5
31C
  8
0
 10
6.75
 20
3.465
 30
0.0
 11
5.25
 21
3.465
 31
0.0
  0
LINE
  5
31D
  8
0
 10
5.25
 20
3.465
 30
0.0
 11
5.25
 21
3.45499
 31
0.0
  0
LINE
  5
31E
  8
0
 10
5.25
 20
3.45499
 30
0.0
 11
6.75
 21
3.45499
 31
0.0
  0
LINE
  5
31F
  8
0
 10
6.75
 20
3.45499
 30
0.0
 11
6.75
 21
3.465
 31
0.0
  0
LINE
  5
320
  8
0
 10
6.75
 20
3.42499
 30
0.0
 11
5.25
 21
3.42499
 31
0.0
  0
LINE
  5
321
  8
0
 10
5.25
 20
3.42499
 30
0.0
 11
5.25
 21
3.41499
 31
0.0
  0
LINE
  5
322
  8
0
 10
5.25
 20
3.41499
 30
0.0
 11
6.75
 21
3.41499
 31
0.0
  0
LINE
  5
323
  8
0
 10
6.75
 20
3.41499
 30
0.0
 11
6.75
 21
3.42499
 31
0.0
  0
LINE
  5
324
  8
0
 10
6.75
 20
3.38499
 30
0.0
 11
5.25
 21
3.38499
 31
0.0
  0
LINE
  5
325
  8
0
 10
5.25
 20
3.38499
 30
0.0
 11
5.25
 21
3.375
 31
0.0
  0
LINE
  5
326
  8
0
 10
5.25
 20
3.375
 30
0.0
 11
6.75
 21
3.375
 31
0.0
  0
LINE
  5
327
  8
0
 10
6.75
 20
3.375
 30
0.0
 11
6.75
 21
3.38499
 31
0.0
  0
LINE
  5
328
  8
0
 10
6.75
 20
3.34499
 30
0.0
 11
5.25
 21
3.34499
 31
0.0
  0
LINE
  5
329
  8
0
 10
5.25
 20
3.34499
 30
0.0
 11
5.25
 21
3.33499
 31
0.0
  0
LINE
  5
32A
  8
0
 10
5.25
 20
3.33499
 30
0.0
 11
6.75
 21
3.33499
 31
0.0
  0
LINE
  5
32B
  8
0
 10
6.75
 20
3.33499
 30
0.0
 11
6.75
 21
3.34499
 31
0.0
  0
LINE
  5
32C
  8
0
 10
6.75
 20
3.30499
 30
0.0
 11
5.25
 21
3.30499
 31
0.0
  0
LINE
  5
32D
  8
0
 10
5.25
 20
3.30499
 30
0.0
 11
5.25
 21
3.295
 31
0.0
  0
LINE
  5
32E
  8
0
 10
5.25
 20
3.295
 30
0.0
 11
6.75
 21
3.295
 31
0.0
  0
LINE
  5
32F
  8
0
 10
6.75
 20
3.295
 30
0.0
 11
6.75
 21
3.30499
 31
0.0
  0
LINE
  5
330
  8
0
 10
6.75
 20
3.265
 30
0.0
 11
5.25
 21
3.265
 31
0.0
  0
LINE
  5
331
  8
0
 10
5.25
 20
3.265
 30
0.0
 11
5.25
 21
3.25499
 31
0.0
  0
LINE
  5
332
  8
0
 10
5.25
 20
3.25499
 30
0.0
 11
6.75
 21
3.25499
 31
0.0
  0
LINE
  5
333
  8
0
 10
6.75
 20
3.25499
 30
0.0
 11
6.75
 21
3.265
 31
0.0
  0
LINE
  5
334
  8
0
 10
6.75
 20
3.22499
 30
0.0
 11
5.25
 21
3.22499
 31
0.0
  0
LINE
  5
335
  8
0
 10
5.25
 20
3.22499
 30
0.0
 11
5.25
 21
3.215
 31
0.0
  0
LINE
  5
336
  8
0
 10
5.25
 20
3.215
 30
0.0
 11
6.75
 21
3.215
 31
0.0
  0
LINE
  5
337
  8
0
 10
6.75
 20
3.215
 30
0.0
 11
6.75
 21
3.22499
 31
0.0
  0
LINE
  5
338
  8
0
 10
6.75
 20
3.185
 30
0.0
 11
5.25
 21
3.185
 31
0.0
  0
LINE
  5
339
  8
0
 10
5.25
 20
3.185
 30
0.0
 11
5.25
 21
3.17499
 31
0.0
  0
LINE
  5
33A
  8
0
 10
5.25
 20
3.17499
 30
0.0
 11
6.75
 21
3.17499
 31
0.0
  0
LINE
  5
33B
  8
0
 10
6.75
 20
3.17499
 30
0.0
 11
6.75
 21
3.185
 31
0.0
  0
LINE
  5
33C
  8
0
 10
6.75
 20
3.14499
 30
0.0
 11
5.25
 21
3.14499
 31
0.0
  0
LINE
  5
33D
  8
0
 10
5.25
 20
3.14499
 30
0.0
 11
5.25
 21
3.13499
 31
0.0
  0
LINE
  5
33E
  8
0
 10
5.25
 20
3.13499
 30
0.0
 11
6.75
 21
3.13499
 31
0.0
  0
LINE
  5
33F
  8
0
 10
6.75
 20
3.13499
 30
0.0
 11
6.75
 21
3.14499
 31
0.0
  0
LINE
  5
340
  8
0
 10
6.75
 20
3.105
 30
0.0
 11
5.25
 21
3.105
 31
0.0
  0
LINE
  5
341
  8
0
 10
5.25
 20
3.105
 30
0.0
 11
5.25
 21
3.09499
 31
0.0
  0
LINE
  5
342
  8
0
 10
5.25
 20
3.09499
 30
0.0
 11
6.75
 21
3.09499
 31
0.0
  0
LINE
  5
343
  8
0
 10
6.75
 20
3.09499
 30
0.0
 11
6.75
 21
3.105
 31
0.0
  0
LINE
  5
344
  8
0
 10
6.75
 20
3.06499
 30
0.0
 11
5.25
 21
3.06499
 31
0.0
  0
LINE
  5
345
  8
0
 10
5.25
 20
3.06499
 30
0.0
 11
5.25
 21
3.05499
 31
0.0
  0
LINE
  5
346
  8
0
 10
5.25
 20
3.05499
 30
0.0
 11
6.75
 21
3.05499
 31
0.0
  0
LINE
  5
347
  8
0
 10
6.75
 20
3.05499
 30
0.0
 11
6.75
 21
3.06499
 31
0.0
  0
LINE
  5
348
  8
0
 10
6.75
 20
3.02499
 30
0.0
 11
5.25
 21
3.02499
 31
0.0
  0
LINE
  5
349
  8
0
 10
5.25
 20
3.02499
 30
0.0
 11
5.25
 21
3.015
 31
0.0
  0
LINE
  5
34A
  8
0
 10
5.25
 20
3.015
 30
0.0
 11
6.75
 21
3.015
 31
0.0
  0
LINE
  5
34B
  8
0
 10
6.75
 20
3.015
 30
0.0
 11
6.75
 21
3.02499
 31
0.0
  0
LINE
  5
34C
  8
0
 10
6.75
 20
2.985
 30
0.0
 11
5.25
 21
2.985
 31
0.0
  0
LINE
  5
34D
  8
0
 10
5.25
 20
2.985
 30
0.0
 11
5.25
 21
2.97501
 31
0.0
  0
LINE
  5
34E
  8
0
 10
5.25
 20
2.97501
 30
0.0
 11
6.75
 21
2.97501
 31
0.0
  0
LINE
  5
34F
  8
0
 10
6.75
 20
2.97501
 30
0.0
 11
6.75
 21
2.985
 31
0.0
  0
LINE
  5
350
  8
0
 10
6.75
 20
2.94501
 30
0.0
 11
5.25
 21
2.94501
 31
0.0
  0
LINE
  5
351
  8
0
 10
5.25
 20
2.94501
 30
0.0
 11
5.25
 21
2.93501
 31
0.0
  0
LINE
  5
352
  8
0
 10
5.25
 20
2.93501
 30
0.0
 11
6.75
 21
2.93501
 31
0.0
  0
LINE
  5
353
  8
0
 10
6.75
 20
2.93501
 30
0.0
 11
6.75
 21
2.94501
 31
0.0
  0
LINE
  5
354
  8
0
 10
6.75
 20
2.90501
 30
0.0
 11
5.25
 21
2.90501
 31
0.0
  0
LINE
  5
355
  8
0
 10
5.25
 20
2.90501
 30
0.0
 11
5.25
 21
2.895
 31
0.0
  0
LINE
  5
356
  8
0
 10
5.25
 20
2.895
 30
0.0
 11
6.75
 21
2.895
 31
0.0
  0
LINE
  5
357
  8
0
 10
6.75
 20
2.895
 30
0.0
 11
6.75
 21
2.90501
 31
0.0
  0
LINE
  5
358
  8
0
 10
6.75
 20
2.86501
 30
0.0
 11
5.25
 21
2.86501
 31
0.0
  0
LINE
  5
359
  8
0
 10
5.25
 20
2.86501
 30
0.0
 11
5.25
 21
2.85501
 31
0.0
  0
LINE
  5
35A
  8
0
 10
5.25
 20
2.85501
 30
0.0
 11
6.75
 21
2.85501
 31
0.0
  0
LINE
  5
35B
  8
0
 10
6.75
 20
2.85501
 30
0.0
 11
6.75
 21
2.86501
 31
0.0
  0
LINE
  5
35C
  8
0
 10
6.75
 20
2.82501
 30
0.0
 11
5.25
 21
2.82501
 31
0.0
  0
LINE
  5
35D
  8
0
 10
5.25
 20
2.82501
 30
0.0
 11
5.25
 21
2.815
 31
0.0
  0
LINE
  5
35E
  8
0
 10
5.25
 20
2.815
 30
0.0
 11
6.75
 21
2.815
 31
0.0
  0
LINE
  5
35F
  8
0
 10
6.75
 20
2.815
 30
0.0
 11
6.75
 21
2.82501
 31
0.0
  0
LINE
  5
360
  8
0
 10
6.75
 20
2.785
 30
0.0
 11
5.25
 21
2.785
 31
0.0
  0
LINE
  5
361
  8
0
 10
5.25
 20
2.785
 30
0.0
 11
5.25
 21
2.77501
 31
0.0
  0
LINE
  5
362
  8
0
 10
5.25
 20
2.77501
 30
0.0
 11
6.75
 21
2.77501
 31
0.0
  0
LINE
  5
363
  8
0
 10
6.75
 20
2.77501
 30
0.0
 11
6.75
 21
2.785
 31
0.0
  0
LINE
  5
364
  8
0
 10
6.75
 20
2.74501
 30
0.0
 11
5.25
 21
2.74501
 31
0.0
  0
LINE
  5
365
  8
0
 10
5.25
 20
2.74501
 30
0.0
 11
5.25
 21
2.735
 31
0.0
  0
LINE
  5
366
  8
0
 10
5.25
 20
2.735
 30
0.0
 11
6.75
 21
2.735
 31
0.0
  0
LINE
  5
367
  8
0
 10
6.75
 20
2.735
 30
0.0
 11
6.75
 21
2.74501
 31
0.0
  0
LINE
  5
368
  8
0
 10
6.75
 20
2.705
 30
0.0
 11
5.25
 21
2.705
 31
0.0
  0
LINE
  5
369
  8
0
 10
5.25
 20
2.705
 30
0.0
 11
5.25
 21
2.69501
 31
0.0
  0
LINE
  5
36A
  8
0
 10
5.25
 20
2.69501
 30
0.0
 11
6.75
 21
2.69501
 31
0.0
  0
LINE
  5
36B
  8
0
 10
6.75
 20
2.69501
 30
0.0
 11
6.75
 21
2.705
 31
0.0
  0
LINE
  5
36C
  8
0
 10
6.75
 20
2.66501
 30
0.0
 11
5.25
 21
2.66501
 31
0.0
  0
LINE
  5
36D
  8
0
 10
5.25
 20
2.66501
 30
0.0
 11
5.25
 21
2.65501
 31
0.0
  0
LINE
  5
36E
  8
0
 10
5.25
 20
2.65501
 30
0.0
 11
6.75
 21
2.65501
 31
0.0
  0
LINE
  5
36F
  8
0
 10
6.75
 20
2.65501
 30
0.0
 11
6.75
 21
2.66501
 31
0.0
  0
LINE
  5
370
  8
0
 10
6.75
 20
2.625
 30
0.0
 11
5.25
 21
2.625
 31
0.0
  0
LINE
  5
371
  8
0
 10
5.25
 20
2.625
 30
0.0
 11
5.25
 21
2.61501
 31
0.0
  0
LINE
  5
372
  8
0
 10
5.25
 20
2.61501
 30
0.0
 11
6.75
 21
2.61501
 31
0.0
  0
LINE
  5
373
  8
0
 10
6.75
 20
2.61501
 30
0.0
 11
6.75
 21
2.625
 31
0.0
  0
LINE
  5
374
  8
0
 10
6.75
 20
2.58501
 30
0.0
 11
5.25
 21
2.58501
 31
0.0
  0
LINE
  5
375
  8
0
 10
5.25
 20
2.58501
 30
0.0
 11
5.25
 21
2.57501
 31
0.0
  0
LINE
  5
376
  8
0
 10
5.25
 20
2.57501
 30
0.0
 11
6.75
 21
2.57501
 31
0.0
  0
LINE
  5
377
  8
0
 10
6.75
 20
2.57501
 30
0.0
 11
6.75
 21
2.58501
 31
0.0
  0
LINE
  5
378
  8
0
 10
6.75
 20
2.54501
 30
0.0
 11
5.25
 21
2.54501
 31
0.0
  0
LINE
  5
379
  8
0
 10
5.25
 20
2.54501
 30
0.0
 11
5.25
 21
2.535
 31
0.0
  0
LINE
  5
37A
  8
0
 10
5.25
 20
2.535
 30
0.0
 11
6.75
 21
2.535
 31
0.0
  0
LINE
  5
37B
  8
0
 10
6.75
 20
2.535
 30
0.0
 11
6.75
 21
2.54501
 31
0.0
  0
LINE
  5
37C
  8
0
 10
6.75
 20
2.505
 30
0.0
 11
5.25
 21
2.505
 31
0.0
  0
LINE
  5
37D
  8
0
 10
5.25
 20
2.505
 30
0.0
 11
5.25
 21
2.49501
 31
0.0
  0
LINE
  5
37E
  8
0
 10
5.25
 20
2.49501
 30
0.0
 11
6.75
 21
2.49501
 31
0.0
  0
LINE
  5
37F
  8
0
 10
6.75
 20
2.49501
 30
0.0
 11
6.75
 21
2.505
 31
0.0
  0
LINE
  5
380
  8
0
 10
6.75
 20
2.46501
 30
0.0
 11
5.25
 21
2.46501
 31
0.0
  0
LINE
  5
381
  8
0
 10
5.25
 20
2.46501
 30
0.0
 11
5.25
 21
2.455
 31
0.0
  0
LINE
  5
382
  8
0
 10
5.25
 20
2.455
 30
0.0
 11
6.75
 21
2.455
 31
0.0
  0
LINE
  5
383
  8
0
 10
6.75
 20
2.455
 30
0.0
 11
6.75
 21
2.46501
 31
0.0
  0
LINE
  5
384
  8
0
 10
6.75
 20
2.425
 30
0.0
 11
5.25
 21
2.425
 31
0.0
  0
LINE
  5
385
  8
0
 10
5.25
 20
2.425
 30
0.0
 11
5.25
 21
2.41501
 31
0.0
  0
LINE
  5
386
  8
0
 10
5.25
 20
2.41501
 30
0.0
 11
6.75
 21
2.41501
 31
0.0
  0
LINE
  5
387
  8
0
 10
6.75
 20
2.41501
 30
0.0
 11
6.75
 21
2.425
 31
0.0
  0
LINE
  5
388
  8
0
 10
6.75
 20
2.38501
 30
0.0
 11
5.25
 21
2.38501
 31
0.0
  0
LINE
  5
389
  8
0
 10
5.25
 20
2.38501
 30
0.0
 11
5.25
 21
2.375
 31
0.0
  0
LINE
  5
38A
  8
0
 10
5.25
 20
2.375
 30
0.0
 11
6.75
 21
2.375
 31
0.0
  0
LINE
  5
38B
  8
0
 10
6.75
 20
2.375
 30
0.0
 11
6.75
 21
2.38501
 31
0.0
  0
LINE
  5
38C
  8
0
 10
6.75
 20
2.345
 30
0.0
 11
5.25
 21
2.345
 31
0.0
  0
LINE
  5
38D
  8
0
 10
5.25
 20
2.345
 30
0.0
 11
5.25
 21
2.33501
 31
0.0
  0
LINE
  5
38E
  8
0
 10
5.25
 20
2.33501
 30
0.0
 11
6.75
 21
2.33501
 31
0.0
  0
LINE
  5
38F
  8
0
 10
6.75
 20
2.33501
 30
0.0
 11
6.75
 21
2.345
 31
0.0
  0
LINE
  5
390
  8
0
 10
6.75
 20
2.30501
 30
0.0
 11
5.25
 21
2.30501
 31
0.0
  0
LINE
  5
391
  8
0
 10
5.25
 20
2.30501
 30
0.0
 11
5.25
 21
2.29501
 31
0.0
  0
LINE
  5
392
  8
0
 10
5.25
 20
2.29501
 30
0.0
 11
6.75
 21
2.29501
 31
0.0
  0
LINE
  5
393
  8
0
 10
6.75
 20
2.29501
 30
0.0
 11
6.75
 21
2.30501
 31
0.0
  0
LINE
  5
394
  8
0
 10
6.75
 20
2.26501
 30
0.0
 11
5.25
 21
2.26501
 31
0.0
  0
LINE
  5
395
  8
0
 10
5.25
 20
2.26501
 30
0.0
 11
5.25
 21
2.255
 31
0.0
  0
LINE
  5
396
  8
0
 10
5.25
 20
2.255
 30
0.0
 11
6.75
 21
2.255
 31
0.0
  0
LINE
  5
397
  8
0
 10
6.75
 20
2.255
 30
0.0
 11
6.75
 21
2.26501
 31
0.0
  0
LINE
  5
398
  8
0
 10
6.75
 20
2.22501
 30
0.0
 11
5.25
 21
2.22501
 31
0.0
  0
LINE
  5
399
  8
0
 10
5.25
 20
2.22501
 30
0.0
 11
5.25
 21
2.21501
 31
0.0
  0
LINE
  5
39A
  8
0
 10
5.25
 20
2.21501
 30
0.0
 11
6.75
 21
2.21501
 31
0.0
  0
LINE
  5
39B
  8
0
 10
6.75
 20
2.21501
 30
0.0
 11
6.75
 21
2.22501
 31
0.0
  0
LINE
  5
39C
  8
0
 10
6.75
 20
2.18501
 30
0.0
 11
5.25
 21
2.18501
 31
0.0
  0
LINE
  5
39D
  8
0
 10
5.25
 20
2.18501
 30
0.0
 11
5.25
 21
2.175
 31
0.0
  0
LINE
  5
39E
  8
0
 10
5.25
 20
2.175
 30
0.0
 11
6.75
 21
2.175
 31
0.0
  0
LINE
  5
39F
  8
0
 10
6.75
 20
2.175
 30
0.0
 11
6.75
 21
2.18501
 31
0.0
  0
LINE
  5
3A0
  8
0
 10
6.75
 20
2.145
 30
0.0
 11
5.25
 21
2.145
 31
0.0
  0
LINE
  5
3A1
  8
0
 10
5.25
 20
2.145
 30
0.0
 11
5.25
 21
2.13501
 31
0.0
  0
LINE
  5
3A2
  8
0
 10
5.25
 20
2.13501
 30
0.0
 11
6.75
 21
2.13501
 31
0.0
  0
LINE
  5
3A3
  8
0
 10
6.75
 20
2.13501
 30
0.0
 11
6.75
 21
2.145
 31
0.0
  0
LINE
  5
3A4
  8
0
 10
6.75
 20
2.10501
 30
0.0
 11
5.25
 21
2.10501
 31
0.0
  0
LINE
  5
3A5
  8
0
 10
5.25
 20
2.10501
 30
0.0
 11
5.25
 21
2.095
 31
0.0
  0
LINE
  5
3A6
  8
0
 10
5.25
 20
2.095
 30
0.0
 11
6.75
 21
2.095
 31
0.0
  0
LINE
  5
3A7
  8
0
 10
6.75
 20
2.095
 30
0.0
 11
6.75
 21
2.10501
 31
0.0
  0
LINE
  5
3A8
  8
0
 10
6.75
 20
2.065
 30
0.0
 11
5.25
 21
2.065
 31
0.0
  0
LINE
  5
3A9
  8
0
 10
5.25
 20
2.065
 30
0.0
 11
5.25
 21
2.05501
 31
0.0
  0
LINE
  5
3AA
  8
0
 10
5.25
 20
2.05501
 30
0.0
 11
6.75
 21
2.05501
 31
0.0
  0
LINE
  5
3AB
  8
0
 10
6.75
 20
2.05501
 30
0.0
 11
6.75
 21
2.065
 31
0.0
  0
LINE
  5
3AC
  8
0
 10
6.75
 20
2.02501
 30
0.0
 11
5.25
 21
2.02501
 31
0.0
  0
LINE
  5
3AD
  8
0
 10
5.25
 20
2.02501
 30
0.0
 11
5.25
 21
2.01501
 31
0.0
  0
LINE
  5
3AE
  8
0
 10
5.25
 20
2.01501
 30
0.0
 11
6.75
 21
2.01501
 31
0.0
  0
LINE
  5
3AF
  8
0
 10
6.75
 20
2.01501
 30
0.0
 11
6.75
 21
2.02501
 31
0.0
  0
LINE
  5
3B0
  8
0
 10
6.75
 20
1.985
 30
0.0
 11
5.25
 21
1.985
 31
0.0
  0
LINE
  5
3B1
  8
0
 10
5.25
 20
1.985
 30
0.0
 11
5.25
 21
1.97501
 31
0.0
  0
LINE
  5
3B2
  8
0
 10
5.25
 20
1.97501
 30
0.0
 11
6.75
 21
1.97501
 31
0.0
  0
LINE
  5
3B3
  8
0
 10
6.75
 20
1.97501
 30
0.0
 11
6.75
 21
1.985
 31
0.0
  0
LINE
  5
3B4
  8
0
 10
6.75
 20
1.94501
 30
0.0
 11
5.25
 21
1.94501
 31
0.0
  0
LINE
  5
3B5
  8
0
 10
5.25
 20
1.94501
 30
0.0
 11
5.25
 21
1.93501
 31
0.0
  0
LINE
  5
3B6
  8
0
 10
5.25
 20
1.93501
 30
0.0
 11
6.75
 21
1.93501
 31
0.0
  0
LINE
  5
3B7
  8
0
 10
6.75
 20
1.93501
 30
0.0
 11
6.75
 21
1.94501
 31
0.0
  0
LINE
  5
3B8
  8
0
 10
6.75
 20
1.90501
 30
0.0
 11
5.25
 21
1.90501
 31
0.0
  0
LINE
  5
3B9
  8
0
 10
5.25
 20
1.90501
 30
0.0
 11
5.25
 21
1.895
 31
0.0
  0
LINE
  5
3BA
  8
0
 10
5.25
 20
1.895
 30
0.0
 11
6.75
 21
1.895
 31
0.0
  0
LINE
  5
3BB
  8
0
 10
6.75
 20
1.895
 30
0.0
 11
6.75
 21
1.90501
 31
0.0
  0
LINE
  5
3BC
  8
0
 10
6.75
 20
1.86501
 30
0.0
 11
5.25
 21
1.86501
 31
0.0
  0
LINE
  5
3BD
  8
0
 10
5.25
 20
1.86501
 30
0.0
 11
5.25
 21
1.85501
 31
0.0
  0
LINE
  5
3BE
  8
0
 10
5.25
 20
1.85501
 30
0.0
 11
6.75
 21
1.85501
 31
0.0
  0
LINE
  5
3BF
  8
0
 10
6.75
 20
1.85501
 30
0.0
 11
6.75
 21
1.86501
 31
0.0
  0
LINE
  5
3C0
  8
0
 10
6.75
 20
1.82501
 30
0.0
 11
5.25
 21
1.82501
 31
0.0
  0
LINE
  5
3C1
  8
0
 10
5.25
 20
1.82501
 30
0.0
 11
5.25
 21
1.815
 31
0.0
  0
LINE
  5
3C2
  8
0
 10
5.25
 20
1.815
 30
0.0
 11
6.75
 21
1.815
 31
0.0
  0
LINE
  5
3C3
  8
0
 10
6.75
 20
1.815
 30
0.0
 11
6.75
 21
1.82501
 31
0.0
  0
LINE
  5
3C4
  8
0
 10
6.75
 20
1.785
 30
0.0
 11
5.25
 21
1.785
 31
0.0
  0
LINE
  5
3C5
  8
0
 10
5.25
 20
1.785
 30
0.0
 11
5.25
 21
1.77501
 31
0.0
  0
LINE
  5
3C6
  8
0
 10
5.25
 20
1.77501
 30
0.0
 11
6.75
 21
1.77501
 31
0.0
  0
LINE
  5
3C7
  8
0
 10
6.75
 20
1.77501
 30
0.0
 11
6.75
 21
1.785
 31
0.0
  0
LINE
  5
3C8
  8
0
 10
6.75
 20
1.74501
 30
0.0
 11
5.25
 21
1.74501
 31
0.0
  0
LINE
  5
3C9
  8
0
 10
5.25
 20
1.74501
 30
0.0
 11
5.25
 21
1.735
 31
0.0
  0
LINE
  5
3CA
  8
0
 10
5.25
 20
1.735
 30
0.0
 11
6.75
 21
1.735
 31
0.0
  0
LINE
  5
3CB
  8
0
 10
6.75
 20
1.735
 30
0.0
 11
6.75
 21
1.74501
 31
0.0
  0
LINE
  5
3CC
  8
0
 10
6.75
 20
1.705
 30
0.0
 11
5.25
 21
1.705
 31
0.0
  0
LINE
  5
3CD
  8
0
 10
5.25
 20
1.705
 30
0.0
 11
5.25
 21
1.69501
 31
0.0
  0
LINE
  5
3CE
  8
0
 10
5.25
 20
1.69501
 30
0.0
 11
6.75
 21
1.69501
 31
0.0
  0
LINE
  5
3CF
  8
0
 10
6.75
 20
1.69501
 30
0.0
 11
6.75
 21
1.705
 31
0.0
  0
LINE
  5
3D0
  8
0
 10
6.75
 20
1.66501
 30
0.0
 11
5.25
 21
1.66501
 31
0.0
  0
LINE
  5
3D1
  8
0
 10
5.25
 20
1.66501
 30
0.0
 11
5.25
 21
1.65501
 31
0.0
  0
LINE
  5
3D2
  8
0
 10
5.25
 20
1.65501
 30
0.0
 11
6.75
 21
1.65501
 31
0.0
  0
LINE
  5
3D3
  8
0
 10
6.75
 20
1.65501
 30
0.0
 11
6.75
 21
1.66501
 31
0.0
  0
LINE
  5
3D4
  8
0
 10
6.75
 20
1.625
 30
0.0
 11
5.25
 21
1.625
 31
0.0
  0
LINE
  5
3D5
  8
0
 10
5.25
 20
1.625
 30
0.0
 11
5.25
 21
1.61501
 31
0.0
  0
LINE
  5
3D6
  8
0
 10
5.25
 20
1.61501
 30
0.0
 11
6.75
 21
1.61501
 31
0.0
  0
LINE
  5
3D7
  8
0
 10
6.75
 20
1.61501
 30
0.0
 11
6.75
 21
1.625
 31
0.0
  0
LINE
  5
3D8
  8
0
 10
6.75
 20
1.58501
 30
0.0
 11
5.25
 21
1.58501
 31
0.0
  0
LINE
  5
3D9
  8
0
 10
5.25
 20
1.58501
 30
0.0
 11
5.25
 21
1.57501
 31
0.0
  0
LINE
  5
3DA
  8
0
 10
5.25
 20
1.57501
 30
0.0
 11
6.75
 21
1.57501
 31
0.0
  0
LINE
  5
3DB
  8
0
 10
6.75
 20
1.57501
 30
0.0
 11
6.75
 21
1.58501
 31
0.0
  0
LINE
  5
3DC
  8
0
 10
6.75
 20
1.54501
 30
0.0
 11
5.25
 21
1.54501
 31
0.0
  0
LINE
  5
3DD
  8
0
 10
5.25
 20
1.54501
 30
0.0
 11
5.25
 21
1.535
 31
0.0
  0
LINE
  5
3DE
  8
0
 10
5.25
 20
1.535
 30
0.0
 11
6.75
 21
1.535
 31
0.0
  0
LINE
  5
3DF
  8
0
 10
6.75
 20
1.535
 30
0.0
 11
6.75
 21
1.54501
 31
0.0
  0
LINE
  5
3E0
  8
0
 10
6.75
 20
1.505
 30
0.0
 11
5.25
 21
1.505
 31
0.0
  0
LINE
  5
3E1
  8
0
 10
5.25
 20
1.505
 30
0.0
 11
5.25
 21
1.49501
 31
0.0
  0
LINE
  5
3E2
  8
0
 10
5.25
 20
1.49501
 30
0.0
 11
6.75
 21
1.49501
 31
0.0
  0
LINE
  5
3E3
  8
0
 10
6.75
 20
1.49501
 30
0.0
 11
6.75
 21
1.505
 31
0.0
  0
LINE
  5
3E4
  8
0
 10
6.75
 20
1.46501
 30
0.0
 11
5.25
 21
1.46501
 31
0.0
  0
LINE
  5
3E5
  8
0
 10
5.25
 20
1.46501
 30
0.0
 11
5.25
 21
1.455
 31
0.0
  0
LINE
  5
3E6
  8
0
 10
5.25
 20
1.455
 30
0.0
 11
6.75
 21
1.455
 31
0.0
  0
LINE
  5
3E7
  8
0
 10
6.75
 20
1.455
 30
0.0
 11
6.75
 21
1.46501
 31
0.0
  0
LINE
  5
3E8
  8
0
 10
6.75
 20
1.425
 30
0.0
 11
5.25
 21
1.425
 31
0.0
  0
LINE
  5
3E9
  8
0
 10
5.25
 20
1.425
 30
0.0
 11
5.25
 21
1.41501
 31
0.0
  0
LINE
  5
3EA
  8
0
 10
5.25
 20
1.41501
 30
0.0
 11
6.75
 21
1.41501
 31
0.0
  0
LINE
  5
3EB
  8
0
 10
6.75
 20
1.41501
 30
0.0
 11
6.75
 21
1.425
 31
0.0
  0
LINE
  5
3EC
  8
0
 10
6.75
 20
1.38501
 30
0.0
 11
5.25
 21
1.38501
 31
0.0
  0
LINE
  5
3ED
  8
0
 10
5.25
 20
1.38501
 30
0.0
 11
5.25
 21
1.375
 31
0.0
  0
LINE
  5
3EE
  8
0
 10
5.25
 20
1.375
 30
0.0
 11
6.75
 21
1.375
 31
0.0
  0
LINE
  5
3EF
  8
0
 10
6.75
 20
1.375
 30
0.0
 11
6.75
 21
1.38501
 31
0.0
  0
LINE
  5
3F0
  8
0
 10
6.75
 20
1.345
 30
0.0
 11
5.25
 21
1.345
 31
0.0
  0
LINE
  5
3F1
  8
0
 10
5.25
 20
1.345
 30
0.0
 11
5.25
 21
1.33501
 31
0.0
  0
LINE
  5
3F2
  8
0
 10
5.25
 20
1.33501
 30
0.0
 11
6.75
 21
1.33501
 31
0.0
  0
LINE
  5
3F3
  8
0
 10
6.75
 20
1.33501
 30
0.0
 11
6.75
 21
1.345
 31
0.0
  0
LINE
  5
3F4
  8
0
 10
6.75
 20
1.30501
 30
0.0
 11
5.25
 21
1.30501
 31
0.0
  0
LINE
  5
3F5
  8
0
 10
5.25
 20
1.30501
 30
0.0
 11
5.25
 21
1.29501
 31
0.0
  0
LINE
  5
3F6
  8
0
 10
5.25
 20
1.29501
 30
0.0
 11
6.75
 21
1.29501
 31
0.0
  0
LINE
  5
3F7
  8
0
 10
6.75
 20
1.29501
 30
0.0
 11
6.75
 21
1.30501
 31
0.0
  0
LINE
  5
3F8
  8
0
 10
6.75
 20
1.26501
 30
0.0
 11
5.25
 21
1.26501
 31
0.0
  0
LINE
  5
3F9
  8
0
 10
5.25
 20
1.26501
 30
0.0
 11
5.25
 21
1.255
 31
0.0
  0
LINE
  5
3FA
  8
0
 10
5.25
 20
1.255
 30
0.0
 11
6.75
 21
1.255
 31
0.0
  0
LINE
  5
3FB
  8
0
 10
6.75
 20
1.255
 30
0.0
 11
6.75
 21
1.26501
 31
0.0
  0
LINE
  5
3FC
  8
0
 10
6.75
 20
1.22501
 30
0.0
 11
5.25
 21
1.22501
 31
0.0
  0
LINE
  5
3FD
  8
0
 10
5.25
 20
1.22501
 30
0.0
 11
5.25
 21
1.21501
 31
0.0
  0
LINE
  5
3FE
  8
0
 10
5.25
 20
1.21501
 30
0.0
 11
6.75
 21
1.21501
 31
0.0
  0
LINE
  5
3FF
  8
0
 10
6.75
 20
1.21501
 30
0.0
 11
6.75
 21
1.22501
 31
0.0
  0
LINE
  5
400
  8
0
 10
6.75
 20
1.18501
 30
0.0
 11
5.25
 21
1.18501
 31
0.0
  0
LINE
  5
401
  8
0
 10
5.25
 20
1.18501
 30
0.0
 11
5.25
 21
1.175
 31
0.0
  0
LINE
  5
402
  8
0
 10
5.25
 20
1.175
 30
0.0
 11
6.75
 21
1.175
 31
0.0
  0
LINE
  5
403
  8
0
 10
6.75
 20
1.175
 30
0.0
 11
6.75
 21
1.18501
 31
0.0
  0
LINE
  5
404
  8
0
 10
6.75
 20
1.145
 30
0.0
 11
5.25
 21
1.145
 31
0.0
  0
LINE
  5
405
  8
0
 10
5.25
 20
1.145
 30
0.0
 11
5.25
 21
1.13501
 31
0.0
  0
LINE
  5
406
  8
0
 10
5.25
 20
1.13501
 30
0.0
 11
6.75
 21
1.13501
 31
0.0
  0
LINE
  5
407
  8
0
 10
6.75
 20
1.13501
 30
0.0
 11
6.75
 21
1.145
 31
0.0
  0
LINE
  5
408
  8
0
 10
6.75
 20
1.10501
 30
0.0
 11
5.25
 21
1.10501
 31
0.0
  0
LINE
  5
409
  8
0
 10
5.25
 20
1.10501
 30
0.0
 11
5.25
 21
1.095
 31
0.0
  0
LINE
  5
40A
  8
0
 10
5.25
 20
1.095
 30
0.0
 11
6.75
 21
1.095
 31
0.0
  0
LINE
  5
40B
  8
0
 10
6.75
 20
1.095
 30
0.0
 11
6.75
 21
1.10501
 31
0.0
  0
LINE
  5
40C
  8
0
 10
6.75
 20
1.065
 30
0.0
 11
5.25
 21
1.065
 31
0.0
  0
LINE
  5
40D
  8
0
 10
5.25
 20
1.065
 30
0.0
 11
5.25
 21
1.05501
 31
0.0
  0
LINE
  5
40E
  8
0
 10
5.25
 20
1.05501
 30
0.0
 11
6.75
 21
1.05501
 31
0.0
  0
LINE
  5
40F
  8
0
 10
6.75
 20
1.05501
 30
0.0
 11
6.75
 21
1.065
 31
0.0
  0
ENDSEC
  0
EOF
