  0
SECTION
  2
HEADER
  9
$ACADVER
  1
AC1009
  9
$DWGCODEPAGE
  3
ANSI_1252
  9
$INSBASE
 10
0.0
 20
0.0
 30
0.0
  9
$EXTMIN
 10
1e+20
 20
1e+20
 30
1e+20
  9
$EXTMAX
 10
-1e+20
 20
-1e+20
 30
-1e+20
  9
$LIMMIN
 10
0.0
 20
0.0
  9
$LIMMAX
 10
420.0
 20
297.0
  9
$ORTHOMODE
 70
0
  9
$REGENMODE
 70
1
  9
$FILLMODE
 70
1
  9
$DRAGMODE
 70
2
  9
$QTEXTMODE
 70
0
  9
$MIRRTEXT
 70
1
  9
$OSMODE
 70
20583
  9
$LTSCALE
 40
1.0
  9
$ATTMODE
 70
1
  9
$TEXTSIZE
 40
2.5
  9
$TRACEWID
 40
1.0
  9
$TEXTSTYLE
  7
Standard
  9
$CLAYER
  8
0
  9
$CELTYPE
  6
ByLayer
  9
$CECOLOR
 62
256
  9
$DIMSCALE
 40
1.0
  9
$DIMASZ
 40
2.5
  9
$DIMEXO
 40
0.625
  9
$DIMDLI
 40
3.75
  9
$DIMRND
 40
0.0
  9
$DIMDLE
 40
0.0
  9
$DIMEXE
 40
1.25
  9
$DIMTP
 40
0.0
  9
$DIMTM
 40
0.0
  9
$DIMTXT
 40
2.5
  9
$DIMCEN
 40
2.5
  9
$DIMTSZ
 40
0.0
  9
$DIMTOL
 70
0
  9
$DIMLIM
 70
0
  9
$DIMTIH
 70
0
  9
$DIMTOH
 70
0
  9
$DIMSE1
 70
0
  9
$DIMSE2
 70
0
  9
$DIMTAD
 70
1
  9
$DIMZIN
 70
8
  9
$DIMBLK
  1

  9
$DIMASO
 70
1
  9
$DIMSHO
 70
1
  9
$DIMPOST
  1

  9
$DIMAPOST
  1

  9
$DIMALT
 70
0
  9
$DIMALTD
 70
3
  9
$DIMALTF
 40
0.03937007874
  9
$DIMLFAC
 40
1.0
  9
$DIMTOFL
 70
1
  9
$DIMTVP
 40
0.0
  9
$DIMTIX
 70
0
  9
$DIMSOXD
 70
0
  9
$DIMSAH
 70
0
  9
$DIMBLK1
  1

  9
$DIMBLK2
  1

  9
$DIMSTYLE
  2
ISO-25
  9
$DIMCLRD
 70
0
  9
$DIMCLRE
 70
0
  9
$DIMCLRT
 70
0
  9
$DIMTFAC
 40
1.0
  9
$DIMGAP
 40
0.625
  9
$COORDS
 70
1
  9
$ATTDIA
 70
0
  9
$ATTREQ
 70
1
  9
$HANDLING
 70
1
  9
$LUNITS
 70
2
  9
$LUPREC
 70
4
  9
$SKETCHINC
 40
1.0
  9
$FILLETRAD
 40
10.0
  9
$AUNITS
 70
0
  9
$AUPREC
 70
2
  9
$MENU
  1
.
  9
$ELEVATION
 40
0.0
  9
$PELEVATION
 40
0.0
  9
$THICKNESS
 40
0.0
  9
$LIMCHECK
 70
0
  9
$CHAMFERA
 40
0.0
  9
$CHAMFERB
 40
0.0
  9
$SKPOLY
 70
0
  9
$TDCREATE
 40
2459775.739849537
  9
$TDUPDATE
 40
2459775.739849537
  9
$TDINDWG
 40
0.0
  9
$TDUSRTIMER
 40
0.0
  9
$USRTIMER
 70
1
  9
$ANGBASE
 50
0.0
  9
$ANGDIR
 70
0
  9
$PDMODE
 70
0
  9
$PDSIZE
 40
0.0
  9
$PLINEWID
 40
0.0
  9
$SPLFRAME
 70
0
  9
$SPLINETYPE
 70
6
  9
$SPLINESEGS
 70
8
  9
$HANDSEED
  5
207
  9
$SURFTAB1
 70
6
  9
$SURFTAB2
 70
6
  9
$SURFTYPE
 70
6
  9
$SURFU
 70
6
  9
$SURFV
 70
6
  9
$UCSNAME
  2

  9
$UCSORG
 10
0.0
 20
0.0
 30
0.0
  9
$UCSXDIR
 10
1.0
 20
0.0
 30
0.0
  9
$UCSYDIR
 10
0.0
 20
1.0
 30
0.0
  9
$PUCSNAME
  2

  9
$PUCSORG
 10
0.0
 20
0.0
 30
0.0
  9
$PUCSXDIR
 10
1.0
 20
0.0
 30
0.0
  9
$PUCSYDIR
 10
0.0
 20
1.0
 30
0.0
  9
$USERI1
 70
0
  9
$USERI2
 70
0
  9
$USERI3
 70
0
  9
$USERI4
 70
0
  9
$USERI5
 70
0
  9
$USERR1
 40
0.0
  9
$USERR2
 40
0.0
  9
$USERR3
 40
0.0
  9
$USERR4
 40
0.0
  9
$USERR5
 40
0.0
  9
$WORLDVIEW
 70
1
  9
$SHADEDGE
 70
3
  9
$SHADEDIF
 70
70
  9
$TILEMODE
 70
1
  9
$MAXACTVP
 70
64
  9
$PLIMCHECK
 70
0
  9
$PEXTMIN
 10
1e+20
 20
1e+20
 30
1e+20
  9
$PEXTMAX
 10
-1e+20
 20
-1e+20
 30
-1e+20
  9
$PLIMMIN
 10
0.0
 20
0.0
  9
$PLIMMAX
 10
420.0
 20
297.0
  9
$UNITMODE
 70
0
  9
$VISRETAIN
 70
1
  9
$PLINEGEN
 70
0
  9
$PSLTSCALE
 70
1
  0
ENDSEC
  0
SECTION
  2
TABLES
  0
TABLE
  2
VPORT
 70
1
  0
VPORT
  5
1FB
  2
*Active
 70
0
 10
0.0
 20
0.0
 11
1.0
 21
1.0
 12
0.0
 22
0.0
 13
0.0
 23
0.0
 14
0.5
 24
0.5
 15
0.5
 25
0.5
 16
0.0
 26
0.0
 36
1.0
 17
0.0
 27
0.0
 37
0.0
 40
1000.0
 41
1.34
 42
50.0
 43
0.0
 44
0.0
 50
0.0
 51
0.0
 71
0
 72
1000
 73
1
 74
3
 75
0
 76
0
 77
0
 78
0
  0
ENDTAB
  0
TABLE
  2
LTYPE
 70
3
  0
LTYPE
  5
1FC
  2
ByBlock
 70
0
  3

 72
65
 73
0
 40
0.0
  0
LTYPE
  5
1FD
  2
ByLayer
 70
0
  3

 72
65
 73
0
 40
0.0
  0
LTYPE
  5
1FE
  2
Continuous
 70
0
  3

 72
65
 73
0
 40
0.0
  0
ENDTAB
  0
TABLE
  2
LAYER
 70
2
  0
LAYER
  5
1FF
  2
0
 70
0
 62
7
  6
Continuous
  0
LAYER
  5
200
  2
Defpoints
 70
0
 62
7
  6
Continuous
  0
ENDTAB
  0
TABLE
  2
STYLE
 70
1
  0
STYLE
  5
201
  2
Standard
 70
0
 40
0.0
 41
1.0
 50
0.0
 71
0
 42
2.5
  3
txt
  4

  0
ENDTAB
  0
TABLE
  2
VIEW
 70
0
  0
ENDTAB
  0
TABLE
  2
UCS
 70
0
  0
ENDTAB
  0
TABLE
  2
APPID
 70
3
  0
APPID
  5
202
  2
ACAD
 70
0
  0
APPID
  5
205
  2
HATCHBACKGROUNDCOLOR
 70
0
  0
APPID
  5
206
  2
EZDXF
 70
0
  0
ENDTAB
  0
TABLE
  2
DIMSTYLE
 70
1
  0
DIMSTYLE
105
203
  2
Standard
 70
0
  3

  4

  5

  6

  7

 40
1.0
 41
2.5
 42
0.625
 43
3.75
 44
1.25
 45
0.0
 46
0.0
 47
0.0
 48
0.0
140
2.5
141
2.5
142
0.0
143
0.03937007874
144
1.0
145
0.0
146
1.0
147
0.625
 71
0
 72
0
 73
0
 74
0
 75
0
 76
0
 77
1
 78
8
170
0
171
3
172
1
173
0
174
0
175
0
176
0
177
0
178
0
  0
ENDTAB
  0
ENDSEC
  0
SECTION
  2
BLOCKS
  0
BLOCK
  5
1DC
  8
0
  2
$Model_Space
 70
0
 10
0.0
 20
0.0
 30
0.0
  3
$Model_Space
  1

1001
EZDXF
1000
WRITTEN_BY_EZDXF
1000
0.17.2 @ 2022-07-14T21:45:23.634811+00:00
  0
ENDBLK
  5
1DD
  8
0
  0
BLOCK
  5
1DE
  8
0
  2
$Paper_Space
 70
0
 10
0.0
 20
0.0
 30
0.0
  3
$Paper_Space
  1

  0
ENDBLK
  5
1DF
  8
0
  0
ENDSEC
  0
SECTION
  2
ENTITIES
  0
LINE
  5
100
  8
0
 10
8.24504
 20
5.01204
 30
0.0
 11
8.48772
 21
5.04805
 31
0.0
  0
LINE
  5
101
  8
0
 10
8.48772
 20
5.04805
 30
0.0
 11
8.72571
 21
5.10765
 31
0.0
  0
LINE
  5
102
  8
0
 10
8.72571
 20
5.10765
 30
0.0
 11
8.9567
 21
5.19031
 31
0.0
  0
LINE
  5
103
  8
0
 10
8.9567
 20
5.19031
 30
0.0
 11
9.17848
 21
5.29521
 31
0.0
  0
LINE
  5
104
  8
0
 10
9.17848
 20
5.29521
 30
0.0
 11
9.38892
 21
5.42134
 31
0.0
  0
LINE
  5
105
  8
0
 10
9.38892
 20
5.42134
 30
0.0
 11
9.58597
 21
5.56747
 31
0.0
  0
LINE
  5
106
  8
0
 10
9.58597
 20
5.56747
 30
0.0
 11
9.76776
 21
5.73224
 31
0.0
  0
LINE
  5
107
  8
0
 10
9.76776
 20
5.73224
 30
0.0
 11
9.93253
 21
5.91403
 31
0.0
  0
LINE
  5
108
  8
0
 10
9.93253
 20
5.91403
 30
0.0
 11
10.0787
 21
6.11108
 31
0.0
  0
LINE
  5
109
  8
0
 10
10.0787
 20
6.11108
 30
0.0
 11
10.2048
 21
6.32152
 31
0.0
  0
LINE
  5
10A
  8
0
 10
10.2048
 20
6.32152
 30
0.0
 11
10.3097
 21
6.5433
 31
0.0
  0
LINE
  5
10B
  8
0
 10
10.3097
 20
6.5433
 30
0.0
 11
10.3923
 21
6.77429
 31
0.0
  0
LINE
  5
10C
  8
0
 10
10.3923
 20
6.77429
 30
0.0
 11
10.452
 21
7.01228
 31
0.0
  0
LINE
  5
10D
  8
0
 10
10.452
 20
7.01228
 30
0.0
 11
10.488
 21
7.25496
 31
0.0
  0
LINE
  5
10E
  8
0
 10
10.488
 20
7.25496
 30
0.0
 11
10.5
 21
7.5
 31
0.0
  0
LINE
  5
10F
  8
0
 10
10.5
 20
7.5
 30
0.0
 11
10.488
 21
7.74504
 31
0.0
  0
LINE
  5
110
  8
0
 10
10.488
 20
7.74504
 30
0.0
 11
10.452
 21
7.98772
 31
0.0
  0
LINE
  5
111
  8
0
 10
10.452
 20
7.98772
 30
0.0
 11
10.3923
 21
8.22571
 31
0.0
  0
LINE
  5
112
  8
0
 10
10.3923
 20
8.22571
 30
0.0
 11
10.3097
 21
8.4567
 31
0.0
  0
LINE
  5
113
  8
0
 10
10.3097
 20
8.4567
 30
0.0
 11
10.2048
 21
8.67848
 31
0.0
  0
LINE
  5
114
  8
0
 10
10.2048
 20
8.67848
 30
0.0
 11
10.0787
 21
8.88892
 31
0.0
  0
LINE
  5
115
  8
0
 10
10.0787
 20
8.88892
 30
0.0
 11
9.93253
 21
9.08597
 31
0.0
  0
LINE
  5
116
  8
0
 10
9.93253
 20
9.08597
 30
0.0
 11
9.76776
 21
9.26776
 31
0.0
  0
LINE
  5
117
  8
0
 10
9.76776
 20
9.26776
 30
0.0
 11
9.58597
 21
9.43253
 31
0.0
  0
LINE
  5
118
  8
0
 10
9.58597
 20
9.43253
 30
0.0
 11
9.38892
 21
9.57866
 31
0.0
  0
LINE
  5
119
  8
0
 10
9.38892
 20
9.57866
 30
0.0
 11
9.17848
 21
9.70479
 31
0.0
  0
LINE
  5
11A
  8
0
 10
9.17848
 20
9.70479
 30
0.0
 11
8.9567
 21
9.80969
 31
0.0
  0
LINE
  5
11B
  8
0
 10
8.9567
 20
9.80969
 30
0.0
 11
8.72571
 21
9.89235
 31
0.0
  0
LINE
  5
11C
  8
0
 10
8.72571
 20
9.89235
 30
0.0
 11
8.48772
 21
9.95195
 31
0.0
  0
LINE
  5
11D
  8
0
 10
8.48772
 20
9.95195
 30
0.0
 11
8.24504
 21
9.98796
 31
0.0
  0
LINE
  5
11E
  8
0
 10
8.24504
 20
9.98796
 30
0.0
 11
8.0
 21
10.0
 31
0.0
  0
LINE
  5
11F
  8
0
 10
8.0
 20
10.0
 30
0.0
 11
7.75494
 21
9.98796
 31
0.0
  0
LINE
  5
120
  8
0
 10
7.75494
 20
9.98796
 30
0.0
 11
7.51227
 21
9.95195
 31
0.0
  0
LINE
  5
121
  8
0
 10
7.51227
 20
9.95195
 30
0.0
 11
7.27428
 21
9.89235
 31
0.0
  0
LINE
  5
122
  8
0
 10
7.27428
 20
9.89235
 30
0.0
 11
7.04329
 21
9.80969
 31
0.0
  0
LINE
  5
123
  8
0
 10
7.04329
 20
9.80969
 30
0.0
 11
6.8215
 21
9.70479
 31
0.0
  0
LINE
  5
124
  8
0
 10
6.8215
 20
9.70479
 30
0.0
 11
6.61107
 21
9.57866
 31
0.0
  0
LINE
  5
125
  8
0
 10
6.61107
 20
9.57866
 30
0.0
 11
6.41402
 21
9.43253
 31
0.0
  0
LINE
  5
126
  8
0
 10
6.41402
 20
9.43253
 30
0.0
 11
6.23222
 21
9.26776
 31
0.0
  0
LINE
  5
127
  8
0
 10
6.23222
 20
9.26776
 30
0.0
 11
6.06746
 21
9.08597
 31
0.0
  0
LINE
  5
128
  8
0
 10
6.06746
 20
9.08597
 30
0.0
 11
6.0
 21
8.995
 31
0.0
  0
LINE
  5
129
  8
0
 10
6.0
 20
8.995
 30
0.0
 11
5.93254
 21
9.08597
 31
0.0
  0
LINE
  5
12A
  8
0
 10
5.93254
 20
9.08597
 30
0.0
 11
5.76778
 21
9.26776
 31
0.0
  0
LINE
  5
12B
  8
0
 10
5.76778
 20
9.26776
 30
0.0
 11
5.58598
 21
9.43253
 31
0.0
  0
LINE
  5
12C
  8
0
 10
5.58598
 20
9.43253
 30
0.0
 11
5.38893
 21
9.57866
 31
0.0
  0
LINE
  5
12D
  8
0
 10
5.38893
 20
9.57866
 30
0.0
 11
5.1785
 21
9.70479
 31
0.0
  0
LINE
  5
12E
  8
0
 10
5.1785
 20
9.70479
 30
0.0
 11
4.95671
 21
9.80969
 31
0.0
  0
LINE
  5
12F
  8
0
 10
4.95671
 20
9.80969
 30
0.0
 11
4.72572
 21
9.89235
 31
0.0
  0
LINE
  5
130
  8
0
 10
4.72572
 20
9.89235
 30
0.0
 11
4.48773
 21
9.95195
 31
0.0
  0
LINE
  5
131
  8
0
 10
4.48773
 20
9.95195
 30
0.0
 11
4.24506
 21
9.98796
 31
0.0
  0
LINE
  5
132
  8
0
 10
4.24506
 20
9.98796
 30
0.0
 11
4.0
 21
10.0
 31
0.0
  0
LINE
  5
133
  8
0
 10
4.0
 20
10.0
 30
0.0
 11
3.75496
 21
9.98796
 31
0.0
  0
LINE
  5
134
  8
0
 10
3.75496
 20
9.98796
 30
0.0
 11
3.51228
 21
9.95195
 31
0.0
  0
LINE
  5
135
  8
0
 10
3.51228
 20
9.95195
 30
0.0
 11
3.27429
 21
9.89235
 31
0.0
  0
LINE
  5
136
  8
0
 10
3.27429
 20
9.89235
 30
0.0
 11
3.0433
 21
9.80969
 31
0.0
  0
LINE
  5
137
  8
0
 10
3.0433
 20
9.80969
 30
0.0
 11
2.82152
 21
9.70479
 31
0.0
  0
LINE
  5
138
  8
0
 10
2.82152
 20
9.70479
 30
0.0
 11
2.61108
 21
9.57866
 31
0.0
  0
LINE
  5
139
  8
0
 10
2.61108
 20
9.57866
 30
0.0
 11
2.41403
 21
9.43253
 31
0.0
  0
LINE
  5
13A
  8
0
 10
2.41403
 20
9.43253
 30
0.0
 11
2.23224
 21
9.26776
 31
0.0
  0
LINE
  5
13B
  8
0
 10
2.23224
 20
9.26776
 30
0.0
 11
2.06747
 21
9.08597
 31
0.0
  0
LINE
  5
13C
  8
0
 10
2.06747
 20
9.08597
 30
0.0
 11
1.92134
 21
8.88892
 31
0.0
  0
LINE
  5
13D
  8
0
 10
1.92134
 20
8.88892
 30
0.0
 11
1.79521
 21
8.67848
 31
0.0
  0
LINE
  5
13E
  8
0
 10
1.79521
 20
8.67848
 30
0.0
 11
1.69031
 21
8.4567
 31
0.0
  0
LINE
  5
13F
  8
0
 10
1.69031
 20
8.4567
 30
0.0
 11
1.60765
 21
8.22571
 31
0.0
  0
LINE
  5
140
  8
0
 10
1.60765
 20
8.22571
 30
0.0
 11
1.54805
 21
7.98772
 31
0.0
  0
LINE
  5
141
  8
0
 10
1.54805
 20
7.98772
 30
0.0
 11
1.51204
 21
7.74504
 31
0.0
  0
LINE
  5
142
  8
0
 10
1.51204
 20
7.74504
 30
0.0
 11
1.5
 21
7.5
 31
0.0
  0
LINE
  5
143
  8
0
 10
1.5
 20
7.5
 30
0.0
 11
1.51204
 21
7.25496
 31
0.0
  0
LINE
  5
144
  8
0
 10
1.51204
 20
7.25496
 30
0.0
 11
1.54805
 21
7.01228
 31
0.0
  0
LINE
  5
145
  8
0
 10
1.54805
 20
7.01228
 30
0.0
 11
1.60765
 21
6.77429
 31
0.0
  0
LINE
  5
146
  8
0
 10
1.60765
 20
6.77429
 30
0.0
 11
1.69031
 21
6.5433
 31
0.0
  0
LINE
  5
147
  8
0
 10
1.69031
 20
6.5433
 30
0.0
 11
1.79521
 21
6.32152
 31
0.0
  0
LINE
  5
148
  8
0
 10
1.79521
 20
6.32152
 30
0.0
 11
1.92134
 21
6.11108
 31
0.0
  0
LINE
  5
149
  8
0
 10
1.92134
 20
6.11108
 30
0.0
 11
2.06747
 21
5.91403
 31
0.0
  0
LINE
  5
14A
  8
0
 10
2.06747
 20
5.91403
 30
0.0
 11
2.23224
 21
5.73224
 31
0.0
  0
LINE
  5
14B
  8
0
 10
2.23224
 20
5.73224
 30
0.0
 11
2.41403
 21
5.56747
 31
0.0
  0
LINE
  5
14C
  8
0
 10
2.41403
 20
5.56747
 30
0.0
 11
2.61108
 21
5.42134
 31
0.0
  0
LINE
  5
14D
  8
0
 10
2.61108
 20
5.42134
 30
0.0
 11
2.82152
 21
5.29521
 31
0.0
  0
LINE
  5
14E
  8
0
 10
2.82152
 20
5.29521
 30
0.0
 11
3.0433
 21
5.19031
 31
0.0
  0
LINE
  5
14F
  8
0
 10
3.0433
 20
5.19031
 30
0.0
 11
3.27429
 21
5.10765
 31
0.0
  0
LINE
  5
150
  8
0
 10
3.27429
 20
5.10765
 30
0.0
 11
3.51228
 21
5.04805
 31
0.0
  0
LINE
  5
151
  8
0
 10
3.51228
 20
5.04805
 30
0.0
 11
3.75496
 21
5.01204
 31
0.0
  0
LINE
  5
152
  8
0
 10
3.75496
 20
5.01204
 30
0.0
 11
4.0
 21
5.0
 31
0.0
  0
LINE
  5
153
  8
0
 10
4.0
 20
5.0
 30
0.0
 11
4.24506
 21
5.01204
 31
0.0
  0
LINE
  5
154
  8
0
 10
4.24506
 20
5.01204
 30
0.0
 11
4.48773
 21
5.04805
 31
0.0
  0
LINE
  5
155
  8
0
 10
4.48773
 20
5.04805
 30
0.0
 11
4.72572
 21
5.10765
 31
0.0
  0
LINE
  5
156
  8
0
 10
4.72572
 20
5.10765
 30
0.0
 11
4.95671
 21
5.19031
 31
0.0
  0
LINE
  5
157
  8
0
 10
4.95671
 20
5.19031
 30
0.0
 11
5.1785
 21
5.29521
 31
0.0
  0
LINE
  5
158
  8
0
 10
5.1785
 20
5.29521
 30
0.0
 11
5.38893
 21
5.42134
 31
0.0
  0
LINE
  5
159
  8
0
 10
5.38893
 20
5.42134
 30
0.0
 11
5.58598
 21
5.56747
 31
0.0
  0
LINE
  5
15A
  8
0
 10
5.58598
 20
5.56747
 30
0.0
 11
5.76778
 21
5.73224
 31
0.0
  0
LINE
  5
15B
  8
0
 10
5.76778
 20
5.73224
 30
0.0
 11
5.93254
 21
5.91403
 31
0.0
  0
LINE
  5
15C
  8
0
 10
5.93254
 20
5.91403
 30
0.0
 11
6.0
 21
6.005
 31
0.0
  0
LINE
  5
15D
  8
0
 10
6.0
 20
6.005
 30
0.0
 11
6.06746
 21
5.91403
 31
0.0
  0
LINE
  5
15E
  8
0
 10
6.06746
 20
5.91403
 30
0.0
 11
6.23222
 21
5.73224
 31
0.0
  0
LINE
  5
15F
  8
0
 10
6.23222
 20
5.73224
 30
0.0
 11
6.41402
 21
5.56747
 31
0.0
  0
LINE
  5
160
  8
0
 10
6.41402
 20
5.56747
 30
0.0
 11
6.61107
 21
5.42134
 31
0.0
  0
LINE
  5
161
  8
0
 10
6.61107
 20
5.42134
 30
0.0
 11
6.8215
 21
5.29521
 31
0.0
  0
LINE
  5
162
  8
0
 10
6.8215
 20
5.29521
 30
0.0
 11
7.04329
 21
5.19031
 31
0.0
  0
LINE
  5
163
  8
0
 10
7.04329
 20
5.19031
 30
0.0
 11
7.27428
 21
5.10765
 31
0.0
  0
LINE
  5
164
  8
0
 10
7.27428
 20
5.10765
 30
0.0
 11
7.51227
 21
5.04805
 31
0.0
  0
LINE
  5
165
  8
0
 10
7.51227
 20
5.04805
 30
0.0
 11
7.75494
 21
5.01204
 31
0.0
  0
LINE
  5
166
  8
0
 10
7.75494
 20
5.01204
 30
0.0
 11
8.0
 21
5.0
 31
0.0
  0
LINE
  5
167
  8
0
 10
8.0
 20
5.0
 30
0.0
 11
8.24504
 21
5.01204
 31
0.0
  0
LINE
  5
168
  8
0
 10
8.24504
 20
0.0120392
 30
0.0
 11
8.48772
 21
0.0480499
 31
0.0
  0
LINE
  5
169
  8
0
 10
8.48772
 20
0.0480499
 30
0.0
 11
8.72571
 21
0.107651
 31
0.0
  0
LINE
  5
16A
  8
0
 10
8.72571
 20
0.107651
 30
0.0
 11
8.9567
 21
0.190308
 31
0.0
  0
LINE
  5
16B
  8
0
 10
8.9567
 20
0.190308
 30
0.0
 11
9.17848
 21
0.295212
 31
0.0
  0
LINE
  5
16C
  8
0
 10
9.17848
 20
0.295212
 30
0.0
 11
9.38892
 21
0.421341
 31
0.0
  0
LINE
  5
16D
  8
0
 10
9.38892
 20
0.421341
 30
0.0
 11
9.58597
 21
0.567474
 31
0.0
  0
LINE
  5
16E
  8
0
 10
9.58597
 20
0.567474
 30
0.0
 11
9.76776
 21
0.732239
 31
0.0
  0
LINE
  5
16F
  8
0
 10
9.76776
 20
0.732239
 30
0.0
 11
9.93253
 21
0.914032
 31
0.0
  0
LINE
  5
170
  8
0
 10
9.93253
 20
0.914032
 30
0.0
 11
10.0787
 21
1.11108
 31
0.0
  0
LINE
  5
171
  8
0
 10
10.0787
 20
1.11108
 30
0.0
 11
10.2048
 21
1.32152
 31
0.0
  0
LINE
  5
172
  8
0
 10
10.2048
 20
1.32152
 30
0.0
 11
10.3097
 21
1.5433
 31
0.0
  0
LINE
  5
173
  8
0
 10
10.3097
 20
1.5433
 30
0.0
 11
10.3923
 21
1.77429
 31
0.0
  0
LINE
  5
174
  8
0
 10
10.3923
 20
1.77429
 30
0.0
 11
10.452
 21
2.01228
 31
0.0
  0
LINE
  5
175
  8
0
 10
10.452
 20
2.01228
 30
0.0
 11
10.488
 21
2.25496
 31
0.0
  0
LINE
  5
176
  8
0
 10
10.488
 20
2.25496
 30
0.0
 11
10.5
 21
2.5
 31
0.0
  0
LINE
  5
177
  8
0
 10
10.5
 20
2.5
 30
0.0
 11
10.488
 21
2.74504
 31
0.0
  0
LINE
  5
178
  8
0
 10
10.488
 20
2.74504
 30
0.0
 11
10.452
 21
2.98772
 31
0.0
  0
LINE
  5
179
  8
0
 10
10.452
 20
2.98772
 30
0.0
 11
10.3923
 21
3.22571
 31
0.0
  0
LINE
  5
17A
  8
0
 10
10.3923
 20
3.22571
 30
0.0
 11
10.3097
 21
3.4567
 31
0.0
  0
LINE
  5
17B
  8
0
 10
10.3097
 20
3.4567
 30
0.0
 11
10.2048
 21
3.67848
 31
0.0
  0
LINE
  5
17C
  8
0
 10
10.2048
 20
3.67848
 30
0.0
 11
10.0787
 21
3.88892
 31
0.0
  0
LINE
  5
17D
  8
0
 10
10.0787
 20
3.88892
 30
0.0
 11
9.93253
 21
4.08597
 31
0.0
  0
LINE
  5
17E
  8
0
 10
9.93253
 20
4.08597
 30
0.0
 11
9.76776
 21
4.26776
 31
0.0
  0
LINE
  5
17F
  8
0
 10
9.76776
 20
4.26776
 30
0.0
 11
9.58597
 21
4.43253
 31
0.0
  0
LINE
  5
180
  8
0
 10
9.58597
 20
4.43253
 30
0.0
 11
9.38892
 21
4.57866
 31
0.0
  0
LINE
  5
181
  8
0
 10
9.38892
 20
4.57866
 30
0.0
 11
9.17848
 21
4.70479
 31
0.0
  0
LINE
  5
182
  8
0
 10
9.17848
 20
4.70479
 30
0.0
 11
8.9567
 21
4.80969
 31
0.0
  0
LINE
  5
183
  8
0
 10
8.9567
 20
4.80969
 30
0.0
 11
8.72571
 21
4.89235
 31
0.0
  0
LINE
  5
184
  8
0
 10
8.72571
 20
4.89235
 30
0.0
 11
8.48772
 21
4.95195
 31
0.0
  0
LINE
  5
185
  8
0
 10
8.48772
 20
4.95195
 30
0.0
 11
8.24504
 21
4.98796
 31
0.0
  0
LINE
  5
186
  8
0
 10
8.24504
 20
4.98796
 30
0.0
 11
8.0
 21
5.0
 31
0.0
  0
LINE
  5
187
  8
0
 10
8.0
 20
5.0
 30
0.0
 11
7.75494
 21
4.98796
 31
0.0
  0
LINE
  5
188
  8
0
 10
7.75494
 20
4.98796
 30
0.0
 11
7.51227
 21
4.95195
 31
0.0
  0
LINE
  5
189
  8
0
 10
7.51227
 20
4.95195
 30
0.0
 11
7.27428
 21
4.89235
 31
0.0
  0
LINE
  5
18A
  8
0
 10
7.27428
 20
4.89235
 30
0.0
 11
7.04329
 21
4.80969
 31
0.0
  0
LINE
  5
18B
  8
0
 10
7.04329
 20
4.80969
 30
0.0
 11
6.8215
 21
4.70479
 31
0.0
  0
LINE
  5
18C
  8
0
 10
6.8215
 20
4.70479
 30
0.0
 11
6.61107
 21
4.57866
 31
0.0
  0
LINE
  5
18D
  8
0
 10
6.61107
 20
4.57866
 30
0.0
 11
6.41402
 21
4.43253
 31
0.0
  0
LINE
  5
18E
  8
0
 10
6.41402
 20
4.43253
 30
0.0
 11
6.23222
 21
4.26776
 31
0.0
  0
LINE
  5
18F
  8
0
 10
6.23222
 20
4.26776
 30
0.0
 11
6.06746
 21
4.08597
 31
0.0
  0
LINE
  5
190
  8
0
 10
6.06746
 20
4.08597
 30
0.0
 11
6.0
 21
3.995
 31
0.0
  0
LINE
  5
191
  8
0
 10
6.0
 20
3.995
 30
0.0
 11
5.93254
 21
4.08597
 31
0.0
  0
LINE
  5
192
  8
0
 10
5.93254
 20
4.08597
 30
0.0
 11
5.76778
 21
4.26776
 31
0.0
  0
LINE
  5
193
  8
0
 10
5.76778
 20
4.26776
 30
0.0
 11
5.58598
 21
4.43253
 31
0.0
  0
LINE
  5
194
  8
0
 10
5.58598
 20
4.43253
 30
0.0
 11
5.38893
 21
4.57866
 31
0.0
  0
LINE
  5
195
  8
0
 10
5.38893
 20
4.57866
 30
0.0
 11
5.1785
 21
4.70479
 31
0.0
  0
LINE
  5
196
  8
0
 10
5.1785
 20
4.70479
 30
0.0
 11
4.95671
 21
4.80969
 31
0.0
  0
LINE
  5
197
  8
0
 10
4.95671
 20
4.80969
 30
0.0
 11
4.72572
 21
4.89235
 31
0.0
  0
LINE
  5
198
  8
0
 10
4.72572
 20
4.89235
 30
0.0
 11
4.48773
 21
4.95195
 31
0.0
  0
LINE
  5
199
  8
0
 10
4.48773
 20
4.95195
 30
0.0
 11
4.24506
 21
4.98796
 31
0.0
  0
LINE
  5
19A
  8
0
 10
4.24506
 20
4.98796
 30
0.0
 11
4.0
 21
5.0
 31
0.0
  0
LINE
  5
19B
  8
0
 10
4.0
 20
5.0
 30
0.0
 11
3.75496
 21
4.98796
 31
0.0
  0
LINE
  5
19C
  8
0
 10
3.75496
 20
4.98796
 30
0.0
 11
3.51228
 21
4.95195
 31
0.0
  0
LINE
  5
19D
  8
0
 10
3.51228
 20
4.95195
 30
0.0
 11
3.27429
 21
4.89235
 31
0.0
  0
LINE
  5
19E
  8
0
 10
3.27429
 20
4.89235
 30
0.0
 11
3.0433
 21
4.80969
 31
0.0
  0
LINE
  5
19F
  8
0
 10
3.0433
 20
4.80969
 30
0.0
 11
2.82152
 21
4.70479
 31
0.0
  0
LINE
  5
1A0
  8
0
 10
2.82152
 20
4.70479
 30
0.0
 11
2.61108
 21
4.57866
 31
0.0
  0
LINE
  5
1A1
  8
0
 10
2.61108
 20
4.57866
 30
0.0
 11
2.41403
 21
4.43253
 31
0.0
  0
LINE
  5
1A2
  8
0
 10
2.41403
 20
4.43253
 30
0.0
 11
2.23224
 21
4.26776
 31
0.0
  0
LINE
  5
1A3
  8
0
 10
2.23224
 20
4.26776
 30
0.0
 11
2.06747
 21
4.08597
 31
0.0
  0
LINE
  5
1A4
  8
0
 10
2.06747
 20
4.08597
 30
0.0
 11
1.92134
 21
3.88892
 31
0.0
  0
LINE
  5
1A5
  8
0
 10
1.92134
 20
3.88892
 30
0.0
 11
1.79521
 21
3.67848
 31
0.0
  0
LINE
  5
1A6
  8
0
 10
1.79521
 20
3.67848
 30
0.0
 11
1.69031
 21
3.4567
 31
0.0
  0
LINE
  5
1A7
  8
0
 10
1.69031
 20
3.4567
 30
0.0
 11
1.60765
 21
3.22571
 31
0.0
  0
LINE
  5
1A8
  8
0
 10
1.60765
 20
3.22571
 30
0.0
 11
1.54805
 21
2.98772
 31
0.0
  0
LINE
  5
1A9
  8
0
 10
1.54805
 20
2.98772
 30
0.0
 11
1.51204
 21
2.74504
 31
0.0
  0
LINE
  5
1AA
  8
0
 10
1.51204
 20
2.74504
 30
0.0
 11
1.5
 21
2.5
 31
0.0
  0
LINE
  5
1AB
  8
0
 10
1.5
 20
2.5
 30
0.0
 11
1.51204
 21
2.25496
 31
0.0
  0
LINE
  5
1AC
  8
0
 10
1.51204
 20
2.25496
 30
0.0
 11
1.54805
 21
2.01228
 31
0.0
  0
LINE
  5
1AD
  8
0
 10
1.54805
 20
2.01228
 30
0.0
 11
1.60765
 21
1.77429
 31
0.0
  0
LINE
  5
1AE
  8
0
 10
1.60765
 20
1.77429
 30
0.0
 11
1.69031
 21
1.5433
 31
0.0
  0
LINE
  5
1AF
  8
0
 10
1.69031
 20
1.5433
 30
0.0
 11
1.79521
 21
1.32152
 31
0.0
  0
LINE
  5
1B0
  8
0
 10
1.79521
 20
1.32152
 30
0.0
 11
1.92134
 21
1.11108
 31
0.0
  0
LINE
  5
1B1
  8
0
 10
1.92134
 20
1.11108
 30
0.0
 11
2.06747
 21
0.914032
 31
0.0
  0
LINE
  5
1B2
  8
0
 10
2.06747
 20
0.914032
 30
0.0
 11
2.23224
 21
0.732239
 31
0.0
  0
LINE
  5
1B3
  8
0
 10
2.23224
 20
0.732239
 30
0.0
 11
2.41403
 21
0.567474
 31
0.0
  0
LINE
  5
1B4
  8
0
 10
2.41403
 20
0.567474
 30
0.0
 11
2.61108
 21
0.421341
 31
0.0
  0
LINE
  5
1B5
  8
0
 10
2.61108
 20
0.421341
 30
0.0
 11
2.82152
 21
0.295212
 31
0.0
  0
LINE
  5
1B6
  8
0
 10
2.82152
 20
0.295212
 30
0.0
 11
3.0433
 21
0.190308
 31
0.0
  0
LINE
  5
1B7
  8
0
 10
3.0433
 20
0.190308
 30
0.0
 11
3.27429
 21
0.107651
 31
0.0
  0
LINE
  5
1B8
  8
0
 10
3.27429
 20
0.107651
 30
0.0
 11
3.51228
 21
0.0480499
 31
0.0
  0
LINE
  5
1B9
  8
0
 10
3.51228
 20
0.0480499
 30
0.0
 11
3.75496
 21
0.0120392
 31
0.0
  0
LINE
  5
1BA
  8
0
 10
3.75496
 20
0.0120392
 30
0.0
 11
4.0
 21
0.0
 31
0.0
  0
LINE
  5
1BB
  8
0
 10
4.0
 20
0.0
 30
0.0
 11
4.24506
 21
0.0120392
 31
0.0
  0
LINE
  5
1BC
  8
0
 10
4.24506
 20
0.0120392
 30
0.0
 11
4.48773
 21
0.0480499
 31
0.0
  0
LINE
  5
1BD
  8
0
 10
4.48773
 20
0.0480499
 30
0.0
 11
4.72572
 21
0.107651
 31
0.0
  0
LINE
  5
1BE
  8
0
 10
4.72572
 20
0.107651
 30
0.0
 11
4.95671
 21
0.190308
 31
0.0
  0
LINE
  5
1BF
  8
0
 10
4.95671
 20
0.190308
 30
0.0
 11
5.1785
 21
0.295212
 31
0.0
  0
LINE
  5
1C0
  8
0
 10
5.1785
 20
0.295212
 30
0.0
 11
5.38893
 21
0.421341
 31
0.0
  0
LINE
  5
1C1
  8
0
 10
5.38893
 20
0.421341
 30
0.0
 11
5.58598
 21
0.567474
 31
0.0
  0
LINE
  5
1C2
  8
0
 10
5.58598
 20
0.567474
 30
0.0
 11
5.76778
 21
0.732239
 31
0.0
  0
LINE
  5
1C3
  8
0
 10
5.76778
 20
0.732239
 30
0.0
 11
5.93254
 21
0.914032
 31
0.0
  0
LINE
  5
1C4
  8
0
 10
5.93254
 20
0.914032
 30
0.0
 11
6.0
 21
1.005
 31
0.0
  0
LINE
  5
1C5
  8
0
 10
6.0
 20
1.005
 30
0.0
 11
6.06746
 21
0.914032
 31
0.0
  0
LINE
  5
1C6
  8
0
 10
6.06746
 20
0.914032
 30
0.0
 11
6.23222
 21
0.732239
 31
0.0
  0
LINE
  5
1C7
  8
0
 10
6.23222
 20
0.732239
 30
0.0
 11
6.41402
 21
0.567474
 31
0.0
  0
LINE
  5
1C8
  8
0
 10
6.41402
 20
0.567474
 30
0.0
 11
6.61107
 21
0.421341
 31
0.0
  0
LINE
  5
1C9
  8
0
 10
6.61107
 20
0.421341
 30
0.0
 11
6.8215
 21
0.295212
 31
0.0
  0
LINE
  5
1CA
  8
0
 10
6.8215
 20
0.295212
 30
0.0
 11
7.04329
 21
0.190308
 31
0.0
  0
LINE
  5
1CB
  8
0
 10
7.04329
 20
0.190308
 30
0.0
 11
7.27428
 21
0.107651
 31
0.0
  0
LINE
  5
1CC
  8
0
 10
7.27428
 20
0.107651
 30
0.0
 11
7.51227
 21
0.0480499
 31
0.0
  0
LINE
  5
1CD
  8
0
 10
7.51227
 20
0.0480499
 30
0.0
 11
7.75494
 21
0.0120392
 31
0.0
  0
LINE
  5
1CE
  8
0
 10
7.75494
 20
0.0120392
 30
0.0
 11
8.0
 21
0.0
 31
0.0
  0
LINE
  5
1CF
  8
0
 10
8.0
 20
0.0
 30
0.0
 11
8.24504
 21
0.0120392
 31
0.0
  0
ENDSEC
  0
EOF
