  0
SECTION
  2
HEADER
  9
$ACADVER
  1
AC1009
  9
$DWGCODEPAGE
  3
ANSI_1252
  9
$INSBASE
 10
0.0
 20
0.0
 30
0.0
  9
$EXTMIN
 10
1e+20
 20
1e+20
 30
1e+20
  9
$EXTMAX
 10
-1e+20
 20
-1e+20
 30
-1e+20
  9
$LIMMIN
 10
0.0
 20
0.0
  9
$LIMMAX
 10
420.0
 20
297.0
  9
$ORTHOMODE
 70
0
  9
$REGENMODE
 70
1
  9
$FILLMODE
 70
1
  9
$DRAGMODE
 70
2
  9
$QTEXTMODE
 70
0
  9
$MIRRTEXT
 70
1
  9
$OSMODE
 70
20583
  9
$LTSCALE
 40
1.0
  9
$ATTMODE
 70
1
  9
$TEXTSIZE
 40
2.5
  9
$TRACEWID
 40
1.0
  9
$TEXTSTYLE
  7
Standard
  9
$CLAYER
  8
0
  9
$CELTYPE
  6
ByLayer
  9
$CECOLOR
 62
256
  9
$DIMSCALE
 40
1.0
  9
$DIMASZ
 40
2.5
  9
$DIMEXO
 40
0.625
  9
$DIMDLI
 40
3.75
  9
$DIMRND
 40
0.0
  9
$DIMDLE
 40
0.0
  9
$DIMEXE
 40
1.25
  9
$DIMTP
 40
0.0
  9
$DIMTM
 40
0.0
  9
$DIMTXT
 40
2.5
  9
$DIMCEN
 40
2.5
  9
$DIMTSZ
 40
0.0
  9
$DIMTOL
 70
0
  9
$DIMLIM
 70
0
  9
$DIMTIH
 70
0
  9
$DIMTOH
 70
0
  9
$DIMSE1
 70
0
  9
$DIMSE2
 70
0
  9
$DIMTAD
 70
1
  9
$DIMZIN
 70
8
  9
$DIMBLK
  1

  9
$DIMASO
 70
1
  9
$DIMSHO
 70
1
  9
$DIMPOST
  1

  9
$DIMAPOST
  1

  9
$DIMALT
 70
0
  9
$DIMALTD
 70
3
  9
$DIMALTF
 40
0.03937007874
  9
$DIMLFAC
 40
1.0
  9
$DIMTOFL
 70
1
  9
$DIMTVP
 40
0.0
  9
$DIMTIX
 70
0
  9
$DIMSOXD
 70
0
  9
$DIMSAH
 70
0
  9
$DIMBLK1
  1

  9
$DIMBLK2
  1

  9
$DIMSTYLE
  2
ISO-25
  9
$DIMCLRD
 70
0
  9
$DIMCLRE
 70
0
  9
$DIMCLRT
 70
0
  9
$DIMTFAC
 40
1.0
  9
$DIMGAP
 40
0.625
  9
$COORDS
 70
1
  9
$ATTDIA
 70
0
  9
$ATTREQ
 70
1
  9
$HANDLING
 70
1
  9
$LUNITS
 70
2
  9
$LUPREC
 70
4
  9
$SKETCHINC
 40
1.0
  9
$FILLETRAD
 40
10.0
  9
$AUNITS
 70
0
  9
$AUPREC
 70
2
  9
$MENU
  1
.
  9
$ELEVATION
 40
0.0
  9
$PELEVATION
 40
0.0
  9
$THICKNESS
 40
0.0
  9
$LIMCHECK
 70
0
  9
$CHAMFERA
 40
0.0
  9
$CHAMFERB
 40
0.0
  9
$SKPOLY
 70
0
  9
$TDCREATE
 40
2459865.8703819443
  9
$TDUPDATE
 40
2459865.8703819443
  9
$TDINDWG
 40
0.0
  9
$TDUSRTIMER
 40
0.0
  9
$USRTIMER
 70
1
  9
$ANGBASE
 50
0.0
  9
$ANGDIR
 70
0
  9
$PDMODE
 70
0
  9
$PDSIZE
 40
0.0
  9
$PLINEWID
 40
0.0
  9
$SPLFRAME
 70
0
  9
$SPLINETYPE
 70
6
  9
$SPLINESEGS
 70
8
  9
$HANDSEED
  5
3AB
  9
$SURFTAB1
 70
6
  9
$SURFTAB2
 70
6
  9
$SURFTYPE
 70
6
  9
$SURFU
 70
6
  9
$SURFV
 70
6
  9
$UCSNAME
  2

  9
$UCSORG
 10
0.0
 20
0.0
 30
0.0
  9
$UCSXDIR
 10
1.0
 20
0.0
 30
0.0
  9
$UCSYDIR
 10
0.0
 20
1.0
 30
0.0
  9
$PUCSNAME
  2

  9
$PUCSORG
 10
0.0
 20
0.0
 30
0.0
  9
$PUCSXDIR
 10
1.0
 20
0.0
 30
0.0
  9
$PUCSYDIR
 10
0.0
 20
1.0
 30
0.0
  9
$USERI1
 70
0
  9
$USERI2
 70
0
  9
$USERI3
 70
0
  9
$USERI4
 70
0
  9
$USERI5
 70
0
  9
$USERR1
 40
0.0
  9
$USERR2
 40
0.0
  9
$USERR3
 40
0.0
  9
$USERR4
 40
0.0
  9
$USERR5
 40
0.0
  9
$WORLDVIEW
 70
1
  9
$SHADEDGE
 70
3
  9
$SHADEDIF
 70
70
  9
$TILEMODE
 70
1
  9
$MAXACTVP
 70
64
  9
$PLIMCHECK
 70
0
  9
$PEXTMIN
 10
1e+20
 20
1e+20
 30
1e+20
  9
$PEXTMAX
 10
-1e+20
 20
-1e+20
 30
-1e+20
  9
$PLIMMIN
 10
0.0
 20
0.0
  9
$PLIMMAX
 10
420.0
 20
297.0
  9
$UNITMODE
 70
0
  9
$VISRETAIN
 70
1
  9
$PLINEGEN
 70
0
  9
$PSLTSCALE
 70
1
  0
ENDSEC
  0
SECTION
  2
TABLES
  0
TABLE
  2
VPORT
 70
1
  0
VPORT
  5
39F
  2
*Active
 70
0
 10
0.0
 20
0.0
 11
1.0
 21
1.0
 12
0.0
 22
0.0
 13
0.0
 23
0.0
 14
0.5
 24
0.5
 15
0.5
 25
0.5
 16
0.0
 26
0.0
 36
1.0
 17
0.0
 27
0.0
 37
0.0
 40
1000.0
 41
1.34
 42
50.0
 43
0.0
 44
0.0
 50
0.0
 51
0.0
 71
0
 72
1000
 73
1
 74
3
 75
0
 76
0
 77
0
 78
0
  0
ENDTAB
  0
TABLE
  2
LTYPE
 70
3
  0
LTYPE
  5
3A0
  2
ByBlock
 70
0
  3

 72
65
 73
0
 40
0.0
  0
LTYPE
  5
3A1
  2
ByLayer
 70
0
  3

 72
65
 73
0
 40
0.0
  0
LTYPE
  5
3A2
  2
Continuous
 70
0
  3

 72
65
 73
0
 40
0.0
  0
ENDTAB
  0
TABLE
  2
LAYER
 70
2
  0
LAYER
  5
3A3
  2
0
 70
0
 62
7
  6
Continuous
  0
LAYER
  5
3A4
  2
Defpoints
 70
0
 62
7
  6
Continuous
  0
ENDTAB
  0
TABLE
  2
STYLE
 70
1
  0
STYLE
  5
3A5
  2
Standard
 70
0
 40
0.0
 41
1.0
 50
0.0
 71
0
 42
2.5
  3
txt
  4

  0
ENDTAB
  0
TABLE
  2
VIEW
 70
0
  0
ENDTAB
  0
TABLE
  2
UCS
 70
0
  0
ENDTAB
  0
TABLE
  2
APPID
 70
3
  0
APPID
  5
3A6
  2
ACAD
 70
0
  0
APPID
  5
3A9
  2
HATCHBACKGROUNDCOLOR
 70
0
  0
APPID
  5
3AA
  2
EZDXF
 70
0
  0
ENDTAB
  0
TABLE
  2
DIMSTYLE
 70
1
  0
DIMSTYLE
105
3A7
  2
Standard
 70
0
  3

  4

  5

  6

  7

 40
1.0
 41
2.5
 42
0.625
 43
3.75
 44
1.25
 45
0.0
 46
0.0
 47
0.0
 48
0.0
140
2.5
141
2.5
142
0.0
143
0.03937007874
144
1.0
145
0.0
146
1.0
147
0.625
 71
0
 72
0
 73
0
 74
0
 75
0
 76
0
 77
1
 78
8
170
0
171
3
172
1
173
0
174
0
175
0
176
0
177
0
178
0
  0
ENDTAB
  0
ENDSEC
  0
SECTION
  2
BLOCKS
  0
BLOCK
  5
380
  8
0
  2
$Model_Space
 70
0
 10
0.0
 20
0.0
 30
0.0
  3
$Model_Space
  1

1001
EZDXF
1000
WRITTEN_BY_EZDXF
1000
0.17.2 @ 2022-10-13T00:53:21.970569+00:00
  0
ENDBLK
  5
381
  8
0
  0
BLOCK
  5
382
  8
0
  2
$Paper_Space
 70
0
 10
0.0
 20
0.0
 30
0.0
  3
$Paper_Space
  1

  0
ENDBLK
  5
383
  8
0
  0
ENDSEC
  0
SECTION
  2
ENTITIES
  0
LINE
  5
100
  8
0
 10
8.69603
 20
1.50964
 30
0.0
 11
8.89017
 21
1.53844
 31
0.0
  0
LINE
  5
101
  8
0
 10
8.89017
 20
1.53844
 30
0.0
 11
9.08057
 21
1.58612
 31
0.0
  0
LINE
  5
102
  8
0
 10
9.08057
 20
1.58612
 30
0.0
 11
9.26537
 21
1.65225
 31
0.0
  0
LINE
  5
103
  8
0
 10
9.26537
 20
1.65225
 30
0.0
 11
9.44278
 21
1.73616
 31
0.0
  0
LINE
  5
104
  8
0
 10
9.44278
 20
1.73616
 30
0.0
 11
9.61113
 21
1.83707
 31
0.0
  0
LINE
  5
105
  8
0
 10
9.61113
 20
1.83707
 30
0.0
 11
9.76878
 21
1.95398
 31
0.0
  0
LINE
  5
106
  8
0
 10
9.76878
 20
1.95398
 30
0.0
 11
9.9142
 21
2.0858
 31
0.0
  0
LINE
  5
107
  8
0
 10
9.9142
 20
2.0858
 30
0.0
 11
10.046
 21
2.23122
 31
0.0
  0
LINE
  5
108
  8
0
 10
10.046
 20
2.23122
 30
0.0
 11
10.1629
 21
2.38887
 31
0.0
  0
LINE
  5
109
  8
0
 10
10.1629
 20
2.38887
 30
0.0
 11
10.2638
 21
2.55722
 31
0.0
  0
LINE
  5
10A
  8
0
 10
10.2638
 20
2.55722
 30
0.0
 11
10.3477
 21
2.73463
 31
0.0
  0
LINE
  5
10B
  8
0
 10
10.3477
 20
2.73463
 30
0.0
 11
10.4139
 21
2.91943
 31
0.0
  0
LINE
  5
10C
  8
0
 10
10.4139
 20
2.91943
 30
0.0
 11
10.4616
 21
3.10983
 31
0.0
  0
LINE
  5
10D
  8
0
 10
10.4616
 20
3.10983
 30
0.0
 11
10.4904
 21
3.30397
 31
0.0
  0
LINE
  5
10E
  8
0
 10
10.4904
 20
3.30397
 30
0.0
 11
10.5
 21
3.5
 31
0.0
  0
LINE
  5
10F
  8
0
 10
10.5
 20
3.5
 30
0.0
 11
10.4904
 21
3.69604
 31
0.0
  0
LINE
  5
110
  8
0
 10
10.4904
 20
3.69604
 30
0.0
 11
10.4616
 21
3.89018
 31
0.0
  0
LINE
  5
111
  8
0
 10
10.4616
 20
3.89018
 30
0.0
 11
10.4139
 21
4.08058
 31
0.0
  0
LINE
  5
112
  8
0
 10
10.4139
 20
4.08058
 30
0.0
 11
10.3477
 21
4.26538
 31
0.0
  0
LINE
  5
113
  8
0
 10
10.3477
 20
4.26538
 30
0.0
 11
10.2638
 21
4.44279
 31
0.0
  0
LINE
  5
114
  8
0
 10
10.2638
 20
4.44279
 30
0.0
 11
10.1629
 21
4.61115
 31
0.0
  0
LINE
  5
115
  8
0
 10
10.1629
 20
4.61115
 30
0.0
 11
10.046
 21
4.7688
 31
0.0
  0
LINE
  5
116
  8
0
 10
10.046
 20
4.7688
 30
0.0
 11
9.9142
 21
4.91422
 31
0.0
  0
LINE
  5
117
  8
0
 10
9.9142
 20
4.91422
 30
0.0
 11
9.76878
 21
5.04604
 31
0.0
  0
LINE
  5
118
  8
0
 10
9.76878
 20
5.04604
 30
0.0
 11
9.61113
 21
5.16295
 31
0.0
  0
LINE
  5
119
  8
0
 10
9.61113
 20
5.16295
 30
0.0
 11
9.44278
 21
5.26385
 31
0.0
  0
LINE
  5
11A
  8
0
 10
9.44278
 20
5.26385
 30
0.0
 11
9.26537
 21
5.34776
 31
0.0
  0
LINE
  5
11B
  8
0
 10
9.26537
 20
5.34776
 30
0.0
 11
9.08057
 21
5.41389
 31
0.0
  0
LINE
  5
11C
  8
0
 10
9.08057
 20
5.41389
 30
0.0
 11
8.89017
 21
5.46158
 31
0.0
  0
LINE
  5
11D
  8
0
 10
8.89017
 20
5.46158
 30
0.0
 11
8.69603
 21
5.49037
 31
0.0
  0
LINE
  5
11E
  8
0
 10
8.69603
 20
5.49037
 30
0.0
 11
8.5
 21
5.5
 31
0.0
  0
LINE
  5
11F
  8
0
 10
8.5
 20
5.5
 30
0.0
 11
8.30396
 21
5.49037
 31
0.0
  0
LINE
  5
120
  8
0
 10
8.30396
 20
5.49037
 30
0.0
 11
8.10982
 21
5.46158
 31
0.0
  0
LINE
  5
121
  8
0
 10
8.10982
 20
5.46158
 30
0.0
 11
7.91942
 21
5.41389
 31
0.0
  0
LINE
  5
122
  8
0
 10
7.91942
 20
5.41389
 30
0.0
 11
7.73462
 21
5.34776
 31
0.0
  0
LINE
  5
123
  8
0
 10
7.73462
 20
5.34776
 30
0.0
 11
7.55721
 21
5.26385
 31
0.0
  0
LINE
  5
124
  8
0
 10
7.55721
 20
5.26385
 30
0.0
 11
7.5
 21
5.22957
 31
0.0
  0
LINE
  5
125
  8
0
 10
7.5
 20
5.22957
 30
0.0
 11
7.5
 21
6.77043
 31
0.0
  0
LINE
  5
126
  8
0
 10
7.5
 20
6.77043
 30
0.0
 11
7.55721
 21
6.73615
 31
0.0
  0
LINE
  5
127
  8
0
 10
7.55721
 20
6.73615
 30
0.0
 11
7.73462
 21
6.65224
 31
0.0
  0
LINE
  5
128
  8
0
 10
7.73462
 20
6.65224
 30
0.0
 11
7.91942
 21
6.58611
 31
0.0
  0
LINE
  5
129
  8
0
 10
7.91942
 20
6.58611
 30
0.0
 11
8.10982
 21
6.53842
 31
0.0
  0
LINE
  5
12A
  8
0
 10
8.10982
 20
6.53842
 30
0.0
 11
8.30396
 21
6.50963
 31
0.0
  0
LINE
  5
12B
  8
0
 10
8.30396
 20
6.50963
 30
0.0
 11
8.5
 21
6.5
 31
0.0
  0
LINE
  5
12C
  8
0
 10
8.5
 20
6.5
 30
0.0
 11
8.69603
 21
6.50963
 31
0.0
  0
LINE
  5
12D
  8
0
 10
8.69603
 20
6.50963
 30
0.0
 11
8.89017
 21
6.53842
 31
0.0
  0
LINE
  5
12E
  8
0
 10
8.89017
 20
6.53842
 30
0.0
 11
9.08057
 21
6.58611
 31
0.0
  0
LINE
  5
12F
  8
0
 10
9.08057
 20
6.58611
 30
0.0
 11
9.26537
 21
6.65224
 31
0.0
  0
LINE
  5
130
  8
0
 10
9.26537
 20
6.65224
 30
0.0
 11
9.44278
 21
6.73615
 31
0.0
  0
LINE
  5
131
  8
0
 10
9.44278
 20
6.73615
 30
0.0
 11
9.61113
 21
6.83705
 31
0.0
  0
LINE
  5
132
  8
0
 10
9.61113
 20
6.83705
 30
0.0
 11
9.76878
 21
6.95396
 31
0.0
  0
LINE
  5
133
  8
0
 10
9.76878
 20
6.95396
 30
0.0
 11
9.9142
 21
7.08578
 31
0.0
  0
LINE
  5
134
  8
0
 10
9.9142
 20
7.08578
 30
0.0
 11
10.046
 21
7.2312
 31
0.0
  0
LINE
  5
135
  8
0
 10
10.046
 20
7.2312
 30
0.0
 11
10.1629
 21
7.38885
 31
0.0
  0
LINE
  5
136
  8
0
 10
10.1629
 20
7.38885
 30
0.0
 11
10.2638
 21
7.55721
 31
0.0
  0
LINE
  5
137
  8
0
 10
10.2638
 20
7.55721
 30
0.0
 11
10.3477
 21
7.73462
 31
0.0
  0
LINE
  5
138
  8
0
 10
10.3477
 20
7.73462
 30
0.0
 11
10.4139
 21
7.91942
 31
0.0
  0
LINE
  5
139
  8
0
 10
10.4139
 20
7.91942
 30
0.0
 11
10.4616
 21
8.10982
 31
0.0
  0
LINE
  5
13A
  8
0
 10
10.4616
 20
8.10982
 30
0.0
 11
10.4904
 21
8.30396
 31
0.0
  0
LINE
  5
13B
  8
0
 10
10.4904
 20
8.30396
 30
0.0
 11
10.5
 21
8.5
 31
0.0
  0
LINE
  5
13C
  8
0
 10
10.5
 20
8.5
 30
0.0
 11
10.4904
 21
8.69603
 31
0.0
  0
LINE
  5
13D
  8
0
 10
10.4904
 20
8.69603
 30
0.0
 11
10.4616
 21
8.89017
 31
0.0
  0
LINE
  5
13E
  8
0
 10
10.4616
 20
8.89017
 30
0.0
 11
10.4139
 21
9.08057
 31
0.0
  0
LINE
  5
13F
  8
0
 10
10.4139
 20
9.08057
 30
0.0
 11
10.3477
 21
9.26537
 31
0.0
  0
LINE
  5
140
  8
0
 10
10.3477
 20
9.26537
 30
0.0
 11
10.2638
 21
9.44278
 31
0.0
  0
LINE
  5
141
  8
0
 10
10.2638
 20
9.44278
 30
0.0
 11
10.1629
 21
9.61113
 31
0.0
  0
LINE
  5
142
  8
0
 10
10.1629
 20
9.61113
 30
0.0
 11
10.046
 21
9.76878
 31
0.0
  0
LINE
  5
143
  8
0
 10
10.046
 20
9.76878
 30
0.0
 11
9.9142
 21
9.9142
 31
0.0
  0
LINE
  5
144
  8
0
 10
9.9142
 20
9.9142
 30
0.0
 11
9.76878
 21
10.046
 31
0.0
  0
LINE
  5
145
  8
0
 10
9.76878
 20
10.046
 30
0.0
 11
9.61113
 21
10.1629
 31
0.0
  0
LINE
  5
146
  8
0
 10
9.61113
 20
10.1629
 30
0.0
 11
9.44278
 21
10.2638
 31
0.0
  0
LINE
  5
147
  8
0
 10
9.44278
 20
10.2638
 30
0.0
 11
9.26537
 21
10.3477
 31
0.0
  0
LINE
  5
148
  8
0
 10
9.26537
 20
10.3477
 30
0.0
 11
9.08057
 21
10.4139
 31
0.0
  0
LINE
  5
149
  8
0
 10
9.08057
 20
10.4139
 30
0.0
 11
8.89017
 21
10.4616
 31
0.0
  0
LINE
  5
14A
  8
0
 10
8.89017
 20
10.4616
 30
0.0
 11
8.69603
 21
10.4904
 31
0.0
  0
LINE
  5
14B
  8
0
 10
8.69603
 20
10.4904
 30
0.0
 11
8.5
 21
10.5
 31
0.0
  0
LINE
  5
14C
  8
0
 10
8.5
 20
10.5
 30
0.0
 11
8.30396
 21
10.4904
 31
0.0
  0
LINE
  5
14D
  8
0
 10
8.30396
 20
10.4904
 30
0.0
 11
8.10982
 21
10.4616
 31
0.0
  0
LINE
  5
14E
  8
0
 10
8.10982
 20
10.4616
 30
0.0
 11
7.91942
 21
10.4139
 31
0.0
  0
LINE
  5
14F
  8
0
 10
7.91942
 20
10.4139
 30
0.0
 11
7.73462
 21
10.3477
 31
0.0
  0
LINE
  5
150
  8
0
 10
7.73462
 20
10.3477
 30
0.0
 11
7.55721
 21
10.2638
 31
0.0
  0
LINE
  5
151
  8
0
 10
7.55721
 20
10.2638
 30
0.0
 11
7.38885
 21
10.1629
 31
0.0
  0
LINE
  5
152
  8
0
 10
7.38885
 20
10.1629
 30
0.0
 11
7.2312
 21
10.046
 31
0.0
  0
LINE
  5
153
  8
0
 10
7.2312
 20
10.046
 30
0.0
 11
7.08578
 21
9.9142
 31
0.0
  0
LINE
  5
154
  8
0
 10
7.08578
 20
9.9142
 30
0.0
 11
6.95396
 21
9.76878
 31
0.0
  0
LINE
  5
155
  8
0
 10
6.95396
 20
9.76878
 30
0.0
 11
6.83705
 21
9.61113
 31
0.0
  0
LINE
  5
156
  8
0
 10
6.83705
 20
9.61113
 30
0.0
 11
6.73615
 21
9.44278
 31
0.0
  0
LINE
  5
157
  8
0
 10
6.73615
 20
9.44278
 30
0.0
 11
6.65224
 21
9.26537
 31
0.0
  0
LINE
  5
158
  8
0
 10
6.65224
 20
9.26537
 30
0.0
 11
6.58611
 21
9.08057
 31
0.0
  0
LINE
  5
159
  8
0
 10
6.58611
 20
9.08057
 30
0.0
 11
6.53842
 21
8.89017
 31
0.0
  0
LINE
  5
15A
  8
0
 10
6.53842
 20
8.89017
 30
0.0
 11
6.50963
 21
8.69603
 31
0.0
  0
LINE
  5
15B
  8
0
 10
6.50963
 20
8.69603
 30
0.0
 11
6.5
 21
8.5
 31
0.0
  0
LINE
  5
15C
  8
0
 10
6.5
 20
8.5
 30
0.0
 11
6.50963
 21
8.30396
 31
0.0
  0
LINE
  5
15D
  8
0
 10
6.50963
 20
8.30396
 30
0.0
 11
6.53842
 21
8.10982
 31
0.0
  0
LINE
  5
15E
  8
0
 10
6.53842
 20
8.10982
 30
0.0
 11
6.56969
 21
7.98499
 31
0.0
  0
LINE
  5
15F
  8
0
 10
6.56969
 20
7.98499
 30
0.0
 11
6.2
 21
7.98499
 31
0.0
  0
LINE
  5
160
  8
0
 10
6.2
 20
7.98499
 30
0.0
 11
6.2
 21
7.94499
 31
0.0
  0
LINE
  5
161
  8
0
 10
6.2
 20
7.94499
 30
0.0
 11
5.8
 21
7.94499
 31
0.0
  0
LINE
  5
162
  8
0
 10
5.8
 20
7.94499
 30
0.0
 11
5.8
 21
7.98499
 31
0.0
  0
LINE
  5
163
  8
0
 10
5.8
 20
7.98499
 30
0.0
 11
5.43031
 21
7.98499
 31
0.0
  0
LINE
  5
164
  8
0
 10
5.43031
 20
7.98499
 30
0.0
 11
5.46158
 21
8.10982
 31
0.0
  0
LINE
  5
165
  8
0
 10
5.46158
 20
8.10982
 30
0.0
 11
5.49037
 21
8.30396
 31
0.0
  0
LINE
  5
166
  8
0
 10
5.49037
 20
8.30396
 30
0.0
 11
5.5
 21
8.5
 31
0.0
  0
LINE
  5
167
  8
0
 10
5.5
 20
8.5
 30
0.0
 11
5.49037
 21
8.69603
 31
0.0
  0
LINE
  5
168
  8
0
 10
5.49037
 20
8.69603
 30
0.0
 11
5.46158
 21
8.89017
 31
0.0
  0
LINE
  5
169
  8
0
 10
5.46158
 20
8.89017
 30
0.0
 11
5.41389
 21
9.08057
 31
0.0
  0
LINE
  5
16A
  8
0
 10
5.41389
 20
9.08057
 30
0.0
 11
5.34776
 21
9.26537
 31
0.0
  0
LINE
  5
16B
  8
0
 10
5.34776
 20
9.26537
 30
0.0
 11
5.26385
 21
9.44278
 31
0.0
  0
LINE
  5
16C
  8
0
 10
5.26385
 20
9.44278
 30
0.0
 11
5.16295
 21
9.61113
 31
0.0
  0
LINE
  5
16D
  8
0
 10
5.16295
 20
9.61113
 30
0.0
 11
5.04604
 21
9.76878
 31
0.0
  0
LINE
  5
16E
  8
0
 10
5.04604
 20
9.76878
 30
0.0
 11
4.91422
 21
9.9142
 31
0.0
  0
LINE
  5
16F
  8
0
 10
4.91422
 20
9.9142
 30
0.0
 11
4.7688
 21
10.046
 31
0.0
  0
LINE
  5
170
  8
0
 10
4.7688
 20
10.046
 30
0.0
 11
4.61115
 21
10.1629
 31
0.0
  0
LINE
  5
171
  8
0
 10
4.61115
 20
10.1629
 30
0.0
 11
4.44279
 21
10.2638
 31
0.0
  0
LINE
  5
172
  8
0
 10
4.44279
 20
10.2638
 30
0.0
 11
4.26538
 21
10.3477
 31
0.0
  0
LINE
  5
173
  8
0
 10
4.26538
 20
10.3477
 30
0.0
 11
4.08058
 21
10.4139
 31
0.0
  0
LINE
  5
174
  8
0
 10
4.08058
 20
10.4139
 30
0.0
 11
3.89018
 21
10.4616
 31
0.0
  0
LINE
  5
175
  8
0
 10
3.89018
 20
10.4616
 30
0.0
 11
3.69604
 21
10.4904
 31
0.0
  0
LINE
  5
176
  8
0
 10
3.69604
 20
10.4904
 30
0.0
 11
3.5
 21
10.5
 31
0.0
  0
LINE
  5
177
  8
0
 10
3.5
 20
10.5
 30
0.0
 11
3.30397
 21
10.4904
 31
0.0
  0
LINE
  5
178
  8
0
 10
3.30397
 20
10.4904
 30
0.0
 11
3.10983
 21
10.4616
 31
0.0
  0
LINE
  5
179
  8
0
 10
3.10983
 20
10.4616
 30
0.0
 11
2.91943
 21
10.4139
 31
0.0
  0
LINE
  5
17A
  8
0
 10
2.91943
 20
10.4139
 30
0.0
 11
2.73463
 21
10.3477
 31
0.0
  0
LINE
  5
17B
  8
0
 10
2.73463
 20
10.3477
 30
0.0
 11
2.55722
 21
10.2638
 31
0.0
  0
LINE
  5
17C
  8
0
 10
2.55722
 20
10.2638
 30
0.0
 11
2.38887
 21
10.1629
 31
0.0
  0
LINE
  5
17D
  8
0
 10
2.38887
 20
10.1629
 30
0.0
 11
2.23122
 21
10.046
 31
0.0
  0
LINE
  5
17E
  8
0
 10
2.23122
 20
10.046
 30
0.0
 11
2.0858
 21
9.9142
 31
0.0
  0
LINE
  5
17F
  8
0
 10
2.0858
 20
9.9142
 30
0.0
 11
1.95398
 21
9.76878
 31
0.0
  0
LINE
  5
180
  8
0
 10
1.95398
 20
9.76878
 30
0.0
 11
1.83707
 21
9.61113
 31
0.0
  0
LINE
  5
181
  8
0
 10
1.83707
 20
9.61113
 30
0.0
 11
1.73616
 21
9.44278
 31
0.0
  0
LINE
  5
182
  8
0
 10
1.73616
 20
9.44278
 30
0.0
 11
1.65225
 21
9.26537
 31
0.0
  0
LINE
  5
183
  8
0
 10
1.65225
 20
9.26537
 30
0.0
 11
1.58612
 21
9.08057
 31
0.0
  0
LINE
  5
184
  8
0
 10
1.58612
 20
9.08057
 30
0.0
 11
1.53844
 21
8.89017
 31
0.0
  0
LINE
  5
185
  8
0
 10
1.53844
 20
8.89017
 30
0.0
 11
1.50964
 21
8.69603
 31
0.0
  0
LINE
  5
186
  8
0
 10
1.50964
 20
8.69603
 30
0.0
 11
1.5
 21
8.5
 31
0.0
  0
LINE
  5
187
  8
0
 10
1.5
 20
8.5
 30
0.0
 11
1.50964
 21
8.30396
 31
0.0
  0
LINE
  5
188
  8
0
 10
1.50964
 20
8.30396
 30
0.0
 11
1.53844
 21
8.10982
 31
0.0
  0
LINE
  5
189
  8
0
 10
1.53844
 20
8.10982
 30
0.0
 11
1.58612
 21
7.91942
 31
0.0
  0
LINE
  5
18A
  8
0
 10
1.58612
 20
7.91942
 30
0.0
 11
1.65225
 21
7.73462
 31
0.0
  0
LINE
  5
18B
  8
0
 10
1.65225
 20
7.73462
 30
0.0
 11
1.73616
 21
7.55721
 31
0.0
  0
LINE
  5
18C
  8
0
 10
1.73616
 20
7.55721
 30
0.0
 11
1.83707
 21
7.38885
 31
0.0
  0
LINE
  5
18D
  8
0
 10
1.83707
 20
7.38885
 30
0.0
 11
1.95398
 21
7.2312
 31
0.0
  0
LINE
  5
18E
  8
0
 10
1.95398
 20
7.2312
 30
0.0
 11
2.0858
 21
7.08578
 31
0.0
  0
LINE
  5
18F
  8
0
 10
2.0858
 20
7.08578
 30
0.0
 11
2.23122
 21
6.95396
 31
0.0
  0
LINE
  5
190
  8
0
 10
2.23122
 20
6.95396
 30
0.0
 11
2.38887
 21
6.83705
 31
0.0
  0
LINE
  5
191
  8
0
 10
2.38887
 20
6.83705
 30
0.0
 11
2.55722
 21
6.73615
 31
0.0
  0
LINE
  5
192
  8
0
 10
2.55722
 20
6.73615
 30
0.0
 11
2.73463
 21
6.65224
 31
0.0
  0
LINE
  5
193
  8
0
 10
2.73463
 20
6.65224
 30
0.0
 11
2.91943
 21
6.58611
 31
0.0
  0
LINE
  5
194
  8
0
 10
2.91943
 20
6.58611
 30
0.0
 11
3.10983
 21
6.53842
 31
0.0
  0
LINE
  5
195
  8
0
 10
3.10983
 20
6.53842
 30
0.0
 11
3.30397
 21
6.50963
 31
0.0
  0
LINE
  5
196
  8
0
 10
3.30397
 20
6.50963
 30
0.0
 11
3.5
 21
6.5
 31
0.0
  0
LINE
  5
197
  8
0
 10
3.5
 20
6.5
 30
0.0
 11
3.69604
 21
6.50963
 31
0.0
  0
LINE
  5
198
  8
0
 10
3.69604
 20
6.50963
 30
0.0
 11
3.89018
 21
6.53842
 31
0.0
  0
LINE
  5
199
  8
0
 10
3.89018
 20
6.53842
 30
0.0
 11
4.08058
 21
6.58611
 31
0.0
  0
LINE
  5
19A
  8
0
 10
4.08058
 20
6.58611
 30
0.0
 11
4.26538
 21
6.65224
 31
0.0
  0
LINE
  5
19B
  8
0
 10
4.26538
 20
6.65224
 30
0.0
 11
4.44279
 21
6.73615
 31
0.0
  0
LINE
  5
19C
  8
0
 10
4.44279
 20
6.73615
 30
0.0
 11
4.5
 21
6.77043
 31
0.0
  0
LINE
  5
19D
  8
0
 10
4.5
 20
6.77043
 30
0.0
 11
4.5
 21
5.22957
 31
0.0
  0
LINE
  5
19E
  8
0
 10
4.5
 20
5.22957
 30
0.0
 11
4.44279
 21
5.26385
 31
0.0
  0
LINE
  5
19F
  8
0
 10
4.44279
 20
5.26385
 30
0.0
 11
4.26538
 21
5.34776
 31
0.0
  0
LINE
  5
1A0
  8
0
 10
4.26538
 20
5.34776
 30
0.0
 11
4.08058
 21
5.41389
 31
0.0
  0
LINE
  5
1A1
  8
0
 10
4.08058
 20
5.41389
 30
0.0
 11
3.89018
 21
5.46158
 31
0.0
  0
LINE
  5
1A2
  8
0
 10
3.89018
 20
5.46158
 30
0.0
 11
3.69604
 21
5.49037
 31
0.0
  0
LINE
  5
1A3
  8
0
 10
3.69604
 20
5.49037
 30
0.0
 11
3.5
 21
5.5
 31
0.0
  0
LINE
  5
1A4
  8
0
 10
3.5
 20
5.5
 30
0.0
 11
3.30397
 21
5.49037
 31
0.0
  0
LINE
  5
1A5
  8
0
 10
3.30397
 20
5.49037
 30
0.0
 11
3.10983
 21
5.46158
 31
0.0
  0
LINE
  5
1A6
  8
0
 10
3.10983
 20
5.46158
 30
0.0
 11
2.91943
 21
5.41389
 31
0.0
  0
LINE
  5
1A7
  8
0
 10
2.91943
 20
5.41389
 30
0.0
 11
2.73463
 21
5.34776
 31
0.0
  0
LINE
  5
1A8
  8
0
 10
2.73463
 20
5.34776
 30
0.0
 11
2.55722
 21
5.26385
 31
0.0
  0
LINE
  5
1A9
  8
0
 10
2.55722
 20
5.26385
 30
0.0
 11
2.38887
 21
5.16295
 31
0.0
  0
LINE
  5
1AA
  8
0
 10
2.38887
 20
5.16295
 30
0.0
 11
2.23122
 21
5.04604
 31
0.0
  0
LINE
  5
1AB
  8
0
 10
2.23122
 20
5.04604
 30
0.0
 11
2.0858
 21
4.91422
 31
0.0
  0
LINE
  5
1AC
  8
0
 10
2.0858
 20
4.91422
 30
0.0
 11
1.95398
 21
4.7688
 31
0.0
  0
LINE
  5
1AD
  8
0
 10
1.95398
 20
4.7688
 30
0.0
 11
1.83707
 21
4.61115
 31
0.0
  0
LINE
  5
1AE
  8
0
 10
1.83707
 20
4.61115
 30
0.0
 11
1.73616
 21
4.44279
 31
0.0
  0
LINE
  5
1AF
  8
0
 10
1.73616
 20
4.44279
 30
0.0
 11
1.65225
 21
4.26538
 31
0.0
  0
LINE
  5
1B0
  8
0
 10
1.65225
 20
4.26538
 30
0.0
 11
1.58612
 21
4.08058
 31
0.0
  0
LINE
  5
1B1
  8
0
 10
1.58612
 20
4.08058
 30
0.0
 11
1.53844
 21
3.89018
 31
0.0
  0
LINE
  5
1B2
  8
0
 10
1.53844
 20
3.89018
 30
0.0
 11
1.50964
 21
3.69604
 31
0.0
  0
LINE
  5
1B3
  8
0
 10
1.50964
 20
3.69604
 30
0.0
 11
1.5
 21
3.5
 31
0.0
  0
LINE
  5
1B4
  8
0
 10
1.5
 20
3.5
 30
0.0
 11
1.50964
 21
3.30397
 31
0.0
  0
LINE
  5
1B5
  8
0
 10
1.50964
 20
3.30397
 30
0.0
 11
1.53844
 21
3.10983
 31
0.0
  0
LINE
  5
1B6
  8
0
 10
1.53844
 20
3.10983
 30
0.0
 11
1.58612
 21
2.91943
 31
0.0
  0
LINE
  5
1B7
  8
0
 10
1.58612
 20
2.91943
 30
0.0
 11
1.65225
 21
2.73463
 31
0.0
  0
LINE
  5
1B8
  8
0
 10
1.65225
 20
2.73463
 30
0.0
 11
1.73616
 21
2.55722
 31
0.0
  0
LINE
  5
1B9
  8
0
 10
1.73616
 20
2.55722
 30
0.0
 11
1.83707
 21
2.38887
 31
0.0
  0
LINE
  5
1BA
  8
0
 10
1.83707
 20
2.38887
 30
0.0
 11
1.95398
 21
2.23122
 31
0.0
  0
LINE
  5
1BB
  8
0
 10
1.95398
 20
2.23122
 30
0.0
 11
2.0858
 21
2.0858
 31
0.0
  0
LINE
  5
1BC
  8
0
 10
2.0858
 20
2.0858
 30
0.0
 11
2.23122
 21
1.95398
 31
0.0
  0
LINE
  5
1BD
  8
0
 10
2.23122
 20
1.95398
 30
0.0
 11
2.38887
 21
1.83707
 31
0.0
  0
LINE
  5
1BE
  8
0
 10
2.38887
 20
1.83707
 30
0.0
 11
2.55722
 21
1.73616
 31
0.0
  0
LINE
  5
1BF
  8
0
 10
2.55722
 20
1.73616
 30
0.0
 11
2.73463
 21
1.65225
 31
0.0
  0
LINE
  5
1C0
  8
0
 10
2.73463
 20
1.65225
 30
0.0
 11
2.91943
 21
1.58612
 31
0.0
  0
LINE
  5
1C1
  8
0
 10
2.91943
 20
1.58612
 30
0.0
 11
3.10983
 21
1.53844
 31
0.0
  0
LINE
  5
1C2
  8
0
 10
3.10983
 20
1.53844
 30
0.0
 11
3.30397
 21
1.50964
 31
0.0
  0
LINE
  5
1C3
  8
0
 10
3.30397
 20
1.50964
 30
0.0
 11
3.5
 21
1.5
 31
0.0
  0
LINE
  5
1C4
  8
0
 10
3.5
 20
1.5
 30
0.0
 11
3.69604
 21
1.50964
 31
0.0
  0
LINE
  5
1C5
  8
0
 10
3.69604
 20
1.50964
 30
0.0
 11
3.89018
 21
1.53844
 31
0.0
  0
LINE
  5
1C6
  8
0
 10
3.89018
 20
1.53844
 30
0.0
 11
4.08058
 21
1.58612
 31
0.0
  0
LINE
  5
1C7
  8
0
 10
4.08058
 20
1.58612
 30
0.0
 11
4.26538
 21
1.65225
 31
0.0
  0
LINE
  5
1C8
  8
0
 10
4.26538
 20
1.65225
 30
0.0
 11
4.44279
 21
1.73616
 31
0.0
  0
LINE
  5
1C9
  8
0
 10
4.44279
 20
1.73616
 30
0.0
 11
4.61115
 21
1.83707
 31
0.0
  0
LINE
  5
1CA
  8
0
 10
4.61115
 20
1.83707
 30
0.0
 11
4.7688
 21
1.95398
 31
0.0
  0
LINE
  5
1CB
  8
0
 10
4.7688
 20
1.95398
 30
0.0
 11
4.91422
 21
2.0858
 31
0.0
  0
LINE
  5
1CC
  8
0
 10
4.91422
 20
2.0858
 30
0.0
 11
5.04604
 21
2.23122
 31
0.0
  0
LINE
  5
1CD
  8
0
 10
5.04604
 20
2.23122
 30
0.0
 11
5.16295
 21
2.38887
 31
0.0
  0
LINE
  5
1CE
  8
0
 10
5.16295
 20
2.38887
 30
0.0
 11
5.26385
 21
2.55722
 31
0.0
  0
LINE
  5
1CF
  8
0
 10
5.26385
 20
2.55722
 30
0.0
 11
5.34776
 21
2.73463
 31
0.0
  0
LINE
  5
1D0
  8
0
 10
5.34776
 20
2.73463
 30
0.0
 11
5.41389
 21
2.91943
 31
0.0
  0
LINE
  5
1D1
  8
0
 10
5.41389
 20
2.91943
 30
0.0
 11
5.46158
 21
3.10983
 31
0.0
  0
LINE
  5
1D2
  8
0
 10
5.46158
 20
3.10983
 30
0.0
 11
5.49037
 21
3.30397
 31
0.0
  0
LINE
  5
1D3
  8
0
 10
5.49037
 20
3.30397
 30
0.0
 11
5.5
 21
3.5
 31
0.0
  0
LINE
  5
1D4
  8
0
 10
5.5
 20
3.5
 30
0.0
 11
5.49037
 21
3.69604
 31
0.0
  0
LINE
  5
1D5
  8
0
 10
5.49037
 20
3.69604
 30
0.0
 11
5.46158
 21
3.89018
 31
0.0
  0
LINE
  5
1D6
  8
0
 10
5.46158
 20
3.89018
 30
0.0
 11
5.43031
 21
4.01501
 31
0.0
  0
LINE
  5
1D7
  8
0
 10
5.43031
 20
4.01501
 30
0.0
 11
5.8
 21
4.01501
 31
0.0
  0
LINE
  5
1D8
  8
0
 10
5.8
 20
4.01501
 30
0.0
 11
5.8
 21
4.05501
 31
0.0
  0
LINE
  5
1D9
  8
0
 10
5.8
 20
4.05501
 30
0.0
 11
6.2
 21
4.05501
 31
0.0
  0
LINE
  5
1DA
  8
0
 10
6.2
 20
4.05501
 30
0.0
 11
6.2
 21
4.01501
 31
0.0
  0
LINE
  5
1DB
  8
0
 10
6.2
 20
4.01501
 30
0.0
 11
6.56969
 21
4.01501
 31
0.0
  0
LINE
  5
1DC
  8
0
 10
6.56969
 20
4.01501
 30
0.0
 11
6.53842
 21
3.89018
 31
0.0
  0
LINE
  5
1DD
  8
0
 10
6.53842
 20
3.89018
 30
0.0
 11
6.50963
 21
3.69604
 31
0.0
  0
LINE
  5
1DE
  8
0
 10
6.50963
 20
3.69604
 30
0.0
 11
6.5
 21
3.5
 31
0.0
  0
LINE
  5
1DF
  8
0
 10
6.5
 20
3.5
 30
0.0
 11
6.50963
 21
3.30397
 31
0.0
  0
LINE
  5
1E0
  8
0
 10
6.50963
 20
3.30397
 30
0.0
 11
6.53842
 21
3.10983
 31
0.0
  0
LINE
  5
1E1
  8
0
 10
6.53842
 20
3.10983
 30
0.0
 11
6.58611
 21
2.91943
 31
0.0
  0
LINE
  5
1E2
  8
0
 10
6.58611
 20
2.91943
 30
0.0
 11
6.65224
 21
2.73463
 31
0.0
  0
LINE
  5
1E3
  8
0
 10
6.65224
 20
2.73463
 30
0.0
 11
6.73615
 21
2.55722
 31
0.0
  0
LINE
  5
1E4
  8
0
 10
6.73615
 20
2.55722
 30
0.0
 11
6.83705
 21
2.38887
 31
0.0
  0
LINE
  5
1E5
  8
0
 10
6.83705
 20
2.38887
 30
0.0
 11
6.95396
 21
2.23122
 31
0.0
  0
LINE
  5
1E6
  8
0
 10
6.95396
 20
2.23122
 30
0.0
 11
7.08578
 21
2.0858
 31
0.0
  0
LINE
  5
1E7
  8
0
 10
7.08578
 20
2.0858
 30
0.0
 11
7.2312
 21
1.95398
 31
0.0
  0
LINE
  5
1E8
  8
0
 10
7.2312
 20
1.95398
 30
0.0
 11
7.38885
 21
1.83707
 31
0.0
  0
LINE
  5
1E9
  8
0
 10
7.38885
 20
1.83707
 30
0.0
 11
7.55721
 21
1.73616
 31
0.0
  0
LINE
  5
1EA
  8
0
 10
7.55721
 20
1.73616
 30
0.0
 11
7.73462
 21
1.65225
 31
0.0
  0
LINE
  5
1EB
  8
0
 10
7.73462
 20
1.65225
 30
0.0
 11
7.91942
 21
1.58612
 31
0.0
  0
LINE
  5
1EC
  8
0
 10
7.91942
 20
1.58612
 30
0.0
 11
8.10982
 21
1.53844
 31
0.0
  0
LINE
  5
1ED
  8
0
 10
8.10982
 20
1.53844
 30
0.0
 11
8.30396
 21
1.50964
 31
0.0
  0
LINE
  5
1EE
  8
0
 10
8.30396
 20
1.50964
 30
0.0
 11
8.5
 21
1.5
 31
0.0
  0
LINE
  5
1EF
  8
0
 10
8.5
 20
1.5
 30
0.0
 11
8.69603
 21
1.50964
 31
0.0
  0
LINE
  5
1F0
  8
0
 10
5.8
 20
7.905
 30
0.0
 11
5.8
 21
7.935
 31
0.0
  0
LINE
  5
1F1
  8
0
 10
5.8
 20
7.935
 30
0.0
 11
6.2
 21
7.935
 31
0.0
  0
LINE
  5
1F2
  8
0
 10
6.2
 20
7.935
 30
0.0
 11
6.2
 21
7.905
 31
0.0
  0
LINE
  5
1F3
  8
0
 10
6.2
 20
7.905
 30
0.0
 11
5.8
 21
7.905
 31
0.0
  0
LINE
  5
1F4
  8
0
 10
5.8
 20
7.86499
 30
0.0
 11
5.8
 21
7.89499
 31
0.0
  0
LINE
  5
1F5
  8
0
 10
5.8
 20
7.89499
 30
0.0
 11
6.2
 21
7.89499
 31
0.0
  0
LINE
  5
1F6
  8
0
 10
6.2
 20
7.89499
 30
0.0
 11
6.2
 21
7.86499
 31
0.0
  0
LINE
  5
1F7
  8
0
 10
6.2
 20
7.86499
 30
0.0
 11
5.8
 21
7.86499
 31
0.0
  0
LINE
  5
1F8
  8
0
 10
5.8
 20
7.825
 30
0.0
 11
5.8
 21
7.855
 31
0.0
  0
LINE
  5
1F9
  8
0
 10
5.8
 20
7.855
 30
0.0
 11
6.2
 21
7.855
 31
0.0
  0
LINE
  5
1FA
  8
0
 10
6.2
 20
7.855
 30
0.0
 11
6.2
 21
7.825
 31
0.0
  0
LINE
  5
1FB
  8
0
 10
6.2
 20
7.825
 30
0.0
 11
5.8
 21
7.825
 31
0.0
  0
LINE
  5
1FC
  8
0
 10
5.8
 20
7.78499
 30
0.0
 11
5.8
 21
7.81499
 31
0.0
  0
LINE
  5
1FD
  8
0
 10
5.8
 20
7.81499
 30
0.0
 11
6.2
 21
7.81499
 31
0.0
  0
LINE
  5
1FE
  8
0
 10
6.2
 20
7.81499
 30
0.0
 11
6.2
 21
7.78499
 31
0.0
  0
LINE
  5
1FF
  8
0
 10
6.2
 20
7.78499
 30
0.0
 11
5.8
 21
7.78499
 31
0.0
  0
LINE
  5
200
  8
0
 10
5.8
 20
7.745
 30
0.0
 11
5.8
 21
7.77499
 31
0.0
  0
LINE
  5
201
  8
0
 10
5.8
 20
7.77499
 30
0.0
 11
6.2
 21
7.77499
 31
0.0
  0
LINE
  5
202
  8
0
 10
6.2
 20
7.77499
 30
0.0
 11
6.2
 21
7.745
 31
0.0
  0
LINE
  5
203
  8
0
 10
6.2
 20
7.745
 30
0.0
 11
5.8
 21
7.745
 31
0.0
  0
LINE
  5
204
  8
0
 10
5.8
 20
7.70499
 30
0.0
 11
5.8
 21
7.73499
 31
0.0
  0
LINE
  5
205
  8
0
 10
5.8
 20
7.73499
 30
0.0
 11
6.2
 21
7.73499
 31
0.0
  0
LINE
  5
206
  8
0
 10
6.2
 20
7.73499
 30
0.0
 11
6.2
 21
7.70499
 31
0.0
  0
LINE
  5
207
  8
0
 10
6.2
 20
7.70499
 30
0.0
 11
5.8
 21
7.70499
 31
0.0
  0
LINE
  5
208
  8
0
 10
5.8
 20
7.66499
 30
0.0
 11
5.8
 21
7.69499
 31
0.0
  0
LINE
  5
209
  8
0
 10
5.8
 20
7.69499
 30
0.0
 11
6.2
 21
7.69499
 31
0.0
  0
LINE
  5
20A
  8
0
 10
6.2
 20
7.69499
 30
0.0
 11
6.2
 21
7.66499
 31
0.0
  0
LINE
  5
20B
  8
0
 10
6.2
 20
7.66499
 30
0.0
 11
5.8
 21
7.66499
 31
0.0
  0
LINE
  5
20C
  8
0
 10
5.8
 20
7.625
 30
0.0
 11
5.8
 21
7.655
 31
0.0
  0
LINE
  5
20D
  8
0
 10
5.8
 20
7.655
 30
0.0
 11
6.2
 21
7.655
 31
0.0
  0
LINE
  5
20E
  8
0
 10
6.2
 20
7.655
 30
0.0
 11
6.2
 21
7.625
 31
0.0
  0
LINE
  5
20F
  8
0
 10
6.2
 20
7.625
 30
0.0
 11
5.8
 21
7.625
 31
0.0
  0
LINE
  5
210
  8
0
 10
5.8
 20
7.58499
 30
0.0
 11
5.8
 21
7.61499
 31
0.0
  0
LINE
  5
211
  8
0
 10
5.8
 20
7.61499
 30
0.0
 11
6.2
 21
7.61499
 31
0.0
  0
LINE
  5
212
  8
0
 10
6.2
 20
7.61499
 30
0.0
 11
6.2
 21
7.58499
 31
0.0
  0
LINE
  5
213
  8
0
 10
6.2
 20
7.58499
 30
0.0
 11
5.8
 21
7.58499
 31
0.0
  0
LINE
  5
214
  8
0
 10
5.8
 20
7.545
 30
0.0
 11
5.8
 21
7.575
 31
0.0
  0
LINE
  5
215
  8
0
 10
5.8
 20
7.575
 30
0.0
 11
6.2
 21
7.575
 31
0.0
  0
LINE
  5
216
  8
0
 10
6.2
 20
7.575
 30
0.0
 11
6.2
 21
7.545
 31
0.0
  0
LINE
  5
217
  8
0
 10
6.2
 20
7.545
 30
0.0
 11
5.8
 21
7.545
 31
0.0
  0
LINE
  5
218
  8
0
 10
5.8
 20
7.50499
 30
0.0
 11
5.8
 21
7.53499
 31
0.0
  0
LINE
  5
219
  8
0
 10
5.8
 20
7.53499
 30
0.0
 11
6.2
 21
7.53499
 31
0.0
  0
LINE
  5
21A
  8
0
 10
6.2
 20
7.53499
 30
0.0
 11
6.2
 21
7.50499
 31
0.0
  0
LINE
  5
21B
  8
0
 10
6.2
 20
7.50499
 30
0.0
 11
5.8
 21
7.50499
 31
0.0
  0
LINE
  5
21C
  8
0
 10
5.8
 20
7.465
 30
0.0
 11
5.8
 21
7.495
 31
0.0
  0
LINE
  5
21D
  8
0
 10
5.8
 20
7.495
 30
0.0
 11
6.2
 21
7.495
 31
0.0
  0
LINE
  5
21E
  8
0
 10
6.2
 20
7.495
 30
0.0
 11
6.2
 21
7.465
 31
0.0
  0
LINE
  5
21F
  8
0
 10
6.2
 20
7.465
 30
0.0
 11
5.8
 21
7.465
 31
0.0
  0
LINE
  5
220
  8
0
 10
5.8
 20
7.42499
 30
0.0
 11
5.8
 21
7.45499
 31
0.0
  0
LINE
  5
221
  8
0
 10
5.8
 20
7.45499
 30
0.0
 11
6.2
 21
7.45499
 31
0.0
  0
LINE
  5
222
  8
0
 10
6.2
 20
7.45499
 30
0.0
 11
6.2
 21
7.42499
 31
0.0
  0
LINE
  5
223
  8
0
 10
6.2
 20
7.42499
 30
0.0
 11
5.8
 21
7.42499
 31
0.0
  0
LINE
  5
224
  8
0
 10
5.8
 20
7.38499
 30
0.0
 11
5.8
 21
7.41499
 31
0.0
  0
LINE
  5
225
  8
0
 10
5.8
 20
7.41499
 30
0.0
 11
6.2
 21
7.41499
 31
0.0
  0
LINE
  5
226
  8
0
 10
6.2
 20
7.41499
 30
0.0
 11
6.2
 21
7.38499
 31
0.0
  0
LINE
  5
227
  8
0
 10
6.2
 20
7.38499
 30
0.0
 11
5.8
 21
7.38499
 31
0.0
  0
LINE
  5
228
  8
0
 10
5.8
 20
7.34499
 30
0.0
 11
5.8
 21
7.375
 31
0.0
  0
LINE
  5
229
  8
0
 10
5.8
 20
7.375
 30
0.0
 11
6.2
 21
7.375
 31
0.0
  0
LINE
  5
22A
  8
0
 10
6.2
 20
7.375
 30
0.0
 11
6.2
 21
7.34499
 31
0.0
  0
LINE
  5
22B
  8
0
 10
6.2
 20
7.34499
 30
0.0
 11
5.8
 21
7.34499
 31
0.0
  0
LINE
  5
22C
  8
0
 10
5.8
 20
7.30499
 30
0.0
 11
5.8
 21
7.33499
 31
0.0
  0
LINE
  5
22D
  8
0
 10
5.8
 20
7.33499
 30
0.0
 11
6.2
 21
7.33499
 31
0.0
  0
LINE
  5
22E
  8
0
 10
6.2
 20
7.33499
 30
0.0
 11
6.2
 21
7.30499
 31
0.0
  0
LINE
  5
22F
  8
0
 10
6.2
 20
7.30499
 30
0.0
 11
5.8
 21
7.30499
 31
0.0
  0
LINE
  5
230
  8
0
 10
5.8
 20
7.265
 30
0.0
 11
5.8
 21
7.295
 31
0.0
  0
LINE
  5
231
  8
0
 10
5.8
 20
7.295
 30
0.0
 11
6.2
 21
7.295
 31
0.0
  0
LINE
  5
232
  8
0
 10
6.2
 20
7.295
 30
0.0
 11
6.2
 21
7.265
 31
0.0
  0
LINE
  5
233
  8
0
 10
6.2
 20
7.265
 30
0.0
 11
5.8
 21
7.265
 31
0.0
  0
LINE
  5
234
  8
0
 10
5.8
 20
7.22499
 30
0.0
 11
5.8
 21
7.25499
 31
0.0
  0
LINE
  5
235
  8
0
 10
5.8
 20
7.25499
 30
0.0
 11
6.2
 21
7.25499
 31
0.0
  0
LINE
  5
236
  8
0
 10
6.2
 20
7.25499
 30
0.0
 11
6.2
 21
7.22499
 31
0.0
  0
LINE
  5
237
  8
0
 10
6.2
 20
7.22499
 30
0.0
 11
5.8
 21
7.22499
 31
0.0
  0
LINE
  5
238
  8
0
 10
5.8
 20
7.185
 30
0.0
 11
5.8
 21
7.215
 31
0.0
  0
LINE
  5
239
  8
0
 10
5.8
 20
7.215
 30
0.0
 11
6.2
 21
7.215
 31
0.0
  0
LINE
  5
23A
  8
0
 10
6.2
 20
7.215
 30
0.0
 11
6.2
 21
7.185
 31
0.0
  0
LINE
  5
23B
  8
0
 10
6.2
 20
7.185
 30
0.0
 11
5.8
 21
7.185
 31
0.0
  0
LINE
  5
23C
  8
0
 10
5.8
 20
7.14499
 30
0.0
 11
5.8
 21
7.17499
 31
0.0
  0
LINE
  5
23D
  8
0
 10
5.8
 20
7.17499
 30
0.0
 11
6.2
 21
7.17499
 31
0.0
  0
LINE
  5
23E
  8
0
 10
6.2
 20
7.17499
 30
0.0
 11
6.2
 21
7.14499
 31
0.0
  0
LINE
  5
23F
  8
0
 10
6.2
 20
7.14499
 30
0.0
 11
5.8
 21
7.14499
 31
0.0
  0
LINE
  5
240
  8
0
 10
5.8
 20
7.105
 30
0.0
 11
5.8
 21
7.13499
 31
0.0
  0
LINE
  5
241
  8
0
 10
5.8
 20
7.13499
 30
0.0
 11
6.2
 21
7.13499
 31
0.0
  0
LINE
  5
242
  8
0
 10
6.2
 20
7.13499
 30
0.0
 11
6.2
 21
7.105
 31
0.0
  0
LINE
  5
243
  8
0
 10
6.2
 20
7.105
 30
0.0
 11
5.8
 21
7.105
 31
0.0
  0
LINE
  5
244
  8
0
 10
5.8
 20
7.06499
 30
0.0
 11
5.8
 21
7.09499
 31
0.0
  0
LINE
  5
245
  8
0
 10
5.8
 20
7.09499
 30
0.0
 11
6.2
 21
7.09499
 31
0.0
  0
LINE
  5
246
  8
0
 10
6.2
 20
7.09499
 30
0.0
 11
6.2
 21
7.06499
 31
0.0
  0
LINE
  5
247
  8
0
 10
6.2
 20
7.06499
 30
0.0
 11
5.8
 21
7.06499
 31
0.0
  0
LINE
  5
248
  8
0
 10
5.8
 20
7.02499
 30
0.0
 11
5.8
 21
7.05499
 31
0.0
  0
LINE
  5
249
  8
0
 10
5.8
 20
7.05499
 30
0.0
 11
6.2
 21
7.05499
 31
0.0
  0
LINE
  5
24A
  8
0
 10
6.2
 20
7.05499
 30
0.0
 11
6.2
 21
7.02499
 31
0.0
  0
LINE
  5
24B
  8
0
 10
6.2
 20
7.02499
 30
0.0
 11
5.8
 21
7.02499
 31
0.0
  0
LINE
  5
24C
  8
0
 10
5.8
 20
6.98499
 30
0.0
 11
5.8
 21
7.015
 31
0.0
  0
LINE
  5
24D
  8
0
 10
5.8
 20
7.015
 30
0.0
 11
6.2
 21
7.015
 31
0.0
  0
LINE
  5
24E
  8
0
 10
6.2
 20
7.015
 30
0.0
 11
6.2
 21
6.98499
 31
0.0
  0
LINE
  5
24F
  8
0
 10
6.2
 20
6.98499
 30
0.0
 11
5.8
 21
6.98499
 31
0.0
  0
LINE
  5
250
  8
0
 10
5.8
 20
6.94499
 30
0.0
 11
5.8
 21
6.97499
 31
0.0
  0
LINE
  5
251
  8
0
 10
5.8
 20
6.97499
 30
0.0
 11
6.2
 21
6.97499
 31
0.0
  0
LINE
  5
252
  8
0
 10
6.2
 20
6.97499
 30
0.0
 11
6.2
 21
6.94499
 31
0.0
  0
LINE
  5
253
  8
0
 10
6.2
 20
6.94499
 30
0.0
 11
5.8
 21
6.94499
 31
0.0
  0
LINE
  5
254
  8
0
 10
5.8
 20
6.905
 30
0.0
 11
5.8
 21
6.935
 31
0.0
  0
LINE
  5
255
  8
0
 10
5.8
 20
6.935
 30
0.0
 11
6.2
 21
6.935
 31
0.0
  0
LINE
  5
256
  8
0
 10
6.2
 20
6.935
 30
0.0
 11
6.2
 21
6.905
 31
0.0
  0
LINE
  5
257
  8
0
 10
6.2
 20
6.905
 30
0.0
 11
5.8
 21
6.905
 31
0.0
  0
LINE
  5
258
  8
0
 10
5.8
 20
6.86499
 30
0.0
 11
5.8
 21
6.89499
 31
0.0
  0
LINE
  5
259
  8
0
 10
5.8
 20
6.89499
 30
0.0
 11
6.2
 21
6.89499
 31
0.0
  0
LINE
  5
25A
  8
0
 10
6.2
 20
6.89499
 30
0.0
 11
6.2
 21
6.86499
 31
0.0
  0
LINE
  5
25B
  8
0
 10
6.2
 20
6.86499
 30
0.0
 11
5.8
 21
6.86499
 31
0.0
  0
LINE
  5
25C
  8
0
 10
5.8
 20
6.825
 30
0.0
 11
5.8
 21
6.855
 31
0.0
  0
LINE
  5
25D
  8
0
 10
5.8
 20
6.855
 30
0.0
 11
6.2
 21
6.855
 31
0.0
  0
LINE
  5
25E
  8
0
 10
6.2
 20
6.855
 30
0.0
 11
6.2
 21
6.825
 31
0.0
  0
LINE
  5
25F
  8
0
 10
6.2
 20
6.825
 30
0.0
 11
5.8
 21
6.825
 31
0.0
  0
LINE
  5
260
  8
0
 10
5.8
 20
6.78499
 30
0.0
 11
5.8
 21
6.81499
 31
0.0
  0
LINE
  5
261
  8
0
 10
5.8
 20
6.81499
 30
0.0
 11
6.2
 21
6.81499
 31
0.0
  0
LINE
  5
262
  8
0
 10
6.2
 20
6.81499
 30
0.0
 11
6.2
 21
6.78499
 31
0.0
  0
LINE
  5
263
  8
0
 10
6.2
 20
6.78499
 30
0.0
 11
5.8
 21
6.78499
 31
0.0
  0
LINE
  5
264
  8
0
 10
5.8
 20
6.745
 30
0.0
 11
5.8
 21
6.77499
 31
0.0
  0
LINE
  5
265
  8
0
 10
5.8
 20
6.77499
 30
0.0
 11
6.2
 21
6.77499
 31
0.0
  0
LINE
  5
266
  8
0
 10
6.2
 20
6.77499
 30
0.0
 11
6.2
 21
6.745
 31
0.0
  0
LINE
  5
267
  8
0
 10
6.2
 20
6.745
 30
0.0
 11
5.8
 21
6.745
 31
0.0
  0
LINE
  5
268
  8
0
 10
5.8
 20
6.70499
 30
0.0
 11
5.8
 21
6.73499
 31
0.0
  0
LINE
  5
269
  8
0
 10
5.8
 20
6.73499
 30
0.0
 11
6.2
 21
6.73499
 31
0.0
  0
LINE
  5
26A
  8
0
 10
6.2
 20
6.73499
 30
0.0
 11
6.2
 21
6.70499
 31
0.0
  0
LINE
  5
26B
  8
0
 10
6.2
 20
6.70499
 30
0.0
 11
5.8
 21
6.70499
 31
0.0
  0
LINE
  5
26C
  8
0
 10
5.8
 20
6.66499
 30
0.0
 11
5.8
 21
6.69499
 31
0.0
  0
LINE
  5
26D
  8
0
 10
5.8
 20
6.69499
 30
0.0
 11
6.2
 21
6.69499
 31
0.0
  0
LINE
  5
26E
  8
0
 10
6.2
 20
6.69499
 30
0.0
 11
6.2
 21
6.66499
 31
0.0
  0
LINE
  5
26F
  8
0
 10
6.2
 20
6.66499
 30
0.0
 11
5.8
 21
6.66499
 31
0.0
  0
LINE
  5
270
  8
0
 10
5.8
 20
6.625
 30
0.0
 11
5.8
 21
6.655
 31
0.0
  0
LINE
  5
271
  8
0
 10
5.8
 20
6.655
 30
0.0
 11
6.2
 21
6.655
 31
0.0
  0
LINE
  5
272
  8
0
 10
6.2
 20
6.655
 30
0.0
 11
6.2
 21
6.625
 31
0.0
  0
LINE
  5
273
  8
0
 10
6.2
 20
6.625
 30
0.0
 11
5.8
 21
6.625
 31
0.0
  0
LINE
  5
274
  8
0
 10
5.8
 20
6.58499
 30
0.0
 11
5.8
 21
6.61499
 31
0.0
  0
LINE
  5
275
  8
0
 10
5.8
 20
6.61499
 30
0.0
 11
6.2
 21
6.61499
 31
0.0
  0
LINE
  5
276
  8
0
 10
6.2
 20
6.61499
 30
0.0
 11
6.2
 21
6.58499
 31
0.0
  0
LINE
  5
277
  8
0
 10
6.2
 20
6.58499
 30
0.0
 11
5.8
 21
6.58499
 31
0.0
  0
LINE
  5
278
  8
0
 10
5.8
 20
6.545
 30
0.0
 11
5.8
 21
6.575
 31
0.0
  0
LINE
  5
279
  8
0
 10
5.8
 20
6.575
 30
0.0
 11
6.2
 21
6.575
 31
0.0
  0
LINE
  5
27A
  8
0
 10
6.2
 20
6.575
 30
0.0
 11
6.2
 21
6.545
 31
0.0
  0
LINE
  5
27B
  8
0
 10
6.2
 20
6.545
 30
0.0
 11
5.8
 21
6.545
 31
0.0
  0
LINE
  5
27C
  8
0
 10
5.8
 20
6.50499
 30
0.0
 11
5.8
 21
6.53499
 31
0.0
  0
LINE
  5
27D
  8
0
 10
5.8
 20
6.53499
 30
0.0
 11
6.2
 21
6.53499
 31
0.0
  0
LINE
  5
27E
  8
0
 10
6.2
 20
6.53499
 30
0.0
 11
6.2
 21
6.50499
 31
0.0
  0
LINE
  5
27F
  8
0
 10
6.2
 20
6.50499
 30
0.0
 11
5.8
 21
6.50499
 31
0.0
  0
LINE
  5
280
  8
0
 10
5.8
 20
6.465
 30
0.0
 11
5.8
 21
6.495
 31
0.0
  0
LINE
  5
281
  8
0
 10
5.8
 20
6.495
 30
0.0
 11
6.2
 21
6.495
 31
0.0
  0
LINE
  5
282
  8
0
 10
6.2
 20
6.495
 30
0.0
 11
6.2
 21
6.465
 31
0.0
  0
LINE
  5
283
  8
0
 10
6.2
 20
6.465
 30
0.0
 11
5.8
 21
6.465
 31
0.0
  0
LINE
  5
284
  8
0
 10
5.8
 20
6.42499
 30
0.0
 11
5.8
 21
6.45499
 31
0.0
  0
LINE
  5
285
  8
0
 10
5.8
 20
6.45499
 30
0.0
 11
6.2
 21
6.45499
 31
0.0
  0
LINE
  5
286
  8
0
 10
6.2
 20
6.45499
 30
0.0
 11
6.2
 21
6.42499
 31
0.0
  0
LINE
  5
287
  8
0
 10
6.2
 20
6.42499
 30
0.0
 11
5.8
 21
6.42499
 31
0.0
  0
LINE
  5
288
  8
0
 10
5.8
 20
6.38499
 30
0.0
 11
5.8
 21
6.41499
 31
0.0
  0
LINE
  5
289
  8
0
 10
5.8
 20
6.41499
 30
0.0
 11
6.2
 21
6.41499
 31
0.0
  0
LINE
  5
28A
  8
0
 10
6.2
 20
6.41499
 30
0.0
 11
6.2
 21
6.38499
 31
0.0
  0
LINE
  5
28B
  8
0
 10
6.2
 20
6.38499
 30
0.0
 11
5.8
 21
6.38499
 31
0.0
  0
LINE
  5
28C
  8
0
 10
5.8
 20
6.34499
 30
0.0
 11
5.8
 21
6.375
 31
0.0
  0
LINE
  5
28D
  8
0
 10
5.8
 20
6.375
 30
0.0
 11
6.2
 21
6.375
 31
0.0
  0
LINE
  5
28E
  8
0
 10
6.2
 20
6.375
 30
0.0
 11
6.2
 21
6.34499
 31
0.0
  0
LINE
  5
28F
  8
0
 10
6.2
 20
6.34499
 30
0.0
 11
5.8
 21
6.34499
 31
0.0
  0
LINE
  5
290
  8
0
 10
5.8
 20
6.30499
 30
0.0
 11
5.8
 21
6.33499
 31
0.0
  0
LINE
  5
291
  8
0
 10
5.8
 20
6.33499
 30
0.0
 11
6.2
 21
6.33499
 31
0.0
  0
LINE
  5
292
  8
0
 10
6.2
 20
6.33499
 30
0.0
 11
6.2
 21
6.30499
 31
0.0
  0
LINE
  5
293
  8
0
 10
6.2
 20
6.30499
 30
0.0
 11
5.8
 21
6.30499
 31
0.0
  0
LINE
  5
294
  8
0
 10
5.8
 20
6.265
 30
0.0
 11
5.8
 21
6.295
 31
0.0
  0
LINE
  5
295
  8
0
 10
5.8
 20
6.295
 30
0.0
 11
6.2
 21
6.295
 31
0.0
  0
LINE
  5
296
  8
0
 10
6.2
 20
6.295
 30
0.0
 11
6.2
 21
6.265
 31
0.0
  0
LINE
  5
297
  8
0
 10
6.2
 20
6.265
 30
0.0
 11
5.8
 21
6.265
 31
0.0
  0
LINE
  5
298
  8
0
 10
5.8
 20
6.22499
 30
0.0
 11
5.8
 21
6.25499
 31
0.0
  0
LINE
  5
299
  8
0
 10
5.8
 20
6.25499
 30
0.0
 11
6.2
 21
6.25499
 31
0.0
  0
LINE
  5
29A
  8
0
 10
6.2
 20
6.25499
 30
0.0
 11
6.2
 21
6.22499
 31
0.0
  0
LINE
  5
29B
  8
0
 10
6.2
 20
6.22499
 30
0.0
 11
5.8
 21
6.22499
 31
0.0
  0
LINE
  5
29C
  8
0
 10
5.8
 20
6.185
 30
0.0
 11
5.8
 21
6.215
 31
0.0
  0
LINE
  5
29D
  8
0
 10
5.8
 20
6.215
 30
0.0
 11
6.2
 21
6.215
 31
0.0
  0
LINE
  5
29E
  8
0
 10
6.2
 20
6.215
 30
0.0
 11
6.2
 21
6.185
 31
0.0
  0
LINE
  5
29F
  8
0
 10
6.2
 20
6.185
 30
0.0
 11
5.8
 21
6.185
 31
0.0
  0
LINE
  5
2A0
  8
0
 10
5.8
 20
6.14499
 30
0.0
 11
5.8
 21
6.17499
 31
0.0
  0
LINE
  5
2A1
  8
0
 10
5.8
 20
6.17499
 30
0.0
 11
6.2
 21
6.17499
 31
0.0
  0
LINE
  5
2A2
  8
0
 10
6.2
 20
6.17499
 30
0.0
 11
6.2
 21
6.14499
 31
0.0
  0
LINE
  5
2A3
  8
0
 10
6.2
 20
6.14499
 30
0.0
 11
5.8
 21
6.14499
 31
0.0
  0
LINE
  5
2A4
  8
0
 10
5.8
 20
6.105
 30
0.0
 11
5.8
 21
6.13499
 31
0.0
  0
LINE
  5
2A5
  8
0
 10
5.8
 20
6.13499
 30
0.0
 11
6.2
 21
6.13499
 31
0.0
  0
LINE
  5
2A6
  8
0
 10
6.2
 20
6.13499
 30
0.0
 11
6.2
 21
6.105
 31
0.0
  0
LINE
  5
2A7
  8
0
 10
6.2
 20
6.105
 30
0.0
 11
5.8
 21
6.105
 31
0.0
  0
LINE
  5
2A8
  8
0
 10
5.8
 20
6.06499
 30
0.0
 11
5.8
 21
6.09499
 31
0.0
  0
LINE
  5
2A9
  8
0
 10
5.8
 20
6.09499
 30
0.0
 11
6.2
 21
6.09499
 31
0.0
  0
LINE
  5
2AA
  8
0
 10
6.2
 20
6.09499
 30
0.0
 11
6.2
 21
6.06499
 31
0.0
  0
LINE
  5
2AB
  8
0
 10
6.2
 20
6.06499
 30
0.0
 11
5.8
 21
6.06499
 31
0.0
  0
LINE
  5
2AC
  8
0
 10
5.8
 20
6.02499
 30
0.0
 11
5.8
 21
6.05499
 31
0.0
  0
LINE
  5
2AD
  8
0
 10
5.8
 20
6.05499
 30
0.0
 11
6.2
 21
6.05499
 31
0.0
  0
LINE
  5
2AE
  8
0
 10
6.2
 20
6.05499
 30
0.0
 11
6.2
 21
6.02499
 31
0.0
  0
LINE
  5
2AF
  8
0
 10
6.2
 20
6.02499
 30
0.0
 11
5.8
 21
6.02499
 31
0.0
  0
LINE
  5
2B0
  8
0
 10
5.8
 20
5.985
 30
0.0
 11
5.8
 21
6.015
 31
0.0
  0
LINE
  5
2B1
  8
0
 10
5.8
 20
6.015
 30
0.0
 11
6.2
 21
6.015
 31
0.0
  0
LINE
  5
2B2
  8
0
 10
6.2
 20
6.015
 30
0.0
 11
6.2
 21
5.985
 31
0.0
  0
LINE
  5
2B3
  8
0
 10
6.2
 20
5.985
 30
0.0
 11
5.8
 21
5.985
 31
0.0
  0
LINE
  5
2B4
  8
0
 10
5.8
 20
5.94501
 30
0.0
 11
5.8
 21
5.97501
 31
0.0
  0
LINE
  5
2B5
  8
0
 10
5.8
 20
5.97501
 30
0.0
 11
6.2
 21
5.97501
 31
0.0
  0
LINE
  5
2B6
  8
0
 10
6.2
 20
5.97501
 30
0.0
 11
6.2
 21
5.94501
 31
0.0
  0
LINE
  5
2B7
  8
0
 10
6.2
 20
5.94501
 30
0.0
 11
5.8
 21
5.94501
 31
0.0
  0
LINE
  5
2B8
  8
0
 10
5.8
 20
5.90501
 30
0.0
 11
5.8
 21
5.93501
 31
0.0
  0
LINE
  5
2B9
  8
0
 10
5.8
 20
5.93501
 30
0.0
 11
6.2
 21
5.93501
 31
0.0
  0
LINE
  5
2BA
  8
0
 10
6.2
 20
5.93501
 30
0.0
 11
6.2
 21
5.90501
 31
0.0
  0
LINE
  5
2BB
  8
0
 10
6.2
 20
5.90501
 30
0.0
 11
5.8
 21
5.90501
 31
0.0
  0
LINE
  5
2BC
  8
0
 10
5.8
 20
5.86501
 30
0.0
 11
5.8
 21
5.895
 31
0.0
  0
LINE
  5
2BD
  8
0
 10
5.8
 20
5.895
 30
0.0
 11
6.2
 21
5.895
 31
0.0
  0
LINE
  5
2BE
  8
0
 10
6.2
 20
5.895
 30
0.0
 11
6.2
 21
5.86501
 31
0.0
  0
LINE
  5
2BF
  8
0
 10
6.2
 20
5.86501
 30
0.0
 11
5.8
 21
5.86501
 31
0.0
  0
LINE
  5
2C0
  8
0
 10
5.8
 20
5.82501
 30
0.0
 11
5.8
 21
5.85501
 31
0.0
  0
LINE
  5
2C1
  8
0
 10
5.8
 20
5.85501
 30
0.0
 11
6.2
 21
5.85501
 31
0.0
  0
LINE
  5
2C2
  8
0
 10
6.2
 20
5.85501
 30
0.0
 11
6.2
 21
5.82501
 31
0.0
  0
LINE
  5
2C3
  8
0
 10
6.2
 20
5.82501
 30
0.0
 11
5.8
 21
5.82501
 31
0.0
  0
LINE
  5
2C4
  8
0
 10
5.8
 20
5.785
 30
0.0
 11
5.8
 21
5.815
 31
0.0
  0
LINE
  5
2C5
  8
0
 10
5.8
 20
5.815
 30
0.0
 11
6.2
 21
5.815
 31
0.0
  0
LINE
  5
2C6
  8
0
 10
6.2
 20
5.815
 30
0.0
 11
6.2
 21
5.785
 31
0.0
  0
LINE
  5
2C7
  8
0
 10
6.2
 20
5.785
 30
0.0
 11
5.8
 21
5.785
 31
0.0
  0
LINE
  5
2C8
  8
0
 10
5.8
 20
5.74501
 30
0.0
 11
5.8
 21
5.77501
 31
0.0
  0
LINE
  5
2C9
  8
0
 10
5.8
 20
5.77501
 30
0.0
 11
6.2
 21
5.77501
 31
0.0
  0
LINE
  5
2CA
  8
0
 10
6.2
 20
5.77501
 30
0.0
 11
6.2
 21
5.74501
 31
0.0
  0
LINE
  5
2CB
  8
0
 10
6.2
 20
5.74501
 30
0.0
 11
5.8
 21
5.74501
 31
0.0
  0
LINE
  5
2CC
  8
0
 10
5.8
 20
5.705
 30
0.0
 11
5.8
 21
5.735
 31
0.0
  0
LINE
  5
2CD
  8
0
 10
5.8
 20
5.735
 30
0.0
 11
6.2
 21
5.735
 31
0.0
  0
LINE
  5
2CE
  8
0
 10
6.2
 20
5.735
 30
0.0
 11
6.2
 21
5.705
 31
0.0
  0
LINE
  5
2CF
  8
0
 10
6.2
 20
5.705
 30
0.0
 11
5.8
 21
5.705
 31
0.0
  0
LINE
  5
2D0
  8
0
 10
5.8
 20
5.66501
 30
0.0
 11
5.8
 21
5.69501
 31
0.0
  0
LINE
  5
2D1
  8
0
 10
5.8
 20
5.69501
 30
0.0
 11
6.2
 21
5.69501
 31
0.0
  0
LINE
  5
2D2
  8
0
 10
6.2
 20
5.69501
 30
0.0
 11
6.2
 21
5.66501
 31
0.0
  0
LINE
  5
2D3
  8
0
 10
6.2
 20
5.66501
 30
0.0
 11
5.8
 21
5.66501
 31
0.0
  0
LINE
  5
2D4
  8
0
 10
5.8
 20
5.625
 30
0.0
 11
5.8
 21
5.65501
 31
0.0
  0
LINE
  5
2D5
  8
0
 10
5.8
 20
5.65501
 30
0.0
 11
6.2
 21
5.65501
 31
0.0
  0
LINE
  5
2D6
  8
0
 10
6.2
 20
5.65501
 30
0.0
 11
6.2
 21
5.625
 31
0.0
  0
LINE
  5
2D7
  8
0
 10
6.2
 20
5.625
 30
0.0
 11
5.8
 21
5.625
 31
0.0
  0
LINE
  5
2D8
  8
0
 10
5.8
 20
5.58501
 30
0.0
 11
5.8
 21
5.61501
 31
0.0
  0
LINE
  5
2D9
  8
0
 10
5.8
 20
5.61501
 30
0.0
 11
6.2
 21
5.61501
 31
0.0
  0
LINE
  5
2DA
  8
0
 10
6.2
 20
5.61501
 30
0.0
 11
6.2
 21
5.58501
 31
0.0
  0
LINE
  5
2DB
  8
0
 10
6.2
 20
5.58501
 30
0.0
 11
5.8
 21
5.58501
 31
0.0
  0
LINE
  5
2DC
  8
0
 10
5.8
 20
5.54501
 30
0.0
 11
5.8
 21
5.57501
 31
0.0
  0
LINE
  5
2DD
  8
0
 10
5.8
 20
5.57501
 30
0.0
 11
6.2
 21
5.57501
 31
0.0
  0
LINE
  5
2DE
  8
0
 10
6.2
 20
5.57501
 30
0.0
 11
6.2
 21
5.54501
 31
0.0
  0
LINE
  5
2DF
  8
0
 10
6.2
 20
5.54501
 30
0.0
 11
5.8
 21
5.54501
 31
0.0
  0
LINE
  5
2E0
  8
0
 10
5.8
 20
5.505
 30
0.0
 11
5.8
 21
5.535
 31
0.0
  0
LINE
  5
2E1
  8
0
 10
5.8
 20
5.535
 30
0.0
 11
6.2
 21
5.535
 31
0.0
  0
LINE
  5
2E2
  8
0
 10
6.2
 20
5.535
 30
0.0
 11
6.2
 21
5.505
 31
0.0
  0
LINE
  5
2E3
  8
0
 10
6.2
 20
5.505
 30
0.0
 11
5.8
 21
5.505
 31
0.0
  0
LINE
  5
2E4
  8
0
 10
5.8
 20
5.46501
 30
0.0
 11
5.8
 21
5.49501
 31
0.0
  0
LINE
  5
2E5
  8
0
 10
5.8
 20
5.49501
 30
0.0
 11
6.2
 21
5.49501
 31
0.0
  0
LINE
  5
2E6
  8
0
 10
6.2
 20
5.49501
 30
0.0
 11
6.2
 21
5.46501
 31
0.0
  0
LINE
  5
2E7
  8
0
 10
6.2
 20
5.46501
 30
0.0
 11
5.8
 21
5.46501
 31
0.0
  0
LINE
  5
2E8
  8
0
 10
5.8
 20
5.425
 30
0.0
 11
5.8
 21
5.455
 31
0.0
  0
LINE
  5
2E9
  8
0
 10
5.8
 20
5.455
 30
0.0
 11
6.2
 21
5.455
 31
0.0
  0
LINE
  5
2EA
  8
0
 10
6.2
 20
5.455
 30
0.0
 11
6.2
 21
5.425
 31
0.0
  0
LINE
  5
2EB
  8
0
 10
6.2
 20
5.425
 30
0.0
 11
5.8
 21
5.425
 31
0.0
  0
LINE
  5
2EC
  8
0
 10
5.8
 20
5.38501
 30
0.0
 11
5.8
 21
5.41501
 31
0.0
  0
LINE
  5
2ED
  8
0
 10
5.8
 20
5.41501
 30
0.0
 11
6.2
 21
5.41501
 31
0.0
  0
LINE
  5
2EE
  8
0
 10
6.2
 20
5.41501
 30
0.0
 11
6.2
 21
5.38501
 31
0.0
  0
LINE
  5
2EF
  8
0
 10
6.2
 20
5.38501
 30
0.0
 11
5.8
 21
5.38501
 31
0.0
  0
LINE
  5
2F0
  8
0
 10
5.8
 20
5.345
 30
0.0
 11
5.8
 21
5.375
 31
0.0
  0
LINE
  5
2F1
  8
0
 10
5.8
 20
5.375
 30
0.0
 11
6.2
 21
5.375
 31
0.0
  0
LINE
  5
2F2
  8
0
 10
6.2
 20
5.375
 30
0.0
 11
6.2
 21
5.345
 31
0.0
  0
LINE
  5
2F3
  8
0
 10
6.2
 20
5.345
 30
0.0
 11
5.8
 21
5.345
 31
0.0
  0
LINE
  5
2F4
  8
0
 10
5.8
 20
5.30501
 30
0.0
 11
5.8
 21
5.33501
 31
0.0
  0
LINE
  5
2F5
  8
0
 10
5.8
 20
5.33501
 30
0.0
 11
6.2
 21
5.33501
 31
0.0
  0
LINE
  5
2F6
  8
0
 10
6.2
 20
5.33501
 30
0.0
 11
6.2
 21
5.30501
 31
0.0
  0
LINE
  5
2F7
  8
0
 10
6.2
 20
5.30501
 30
0.0
 11
5.8
 21
5.30501
 31
0.0
  0
LINE
  5
2F8
  8
0
 10
5.8
 20
5.26501
 30
0.0
 11
5.8
 21
5.29501
 31
0.0
  0
LINE
  5
2F9
  8
0
 10
5.8
 20
5.29501
 30
0.0
 11
6.2
 21
5.29501
 31
0.0
  0
LINE
  5
2FA
  8
0
 10
6.2
 20
5.29501
 30
0.0
 11
6.2
 21
5.26501
 31
0.0
  0
LINE
  5
2FB
  8
0
 10
6.2
 20
5.26501
 30
0.0
 11
5.8
 21
5.26501
 31
0.0
  0
LINE
  5
2FC
  8
0
 10
5.8
 20
5.22501
 30
0.0
 11
5.8
 21
5.255
 31
0.0
  0
LINE
  5
2FD
  8
0
 10
5.8
 20
5.255
 30
0.0
 11
6.2
 21
5.255
 31
0.0
  0
LINE
  5
2FE
  8
0
 10
6.2
 20
5.255
 30
0.0
 11
6.2
 21
5.22501
 31
0.0
  0
LINE
  5
2FF
  8
0
 10
6.2
 20
5.22501
 30
0.0
 11
5.8
 21
5.22501
 31
0.0
  0
LINE
  5
300
  8
0
 10
5.8
 20
5.18501
 30
0.0
 11
5.8
 21
5.21501
 31
0.0
  0
LINE
  5
301
  8
0
 10
5.8
 20
5.21501
 30
0.0
 11
6.2
 21
5.21501
 31
0.0
  0
LINE
  5
302
  8
0
 10
6.2
 20
5.21501
 30
0.0
 11
6.2
 21
5.18501
 31
0.0
  0
LINE
  5
303
  8
0
 10
6.2
 20
5.18501
 30
0.0
 11
5.8
 21
5.18501
 31
0.0
  0
LINE
  5
304
  8
0
 10
5.8
 20
5.145
 30
0.0
 11
5.8
 21
5.175
 31
0.0
  0
LINE
  5
305
  8
0
 10
5.8
 20
5.175
 30
0.0
 11
6.2
 21
5.175
 31
0.0
  0
LINE
  5
306
  8
0
 10
6.2
 20
5.175
 30
0.0
 11
6.2
 21
5.145
 31
0.0
  0
LINE
  5
307
  8
0
 10
6.2
 20
5.145
 30
0.0
 11
5.8
 21
5.145
 31
0.0
  0
LINE
  5
308
  8
0
 10
5.8
 20
5.10501
 30
0.0
 11
5.8
 21
5.13501
 31
0.0
  0
LINE
  5
309
  8
0
 10
5.8
 20
5.13501
 30
0.0
 11
6.2
 21
5.13501
 31
0.0
  0
LINE
  5
30A
  8
0
 10
6.2
 20
5.13501
 30
0.0
 11
6.2
 21
5.10501
 31
0.0
  0
LINE
  5
30B
  8
0
 10
6.2
 20
5.10501
 30
0.0
 11
5.8
 21
5.10501
 31
0.0
  0
LINE
  5
30C
  8
0
 10
5.8
 20
5.065
 30
0.0
 11
5.8
 21
5.095
 31
0.0
  0
LINE
  5
30D
  8
0
 10
5.8
 20
5.095
 30
0.0
 11
6.2
 21
5.095
 31
0.0
  0
LINE
  5
30E
  8
0
 10
6.2
 20
5.095
 30
0.0
 11
6.2
 21
5.065
 31
0.0
  0
LINE
  5
30F
  8
0
 10
6.2
 20
5.065
 30
0.0
 11
5.8
 21
5.065
 31
0.0
  0
LINE
  5
310
  8
0
 10
5.8
 20
5.02501
 30
0.0
 11
5.8
 21
5.05501
 31
0.0
  0
LINE
  5
311
  8
0
 10
5.8
 20
5.05501
 30
0.0
 11
6.2
 21
5.05501
 31
0.0
  0
LINE
  5
312
  8
0
 10
6.2
 20
5.05501
 30
0.0
 11
6.2
 21
5.02501
 31
0.0
  0
LINE
  5
313
  8
0
 10
6.2
 20
5.02501
 30
0.0
 11
5.8
 21
5.02501
 31
0.0
  0
LINE
  5
314
  8
0
 10
5.8
 20
4.985
 30
0.0
 11
5.8
 21
5.01501
 31
0.0
  0
LINE
  5
315
  8
0
 10
5.8
 20
5.01501
 30
0.0
 11
6.2
 21
5.01501
 31
0.0
  0
LINE
  5
316
  8
0
 10
6.2
 20
5.01501
 30
0.0
 11
6.2
 21
4.985
 31
0.0
  0
LINE
  5
317
  8
0
 10
6.2
 20
4.985
 30
0.0
 11
5.8
 21
4.985
 31
0.0
  0
LINE
  5
318
  8
0
 10
5.8
 20
4.94501
 30
0.0
 11
5.8
 21
4.97501
 31
0.0
  0
LINE
  5
319
  8
0
 10
5.8
 20
4.97501
 30
0.0
 11
6.2
 21
4.97501
 31
0.0
  0
LINE
  5
31A
  8
0
 10
6.2
 20
4.97501
 30
0.0
 11
6.2
 21
4.94501
 31
0.0
  0
LINE
  5
31B
  8
0
 10
6.2
 20
4.94501
 30
0.0
 11
5.8
 21
4.94501
 31
0.0
  0
LINE
  5
31C
  8
0
 10
5.8
 20
4.90501
 30
0.0
 11
5.8
 21
4.93501
 31
0.0
  0
LINE
  5
31D
  8
0
 10
5.8
 20
4.93501
 30
0.0
 11
6.2
 21
4.93501
 31
0.0
  0
LINE
  5
31E
  8
0
 10
6.2
 20
4.93501
 30
0.0
 11
6.2
 21
4.90501
 31
0.0
  0
LINE
  5
31F
  8
0
 10
6.2
 20
4.90501
 30
0.0
 11
5.8
 21
4.90501
 31
0.0
  0
LINE
  5
320
  8
0
 10
5.8
 20
4.86501
 30
0.0
 11
5.8
 21
4.895
 31
0.0
  0
LINE
  5
321
  8
0
 10
5.8
 20
4.895
 30
0.0
 11
6.2
 21
4.895
 31
0.0
  0
LINE
  5
322
  8
0
 10
6.2
 20
4.895
 30
0.0
 11
6.2
 21
4.86501
 31
0.0
  0
LINE
  5
323
  8
0
 10
6.2
 20
4.86501
 30
0.0
 11
5.8
 21
4.86501
 31
0.0
  0
LINE
  5
324
  8
0
 10
5.8
 20
4.82501
 30
0.0
 11
5.8
 21
4.85501
 31
0.0
  0
LINE
  5
325
  8
0
 10
5.8
 20
4.85501
 30
0.0
 11
6.2
 21
4.85501
 31
0.0
  0
LINE
  5
326
  8
0
 10
6.2
 20
4.85501
 30
0.0
 11
6.2
 21
4.82501
 31
0.0
  0
LINE
  5
327
  8
0
 10
6.2
 20
4.82501
 30
0.0
 11
5.8
 21
4.82501
 31
0.0
  0
LINE
  5
328
  8
0
 10
5.8
 20
4.785
 30
0.0
 11
5.8
 21
4.815
 31
0.0
  0
LINE
  5
329
  8
0
 10
5.8
 20
4.815
 30
0.0
 11
6.2
 21
4.815
 31
0.0
  0
LINE
  5
32A
  8
0
 10
6.2
 20
4.815
 30
0.0
 11
6.2
 21
4.785
 31
0.0
  0
LINE
  5
32B
  8
0
 10
6.2
 20
4.785
 30
0.0
 11
5.8
 21
4.785
 31
0.0
  0
LINE
  5
32C
  8
0
 10
5.8
 20
4.74501
 30
0.0
 11
5.8
 21
4.77501
 31
0.0
  0
LINE
  5
32D
  8
0
 10
5.8
 20
4.77501
 30
0.0
 11
6.2
 21
4.77501
 31
0.0
  0
LINE
  5
32E
  8
0
 10
6.2
 20
4.77501
 30
0.0
 11
6.2
 21
4.74501
 31
0.0
  0
LINE
  5
32F
  8
0
 10
6.2
 20
4.74501
 30
0.0
 11
5.8
 21
4.74501
 31
0.0
  0
LINE
  5
330
  8
0
 10
5.8
 20
4.705
 30
0.0
 11
5.8
 21
4.735
 31
0.0
  0
LINE
  5
331
  8
0
 10
5.8
 20
4.735
 30
0.0
 11
6.2
 21
4.735
 31
0.0
  0
LINE
  5
332
  8
0
 10
6.2
 20
4.735
 30
0.0
 11
6.2
 21
4.705
 31
0.0
  0
LINE
  5
333
  8
0
 10
6.2
 20
4.705
 30
0.0
 11
5.8
 21
4.705
 31
0.0
  0
LINE
  5
334
  8
0
 10
5.8
 20
4.66501
 30
0.0
 11
5.8
 21
4.69501
 31
0.0
  0
LINE
  5
335
  8
0
 10
5.8
 20
4.69501
 30
0.0
 11
6.2
 21
4.69501
 31
0.0
  0
LINE
  5
336
  8
0
 10
6.2
 20
4.69501
 30
0.0
 11
6.2
 21
4.66501
 31
0.0
  0
LINE
  5
337
  8
0
 10
6.2
 20
4.66501
 30
0.0
 11
5.8
 21
4.66501
 31
0.0
  0
LINE
  5
338
  8
0
 10
5.8
 20
4.625
 30
0.0
 11
5.8
 21
4.65501
 31
0.0
  0
LINE
  5
339
  8
0
 10
5.8
 20
4.65501
 30
0.0
 11
6.2
 21
4.65501
 31
0.0
  0
LINE
  5
33A
  8
0
 10
6.2
 20
4.65501
 30
0.0
 11
6.2
 21
4.625
 31
0.0
  0
LINE
  5
33B
  8
0
 10
6.2
 20
4.625
 30
0.0
 11
5.8
 21
4.625
 31
0.0
  0
LINE
  5
33C
  8
0
 10
5.8
 20
4.58501
 30
0.0
 11
5.8
 21
4.61501
 31
0.0
  0
LINE
  5
33D
  8
0
 10
5.8
 20
4.61501
 30
0.0
 11
6.2
 21
4.61501
 31
0.0
  0
LINE
  5
33E
  8
0
 10
6.2
 20
4.61501
 30
0.0
 11
6.2
 21
4.58501
 31
0.0
  0
LINE
  5
33F
  8
0
 10
6.2
 20
4.58501
 30
0.0
 11
5.8
 21
4.58501
 31
0.0
  0
LINE
  5
340
  8
0
 10
5.8
 20
4.54501
 30
0.0
 11
5.8
 21
4.57501
 31
0.0
  0
LINE
  5
341
  8
0
 10
5.8
 20
4.57501
 30
0.0
 11
6.2
 21
4.57501
 31
0.0
  0
LINE
  5
342
  8
0
 10
6.2
 20
4.57501
 30
0.0
 11
6.2
 21
4.54501
 31
0.0
  0
LINE
  5
343
  8
0
 10
6.2
 20
4.54501
 30
0.0
 11
5.8
 21
4.54501
 31
0.0
  0
LINE
  5
344
  8
0
 10
5.8
 20
4.505
 30
0.0
 11
5.8
 21
4.535
 31
0.0
  0
LINE
  5
345
  8
0
 10
5.8
 20
4.535
 30
0.0
 11
6.2
 21
4.535
 31
0.0
  0
LINE
  5
346
  8
0
 10
6.2
 20
4.535
 30
0.0
 11
6.2
 21
4.505
 31
0.0
  0
LINE
  5
347
  8
0
 10
6.2
 20
4.505
 30
0.0
 11
5.8
 21
4.505
 31
0.0
  0
LINE
  5
348
  8
0
 10
5.8
 20
4.46501
 30
0.0
 11
5.8
 21
4.49501
 31
0.0
  0
LINE
  5
349
  8
0
 10
5.8
 20
4.49501
 30
0.0
 11
6.2
 21
4.49501
 31
0.0
  0
LINE
  5
34A
  8
0
 10
6.2
 20
4.49501
 30
0.0
 11
6.2
 21
4.46501
 31
0.0
  0
LINE
  5
34B
  8
0
 10
6.2
 20
4.46501
 30
0.0
 11
5.8
 21
4.46501
 31
0.0
  0
LINE
  5
34C
  8
0
 10
5.8
 20
4.425
 30
0.0
 11
5.8
 21
4.455
 31
0.0
  0
LINE
  5
34D
  8
0
 10
5.8
 20
4.455
 30
0.0
 11
6.2
 21
4.455
 31
0.0
  0
LINE
  5
34E
  8
0
 10
6.2
 20
4.455
 30
0.0
 11
6.2
 21
4.425
 31
0.0
  0
LINE
  5
34F
  8
0
 10
6.2
 20
4.425
 30
0.0
 11
5.8
 21
4.425
 31
0.0
  0
LINE
  5
350
  8
0
 10
5.8
 20
4.38501
 30
0.0
 11
5.8
 21
4.41501
 31
0.0
  0
LINE
  5
351
  8
0
 10
5.8
 20
4.41501
 30
0.0
 11
6.2
 21
4.41501
 31
0.0
  0
LINE
  5
352
  8
0
 10
6.2
 20
4.41501
 30
0.0
 11
6.2
 21
4.38501
 31
0.0
  0
LINE
  5
353
  8
0
 10
6.2
 20
4.38501
 30
0.0
 11
5.8
 21
4.38501
 31
0.0
  0
LINE
  5
354
  8
0
 10
5.8
 20
4.345
 30
0.0
 11
5.8
 21
4.375
 31
0.0
  0
LINE
  5
355
  8
0
 10
5.8
 20
4.375
 30
0.0
 11
6.2
 21
4.375
 31
0.0
  0
LINE
  5
356
  8
0
 10
6.2
 20
4.375
 30
0.0
 11
6.2
 21
4.345
 31
0.0
  0
LINE
  5
357
  8
0
 10
6.2
 20
4.345
 30
0.0
 11
5.8
 21
4.345
 31
0.0
  0
LINE
  5
358
  8
0
 10
5.8
 20
4.30501
 30
0.0
 11
5.8
 21
4.33501
 31
0.0
  0
LINE
  5
359
  8
0
 10
5.8
 20
4.33501
 30
0.0
 11
6.2
 21
4.33501
 31
0.0
  0
LINE
  5
35A
  8
0
 10
6.2
 20
4.33501
 30
0.0
 11
6.2
 21
4.30501
 31
0.0
  0
LINE
  5
35B
  8
0
 10
6.2
 20
4.30501
 30
0.0
 11
5.8
 21
4.30501
 31
0.0
  0
LINE
  5
35C
  8
0
 10
5.8
 20
4.26501
 30
0.0
 11
5.8
 21
4.29501
 31
0.0
  0
LINE
  5
35D
  8
0
 10
5.8
 20
4.29501
 30
0.0
 11
6.2
 21
4.29501
 31
0.0
  0
LINE
  5
35E
  8
0
 10
6.2
 20
4.29501
 30
0.0
 11
6.2
 21
4.26501
 31
0.0
  0
LINE
  5
35F
  8
0
 10
6.2
 20
4.26501
 30
0.0
 11
5.8
 21
4.26501
 31
0.0
  0
LINE
  5
360
  8
0
 10
5.8
 20
4.22501
 30
0.0
 11
5.8
 21
4.255
 31
0.0
  0
LINE
  5
361
  8
0
 10
5.8
 20
4.255
 30
0.0
 11
6.2
 21
4.255
 31
0.0
  0
LINE
  5
362
  8
0
 10
6.2
 20
4.255
 30
0.0
 11
6.2
 21
4.22501
 31
0.0
  0
LINE
  5
363
  8
0
 10
6.2
 20
4.22501
 30
0.0
 11
5.8
 21
4.22501
 31
0.0
  0
LINE
  5
364
  8
0
 10
5.8
 20
4.18501
 30
0.0
 11
5.8
 21
4.21501
 31
0.0
  0
LINE
  5
365
  8
0
 10
5.8
 20
4.21501
 30
0.0
 11
6.2
 21
4.21501
 31
0.0
  0
LINE
  5
366
  8
0
 10
6.2
 20
4.21501
 30
0.0
 11
6.2
 21
4.18501
 31
0.0
  0
LINE
  5
367
  8
0
 10
6.2
 20
4.18501
 30
0.0
 11
5.8
 21
4.18501
 31
0.0
  0
LINE
  5
368
  8
0
 10
5.8
 20
4.145
 30
0.0
 11
5.8
 21
4.175
 31
0.0
  0
LINE
  5
369
  8
0
 10
5.8
 20
4.175
 30
0.0
 11
6.2
 21
4.175
 31
0.0
  0
LINE
  5
36A
  8
0
 10
6.2
 20
4.175
 30
0.0
 11
6.2
 21
4.145
 31
0.0
  0
LINE
  5
36B
  8
0
 10
6.2
 20
4.145
 30
0.0
 11
5.8
 21
4.145
 31
0.0
  0
LINE
  5
36C
  8
0
 10
5.8
 20
4.10501
 30
0.0
 11
5.8
 21
4.13501
 31
0.0
  0
LINE
  5
36D
  8
0
 10
5.8
 20
4.13501
 30
0.0
 11
6.2
 21
4.13501
 31
0.0
  0
LINE
  5
36E
  8
0
 10
6.2
 20
4.13501
 30
0.0
 11
6.2
 21
4.10501
 31
0.0
  0
LINE
  5
36F
  8
0
 10
6.2
 20
4.10501
 30
0.0
 11
5.8
 21
4.10501
 31
0.0
  0
LINE
  5
370
  8
0
 10
5.8
 20
4.065
 30
0.0
 11
5.8
 21
4.095
 31
0.0
  0
LINE
  5
371
  8
0
 10
5.8
 20
4.095
 30
0.0
 11
6.2
 21
4.095
 31
0.0
  0
LINE
  5
372
  8
0
 10
6.2
 20
4.095
 30
0.0
 11
6.2
 21
4.065
 31
0.0
  0
LINE
  5
373
  8
0
 10
6.2
 20
4.065
 30
0.0
 11
5.8
 21
4.065
 31
0.0
  0
ENDSEC
  0
EOF
