0
SECTION
2
HEADER
9
$INSUNITS
70
1
9
$ACADVER
1
AC1014
9
$HANDSEED
5
FFFF
0
ENDSEC
0
SECTION
2
TABLES
0
TABLE
2
VPORT
5
8
100
AcDbSymbolTable
0
ENDTAB
0
TABLE
2
LTYPE
5
5
100
AcDbSymbolTable
0
LTYPE
5
14
100
AcDbSymbolTableRecord
100
AcDbLinetypeTableRecord
2
BYBLOCK
70
0
0
LTYPE
5
15
100
AcDbSymbolTableRecord
100
AcDbLinetypeTableRecord
2
BYLAYER
70
0
0
LTYPE
5
16
100
AcDbSymbolTableRecord
100
AcDbLinetypeTableRecord
2
DASHED
70
0
3
Dashed __ __ __ __ __ __ __ __ __ __ __ __ __ _
72
65
73
2
40
0.75
49
0.5
74
0
49
-0.25
74
0
0
ENDTAB
0
TABLE
2
LAYER
5
2
100
AcDbSymbolTable
70
3
0
LAYER
5
50
100
AcDbSymbolTableRecord
100
AcDbLayerTableRecord
2
1
70
0
62
7
6
DASHED
0
LAYER
5
51
100
AcDbSymbolTableRecord
100
AcDbLayerTableRecord
2
0
70
0
62
7
6
CONTINUOUS
0
ENDTAB
0
TABLE
2
STYLE
5
3
100
AcDbSymbolTable
70
1
0
STYLE
5
11
100
AcDbSymbolTableRecord
100
AcDbTextStyleTableRecord
2
STANDARD
70
0
0
ENDTAB
0
TABLE
2
VIEW
5
6
100
AcDbSymbolTable
70
0
0
ENDTAB
0
TABLE
2
UCS
5
7
100
AcDbSymbolTable
70
0
0
ENDTAB
0
TABLE
2
APPID
5
9
100
AcDbSymbolTable
70
2
0
APPID
5
12
100
AcDbSymbolTableRecord
100
AcDbRegAppTableRecord
2
ACAD
70
0
0
ENDTAB
0
TABLE
2
DIMSTYLE
5
A
100
AcDbSymbolTable
70
1
0
ENDTAB
0
TABLE
2
BLOCK_RECORD
5
1
100
AcDbSymbolTable
70
1
0
BLOCK_RECORD
5
1F
100
AcDbSymbolTableRecord
100
AcDbBlockTableRecord
2
*MODEL_SPACE
0
BLOCK_RECORD
5
1B
100
AcDbSymbolTableRecord
100
AcDbBlockTableRecord
2
*PAPER_SPACE
0
ENDTAB
0
ENDSEC
0
SECTION
2
BLOCKS
0
BLOCK
5
20
100
AcDbEntity
100
AcDbBlockBegin
2
*MODEL_SPACE
0
ENDBLK
5
21
100
AcDbEntity
100
AcDbBlockEnd
0
BLOCK
5
1C
100
AcDbEntity
100
AcDbBlockBegin
2
*PAPER_SPACE
0
ENDBLK
5
1D
100
AcDbEntity
100
AcDbBlockEnd
0
ENDSEC
0
SECTION
2
ENTITIES
0
LWPOLYLINE
5
100
100
AcDbEntity
8
OUTER_PROFILES
100
AcDbPolyline
90
30
70
1
43
0.0
10
-0.78306584323570017
20
0.78306584323570017
10
-0.43988000852992948
20
0.78306584323570017
10
-0.43988000852992948
20
0.93068583470576938
10
-0.039880008529930226
20
0.93068583470576938
10
-0.039880008529930226
20
0.5306858347057708
10
-0.18750000000000008
20
0.5306858347057708
10
-0.1875
20
0.18750000000000008
42
0.41421356237309509
10
2.18547839493141e-17
20
8.7419135797256413e-17
10
5.9116116523516817
20
-6.9935308637805131e-16
42
0.41421356237309515
10
6.0991116523516817
20
0.18749999999999944
10
6.0991116523516817
20
0.5306858347057708
10
5.9514916608816124
20
0.5306858347057708
10
5.9514916608816124
20
0.93068583470576938
10
6.3514916608816119
20
0.93068583470576938
10
6.3514916608816119
20
0.78306584323570017
10
6.694677495587384
20
0.78306584323570017
42
0.41421356237309448
10
6.882177495587384
20
0.97056584323569994
10
6.882177495587384
20
6.8638716694115409
42
0.41421356237309509
10
6.694677495587384
20
7.0513716694115418
10
5.5261359120657527
20
7.0513716694115418
42
0.19891236737965798
10
5.260970869120797
20
6.9415367123564966
10
4.6681407832308865
20
6.3487066264665852
42
-0.19891236737965798
10
4.4029757402859309
20
6.2388716694115409
10
1.5086359120657515
20
6.2388716694115409
42
-0.19891236737965798
10
1.2434708691207963
20
6.3487066264665852
10
0.6506407832308847
20
6.9415367123564966
42
0.19891236737965776
10
0.38547574028592935
20
7.0513716694115418
10
-0.78306584323569994
20
7.05137166941154
42
0.41421356237309542
10
-0.97056584323570028
20
6.86387166941154
10
-0.97056584323570028
20
0.97056584323570028
42
0.41421356237309509
0
CIRCLE
5
101
100
AcDbEntity
8
INTERIOR_PROFILES
100
AcDbCircle
10
-6.659677495587383
20
6.5513716694115418
30
0
40
0.067500000000000032
210
0
220
0
230
-1
0
CIRCLE
5
102
100
AcDbEntity
8
INTERIOR_PROFILES
100
AcDbCircle
10
0.74806584323570136
20
6.5513716694115418
30
0
40
0.067500000000000032
210
0
220
0
230
-1
0
CIRCLE
5
103
100
AcDbEntity
8
INTERIOR_PROFILES
100
AcDbCircle
10
0.74806584323570136
20
1.2830658432357001
30
0
40
0.067499999999999866
210
0
220
0
230
-1
0
CIRCLE
5
104
100
AcDbEntity
8
INTERIOR_PROFILES
100
AcDbCircle
10
-6.659677495587383
20
1.2830658432357001
30
0
40
0.067499999999999866
210
0
220
0
230
-1
0
LINE
5
105
100
AcDbEntity
8
BEND
100
AcDbLine
10
-0.23988000852992916
20
7.05137166941154
30
3.6278941355861409e-15
11
-0.23988000852992916
21
0.93068583470576938
31
3.4530558639916284e-15
0
LINE
5
106
100
AcDbEntity
8
BEND
100
AcDbLine
10
-0.039880008529930226
20
0.73068583470577109
30
3.6278941355861409e-15
11
5.9514916608816124
21
0.73068583470577109
31
3.4530558639916284e-15
0
LINE
5
107
100
AcDbEntity
8
BEND
100
AcDbLine
10
6.1514916608816126
20
0.93068583470576938
30
3.4967654318902565e-15
11
6.1514916608816126
21
7.05137166941154
31
3.4530558639916284e-15
0
LINE
5
108
100
AcDbEntity
8
BEND_EXTENT
100
AcDbLine
10
5.9514916608816115
20
0.66000000000000036
30
2.7974123455122052e-15
11
-0.039880008529930226
21
0.66000000000000036
31
2.7974123455122052e-15
0
LINE
5
109
100
AcDbEntity
8
BEND_EXTENT
100
AcDbLine
10
6.2221774955873821
20
7.0513716694115418
30
2.7974123455122052e-15
11
6.2221774955873821
21
0.93068583470576938
31
2.7142131461559986e-15
0
LINE
5
110
100
AcDbEntity
8
BEND_EXTENT
100
AcDbLine
10
-0.16919417382415905
20
7.0513716694115418
30
3.4967654318902565e-15
11
-0.16919417382415905
21
0.93068583470576938
31
3.4967654318902565e-15
0
LINE
5
111
100
AcDbEntity
8
BEND_EXTENT
100
AcDbLine
10
-0.039880008529930226
20
0.80137166941154125
30
3.4967654318902565e-15
11
5.9514916608816124
21
0.80137166941154125
31
3.4967654318902565e-15
0
LINE
5
112
100
AcDbEntity
8
BEND_EXTENT
100
AcDbLine
10
6.0808058261758413
20
0.93068583470576938
30
3.4967654318902565e-15
11
6.0808058261758413
21
7.0513716694115418
31
3.4967654318902565e-15
0
LINE
5
113
100
AcDbEntity
8
BEND_EXTENT
100
AcDbLine
10
-0.31056584323569997
20
0.93068583470576938
30
2.7142131461559986e-15
11
-0.31056584323569997
21
7.05137166941154
31
2.7974123455122052e-15
0
ENDSEC
0
SECTION
2
OBJECTS
0
DICTIONARY
5
C
100
AcDbDictionary
3
ACAD_GROUP
350
D
3
ACAD_MLINESTYLE
350
17
0
DICTIONARY
5
D
100
AcDbDictionary
0
DICTIONARY
5
1A
330
C
100
AcDbDictionary
0
DICTIONARY
5
17
100
AcDbDictionary
0
ENDSEC
0
EOF
