  0
SECTION
  2
HEADER
  9
$ACADVER
  1
AC1009
  9
$DWGCODEPAGE
  3
ANSI_1252
  9
$INSBASE
 10
0.0
 20
0.0
 30
0.0
  9
$EXTMIN
 10
1e+20
 20
1e+20
 30
1e+20
  9
$EXTMAX
 10
-1e+20
 20
-1e+20
 30
-1e+20
  9
$LIMMIN
 10
0.0
 20
0.0
  9
$LIMMAX
 10
420.0
 20
297.0
  9
$ORTHOMODE
 70
0
  9
$REGENMODE
 70
1
  9
$FILLMODE
 70
1
  9
$DRAGMODE
 70
2
  9
$QTEXTMODE
 70
0
  9
$MIRRTEXT
 70
1
  9
$OSMODE
 70
20583
  9
$LTSCALE
 40
1.0
  9
$ATTMODE
 70
1
  9
$TEXTSIZE
 40
2.5
  9
$TRACEWID
 40
1.0
  9
$TEXTSTYLE
  7
Standard
  9
$CLAYER
  8
0
  9
$CELTYPE
  6
ByLayer
  9
$CECOLOR
 62
256
  9
$DIMSCALE
 40
1.0
  9
$DIMASZ
 40
2.5
  9
$DIMEXO
 40
0.625
  9
$DIMDLI
 40
3.75
  9
$DIMRND
 40
0.0
  9
$DIMDLE
 40
0.0
  9
$DIMEXE
 40
1.25
  9
$DIMTP
 40
0.0
  9
$DIMTM
 40
0.0
  9
$DIMTXT
 40
2.5
  9
$DIMCEN
 40
2.5
  9
$DIMTSZ
 40
0.0
  9
$DIMTOL
 70
0
  9
$DIMLIM
 70
0
  9
$DIMTIH
 70
0
  9
$DIMTOH
 70
0
  9
$DIMSE1
 70
0
  9
$DIMSE2
 70
0
  9
$DIMTAD
 70
1
  9
$DIMZIN
 70
8
  9
$DIMBLK
  1

  9
$DIMASO
 70
1
  9
$DIMSHO
 70
1
  9
$DIMPOST
  1

  9
$DIMAPOST
  1

  9
$DIMALT
 70
0
  9
$DIMALTD
 70
3
  9
$DIMALTF
 40
0.03937007874
  9
$DIMLFAC
 40
1.0
  9
$DIMTOFL
 70
1
  9
$DIMTVP
 40
0.0
  9
$DIMTIX
 70
0
  9
$DIMSOXD
 70
0
  9
$DIMSAH
 70
0
  9
$DIMBLK1
  1

  9
$DIMBLK2
  1

  9
$DIMSTYLE
  2
ISO-25
  9
$DIMCLRD
 70
0
  9
$DIMCLRE
 70
0
  9
$DIMCLRT
 70
0
  9
$DIMTFAC
 40
1.0
  9
$DIMGAP
 40
0.625
  9
$COORDS
 70
1
  9
$ATTDIA
 70
0
  9
$ATTREQ
 70
1
  9
$HANDLING
 70
1
  9
$LUNITS
 70
2
  9
$LUPREC
 70
4
  9
$SKETCHINC
 40
1.0
  9
$FILLETRAD
 40
10.0
  9
$AUNITS
 70
0
  9
$AUPREC
 70
2
  9
$MENU
  1
.
  9
$ELEVATION
 40
0.0
  9
$PELEVATION
 40
0.0
  9
$THICKNESS
 40
0.0
  9
$LIMCHECK
 70
0
  9
$CHAMFERA
 40
0.0
  9
$CHAMFERB
 40
0.0
  9
$SKPOLY
 70
0
  9
$TDCREATE
 40
2460587.474814815
  9
$TDUPDATE
 40
2460587.474814815
  9
$TDINDWG
 40
0.0
  9
$TDUSRTIMER
 40
0.0
  9
$USRTIMER
 70
1
  9
$ANGBASE
 50
0.0
  9
$ANGDIR
 70
0
  9
$PDMODE
 70
0
  9
$PDSIZE
 40
0.0
  9
$PLINEWID
 40
0.0
  9
$SPLFRAME
 70
0
  9
$SPLINETYPE
 70
6
  9
$SPLINESEGS
 70
8
  9
$HANDSEED
  5
185
  9
$SURFTAB1
 70
6
  9
$SURFTAB2
 70
6
  9
$SURFTYPE
 70
6
  9
$SURFU
 70
6
  9
$SURFV
 70
6
  9
$UCSNAME
  2

  9
$UCSORG
 10
0.0
 20
0.0
 30
0.0
  9
$UCSXDIR
 10
1.0
 20
0.0
 30
0.0
  9
$UCSYDIR
 10
0.0
 20
1.0
 30
0.0
  9
$PUCSNAME
  2

  9
$PUCSORG
 10
0.0
 20
0.0
 30
0.0
  9
$PUCSXDIR
 10
1.0
 20
0.0
 30
0.0
  9
$PUCSYDIR
 10
0.0
 20
1.0
 30
0.0
  9
$USERI1
 70
0
  9
$USERI2
 70
0
  9
$USERI3
 70
0
  9
$USERI4
 70
0
  9
$USERI5
 70
0
  9
$USERR1
 40
0.0
  9
$USERR2
 40
0.0
  9
$USERR3
 40
0.0
  9
$USERR4
 40
0.0
  9
$USERR5
 40
0.0
  9
$WORLDVIEW
 70
1
  9
$SHADEDGE
 70
3
  9
$SHADEDIF
 70
70
  9
$TILEMODE
 70
1
  9
$MAXACTVP
 70
64
  9
$PLIMCHECK
 70
0
  9
$PEXTMIN
 10
1e+20
 20
1e+20
 30
1e+20
  9
$PEXTMAX
 10
-1e+20
 20
-1e+20
 30
-1e+20
  9
$PLIMMIN
 10
0.0
 20
0.0
  9
$PLIMMAX
 10
420.0
 20
297.0
  9
$UNITMODE
 70
0
  9
$VISRETAIN
 70
1
  9
$PLINEGEN
 70
0
  9
$PSLTSCALE
 70
1
  0
ENDSEC
  0
SECTION
  2
TABLES
  0
TABLE
  2
VPORT
 70
1
  0
VPORT
  5
179
  2
*Active
 70
0
 10
0.0
 20
0.0
 11
1.0
 21
1.0
 12
0.0
 22
0.0
 13
0.0
 23
0.0
 14
0.5
 24
0.5
 15
0.5
 25
0.5
 16
0.0
 26
0.0
 36
1.0
 17
0.0
 27
0.0
 37
0.0
 40
1000.0
 41
1.34
 42
50.0
 43
0.0
 44
0.0
 50
0.0
 51
0.0
 71
0
 72
1000
 73
1
 74
3
 75
0
 76
0
 77
0
 78
0
  0
ENDTAB
  0
TABLE
  2
LTYPE
 70
3
  0
LTYPE
  5
17A
  2
ByBlock
 70
0
  3

 72
65
 73
0
 40
0.0
  0
LTYPE
  5
17B
  2
ByLayer
 70
0
  3

 72
65
 73
0
 40
0.0
  0
LTYPE
  5
17C
  2
Continuous
 70
0
  3

 72
65
 73
0
 40
0.0
  0
ENDTAB
  0
TABLE
  2
LAYER
 70
2
  0
LAYER
  5
17D
  2
0
 70
0
 62
7
  6
Continuous
  0
LAYER
  5
17E
  2
Defpoints
 70
0
 62
7
  6
Continuous
  0
ENDTAB
  0
TABLE
  2
STYLE
 70
1
  0
STYLE
  5
17F
  2
Standard
 70
0
 40
0.0
 41
1.0
 50
0.0
 71
0
 42
2.5
  3
txt
  4

  0
ENDTAB
  0
TABLE
  2
VIEW
 70
0
  0
ENDTAB
  0
TABLE
  2
UCS
 70
0
  0
ENDTAB
  0
TABLE
  2
APPID
 70
3
  0
APPID
  5
180
  2
ACAD
 70
0
  0
APPID
  5
183
  2
HATCHBACKGROUNDCOLOR
 70
0
  0
APPID
  5
184
  2
EZDXF
 70
0
  0
ENDTAB
  0
TABLE
  2
DIMSTYLE
 70
1
  0
DIMSTYLE
105
181
  2
Standard
 70
0
  3

  4

  5

  6

  7

 40
1.0
 41
2.5
 42
0.625
 43
3.75
 44
1.25
 45
0.0
 46
0.0
 47
0.0
 48
0.0
140
2.5
141
2.5
142
0.0
143
0.03937007874
144
1.0
145
0.0
146
1.0
147
0.625
 71
0
 72
0
 73
0
 74
0
 75
0
 76
0
 77
1
 78
8
170
0
171
3
172
1
173
0
174
0
175
0
176
0
177
0
178
0
  0
ENDTAB
  0
ENDSEC
  0
SECTION
  2
BLOCKS
  0
BLOCK
  5
15A
  8
0
  2
$Model_Space
 70
0
 10
0.0
 20
0.0
 30
0.0
  3
$Model_Space
  1

1001
EZDXF
1000
WRITTEN_BY_EZDXF
1000
1.3.3 @ 2024-10-03T15:23:44.548070+00:00
  0
ENDBLK
  5
15B
  8
0
  0
BLOCK
  5
15C
  8
0
  2
$Paper_Space
 70
0
 10
0.0
 20
0.0
 30
0.0
  3
$Paper_Space
  1

  0
ENDBLK
  5
15D
  8
0
  0
ENDSEC
  0
SECTION
  2
ENTITIES
  0
LINE
  5
100
  8
0
 10
13.7303
 20
2.16132
 30
0.0
 11
13.9585
 21
2.19516
 31
0.0
  0
LINE
  5
101
  8
0
 10
13.9585
 20
2.19516
 30
0.0
 11
14.1822
 21
2.25121
 31
0.0
  0
LINE
  5
102
  8
0
 10
14.1822
 20
2.25121
 30
0.0
 11
14.3993
 21
2.32889
 31
0.0
  0
LINE
  5
103
  8
0
 10
14.3993
 20
2.32889
 30
0.0
 11
14.6078
 21
2.42749
 31
0.0
  0
LINE
  5
104
  8
0
 10
14.6078
 20
2.42749
 30
0.0
 11
14.8056
 21
2.54605
 31
0.0
  0
LINE
  5
105
  8
0
 10
14.8056
 20
2.54605
 30
0.0
 11
14.9908
 21
2.68343
 31
0.0
  0
LINE
  5
106
  8
0
 10
14.9908
 20
2.68343
 30
0.0
 11
15.1617
 21
2.8383
 31
0.0
  0
LINE
  5
107
  8
0
 10
15.1617
 20
2.8383
 30
0.0
 11
15.3166
 21
3.00919
 31
0.0
  0
LINE
  5
108
  8
0
 10
15.3166
 20
3.00919
 30
0.0
 11
15.4539
 21
3.19441
 31
0.0
  0
LINE
  5
109
  8
0
 10
15.4539
 20
3.19441
 30
0.0
 11
15.5725
 21
3.39223
 31
0.0
  0
LINE
  5
10A
  8
0
 10
15.5725
 20
3.39223
 30
0.0
 11
15.6711
 21
3.60071
 31
0.0
  0
LINE
  5
10B
  8
0
 10
15.6711
 20
3.60071
 30
0.0
 11
15.7488
 21
3.81784
 31
0.0
  0
LINE
  5
10C
  8
0
 10
15.7488
 20
3.81784
 30
0.0
 11
15.8048
 21
4.04155
 31
0.0
  0
LINE
  5
10D
  8
0
 10
15.8048
 20
4.04155
 30
0.0
 11
15.8387
 21
4.26967
 31
0.0
  0
LINE
  5
10E
  8
0
 10
15.8387
 20
4.26967
 30
0.0
 11
15.85
 21
4.5
 31
0.0
  0
LINE
  5
10F
  8
0
 10
15.85
 20
4.5
 30
0.0
 11
15.8387
 21
4.73033
 31
0.0
  0
LINE
  5
110
  8
0
 10
15.8387
 20
4.73033
 30
0.0
 11
15.8048
 21
4.95845
 31
0.0
  0
LINE
  5
111
  8
0
 10
15.8048
 20
4.95845
 30
0.0
 11
15.7488
 21
5.18216
 31
0.0
  0
LINE
  5
112
  8
0
 10
15.7488
 20
5.18216
 30
0.0
 11
15.6711
 21
5.39929
 31
0.0
  0
LINE
  5
113
  8
0
 10
15.6711
 20
5.39929
 30
0.0
 11
15.5725
 21
5.60777
 31
0.0
  0
LINE
  5
114
  8
0
 10
15.5725
 20
5.60777
 30
0.0
 11
15.4539
 21
5.80559
 31
0.0
  0
LINE
  5
115
  8
0
 10
15.4539
 20
5.80559
 30
0.0
 11
15.3166
 21
5.99081
 31
0.0
  0
LINE
  5
116
  8
0
 10
15.3166
 20
5.99081
 30
0.0
 11
15.1617
 21
6.1617
 31
0.0
  0
LINE
  5
117
  8
0
 10
15.1617
 20
6.1617
 30
0.0
 11
14.9908
 21
6.31657
 31
0.0
  0
LINE
  5
118
  8
0
 10
14.9908
 20
6.31657
 30
0.0
 11
14.8056
 21
6.45395
 31
0.0
  0
LINE
  5
119
  8
0
 10
14.8056
 20
6.45395
 30
0.0
 11
14.6078
 21
6.57251
 31
0.0
  0
LINE
  5
11A
  8
0
 10
14.6078
 20
6.57251
 30
0.0
 11
14.3993
 21
6.67111
 31
0.0
  0
LINE
  5
11B
  8
0
 10
14.3993
 20
6.67111
 30
0.0
 11
14.1822
 21
6.74879
 31
0.0
  0
LINE
  5
11C
  8
0
 10
14.1822
 20
6.74879
 30
0.0
 11
13.9585
 21
6.80484
 31
0.0
  0
LINE
  5
11D
  8
0
 10
13.9585
 20
6.80484
 30
0.0
 11
13.7303
 21
6.83868
 31
0.0
  0
LINE
  5
11E
  8
0
 10
13.7303
 20
6.83868
 30
0.0
 11
13.5
 21
6.84999
 31
0.0
  0
LINE
  5
11F
  8
0
 10
13.5
 20
6.84999
 30
0.0
 11
9.14999
 21
6.84999
 31
0.0
  0
LINE
  5
120
  8
0
 10
9.14999
 20
6.84999
 30
0.0
 11
9.14999
 21
2.15001
 31
0.0
  0
LINE
  5
121
  8
0
 10
9.14999
 20
2.15001
 30
0.0
 11
13.5
 21
2.15001
 31
0.0
  0
LINE
  5
122
  8
0
 10
13.5
 20
2.15001
 30
0.0
 11
13.7303
 21
2.16132
 31
0.0
  0
LINE
  5
123
  8
0
 10
12.0
 20
3.5
 30
0.0
 11
12.0
 21
5.5
 31
0.0
  0
LINE
  5
124
  8
0
 10
12.0
 20
5.5
 30
0.0
 11
14.0
 21
5.5
 31
0.0
  0
LINE
  5
125
  8
0
 10
14.0
 20
5.5
 30
0.0
 11
14.0
 21
3.5
 31
0.0
  0
LINE
  5
126
  8
0
 10
14.0
 20
3.5
 30
0.0
 11
12.0
 21
3.5
 31
0.0
  0
LINE
  5
127
  8
0
 10
8.85001
 20
6.84999
 30
0.0
 11
4.5
 21
6.84999
 31
0.0
  0
LINE
  5
128
  8
0
 10
4.5
 20
6.84999
 30
0.0
 11
4.26967
 21
6.83868
 31
0.0
  0
LINE
  5
129
  8
0
 10
4.26967
 20
6.83868
 30
0.0
 11
4.04155
 21
6.80484
 31
0.0
  0
LINE
  5
12A
  8
0
 10
4.04155
 20
6.80484
 30
0.0
 11
3.81784
 21
6.74879
 31
0.0
  0
LINE
  5
12B
  8
0
 10
3.81784
 20
6.74879
 30
0.0
 11
3.60071
 21
6.67111
 31
0.0
  0
LINE
  5
12C
  8
0
 10
3.60071
 20
6.67111
 30
0.0
 11
3.39223
 21
6.57251
 31
0.0
  0
LINE
  5
12D
  8
0
 10
3.39223
 20
6.57251
 30
0.0
 11
3.19441
 21
6.45395
 31
0.0
  0
LINE
  5
12E
  8
0
 10
3.19441
 20
6.45395
 30
0.0
 11
3.00919
 21
6.31657
 31
0.0
  0
LINE
  5
12F
  8
0
 10
3.00919
 20
6.31657
 30
0.0
 11
2.8383
 21
6.1617
 31
0.0
  0
LINE
  5
130
  8
0
 10
2.8383
 20
6.1617
 30
0.0
 11
2.68343
 21
5.99081
 31
0.0
  0
LINE
  5
131
  8
0
 10
2.68343
 20
5.99081
 30
0.0
 11
2.54605
 21
5.80559
 31
0.0
  0
LINE
  5
132
  8
0
 10
2.54605
 20
5.80559
 30
0.0
 11
2.42749
 21
5.60777
 31
0.0
  0
LINE
  5
133
  8
0
 10
2.42749
 20
5.60777
 30
0.0
 11
2.32889
 21
5.39929
 31
0.0
  0
LINE
  5
134
  8
0
 10
2.32889
 20
5.39929
 30
0.0
 11
2.25121
 21
5.18216
 31
0.0
  0
LINE
  5
135
  8
0
 10
2.25121
 20
5.18216
 30
0.0
 11
2.19516
 21
4.95845
 31
0.0
  0
LINE
  5
136
  8
0
 10
2.19516
 20
4.95845
 30
0.0
 11
2.16132
 21
4.73033
 31
0.0
  0
LINE
  5
137
  8
0
 10
2.16132
 20
4.73033
 30
0.0
 11
2.15001
 21
4.5
 31
0.0
  0
LINE
  5
138
  8
0
 10
2.15001
 20
4.5
 30
0.0
 11
2.16132
 21
4.26967
 31
0.0
  0
LINE
  5
139
  8
0
 10
2.16132
 20
4.26967
 30
0.0
 11
2.19516
 21
4.04155
 31
0.0
  0
LINE
  5
13A
  8
0
 10
2.19516
 20
4.04155
 30
0.0
 11
2.25121
 21
3.81784
 31
0.0
  0
LINE
  5
13B
  8
0
 10
2.25121
 20
3.81784
 30
0.0
 11
2.32889
 21
3.60071
 31
0.0
  0
LINE
  5
13C
  8
0
 10
2.32889
 20
3.60071
 30
0.0
 11
2.42749
 21
3.39223
 31
0.0
  0
LINE
  5
13D
  8
0
 10
2.42749
 20
3.39223
 30
0.0
 11
2.54605
 21
3.19441
 31
0.0
  0
LINE
  5
13E
  8
0
 10
2.54605
 20
3.19441
 30
0.0
 11
2.68343
 21
3.00919
 31
0.0
  0
LINE
  5
13F
  8
0
 10
2.68343
 20
3.00919
 30
0.0
 11
2.8383
 21
2.8383
 31
0.0
  0
LINE
  5
140
  8
0
 10
2.8383
 20
2.8383
 30
0.0
 11
3.00919
 21
2.68343
 31
0.0
  0
LINE
  5
141
  8
0
 10
3.00919
 20
2.68343
 30
0.0
 11
3.19441
 21
2.54605
 31
0.0
  0
LINE
  5
142
  8
0
 10
3.19441
 20
2.54605
 30
0.0
 11
3.39223
 21
2.42749
 31
0.0
  0
LINE
  5
143
  8
0
 10
3.39223
 20
2.42749
 30
0.0
 11
3.60071
 21
2.32889
 31
0.0
  0
LINE
  5
144
  8
0
 10
3.60071
 20
2.32889
 30
0.0
 11
3.81784
 21
2.25121
 31
0.0
  0
LINE
  5
145
  8
0
 10
3.81784
 20
2.25121
 30
0.0
 11
4.04155
 21
2.19516
 31
0.0
  0
LINE
  5
146
  8
0
 10
4.04155
 20
2.19516
 30
0.0
 11
4.26967
 21
2.16132
 31
0.0
  0
LINE
  5
147
  8
0
 10
4.26967
 20
2.16132
 30
0.0
 11
4.5
 21
2.15001
 31
0.0
  0
LINE
  5
148
  8
0
 10
4.5
 20
2.15001
 30
0.0
 11
8.85001
 21
2.15001
 31
0.0
  0
LINE
  5
149
  8
0
 10
8.85001
 20
2.15001
 30
0.0
 11
8.85001
 21
6.84999
 31
0.0
  0
LINE
  5
14A
  8
0
 10
4.0
 20
3.5
 30
0.0
 11
4.0
 21
5.5
 31
0.0
  0
LINE
  5
14B
  8
0
 10
4.0
 20
5.5
 30
0.0
 11
6.0
 21
5.5
 31
0.0
  0
LINE
  5
14C
  8
0
 10
6.0
 20
5.5
 30
0.0
 11
6.0
 21
3.5
 31
0.0
  0
LINE
  5
14D
  8
0
 10
6.0
 20
3.5
 30
0.0
 11
4.0
 21
3.5
 31
0.0
  0
ENDSEC
  0
EOF
