solid OpenSCAD_Model
  facet normal 1 -0 0
    outer loop
      vertex 73 -1 1
      vertex 73 109 0
      vertex 73 109 1
    endloop
  endfacet
  facet normal 1 0 0
    outer loop
      vertex 73 109 0
      vertex 73 -1 1
      vertex 73 -1 0
    endloop
  endfacet
  facet normal 0 0 1
    outer loop
      vertex 53.2 -1.996 8
      vertex 51.209 -3.525 8
      vertex 53.2 -3.525 8
    endloop
  endfacet
  facet normal -0 0 1
    outer loop
      vertex 49.68 -1.996 8
      vertex 51.209 -3.525 8
      vertex 53.2 -1.996 8
    endloop
  endfacet
  facet normal 0 0 1
    outer loop
      vertex 49.68 -5.054 8
      vertex 51.209 -3.525 8
      vertex 49.68 -1.996 8
    endloop
  endfacet
  facet normal 0 0 1
    outer loop
      vertex 51.209 -3.525 8
      vertex 49.68 -5.054 8
      vertex 51.209 -5.054 8
    endloop
  endfacet
  facet normal 0 0 1
    outer loop
      vertex 53.2 113.054 8
      vertex 51.209 111.525 8
      vertex 53.2 111.525 8
    endloop
  endfacet
  facet normal -0 0 1
    outer loop
      vertex 49.68 113.054 8
      vertex 51.209 111.525 8
      vertex 53.2 113.054 8
    endloop
  endfacet
  facet normal 0 0 1
    outer loop
      vertex 49.68 109.996 8
      vertex 51.209 111.525 8
      vertex 49.68 113.054 8
    endloop
  endfacet
  facet normal 0 0 1
    outer loop
      vertex 51.209 111.525 8
      vertex 49.68 109.996 8
      vertex 51.209 109.996 8
    endloop
  endfacet
  facet normal 0 0 1
    outer loop
      vertex 79 115 8
      vertex 72.05 108.05 8
      vertex 79 -7 8
    endloop
  endfacet
  facet normal -0 0 1
    outer loop
      vertex 53.2 115 8
      vertex 72.05 108.05 8
      vertex 79 115 8
    endloop
  endfacet
  facet normal -0 0 1
    outer loop
      vertex 53.2 113.054 8
      vertex 72.05 108.05 8
      vertex 53.2 115 8
    endloop
  endfacet
  facet normal -0 0 1
    outer loop
      vertex 53.2 111.525 8
      vertex 72.05 108.05 8
      vertex 53.2 113.054 8
    endloop
  endfacet
  facet normal 0 0 1
    outer loop
      vertex 72.05 108.05 8
      vertex 53.2 111.525 8
      vertex 53.2 108.05 8
    endloop
  endfacet
  facet normal -0 0 1
    outer loop
      vertex 72.05 -0.0499992 8
      vertex 79 -7 8
      vertex 72.05 108.05 8
    endloop
  endfacet
  facet normal 0 0 1
    outer loop
      vertex 53.2 -1.996 8
      vertex 72.05 -0.0499992 8
      vertex 53.2 -0.0499992 8
    endloop
  endfacet
  facet normal 0 0 1
    outer loop
      vertex 53.2 -3.525 8
      vertex 72.05 -0.0499992 8
      vertex 53.2 -1.996 8
    endloop
  endfacet
  facet normal 0 0 1
    outer loop
      vertex 53.2 -7 8
      vertex 72.05 -0.0499992 8
      vertex 53.2 -3.525 8
    endloop
  endfacet
  facet normal 0 0 1
    outer loop
      vertex 72.05 -0.0499992 8
      vertex 53.2 -7 8
      vertex 79 -7 8
    endloop
  endfacet
  facet normal 0 0 -1
    outer loop
      vertex 73 -1 0
      vertex 72.05 -0.0499992 0
      vertex 73 109 0
    endloop
  endfacet
  facet normal 0 0 -1
    outer loop
      vertex 53.2 -1 0
      vertex 72.05 -0.0499992 0
      vertex 73 -1 0
    endloop
  endfacet
  facet normal -0 0 -1
    outer loop
      vertex 72.05 -0.0499992 0
      vertex 53.2 -1 0
      vertex 53.2 -0.0499992 0
    endloop
  endfacet
  facet normal 0 0 -1
    outer loop
      vertex 72.05 108.05 0
      vertex 73 109 0
      vertex 72.05 -0.0499992 0
    endloop
  endfacet
  facet normal 0 0 -1
    outer loop
      vertex 53.2 109 0
      vertex 72.05 108.05 0
      vertex 53.2 108.05 0
    endloop
  endfacet
  facet normal 0 0 -1
    outer loop
      vertex 72.05 108.05 0
      vertex 53.2 109 0
      vertex 73 109 0
    endloop
  endfacet
  facet normal 0 1 -0
    outer loop
      vertex 73 109 0
      vertex 53.2 109 1
      vertex 73 109 1
    endloop
  endfacet
  facet normal 0 1 0
    outer loop
      vertex 53.2 109 1
      vertex 73 109 0
      vertex 53.2 109 0
    endloop
  endfacet
  facet normal 0 -1 0
    outer loop
      vertex 53.2 -1 0
      vertex 73 -1 1
      vertex 53.2 -1 1
    endloop
  endfacet
  facet normal 0 -1 -0
    outer loop
      vertex 73 -1 1
      vertex 53.2 -1 0
      vertex 73 -1 0
    endloop
  endfacet
  facet normal -1 0 0
    outer loop
      vertex 72.05 -0.0499992 0
      vertex 72.05 108.05 8
      vertex 72.05 108.05 0
    endloop
  endfacet
  facet normal -1 -0 0
    outer loop
      vertex 72.05 108.05 8
      vertex 72.05 -0.0499992 0
      vertex 72.05 -0.0499992 8
    endloop
  endfacet
  facet normal 0 -1 0
    outer loop
      vertex 53.2 108.05 0
      vertex 72.05 108.05 8
      vertex 53.2 108.05 8
    endloop
  endfacet
  facet normal 0 -1 -0
    outer loop
      vertex 72.05 108.05 8
      vertex 53.2 108.05 0
      vertex 72.05 108.05 0
    endloop
  endfacet
  facet normal 0 1 -0
    outer loop
      vertex 72.05 -0.0499992 0
      vertex 53.2 -0.0499992 8
      vertex 72.05 -0.0499992 8
    endloop
  endfacet
  facet normal 0 1 0
    outer loop
      vertex 53.2 -0.0499992 8
      vertex 72.05 -0.0499992 0
      vertex 53.2 -0.0499992 0
    endloop
  endfacet
  facet normal 1 -0 0
    outer loop
      vertex 79 -7 8
      vertex 79 115 1
      vertex 79 115 8
    endloop
  endfacet
  facet normal 1 0 0
    outer loop
      vertex 79 115 1
      vertex 79 -7 8
      vertex 79 -7 1
    endloop
  endfacet
  facet normal 0 0 -1
    outer loop
      vertex 79 -7 1
      vertex 73 -1 1
      vertex 79 115 1
    endloop
  endfacet
  facet normal 0 0 -1
    outer loop
      vertex 53.2 -7 1
      vertex 73 -1 1
      vertex 79 -7 1
    endloop
  endfacet
  facet normal -0 0 -1
    outer loop
      vertex 73 -1 1
      vertex 53.2 -7 1
      vertex 53.2 -1 1
    endloop
  endfacet
  facet normal 0 0 -1
    outer loop
      vertex 73 109 1
      vertex 79 115 1
      vertex 73 -1 1
    endloop
  endfacet
  facet normal 0 0 -1
    outer loop
      vertex 53.2 115 1
      vertex 73 109 1
      vertex 53.2 109 1
    endloop
  endfacet
  facet normal 0 0 -1
    outer loop
      vertex 73 109 1
      vertex 53.2 115 1
      vertex 79 115 1
    endloop
  endfacet
  facet normal 0 1 -0
    outer loop
      vertex 79 115 1
      vertex 53.2 115 8
      vertex 79 115 8
    endloop
  endfacet
  facet normal 0 1 0
    outer loop
      vertex 53.2 115 8
      vertex 79 115 1
      vertex 53.2 115 1
    endloop
  endfacet
  facet normal 0 -1 0
    outer loop
      vertex 53.2 -7 1
      vertex 79 -7 8
      vertex 53.2 -7 8
    endloop
  endfacet
  facet normal 0 -1 -0
    outer loop
      vertex 79 -7 8
      vertex 53.2 -7 1
      vertex 79 -7 1
    endloop
  endfacet
  facet normal -1 0 0
    outer loop
      vertex 53.2 109 0
      vertex 53.2 108.05 0
      vertex 53.2 109 1
    endloop
  endfacet
  facet normal -1 0 0
    outer loop
      vertex 53.2 115 1
      vertex 53.2 113.054 1.5
      vertex 53.2 115 8
    endloop
  endfacet
  facet normal -1 0 0
    outer loop
      vertex 53.2 115 1
      vertex 53.2 111.525 1.5
      vertex 53.2 113.054 1.5
    endloop
  endfacet
  facet normal -1 0 0
    outer loop
      vertex 53.2 109 1
      vertex 53.2 111.525 1.5
      vertex 53.2 115 1
    endloop
  endfacet
  facet normal -1 0 0
    outer loop
      vertex 53.2 108.05 8
      vertex 53.2 111.525 1.5
      vertex 53.2 109 1
    endloop
  endfacet
  facet normal -1 0 0
    outer loop
      vertex 53.2 108.05 8
      vertex 53.2 109 1
      vertex 53.2 108.05 0
    endloop
  endfacet
  facet normal -1 0 0
    outer loop
      vertex 53.2 111.525 1.5
      vertex 53.2 108.05 8
      vertex 53.2 111.525 8
    endloop
  endfacet
  facet normal -1 -0 0
    outer loop
      vertex 53.2 115 8
      vertex 53.2 113.054 1.5
      vertex 53.2 113.054 8
    endloop
  endfacet
  facet normal -1 0 0
    outer loop
      vertex 53.2 -1 1
      vertex 53.2 -3.525 1.5
      vertex 53.2 -1.996 1.5
    endloop
  endfacet
  facet normal -1 0 0
    outer loop
      vertex 53.2 -7 1
      vertex 53.2 -3.525 1.5
      vertex 53.2 -1 1
    endloop
  endfacet
  facet normal -1 0 0
    outer loop
      vertex 53.2 -7 8
      vertex 53.2 -3.525 1.5
      vertex 53.2 -7 1
    endloop
  endfacet
  facet normal -1 0 0
    outer loop
      vertex 53.2 -3.525 1.5
      vertex 53.2 -7 8
      vertex 53.2 -3.525 8
    endloop
  endfacet
  facet normal -1 0 0
    outer loop
      vertex 53.2 -1 1
      vertex 53.2 -0.0499992 0
      vertex 53.2 -1 0
    endloop
  endfacet
  facet normal -1 0 0
    outer loop
      vertex 53.2 -0.0499992 0
      vertex 53.2 -1 1
      vertex 53.2 -0.0499992 8
    endloop
  endfacet
  facet normal -1 0 0
    outer loop
      vertex 53.2 -1.996 1.5
      vertex 53.2 -0.0499992 8
      vertex 53.2 -1 1
    endloop
  endfacet
  facet normal -1 -0 0
    outer loop
      vertex 53.2 -0.0499992 8
      vertex 53.2 -1.996 1.5
      vertex 53.2 -1.996 8
    endloop
  endfacet
  facet normal -1 0 0
    outer loop
      vertex 49.68 -5.054 1.5
      vertex 49.68 -1.996 8
      vertex 49.68 -1.996 1.5
    endloop
  endfacet
  facet normal -1 -0 0
    outer loop
      vertex 49.68 -1.996 8
      vertex 49.68 -5.054 1.5
      vertex 49.68 -5.054 8
    endloop
  endfacet
  facet normal 0 0 -1
    outer loop
      vertex 51.209 -5.054 1.5
      vertex 49.68 -5.054 1.5
      vertex 51.209 -3.525 1.5
    endloop
  endfacet
  facet normal 0 0 -1
    outer loop
      vertex 51.209 -3.525 1.5
      vertex 53.2 -1.996 1.5
      vertex 53.2 -3.525 1.5
    endloop
  endfacet
  facet normal 0 0 -1
    outer loop
      vertex 51.209 -3.525 1.5
      vertex 49.68 -1.996 1.5
      vertex 53.2 -1.996 1.5
    endloop
  endfacet
  facet normal 0 0 -1
    outer loop
      vertex 49.68 -1.996 1.5
      vertex 51.209 -3.525 1.5
      vertex 49.68 -5.054 1.5
    endloop
  endfacet
  facet normal 1 -0 0
    outer loop
      vertex 51.209 -5.054 8
      vertex 51.209 -3.525 1.5
      vertex 51.209 -3.525 8
    endloop
  endfacet
  facet normal 1 0 0
    outer loop
      vertex 51.209 -3.525 1.5
      vertex 51.209 -5.054 8
      vertex 51.209 -5.054 1.5
    endloop
  endfacet
  facet normal 0 -1 0
    outer loop
      vertex 49.68 -5.054 1.5
      vertex 51.209 -5.054 8
      vertex 49.68 -5.054 8
    endloop
  endfacet
  facet normal 0 -1 -0
    outer loop
      vertex 51.209 -5.054 8
      vertex 49.68 -5.054 1.5
      vertex 51.209 -5.054 1.5
    endloop
  endfacet
  facet normal 0 1 -0
    outer loop
      vertex 53.2 -1.996 1.5
      vertex 49.68 -1.996 8
      vertex 53.2 -1.996 8
    endloop
  endfacet
  facet normal 0 1 0
    outer loop
      vertex 49.68 -1.996 8
      vertex 53.2 -1.996 1.5
      vertex 49.68 -1.996 1.5
    endloop
  endfacet
  facet normal 0 -1 0
    outer loop
      vertex 51.209 -3.525 1.5
      vertex 53.2 -3.525 8
      vertex 51.209 -3.525 8
    endloop
  endfacet
  facet normal 0 -1 -0
    outer loop
      vertex 53.2 -3.525 8
      vertex 51.209 -3.525 1.5
      vertex 53.2 -3.525 1.5
    endloop
  endfacet
  facet normal -1 0 0
    outer loop
      vertex 49.68 109.996 1.5
      vertex 49.68 113.054 8
      vertex 49.68 113.054 1.5
    endloop
  endfacet
  facet normal -1 -0 0
    outer loop
      vertex 49.68 113.054 8
      vertex 49.68 109.996 1.5
      vertex 49.68 109.996 8
    endloop
  endfacet
  facet normal 0 0 -1
    outer loop
      vertex 51.209 109.996 1.5
      vertex 49.68 109.996 1.5
      vertex 51.209 111.525 1.5
    endloop
  endfacet
  facet normal 0 0 -1
    outer loop
      vertex 51.209 111.525 1.5
      vertex 53.2 113.054 1.5
      vertex 53.2 111.525 1.5
    endloop
  endfacet
  facet normal 0 0 -1
    outer loop
      vertex 51.209 111.525 1.5
      vertex 49.68 113.054 1.5
      vertex 53.2 113.054 1.5
    endloop
  endfacet
  facet normal 0 0 -1
    outer loop
      vertex 49.68 113.054 1.5
      vertex 51.209 111.525 1.5
      vertex 49.68 109.996 1.5
    endloop
  endfacet
  facet normal 1 -0 0
    outer loop
      vertex 51.209 109.996 8
      vertex 51.209 111.525 1.5
      vertex 51.209 111.525 8
    endloop
  endfacet
  facet normal 1 0 0
    outer loop
      vertex 51.209 111.525 1.5
      vertex 51.209 109.996 8
      vertex 51.209 109.996 1.5
    endloop
  endfacet
  facet normal 0 -1 0
    outer loop
      vertex 49.68 109.996 1.5
      vertex 51.209 109.996 8
      vertex 49.68 109.996 8
    endloop
  endfacet
  facet normal 0 -1 -0
    outer loop
      vertex 51.209 109.996 8
      vertex 49.68 109.996 1.5
      vertex 51.209 109.996 1.5
    endloop
  endfacet
  facet normal 0 1 -0
    outer loop
      vertex 53.2 113.054 1.5
      vertex 49.68 113.054 8
      vertex 53.2 113.054 8
    endloop
  endfacet
  facet normal 0 1 0
    outer loop
      vertex 49.68 113.054 8
      vertex 53.2 113.054 1.5
      vertex 49.68 113.054 1.5
    endloop
  endfacet
  facet normal 0 -1 0
    outer loop
      vertex 51.209 111.525 1.5
      vertex 53.2 111.525 8
      vertex 51.209 111.525 8
    endloop
  endfacet
  facet normal 0 -1 -0
    outer loop
      vertex 53.2 111.525 8
      vertex 51.209 111.525 1.5
      vertex 53.2 111.525 1.5
    endloop
  endfacet
endsolid OpenSCAD_Model
