solid OpenSCAD_Model
  facet normal 0 0 1
    outer loop
      vertex 53 114.5 8
      vertex 48.52 113.081 8
      vertex 53 113.081 8
    endloop
  endfacet
  facet normal 0 0 1
    outer loop
      vertex 48.52 113.081 8
      vertex -0.0499992 108.05 8
      vertex 48.52 109.469 8
    endloop
  endfacet
  facet normal -0 0 1
    outer loop
      vertex -6.5 114.5 8
      vertex 48.52 113.081 8
      vertex 53 114.5 8
    endloop
  endfacet
  facet normal 0 0 1
    outer loop
      vertex -0.0499992 108.05 8
      vertex -6.5 114.5 8
      vertex -0.0499992 -0.0499992 8
    endloop
  endfacet
  facet normal 0 0 1
    outer loop
      vertex 48.52 113.081 8
      vertex -6.5 114.5 8
      vertex -0.0499992 108.05 8
    endloop
  endfacet
  facet normal 0 0 1
    outer loop
      vertex 50.326 109.469 8
      vertex 53 111.275 8
      vertex 50.326 111.275 8
    endloop
  endfacet
  facet normal 0 0 1
    outer loop
      vertex 53 111.275 8
      vertex 50.326 109.469 8
      vertex 53 108.05 8
    endloop
  endfacet
  facet normal -0 0 1
    outer loop
      vertex 48.52 109.469 8
      vertex 53 108.05 8
      vertex 50.326 109.469 8
    endloop
  endfacet
  facet normal 0 0 1
    outer loop
      vertex 53 108.05 8
      vertex 48.52 109.469 8
      vertex -0.0499992 108.05 8
    endloop
  endfacet
  facet normal 0 0 1
    outer loop
      vertex 53 -0.0499992 8
      vertex 48.52 -1.469 8
      vertex 53 -1.469 8
    endloop
  endfacet
  facet normal 0 0 1
    outer loop
      vertex 48.52 -1.469 8
      vertex -0.0499992 -0.0499992 8
      vertex 48.52 -5.081 8
    endloop
  endfacet
  facet normal -0 0 1
    outer loop
      vertex -0.0499992 -0.0499992 8
      vertex 48.52 -1.469 8
      vertex 53 -0.0499992 8
    endloop
  endfacet
  facet normal 0 0 1
    outer loop
      vertex 50.326 -5.081 8
      vertex 53 -3.275 8
      vertex 50.326 -3.275 8
    endloop
  endfacet
  facet normal 0 0 1
    outer loop
      vertex 53 -3.275 8
      vertex 50.326 -5.081 8
      vertex 53 -6.5 8
    endloop
  endfacet
  facet normal -0 0 1
    outer loop
      vertex 48.52 -5.081 8
      vertex 53 -6.5 8
      vertex 50.326 -5.081 8
    endloop
  endfacet
  facet normal 0 0 1
    outer loop
      vertex -6.5 -6.5 8
      vertex 48.52 -5.081 8
      vertex -0.0499992 -0.0499992 8
    endloop
  endfacet
  facet normal 0 0 1
    outer loop
      vertex 48.52 -5.081 8
      vertex -6.5 -6.5 8
      vertex 53 -6.5 8
    endloop
  endfacet
  facet normal 0 0 1
    outer loop
      vertex -6.5 -6.5 8
      vertex -0.0499992 -0.0499992 8
      vertex -6.5 114.5 8
    endloop
  endfacet
  facet normal 0 0 -1
    outer loop
      vertex 53 -1 0
      vertex -0.0499992 -0.0499992 0
      vertex 53 -0.0499992 0
    endloop
  endfacet
  facet normal -0 0 -1
    outer loop
      vertex -0.0499992 -0.0499992 0
      vertex -1 -1 0
      vertex -0.0499992 108.05 0
    endloop
  endfacet
  facet normal 0 0 -1
    outer loop
      vertex -1 -1 0
      vertex -0.0499992 -0.0499992 0
      vertex 53 -1 0
    endloop
  endfacet
  facet normal 0 0 -1
    outer loop
      vertex -0.0499992 108.05 0
      vertex 53 109 0
      vertex 53 108.05 0
    endloop
  endfacet
  facet normal 0 0 -1
    outer loop
      vertex -0.0499992 108.05 0
      vertex -1 109 0
      vertex 53 109 0
    endloop
  endfacet
  facet normal 0 0 -1
    outer loop
      vertex -1 109 0
      vertex -0.0499992 108.05 0
      vertex -1 -1 0
    endloop
  endfacet
  facet normal -1 0 0
    outer loop
      vertex -1 -1 0
      vertex -1 109 1
      vertex -1 109 0
    endloop
  endfacet
  facet normal -1 -0 0
    outer loop
      vertex -1 109 1
      vertex -1 -1 0
      vertex -1 -1 1
    endloop
  endfacet
  facet normal 0 1 -0
    outer loop
      vertex 53 109 0
      vertex -1 109 1
      vertex 53 109 1
    endloop
  endfacet
  facet normal 0 1 0
    outer loop
      vertex -1 109 1
      vertex 53 109 0
      vertex -1 109 0
    endloop
  endfacet
  facet normal 0 -1 0
    outer loop
      vertex -1 -1 0
      vertex 53 -1 1
      vertex -1 -1 1
    endloop
  endfacet
  facet normal 0 -1 -0
    outer loop
      vertex 53 -1 1
      vertex -1 -1 0
      vertex 53 -1 0
    endloop
  endfacet
  facet normal 1 -0 0
    outer loop
      vertex -0.0499992 -0.0499992 8
      vertex -0.0499992 108.05 0
      vertex -0.0499992 108.05 8
    endloop
  endfacet
  facet normal 1 0 0
    outer loop
      vertex -0.0499992 108.05 0
      vertex -0.0499992 -0.0499992 8
      vertex -0.0499992 -0.0499992 0
    endloop
  endfacet
  facet normal 0 -1 0
    outer loop
      vertex -0.0499992 108.05 0
      vertex 53 108.05 8
      vertex -0.0499992 108.05 8
    endloop
  endfacet
  facet normal 0 -1 -0
    outer loop
      vertex 53 108.05 8
      vertex -0.0499992 108.05 0
      vertex 53 108.05 0
    endloop
  endfacet
  facet normal 0 1 -0
    outer loop
      vertex 53 -0.0499992 0
      vertex -0.0499992 -0.0499992 8
      vertex 53 -0.0499992 8
    endloop
  endfacet
  facet normal 0 1 0
    outer loop
      vertex -0.0499992 -0.0499992 8
      vertex 53 -0.0499992 0
      vertex -0.0499992 -0.0499992 0
    endloop
  endfacet
  facet normal 0 0 -1
    outer loop
      vertex 53 -6.5 1
      vertex -1 -1 1
      vertex 53 -1 1
    endloop
  endfacet
  facet normal -0 0 -1
    outer loop
      vertex -1 -1 1
      vertex -6.5 -6.5 1
      vertex -1 109 1
    endloop
  endfacet
  facet normal 0 0 -1
    outer loop
      vertex -6.5 -6.5 1
      vertex -1 -1 1
      vertex 53 -6.5 1
    endloop
  endfacet
  facet normal 0 0 -1
    outer loop
      vertex -1 109 1
      vertex 53 114.5 1
      vertex 53 109 1
    endloop
  endfacet
  facet normal 0 0 -1
    outer loop
      vertex -1 109 1
      vertex -6.5 114.5 1
      vertex 53 114.5 1
    endloop
  endfacet
  facet normal 0 0 -1
    outer loop
      vertex -6.5 114.5 1
      vertex -1 109 1
      vertex -6.5 -6.5 1
    endloop
  endfacet
  facet normal -1 0 0
    outer loop
      vertex -6.5 -6.5 1
      vertex -6.5 114.5 8
      vertex -6.5 114.5 1
    endloop
  endfacet
  facet normal -1 -0 0
    outer loop
      vertex -6.5 114.5 8
      vertex -6.5 -6.5 1
      vertex -6.5 -6.5 8
    endloop
  endfacet
  facet normal 0 1 -0
    outer loop
      vertex 53 114.5 1
      vertex -6.5 114.5 8
      vertex 53 114.5 8
    endloop
  endfacet
  facet normal 0 1 0
    outer loop
      vertex -6.5 114.5 8
      vertex 53 114.5 1
      vertex -6.5 114.5 1
    endloop
  endfacet
  facet normal 0 -1 0
    outer loop
      vertex -6.5 -6.5 1
      vertex 53 -6.5 8
      vertex -6.5 -6.5 8
    endloop
  endfacet
  facet normal 0 -1 -0
    outer loop
      vertex 53 -6.5 8
      vertex -6.5 -6.5 1
      vertex 53 -6.5 1
    endloop
  endfacet
  facet normal 1 -0 0
    outer loop
      vertex 53 108.05 8
      vertex 53 111.275 1.5
      vertex 53 111.275 8
    endloop
  endfacet
  facet normal 1 0 0
    outer loop
      vertex 53 111.275 1.5
      vertex 53 108.05 8
      vertex 53 109 1
    endloop
  endfacet
  facet normal 1 0 0
    outer loop
      vertex 53 108.05 0
      vertex 53 109 1
      vertex 53 108.05 8
    endloop
  endfacet
  facet normal 1 0 0
    outer loop
      vertex 53 109 1
      vertex 53 108.05 0
      vertex 53 109 0
    endloop
  endfacet
  facet normal 1 0 0
    outer loop
      vertex 53 113.081 1.5
      vertex 53 114.5 8
      vertex 53 113.081 8
    endloop
  endfacet
  facet normal 1 0 0
    outer loop
      vertex 53 114.5 8
      vertex 53 113.081 1.5
      vertex 53 114.5 1
    endloop
  endfacet
  facet normal 1 -0 0
    outer loop
      vertex 53 111.275 1.5
      vertex 53 114.5 1
      vertex 53 113.081 1.5
    endloop
  endfacet
  facet normal 1 0 0
    outer loop
      vertex 53 114.5 1
      vertex 53 111.275 1.5
      vertex 53 109 1
    endloop
  endfacet
  facet normal 1 0 0
    outer loop
      vertex 53 -3.275 8
      vertex 53 -6.5 8
      vertex 53 -3.275 1.5
    endloop
  endfacet
  facet normal 1 0 0
    outer loop
      vertex 53 -0.0499992 8
      vertex 53 -1 1
      vertex 53 -0.0499992 0
    endloop
  endfacet
  facet normal 1 0 0
    outer loop
      vertex 53 -1.469 1.5
      vertex 53 -0.0499992 8
      vertex 53 -1.469 8
    endloop
  endfacet
  facet normal 1 0 0
    outer loop
      vertex 53 -0.0499992 8
      vertex 53 -1.469 1.5
      vertex 53 -1 1
    endloop
  endfacet
  facet normal 1 -0 0
    outer loop
      vertex 53 -3.275 1.5
      vertex 53 -1 1
      vertex 53 -1.469 1.5
    endloop
  endfacet
  facet normal 1 0 0
    outer loop
      vertex 53 -3.275 1.5
      vertex 53 -6.5 1
      vertex 53 -1 1
    endloop
  endfacet
  facet normal 1 0 0
    outer loop
      vertex 53 -6.5 1
      vertex 53 -3.275 1.5
      vertex 53 -6.5 8
    endloop
  endfacet
  facet normal 1 0 0
    outer loop
      vertex 53 -0.0499992 0
      vertex 53 -1 1
      vertex 53 -1 0
    endloop
  endfacet
  facet normal 1 -0 0
    outer loop
      vertex 48.52 -5.081 8
      vertex 48.52 -1.469 1.5
      vertex 48.52 -1.469 8
    endloop
  endfacet
  facet normal 1 0 0
    outer loop
      vertex 48.52 -1.469 1.5
      vertex 48.52 -5.081 8
      vertex 48.52 -5.081 1.5
    endloop
  endfacet
  facet normal 0 0 1
    outer loop
      vertex 53 -1.469 1.5
      vertex 50.326 -3.275 1.5
      vertex 53 -3.275 1.5
    endloop
  endfacet
  facet normal -0 0 1
    outer loop
      vertex 48.52 -1.469 1.5
      vertex 50.326 -3.275 1.5
      vertex 53 -1.469 1.5
    endloop
  endfacet
  facet normal 0 0 1
    outer loop
      vertex 48.52 -5.081 1.5
      vertex 50.326 -3.275 1.5
      vertex 48.52 -1.469 1.5
    endloop
  endfacet
  facet normal 0 0 1
    outer loop
      vertex 50.326 -3.275 1.5
      vertex 48.52 -5.081 1.5
      vertex 50.326 -5.081 1.5
    endloop
  endfacet
  facet normal -1 0 0
    outer loop
      vertex 50.326 -5.081 1.5
      vertex 50.326 -3.275 8
      vertex 50.326 -3.275 1.5
    endloop
  endfacet
  facet normal -1 -0 0
    outer loop
      vertex 50.326 -3.275 8
      vertex 50.326 -5.081 1.5
      vertex 50.326 -5.081 8
    endloop
  endfacet
  facet normal 0 1 -0
    outer loop
      vertex 50.326 -5.081 1.5
      vertex 48.52 -5.081 8
      vertex 50.326 -5.081 8
    endloop
  endfacet
  facet normal 0 1 0
    outer loop
      vertex 48.52 -5.081 8
      vertex 50.326 -5.081 1.5
      vertex 48.52 -5.081 1.5
    endloop
  endfacet
  facet normal 0 -1 0
    outer loop
      vertex 48.52 -1.469 1.5
      vertex 53 -1.469 8
      vertex 48.52 -1.469 8
    endloop
  endfacet
  facet normal 0 -1 -0
    outer loop
      vertex 53 -1.469 8
      vertex 48.52 -1.469 1.5
      vertex 53 -1.469 1.5
    endloop
  endfacet
  facet normal 0 1 -0
    outer loop
      vertex 53 -3.275 1.5
      vertex 50.326 -3.275 8
      vertex 53 -3.275 8
    endloop
  endfacet
  facet normal 0 1 0
    outer loop
      vertex 50.326 -3.275 8
      vertex 53 -3.275 1.5
      vertex 50.326 -3.275 1.5
    endloop
  endfacet
  facet normal 1 -0 0
    outer loop
      vertex 48.52 109.469 8
      vertex 48.52 113.081 1.5
      vertex 48.52 113.081 8
    endloop
  endfacet
  facet normal 1 0 0
    outer loop
      vertex 48.52 113.081 1.5
      vertex 48.52 109.469 8
      vertex 48.52 109.469 1.5
    endloop
  endfacet
  facet normal 0 0 1
    outer loop
      vertex 53 113.081 1.5
      vertex 50.326 111.275 1.5
      vertex 53 111.275 1.5
    endloop
  endfacet
  facet normal -0 0 1
    outer loop
      vertex 48.52 113.081 1.5
      vertex 50.326 111.275 1.5
      vertex 53 113.081 1.5
    endloop
  endfacet
  facet normal 0 0 1
    outer loop
      vertex 48.52 109.469 1.5
      vertex 50.326 111.275 1.5
      vertex 48.52 113.081 1.5
    endloop
  endfacet
  facet normal 0 0 1
    outer loop
      vertex 50.326 111.275 1.5
      vertex 48.52 109.469 1.5
      vertex 50.326 109.469 1.5
    endloop
  endfacet
  facet normal -1 0 0
    outer loop
      vertex 50.326 109.469 1.5
      vertex 50.326 111.275 8
      vertex 50.326 111.275 1.5
    endloop
  endfacet
  facet normal -1 -0 0
    outer loop
      vertex 50.326 111.275 8
      vertex 50.326 109.469 1.5
      vertex 50.326 109.469 8
    endloop
  endfacet
  facet normal 0 1 -0
    outer loop
      vertex 50.326 109.469 1.5
      vertex 48.52 109.469 8
      vertex 50.326 109.469 8
    endloop
  endfacet
  facet normal 0 1 0
    outer loop
      vertex 48.52 109.469 8
      vertex 50.326 109.469 1.5
      vertex 48.52 109.469 1.5
    endloop
  endfacet
  facet normal 0 -1 0
    outer loop
      vertex 48.52 113.081 1.5
      vertex 53 113.081 8
      vertex 48.52 113.081 8
    endloop
  endfacet
  facet normal 0 -1 -0
    outer loop
      vertex 53 113.081 8
      vertex 48.52 113.081 1.5
      vertex 53 113.081 1.5
    endloop
  endfacet
  facet normal 0 1 -0
    outer loop
      vertex 53 111.275 1.5
      vertex 50.326 111.275 8
      vertex 53 111.275 8
    endloop
  endfacet
  facet normal 0 1 0
    outer loop
      vertex 50.326 111.275 8
      vertex 53 111.275 1.5
      vertex 50.326 111.275 1.5
    endloop
  endfacet
endsolid OpenSCAD_Model
