  0
SECTION
  2
HEADER
  9
$ACADVER
  1
AC1009
  9
$DWGCODEPAGE
  3
ANSI_1252
  9
$INSBASE
 10
0.0
 20
0.0
 30
0.0
  9
$EXTMIN
 10
-100
 20
-100
 30
-100
  9
$EXTMAX
 10
100
 20
100
 30
100
  9
$LIMMIN
 10
0.0
 20
0.0
  9
$LIMMAX
 10
420.0
 20
297.0
  9
$ORTHOMODE
 70
0
  9
$REGENMODE
 70
1
  9
$DRAGMODE
 70
2
  9
$FILLMODE
 70
1
  9
$QTEXTMODE
 70
0
  9
$MIRRTEXT
 70
1
  9
$OSMODE
 70
20583
  9
$LTSCALE
 40
1.0
  9
$ATTMODE
 70
1
  9
$TEXTSIZE
 40
2.5
  9
$TRACEWID
 40
1.0
  9
$TEXTSTYLE
  7
Standard
  9
$CLAYER
  8
0
  9
$CELTYPE
  6
ByLayer
  9
$CECOLOR
 62
256
  9
$DIMSCALE
 40
1.0
  9
$DIMASZ
 40
2.5
  9
$DIMEXO
 40
0.625
  9
$DIMDLI
 40
3.75
  9
$DIMRND
 40
0.0
  9
$DIMDLE
 40
0.0
  9
$DIMEXE
 40
1.25
  9
$DIMTP
 40
0.0
  9
$DIMTM
 40
0.0
  9
$DIMTXT
 40
2.5
  9
$DIMCEN
 40
2.5
  9
$DIMTSZ
 40
0.0
  9
$DIMTOL
 70
0
  9
$DIMLIM
 70
0
  9
$DIMTIH
 70
0
  9
$DIMTOH
 70
0
  9
$DIMSE1
 70
0
  9
$DIMSE2
 70
0
  9
$DIMTAD
 70
1
  9
$DIMZIN
 70
8
  9
$DIMBLK
  1

  9
$DIMASO
 70
1
  9
$DIMSHO
 70
1
  9
$DIMPOST
  1

  9
$DIMAPOST
  1

  9
$DIMALT
 70
0
  9
$DIMALTD
 70
3
  9
$DIMALTF
 40
0.03937007874
  9
$DIMLFAC
 40
1.0
  9
$DIMTOFL
 70
1
  9
$DIMTVP
 40
0.0
  9
$DIMTIX
 70
0
  9
$DIMSOXD
 70
0
  9
$DIMSAH
 70
0
  9
$DIMBLK1
  1

  9
$DIMBLK2
  1

  9
$DIMSTYLE
  2
ISO-25
  9
$DIMCLRD
 70
0
  9
$DIMCLRE
 70
0
  9
$DIMCLRT
 70
0
  9
$DIMTFAC
 40
1.0
  9
$DIMGAP
 40
0.625
  9
$COORDS
 70
1
  9
$ATTDIA
 70
0
  9
$ATTREQ
 70
1
  9
$HANDLING
 70
1
  9
$LUNITS
 70
2
  9
$LUPREC
 70
4
  9
$SKETCHINC
 40
1.0
  9
$FILLETRAD
 40
10.0
  9
$AUNITS
 70
0
  9
$AUPREC
 70
2
  9
$MENU
  1
.
  9
$ELEVATION
 40
0.0
  9
$PELEVATION
 40
0.0
  9
$THICKNESS
 40
0.0
  9
$LIMCHECK
 70
0
  9
$CHAMFERA
 40
0.0
  9
$CHAMFERB
 40
0.0
  9
$SKPOLY
 70
0
  9
$TDCREATE
 40
2459112.9263541666
  9
$TDUPDATE
 40
2459112.9263541666
  9
$TDINDWG
 40
0.0
  9
$TDUSRTIMER
 40
0.0
  9
$USRTIMER
 70
1
  9
$ANGBASE
 50
0.0
  9
$ANGDIR
 70
0
  9
$PDMODE
 70
0
  9
$PDSIZE
 40
0.0
  9
$PLINEWID
 40
0.0
  9
$SPLFRAME
 70
0
  9
$SPLINETYPE
 70
6
  9
$SPLINESEGS
 70
8
  9
$HANDSEED
  5
365
  9
$SURFTAB1
 70
6
  9
$SURFTAB2
 70
6
  9
$SURFTYPE
 70
6
  9
$SURFU
 70
6
  9
$SURFV
 70
6
  9
$UCSNAME
  2

  9
$UCSORG
 10
0.0
 20
0.0
 30
0.0
  9
$UCSXDIR
 10
1.0
 20
0.0
 30
0.0
  9
$UCSYDIR
 10
0.0
 20
1.0
 30
0.0
  9
$PUCSNAME
  2

  9
$PUCSORG
 10
0.0
 20
0.0
 30
0.0
  9
$PUCSXDIR
 10
1.0
 20
0.0
 30
0.0
  9
$PUCSYDIR
 10
0.0
 20
1.0
 30
0.0
  9
$USERI1
 70
0
  9
$USERI2
 70
0
  9
$USERI3
 70
0
  9
$USERI4
 70
0
  9
$USERI5
 70
0
  9
$USERR1
 40
0.0
  9
$USERR2
 40
0.0
  9
$USERR3
 40
0.0
  9
$USERR4
 40
0.0
  9
$USERR5
 40
0.0
  9
$WORLDVIEW
 70
1
  9
$SHADEDGE
 70
3
  9
$SHADEDIF
 70
70
  9
$TILEMODE
 70
1
  9
$MAXACTVP
 70
64
  9
$PLIMCHECK
 70
0
  9
$PEXTMIN
 10
1e+20
 20
1e+20
 30
1e+20
  9
$PEXTMAX
 10
-1e+20
 20
-1e+20
 30
-1e+20
  9
$PLIMMIN
 10
0.0
 20
0.0
  9
$PLIMMAX
 10
420.0
 20
297.0
  9
$UNITMODE
 70
0
  9
$VISRETAIN
 70
1
  9
$PLINEGEN
 70
0
  9
$PSLTSCALE
 70
1
  0
ENDSEC
  0
SECTION
  2
TABLES
  0
TABLE
  2
VPORT
 70
1
  0
VPORT
  5
35B
  2
*Active
 70
0
 10
0.0
 20
0.0
 11
1.0
 21
1.0
 12
70.0
 22
50.0
 13
0.0
 23
0.0
 14
0.5
 24
0.5
 15
0.5
 25
0.5
 16
0.0
 26
0.0
 36
1.0
 17
0.0
 27
0.0
 37
0.0
 40
1.0
 41
1.34
 42
50.0
 43
0.0
 44
0.0
 50
0.0
 51
0.0
 71
0
 72
1000
 73
1
 74
3
 75
0
 76
0
 77
0
 78
0
  0
ENDTAB
  0
TABLE
  2
LTYPE
 70
3
  0
LTYPE
  5
35C
  2
ByBlock
 70
0
  3

 72
65
 73
0
 40
0.0
  0
LTYPE
  5
35D
  2
ByLayer
 70
0
  3

 72
65
 73
0
 40
0.0
  0
LTYPE
  5
35E
  2
Continuous
 70
0
  3

 72
65
 73
0
 40
0.0
  0
ENDTAB
  0
TABLE
  2
LAYER
 70
2
  0
LAYER
  5
35F
  2
0
 70
0
 62
7
  6
Continuous
  0
LAYER
  5
360
  2
Defpoints
 70
0
 62
7
  6
Continuous
  0
ENDTAB
  0
TABLE
  2
STYLE
 70
1
  0
STYLE
  5
361
  2
Standard
 70
0
 40
0.0
 41
1.0
 50
0.0
 71
0
 42
2.5
  3
txt
  4

  0
ENDTAB
  0
TABLE
  2
VIEW
 70
0
  0
ENDTAB
  0
TABLE
  2
UCS
 70
0
  0
ENDTAB
  0
TABLE
  2
APPID
 70
1
  0
APPID
  5
362
  2
ACAD
 70
0
  0
ENDTAB
  0
TABLE
  2
DIMSTYLE
 70
1
  0
DIMSTYLE
105
363
  2
Standard
 70
0
  3

  4

  5

  6

  7

 40
1.0
 41
2.5
 42
0.625
 43
3.75
 44
1.25
 45
0.0
 46
0.0
 47
0.0
 48
0.0
140
2.5
141
2.5
142
0.0
143
0.03937007874
144
1.0
145
0.0
146
1.0
147
0.625
 71
0
 72
0
 73
0
 74
0
 75
0
 76
0
 77
1
 78
8
170
0
171
3
172
1
173
0
174
0
175
0
176
0
177
0
178
0
  0
ENDTAB
  0
ENDSEC
  0
SECTION
  2
BLOCKS
  0
BLOCK
  5
33C
  8
0
  2
$Model_Space
 70
0
 10
0.0
 20
0.0
 30
0.0
  3
$Model_Space
  1

  0
ENDBLK
  5
33D
  8
0
  0
BLOCK
  5
33E
  8
0
  2
$Paper_Space
 70
0
 10
0.0
 20
0.0
 30
0.0
  3
$Paper_Space
  1

  0
ENDBLK
  5
33F
  8
0
  0
ENDSEC
  0
SECTION
  2
ENTITIES
  0
LINE
  5
100
  8
0
 10
9.04999
 20
9.04999
 30
0.0
 11
-0.0499878
 21
9.04999
 31
0.0
  0
LINE
  5
101
  8
0
 10
-0.0499878
 20
9.04999
 30
0.0
 11
-0.0499878
 21
-0.0499878
 31
0.0
  0
LINE
  5
102
  8
0
 10
-0.0499878
 20
-0.0499878
 30
0.0
 11
9.04999
 21
-0.0499878
 31
0.0
  0
LINE
  5
103
  8
0
 10
9.04999
 20
-0.0499878
 30
0.0
 11
9.04999
 21
9.04999
 31
0.0
  0
LINE
  5
104
  8
0
 10
0.0
 20
0.0
 30
0.0
 11
0.0
 21
9.0
 31
0.0
  0
LINE
  5
105
  8
0
 10
0.0
 20
9.0
 30
0.0
 11
9.0
 21
9.0
 31
0.0
  0
LINE
  5
106
  8
0
 10
9.0
 20
9.0
 30
0.0
 11
9.0
 21
0.0
 31
0.0
  0
LINE
  5
107
  8
0
 10
9.0
 20
0.0
 30
0.0
 11
0.0
 21
0.0
 31
0.0
  0
LINE
  5
108
  8
0
 10
6.89702
 20
0.757233
 30
0.0
 11
7.04263
 21
0.778824
 31
0.0
  0
LINE
  5
109
  8
0
 10
7.04263
 20
0.778824
 30
0.0
 11
7.18542
 21
0.81459
 31
0.0
  0
LINE
  5
10A
  8
0
 10
7.18542
 20
0.81459
 30
0.0
 11
7.32402
 21
0.864182
 31
0.0
  0
LINE
  5
10B
  8
0
 10
7.32402
 20
0.864182
 30
0.0
 11
7.45709
 21
0.927124
 31
0.0
  0
LINE
  5
10C
  8
0
 10
7.45709
 20
0.927124
 30
0.0
 11
7.58334
 21
1.00281
 31
0.0
  0
LINE
  5
10D
  8
0
 10
7.58334
 20
1.00281
 30
0.0
 11
7.70158
 21
1.09048
 31
0.0
  0
LINE
  5
10E
  8
0
 10
7.70158
 20
1.09048
 30
0.0
 11
7.81065
 21
1.18935
 31
0.0
  0
LINE
  5
10F
  8
0
 10
7.81065
 20
1.18935
 30
0.0
 11
7.90952
 21
1.29842
 31
0.0
  0
LINE
  5
110
  8
0
 10
7.90952
 20
1.29842
 30
0.0
 11
7.99719
 21
1.41666
 31
0.0
  0
LINE
  5
111
  8
0
 10
7.99719
 20
1.41666
 30
0.0
 11
8.07288
 21
1.54291
 31
0.0
  0
LINE
  5
112
  8
0
 10
8.07288
 20
1.54291
 30
0.0
 11
8.13582
 21
1.67598
 31
0.0
  0
LINE
  5
113
  8
0
 10
8.13582
 20
1.67598
 30
0.0
 11
8.18541
 21
1.81458
 31
0.0
  0
LINE
  5
114
  8
0
 10
8.18541
 20
1.81458
 30
0.0
 11
8.22118
 21
1.95737
 31
0.0
  0
LINE
  5
115
  8
0
 10
8.22118
 20
1.95737
 30
0.0
 11
8.24277
 21
2.10298
 31
0.0
  0
LINE
  5
116
  8
0
 10
8.24277
 20
2.10298
 30
0.0
 11
8.25
 21
2.25
 31
0.0
  0
LINE
  5
117
  8
0
 10
8.25
 20
2.25
 30
0.0
 11
8.24277
 21
2.39703
 31
0.0
  0
LINE
  5
118
  8
0
 10
8.24277
 20
2.39703
 30
0.0
 11
8.22118
 21
2.54265
 31
0.0
  0
LINE
  5
119
  8
0
 10
8.22118
 20
2.54265
 30
0.0
 11
8.18541
 21
2.68544
 31
0.0
  0
LINE
  5
11A
  8
0
 10
8.18541
 20
2.68544
 30
0.0
 11
8.13582
 21
2.82404
 31
0.0
  0
LINE
  5
11B
  8
0
 10
8.13582
 20
2.82404
 30
0.0
 11
8.07288
 21
2.95711
 31
0.0
  0
LINE
  5
11C
  8
0
 10
8.07288
 20
2.95711
 30
0.0
 11
7.99719
 21
3.08336
 31
0.0
  0
LINE
  5
11D
  8
0
 10
7.99719
 20
3.08336
 30
0.0
 11
7.90952
 21
3.2016
 31
0.0
  0
LINE
  5
11E
  8
0
 10
7.90952
 20
3.2016
 30
0.0
 11
7.81065
 21
3.31067
 31
0.0
  0
LINE
  5
11F
  8
0
 10
7.81065
 20
3.31067
 30
0.0
 11
7.70158
 21
3.40953
 31
0.0
  0
LINE
  5
120
  8
0
 10
7.70158
 20
3.40953
 30
0.0
 11
7.58334
 21
3.49721
 31
0.0
  0
LINE
  5
121
  8
0
 10
7.58334
 20
3.49721
 30
0.0
 11
7.45709
 21
3.57289
 31
0.0
  0
LINE
  5
122
  8
0
 10
7.45709
 20
3.57289
 30
0.0
 11
7.32402
 21
3.63583
 31
0.0
  0
LINE
  5
123
  8
0
 10
7.32402
 20
3.63583
 30
0.0
 11
7.18542
 21
3.68542
 31
0.0
  0
LINE
  5
124
  8
0
 10
7.18542
 20
3.68542
 30
0.0
 11
7.04263
 21
3.72119
 31
0.0
  0
LINE
  5
125
  8
0
 10
7.04263
 20
3.72119
 30
0.0
 11
6.89702
 21
3.74278
 31
0.0
  0
LINE
  5
126
  8
0
 10
6.89702
 20
3.74278
 30
0.0
 11
6.75
 21
3.75
 31
0.0
  0
LINE
  5
127
  8
0
 10
6.75
 20
3.75
 30
0.0
 11
6.75
 21
5.25
 31
0.0
  0
LINE
  5
128
  8
0
 10
6.75
 20
5.25
 30
0.0
 11
6.89702
 21
5.25722
 31
0.0
  0
LINE
  5
129
  8
0
 10
6.89702
 20
5.25722
 30
0.0
 11
7.04263
 21
5.27881
 31
0.0
  0
LINE
  5
12A
  8
0
 10
7.04263
 20
5.27881
 30
0.0
 11
7.18542
 21
5.31458
 31
0.0
  0
LINE
  5
12B
  8
0
 10
7.18542
 20
5.31458
 30
0.0
 11
7.32402
 21
5.36417
 31
0.0
  0
LINE
  5
12C
  8
0
 10
7.32402
 20
5.36417
 30
0.0
 11
7.45709
 21
5.42711
 31
0.0
  0
LINE
  5
12D
  8
0
 10
7.45709
 20
5.42711
 30
0.0
 11
7.58334
 21
5.50279
 31
0.0
  0
LINE
  5
12E
  8
0
 10
7.58334
 20
5.50279
 30
0.0
 11
7.70158
 21
5.59047
 31
0.0
  0
LINE
  5
12F
  8
0
 10
7.70158
 20
5.59047
 30
0.0
 11
7.81065
 21
5.68933
 31
0.0
  0
LINE
  5
130
  8
0
 10
7.81065
 20
5.68933
 30
0.0
 11
7.90952
 21
5.7984
 31
0.0
  0
LINE
  5
131
  8
0
 10
7.90952
 20
5.7984
 30
0.0
 11
7.99719
 21
5.91664
 31
0.0
  0
LINE
  5
132
  8
0
 10
7.99719
 20
5.91664
 30
0.0
 11
8.07288
 21
6.04289
 31
0.0
  0
LINE
  5
133
  8
0
 10
8.07288
 20
6.04289
 30
0.0
 11
8.13582
 21
6.17596
 31
0.0
  0
LINE
  5
134
  8
0
 10
8.13582
 20
6.17596
 30
0.0
 11
8.18541
 21
6.31456
 31
0.0
  0
LINE
  5
135
  8
0
 10
8.18541
 20
6.31456
 30
0.0
 11
8.22118
 21
6.45735
 31
0.0
  0
LINE
  5
136
  8
0
 10
8.22118
 20
6.45735
 30
0.0
 11
8.24277
 21
6.60297
 31
0.0
  0
LINE
  5
137
  8
0
 10
8.24277
 20
6.60297
 30
0.0
 11
8.25
 21
6.75
 31
0.0
  0
LINE
  5
138
  8
0
 10
8.25
 20
6.75
 30
0.0
 11
8.24277
 21
6.89702
 31
0.0
  0
LINE
  5
139
  8
0
 10
8.24277
 20
6.89702
 30
0.0
 11
8.22118
 21
7.04263
 31
0.0
  0
LINE
  5
13A
  8
0
 10
8.22118
 20
7.04263
 30
0.0
 11
8.18541
 21
7.18542
 31
0.0
  0
LINE
  5
13B
  8
0
 10
8.18541
 20
7.18542
 30
0.0
 11
8.13582
 21
7.32402
 31
0.0
  0
LINE
  5
13C
  8
0
 10
8.13582
 20
7.32402
 30
0.0
 11
8.07288
 21
7.45709
 31
0.0
  0
LINE
  5
13D
  8
0
 10
8.07288
 20
7.45709
 30
0.0
 11
7.99719
 21
7.58334
 31
0.0
  0
LINE
  5
13E
  8
0
 10
7.99719
 20
7.58334
 30
0.0
 11
7.90952
 21
7.70158
 31
0.0
  0
LINE
  5
13F
  8
0
 10
7.90952
 20
7.70158
 30
0.0
 11
7.81065
 21
7.81065
 31
0.0
  0
LINE
  5
140
  8
0
 10
7.81065
 20
7.81065
 30
0.0
 11
7.70158
 21
7.90952
 31
0.0
  0
LINE
  5
141
  8
0
 10
7.70158
 20
7.90952
 30
0.0
 11
7.58334
 21
7.99719
 31
0.0
  0
LINE
  5
142
  8
0
 10
7.58334
 20
7.99719
 30
0.0
 11
7.45709
 21
8.07288
 31
0.0
  0
LINE
  5
143
  8
0
 10
7.45709
 20
8.07288
 30
0.0
 11
7.32402
 21
8.13582
 31
0.0
  0
LINE
  5
144
  8
0
 10
7.32402
 20
8.13582
 30
0.0
 11
7.18542
 21
8.18541
 31
0.0
  0
LINE
  5
145
  8
0
 10
7.18542
 20
8.18541
 30
0.0
 11
7.04263
 21
8.22118
 31
0.0
  0
LINE
  5
146
  8
0
 10
7.04263
 20
8.22118
 30
0.0
 11
6.89702
 21
8.24277
 31
0.0
  0
LINE
  5
147
  8
0
 10
6.89702
 20
8.24277
 30
0.0
 11
6.75
 21
8.25
 31
0.0
  0
LINE
  5
148
  8
0
 10
6.75
 20
8.25
 30
0.0
 11
6.60297
 21
8.24277
 31
0.0
  0
LINE
  5
149
  8
0
 10
6.60297
 20
8.24277
 30
0.0
 11
6.45735
 21
8.22118
 31
0.0
  0
LINE
  5
14A
  8
0
 10
6.45735
 20
8.22118
 30
0.0
 11
6.31456
 21
8.18541
 31
0.0
  0
LINE
  5
14B
  8
0
 10
6.31456
 20
8.18541
 30
0.0
 11
6.17596
 21
8.13582
 31
0.0
  0
LINE
  5
14C
  8
0
 10
6.17596
 20
8.13582
 30
0.0
 11
6.04289
 21
8.07288
 31
0.0
  0
LINE
  5
14D
  8
0
 10
6.04289
 20
8.07288
 30
0.0
 11
5.91664
 21
7.99719
 31
0.0
  0
LINE
  5
14E
  8
0
 10
5.91664
 20
7.99719
 30
0.0
 11
5.7984
 21
7.90952
 31
0.0
  0
LINE
  5
14F
  8
0
 10
5.7984
 20
7.90952
 30
0.0
 11
5.68933
 21
7.81065
 31
0.0
  0
LINE
  5
150
  8
0
 10
5.68933
 20
7.81065
 30
0.0
 11
5.59047
 21
7.70158
 31
0.0
  0
LINE
  5
151
  8
0
 10
5.59047
 20
7.70158
 30
0.0
 11
5.50279
 21
7.58334
 31
0.0
  0
LINE
  5
152
  8
0
 10
5.50279
 20
7.58334
 30
0.0
 11
5.42711
 21
7.45709
 31
0.0
  0
LINE
  5
153
  8
0
 10
5.42711
 20
7.45709
 30
0.0
 11
5.36417
 21
7.32402
 31
0.0
  0
LINE
  5
154
  8
0
 10
5.36417
 20
7.32402
 30
0.0
 11
5.31458
 21
7.18542
 31
0.0
  0
LINE
  5
155
  8
0
 10
5.31458
 20
7.18542
 30
0.0
 11
5.27881
 21
7.04263
 31
0.0
  0
LINE
  5
156
  8
0
 10
5.27881
 20
7.04263
 30
0.0
 11
5.25722
 21
6.89702
 31
0.0
  0
LINE
  5
157
  8
0
 10
5.25722
 20
6.89702
 30
0.0
 11
5.25
 21
6.75
 31
0.0
  0
LINE
  5
158
  8
0
 10
5.25
 20
6.75
 30
0.0
 11
5.25221
 21
6.70499
 31
0.0
  0
LINE
  5
159
  8
0
 10
5.25221
 20
6.70499
 30
0.0
 11
3.74779
 21
6.70499
 31
0.0
  0
LINE
  5
15A
  8
0
 10
3.74779
 20
6.70499
 30
0.0
 11
3.75
 21
6.75
 31
0.0
  0
LINE
  5
15B
  8
0
 10
3.75
 20
6.75
 30
0.0
 11
3.74278
 21
6.89702
 31
0.0
  0
LINE
  5
15C
  8
0
 10
3.74278
 20
6.89702
 30
0.0
 11
3.72119
 21
7.04263
 31
0.0
  0
LINE
  5
15D
  8
0
 10
3.72119
 20
7.04263
 30
0.0
 11
3.68542
 21
7.18542
 31
0.0
  0
LINE
  5
15E
  8
0
 10
3.68542
 20
7.18542
 30
0.0
 11
3.63583
 21
7.32402
 31
0.0
  0
LINE
  5
15F
  8
0
 10
3.63583
 20
7.32402
 30
0.0
 11
3.57289
 21
7.45709
 31
0.0
  0
LINE
  5
160
  8
0
 10
3.57289
 20
7.45709
 30
0.0
 11
3.49721
 21
7.58334
 31
0.0
  0
LINE
  5
161
  8
0
 10
3.49721
 20
7.58334
 30
0.0
 11
3.40953
 21
7.70158
 31
0.0
  0
LINE
  5
162
  8
0
 10
3.40953
 20
7.70158
 30
0.0
 11
3.31067
 21
7.81065
 31
0.0
  0
LINE
  5
163
  8
0
 10
3.31067
 20
7.81065
 30
0.0
 11
3.2016
 21
7.90952
 31
0.0
  0
LINE
  5
164
  8
0
 10
3.2016
 20
7.90952
 30
0.0
 11
3.08336
 21
7.99719
 31
0.0
  0
LINE
  5
165
  8
0
 10
3.08336
 20
7.99719
 30
0.0
 11
2.95711
 21
8.07288
 31
0.0
  0
LINE
  5
166
  8
0
 10
2.95711
 20
8.07288
 30
0.0
 11
2.82404
 21
8.13582
 31
0.0
  0
LINE
  5
167
  8
0
 10
2.82404
 20
8.13582
 30
0.0
 11
2.68544
 21
8.18541
 31
0.0
  0
LINE
  5
168
  8
0
 10
2.68544
 20
8.18541
 30
0.0
 11
2.54265
 21
8.22118
 31
0.0
  0
LINE
  5
169
  8
0
 10
2.54265
 20
8.22118
 30
0.0
 11
2.39703
 21
8.24277
 31
0.0
  0
LINE
  5
16A
  8
0
 10
2.39703
 20
8.24277
 30
0.0
 11
2.25
 21
8.25
 31
0.0
  0
LINE
  5
16B
  8
0
 10
2.25
 20
8.25
 30
0.0
 11
2.10298
 21
8.24277
 31
0.0
  0
LINE
  5
16C
  8
0
 10
2.10298
 20
8.24277
 30
0.0
 11
1.95737
 21
8.22118
 31
0.0
  0
LINE
  5
16D
  8
0
 10
1.95737
 20
8.22118
 30
0.0
 11
1.81458
 21
8.18541
 31
0.0
  0
LINE
  5
16E
  8
0
 10
1.81458
 20
8.18541
 30
0.0
 11
1.67598
 21
8.13582
 31
0.0
  0
LINE
  5
16F
  8
0
 10
1.67598
 20
8.13582
 30
0.0
 11
1.54291
 21
8.07288
 31
0.0
  0
LINE
  5
170
  8
0
 10
1.54291
 20
8.07288
 30
0.0
 11
1.41666
 21
7.99719
 31
0.0
  0
LINE
  5
171
  8
0
 10
1.41666
 20
7.99719
 30
0.0
 11
1.29842
 21
7.90952
 31
0.0
  0
LINE
  5
172
  8
0
 10
1.29842
 20
7.90952
 30
0.0
 11
1.18935
 21
7.81065
 31
0.0
  0
LINE
  5
173
  8
0
 10
1.18935
 20
7.81065
 30
0.0
 11
1.09048
 21
7.70158
 31
0.0
  0
LINE
  5
174
  8
0
 10
1.09048
 20
7.70158
 30
0.0
 11
1.00281
 21
7.58334
 31
0.0
  0
LINE
  5
175
  8
0
 10
1.00281
 20
7.58334
 30
0.0
 11
0.927124
 21
7.45709
 31
0.0
  0
LINE
  5
176
  8
0
 10
0.927124
 20
7.45709
 30
0.0
 11
0.864182
 21
7.32402
 31
0.0
  0
LINE
  5
177
  8
0
 10
0.864182
 20
7.32402
 30
0.0
 11
0.81459
 21
7.18542
 31
0.0
  0
LINE
  5
178
  8
0
 10
0.81459
 20
7.18542
 30
0.0
 11
0.778824
 21
7.04263
 31
0.0
  0
LINE
  5
179
  8
0
 10
0.778824
 20
7.04263
 30
0.0
 11
0.757233
 21
6.89702
 31
0.0
  0
LINE
  5
17A
  8
0
 10
0.757233
 20
6.89702
 30
0.0
 11
0.75
 21
6.75
 31
0.0
  0
LINE
  5
17B
  8
0
 10
0.75
 20
6.75
 30
0.0
 11
0.757233
 21
6.60297
 31
0.0
  0
LINE
  5
17C
  8
0
 10
0.757233
 20
6.60297
 30
0.0
 11
0.778824
 21
6.45735
 31
0.0
  0
LINE
  5
17D
  8
0
 10
0.778824
 20
6.45735
 30
0.0
 11
0.81459
 21
6.31456
 31
0.0
  0
LINE
  5
17E
  8
0
 10
0.81459
 20
6.31456
 30
0.0
 11
0.864182
 21
6.17596
 31
0.0
  0
LINE
  5
17F
  8
0
 10
0.864182
 20
6.17596
 30
0.0
 11
0.927124
 21
6.04289
 31
0.0
  0
LINE
  5
180
  8
0
 10
0.927124
 20
6.04289
 30
0.0
 11
1.00281
 21
5.91664
 31
0.0
  0
LINE
  5
181
  8
0
 10
1.00281
 20
5.91664
 30
0.0
 11
1.09048
 21
5.7984
 31
0.0
  0
LINE
  5
182
  8
0
 10
1.09048
 20
5.7984
 30
0.0
 11
1.18935
 21
5.68933
 31
0.0
  0
LINE
  5
183
  8
0
 10
1.18935
 20
5.68933
 30
0.0
 11
1.29842
 21
5.59047
 31
0.0
  0
LINE
  5
184
  8
0
 10
1.29842
 20
5.59047
 30
0.0
 11
1.41666
 21
5.50279
 31
0.0
  0
LINE
  5
185
  8
0
 10
1.41666
 20
5.50279
 30
0.0
 11
1.54291
 21
5.42711
 31
0.0
  0
LINE
  5
186
  8
0
 10
1.54291
 20
5.42711
 30
0.0
 11
1.67598
 21
5.36417
 31
0.0
  0
LINE
  5
187
  8
0
 10
1.67598
 20
5.36417
 30
0.0
 11
1.81458
 21
5.31458
 31
0.0
  0
LINE
  5
188
  8
0
 10
1.81458
 20
5.31458
 30
0.0
 11
1.95737
 21
5.27881
 31
0.0
  0
LINE
  5
189
  8
0
 10
1.95737
 20
5.27881
 30
0.0
 11
2.10298
 21
5.25722
 31
0.0
  0
LINE
  5
18A
  8
0
 10
2.10298
 20
5.25722
 30
0.0
 11
2.25
 21
5.25
 31
0.0
  0
LINE
  5
18B
  8
0
 10
2.25
 20
5.25
 30
0.0
 11
2.25
 21
3.75
 31
0.0
  0
LINE
  5
18C
  8
0
 10
2.25
 20
3.75
 30
0.0
 11
2.10298
 21
3.74278
 31
0.0
  0
LINE
  5
18D
  8
0
 10
2.10298
 20
3.74278
 30
0.0
 11
1.95737
 21
3.72119
 31
0.0
  0
LINE
  5
18E
  8
0
 10
1.95737
 20
3.72119
 30
0.0
 11
1.81458
 21
3.68542
 31
0.0
  0
LINE
  5
18F
  8
0
 10
1.81458
 20
3.68542
 30
0.0
 11
1.67598
 21
3.63583
 31
0.0
  0
LINE
  5
190
  8
0
 10
1.67598
 20
3.63583
 30
0.0
 11
1.54291
 21
3.57289
 31
0.0
  0
LINE
  5
191
  8
0
 10
1.54291
 20
3.57289
 30
0.0
 11
1.41666
 21
3.49721
 31
0.0
  0
LINE
  5
192
  8
0
 10
1.41666
 20
3.49721
 30
0.0
 11
1.29842
 21
3.40953
 31
0.0
  0
LINE
  5
193
  8
0
 10
1.29842
 20
3.40953
 30
0.0
 11
1.18935
 21
3.31067
 31
0.0
  0
LINE
  5
194
  8
0
 10
1.18935
 20
3.31067
 30
0.0
 11
1.09048
 21
3.2016
 31
0.0
  0
LINE
  5
195
  8
0
 10
1.09048
 20
3.2016
 30
0.0
 11
1.00281
 21
3.08336
 31
0.0
  0
LINE
  5
196
  8
0
 10
1.00281
 20
3.08336
 30
0.0
 11
0.927124
 21
2.95711
 31
0.0
  0
LINE
  5
197
  8
0
 10
0.927124
 20
2.95711
 30
0.0
 11
0.864182
 21
2.82404
 31
0.0
  0
LINE
  5
198
  8
0
 10
0.864182
 20
2.82404
 30
0.0
 11
0.81459
 21
2.68544
 31
0.0
  0
LINE
  5
199
  8
0
 10
0.81459
 20
2.68544
 30
0.0
 11
0.778824
 21
2.54265
 31
0.0
  0
LINE
  5
19A
  8
0
 10
0.778824
 20
2.54265
 30
0.0
 11
0.757233
 21
2.39703
 31
0.0
  0
LINE
  5
19B
  8
0
 10
0.757233
 20
2.39703
 30
0.0
 11
0.75
 21
2.25
 31
0.0
  0
LINE
  5
19C
  8
0
 10
0.75
 20
2.25
 30
0.0
 11
0.757233
 21
2.10298
 31
0.0
  0
LINE
  5
19D
  8
0
 10
0.757233
 20
2.10298
 30
0.0
 11
0.778824
 21
1.95737
 31
0.0
  0
LINE
  5
19E
  8
0
 10
0.778824
 20
1.95737
 30
0.0
 11
0.81459
 21
1.81458
 31
0.0
  0
LINE
  5
19F
  8
0
 10
0.81459
 20
1.81458
 30
0.0
 11
0.864182
 21
1.67598
 31
0.0
  0
LINE
  5
1A0
  8
0
 10
0.864182
 20
1.67598
 30
0.0
 11
0.927124
 21
1.54291
 31
0.0
  0
LINE
  5
1A1
  8
0
 10
0.927124
 20
1.54291
 30
0.0
 11
1.00281
 21
1.41666
 31
0.0
  0
LINE
  5
1A2
  8
0
 10
1.00281
 20
1.41666
 30
0.0
 11
1.09048
 21
1.29842
 31
0.0
  0
LINE
  5
1A3
  8
0
 10
1.09048
 20
1.29842
 30
0.0
 11
1.18935
 21
1.18935
 31
0.0
  0
LINE
  5
1A4
  8
0
 10
1.18935
 20
1.18935
 30
0.0
 11
1.29842
 21
1.09048
 31
0.0
  0
LINE
  5
1A5
  8
0
 10
1.29842
 20
1.09048
 30
0.0
 11
1.41666
 21
1.00281
 31
0.0
  0
LINE
  5
1A6
  8
0
 10
1.41666
 20
1.00281
 30
0.0
 11
1.54291
 21
0.927124
 31
0.0
  0
LINE
  5
1A7
  8
0
 10
1.54291
 20
0.927124
 30
0.0
 11
1.67598
 21
0.864182
 31
0.0
  0
LINE
  5
1A8
  8
0
 10
1.67598
 20
0.864182
 30
0.0
 11
1.81458
 21
0.81459
 31
0.0
  0
LINE
  5
1A9
  8
0
 10
1.81458
 20
0.81459
 30
0.0
 11
1.95737
 21
0.778824
 31
0.0
  0
LINE
  5
1AA
  8
0
 10
1.95737
 20
0.778824
 30
0.0
 11
2.10298
 21
0.757233
 31
0.0
  0
LINE
  5
1AB
  8
0
 10
2.10298
 20
0.757233
 30
0.0
 11
2.25
 21
0.75
 31
0.0
  0
LINE
  5
1AC
  8
0
 10
2.25
 20
0.75
 30
0.0
 11
2.39703
 21
0.757233
 31
0.0
  0
LINE
  5
1AD
  8
0
 10
2.39703
 20
0.757233
 30
0.0
 11
2.54265
 21
0.778824
 31
0.0
  0
LINE
  5
1AE
  8
0
 10
2.54265
 20
0.778824
 30
0.0
 11
2.68544
 21
0.81459
 31
0.0
  0
LINE
  5
1AF
  8
0
 10
2.68544
 20
0.81459
 30
0.0
 11
2.82404
 21
0.864182
 31
0.0
  0
LINE
  5
1B0
  8
0
 10
2.82404
 20
0.864182
 30
0.0
 11
2.95711
 21
0.927124
 31
0.0
  0
LINE
  5
1B1
  8
0
 10
2.95711
 20
0.927124
 30
0.0
 11
3.08336
 21
1.00281
 31
0.0
  0
LINE
  5
1B2
  8
0
 10
3.08336
 20
1.00281
 30
0.0
 11
3.2016
 21
1.09048
 31
0.0
  0
LINE
  5
1B3
  8
0
 10
3.2016
 20
1.09048
 30
0.0
 11
3.31067
 21
1.18935
 31
0.0
  0
LINE
  5
1B4
  8
0
 10
3.31067
 20
1.18935
 30
0.0
 11
3.40953
 21
1.29842
 31
0.0
  0
LINE
  5
1B5
  8
0
 10
3.40953
 20
1.29842
 30
0.0
 11
3.49721
 21
1.41666
 31
0.0
  0
LINE
  5
1B6
  8
0
 10
3.49721
 20
1.41666
 30
0.0
 11
3.57289
 21
1.54291
 31
0.0
  0
LINE
  5
1B7
  8
0
 10
3.57289
 20
1.54291
 30
0.0
 11
3.63583
 21
1.67598
 31
0.0
  0
LINE
  5
1B8
  8
0
 10
3.63583
 20
1.67598
 30
0.0
 11
3.68542
 21
1.81458
 31
0.0
  0
LINE
  5
1B9
  8
0
 10
3.68542
 20
1.81458
 30
0.0
 11
3.72119
 21
1.95737
 31
0.0
  0
LINE
  5
1BA
  8
0
 10
3.72119
 20
1.95737
 30
0.0
 11
3.74278
 21
2.10298
 31
0.0
  0
LINE
  5
1BB
  8
0
 10
3.74278
 20
2.10298
 30
0.0
 11
3.75
 21
2.25
 31
0.0
  0
LINE
  5
1BC
  8
0
 10
3.75
 20
2.25
 30
0.0
 11
3.74779
 21
2.29501
 31
0.0
  0
LINE
  5
1BD
  8
0
 10
3.74779
 20
2.29501
 30
0.0
 11
5.25221
 21
2.29501
 31
0.0
  0
LINE
  5
1BE
  8
0
 10
5.25221
 20
2.29501
 30
0.0
 11
5.25
 21
2.25
 31
0.0
  0
LINE
  5
1BF
  8
0
 10
5.25
 20
2.25
 30
0.0
 11
5.25722
 21
2.10298
 31
0.0
  0
LINE
  5
1C0
  8
0
 10
5.25722
 20
2.10298
 30
0.0
 11
5.27881
 21
1.95737
 31
0.0
  0
LINE
  5
1C1
  8
0
 10
5.27881
 20
1.95737
 30
0.0
 11
5.31458
 21
1.81458
 31
0.0
  0
LINE
  5
1C2
  8
0
 10
5.31458
 20
1.81458
 30
0.0
 11
5.36417
 21
1.67598
 31
0.0
  0
LINE
  5
1C3
  8
0
 10
5.36417
 20
1.67598
 30
0.0
 11
5.42711
 21
1.54291
 31
0.0
  0
LINE
  5
1C4
  8
0
 10
5.42711
 20
1.54291
 30
0.0
 11
5.50279
 21
1.41666
 31
0.0
  0
LINE
  5
1C5
  8
0
 10
5.50279
 20
1.41666
 30
0.0
 11
5.59047
 21
1.29842
 31
0.0
  0
LINE
  5
1C6
  8
0
 10
5.59047
 20
1.29842
 30
0.0
 11
5.68933
 21
1.18935
 31
0.0
  0
LINE
  5
1C7
  8
0
 10
5.68933
 20
1.18935
 30
0.0
 11
5.7984
 21
1.09048
 31
0.0
  0
LINE
  5
1C8
  8
0
 10
5.7984
 20
1.09048
 30
0.0
 11
5.91664
 21
1.00281
 31
0.0
  0
LINE
  5
1C9
  8
0
 10
5.91664
 20
1.00281
 30
0.0
 11
6.04289
 21
0.927124
 31
0.0
  0
LINE
  5
1CA
  8
0
 10
6.04289
 20
0.927124
 30
0.0
 11
6.17596
 21
0.864182
 31
0.0
  0
LINE
  5
1CB
  8
0
 10
6.17596
 20
0.864182
 30
0.0
 11
6.31456
 21
0.81459
 31
0.0
  0
LINE
  5
1CC
  8
0
 10
6.31456
 20
0.81459
 30
0.0
 11
6.45735
 21
0.778824
 31
0.0
  0
LINE
  5
1CD
  8
0
 10
6.45735
 20
0.778824
 30
0.0
 11
6.60297
 21
0.757233
 31
0.0
  0
LINE
  5
1CE
  8
0
 10
6.60297
 20
0.757233
 30
0.0
 11
6.75
 21
0.75
 31
0.0
  0
LINE
  5
1CF
  8
0
 10
6.75
 20
0.75
 30
0.0
 11
6.89702
 21
0.757233
 31
0.0
  0
LINE
  5
1D0
  8
0
 10
4.10001
 20
6.655
 30
0.0
 11
4.10001
 21
6.69499
 31
0.0
  0
LINE
  5
1D1
  8
0
 10
4.10001
 20
6.69499
 30
0.0
 11
4.89999
 21
6.69499
 31
0.0
  0
LINE
  5
1D2
  8
0
 10
4.89999
 20
6.69499
 30
0.0
 11
4.89999
 21
6.655
 31
0.0
  0
LINE
  5
1D3
  8
0
 10
4.89999
 20
6.655
 30
0.0
 11
4.10001
 21
6.655
 31
0.0
  0
LINE
  5
1D4
  8
0
 10
4.10001
 20
6.605
 30
0.0
 11
4.10001
 21
6.64499
 31
0.0
  0
LINE
  5
1D5
  8
0
 10
4.10001
 20
6.64499
 30
0.0
 11
4.89999
 21
6.64499
 31
0.0
  0
LINE
  5
1D6
  8
0
 10
4.89999
 20
6.64499
 30
0.0
 11
4.89999
 21
6.605
 31
0.0
  0
LINE
  5
1D7
  8
0
 10
4.89999
 20
6.605
 30
0.0
 11
4.10001
 21
6.605
 31
0.0
  0
LINE
  5
1D8
  8
0
 10
4.10001
 20
6.55499
 30
0.0
 11
4.10001
 21
6.59499
 31
0.0
  0
LINE
  5
1D9
  8
0
 10
4.10001
 20
6.59499
 30
0.0
 11
4.89999
 21
6.59499
 31
0.0
  0
LINE
  5
1DA
  8
0
 10
4.89999
 20
6.59499
 30
0.0
 11
4.89999
 21
6.55499
 31
0.0
  0
LINE
  5
1DB
  8
0
 10
4.89999
 20
6.55499
 30
0.0
 11
4.10001
 21
6.55499
 31
0.0
  0
LINE
  5
1DC
  8
0
 10
4.10001
 20
6.50499
 30
0.0
 11
4.10001
 21
6.545
 31
0.0
  0
LINE
  5
1DD
  8
0
 10
4.10001
 20
6.545
 30
0.0
 11
4.89999
 21
6.545
 31
0.0
  0
LINE
  5
1DE
  8
0
 10
4.89999
 20
6.545
 30
0.0
 11
4.89999
 21
6.50499
 31
0.0
  0
LINE
  5
1DF
  8
0
 10
4.89999
 20
6.50499
 30
0.0
 11
4.10001
 21
6.50499
 31
0.0
  0
LINE
  5
1E0
  8
0
 10
4.10001
 20
6.45499
 30
0.0
 11
4.10001
 21
6.495
 31
0.0
  0
LINE
  5
1E1
  8
0
 10
4.10001
 20
6.495
 30
0.0
 11
4.89999
 21
6.495
 31
0.0
  0
LINE
  5
1E2
  8
0
 10
4.89999
 20
6.495
 30
0.0
 11
4.89999
 21
6.45499
 31
0.0
  0
LINE
  5
1E3
  8
0
 10
4.89999
 20
6.45499
 30
0.0
 11
4.10001
 21
6.45499
 31
0.0
  0
LINE
  5
1E4
  8
0
 10
4.10001
 20
6.405
 30
0.0
 11
4.10001
 21
6.44499
 31
0.0
  0
LINE
  5
1E5
  8
0
 10
4.10001
 20
6.44499
 30
0.0
 11
4.89999
 21
6.44499
 31
0.0
  0
LINE
  5
1E6
  8
0
 10
4.89999
 20
6.44499
 30
0.0
 11
4.89999
 21
6.405
 31
0.0
  0
LINE
  5
1E7
  8
0
 10
4.89999
 20
6.405
 30
0.0
 11
4.10001
 21
6.405
 31
0.0
  0
LINE
  5
1E8
  8
0
 10
4.10001
 20
6.355
 30
0.0
 11
4.10001
 21
6.39499
 31
0.0
  0
LINE
  5
1E9
  8
0
 10
4.10001
 20
6.39499
 30
0.0
 11
4.89999
 21
6.39499
 31
0.0
  0
LINE
  5
1EA
  8
0
 10
4.89999
 20
6.39499
 30
0.0
 11
4.89999
 21
6.355
 31
0.0
  0
LINE
  5
1EB
  8
0
 10
4.89999
 20
6.355
 30
0.0
 11
4.10001
 21
6.355
 31
0.0
  0
LINE
  5
1EC
  8
0
 10
4.10001
 20
6.30499
 30
0.0
 11
4.10001
 21
6.34499
 31
0.0
  0
LINE
  5
1ED
  8
0
 10
4.10001
 20
6.34499
 30
0.0
 11
4.89999
 21
6.34499
 31
0.0
  0
LINE
  5
1EE
  8
0
 10
4.89999
 20
6.34499
 30
0.0
 11
4.89999
 21
6.30499
 31
0.0
  0
LINE
  5
1EF
  8
0
 10
4.89999
 20
6.30499
 30
0.0
 11
4.10001
 21
6.30499
 31
0.0
  0
LINE
  5
1F0
  8
0
 10
4.10001
 20
6.25499
 30
0.0
 11
4.10001
 21
6.295
 31
0.0
  0
LINE
  5
1F1
  8
0
 10
4.10001
 20
6.295
 30
0.0
 11
4.89999
 21
6.295
 31
0.0
  0
LINE
  5
1F2
  8
0
 10
4.89999
 20
6.295
 30
0.0
 11
4.89999
 21
6.25499
 31
0.0
  0
LINE
  5
1F3
  8
0
 10
4.89999
 20
6.25499
 30
0.0
 11
4.10001
 21
6.25499
 31
0.0
  0
LINE
  5
1F4
  8
0
 10
4.10001
 20
6.20499
 30
0.0
 11
4.10001
 21
6.245
 31
0.0
  0
LINE
  5
1F5
  8
0
 10
4.10001
 20
6.245
 30
0.0
 11
4.89999
 21
6.245
 31
0.0
  0
LINE
  5
1F6
  8
0
 10
4.89999
 20
6.245
 30
0.0
 11
4.89999
 21
6.20499
 31
0.0
  0
LINE
  5
1F7
  8
0
 10
4.89999
 20
6.20499
 30
0.0
 11
4.10001
 21
6.20499
 31
0.0
  0
LINE
  5
1F8
  8
0
 10
4.10001
 20
6.155
 30
0.0
 11
4.10001
 21
6.19499
 31
0.0
  0
LINE
  5
1F9
  8
0
 10
4.10001
 20
6.19499
 30
0.0
 11
4.89999
 21
6.19499
 31
0.0
  0
LINE
  5
1FA
  8
0
 10
4.89999
 20
6.19499
 30
0.0
 11
4.89999
 21
6.155
 31
0.0
  0
LINE
  5
1FB
  8
0
 10
4.89999
 20
6.155
 30
0.0
 11
4.10001
 21
6.155
 31
0.0
  0
LINE
  5
1FC
  8
0
 10
4.10001
 20
6.105
 30
0.0
 11
4.10001
 21
6.14499
 31
0.0
  0
LINE
  5
1FD
  8
0
 10
4.10001
 20
6.14499
 30
0.0
 11
4.89999
 21
6.14499
 31
0.0
  0
LINE
  5
1FE
  8
0
 10
4.89999
 20
6.14499
 30
0.0
 11
4.89999
 21
6.105
 31
0.0
  0
LINE
  5
1FF
  8
0
 10
4.89999
 20
6.105
 30
0.0
 11
4.10001
 21
6.105
 31
0.0
  0
LINE
  5
200
  8
0
 10
4.10001
 20
6.05499
 30
0.0
 11
4.10001
 21
6.09499
 31
0.0
  0
LINE
  5
201
  8
0
 10
4.10001
 20
6.09499
 30
0.0
 11
4.89999
 21
6.09499
 31
0.0
  0
LINE
  5
202
  8
0
 10
4.89999
 20
6.09499
 30
0.0
 11
4.89999
 21
6.05499
 31
0.0
  0
LINE
  5
203
  8
0
 10
4.89999
 20
6.05499
 30
0.0
 11
4.10001
 21
6.05499
 31
0.0
  0
LINE
  5
204
  8
0
 10
4.10001
 20
6.00499
 30
0.0
 11
4.10001
 21
6.045
 31
0.0
  0
LINE
  5
205
  8
0
 10
4.10001
 20
6.045
 30
0.0
 11
4.89999
 21
6.045
 31
0.0
  0
LINE
  5
206
  8
0
 10
4.89999
 20
6.045
 30
0.0
 11
4.89999
 21
6.00499
 31
0.0
  0
LINE
  5
207
  8
0
 10
4.89999
 20
6.00499
 30
0.0
 11
4.10001
 21
6.00499
 31
0.0
  0
LINE
  5
208
  8
0
 10
4.10001
 20
5.95499
 30
0.0
 11
4.10001
 21
5.995
 31
0.0
  0
LINE
  5
209
  8
0
 10
4.10001
 20
5.995
 30
0.0
 11
4.89999
 21
5.995
 31
0.0
  0
LINE
  5
20A
  8
0
 10
4.89999
 20
5.995
 30
0.0
 11
4.89999
 21
5.95499
 31
0.0
  0
LINE
  5
20B
  8
0
 10
4.89999
 20
5.95499
 30
0.0
 11
4.10001
 21
5.95499
 31
0.0
  0
LINE
  5
20C
  8
0
 10
4.10001
 20
5.905
 30
0.0
 11
4.10001
 21
5.94499
 31
0.0
  0
LINE
  5
20D
  8
0
 10
4.10001
 20
5.94499
 30
0.0
 11
4.89999
 21
5.94499
 31
0.0
  0
LINE
  5
20E
  8
0
 10
4.89999
 20
5.94499
 30
0.0
 11
4.89999
 21
5.905
 31
0.0
  0
LINE
  5
20F
  8
0
 10
4.89999
 20
5.905
 30
0.0
 11
4.10001
 21
5.905
 31
0.0
  0
LINE
  5
210
  8
0
 10
4.10001
 20
5.855
 30
0.0
 11
4.10001
 21
5.89499
 31
0.0
  0
LINE
  5
211
  8
0
 10
4.10001
 20
5.89499
 30
0.0
 11
4.89999
 21
5.89499
 31
0.0
  0
LINE
  5
212
  8
0
 10
4.89999
 20
5.89499
 30
0.0
 11
4.89999
 21
5.855
 31
0.0
  0
LINE
  5
213
  8
0
 10
4.89999
 20
5.855
 30
0.0
 11
4.10001
 21
5.855
 31
0.0
  0
LINE
  5
214
  8
0
 10
4.10001
 20
5.80499
 30
0.0
 11
4.10001
 21
5.84499
 31
0.0
  0
LINE
  5
215
  8
0
 10
4.10001
 20
5.84499
 30
0.0
 11
4.89999
 21
5.84499
 31
0.0
  0
LINE
  5
216
  8
0
 10
4.89999
 20
5.84499
 30
0.0
 11
4.89999
 21
5.80499
 31
0.0
  0
LINE
  5
217
  8
0
 10
4.89999
 20
5.80499
 30
0.0
 11
4.10001
 21
5.80499
 31
0.0
  0
LINE
  5
218
  8
0
 10
4.10001
 20
5.75499
 30
0.0
 11
4.10001
 21
5.795
 31
0.0
  0
LINE
  5
219
  8
0
 10
4.10001
 20
5.795
 30
0.0
 11
4.89999
 21
5.795
 31
0.0
  0
LINE
  5
21A
  8
0
 10
4.89999
 20
5.795
 30
0.0
 11
4.89999
 21
5.75499
 31
0.0
  0
LINE
  5
21B
  8
0
 10
4.89999
 20
5.75499
 30
0.0
 11
4.10001
 21
5.75499
 31
0.0
  0
LINE
  5
21C
  8
0
 10
4.10001
 20
5.70499
 30
0.0
 11
4.10001
 21
5.745
 31
0.0
  0
LINE
  5
21D
  8
0
 10
4.10001
 20
5.745
 30
0.0
 11
4.89999
 21
5.745
 31
0.0
  0
LINE
  5
21E
  8
0
 10
4.89999
 20
5.745
 30
0.0
 11
4.89999
 21
5.70499
 31
0.0
  0
LINE
  5
21F
  8
0
 10
4.89999
 20
5.70499
 30
0.0
 11
4.10001
 21
5.70499
 31
0.0
  0
LINE
  5
220
  8
0
 10
4.10001
 20
5.655
 30
0.0
 11
4.10001
 21
5.69499
 31
0.0
  0
LINE
  5
221
  8
0
 10
4.10001
 20
5.69499
 30
0.0
 11
4.89999
 21
5.69499
 31
0.0
  0
LINE
  5
222
  8
0
 10
4.89999
 20
5.69499
 30
0.0
 11
4.89999
 21
5.655
 31
0.0
  0
LINE
  5
223
  8
0
 10
4.89999
 20
5.655
 30
0.0
 11
4.10001
 21
5.655
 31
0.0
  0
LINE
  5
224
  8
0
 10
4.10001
 20
5.605
 30
0.0
 11
4.10001
 21
5.64499
 31
0.0
  0
LINE
  5
225
  8
0
 10
4.10001
 20
5.64499
 30
0.0
 11
4.89999
 21
5.64499
 31
0.0
  0
LINE
  5
226
  8
0
 10
4.89999
 20
5.64499
 30
0.0
 11
4.89999
 21
5.605
 31
0.0
  0
LINE
  5
227
  8
0
 10
4.89999
 20
5.605
 30
0.0
 11
4.10001
 21
5.605
 31
0.0
  0
LINE
  5
228
  8
0
 10
4.10001
 20
5.55499
 30
0.0
 11
4.10001
 21
5.59499
 31
0.0
  0
LINE
  5
229
  8
0
 10
4.10001
 20
5.59499
 30
0.0
 11
4.89999
 21
5.59499
 31
0.0
  0
LINE
  5
22A
  8
0
 10
4.89999
 20
5.59499
 30
0.0
 11
4.89999
 21
5.55499
 31
0.0
  0
LINE
  5
22B
  8
0
 10
4.89999
 20
5.55499
 30
0.0
 11
4.10001
 21
5.55499
 31
0.0
  0
LINE
  5
22C
  8
0
 10
4.10001
 20
5.50499
 30
0.0
 11
4.10001
 21
5.545
 31
0.0
  0
LINE
  5
22D
  8
0
 10
4.10001
 20
5.545
 30
0.0
 11
4.89999
 21
5.545
 31
0.0
  0
LINE
  5
22E
  8
0
 10
4.89999
 20
5.545
 30
0.0
 11
4.89999
 21
5.50499
 31
0.0
  0
LINE
  5
22F
  8
0
 10
4.89999
 20
5.50499
 30
0.0
 11
4.10001
 21
5.50499
 31
0.0
  0
LINE
  5
230
  8
0
 10
4.10001
 20
5.45499
 30
0.0
 11
4.10001
 21
5.495
 31
0.0
  0
LINE
  5
231
  8
0
 10
4.10001
 20
5.495
 30
0.0
 11
4.89999
 21
5.495
 31
0.0
  0
LINE
  5
232
  8
0
 10
4.89999
 20
5.495
 30
0.0
 11
4.89999
 21
5.45499
 31
0.0
  0
LINE
  5
233
  8
0
 10
4.89999
 20
5.45499
 30
0.0
 11
4.10001
 21
5.45499
 31
0.0
  0
LINE
  5
234
  8
0
 10
4.10001
 20
5.405
 30
0.0
 11
4.10001
 21
5.44499
 31
0.0
  0
LINE
  5
235
  8
0
 10
4.10001
 20
5.44499
 30
0.0
 11
4.89999
 21
5.44499
 31
0.0
  0
LINE
  5
236
  8
0
 10
4.89999
 20
5.44499
 30
0.0
 11
4.89999
 21
5.405
 31
0.0
  0
LINE
  5
237
  8
0
 10
4.89999
 20
5.405
 30
0.0
 11
4.10001
 21
5.405
 31
0.0
  0
LINE
  5
238
  8
0
 10
4.10001
 20
5.355
 30
0.0
 11
4.10001
 21
5.39499
 31
0.0
  0
LINE
  5
239
  8
0
 10
4.10001
 20
5.39499
 30
0.0
 11
4.89999
 21
5.39499
 31
0.0
  0
LINE
  5
23A
  8
0
 10
4.89999
 20
5.39499
 30
0.0
 11
4.89999
 21
5.355
 31
0.0
  0
LINE
  5
23B
  8
0
 10
4.89999
 20
5.355
 30
0.0
 11
4.10001
 21
5.355
 31
0.0
  0
LINE
  5
23C
  8
0
 10
4.10001
 20
5.30499
 30
0.0
 11
4.10001
 21
5.34499
 31
0.0
  0
LINE
  5
23D
  8
0
 10
4.10001
 20
5.34499
 30
0.0
 11
4.89999
 21
5.34499
 31
0.0
  0
LINE
  5
23E
  8
0
 10
4.89999
 20
5.34499
 30
0.0
 11
4.89999
 21
5.30499
 31
0.0
  0
LINE
  5
23F
  8
0
 10
4.89999
 20
5.30499
 30
0.0
 11
4.10001
 21
5.30499
 31
0.0
  0
LINE
  5
240
  8
0
 10
4.10001
 20
5.25499
 30
0.0
 11
4.10001
 21
5.295
 31
0.0
  0
LINE
  5
241
  8
0
 10
4.10001
 20
5.295
 30
0.0
 11
4.89999
 21
5.295
 31
0.0
  0
LINE
  5
242
  8
0
 10
4.89999
 20
5.295
 30
0.0
 11
4.89999
 21
5.25499
 31
0.0
  0
LINE
  5
243
  8
0
 10
4.89999
 20
5.25499
 30
0.0
 11
4.10001
 21
5.25499
 31
0.0
  0
LINE
  5
244
  8
0
 10
4.10001
 20
5.20499
 30
0.0
 11
4.10001
 21
5.245
 31
0.0
  0
LINE
  5
245
  8
0
 10
4.10001
 20
5.245
 30
0.0
 11
4.89999
 21
5.245
 31
0.0
  0
LINE
  5
246
  8
0
 10
4.89999
 20
5.245
 30
0.0
 11
4.89999
 21
5.20499
 31
0.0
  0
LINE
  5
247
  8
0
 10
4.89999
 20
5.20499
 30
0.0
 11
4.10001
 21
5.20499
 31
0.0
  0
LINE
  5
248
  8
0
 10
4.10001
 20
5.155
 30
0.0
 11
4.10001
 21
5.19499
 31
0.0
  0
LINE
  5
249
  8
0
 10
4.10001
 20
5.19499
 30
0.0
 11
4.89999
 21
5.19499
 31
0.0
  0
LINE
  5
24A
  8
0
 10
4.89999
 20
5.19499
 30
0.0
 11
4.89999
 21
5.155
 31
0.0
  0
LINE
  5
24B
  8
0
 10
4.89999
 20
5.155
 30
0.0
 11
4.10001
 21
5.155
 31
0.0
  0
LINE
  5
24C
  8
0
 10
4.10001
 20
5.105
 30
0.0
 11
4.10001
 21
5.14499
 31
0.0
  0
LINE
  5
24D
  8
0
 10
4.10001
 20
5.14499
 30
0.0
 11
4.89999
 21
5.14499
 31
0.0
  0
LINE
  5
24E
  8
0
 10
4.89999
 20
5.14499
 30
0.0
 11
4.89999
 21
5.105
 31
0.0
  0
LINE
  5
24F
  8
0
 10
4.89999
 20
5.105
 30
0.0
 11
4.10001
 21
5.105
 31
0.0
  0
LINE
  5
250
  8
0
 10
4.10001
 20
5.05499
 30
0.0
 11
4.10001
 21
5.09499
 31
0.0
  0
LINE
  5
251
  8
0
 10
4.10001
 20
5.09499
 30
0.0
 11
4.89999
 21
5.09499
 31
0.0
  0
LINE
  5
252
  8
0
 10
4.89999
 20
5.09499
 30
0.0
 11
4.89999
 21
5.05499
 31
0.0
  0
LINE
  5
253
  8
0
 10
4.89999
 20
5.05499
 30
0.0
 11
4.10001
 21
5.05499
 31
0.0
  0
LINE
  5
254
  8
0
 10
4.10001
 20
5.00499
 30
0.0
 11
4.10001
 21
5.045
 31
0.0
  0
LINE
  5
255
  8
0
 10
4.10001
 20
5.045
 30
0.0
 11
4.89999
 21
5.045
 31
0.0
  0
LINE
  5
256
  8
0
 10
4.89999
 20
5.045
 30
0.0
 11
4.89999
 21
5.00499
 31
0.0
  0
LINE
  5
257
  8
0
 10
4.89999
 20
5.00499
 30
0.0
 11
4.10001
 21
5.00499
 31
0.0
  0
LINE
  5
258
  8
0
 10
4.10001
 20
4.95499
 30
0.0
 11
4.10001
 21
4.995
 31
0.0
  0
LINE
  5
259
  8
0
 10
4.10001
 20
4.995
 30
0.0
 11
4.89999
 21
4.995
 31
0.0
  0
LINE
  5
25A
  8
0
 10
4.89999
 20
4.995
 30
0.0
 11
4.89999
 21
4.95499
 31
0.0
  0
LINE
  5
25B
  8
0
 10
4.89999
 20
4.95499
 30
0.0
 11
4.10001
 21
4.95499
 31
0.0
  0
LINE
  5
25C
  8
0
 10
4.10001
 20
4.905
 30
0.0
 11
4.10001
 21
4.94499
 31
0.0
  0
LINE
  5
25D
  8
0
 10
4.10001
 20
4.94499
 30
0.0
 11
4.89999
 21
4.94499
 31
0.0
  0
LINE
  5
25E
  8
0
 10
4.89999
 20
4.94499
 30
0.0
 11
4.89999
 21
4.905
 31
0.0
  0
LINE
  5
25F
  8
0
 10
4.89999
 20
4.905
 30
0.0
 11
4.10001
 21
4.905
 31
0.0
  0
LINE
  5
260
  8
0
 10
4.10001
 20
4.855
 30
0.0
 11
4.10001
 21
4.89499
 31
0.0
  0
LINE
  5
261
  8
0
 10
4.10001
 20
4.89499
 30
0.0
 11
4.89999
 21
4.89499
 31
0.0
  0
LINE
  5
262
  8
0
 10
4.89999
 20
4.89499
 30
0.0
 11
4.89999
 21
4.855
 31
0.0
  0
LINE
  5
263
  8
0
 10
4.89999
 20
4.855
 30
0.0
 11
4.10001
 21
4.855
 31
0.0
  0
LINE
  5
264
  8
0
 10
4.10001
 20
4.80499
 30
0.0
 11
4.10001
 21
4.84499
 31
0.0
  0
LINE
  5
265
  8
0
 10
4.10001
 20
4.84499
 30
0.0
 11
4.89999
 21
4.84499
 31
0.0
  0
LINE
  5
266
  8
0
 10
4.89999
 20
4.84499
 30
0.0
 11
4.89999
 21
4.80499
 31
0.0
  0
LINE
  5
267
  8
0
 10
4.89999
 20
4.80499
 30
0.0
 11
4.10001
 21
4.80499
 31
0.0
  0
LINE
  5
268
  8
0
 10
4.10001
 20
4.75499
 30
0.0
 11
4.10001
 21
4.795
 31
0.0
  0
LINE
  5
269
  8
0
 10
4.10001
 20
4.795
 30
0.0
 11
4.89999
 21
4.795
 31
0.0
  0
LINE
  5
26A
  8
0
 10
4.89999
 20
4.795
 30
0.0
 11
4.89999
 21
4.75499
 31
0.0
  0
LINE
  5
26B
  8
0
 10
4.89999
 20
4.75499
 30
0.0
 11
4.10001
 21
4.75499
 31
0.0
  0
LINE
  5
26C
  8
0
 10
4.10001
 20
4.70499
 30
0.0
 11
4.10001
 21
4.745
 31
0.0
  0
LINE
  5
26D
  8
0
 10
4.10001
 20
4.745
 30
0.0
 11
4.89999
 21
4.745
 31
0.0
  0
LINE
  5
26E
  8
0
 10
4.89999
 20
4.745
 30
0.0
 11
4.89999
 21
4.70499
 31
0.0
  0
LINE
  5
26F
  8
0
 10
4.89999
 20
4.70499
 30
0.0
 11
4.10001
 21
4.70499
 31
0.0
  0
LINE
  5
270
  8
0
 10
4.10001
 20
4.655
 30
0.0
 11
4.10001
 21
4.69499
 31
0.0
  0
LINE
  5
271
  8
0
 10
4.10001
 20
4.69499
 30
0.0
 11
4.89999
 21
4.69499
 31
0.0
  0
LINE
  5
272
  8
0
 10
4.89999
 20
4.69499
 30
0.0
 11
4.89999
 21
4.655
 31
0.0
  0
LINE
  5
273
  8
0
 10
4.89999
 20
4.655
 30
0.0
 11
4.10001
 21
4.655
 31
0.0
  0
LINE
  5
274
  8
0
 10
4.10001
 20
4.605
 30
0.0
 11
4.10001
 21
4.64499
 31
0.0
  0
LINE
  5
275
  8
0
 10
4.10001
 20
4.64499
 30
0.0
 11
4.89999
 21
4.64499
 31
0.0
  0
LINE
  5
276
  8
0
 10
4.89999
 20
4.64499
 30
0.0
 11
4.89999
 21
4.605
 31
0.0
  0
LINE
  5
277
  8
0
 10
4.89999
 20
4.605
 30
0.0
 11
4.10001
 21
4.605
 31
0.0
  0
LINE
  5
278
  8
0
 10
4.10001
 20
4.55499
 30
0.0
 11
4.10001
 21
4.59499
 31
0.0
  0
LINE
  5
279
  8
0
 10
4.10001
 20
4.59499
 30
0.0
 11
4.89999
 21
4.59499
 31
0.0
  0
LINE
  5
27A
  8
0
 10
4.89999
 20
4.59499
 30
0.0
 11
4.89999
 21
4.55499
 31
0.0
  0
LINE
  5
27B
  8
0
 10
4.89999
 20
4.55499
 30
0.0
 11
4.10001
 21
4.55499
 31
0.0
  0
LINE
  5
27C
  8
0
 10
4.10001
 20
4.50499
 30
0.0
 11
4.10001
 21
4.545
 31
0.0
  0
LINE
  5
27D
  8
0
 10
4.10001
 20
4.545
 30
0.0
 11
4.89999
 21
4.545
 31
0.0
  0
LINE
  5
27E
  8
0
 10
4.89999
 20
4.545
 30
0.0
 11
4.89999
 21
4.50499
 31
0.0
  0
LINE
  5
27F
  8
0
 10
4.89999
 20
4.50499
 30
0.0
 11
4.10001
 21
4.50499
 31
0.0
  0
LINE
  5
280
  8
0
 10
4.10001
 20
4.455
 30
0.0
 11
4.10001
 21
4.49501
 31
0.0
  0
LINE
  5
281
  8
0
 10
4.10001
 20
4.49501
 30
0.0
 11
4.89999
 21
4.49501
 31
0.0
  0
LINE
  5
282
  8
0
 10
4.89999
 20
4.49501
 30
0.0
 11
4.89999
 21
4.455
 31
0.0
  0
LINE
  5
283
  8
0
 10
4.89999
 20
4.455
 30
0.0
 11
4.10001
 21
4.455
 31
0.0
  0
LINE
  5
284
  8
0
 10
4.10001
 20
4.40501
 30
0.0
 11
4.10001
 21
4.44501
 31
0.0
  0
LINE
  5
285
  8
0
 10
4.10001
 20
4.44501
 30
0.0
 11
4.89999
 21
4.44501
 31
0.0
  0
LINE
  5
286
  8
0
 10
4.89999
 20
4.44501
 30
0.0
 11
4.89999
 21
4.40501
 31
0.0
  0
LINE
  5
287
  8
0
 10
4.89999
 20
4.40501
 30
0.0
 11
4.10001
 21
4.40501
 31
0.0
  0
LINE
  5
288
  8
0
 10
4.10001
 20
4.35501
 30
0.0
 11
4.10001
 21
4.395
 31
0.0
  0
LINE
  5
289
  8
0
 10
4.10001
 20
4.395
 30
0.0
 11
4.89999
 21
4.395
 31
0.0
  0
LINE
  5
28A
  8
0
 10
4.89999
 20
4.395
 30
0.0
 11
4.89999
 21
4.35501
 31
0.0
  0
LINE
  5
28B
  8
0
 10
4.89999
 20
4.35501
 30
0.0
 11
4.10001
 21
4.35501
 31
0.0
  0
LINE
  5
28C
  8
0
 10
4.10001
 20
4.30501
 30
0.0
 11
4.10001
 21
4.345
 31
0.0
  0
LINE
  5
28D
  8
0
 10
4.10001
 20
4.345
 30
0.0
 11
4.89999
 21
4.345
 31
0.0
  0
LINE
  5
28E
  8
0
 10
4.89999
 20
4.345
 30
0.0
 11
4.89999
 21
4.30501
 31
0.0
  0
LINE
  5
28F
  8
0
 10
4.89999
 20
4.30501
 30
0.0
 11
4.10001
 21
4.30501
 31
0.0
  0
LINE
  5
290
  8
0
 10
4.10001
 20
4.255
 30
0.0
 11
4.10001
 21
4.29501
 31
0.0
  0
LINE
  5
291
  8
0
 10
4.10001
 20
4.29501
 30
0.0
 11
4.89999
 21
4.29501
 31
0.0
  0
LINE
  5
292
  8
0
 10
4.89999
 20
4.29501
 30
0.0
 11
4.89999
 21
4.255
 31
0.0
  0
LINE
  5
293
  8
0
 10
4.89999
 20
4.255
 30
0.0
 11
4.10001
 21
4.255
 31
0.0
  0
LINE
  5
294
  8
0
 10
4.10001
 20
4.205
 30
0.0
 11
4.10001
 21
4.24501
 31
0.0
  0
LINE
  5
295
  8
0
 10
4.10001
 20
4.24501
 30
0.0
 11
4.89999
 21
4.24501
 31
0.0
  0
LINE
  5
296
  8
0
 10
4.89999
 20
4.24501
 30
0.0
 11
4.89999
 21
4.205
 31
0.0
  0
LINE
  5
297
  8
0
 10
4.89999
 20
4.205
 30
0.0
 11
4.10001
 21
4.205
 31
0.0
  0
LINE
  5
298
  8
0
 10
4.10001
 20
4.15501
 30
0.0
 11
4.10001
 21
4.19501
 31
0.0
  0
LINE
  5
299
  8
0
 10
4.10001
 20
4.19501
 30
0.0
 11
4.89999
 21
4.19501
 31
0.0
  0
LINE
  5
29A
  8
0
 10
4.89999
 20
4.19501
 30
0.0
 11
4.89999
 21
4.15501
 31
0.0
  0
LINE
  5
29B
  8
0
 10
4.89999
 20
4.15501
 30
0.0
 11
4.10001
 21
4.15501
 31
0.0
  0
LINE
  5
29C
  8
0
 10
4.10001
 20
4.10501
 30
0.0
 11
4.10001
 21
4.145
 31
0.0
  0
LINE
  5
29D
  8
0
 10
4.10001
 20
4.145
 30
0.0
 11
4.89999
 21
4.145
 31
0.0
  0
LINE
  5
29E
  8
0
 10
4.89999
 20
4.145
 30
0.0
 11
4.89999
 21
4.10501
 31
0.0
  0
LINE
  5
29F
  8
0
 10
4.89999
 20
4.10501
 30
0.0
 11
4.10001
 21
4.10501
 31
0.0
  0
LINE
  5
2A0
  8
0
 10
4.10001
 20
4.05501
 30
0.0
 11
4.10001
 21
4.095
 31
0.0
  0
LINE
  5
2A1
  8
0
 10
4.10001
 20
4.095
 30
0.0
 11
4.89999
 21
4.095
 31
0.0
  0
LINE
  5
2A2
  8
0
 10
4.89999
 20
4.095
 30
0.0
 11
4.89999
 21
4.05501
 31
0.0
  0
LINE
  5
2A3
  8
0
 10
4.89999
 20
4.05501
 30
0.0
 11
4.10001
 21
4.05501
 31
0.0
  0
LINE
  5
2A4
  8
0
 10
4.10001
 20
4.005
 30
0.0
 11
4.10001
 21
4.04501
 31
0.0
  0
LINE
  5
2A5
  8
0
 10
4.10001
 20
4.04501
 30
0.0
 11
4.89999
 21
4.04501
 31
0.0
  0
LINE
  5
2A6
  8
0
 10
4.89999
 20
4.04501
 30
0.0
 11
4.89999
 21
4.005
 31
0.0
  0
LINE
  5
2A7
  8
0
 10
4.89999
 20
4.005
 30
0.0
 11
4.10001
 21
4.005
 31
0.0
  0
LINE
  5
2A8
  8
0
 10
4.10001
 20
3.955
 30
0.0
 11
4.10001
 21
3.99501
 31
0.0
  0
LINE
  5
2A9
  8
0
 10
4.10001
 20
3.99501
 30
0.0
 11
4.89999
 21
3.99501
 31
0.0
  0
LINE
  5
2AA
  8
0
 10
4.89999
 20
3.99501
 30
0.0
 11
4.89999
 21
3.955
 31
0.0
  0
LINE
  5
2AB
  8
0
 10
4.89999
 20
3.955
 30
0.0
 11
4.10001
 21
3.955
 31
0.0
  0
LINE
  5
2AC
  8
0
 10
4.10001
 20
3.90501
 30
0.0
 11
4.10001
 21
3.94501
 31
0.0
  0
LINE
  5
2AD
  8
0
 10
4.10001
 20
3.94501
 30
0.0
 11
4.89999
 21
3.94501
 31
0.0
  0
LINE
  5
2AE
  8
0
 10
4.89999
 20
3.94501
 30
0.0
 11
4.89999
 21
3.90501
 31
0.0
  0
LINE
  5
2AF
  8
0
 10
4.89999
 20
3.90501
 30
0.0
 11
4.10001
 21
3.90501
 31
0.0
  0
LINE
  5
2B0
  8
0
 10
4.10001
 20
3.85501
 30
0.0
 11
4.10001
 21
3.895
 31
0.0
  0
LINE
  5
2B1
  8
0
 10
4.10001
 20
3.895
 30
0.0
 11
4.89999
 21
3.895
 31
0.0
  0
LINE
  5
2B2
  8
0
 10
4.89999
 20
3.895
 30
0.0
 11
4.89999
 21
3.85501
 31
0.0
  0
LINE
  5
2B3
  8
0
 10
4.89999
 20
3.85501
 30
0.0
 11
4.10001
 21
3.85501
 31
0.0
  0
LINE
  5
2B4
  8
0
 10
4.10001
 20
3.80501
 30
0.0
 11
4.10001
 21
3.845
 31
0.0
  0
LINE
  5
2B5
  8
0
 10
4.10001
 20
3.845
 30
0.0
 11
4.89999
 21
3.845
 31
0.0
  0
LINE
  5
2B6
  8
0
 10
4.89999
 20
3.845
 30
0.0
 11
4.89999
 21
3.80501
 31
0.0
  0
LINE
  5
2B7
  8
0
 10
4.89999
 20
3.80501
 30
0.0
 11
4.10001
 21
3.80501
 31
0.0
  0
LINE
  5
2B8
  8
0
 10
4.10001
 20
3.755
 30
0.0
 11
4.10001
 21
3.79501
 31
0.0
  0
LINE
  5
2B9
  8
0
 10
4.10001
 20
3.79501
 30
0.0
 11
4.89999
 21
3.79501
 31
0.0
  0
LINE
  5
2BA
  8
0
 10
4.89999
 20
3.79501
 30
0.0
 11
4.89999
 21
3.755
 31
0.0
  0
LINE
  5
2BB
  8
0
 10
4.89999
 20
3.755
 30
0.0
 11
4.10001
 21
3.755
 31
0.0
  0
LINE
  5
2BC
  8
0
 10
4.10001
 20
3.705
 30
0.0
 11
4.10001
 21
3.74501
 31
0.0
  0
LINE
  5
2BD
  8
0
 10
4.10001
 20
3.74501
 30
0.0
 11
4.89999
 21
3.74501
 31
0.0
  0
LINE
  5
2BE
  8
0
 10
4.89999
 20
3.74501
 30
0.0
 11
4.89999
 21
3.705
 31
0.0
  0
LINE
  5
2BF
  8
0
 10
4.89999
 20
3.705
 30
0.0
 11
4.10001
 21
3.705
 31
0.0
  0
LINE
  5
2C0
  8
0
 10
4.10001
 20
3.65501
 30
0.0
 11
4.10001
 21
3.69501
 31
0.0
  0
LINE
  5
2C1
  8
0
 10
4.10001
 20
3.69501
 30
0.0
 11
4.89999
 21
3.69501
 31
0.0
  0
LINE
  5
2C2
  8
0
 10
4.89999
 20
3.69501
 30
0.0
 11
4.89999
 21
3.65501
 31
0.0
  0
LINE
  5
2C3
  8
0
 10
4.89999
 20
3.65501
 30
0.0
 11
4.10001
 21
3.65501
 31
0.0
  0
LINE
  5
2C4
  8
0
 10
4.10001
 20
3.60501
 30
0.0
 11
4.10001
 21
3.645
 31
0.0
  0
LINE
  5
2C5
  8
0
 10
4.10001
 20
3.645
 30
0.0
 11
4.89999
 21
3.645
 31
0.0
  0
LINE
  5
2C6
  8
0
 10
4.89999
 20
3.645
 30
0.0
 11
4.89999
 21
3.60501
 31
0.0
  0
LINE
  5
2C7
  8
0
 10
4.89999
 20
3.60501
 30
0.0
 11
4.10001
 21
3.60501
 31
0.0
  0
LINE
  5
2C8
  8
0
 10
4.10001
 20
3.55501
 30
0.0
 11
4.10001
 21
3.595
 31
0.0
  0
LINE
  5
2C9
  8
0
 10
4.10001
 20
3.595
 30
0.0
 11
4.89999
 21
3.595
 31
0.0
  0
LINE
  5
2CA
  8
0
 10
4.89999
 20
3.595
 30
0.0
 11
4.89999
 21
3.55501
 31
0.0
  0
LINE
  5
2CB
  8
0
 10
4.89999
 20
3.55501
 30
0.0
 11
4.10001
 21
3.55501
 31
0.0
  0
LINE
  5
2CC
  8
0
 10
4.10001
 20
3.505
 30
0.0
 11
4.10001
 21
3.54501
 31
0.0
  0
LINE
  5
2CD
  8
0
 10
4.10001
 20
3.54501
 30
0.0
 11
4.89999
 21
3.54501
 31
0.0
  0
LINE
  5
2CE
  8
0
 10
4.89999
 20
3.54501
 30
0.0
 11
4.89999
 21
3.505
 31
0.0
  0
LINE
  5
2CF
  8
0
 10
4.89999
 20
3.505
 30
0.0
 11
4.10001
 21
3.505
 31
0.0
  0
LINE
  5
2D0
  8
0
 10
4.10001
 20
3.455
 30
0.0
 11
4.10001
 21
3.49501
 31
0.0
  0
LINE
  5
2D1
  8
0
 10
4.10001
 20
3.49501
 30
0.0
 11
4.89999
 21
3.49501
 31
0.0
  0
LINE
  5
2D2
  8
0
 10
4.89999
 20
3.49501
 30
0.0
 11
4.89999
 21
3.455
 31
0.0
  0
LINE
  5
2D3
  8
0
 10
4.89999
 20
3.455
 30
0.0
 11
4.10001
 21
3.455
 31
0.0
  0
LINE
  5
2D4
  8
0
 10
4.10001
 20
3.40501
 30
0.0
 11
4.10001
 21
3.44501
 31
0.0
  0
LINE
  5
2D5
  8
0
 10
4.10001
 20
3.44501
 30
0.0
 11
4.89999
 21
3.44501
 31
0.0
  0
LINE
  5
2D6
  8
0
 10
4.89999
 20
3.44501
 30
0.0
 11
4.89999
 21
3.40501
 31
0.0
  0
LINE
  5
2D7
  8
0
 10
4.89999
 20
3.40501
 30
0.0
 11
4.10001
 21
3.40501
 31
0.0
  0
LINE
  5
2D8
  8
0
 10
4.10001
 20
3.35501
 30
0.0
 11
4.10001
 21
3.395
 31
0.0
  0
LINE
  5
2D9
  8
0
 10
4.10001
 20
3.395
 30
0.0
 11
4.89999
 21
3.395
 31
0.0
  0
LINE
  5
2DA
  8
0
 10
4.89999
 20
3.395
 30
0.0
 11
4.89999
 21
3.35501
 31
0.0
  0
LINE
  5
2DB
  8
0
 10
4.89999
 20
3.35501
 30
0.0
 11
4.10001
 21
3.35501
 31
0.0
  0
LINE
  5
2DC
  8
0
 10
4.10001
 20
3.30501
 30
0.0
 11
4.10001
 21
3.345
 31
0.0
  0
LINE
  5
2DD
  8
0
 10
4.10001
 20
3.345
 30
0.0
 11
4.89999
 21
3.345
 31
0.0
  0
LINE
  5
2DE
  8
0
 10
4.89999
 20
3.345
 30
0.0
 11
4.89999
 21
3.30501
 31
0.0
  0
LINE
  5
2DF
  8
0
 10
4.89999
 20
3.30501
 30
0.0
 11
4.10001
 21
3.30501
 31
0.0
  0
LINE
  5
2E0
  8
0
 10
4.10001
 20
3.255
 30
0.0
 11
4.10001
 21
3.29501
 31
0.0
  0
LINE
  5
2E1
  8
0
 10
4.10001
 20
3.29501
 30
0.0
 11
4.89999
 21
3.29501
 31
0.0
  0
LINE
  5
2E2
  8
0
 10
4.89999
 20
3.29501
 30
0.0
 11
4.89999
 21
3.255
 31
0.0
  0
LINE
  5
2E3
  8
0
 10
4.89999
 20
3.255
 30
0.0
 11
4.10001
 21
3.255
 31
0.0
  0
LINE
  5
2E4
  8
0
 10
4.10001
 20
3.205
 30
0.0
 11
4.10001
 21
3.24501
 31
0.0
  0
LINE
  5
2E5
  8
0
 10
4.10001
 20
3.24501
 30
0.0
 11
4.89999
 21
3.24501
 31
0.0
  0
LINE
  5
2E6
  8
0
 10
4.89999
 20
3.24501
 30
0.0
 11
4.89999
 21
3.205
 31
0.0
  0
LINE
  5
2E7
  8
0
 10
4.89999
 20
3.205
 30
0.0
 11
4.10001
 21
3.205
 31
0.0
  0
LINE
  5
2E8
  8
0
 10
4.10001
 20
3.15501
 30
0.0
 11
4.10001
 21
3.19501
 31
0.0
  0
LINE
  5
2E9
  8
0
 10
4.10001
 20
3.19501
 30
0.0
 11
4.89999
 21
3.19501
 31
0.0
  0
LINE
  5
2EA
  8
0
 10
4.89999
 20
3.19501
 30
0.0
 11
4.89999
 21
3.15501
 31
0.0
  0
LINE
  5
2EB
  8
0
 10
4.89999
 20
3.15501
 30
0.0
 11
4.10001
 21
3.15501
 31
0.0
  0
LINE
  5
2EC
  8
0
 10
4.10001
 20
3.10501
 30
0.0
 11
4.10001
 21
3.145
 31
0.0
  0
LINE
  5
2ED
  8
0
 10
4.10001
 20
3.145
 30
0.0
 11
4.89999
 21
3.145
 31
0.0
  0
LINE
  5
2EE
  8
0
 10
4.89999
 20
3.145
 30
0.0
 11
4.89999
 21
3.10501
 31
0.0
  0
LINE
  5
2EF
  8
0
 10
4.89999
 20
3.10501
 30
0.0
 11
4.10001
 21
3.10501
 31
0.0
  0
LINE
  5
2F0
  8
0
 10
4.10001
 20
3.05501
 30
0.0
 11
4.10001
 21
3.095
 31
0.0
  0
LINE
  5
2F1
  8
0
 10
4.10001
 20
3.095
 30
0.0
 11
4.89999
 21
3.095
 31
0.0
  0
LINE
  5
2F2
  8
0
 10
4.89999
 20
3.095
 30
0.0
 11
4.89999
 21
3.05501
 31
0.0
  0
LINE
  5
2F3
  8
0
 10
4.89999
 20
3.05501
 30
0.0
 11
4.10001
 21
3.05501
 31
0.0
  0
LINE
  5
2F4
  8
0
 10
4.10001
 20
3.005
 30
0.0
 11
4.10001
 21
3.04501
 31
0.0
  0
LINE
  5
2F5
  8
0
 10
4.10001
 20
3.04501
 30
0.0
 11
4.89999
 21
3.04501
 31
0.0
  0
LINE
  5
2F6
  8
0
 10
4.89999
 20
3.04501
 30
0.0
 11
4.89999
 21
3.005
 31
0.0
  0
LINE
  5
2F7
  8
0
 10
4.89999
 20
3.005
 30
0.0
 11
4.10001
 21
3.005
 31
0.0
  0
LINE
  5
2F8
  8
0
 10
4.10001
 20
2.955
 30
0.0
 11
4.10001
 21
2.99501
 31
0.0
  0
LINE
  5
2F9
  8
0
 10
4.10001
 20
2.99501
 30
0.0
 11
4.89999
 21
2.99501
 31
0.0
  0
LINE
  5
2FA
  8
0
 10
4.89999
 20
2.99501
 30
0.0
 11
4.89999
 21
2.955
 31
0.0
  0
LINE
  5
2FB
  8
0
 10
4.89999
 20
2.955
 30
0.0
 11
4.10001
 21
2.955
 31
0.0
  0
LINE
  5
2FC
  8
0
 10
4.10001
 20
2.90501
 30
0.0
 11
4.10001
 21
2.94501
 31
0.0
  0
LINE
  5
2FD
  8
0
 10
4.10001
 20
2.94501
 30
0.0
 11
4.89999
 21
2.94501
 31
0.0
  0
LINE
  5
2FE
  8
0
 10
4.89999
 20
2.94501
 30
0.0
 11
4.89999
 21
2.90501
 31
0.0
  0
LINE
  5
2FF
  8
0
 10
4.89999
 20
2.90501
 30
0.0
 11
4.10001
 21
2.90501
 31
0.0
  0
LINE
  5
300
  8
0
 10
4.10001
 20
2.85501
 30
0.0
 11
4.10001
 21
2.895
 31
0.0
  0
LINE
  5
301
  8
0
 10
4.10001
 20
2.895
 30
0.0
 11
4.89999
 21
2.895
 31
0.0
  0
LINE
  5
302
  8
0
 10
4.89999
 20
2.895
 30
0.0
 11
4.89999
 21
2.85501
 31
0.0
  0
LINE
  5
303
  8
0
 10
4.89999
 20
2.85501
 30
0.0
 11
4.10001
 21
2.85501
 31
0.0
  0
LINE
  5
304
  8
0
 10
4.10001
 20
2.80501
 30
0.0
 11
4.10001
 21
2.845
 31
0.0
  0
LINE
  5
305
  8
0
 10
4.10001
 20
2.845
 30
0.0
 11
4.89999
 21
2.845
 31
0.0
  0
LINE
  5
306
  8
0
 10
4.89999
 20
2.845
 30
0.0
 11
4.89999
 21
2.80501
 31
0.0
  0
LINE
  5
307
  8
0
 10
4.89999
 20
2.80501
 30
0.0
 11
4.10001
 21
2.80501
 31
0.0
  0
LINE
  5
308
  8
0
 10
4.10001
 20
2.755
 30
0.0
 11
4.10001
 21
2.79501
 31
0.0
  0
LINE
  5
309
  8
0
 10
4.10001
 20
2.79501
 30
0.0
 11
4.89999
 21
2.79501
 31
0.0
  0
LINE
  5
30A
  8
0
 10
4.89999
 20
2.79501
 30
0.0
 11
4.89999
 21
2.755
 31
0.0
  0
LINE
  5
30B
  8
0
 10
4.89999
 20
2.755
 30
0.0
 11
4.10001
 21
2.755
 31
0.0
  0
LINE
  5
30C
  8
0
 10
4.10001
 20
2.705
 30
0.0
 11
4.10001
 21
2.74501
 31
0.0
  0
LINE
  5
30D
  8
0
 10
4.10001
 20
2.74501
 30
0.0
 11
4.89999
 21
2.74501
 31
0.0
  0
LINE
  5
30E
  8
0
 10
4.89999
 20
2.74501
 30
0.0
 11
4.89999
 21
2.705
 31
0.0
  0
LINE
  5
30F
  8
0
 10
4.89999
 20
2.705
 30
0.0
 11
4.10001
 21
2.705
 31
0.0
  0
LINE
  5
310
  8
0
 10
4.10001
 20
2.65501
 30
0.0
 11
4.10001
 21
2.69501
 31
0.0
  0
LINE
  5
311
  8
0
 10
4.10001
 20
2.69501
 30
0.0
 11
4.89999
 21
2.69501
 31
0.0
  0
LINE
  5
312
  8
0
 10
4.89999
 20
2.69501
 30
0.0
 11
4.89999
 21
2.65501
 31
0.0
  0
LINE
  5
313
  8
0
 10
4.89999
 20
2.65501
 30
0.0
 11
4.10001
 21
2.65501
 31
0.0
  0
LINE
  5
314
  8
0
 10
4.10001
 20
2.60501
 30
0.0
 11
4.10001
 21
2.645
 31
0.0
  0
LINE
  5
315
  8
0
 10
4.10001
 20
2.645
 30
0.0
 11
4.89999
 21
2.645
 31
0.0
  0
LINE
  5
316
  8
0
 10
4.89999
 20
2.645
 30
0.0
 11
4.89999
 21
2.60501
 31
0.0
  0
LINE
  5
317
  8
0
 10
4.89999
 20
2.60501
 30
0.0
 11
4.10001
 21
2.60501
 31
0.0
  0
LINE
  5
318
  8
0
 10
4.10001
 20
2.55501
 30
0.0
 11
4.10001
 21
2.595
 31
0.0
  0
LINE
  5
319
  8
0
 10
4.10001
 20
2.595
 30
0.0
 11
4.89999
 21
2.595
 31
0.0
  0
LINE
  5
31A
  8
0
 10
4.89999
 20
2.595
 30
0.0
 11
4.89999
 21
2.55501
 31
0.0
  0
LINE
  5
31B
  8
0
 10
4.89999
 20
2.55501
 30
0.0
 11
4.10001
 21
2.55501
 31
0.0
  0
LINE
  5
31C
  8
0
 10
4.10001
 20
2.505
 30
0.0
 11
4.10001
 21
2.54501
 31
0.0
  0
LINE
  5
31D
  8
0
 10
4.10001
 20
2.54501
 30
0.0
 11
4.89999
 21
2.54501
 31
0.0
  0
LINE
  5
31E
  8
0
 10
4.89999
 20
2.54501
 30
0.0
 11
4.89999
 21
2.505
 31
0.0
  0
LINE
  5
31F
  8
0
 10
4.89999
 20
2.505
 30
0.0
 11
4.10001
 21
2.505
 31
0.0
  0
LINE
  5
320
  8
0
 10
4.10001
 20
2.455
 30
0.0
 11
4.10001
 21
2.49501
 31
0.0
  0
LINE
  5
321
  8
0
 10
4.10001
 20
2.49501
 30
0.0
 11
4.89999
 21
2.49501
 31
0.0
  0
LINE
  5
322
  8
0
 10
4.89999
 20
2.49501
 30
0.0
 11
4.89999
 21
2.455
 31
0.0
  0
LINE
  5
323
  8
0
 10
4.89999
 20
2.455
 30
0.0
 11
4.10001
 21
2.455
 31
0.0
  0
LINE
  5
324
  8
0
 10
4.10001
 20
2.40501
 30
0.0
 11
4.10001
 21
2.44501
 31
0.0
  0
LINE
  5
325
  8
0
 10
4.10001
 20
2.44501
 30
0.0
 11
4.89999
 21
2.44501
 31
0.0
  0
LINE
  5
326
  8
0
 10
4.89999
 20
2.44501
 30
0.0
 11
4.89999
 21
2.40501
 31
0.0
  0
LINE
  5
327
  8
0
 10
4.89999
 20
2.40501
 30
0.0
 11
4.10001
 21
2.40501
 31
0.0
  0
LINE
  5
328
  8
0
 10
4.10001
 20
2.35501
 30
0.0
 11
4.10001
 21
2.395
 31
0.0
  0
LINE
  5
329
  8
0
 10
4.10001
 20
2.395
 30
0.0
 11
4.89999
 21
2.395
 31
0.0
  0
LINE
  5
32A
  8
0
 10
4.89999
 20
2.395
 30
0.0
 11
4.89999
 21
2.35501
 31
0.0
  0
LINE
  5
32B
  8
0
 10
4.89999
 20
2.35501
 30
0.0
 11
4.10001
 21
2.35501
 31
0.0
  0
LINE
  5
32C
  8
0
 10
4.10001
 20
2.30501
 30
0.0
 11
4.10001
 21
2.345
 31
0.0
  0
LINE
  5
32D
  8
0
 10
4.10001
 20
2.345
 30
0.0
 11
4.89999
 21
2.345
 31
0.0
  0
LINE
  5
32E
  8
0
 10
4.89999
 20
2.345
 30
0.0
 11
4.89999
 21
2.30501
 31
0.0
  0
LINE
  5
32F
  8
0
 10
4.89999
 20
2.30501
 30
0.0
 11
4.10001
 21
2.30501
 31
0.0
  0
ENDSEC
  0
EOF
