solid OpenSCAD_Model
  facet normal 1 -0 0
    outer loop
      vertex 64 -1 8
      vertex 64 100 0
      vertex 64 100 8
    endloop
  endfacet
  facet normal 1 -0 0
    outer loop
      vertex 64 -1 1
      vertex 64 100 0
      vertex 64 -1 8
    endloop
  endfacet
  facet normal 1 0 0
    outer loop
      vertex 64 100 0
      vertex 64 -1 1
      vertex 64 -1 0
    endloop
  endfacet
  facet normal 0 0 1
    outer loop
      vertex 52.48 -1.28 8
      vertex 49.825 -2.425 8
      vertex 52.48 -2.425 8
    endloop
  endfacet
  facet normal -0 0 1
    outer loop
      vertex 48.68 -1.28 8
      vertex 49.825 -2.425 8
      vertex 52.48 -1.28 8
    endloop
  endfacet
  facet normal 0 0 1
    outer loop
      vertex 48.68 -3.97 8
      vertex 49.825 -2.425 8
      vertex 48.68 -1.28 8
    endloop
  endfacet
  facet normal 0 0 1
    outer loop
      vertex 49.825 -2.425 8
      vertex 48.68 -3.97 8
      vertex 49.825 -3.97 8
    endloop
  endfacet
  facet normal 0 0 1
    outer loop
      vertex 52.48 111.97 8
      vertex 49.825 110.825 8
      vertex 52.48 110.825 8
    endloop
  endfacet
  facet normal -0 0 1
    outer loop
      vertex 48.68 111.97 8
      vertex 49.825 110.825 8
      vertex 52.48 111.97 8
    endloop
  endfacet
  facet normal 0 0 1
    outer loop
      vertex 48.68 109.28 8
      vertex 49.825 110.825 8
      vertex 48.68 111.97 8
    endloop
  endfacet
  facet normal 0 0 1
    outer loop
      vertex 49.825 110.825 8
      vertex 48.68 109.28 8
      vertex 49.825 109.28 8
    endloop
  endfacet
  facet normal 0 0 1
    outer loop
      vertex 64 100 8
      vertex 63.05 99.05 8
      vertex 64 -1 8
    endloop
  endfacet
  facet normal -0 0 1
    outer loop
      vertex 52.48 100 8
      vertex 63.05 99.05 8
      vertex 64 100 8
    endloop
  endfacet
  facet normal 0 0 1
    outer loop
      vertex 63.05 99.05 8
      vertex 52.48 100 8
      vertex 52.48 99.05 8
    endloop
  endfacet
  facet normal 0 0 1
    outer loop
      vertex 77.2 113.2 8
      vertex 73 109 8
      vertex 77.2 -5.2 8
    endloop
  endfacet
  facet normal -0 0 1
    outer loop
      vertex 52.48 113.2 8
      vertex 73 109 8
      vertex 77.2 113.2 8
    endloop
  endfacet
  facet normal -0 0 1
    outer loop
      vertex 52.48 111.97 8
      vertex 73 109 8
      vertex 52.48 113.2 8
    endloop
  endfacet
  facet normal -0 0 1
    outer loop
      vertex 52.48 110.825 8
      vertex 73 109 8
      vertex 52.48 111.97 8
    endloop
  endfacet
  facet normal 0 0 1
    outer loop
      vertex 73 109 8
      vertex 52.48 110.825 8
      vertex 52.48 109 8
    endloop
  endfacet
  facet normal -0 0 1
    outer loop
      vertex 73 -1 8
      vertex 77.2 -5.2 8
      vertex 73 109 8
    endloop
  endfacet
  facet normal -0 0 1
    outer loop
      vertex 64 -1 8
      vertex 77.2 -5.2 8
      vertex 73 -1 8
    endloop
  endfacet
  facet normal -0 0 1
    outer loop
      vertex 63.05 -0.0499992 8
      vertex 64 -1 8
      vertex 63.05 99.05 8
    endloop
  endfacet
  facet normal 0 0 1
    outer loop
      vertex 52.48 -1.28 8
      vertex 63.05 -0.0499992 8
      vertex 52.48 -0.0499992 8
    endloop
  endfacet
  facet normal 0 0 1
    outer loop
      vertex 52.48 -2.425 8
      vertex 63.05 -0.0499992 8
      vertex 52.48 -1.28 8
    endloop
  endfacet
  facet normal 0 0 1
    outer loop
      vertex 52.48 -5.2 8
      vertex 63.05 -0.0499992 8
      vertex 52.48 -2.425 8
    endloop
  endfacet
  facet normal 0 0 1
    outer loop
      vertex 63.05 -0.0499992 8
      vertex 52.48 -5.2 8
      vertex 64 -1 8
    endloop
  endfacet
  facet normal 0 0 1
    outer loop
      vertex 64 -1 8
      vertex 52.48 -5.2 8
      vertex 77.2 -5.2 8
    endloop
  endfacet
  facet normal 0 0 -1
    outer loop
      vertex 64 -1 0
      vertex 63.05 -0.0499992 0
      vertex 64 100 0
    endloop
  endfacet
  facet normal 0 0 -1
    outer loop
      vertex 52.48 -1 0
      vertex 63.05 -0.0499992 0
      vertex 64 -1 0
    endloop
  endfacet
  facet normal -0 0 -1
    outer loop
      vertex 63.05 -0.0499992 0
      vertex 52.48 -1 0
      vertex 52.48 -0.0499992 0
    endloop
  endfacet
  facet normal 0 0 -1
    outer loop
      vertex 63.05 99.05 0
      vertex 64 100 0
      vertex 63.05 -0.0499992 0
    endloop
  endfacet
  facet normal 0 0 -1
    outer loop
      vertex 52.48 100 0
      vertex 63.05 99.05 0
      vertex 52.48 99.05 0
    endloop
  endfacet
  facet normal 0 0 -1
    outer loop
      vertex 63.05 99.05 0
      vertex 52.48 100 0
      vertex 64 100 0
    endloop
  endfacet
  facet normal 0 1 -0
    outer loop
      vertex 64 100 0
      vertex 52.48 100 8
      vertex 64 100 8
    endloop
  endfacet
  facet normal 0 1 0
    outer loop
      vertex 52.48 100 8
      vertex 64 100 0
      vertex 52.48 100 0
    endloop
  endfacet
  facet normal 0 1 -0
    outer loop
      vertex 73 -1 1
      vertex 64 -1 8
      vertex 73 -1 8
    endloop
  endfacet
  facet normal 0 1 0
    outer loop
      vertex 64 -1 8
      vertex 73 -1 1
      vertex 64 -1 1
    endloop
  endfacet
  facet normal 0 -1 0
    outer loop
      vertex 52.48 -1 0
      vertex 64 -1 1
      vertex 52.48 -1 1
    endloop
  endfacet
  facet normal 0 -1 -0
    outer loop
      vertex 64 -1 1
      vertex 52.48 -1 0
      vertex 64 -1 0
    endloop
  endfacet
  facet normal -1 0 0
    outer loop
      vertex 63.05 -0.0499992 0
      vertex 63.05 99.05 8
      vertex 63.05 99.05 0
    endloop
  endfacet
  facet normal -1 -0 0
    outer loop
      vertex 63.05 99.05 8
      vertex 63.05 -0.0499992 0
      vertex 63.05 -0.0499992 8
    endloop
  endfacet
  facet normal 0 -1 0
    outer loop
      vertex 52.48 99.05 0
      vertex 63.05 99.05 8
      vertex 52.48 99.05 8
    endloop
  endfacet
  facet normal 0 -1 -0
    outer loop
      vertex 63.05 99.05 8
      vertex 52.48 99.05 0
      vertex 63.05 99.05 0
    endloop
  endfacet
  facet normal 0 1 -0
    outer loop
      vertex 63.05 -0.0499992 0
      vertex 52.48 -0.0499992 8
      vertex 63.05 -0.0499992 8
    endloop
  endfacet
  facet normal 0 1 0
    outer loop
      vertex 52.48 -0.0499992 8
      vertex 63.05 -0.0499992 0
      vertex 52.48 -0.0499992 0
    endloop
  endfacet
  facet normal 1 -0 0
    outer loop
      vertex 77.2 -5.2 8
      vertex 77.2 113.2 1
      vertex 77.2 113.2 8
    endloop
  endfacet
  facet normal 1 0 0
    outer loop
      vertex 77.2 113.2 1
      vertex 77.2 -5.2 8
      vertex 77.2 -5.2 1
    endloop
  endfacet
  facet normal 0 0 -1
    outer loop
      vertex 77.2 -5.2 1
      vertex 73 -1 1
      vertex 77.2 113.2 1
    endloop
  endfacet
  facet normal 0 0 -1
    outer loop
      vertex 77.2 -5.2 1
      vertex 64 -1 1
      vertex 73 -1 1
    endloop
  endfacet
  facet normal 0 0 -1
    outer loop
      vertex 52.48 -5.2 1
      vertex 64 -1 1
      vertex 77.2 -5.2 1
    endloop
  endfacet
  facet normal -0 0 -1
    outer loop
      vertex 64 -1 1
      vertex 52.48 -5.2 1
      vertex 52.48 -1 1
    endloop
  endfacet
  facet normal 0 0 -1
    outer loop
      vertex 73 109 1
      vertex 77.2 113.2 1
      vertex 73 -1 1
    endloop
  endfacet
  facet normal 0 0 -1
    outer loop
      vertex 52.48 113.2 1
      vertex 73 109 1
      vertex 52.48 109 1
    endloop
  endfacet
  facet normal 0 0 -1
    outer loop
      vertex 73 109 1
      vertex 52.48 113.2 1
      vertex 77.2 113.2 1
    endloop
  endfacet
  facet normal 0 1 -0
    outer loop
      vertex 77.2 113.2 1
      vertex 52.48 113.2 8
      vertex 77.2 113.2 8
    endloop
  endfacet
  facet normal 0 1 0
    outer loop
      vertex 52.48 113.2 8
      vertex 77.2 113.2 1
      vertex 52.48 113.2 1
    endloop
  endfacet
  facet normal 0 -1 0
    outer loop
      vertex 52.48 -5.2 1
      vertex 77.2 -5.2 8
      vertex 52.48 -5.2 8
    endloop
  endfacet
  facet normal 0 -1 -0
    outer loop
      vertex 77.2 -5.2 8
      vertex 52.48 -5.2 1
      vertex 77.2 -5.2 1
    endloop
  endfacet
  facet normal -1 0 0
    outer loop
      vertex 73 -1 1
      vertex 73 109 8
      vertex 73 109 1
    endloop
  endfacet
  facet normal -1 -0 0
    outer loop
      vertex 73 109 8
      vertex 73 -1 1
      vertex 73 -1 8
    endloop
  endfacet
  facet normal 0 -1 0
    outer loop
      vertex 52.48 109 1
      vertex 73 109 8
      vertex 52.48 109 8
    endloop
  endfacet
  facet normal 0 -1 -0
    outer loop
      vertex 73 109 8
      vertex 52.48 109 1
      vertex 73 109 1
    endloop
  endfacet
  facet normal -1 0 0
    outer loop
      vertex 52.48 113.2 1
      vertex 52.48 111.97 1.5
      vertex 52.48 113.2 8
    endloop
  endfacet
  facet normal -1 0 0
    outer loop
      vertex 52.48 113.2 1
      vertex 52.48 110.825 1.5
      vertex 52.48 111.97 1.5
    endloop
  endfacet
  facet normal -1 0 0
    outer loop
      vertex 52.48 109 1
      vertex 52.48 110.825 1.5
      vertex 52.48 113.2 1
    endloop
  endfacet
  facet normal -1 0 0
    outer loop
      vertex 52.48 109 8
      vertex 52.48 110.825 1.5
      vertex 52.48 109 1
    endloop
  endfacet
  facet normal -1 0 0
    outer loop
      vertex 52.48 110.825 1.5
      vertex 52.48 109 8
      vertex 52.48 110.825 8
    endloop
  endfacet
  facet normal -1 -0 0
    outer loop
      vertex 52.48 113.2 8
      vertex 52.48 111.97 1.5
      vertex 52.48 111.97 8
    endloop
  endfacet
  facet normal -1 0 0
    outer loop
      vertex 52.48 -1 1
      vertex 52.48 -2.425 1.5
      vertex 52.48 -1.28 1.5
    endloop
  endfacet
  facet normal -1 0 0
    outer loop
      vertex 52.48 -5.2 1
      vertex 52.48 -2.425 1.5
      vertex 52.48 -1 1
    endloop
  endfacet
  facet normal -1 0 0
    outer loop
      vertex 52.48 -5.2 8
      vertex 52.48 -2.425 1.5
      vertex 52.48 -5.2 1
    endloop
  endfacet
  facet normal -1 0 0
    outer loop
      vertex 52.48 -2.425 1.5
      vertex 52.48 -5.2 8
      vertex 52.48 -2.425 8
    endloop
  endfacet
  facet normal -1 0 0
    outer loop
      vertex 52.48 -1 1
      vertex 52.48 -0.0499992 0
      vertex 52.48 -1 0
    endloop
  endfacet
  facet normal -1 0 0
    outer loop
      vertex 52.48 -1.28 1.5
      vertex 52.48 -0.0499992 0
      vertex 52.48 -1 1
    endloop
  endfacet
  facet normal -1 0 0
    outer loop
      vertex 52.48 -0.0499992 0
      vertex 52.48 -1.28 1.5
      vertex 52.48 -0.0499992 8
    endloop
  endfacet
  facet normal -1 -0 0
    outer loop
      vertex 52.48 -0.0499992 8
      vertex 52.48 -1.28 1.5
      vertex 52.48 -1.28 8
    endloop
  endfacet
  facet normal -1 0 0
    outer loop
      vertex 52.48 99.05 0
      vertex 52.48 100 8
      vertex 52.48 100 0
    endloop
  endfacet
  facet normal -1 -0 0
    outer loop
      vertex 52.48 100 8
      vertex 52.48 99.05 0
      vertex 52.48 99.05 8
    endloop
  endfacet
  facet normal -1 0 0
    outer loop
      vertex 48.68 -3.97 1.5
      vertex 48.68 -1.28 8
      vertex 48.68 -1.28 1.5
    endloop
  endfacet
  facet normal -1 -0 0
    outer loop
      vertex 48.68 -1.28 8
      vertex 48.68 -3.97 1.5
      vertex 48.68 -3.97 8
    endloop
  endfacet
  facet normal 0 0 -1
    outer loop
      vertex 49.825 -3.97 1.5
      vertex 48.68 -3.97 1.5
      vertex 49.825 -2.425 1.5
    endloop
  endfacet
  facet normal 0 0 -1
    outer loop
      vertex 49.825 -2.425 1.5
      vertex 52.48 -1.28 1.5
      vertex 52.48 -2.425 1.5
    endloop
  endfacet
  facet normal 0 0 -1
    outer loop
      vertex 49.825 -2.425 1.5
      vertex 48.68 -1.28 1.5
      vertex 52.48 -1.28 1.5
    endloop
  endfacet
  facet normal 0 0 -1
    outer loop
      vertex 48.68 -1.28 1.5
      vertex 49.825 -2.425 1.5
      vertex 48.68 -3.97 1.5
    endloop
  endfacet
  facet normal 1 -0 0
    outer loop
      vertex 49.825 -3.97 8
      vertex 49.825 -2.425 1.5
      vertex 49.825 -2.425 8
    endloop
  endfacet
  facet normal 1 0 0
    outer loop
      vertex 49.825 -2.425 1.5
      vertex 49.825 -3.97 8
      vertex 49.825 -3.97 1.5
    endloop
  endfacet
  facet normal 0 -1 0
    outer loop
      vertex 48.68 -3.97 1.5
      vertex 49.825 -3.97 8
      vertex 48.68 -3.97 8
    endloop
  endfacet
  facet normal 0 -1 -0
    outer loop
      vertex 49.825 -3.97 8
      vertex 48.68 -3.97 1.5
      vertex 49.825 -3.97 1.5
    endloop
  endfacet
  facet normal 0 1 -0
    outer loop
      vertex 52.48 -1.28 1.5
      vertex 48.68 -1.28 8
      vertex 52.48 -1.28 8
    endloop
  endfacet
  facet normal 0 1 0
    outer loop
      vertex 48.68 -1.28 8
      vertex 52.48 -1.28 1.5
      vertex 48.68 -1.28 1.5
    endloop
  endfacet
  facet normal 0 -1 0
    outer loop
      vertex 49.825 -2.425 1.5
      vertex 52.48 -2.425 8
      vertex 49.825 -2.425 8
    endloop
  endfacet
  facet normal 0 -1 -0
    outer loop
      vertex 52.48 -2.425 8
      vertex 49.825 -2.425 1.5
      vertex 52.48 -2.425 1.5
    endloop
  endfacet
  facet normal -1 0 0
    outer loop
      vertex 48.68 109.28 1.5
      vertex 48.68 111.97 8
      vertex 48.68 111.97 1.5
    endloop
  endfacet
  facet normal -1 -0 0
    outer loop
      vertex 48.68 111.97 8
      vertex 48.68 109.28 1.5
      vertex 48.68 109.28 8
    endloop
  endfacet
  facet normal 0 0 -1
    outer loop
      vertex 49.825 109.28 1.5
      vertex 48.68 109.28 1.5
      vertex 49.825 110.825 1.5
    endloop
  endfacet
  facet normal 0 0 -1
    outer loop
      vertex 49.825 110.825 1.5
      vertex 52.48 111.97 1.5
      vertex 52.48 110.825 1.5
    endloop
  endfacet
  facet normal 0 0 -1
    outer loop
      vertex 49.825 110.825 1.5
      vertex 48.68 111.97 1.5
      vertex 52.48 111.97 1.5
    endloop
  endfacet
  facet normal 0 0 -1
    outer loop
      vertex 48.68 111.97 1.5
      vertex 49.825 110.825 1.5
      vertex 48.68 109.28 1.5
    endloop
  endfacet
  facet normal 1 -0 0
    outer loop
      vertex 49.825 109.28 8
      vertex 49.825 110.825 1.5
      vertex 49.825 110.825 8
    endloop
  endfacet
  facet normal 1 0 0
    outer loop
      vertex 49.825 110.825 1.5
      vertex 49.825 109.28 8
      vertex 49.825 109.28 1.5
    endloop
  endfacet
  facet normal 0 -1 0
    outer loop
      vertex 48.68 109.28 1.5
      vertex 49.825 109.28 8
      vertex 48.68 109.28 8
    endloop
  endfacet
  facet normal 0 -1 -0
    outer loop
      vertex 49.825 109.28 8
      vertex 48.68 109.28 1.5
      vertex 49.825 109.28 1.5
    endloop
  endfacet
  facet normal 0 1 -0
    outer loop
      vertex 52.48 111.97 1.5
      vertex 48.68 111.97 8
      vertex 52.48 111.97 8
    endloop
  endfacet
  facet normal 0 1 0
    outer loop
      vertex 48.68 111.97 8
      vertex 52.48 111.97 1.5
      vertex 48.68 111.97 1.5
    endloop
  endfacet
  facet normal 0 -1 0
    outer loop
      vertex 49.825 110.825 1.5
      vertex 52.48 110.825 8
      vertex 49.825 110.825 8
    endloop
  endfacet
  facet normal 0 -1 -0
    outer loop
      vertex 52.48 110.825 8
      vertex 49.825 110.825 1.5
      vertex 52.48 110.825 1.5
    endloop
  endfacet
endsolid OpenSCAD_Model
