solid OpenSCAD_Model
  facet normal 1 -0 0
    outer loop
      vertex 73 -1 1
      vertex 73 109 0
      vertex 73 109 1
    endloop
  endfacet
  facet normal 1 0 0
    outer loop
      vertex 73 109 0
      vertex 73 -1 1
      vertex 73 -1 0
    endloop
  endfacet
  facet normal 0 0 1
    outer loop
      vertex 52.6 -1.576 8
      vertex 50.279 -2.775 8
      vertex 52.6 -2.775 8
    endloop
  endfacet
  facet normal -0 0 1
    outer loop
      vertex 49.08 -1.576 8
      vertex 50.279 -2.775 8
      vertex 52.6 -1.576 8
    endloop
  endfacet
  facet normal 0 0 1
    outer loop
      vertex 49.08 -3.974 8
      vertex 50.279 -2.775 8
      vertex 49.08 -1.576 8
    endloop
  endfacet
  facet normal 0 0 1
    outer loop
      vertex 50.279 -2.775 8
      vertex 49.08 -3.974 8
      vertex 50.279 -3.974 8
    endloop
  endfacet
  facet normal 0 0 1
    outer loop
      vertex 52.6 111.974 8
      vertex 50.279 110.775 8
      vertex 52.6 110.775 8
    endloop
  endfacet
  facet normal -0 0 1
    outer loop
      vertex 49.08 111.974 8
      vertex 50.279 110.775 8
      vertex 52.6 111.974 8
    endloop
  endfacet
  facet normal 0 0 1
    outer loop
      vertex 49.08 109.576 8
      vertex 50.279 110.775 8
      vertex 49.08 111.974 8
    endloop
  endfacet
  facet normal 0 0 1
    outer loop
      vertex 50.279 110.775 8
      vertex 49.08 109.576 8
      vertex 50.279 109.576 8
    endloop
  endfacet
  facet normal 0 0 1
    outer loop
      vertex 77.5 113.5 8
      vertex 72.05 108.05 8
      vertex 77.5 -5.5 8
    endloop
  endfacet
  facet normal -0 0 1
    outer loop
      vertex 52.6 113.5 8
      vertex 72.05 108.05 8
      vertex 77.5 113.5 8
    endloop
  endfacet
  facet normal -0 0 1
    outer loop
      vertex 52.6 111.974 8
      vertex 72.05 108.05 8
      vertex 52.6 113.5 8
    endloop
  endfacet
  facet normal -0 0 1
    outer loop
      vertex 52.6 110.775 8
      vertex 72.05 108.05 8
      vertex 52.6 111.974 8
    endloop
  endfacet
  facet normal 0 0 1
    outer loop
      vertex 72.05 108.05 8
      vertex 52.6 110.775 8
      vertex 52.6 108.05 8
    endloop
  endfacet
  facet normal -0 0 1
    outer loop
      vertex 72.05 -0.0499992 8
      vertex 77.5 -5.5 8
      vertex 72.05 108.05 8
    endloop
  endfacet
  facet normal 0 0 1
    outer loop
      vertex 52.6 -1.576 8
      vertex 72.05 -0.0499992 8
      vertex 52.6 -0.0499992 8
    endloop
  endfacet
  facet normal 0 0 1
    outer loop
      vertex 52.6 -2.775 8
      vertex 72.05 -0.0499992 8
      vertex 52.6 -1.576 8
    endloop
  endfacet
  facet normal 0 0 1
    outer loop
      vertex 52.6 -5.5 8
      vertex 72.05 -0.0499992 8
      vertex 52.6 -2.775 8
    endloop
  endfacet
  facet normal 0 0 1
    outer loop
      vertex 72.05 -0.0499992 8
      vertex 52.6 -5.5 8
      vertex 77.5 -5.5 8
    endloop
  endfacet
  facet normal 0 0 -1
    outer loop
      vertex 73 -1 0
      vertex 72.05 -0.0499992 0
      vertex 73 109 0
    endloop
  endfacet
  facet normal 0 0 -1
    outer loop
      vertex 52.6 -1 0
      vertex 72.05 -0.0499992 0
      vertex 73 -1 0
    endloop
  endfacet
  facet normal -0 0 -1
    outer loop
      vertex 72.05 -0.0499992 0
      vertex 52.6 -1 0
      vertex 52.6 -0.0499992 0
    endloop
  endfacet
  facet normal 0 0 -1
    outer loop
      vertex 72.05 108.05 0
      vertex 73 109 0
      vertex 72.05 -0.0499992 0
    endloop
  endfacet
  facet normal 0 0 -1
    outer loop
      vertex 52.6 109 0
      vertex 72.05 108.05 0
      vertex 52.6 108.05 0
    endloop
  endfacet
  facet normal 0 0 -1
    outer loop
      vertex 72.05 108.05 0
      vertex 52.6 109 0
      vertex 73 109 0
    endloop
  endfacet
  facet normal 0 1 -0
    outer loop
      vertex 73 109 0
      vertex 52.6 109 1
      vertex 73 109 1
    endloop
  endfacet
  facet normal 0 1 0
    outer loop
      vertex 52.6 109 1
      vertex 73 109 0
      vertex 52.6 109 0
    endloop
  endfacet
  facet normal 0 -1 0
    outer loop
      vertex 52.6 -1 0
      vertex 73 -1 1
      vertex 52.6 -1 1
    endloop
  endfacet
  facet normal 0 -1 -0
    outer loop
      vertex 73 -1 1
      vertex 52.6 -1 0
      vertex 73 -1 0
    endloop
  endfacet
  facet normal -1 0 0
    outer loop
      vertex 72.05 -0.0499992 0
      vertex 72.05 108.05 8
      vertex 72.05 108.05 0
    endloop
  endfacet
  facet normal -1 -0 0
    outer loop
      vertex 72.05 108.05 8
      vertex 72.05 -0.0499992 0
      vertex 72.05 -0.0499992 8
    endloop
  endfacet
  facet normal 0 -1 0
    outer loop
      vertex 52.6 108.05 0
      vertex 72.05 108.05 8
      vertex 52.6 108.05 8
    endloop
  endfacet
  facet normal 0 -1 -0
    outer loop
      vertex 72.05 108.05 8
      vertex 52.6 108.05 0
      vertex 72.05 108.05 0
    endloop
  endfacet
  facet normal 0 1 -0
    outer loop
      vertex 72.05 -0.0499992 0
      vertex 52.6 -0.0499992 8
      vertex 72.05 -0.0499992 8
    endloop
  endfacet
  facet normal 0 1 0
    outer loop
      vertex 52.6 -0.0499992 8
      vertex 72.05 -0.0499992 0
      vertex 52.6 -0.0499992 0
    endloop
  endfacet
  facet normal 1 -0 0
    outer loop
      vertex 77.5 -5.5 8
      vertex 77.5 113.5 1
      vertex 77.5 113.5 8
    endloop
  endfacet
  facet normal 1 0 0
    outer loop
      vertex 77.5 113.5 1
      vertex 77.5 -5.5 8
      vertex 77.5 -5.5 1
    endloop
  endfacet
  facet normal 0 0 -1
    outer loop
      vertex 77.5 -5.5 1
      vertex 73 -1 1
      vertex 77.5 113.5 1
    endloop
  endfacet
  facet normal 0 0 -1
    outer loop
      vertex 52.6 -5.5 1
      vertex 73 -1 1
      vertex 77.5 -5.5 1
    endloop
  endfacet
  facet normal -0 0 -1
    outer loop
      vertex 73 -1 1
      vertex 52.6 -5.5 1
      vertex 52.6 -1 1
    endloop
  endfacet
  facet normal 0 0 -1
    outer loop
      vertex 73 109 1
      vertex 77.5 113.5 1
      vertex 73 -1 1
    endloop
  endfacet
  facet normal 0 0 -1
    outer loop
      vertex 52.6 113.5 1
      vertex 73 109 1
      vertex 52.6 109 1
    endloop
  endfacet
  facet normal 0 0 -1
    outer loop
      vertex 73 109 1
      vertex 52.6 113.5 1
      vertex 77.5 113.5 1
    endloop
  endfacet
  facet normal 0 1 -0
    outer loop
      vertex 77.5 113.5 1
      vertex 52.6 113.5 8
      vertex 77.5 113.5 8
    endloop
  endfacet
  facet normal 0 1 0
    outer loop
      vertex 52.6 113.5 8
      vertex 77.5 113.5 1
      vertex 52.6 113.5 1
    endloop
  endfacet
  facet normal 0 -1 0
    outer loop
      vertex 52.6 -5.5 1
      vertex 77.5 -5.5 8
      vertex 52.6 -5.5 8
    endloop
  endfacet
  facet normal 0 -1 -0
    outer loop
      vertex 77.5 -5.5 8
      vertex 52.6 -5.5 1
      vertex 77.5 -5.5 1
    endloop
  endfacet
  facet normal -1 0 0
    outer loop
      vertex 52.6 109 0
      vertex 52.6 108.05 0
      vertex 52.6 109 1
    endloop
  endfacet
  facet normal -1 0 0
    outer loop
      vertex 52.6 113.5 1
      vertex 52.6 111.974 1.5
      vertex 52.6 113.5 8
    endloop
  endfacet
  facet normal -1 0 0
    outer loop
      vertex 52.6 113.5 1
      vertex 52.6 110.775 1.5
      vertex 52.6 111.974 1.5
    endloop
  endfacet
  facet normal -1 0 0
    outer loop
      vertex 52.6 109 1
      vertex 52.6 110.775 1.5
      vertex 52.6 113.5 1
    endloop
  endfacet
  facet normal -1 0 0
    outer loop
      vertex 52.6 108.05 8
      vertex 52.6 110.775 1.5
      vertex 52.6 109 1
    endloop
  endfacet
  facet normal -1 0 0
    outer loop
      vertex 52.6 108.05 8
      vertex 52.6 109 1
      vertex 52.6 108.05 0
    endloop
  endfacet
  facet normal -1 0 0
    outer loop
      vertex 52.6 110.775 1.5
      vertex 52.6 108.05 8
      vertex 52.6 110.775 8
    endloop
  endfacet
  facet normal -1 -0 0
    outer loop
      vertex 52.6 113.5 8
      vertex 52.6 111.974 1.5
      vertex 52.6 111.974 8
    endloop
  endfacet
  facet normal -1 0 0
    outer loop
      vertex 52.6 -1 1
      vertex 52.6 -2.775 1.5
      vertex 52.6 -1.576 1.5
    endloop
  endfacet
  facet normal -1 0 0
    outer loop
      vertex 52.6 -5.5 1
      vertex 52.6 -2.775 1.5
      vertex 52.6 -1 1
    endloop
  endfacet
  facet normal -1 0 0
    outer loop
      vertex 52.6 -5.5 8
      vertex 52.6 -2.775 1.5
      vertex 52.6 -5.5 1
    endloop
  endfacet
  facet normal -1 0 0
    outer loop
      vertex 52.6 -2.775 1.5
      vertex 52.6 -5.5 8
      vertex 52.6 -2.775 8
    endloop
  endfacet
  facet normal -1 0 0
    outer loop
      vertex 52.6 -1 1
      vertex 52.6 -0.0499992 0
      vertex 52.6 -1 0
    endloop
  endfacet
  facet normal -1 0 0
    outer loop
      vertex 52.6 -0.0499992 0
      vertex 52.6 -1 1
      vertex 52.6 -0.0499992 8
    endloop
  endfacet
  facet normal -1 0 0
    outer loop
      vertex 52.6 -1.576 1.5
      vertex 52.6 -0.0499992 8
      vertex 52.6 -1 1
    endloop
  endfacet
  facet normal -1 -0 0
    outer loop
      vertex 52.6 -0.0499992 8
      vertex 52.6 -1.576 1.5
      vertex 52.6 -1.576 8
    endloop
  endfacet
  facet normal -1 0 0
    outer loop
      vertex 49.08 -3.974 1.5
      vertex 49.08 -1.576 8
      vertex 49.08 -1.576 1.5
    endloop
  endfacet
  facet normal -1 -0 0
    outer loop
      vertex 49.08 -1.576 8
      vertex 49.08 -3.974 1.5
      vertex 49.08 -3.974 8
    endloop
  endfacet
  facet normal 0 0 -1
    outer loop
      vertex 50.279 -3.974 1.5
      vertex 49.08 -3.974 1.5
      vertex 50.279 -2.775 1.5
    endloop
  endfacet
  facet normal 0 0 -1
    outer loop
      vertex 50.279 -2.775 1.5
      vertex 52.6 -1.576 1.5
      vertex 52.6 -2.775 1.5
    endloop
  endfacet
  facet normal 0 0 -1
    outer loop
      vertex 50.279 -2.775 1.5
      vertex 49.08 -1.576 1.5
      vertex 52.6 -1.576 1.5
    endloop
  endfacet
  facet normal 0 0 -1
    outer loop
      vertex 49.08 -1.576 1.5
      vertex 50.279 -2.775 1.5
      vertex 49.08 -3.974 1.5
    endloop
  endfacet
  facet normal 1 -0 0
    outer loop
      vertex 50.279 -3.974 8
      vertex 50.279 -2.775 1.5
      vertex 50.279 -2.775 8
    endloop
  endfacet
  facet normal 1 0 0
    outer loop
      vertex 50.279 -2.775 1.5
      vertex 50.279 -3.974 8
      vertex 50.279 -3.974 1.5
    endloop
  endfacet
  facet normal 0 -1 0
    outer loop
      vertex 49.08 -3.974 1.5
      vertex 50.279 -3.974 8
      vertex 49.08 -3.974 8
    endloop
  endfacet
  facet normal 0 -1 -0
    outer loop
      vertex 50.279 -3.974 8
      vertex 49.08 -3.974 1.5
      vertex 50.279 -3.974 1.5
    endloop
  endfacet
  facet normal 0 1 -0
    outer loop
      vertex 52.6 -1.576 1.5
      vertex 49.08 -1.576 8
      vertex 52.6 -1.576 8
    endloop
  endfacet
  facet normal 0 1 0
    outer loop
      vertex 49.08 -1.576 8
      vertex 52.6 -1.576 1.5
      vertex 49.08 -1.576 1.5
    endloop
  endfacet
  facet normal 0 -1 0
    outer loop
      vertex 50.279 -2.775 1.5
      vertex 52.6 -2.775 8
      vertex 50.279 -2.775 8
    endloop
  endfacet
  facet normal 0 -1 -0
    outer loop
      vertex 52.6 -2.775 8
      vertex 50.279 -2.775 1.5
      vertex 52.6 -2.775 1.5
    endloop
  endfacet
  facet normal -1 0 0
    outer loop
      vertex 49.08 109.576 1.5
      vertex 49.08 111.974 8
      vertex 49.08 111.974 1.5
    endloop
  endfacet
  facet normal -1 -0 0
    outer loop
      vertex 49.08 111.974 8
      vertex 49.08 109.576 1.5
      vertex 49.08 109.576 8
    endloop
  endfacet
  facet normal 0 0 -1
    outer loop
      vertex 50.279 109.576 1.5
      vertex 49.08 109.576 1.5
      vertex 50.279 110.775 1.5
    endloop
  endfacet
  facet normal 0 0 -1
    outer loop
      vertex 50.279 110.775 1.5
      vertex 52.6 111.974 1.5
      vertex 52.6 110.775 1.5
    endloop
  endfacet
  facet normal 0 0 -1
    outer loop
      vertex 50.279 110.775 1.5
      vertex 49.08 111.974 1.5
      vertex 52.6 111.974 1.5
    endloop
  endfacet
  facet normal 0 0 -1
    outer loop
      vertex 49.08 111.974 1.5
      vertex 50.279 110.775 1.5
      vertex 49.08 109.576 1.5
    endloop
  endfacet
  facet normal 1 -0 0
    outer loop
      vertex 50.279 109.576 8
      vertex 50.279 110.775 1.5
      vertex 50.279 110.775 8
    endloop
  endfacet
  facet normal 1 0 0
    outer loop
      vertex 50.279 110.775 1.5
      vertex 50.279 109.576 8
      vertex 50.279 109.576 1.5
    endloop
  endfacet
  facet normal 0 -1 0
    outer loop
      vertex 49.08 109.576 1.5
      vertex 50.279 109.576 8
      vertex 49.08 109.576 8
    endloop
  endfacet
  facet normal 0 -1 -0
    outer loop
      vertex 50.279 109.576 8
      vertex 49.08 109.576 1.5
      vertex 50.279 109.576 1.5
    endloop
  endfacet
  facet normal 0 1 -0
    outer loop
      vertex 52.6 111.974 1.5
      vertex 49.08 111.974 8
      vertex 52.6 111.974 8
    endloop
  endfacet
  facet normal 0 1 0
    outer loop
      vertex 49.08 111.974 8
      vertex 52.6 111.974 1.5
      vertex 49.08 111.974 1.5
    endloop
  endfacet
  facet normal 0 -1 0
    outer loop
      vertex 50.279 110.775 1.5
      vertex 52.6 110.775 8
      vertex 50.279 110.775 8
    endloop
  endfacet
  facet normal 0 -1 -0
    outer loop
      vertex 52.6 110.775 8
      vertex 50.279 110.775 1.5
      vertex 52.6 110.775 1.5
    endloop
  endfacet
endsolid OpenSCAD_Model
