solid OpenSCAD_Model
  facet normal 0 0 1
    outer loop
      vertex 52.48 113.2 8
      vertex 48 112.355 8
      vertex 52.48 112.355 8
    endloop
  endfacet
  facet normal 0 0 1
    outer loop
      vertex 48 112.355 8
      vertex -0.0499992 108.05 8
      vertex 48 108.895 8
    endloop
  endfacet
  facet normal -0 0 1
    outer loop
      vertex -5.2 113.2 8
      vertex 48 112.355 8
      vertex 52.48 113.2 8
    endloop
  endfacet
  facet normal 0 0 1
    outer loop
      vertex -0.0499992 108.05 8
      vertex -5.2 113.2 8
      vertex -0.0499992 -0.0499992 8
    endloop
  endfacet
  facet normal 0 0 1
    outer loop
      vertex 48 112.355 8
      vertex -5.2 113.2 8
      vertex -0.0499992 108.05 8
    endloop
  endfacet
  facet normal 0 0 1
    outer loop
      vertex 49.7304 108.895 8
      vertex 52.48 110.625 8
      vertex 49.7304 110.625 8
    endloop
  endfacet
  facet normal 0 0 1
    outer loop
      vertex 52.48 110.625 8
      vertex 49.7304 108.895 8
      vertex 52.48 108.05 8
    endloop
  endfacet
  facet normal -0 0 1
    outer loop
      vertex 48 108.895 8
      vertex 52.48 108.05 8
      vertex 49.7304 108.895 8
    endloop
  endfacet
  facet normal 0 0 1
    outer loop
      vertex 52.48 108.05 8
      vertex 48 108.895 8
      vertex -0.0499992 108.05 8
    endloop
  endfacet
  facet normal 0 0 1
    outer loop
      vertex 52.48 -0.0499992 8
      vertex 48 -0.8946 8
      vertex 52.48 -0.8946 8
    endloop
  endfacet
  facet normal 0 0 1
    outer loop
      vertex 48 -0.8946 8
      vertex -0.0499992 -0.0499992 8
      vertex 48 -4.3554 8
    endloop
  endfacet
  facet normal -0 0 1
    outer loop
      vertex -0.0499992 -0.0499992 8
      vertex 48 -0.8946 8
      vertex 52.48 -0.0499992 8
    endloop
  endfacet
  facet normal 0 0 1
    outer loop
      vertex 49.7304 -4.3554 8
      vertex 52.48 -2.625 8
      vertex 49.7304 -2.625 8
    endloop
  endfacet
  facet normal 0 0 1
    outer loop
      vertex 52.48 -2.625 8
      vertex 49.7304 -4.3554 8
      vertex 52.48 -5.2 8
    endloop
  endfacet
  facet normal -0 0 1
    outer loop
      vertex 48 -4.3554 8
      vertex 52.48 -5.2 8
      vertex 49.7304 -4.3554 8
    endloop
  endfacet
  facet normal 0 0 1
    outer loop
      vertex -5.2 -5.2 8
      vertex 48 -4.3554 8
      vertex -0.0499992 -0.0499992 8
    endloop
  endfacet
  facet normal 0 0 1
    outer loop
      vertex 48 -4.3554 8
      vertex -5.2 -5.2 8
      vertex 52.48 -5.2 8
    endloop
  endfacet
  facet normal 0 0 1
    outer loop
      vertex -5.2 -5.2 8
      vertex -0.0499992 -0.0499992 8
      vertex -5.2 113.2 8
    endloop
  endfacet
  facet normal 0 0 -1
    outer loop
      vertex 52.48 -1 0
      vertex -0.0499992 -0.0499992 0
      vertex 52.48 -0.0499992 0
    endloop
  endfacet
  facet normal -0 0 -1
    outer loop
      vertex -0.0499992 -0.0499992 0
      vertex -1 -1 0
      vertex -0.0499992 108.05 0
    endloop
  endfacet
  facet normal 0 0 -1
    outer loop
      vertex -1 -1 0
      vertex -0.0499992 -0.0499992 0
      vertex 52.48 -1 0
    endloop
  endfacet
  facet normal 0 0 -1
    outer loop
      vertex -0.0499992 108.05 0
      vertex 52.48 109 0
      vertex 52.48 108.05 0
    endloop
  endfacet
  facet normal 0 0 -1
    outer loop
      vertex -0.0499992 108.05 0
      vertex -1 109 0
      vertex 52.48 109 0
    endloop
  endfacet
  facet normal 0 0 -1
    outer loop
      vertex -1 109 0
      vertex -0.0499992 108.05 0
      vertex -1 -1 0
    endloop
  endfacet
  facet normal -1 0 0
    outer loop
      vertex -1 -1 0
      vertex -1 109 1
      vertex -1 109 0
    endloop
  endfacet
  facet normal -1 -0 0
    outer loop
      vertex -1 109 1
      vertex -1 -1 0
      vertex -1 -1 1
    endloop
  endfacet
  facet normal 0 1 -0
    outer loop
      vertex 52.48 109 0
      vertex -1 109 1
      vertex 52.48 109 1
    endloop
  endfacet
  facet normal 0 1 0
    outer loop
      vertex -1 109 1
      vertex 52.48 109 0
      vertex -1 109 0
    endloop
  endfacet
  facet normal 0 -1 0
    outer loop
      vertex -1 -1 0
      vertex 52.48 -1 1
      vertex -1 -1 1
    endloop
  endfacet
  facet normal 0 -1 -0
    outer loop
      vertex 52.48 -1 1
      vertex -1 -1 0
      vertex 52.48 -1 0
    endloop
  endfacet
  facet normal 1 -0 0
    outer loop
      vertex -0.0499992 -0.0499992 8
      vertex -0.0499992 108.05 0
      vertex -0.0499992 108.05 8
    endloop
  endfacet
  facet normal 1 0 0
    outer loop
      vertex -0.0499992 108.05 0
      vertex -0.0499992 -0.0499992 8
      vertex -0.0499992 -0.0499992 0
    endloop
  endfacet
  facet normal 0 -1 0
    outer loop
      vertex -0.0499992 108.05 0
      vertex 52.48 108.05 8
      vertex -0.0499992 108.05 8
    endloop
  endfacet
  facet normal 0 -1 -0
    outer loop
      vertex 52.48 108.05 8
      vertex -0.0499992 108.05 0
      vertex 52.48 108.05 0
    endloop
  endfacet
  facet normal 0 1 -0
    outer loop
      vertex 52.48 -0.0499992 0
      vertex -0.0499992 -0.0499992 8
      vertex 52.48 -0.0499992 8
    endloop
  endfacet
  facet normal 0 1 0
    outer loop
      vertex -0.0499992 -0.0499992 8
      vertex 52.48 -0.0499992 0
      vertex -0.0499992 -0.0499992 0
    endloop
  endfacet
  facet normal 0 0 -1
    outer loop
      vertex 52.48 -5.2 1
      vertex -1 -1 1
      vertex 52.48 -1 1
    endloop
  endfacet
  facet normal -0 0 -1
    outer loop
      vertex -1 -1 1
      vertex -5.2 -5.2 1
      vertex -1 109 1
    endloop
  endfacet
  facet normal 0 0 -1
    outer loop
      vertex -5.2 -5.2 1
      vertex -1 -1 1
      vertex 52.48 -5.2 1
    endloop
  endfacet
  facet normal 0 0 -1
    outer loop
      vertex -1 109 1
      vertex 52.48 113.2 1
      vertex 52.48 109 1
    endloop
  endfacet
  facet normal 0 0 -1
    outer loop
      vertex -1 109 1
      vertex -5.2 113.2 1
      vertex 52.48 113.2 1
    endloop
  endfacet
  facet normal 0 0 -1
    outer loop
      vertex -5.2 113.2 1
      vertex -1 109 1
      vertex -5.2 -5.2 1
    endloop
  endfacet
  facet normal -1 0 0
    outer loop
      vertex -5.2 -5.2 1
      vertex -5.2 113.2 8
      vertex -5.2 113.2 1
    endloop
  endfacet
  facet normal -1 -0 0
    outer loop
      vertex -5.2 113.2 8
      vertex -5.2 -5.2 1
      vertex -5.2 -5.2 8
    endloop
  endfacet
  facet normal 0 1 -0
    outer loop
      vertex 52.48 113.2 1
      vertex -5.2 113.2 8
      vertex 52.48 113.2 8
    endloop
  endfacet
  facet normal 0 1 0
    outer loop
      vertex -5.2 113.2 8
      vertex 52.48 113.2 1
      vertex -5.2 113.2 1
    endloop
  endfacet
  facet normal 0 -1 0
    outer loop
      vertex -5.2 -5.2 1
      vertex 52.48 -5.2 8
      vertex -5.2 -5.2 8
    endloop
  endfacet
  facet normal 0 -1 -0
    outer loop
      vertex 52.48 -5.2 8
      vertex -5.2 -5.2 1
      vertex 52.48 -5.2 1
    endloop
  endfacet
  facet normal 1 -0 0
    outer loop
      vertex 52.48 108.05 8
      vertex 52.48 110.625 1.5
      vertex 52.48 110.625 8
    endloop
  endfacet
  facet normal 1 0 0
    outer loop
      vertex 52.48 110.625 1.5
      vertex 52.48 108.05 8
      vertex 52.48 109 1
    endloop
  endfacet
  facet normal 1 0 0
    outer loop
      vertex 52.48 108.05 0
      vertex 52.48 109 1
      vertex 52.48 108.05 8
    endloop
  endfacet
  facet normal 1 0 0
    outer loop
      vertex 52.48 109 1
      vertex 52.48 108.05 0
      vertex 52.48 109 0
    endloop
  endfacet
  facet normal 1 0 0
    outer loop
      vertex 52.48 112.355 1.5
      vertex 52.48 113.2 8
      vertex 52.48 112.355 8
    endloop
  endfacet
  facet normal 1 0 0
    outer loop
      vertex 52.48 113.2 8
      vertex 52.48 112.355 1.5
      vertex 52.48 113.2 1
    endloop
  endfacet
  facet normal 1 -0 0
    outer loop
      vertex 52.48 110.625 1.5
      vertex 52.48 113.2 1
      vertex 52.48 112.355 1.5
    endloop
  endfacet
  facet normal 1 0 0
    outer loop
      vertex 52.48 113.2 1
      vertex 52.48 110.625 1.5
      vertex 52.48 109 1
    endloop
  endfacet
  facet normal 1 0 0
    outer loop
      vertex 52.48 -2.625 8
      vertex 52.48 -5.2 8
      vertex 52.48 -2.625 1.5
    endloop
  endfacet
  facet normal 1 -0 0
    outer loop
      vertex 52.48 -2.625 1.5
      vertex 52.48 -1 1
      vertex 52.48 -0.8946 1.5
    endloop
  endfacet
  facet normal 1 0 0
    outer loop
      vertex 52.48 -2.625 1.5
      vertex 52.48 -5.2 1
      vertex 52.48 -1 1
    endloop
  endfacet
  facet normal 1 0 0
    outer loop
      vertex 52.48 -5.2 1
      vertex 52.48 -2.625 1.5
      vertex 52.48 -5.2 8
    endloop
  endfacet
  facet normal 1 0 0
    outer loop
      vertex 52.48 -0.8946 1.5
      vertex 52.48 -0.0499992 8
      vertex 52.48 -0.8946 8
    endloop
  endfacet
  facet normal 1 0 0
    outer loop
      vertex 52.48 -0.0499992 8
      vertex 52.48 -0.8946 1.5
      vertex 52.48 -0.0499992 0
    endloop
  endfacet
  facet normal 1 -0 0
    outer loop
      vertex 52.48 -1 1
      vertex 52.48 -0.0499992 0
      vertex 52.48 -0.8946 1.5
    endloop
  endfacet
  facet normal 1 0 0
    outer loop
      vertex 52.48 -0.0499992 0
      vertex 52.48 -1 1
      vertex 52.48 -1 0
    endloop
  endfacet
  facet normal 1 -0 0
    outer loop
      vertex 48 -4.3554 8
      vertex 48 -0.8946 1.5
      vertex 48 -0.8946 8
    endloop
  endfacet
  facet normal 1 0 0
    outer loop
      vertex 48 -0.8946 1.5
      vertex 48 -4.3554 8
      vertex 48 -4.3554 1.5
    endloop
  endfacet
  facet normal 0 0 1
    outer loop
      vertex 52.48 -0.8946 1.5
      vertex 49.7304 -2.625 1.5
      vertex 52.48 -2.625 1.5
    endloop
  endfacet
  facet normal -0 0 1
    outer loop
      vertex 48 -0.8946 1.5
      vertex 49.7304 -2.625 1.5
      vertex 52.48 -0.8946 1.5
    endloop
  endfacet
  facet normal 0 0 1
    outer loop
      vertex 48 -4.3554 1.5
      vertex 49.7304 -2.625 1.5
      vertex 48 -0.8946 1.5
    endloop
  endfacet
  facet normal 0 0 1
    outer loop
      vertex 49.7304 -2.625 1.5
      vertex 48 -4.3554 1.5
      vertex 49.7304 -4.3554 1.5
    endloop
  endfacet
  facet normal -1 0 0
    outer loop
      vertex 49.7304 -4.3554 1.5
      vertex 49.7304 -2.625 8
      vertex 49.7304 -2.625 1.5
    endloop
  endfacet
  facet normal -1 -0 0
    outer loop
      vertex 49.7304 -2.625 8
      vertex 49.7304 -4.3554 1.5
      vertex 49.7304 -4.3554 8
    endloop
  endfacet
  facet normal 0 1 -0
    outer loop
      vertex 49.7304 -4.3554 1.5
      vertex 48 -4.3554 8
      vertex 49.7304 -4.3554 8
    endloop
  endfacet
  facet normal 0 1 0
    outer loop
      vertex 48 -4.3554 8
      vertex 49.7304 -4.3554 1.5
      vertex 48 -4.3554 1.5
    endloop
  endfacet
  facet normal 0 -1 0
    outer loop
      vertex 48 -0.8946 1.5
      vertex 52.48 -0.8946 8
      vertex 48 -0.8946 8
    endloop
  endfacet
  facet normal 0 -1 -0
    outer loop
      vertex 52.48 -0.8946 8
      vertex 48 -0.8946 1.5
      vertex 52.48 -0.8946 1.5
    endloop
  endfacet
  facet normal 0 1 -0
    outer loop
      vertex 52.48 -2.625 1.5
      vertex 49.7304 -2.625 8
      vertex 52.48 -2.625 8
    endloop
  endfacet
  facet normal 0 1 0
    outer loop
      vertex 49.7304 -2.625 8
      vertex 52.48 -2.625 1.5
      vertex 49.7304 -2.625 1.5
    endloop
  endfacet
  facet normal 1 -0 0
    outer loop
      vertex 48 108.895 8
      vertex 48 112.355 1.5
      vertex 48 112.355 8
    endloop
  endfacet
  facet normal 1 0 0
    outer loop
      vertex 48 112.355 1.5
      vertex 48 108.895 8
      vertex 48 108.895 1.5
    endloop
  endfacet
  facet normal 0 0 1
    outer loop
      vertex 52.48 112.355 1.5
      vertex 49.7304 110.625 1.5
      vertex 52.48 110.625 1.5
    endloop
  endfacet
  facet normal -0 0 1
    outer loop
      vertex 48 112.355 1.5
      vertex 49.7304 110.625 1.5
      vertex 52.48 112.355 1.5
    endloop
  endfacet
  facet normal 0 0 1
    outer loop
      vertex 48 108.895 1.5
      vertex 49.7304 110.625 1.5
      vertex 48 112.355 1.5
    endloop
  endfacet
  facet normal 0 0 1
    outer loop
      vertex 49.7304 110.625 1.5
      vertex 48 108.895 1.5
      vertex 49.7304 108.895 1.5
    endloop
  endfacet
  facet normal -1 0 0
    outer loop
      vertex 49.7304 108.895 1.5
      vertex 49.7304 110.625 8
      vertex 49.7304 110.625 1.5
    endloop
  endfacet
  facet normal -1 -0 0
    outer loop
      vertex 49.7304 110.625 8
      vertex 49.7304 108.895 1.5
      vertex 49.7304 108.895 8
    endloop
  endfacet
  facet normal 0 1 -0
    outer loop
      vertex 49.7304 108.895 1.5
      vertex 48 108.895 8
      vertex 49.7304 108.895 8
    endloop
  endfacet
  facet normal 0 1 0
    outer loop
      vertex 48 108.895 8
      vertex 49.7304 108.895 1.5
      vertex 48 108.895 1.5
    endloop
  endfacet
  facet normal 0 -1 0
    outer loop
      vertex 48 112.355 1.5
      vertex 52.48 112.355 8
      vertex 48 112.355 8
    endloop
  endfacet
  facet normal 0 -1 -0
    outer loop
      vertex 52.48 112.355 8
      vertex 48 112.355 1.5
      vertex 52.48 112.355 1.5
    endloop
  endfacet
  facet normal 0 1 -0
    outer loop
      vertex 52.48 110.625 1.5
      vertex 49.7304 110.625 8
      vertex 52.48 110.625 8
    endloop
  endfacet
  facet normal 0 1 0
    outer loop
      vertex 49.7304 110.625 8
      vertex 52.48 110.625 1.5
      vertex 49.7304 110.625 1.5
    endloop
  endfacet
endsolid OpenSCAD_Model
