solid OpenSCAD_Model
  facet normal 1 -0 0
    outer loop
      vertex 73 -1 1
      vertex 73 109 0
      vertex 73 109 1
    endloop
  endfacet
  facet normal 1 0 0
    outer loop
      vertex 73 109 0
      vertex 73 -1 1
      vertex 73 -1 0
    endloop
  endfacet
  facet normal 0 0 1
    outer loop
      vertex 52.48 -1.48 8
      vertex 49.625 -2.225 8
      vertex 52.48 -2.225 8
    endloop
  endfacet
  facet normal -0 0 1
    outer loop
      vertex 48.88 -1.48 8
      vertex 49.625 -2.225 8
      vertex 52.48 -1.48 8
    endloop
  endfacet
  facet normal 0 0 1
    outer loop
      vertex 48.88 -3.77 8
      vertex 49.625 -2.225 8
      vertex 48.88 -1.48 8
    endloop
  endfacet
  facet normal 0 0 1
    outer loop
      vertex 49.625 -2.225 8
      vertex 48.88 -3.77 8
      vertex 49.625 -3.77 8
    endloop
  endfacet
  facet normal 0 0 1
    outer loop
      vertex 52.48 111.77 8
      vertex 49.625 111.025 8
      vertex 52.48 111.025 8
    endloop
  endfacet
  facet normal -0 0 1
    outer loop
      vertex 48.88 111.77 8
      vertex 49.625 111.025 8
      vertex 52.48 111.77 8
    endloop
  endfacet
  facet normal 0 0 1
    outer loop
      vertex 48.88 109.48 8
      vertex 49.625 111.025 8
      vertex 48.88 111.77 8
    endloop
  endfacet
  facet normal 0 0 1
    outer loop
      vertex 49.625 111.025 8
      vertex 48.88 109.48 8
      vertex 49.625 109.48 8
    endloop
  endfacet
  facet normal 0 0 1
    outer loop
      vertex 77.2 113.2 8
      vertex 72.05 108.05 8
      vertex 77.2 -5.2 8
    endloop
  endfacet
  facet normal -0 0 1
    outer loop
      vertex 52.48 113.2 8
      vertex 72.05 108.05 8
      vertex 77.2 113.2 8
    endloop
  endfacet
  facet normal -0 0 1
    outer loop
      vertex 52.48 112.17 8
      vertex 72.05 108.05 8
      vertex 52.48 113.2 8
    endloop
  endfacet
  facet normal -0 0 1
    outer loop
      vertex 52.48 111.77 8
      vertex 72.05 108.05 8
      vertex 52.48 112.17 8
    endloop
  endfacet
  facet normal -0 0 1
    outer loop
      vertex 52.48 111.025 8
      vertex 72.05 108.05 8
      vertex 52.48 111.77 8
    endloop
  endfacet
  facet normal -0 0 1
    outer loop
      vertex 52.48 110.625 8
      vertex 72.05 108.05 8
      vertex 52.48 111.025 8
    endloop
  endfacet
  facet normal 0 0 1
    outer loop
      vertex 72.05 108.05 8
      vertex 52.48 110.625 8
      vertex 52.48 108.05 8
    endloop
  endfacet
  facet normal -0 0 1
    outer loop
      vertex 72.05 -0.0499992 8
      vertex 77.2 -5.2 8
      vertex 72.05 108.05 8
    endloop
  endfacet
  facet normal 0 0 1
    outer loop
      vertex 52.48 -1.08 8
      vertex 72.05 -0.0499992 8
      vertex 52.48 -0.0499992 8
    endloop
  endfacet
  facet normal 0 0 1
    outer loop
      vertex 52.48 -1.48 8
      vertex 72.05 -0.0499992 8
      vertex 52.48 -1.08 8
    endloop
  endfacet
  facet normal 0 0 1
    outer loop
      vertex 52.48 -2.225 8
      vertex 72.05 -0.0499992 8
      vertex 52.48 -1.48 8
    endloop
  endfacet
  facet normal 0 0 1
    outer loop
      vertex 52.48 -2.625 8
      vertex 72.05 -0.0499992 8
      vertex 52.48 -2.225 8
    endloop
  endfacet
  facet normal 0 0 1
    outer loop
      vertex 52.48 -5.2 8
      vertex 72.05 -0.0499992 8
      vertex 52.48 -2.625 8
    endloop
  endfacet
  facet normal 0 0 1
    outer loop
      vertex 72.05 -0.0499992 8
      vertex 52.48 -5.2 8
      vertex 77.2 -5.2 8
    endloop
  endfacet
  facet normal 0 0 1
    outer loop
      vertex 52.48 113.2 8
      vertex 48.48 112.17 8
      vertex 52.48 112.17 8
    endloop
  endfacet
  facet normal 0 0 1
    outer loop
      vertex 48.48 112.17 8
      vertex -0.0499992 108.05 8
      vertex 48.48 109.08 8
    endloop
  endfacet
  facet normal -0 0 1
    outer loop
      vertex -5.2 113.2 8
      vertex 48.48 112.17 8
      vertex 52.48 113.2 8
    endloop
  endfacet
  facet normal 0 0 1
    outer loop
      vertex -0.0499992 108.05 8
      vertex -5.2 113.2 8
      vertex -0.0499992 -0.0499992 8
    endloop
  endfacet
  facet normal 0 0 1
    outer loop
      vertex 48.48 112.17 8
      vertex -5.2 113.2 8
      vertex -0.0499992 108.05 8
    endloop
  endfacet
  facet normal 0 0 1
    outer loop
      vertex 50.025 109.08 8
      vertex 52.48 110.625 8
      vertex 50.025 110.625 8
    endloop
  endfacet
  facet normal 0 0 1
    outer loop
      vertex 52.48 110.625 8
      vertex 50.025 109.08 8
      vertex 52.48 108.05 8
    endloop
  endfacet
  facet normal -0 0 1
    outer loop
      vertex 48.48 109.08 8
      vertex 52.48 108.05 8
      vertex 50.025 109.08 8
    endloop
  endfacet
  facet normal 0 0 1
    outer loop
      vertex 52.48 108.05 8
      vertex 48.48 109.08 8
      vertex -0.0499992 108.05 8
    endloop
  endfacet
  facet normal 0 0 1
    outer loop
      vertex 52.48 -0.0499992 8
      vertex 48.48 -1.08 8
      vertex 52.48 -1.08 8
    endloop
  endfacet
  facet normal 0 0 1
    outer loop
      vertex 48.48 -1.08 8
      vertex -0.0499992 -0.0499992 8
      vertex 48.48 -4.17 8
    endloop
  endfacet
  facet normal -0 0 1
    outer loop
      vertex -0.0499992 -0.0499992 8
      vertex 48.48 -1.08 8
      vertex 52.48 -0.0499992 8
    endloop
  endfacet
  facet normal 0 0 1
    outer loop
      vertex 50.025 -4.17 8
      vertex 52.48 -2.625 8
      vertex 50.025 -2.625 8
    endloop
  endfacet
  facet normal 0 0 1
    outer loop
      vertex 52.48 -2.625 8
      vertex 50.025 -4.17 8
      vertex 52.48 -5.2 8
    endloop
  endfacet
  facet normal -0 0 1
    outer loop
      vertex 48.48 -4.17 8
      vertex 52.48 -5.2 8
      vertex 50.025 -4.17 8
    endloop
  endfacet
  facet normal 0 0 1
    outer loop
      vertex -5.2 -5.2 8
      vertex 48.48 -4.17 8
      vertex -0.0499992 -0.0499992 8
    endloop
  endfacet
  facet normal 0 0 1
    outer loop
      vertex 48.48 -4.17 8
      vertex -5.2 -5.2 8
      vertex 52.48 -5.2 8
    endloop
  endfacet
  facet normal 0 0 1
    outer loop
      vertex -5.2 -5.2 8
      vertex -0.0499992 -0.0499992 8
      vertex -5.2 113.2 8
    endloop
  endfacet
  facet normal 0 0 -1
    outer loop
      vertex 73 -1 0
      vertex 72.05 -0.0499992 0
      vertex 73 109 0
    endloop
  endfacet
  facet normal 0 0 -1
    outer loop
      vertex 52.48 -1 0
      vertex 72.05 -0.0499992 0
      vertex 73 -1 0
    endloop
  endfacet
  facet normal -0 0 -1
    outer loop
      vertex 72.05 -0.0499992 0
      vertex 52.48 -1 0
      vertex 52.48 -0.0499992 0
    endloop
  endfacet
  facet normal 0 0 -1
    outer loop
      vertex 72.05 108.05 0
      vertex 73 109 0
      vertex 72.05 -0.0499992 0
    endloop
  endfacet
  facet normal 0 0 -1
    outer loop
      vertex 52.48 109 0
      vertex 72.05 108.05 0
      vertex 52.48 108.05 0
    endloop
  endfacet
  facet normal 0 0 -1
    outer loop
      vertex 72.05 108.05 0
      vertex 52.48 109 0
      vertex 73 109 0
    endloop
  endfacet
  facet normal 0 0 -1
    outer loop
      vertex 52.48 -1 0
      vertex -0.0499992 -0.0499992 0
      vertex 52.48 -0.0499992 0
    endloop
  endfacet
  facet normal -0 0 -1
    outer loop
      vertex -0.0499992 -0.0499992 0
      vertex -1 -1 0
      vertex -0.0499992 108.05 0
    endloop
  endfacet
  facet normal 0 0 -1
    outer loop
      vertex -1 -1 0
      vertex -0.0499992 -0.0499992 0
      vertex 52.48 -1 0
    endloop
  endfacet
  facet normal 0 0 -1
    outer loop
      vertex -0.0499992 108.05 0
      vertex 52.48 109 0
      vertex 52.48 108.05 0
    endloop
  endfacet
  facet normal 0 0 -1
    outer loop
      vertex -0.0499992 108.05 0
      vertex -1 109 0
      vertex 52.48 109 0
    endloop
  endfacet
  facet normal 0 0 -1
    outer loop
      vertex -1 109 0
      vertex -0.0499992 108.05 0
      vertex -1 -1 0
    endloop
  endfacet
  facet normal -1 0 0
    outer loop
      vertex -1 -1 0
      vertex -1 109 1
      vertex -1 109 0
    endloop
  endfacet
  facet normal -1 -0 0
    outer loop
      vertex -1 109 1
      vertex -1 -1 0
      vertex -1 -1 1
    endloop
  endfacet
  facet normal 0 1 -0
    outer loop
      vertex 73 109 0
      vertex 52.48 109 1
      vertex 73 109 1
    endloop
  endfacet
  facet normal 0 1 0
    outer loop
      vertex 52.48 109 1
      vertex 73 109 0
      vertex 52.48 109 0
    endloop
  endfacet
  facet normal 0 1 -0
    outer loop
      vertex 52.48 109 0
      vertex -1 109 1
      vertex 52.48 109 1
    endloop
  endfacet
  facet normal 0 1 0
    outer loop
      vertex -1 109 1
      vertex 52.48 109 0
      vertex -1 109 0
    endloop
  endfacet
  facet normal 0 -1 0
    outer loop
      vertex 52.48 -1 0
      vertex 73 -1 1
      vertex 52.48 -1 1
    endloop
  endfacet
  facet normal 0 -1 -0
    outer loop
      vertex 73 -1 1
      vertex 52.48 -1 0
      vertex 73 -1 0
    endloop
  endfacet
  facet normal 0 -1 0
    outer loop
      vertex -1 -1 0
      vertex 52.48 -1 1
      vertex -1 -1 1
    endloop
  endfacet
  facet normal 0 -1 -0
    outer loop
      vertex 52.48 -1 1
      vertex -1 -1 0
      vertex 52.48 -1 0
    endloop
  endfacet
  facet normal -1 0 0
    outer loop
      vertex 72.05 -0.0499992 0
      vertex 72.05 108.05 8
      vertex 72.05 108.05 0
    endloop
  endfacet
  facet normal -1 -0 0
    outer loop
      vertex 72.05 108.05 8
      vertex 72.05 -0.0499992 0
      vertex 72.05 -0.0499992 8
    endloop
  endfacet
  facet normal 1 -0 0
    outer loop
      vertex -0.0499992 -0.0499992 8
      vertex -0.0499992 108.05 0
      vertex -0.0499992 108.05 8
    endloop
  endfacet
  facet normal 1 0 0
    outer loop
      vertex -0.0499992 108.05 0
      vertex -0.0499992 -0.0499992 8
      vertex -0.0499992 -0.0499992 0
    endloop
  endfacet
  facet normal 0 -1 0
    outer loop
      vertex 52.48 108.05 0
      vertex 72.05 108.05 8
      vertex 52.48 108.05 8
    endloop
  endfacet
  facet normal 0 -1 -0
    outer loop
      vertex 72.05 108.05 8
      vertex 52.48 108.05 0
      vertex 72.05 108.05 0
    endloop
  endfacet
  facet normal 0 -1 0
    outer loop
      vertex -0.0499992 108.05 0
      vertex 52.48 108.05 8
      vertex -0.0499992 108.05 8
    endloop
  endfacet
  facet normal 0 -1 -0
    outer loop
      vertex 52.48 108.05 8
      vertex -0.0499992 108.05 0
      vertex 52.48 108.05 0
    endloop
  endfacet
  facet normal 0 1 -0
    outer loop
      vertex 72.05 -0.0499992 0
      vertex 52.48 -0.0499992 8
      vertex 72.05 -0.0499992 8
    endloop
  endfacet
  facet normal 0 1 0
    outer loop
      vertex 52.48 -0.0499992 8
      vertex 72.05 -0.0499992 0
      vertex 52.48 -0.0499992 0
    endloop
  endfacet
  facet normal 0 1 -0
    outer loop
      vertex 52.48 -0.0499992 0
      vertex -0.0499992 -0.0499992 8
      vertex 52.48 -0.0499992 8
    endloop
  endfacet
  facet normal 0 1 0
    outer loop
      vertex -0.0499992 -0.0499992 8
      vertex 52.48 -0.0499992 0
      vertex -0.0499992 -0.0499992 0
    endloop
  endfacet
  facet normal 1 -0 0
    outer loop
      vertex 77.2 -5.2 8
      vertex 77.2 113.2 1
      vertex 77.2 113.2 8
    endloop
  endfacet
  facet normal 1 0 0
    outer loop
      vertex 77.2 113.2 1
      vertex 77.2 -5.2 8
      vertex 77.2 -5.2 1
    endloop
  endfacet
  facet normal 0 0 -1
    outer loop
      vertex 77.2 -5.2 1
      vertex 73 -1 1
      vertex 77.2 113.2 1
    endloop
  endfacet
  facet normal 0 0 -1
    outer loop
      vertex 52.48 -5.2 1
      vertex 73 -1 1
      vertex 77.2 -5.2 1
    endloop
  endfacet
  facet normal -0 0 -1
    outer loop
      vertex 73 -1 1
      vertex 52.48 -5.2 1
      vertex 52.48 -1 1
    endloop
  endfacet
  facet normal 0 0 -1
    outer loop
      vertex 73 109 1
      vertex 77.2 113.2 1
      vertex 73 -1 1
    endloop
  endfacet
  facet normal 0 0 -1
    outer loop
      vertex 52.48 113.2 1
      vertex 73 109 1
      vertex 52.48 109 1
    endloop
  endfacet
  facet normal 0 0 -1
    outer loop
      vertex 73 109 1
      vertex 52.48 113.2 1
      vertex 77.2 113.2 1
    endloop
  endfacet
  facet normal 0 0 -1
    outer loop
      vertex 52.48 -5.2 1
      vertex -1 -1 1
      vertex 52.48 -1 1
    endloop
  endfacet
  facet normal -0 0 -1
    outer loop
      vertex -1 -1 1
      vertex -5.2 -5.2 1
      vertex -1 109 1
    endloop
  endfacet
  facet normal 0 0 -1
    outer loop
      vertex -5.2 -5.2 1
      vertex -1 -1 1
      vertex 52.48 -5.2 1
    endloop
  endfacet
  facet normal 0 0 -1
    outer loop
      vertex -1 109 1
      vertex 52.48 113.2 1
      vertex 52.48 109 1
    endloop
  endfacet
  facet normal 0 0 -1
    outer loop
      vertex -1 109 1
      vertex -5.2 113.2 1
      vertex 52.48 113.2 1
    endloop
  endfacet
  facet normal 0 0 -1
    outer loop
      vertex -5.2 113.2 1
      vertex -1 109 1
      vertex -5.2 -5.2 1
    endloop
  endfacet
  facet normal -1 0 0
    outer loop
      vertex -5.2 -5.2 1
      vertex -5.2 113.2 8
      vertex -5.2 113.2 1
    endloop
  endfacet
  facet normal -1 -0 0
    outer loop
      vertex -5.2 113.2 8
      vertex -5.2 -5.2 1
      vertex -5.2 -5.2 8
    endloop
  endfacet
  facet normal 0 1 -0
    outer loop
      vertex 77.2 113.2 1
      vertex 52.48 113.2 8
      vertex 77.2 113.2 8
    endloop
  endfacet
  facet normal 0 1 0
    outer loop
      vertex 52.48 113.2 8
      vertex 77.2 113.2 1
      vertex 52.48 113.2 1
    endloop
  endfacet
  facet normal 0 1 -0
    outer loop
      vertex 52.48 113.2 1
      vertex -5.2 113.2 8
      vertex 52.48 113.2 8
    endloop
  endfacet
  facet normal 0 1 0
    outer loop
      vertex -5.2 113.2 8
      vertex 52.48 113.2 1
      vertex -5.2 113.2 1
    endloop
  endfacet
  facet normal 0 -1 0
    outer loop
      vertex 52.48 -5.2 1
      vertex 77.2 -5.2 8
      vertex 52.48 -5.2 8
    endloop
  endfacet
  facet normal 0 -1 -0
    outer loop
      vertex 77.2 -5.2 8
      vertex 52.48 -5.2 1
      vertex 77.2 -5.2 1
    endloop
  endfacet
  facet normal 0 -1 0
    outer loop
      vertex -5.2 -5.2 1
      vertex 52.48 -5.2 8
      vertex -5.2 -5.2 8
    endloop
  endfacet
  facet normal 0 -1 -0
    outer loop
      vertex 52.48 -5.2 8
      vertex -5.2 -5.2 1
      vertex 52.48 -5.2 1
    endloop
  endfacet
  facet normal -1 0 0
    outer loop
      vertex 52.48 -1.48 1.5
      vertex 52.48 -1.08 8
      vertex 52.48 -1.08 1.5
    endloop
  endfacet
  facet normal -1 -0 0
    outer loop
      vertex 52.48 -1.08 8
      vertex 52.48 -1.48 1.5
      vertex 52.48 -1.48 8
    endloop
  endfacet
  facet normal -1 0 0
    outer loop
      vertex 52.48 -2.625 1.5
      vertex 52.48 -2.225 8
      vertex 52.48 -2.225 1.5
    endloop
  endfacet
  facet normal -1 -0 0
    outer loop
      vertex 52.48 -2.225 8
      vertex 52.48 -2.625 1.5
      vertex 52.48 -2.625 8
    endloop
  endfacet
  facet normal -1 0 0
    outer loop
      vertex 52.48 111.77 1.5
      vertex 52.48 112.17 8
      vertex 52.48 112.17 1.5
    endloop
  endfacet
  facet normal -1 -0 0
    outer loop
      vertex 52.48 112.17 8
      vertex 52.48 111.77 1.5
      vertex 52.48 111.77 8
    endloop
  endfacet
  facet normal -1 0 0
    outer loop
      vertex 52.48 110.625 1.5
      vertex 52.48 111.025 8
      vertex 52.48 111.025 1.5
    endloop
  endfacet
  facet normal -1 -0 0
    outer loop
      vertex 52.48 111.025 8
      vertex 52.48 110.625 1.5
      vertex 52.48 110.625 8
    endloop
  endfacet
  facet normal 1 -0 0
    outer loop
      vertex 48.48 -4.17 8
      vertex 48.48 -1.08 1.5
      vertex 48.48 -1.08 8
    endloop
  endfacet
  facet normal 1 0 0
    outer loop
      vertex 48.48 -1.08 1.5
      vertex 48.48 -4.17 8
      vertex 48.48 -4.17 1.5
    endloop
  endfacet
  facet normal 0 0 1
    outer loop
      vertex 52.48 -1.08 1.5
      vertex 48.88 -1.48 1.5
      vertex 52.48 -1.48 1.5
    endloop
  endfacet
  facet normal 0 0 1
    outer loop
      vertex 48.88 -1.48 1.5
      vertex 48.48 -1.08 1.5
      vertex 48.88 -3.77 1.5
    endloop
  endfacet
  facet normal -0 0 1
    outer loop
      vertex 48.48 -1.08 1.5
      vertex 48.88 -1.48 1.5
      vertex 52.48 -1.08 1.5
    endloop
  endfacet
  facet normal 0 0 1
    outer loop
      vertex 52.48 -2.225 1.5
      vertex 50.025 -2.625 1.5
      vertex 52.48 -2.625 1.5
    endloop
  endfacet
  facet normal -0 0 1
    outer loop
      vertex 49.625 -2.225 1.5
      vertex 50.025 -2.625 1.5
      vertex 52.48 -2.225 1.5
    endloop
  endfacet
  facet normal 0 0 1
    outer loop
      vertex 49.625 -3.77 1.5
      vertex 50.025 -2.625 1.5
      vertex 49.625 -2.225 1.5
    endloop
  endfacet
  facet normal 0 0 1
    outer loop
      vertex 50.025 -2.625 1.5
      vertex 49.625 -3.77 1.5
      vertex 50.025 -4.17 1.5
    endloop
  endfacet
  facet normal -0 0 1
    outer loop
      vertex 48.88 -3.77 1.5
      vertex 50.025 -4.17 1.5
      vertex 49.625 -3.77 1.5
    endloop
  endfacet
  facet normal 0 0 1
    outer loop
      vertex 48.88 -3.77 1.5
      vertex 48.48 -4.17 1.5
      vertex 50.025 -4.17 1.5
    endloop
  endfacet
  facet normal 0 0 1
    outer loop
      vertex 48.48 -4.17 1.5
      vertex 48.88 -3.77 1.5
      vertex 48.48 -1.08 1.5
    endloop
  endfacet
  facet normal -1 0 0
    outer loop
      vertex 50.025 -4.17 1.5
      vertex 50.025 -2.625 8
      vertex 50.025 -2.625 1.5
    endloop
  endfacet
  facet normal -1 -0 0
    outer loop
      vertex 50.025 -2.625 8
      vertex 50.025 -4.17 1.5
      vertex 50.025 -4.17 8
    endloop
  endfacet
  facet normal 0 1 -0
    outer loop
      vertex 50.025 -4.17 1.5
      vertex 48.48 -4.17 8
      vertex 50.025 -4.17 8
    endloop
  endfacet
  facet normal 0 1 0
    outer loop
      vertex 48.48 -4.17 8
      vertex 50.025 -4.17 1.5
      vertex 48.48 -4.17 1.5
    endloop
  endfacet
  facet normal 0 -1 0
    outer loop
      vertex 48.48 -1.08 1.5
      vertex 52.48 -1.08 8
      vertex 48.48 -1.08 8
    endloop
  endfacet
  facet normal 0 -1 -0
    outer loop
      vertex 52.48 -1.08 8
      vertex 48.48 -1.08 1.5
      vertex 52.48 -1.08 1.5
    endloop
  endfacet
  facet normal 0 1 -0
    outer loop
      vertex 52.48 -2.625 1.5
      vertex 50.025 -2.625 8
      vertex 52.48 -2.625 8
    endloop
  endfacet
  facet normal 0 1 0
    outer loop
      vertex 50.025 -2.625 8
      vertex 52.48 -2.625 1.5
      vertex 50.025 -2.625 1.5
    endloop
  endfacet
  facet normal 1 -0 0
    outer loop
      vertex 48.48 109.08 8
      vertex 48.48 112.17 1.5
      vertex 48.48 112.17 8
    endloop
  endfacet
  facet normal 1 0 0
    outer loop
      vertex 48.48 112.17 1.5
      vertex 48.48 109.08 8
      vertex 48.48 109.08 1.5
    endloop
  endfacet
  facet normal 0 0 1
    outer loop
      vertex 52.48 112.17 1.5
      vertex 48.88 111.77 1.5
      vertex 52.48 111.77 1.5
    endloop
  endfacet
  facet normal 0 0 1
    outer loop
      vertex 48.88 111.77 1.5
      vertex 48.48 112.17 1.5
      vertex 48.88 109.48 1.5
    endloop
  endfacet
  facet normal -0 0 1
    outer loop
      vertex 48.48 112.17 1.5
      vertex 48.88 111.77 1.5
      vertex 52.48 112.17 1.5
    endloop
  endfacet
  facet normal 0 0 1
    outer loop
      vertex 52.48 111.025 1.5
      vertex 50.025 110.625 1.5
      vertex 52.48 110.625 1.5
    endloop
  endfacet
  facet normal -0 0 1
    outer loop
      vertex 49.625 111.025 1.5
      vertex 50.025 110.625 1.5
      vertex 52.48 111.025 1.5
    endloop
  endfacet
  facet normal 0 0 1
    outer loop
      vertex 49.625 109.48 1.5
      vertex 50.025 110.625 1.5
      vertex 49.625 111.025 1.5
    endloop
  endfacet
  facet normal 0 0 1
    outer loop
      vertex 50.025 110.625 1.5
      vertex 49.625 109.48 1.5
      vertex 50.025 109.08 1.5
    endloop
  endfacet
  facet normal -0 0 1
    outer loop
      vertex 48.88 109.48 1.5
      vertex 50.025 109.08 1.5
      vertex 49.625 109.48 1.5
    endloop
  endfacet
  facet normal 0 0 1
    outer loop
      vertex 48.88 109.48 1.5
      vertex 48.48 109.08 1.5
      vertex 50.025 109.08 1.5
    endloop
  endfacet
  facet normal 0 0 1
    outer loop
      vertex 48.48 109.08 1.5
      vertex 48.88 109.48 1.5
      vertex 48.48 112.17 1.5
    endloop
  endfacet
  facet normal -1 0 0
    outer loop
      vertex 50.025 109.08 1.5
      vertex 50.025 110.625 8
      vertex 50.025 110.625 1.5
    endloop
  endfacet
  facet normal -1 -0 0
    outer loop
      vertex 50.025 110.625 8
      vertex 50.025 109.08 1.5
      vertex 50.025 109.08 8
    endloop
  endfacet
  facet normal 0 1 -0
    outer loop
      vertex 50.025 109.08 1.5
      vertex 48.48 109.08 8
      vertex 50.025 109.08 8
    endloop
  endfacet
  facet normal 0 1 0
    outer loop
      vertex 48.48 109.08 8
      vertex 50.025 109.08 1.5
      vertex 48.48 109.08 1.5
    endloop
  endfacet
  facet normal 0 -1 0
    outer loop
      vertex 48.48 112.17 1.5
      vertex 52.48 112.17 8
      vertex 48.48 112.17 8
    endloop
  endfacet
  facet normal 0 -1 -0
    outer loop
      vertex 52.48 112.17 8
      vertex 48.48 112.17 1.5
      vertex 52.48 112.17 1.5
    endloop
  endfacet
  facet normal 0 1 -0
    outer loop
      vertex 52.48 110.625 1.5
      vertex 50.025 110.625 8
      vertex 52.48 110.625 8
    endloop
  endfacet
  facet normal 0 1 0
    outer loop
      vertex 50.025 110.625 8
      vertex 52.48 110.625 1.5
      vertex 50.025 110.625 1.5
    endloop
  endfacet
  facet normal -1 0 0
    outer loop
      vertex 48.88 -3.77 1.5
      vertex 48.88 -1.48 8
      vertex 48.88 -1.48 1.5
    endloop
  endfacet
  facet normal -1 -0 0
    outer loop
      vertex 48.88 -1.48 8
      vertex 48.88 -3.77 1.5
      vertex 48.88 -3.77 8
    endloop
  endfacet
  facet normal 1 -0 0
    outer loop
      vertex 49.625 -3.77 8
      vertex 49.625 -2.225 1.5
      vertex 49.625 -2.225 8
    endloop
  endfacet
  facet normal 1 0 0
    outer loop
      vertex 49.625 -2.225 1.5
      vertex 49.625 -3.77 8
      vertex 49.625 -3.77 1.5
    endloop
  endfacet
  facet normal 0 -1 0
    outer loop
      vertex 48.88 -3.77 1.5
      vertex 49.625 -3.77 8
      vertex 48.88 -3.77 8
    endloop
  endfacet
  facet normal 0 -1 -0
    outer loop
      vertex 49.625 -3.77 8
      vertex 48.88 -3.77 1.5
      vertex 49.625 -3.77 1.5
    endloop
  endfacet
  facet normal 0 1 -0
    outer loop
      vertex 52.48 -1.48 1.5
      vertex 48.88 -1.48 8
      vertex 52.48 -1.48 8
    endloop
  endfacet
  facet normal 0 1 0
    outer loop
      vertex 48.88 -1.48 8
      vertex 52.48 -1.48 1.5
      vertex 48.88 -1.48 1.5
    endloop
  endfacet
  facet normal 0 -1 0
    outer loop
      vertex 49.625 -2.225 1.5
      vertex 52.48 -2.225 8
      vertex 49.625 -2.225 8
    endloop
  endfacet
  facet normal 0 -1 -0
    outer loop
      vertex 52.48 -2.225 8
      vertex 49.625 -2.225 1.5
      vertex 52.48 -2.225 1.5
    endloop
  endfacet
  facet normal -1 0 0
    outer loop
      vertex 48.88 109.48 1.5
      vertex 48.88 111.77 8
      vertex 48.88 111.77 1.5
    endloop
  endfacet
  facet normal -1 -0 0
    outer loop
      vertex 48.88 111.77 8
      vertex 48.88 109.48 1.5
      vertex 48.88 109.48 8
    endloop
  endfacet
  facet normal 1 -0 0
    outer loop
      vertex 49.625 109.48 8
      vertex 49.625 111.025 1.5
      vertex 49.625 111.025 8
    endloop
  endfacet
  facet normal 1 0 0
    outer loop
      vertex 49.625 111.025 1.5
      vertex 49.625 109.48 8
      vertex 49.625 109.48 1.5
    endloop
  endfacet
  facet normal 0 -1 0
    outer loop
      vertex 48.88 109.48 1.5
      vertex 49.625 109.48 8
      vertex 48.88 109.48 8
    endloop
  endfacet
  facet normal 0 -1 -0
    outer loop
      vertex 49.625 109.48 8
      vertex 48.88 109.48 1.5
      vertex 49.625 109.48 1.5
    endloop
  endfacet
  facet normal 0 1 -0
    outer loop
      vertex 52.48 111.77 1.5
      vertex 48.88 111.77 8
      vertex 52.48 111.77 8
    endloop
  endfacet
  facet normal 0 1 0
    outer loop
      vertex 48.88 111.77 8
      vertex 52.48 111.77 1.5
      vertex 48.88 111.77 1.5
    endloop
  endfacet
  facet normal 0 -1 0
    outer loop
      vertex 49.625 111.025 1.5
      vertex 52.48 111.025 8
      vertex 49.625 111.025 8
    endloop
  endfacet
  facet normal 0 -1 -0
    outer loop
      vertex 52.48 111.025 8
      vertex 49.625 111.025 1.5
      vertex 52.48 111.025 1.5
    endloop
  endfacet
endsolid OpenSCAD_Model
