  0
SECTION
  2
HEADER
  9
$ACADVER
  1
AC1009
  9
$DWGCODEPAGE
  3
ANSI_1252
  9
$INSBASE
 10
0.0
 20
0.0
 30
0.0
  9
$EXTMIN
 10
1e+20
 20
1e+20
 30
1e+20
  9
$EXTMAX
 10
-1e+20
 20
-1e+20
 30
-1e+20
  9
$LIMMIN
 10
0.0
 20
0.0
  9
$LIMMAX
 10
420.0
 20
297.0
  9
$ORTHOMODE
 70
0
  9
$REGENMODE
 70
1
  9
$FILLMODE
 70
1
  9
$DRAGMODE
 70
2
  9
$QTEXTMODE
 70
0
  9
$MIRRTEXT
 70
1
  9
$OSMODE
 70
20583
  9
$LTSCALE
 40
1.0
  9
$ATTMODE
 70
1
  9
$TEXTSIZE
 40
2.5
  9
$TRACEWID
 40
1.0
  9
$TEXTSTYLE
  7
Standard
  9
$CLAYER
  8
0
  9
$CELTYPE
  6
ByLayer
  9
$CECOLOR
 62
256
  9
$DIMSCALE
 40
1.0
  9
$DIMASZ
 40
2.5
  9
$DIMEXO
 40
0.625
  9
$DIMDLI
 40
3.75
  9
$DIMRND
 40
0.0
  9
$DIMDLE
 40
0.0
  9
$DIMEXE
 40
1.25
  9
$DIMTP
 40
0.0
  9
$DIMTM
 40
0.0
  9
$DIMTXT
 40
2.5
  9
$DIMCEN
 40
2.5
  9
$DIMTSZ
 40
0.0
  9
$DIMTOL
 70
0
  9
$DIMLIM
 70
0
  9
$DIMTIH
 70
0
  9
$DIMTOH
 70
0
  9
$DIMSE1
 70
0
  9
$DIMSE2
 70
0
  9
$DIMTAD
 70
1
  9
$DIMZIN
 70
8
  9
$DIMBLK
  1

  9
$DIMASO
 70
1
  9
$DIMSHO
 70
1
  9
$DIMPOST
  1

  9
$DIMAPOST
  1

  9
$DIMALT
 70
0
  9
$DIMALTD
 70
3
  9
$DIMALTF
 40
0.03937007874
  9
$DIMLFAC
 40
1.0
  9
$DIMTOFL
 70
1
  9
$DIMTVP
 40
0.0
  9
$DIMTIX
 70
0
  9
$DIMSOXD
 70
0
  9
$DIMSAH
 70
0
  9
$DIMBLK1
  1

  9
$DIMBLK2
  1

  9
$DIMSTYLE
  2
ISO-25
  9
$DIMCLRD
 70
0
  9
$DIMCLRE
 70
0
  9
$DIMCLRT
 70
0
  9
$DIMTFAC
 40
1.0
  9
$DIMGAP
 40
0.625
  9
$COORDS
 70
1
  9
$ATTDIA
 70
0
  9
$ATTREQ
 70
1
  9
$HANDLING
 70
1
  9
$LUNITS
 70
2
  9
$LUPREC
 70
4
  9
$SKETCHINC
 40
1.0
  9
$FILLETRAD
 40
10.0
  9
$AUNITS
 70
0
  9
$AUPREC
 70
2
  9
$MENU
  1
.
  9
$ELEVATION
 40
0.0
  9
$PELEVATION
 40
0.0
  9
$THICKNESS
 40
0.0
  9
$LIMCHECK
 70
0
  9
$CHAMFERA
 40
0.0
  9
$CHAMFERB
 40
0.0
  9
$SKPOLY
 70
0
  9
$TDCREATE
 40
2460655.4336689813
  9
$TDUPDATE
 40
2460655.4336689813
  9
$TDINDWG
 40
0.0
  9
$TDUSRTIMER
 40
0.0
  9
$USRTIMER
 70
1
  9
$ANGBASE
 50
0.0
  9
$ANGDIR
 70
0
  9
$PDMODE
 70
0
  9
$PDSIZE
 40
0.0
  9
$PLINEWID
 40
0.0
  9
$SPLFRAME
 70
0
  9
$SPLINETYPE
 70
6
  9
$SPLINESEGS
 70
8
  9
$HANDSEED
  5
40D
  9
$SURFTAB1
 70
6
  9
$SURFTAB2
 70
6
  9
$SURFTYPE
 70
6
  9
$SURFU
 70
6
  9
$SURFV
 70
6
  9
$UCSNAME
  2

  9
$UCSORG
 10
0.0
 20
0.0
 30
0.0
  9
$UCSXDIR
 10
1.0
 20
0.0
 30
0.0
  9
$UCSYDIR
 10
0.0
 20
1.0
 30
0.0
  9
$PUCSNAME
  2

  9
$PUCSORG
 10
0.0
 20
0.0
 30
0.0
  9
$PUCSXDIR
 10
1.0
 20
0.0
 30
0.0
  9
$PUCSYDIR
 10
0.0
 20
1.0
 30
0.0
  9
$USERI1
 70
0
  9
$USERI2
 70
0
  9
$USERI3
 70
0
  9
$USERI4
 70
0
  9
$USERI5
 70
0
  9
$USERR1
 40
0.0
  9
$USERR2
 40
0.0
  9
$USERR3
 40
0.0
  9
$USERR4
 40
0.0
  9
$USERR5
 40
0.0
  9
$WORLDVIEW
 70
1
  9
$SHADEDGE
 70
3
  9
$SHADEDIF
 70
70
  9
$TILEMODE
 70
1
  9
$MAXACTVP
 70
64
  9
$PLIMCHECK
 70
0
  9
$PEXTMIN
 10
1e+20
 20
1e+20
 30
1e+20
  9
$PEXTMAX
 10
-1e+20
 20
-1e+20
 30
-1e+20
  9
$PLIMMIN
 10
0.0
 20
0.0
  9
$PLIMMAX
 10
420.0
 20
297.0
  9
$UNITMODE
 70
0
  9
$VISRETAIN
 70
1
  9
$PLINEGEN
 70
0
  9
$PSLTSCALE
 70
1
  0
ENDSEC
  0
SECTION
  2
TABLES
  0
TABLE
  2
VPORT
 70
1
  0
VPORT
  5
401
  2
*Active
 70
0
 10
0.0
 20
0.0
 11
1.0
 21
1.0
 12
0.0
 22
0.0
 13
0.0
 23
0.0
 14
0.5
 24
0.5
 15
0.5
 25
0.5
 16
0.0
 26
0.0
 36
1.0
 17
0.0
 27
0.0
 37
0.0
 40
1000.0
 41
1.34
 42
50.0
 43
0.0
 44
0.0
 50
0.0
 51
0.0
 71
0
 72
1000
 73
1
 74
3
 75
0
 76
0
 77
0
 78
0
  0
ENDTAB
  0
TABLE
  2
LTYPE
 70
3
  0
LTYPE
  5
402
  2
ByBlock
 70
0
  3

 72
65
 73
0
 40
0.0
  0
LTYPE
  5
403
  2
ByLayer
 70
0
  3

 72
65
 73
0
 40
0.0
  0
LTYPE
  5
404
  2
Continuous
 70
0
  3

 72
65
 73
0
 40
0.0
  0
ENDTAB
  0
TABLE
  2
LAYER
 70
2
  0
LAYER
  5
405
  2
0
 70
0
 62
7
  6
Continuous
  0
LAYER
  5
406
  2
Defpoints
 70
0
 62
7
  6
Continuous
  0
ENDTAB
  0
TABLE
  2
STYLE
 70
1
  0
STYLE
  5
407
  2
Standard
 70
0
 40
0.0
 41
1.0
 50
0.0
 71
0
 42
2.5
  3
txt
  4

  0
ENDTAB
  0
TABLE
  2
VIEW
 70
0
  0
ENDTAB
  0
TABLE
  2
UCS
 70
0
  0
ENDTAB
  0
TABLE
  2
APPID
 70
3
  0
APPID
  5
408
  2
ACAD
 70
0
  0
APPID
  5
40B
  2
HATCHBACKGROUNDCOLOR
 70
0
  0
APPID
  5
40C
  2
EZDXF
 70
0
  0
ENDTAB
  0
TABLE
  2
DIMSTYLE
 70
1
  0
DIMSTYLE
105
409
  2
Standard
 70
0
  3

  4

  5

  6

  7

 40
1.0
 41
2.5
 42
0.625
 43
3.75
 44
1.25
 45
0.0
 46
0.0
 47
0.0
 48
0.0
140
2.5
141
2.5
142
0.0
143
0.03937007874
144
1.0
145
0.0
146
1.0
147
0.625
 71
0
 72
0
 73
0
 74
0
 75
0
 76
0
 77
1
 78
8
170
0
171
3
172
1
173
0
174
0
175
0
176
0
177
0
178
0
  0
ENDTAB
  0
ENDSEC
  0
SECTION
  2
BLOCKS
  0
BLOCK
  5
3E2
  8
0
  2
$Model_Space
 70
0
 10
0.0
 20
0.0
 30
0.0
  3
$Model_Space
  1

1001
EZDXF
1000
WRITTEN_BY_EZDXF
1000
1.3.3 @ 2024-12-10T15:24:29.308416+00:00
  0
ENDBLK
  5
3E3
  8
0
  0
BLOCK
  5
3E4
  8
0
  2
$Paper_Space
 70
0
 10
0.0
 20
0.0
 30
0.0
  3
$Paper_Space
  1

  0
ENDBLK
  5
3E5
  8
0
  0
ENDSEC
  0
SECTION
  2
ENTITIES
  0
LINE
  5
100
  8
0
 10
8.85001
 20
3.27501
 30
0.0
 11
9.14999
 21
3.27501
 31
0.0
  0
LINE
  5
101
  8
0
 10
9.14999
 20
3.27501
 30
0.0
 11
9.14999
 21
2.0
 31
0.0
  0
LINE
  5
102
  8
0
 10
9.14999
 20
2.0
 30
0.0
 11
13.5
 21
2.0
 31
0.0
  0
LINE
  5
103
  8
0
 10
13.5
 20
2.0
 30
0.0
 11
13.745
 21
2.01204
 31
0.0
  0
LINE
  5
104
  8
0
 10
13.745
 20
2.01204
 30
0.0
 11
13.9877
 21
2.04805
 31
0.0
  0
LINE
  5
105
  8
0
 10
13.9877
 20
2.04805
 30
0.0
 11
14.2257
 21
2.10765
 31
0.0
  0
LINE
  5
106
  8
0
 10
14.2257
 20
2.10765
 30
0.0
 11
14.4567
 21
2.19031
 31
0.0
  0
LINE
  5
107
  8
0
 10
14.4567
 20
2.19031
 30
0.0
 11
14.6785
 21
2.29521
 31
0.0
  0
LINE
  5
108
  8
0
 10
14.6785
 20
2.29521
 30
0.0
 11
14.8889
 21
2.42134
 31
0.0
  0
LINE
  5
109
  8
0
 10
14.8889
 20
2.42134
 30
0.0
 11
15.086
 21
2.56747
 31
0.0
  0
LINE
  5
10A
  8
0
 10
15.086
 20
2.56747
 30
0.0
 11
15.2678
 21
2.73224
 31
0.0
  0
LINE
  5
10B
  8
0
 10
15.2678
 20
2.73224
 30
0.0
 11
15.4325
 21
2.91403
 31
0.0
  0
LINE
  5
10C
  8
0
 10
15.4325
 20
2.91403
 30
0.0
 11
15.5787
 21
3.11108
 31
0.0
  0
LINE
  5
10D
  8
0
 10
15.5787
 20
3.11108
 30
0.0
 11
15.7048
 21
3.32152
 31
0.0
  0
LINE
  5
10E
  8
0
 10
15.7048
 20
3.32152
 30
0.0
 11
15.8097
 21
3.5433
 31
0.0
  0
LINE
  5
10F
  8
0
 10
15.8097
 20
3.5433
 30
0.0
 11
15.8923
 21
3.77429
 31
0.0
  0
LINE
  5
110
  8
0
 10
15.8923
 20
3.77429
 30
0.0
 11
15.952
 21
4.01228
 31
0.0
  0
LINE
  5
111
  8
0
 10
15.952
 20
4.01228
 30
0.0
 11
15.988
 21
4.25496
 31
0.0
  0
LINE
  5
112
  8
0
 10
15.988
 20
4.25496
 30
0.0
 11
16.0
 21
4.5
 31
0.0
  0
LINE
  5
113
  8
0
 10
16.0
 20
4.5
 30
0.0
 11
15.988
 21
4.74504
 31
0.0
  0
LINE
  5
114
  8
0
 10
15.988
 20
4.74504
 30
0.0
 11
15.952
 21
4.98772
 31
0.0
  0
LINE
  5
115
  8
0
 10
15.952
 20
4.98772
 30
0.0
 11
15.8923
 21
5.22571
 31
0.0
  0
LINE
  5
116
  8
0
 10
15.8923
 20
5.22571
 30
0.0
 11
15.8097
 21
5.4567
 31
0.0
  0
LINE
  5
117
  8
0
 10
15.8097
 20
5.4567
 30
0.0
 11
15.7048
 21
5.67848
 31
0.0
  0
LINE
  5
118
  8
0
 10
15.7048
 20
5.67848
 30
0.0
 11
15.5787
 21
5.88892
 31
0.0
  0
LINE
  5
119
  8
0
 10
15.5787
 20
5.88892
 30
0.0
 11
15.4325
 21
6.08597
 31
0.0
  0
LINE
  5
11A
  8
0
 10
15.4325
 20
6.08597
 30
0.0
 11
15.2678
 21
6.26776
 31
0.0
  0
LINE
  5
11B
  8
0
 10
15.2678
 20
6.26776
 30
0.0
 11
15.086
 21
6.43253
 31
0.0
  0
LINE
  5
11C
  8
0
 10
15.086
 20
6.43253
 30
0.0
 11
14.8889
 21
6.57866
 31
0.0
  0
LINE
  5
11D
  8
0
 10
14.8889
 20
6.57866
 30
0.0
 11
14.6785
 21
6.70479
 31
0.0
  0
LINE
  5
11E
  8
0
 10
14.6785
 20
6.70479
 30
0.0
 11
14.4567
 21
6.80969
 31
0.0
  0
LINE
  5
11F
  8
0
 10
14.4567
 20
6.80969
 30
0.0
 11
14.2257
 21
6.89235
 31
0.0
  0
LINE
  5
120
  8
0
 10
14.2257
 20
6.89235
 30
0.0
 11
13.9877
 21
6.95195
 31
0.0
  0
LINE
  5
121
  8
0
 10
13.9877
 20
6.95195
 30
0.0
 11
13.745
 21
6.98796
 31
0.0
  0
LINE
  5
122
  8
0
 10
13.745
 20
6.98796
 30
0.0
 11
13.5
 21
7.0
 31
0.0
  0
LINE
  5
123
  8
0
 10
13.5
 20
7.0
 30
0.0
 11
9.14999
 21
7.0
 31
0.0
  0
LINE
  5
124
  8
0
 10
9.14999
 20
7.0
 30
0.0
 11
9.14999
 21
5.72499
 31
0.0
  0
LINE
  5
125
  8
0
 10
9.14999
 20
5.72499
 30
0.0
 11
8.85001
 21
5.72499
 31
0.0
  0
LINE
  5
126
  8
0
 10
8.85001
 20
5.72499
 30
0.0
 11
8.85001
 21
7.0
 31
0.0
  0
LINE
  5
127
  8
0
 10
8.85001
 20
7.0
 30
0.0
 11
4.5
 21
7.0
 31
0.0
  0
LINE
  5
128
  8
0
 10
4.5
 20
7.0
 30
0.0
 11
4.25496
 21
6.98796
 31
0.0
  0
LINE
  5
129
  8
0
 10
4.25496
 20
6.98796
 30
0.0
 11
4.01228
 21
6.95195
 31
0.0
  0
LINE
  5
12A
  8
0
 10
4.01228
 20
6.95195
 30
0.0
 11
3.77429
 21
6.89235
 31
0.0
  0
LINE
  5
12B
  8
0
 10
3.77429
 20
6.89235
 30
0.0
 11
3.5433
 21
6.80969
 31
0.0
  0
LINE
  5
12C
  8
0
 10
3.5433
 20
6.80969
 30
0.0
 11
3.32152
 21
6.70479
 31
0.0
  0
LINE
  5
12D
  8
0
 10
3.32152
 20
6.70479
 30
0.0
 11
3.11108
 21
6.57866
 31
0.0
  0
LINE
  5
12E
  8
0
 10
3.11108
 20
6.57866
 30
0.0
 11
2.91403
 21
6.43253
 31
0.0
  0
LINE
  5
12F
  8
0
 10
2.91403
 20
6.43253
 30
0.0
 11
2.73224
 21
6.26776
 31
0.0
  0
LINE
  5
130
  8
0
 10
2.73224
 20
6.26776
 30
0.0
 11
2.56747
 21
6.08597
 31
0.0
  0
LINE
  5
131
  8
0
 10
2.56747
 20
6.08597
 30
0.0
 11
2.42134
 21
5.88892
 31
0.0
  0
LINE
  5
132
  8
0
 10
2.42134
 20
5.88892
 30
0.0
 11
2.29521
 21
5.67848
 31
0.0
  0
LINE
  5
133
  8
0
 10
2.29521
 20
5.67848
 30
0.0
 11
2.19031
 21
5.4567
 31
0.0
  0
LINE
  5
134
  8
0
 10
2.19031
 20
5.4567
 30
0.0
 11
2.10765
 21
5.22571
 31
0.0
  0
LINE
  5
135
  8
0
 10
2.10765
 20
5.22571
 30
0.0
 11
2.04805
 21
4.98772
 31
0.0
  0
LINE
  5
136
  8
0
 10
2.04805
 20
4.98772
 30
0.0
 11
2.01204
 21
4.74504
 31
0.0
  0
LINE
  5
137
  8
0
 10
2.01204
 20
4.74504
 30
0.0
 11
2.0
 21
4.5
 31
0.0
  0
LINE
  5
138
  8
0
 10
2.0
 20
4.5
 30
0.0
 11
2.01204
 21
4.25496
 31
0.0
  0
LINE
  5
139
  8
0
 10
2.01204
 20
4.25496
 30
0.0
 11
2.04805
 21
4.01228
 31
0.0
  0
LINE
  5
13A
  8
0
 10
2.04805
 20
4.01228
 30
0.0
 11
2.10765
 21
3.77429
 31
0.0
  0
LINE
  5
13B
  8
0
 10
2.10765
 20
3.77429
 30
0.0
 11
2.19031
 21
3.5433
 31
0.0
  0
LINE
  5
13C
  8
0
 10
2.19031
 20
3.5433
 30
0.0
 11
2.29521
 21
3.32152
 31
0.0
  0
LINE
  5
13D
  8
0
 10
2.29521
 20
3.32152
 30
0.0
 11
2.42134
 21
3.11108
 31
0.0
  0
LINE
  5
13E
  8
0
 10
2.42134
 20
3.11108
 30
0.0
 11
2.56747
 21
2.91403
 31
0.0
  0
LINE
  5
13F
  8
0
 10
2.56747
 20
2.91403
 30
0.0
 11
2.73224
 21
2.73224
 31
0.0
  0
LINE
  5
140
  8
0
 10
2.73224
 20
2.73224
 30
0.0
 11
2.91403
 21
2.56747
 31
0.0
  0
LINE
  5
141
  8
0
 10
2.91403
 20
2.56747
 30
0.0
 11
3.11108
 21
2.42134
 31
0.0
  0
LINE
  5
142
  8
0
 10
3.11108
 20
2.42134
 30
0.0
 11
3.32152
 21
2.29521
 31
0.0
  0
LINE
  5
143
  8
0
 10
3.32152
 20
2.29521
 30
0.0
 11
3.5433
 21
2.19031
 31
0.0
  0
LINE
  5
144
  8
0
 10
3.5433
 20
2.19031
 30
0.0
 11
3.77429
 21
2.10765
 31
0.0
  0
LINE
  5
145
  8
0
 10
3.77429
 20
2.10765
 30
0.0
 11
4.01228
 21
2.04805
 31
0.0
  0
LINE
  5
146
  8
0
 10
4.01228
 20
2.04805
 30
0.0
 11
4.25496
 21
2.01204
 31
0.0
  0
LINE
  5
147
  8
0
 10
4.25496
 20
2.01204
 30
0.0
 11
4.5
 21
2.0
 31
0.0
  0
LINE
  5
148
  8
0
 10
4.5
 20
2.0
 30
0.0
 11
8.85001
 21
2.0
 31
0.0
  0
LINE
  5
149
  8
0
 10
8.85001
 20
2.0
 30
0.0
 11
8.85001
 21
3.27501
 31
0.0
  0
LINE
  5
14A
  8
0
 10
8.85001
 20
5.685
 30
0.0
 11
8.85001
 21
5.715
 31
0.0
  0
LINE
  5
14B
  8
0
 10
8.85001
 20
5.715
 30
0.0
 11
9.14999
 21
5.715
 31
0.0
  0
LINE
  5
14C
  8
0
 10
9.14999
 20
5.715
 30
0.0
 11
9.14999
 21
5.685
 31
0.0
  0
LINE
  5
14D
  8
0
 10
9.14999
 20
5.685
 30
0.0
 11
8.85001
 21
5.685
 31
0.0
  0
LINE
  5
14E
  8
0
 10
8.85001
 20
5.64499
 30
0.0
 11
8.85001
 21
5.67499
 31
0.0
  0
LINE
  5
14F
  8
0
 10
8.85001
 20
5.67499
 30
0.0
 11
9.14999
 21
5.67499
 31
0.0
  0
LINE
  5
150
  8
0
 10
9.14999
 20
5.67499
 30
0.0
 11
9.14999
 21
5.64499
 31
0.0
  0
LINE
  5
151
  8
0
 10
9.14999
 20
5.64499
 30
0.0
 11
8.85001
 21
5.64499
 31
0.0
  0
LINE
  5
152
  8
0
 10
8.85001
 20
5.605
 30
0.0
 11
8.85001
 21
5.63499
 31
0.0
  0
LINE
  5
153
  8
0
 10
8.85001
 20
5.63499
 30
0.0
 11
9.14999
 21
5.63499
 31
0.0
  0
LINE
  5
154
  8
0
 10
9.14999
 20
5.63499
 30
0.0
 11
9.14999
 21
5.605
 31
0.0
  0
LINE
  5
155
  8
0
 10
9.14999
 20
5.605
 30
0.0
 11
8.85001
 21
5.605
 31
0.0
  0
LINE
  5
156
  8
0
 10
8.85001
 20
5.56499
 30
0.0
 11
8.85001
 21
5.59499
 31
0.0
  0
LINE
  5
157
  8
0
 10
8.85001
 20
5.59499
 30
0.0
 11
9.14999
 21
5.59499
 31
0.0
  0
LINE
  5
158
  8
0
 10
9.14999
 20
5.59499
 30
0.0
 11
9.14999
 21
5.56499
 31
0.0
  0
LINE
  5
159
  8
0
 10
9.14999
 20
5.56499
 30
0.0
 11
8.85001
 21
5.56499
 31
0.0
  0
LINE
  5
15A
  8
0
 10
8.85001
 20
5.52499
 30
0.0
 11
8.85001
 21
5.55499
 31
0.0
  0
LINE
  5
15B
  8
0
 10
8.85001
 20
5.55499
 30
0.0
 11
9.14999
 21
5.55499
 31
0.0
  0
LINE
  5
15C
  8
0
 10
9.14999
 20
5.55499
 30
0.0
 11
9.14999
 21
5.52499
 31
0.0
  0
LINE
  5
15D
  8
0
 10
9.14999
 20
5.52499
 30
0.0
 11
8.85001
 21
5.52499
 31
0.0
  0
LINE
  5
15E
  8
0
 10
8.85001
 20
5.48499
 30
0.0
 11
8.85001
 21
5.515
 31
0.0
  0
LINE
  5
15F
  8
0
 10
8.85001
 20
5.515
 30
0.0
 11
9.14999
 21
5.515
 31
0.0
  0
LINE
  5
160
  8
0
 10
9.14999
 20
5.515
 30
0.0
 11
9.14999
 21
5.48499
 31
0.0
  0
LINE
  5
161
  8
0
 10
9.14999
 20
5.48499
 30
0.0
 11
8.85001
 21
5.48499
 31
0.0
  0
LINE
  5
162
  8
0
 10
12.0
 20
3.5
 30
0.0
 11
12.0
 21
3.51501
 31
0.0
  0
LINE
  5
163
  8
0
 10
12.0
 20
3.51501
 30
0.0
 11
12.15
 21
3.51501
 31
0.0
  0
LINE
  5
164
  8
0
 10
12.15
 20
3.51501
 30
0.0
 11
12.15
 21
3.52501
 31
0.0
  0
LINE
  5
165
  8
0
 10
12.15
 20
3.52501
 30
0.0
 11
12.0
 21
3.52501
 31
0.0
  0
LINE
  5
166
  8
0
 10
12.0
 20
3.52501
 30
0.0
 11
12.0
 21
3.55501
 31
0.0
  0
LINE
  5
167
  8
0
 10
12.0
 20
3.55501
 30
0.0
 11
12.15
 21
3.55501
 31
0.0
  0
LINE
  5
168
  8
0
 10
12.15
 20
3.55501
 30
0.0
 11
12.15
 21
3.565
 31
0.0
  0
LINE
  5
169
  8
0
 10
12.15
 20
3.565
 30
0.0
 11
12.0
 21
3.565
 31
0.0
  0
LINE
  5
16A
  8
0
 10
12.0
 20
3.565
 30
0.0
 11
12.0
 21
3.595
 31
0.0
  0
LINE
  5
16B
  8
0
 10
12.0
 20
3.595
 30
0.0
 11
12.15
 21
3.595
 31
0.0
  0
LINE
  5
16C
  8
0
 10
12.15
 20
3.595
 30
0.0
 11
12.15
 21
3.60501
 31
0.0
  0
LINE
  5
16D
  8
0
 10
12.15
 20
3.60501
 30
0.0
 11
12.0
 21
3.60501
 31
0.0
  0
LINE
  5
16E
  8
0
 10
12.0
 20
3.60501
 30
0.0
 11
12.0
 21
3.63501
 31
0.0
  0
LINE
  5
16F
  8
0
 10
12.0
 20
3.63501
 30
0.0
 11
12.15
 21
3.63501
 31
0.0
  0
LINE
  5
170
  8
0
 10
12.15
 20
3.63501
 30
0.0
 11
12.15
 21
3.645
 31
0.0
  0
LINE
  5
171
  8
0
 10
12.15
 20
3.645
 30
0.0
 11
12.0
 21
3.645
 31
0.0
  0
LINE
  5
172
  8
0
 10
12.0
 20
3.645
 30
0.0
 11
12.0
 21
3.675
 31
0.0
  0
LINE
  5
173
  8
0
 10
12.0
 20
3.675
 30
0.0
 11
12.15
 21
3.675
 31
0.0
  0
LINE
  5
174
  8
0
 10
12.15
 20
3.675
 30
0.0
 11
12.15
 21
3.68501
 31
0.0
  0
LINE
  5
175
  8
0
 10
12.15
 20
3.68501
 30
0.0
 11
12.0
 21
3.68501
 31
0.0
  0
LINE
  5
176
  8
0
 10
12.0
 20
3.68501
 30
0.0
 11
12.0
 21
3.71501
 31
0.0
  0
LINE
  5
177
  8
0
 10
12.0
 20
3.71501
 30
0.0
 11
12.15
 21
3.71501
 31
0.0
  0
LINE
  5
178
  8
0
 10
12.15
 20
3.71501
 30
0.0
 11
12.15
 21
3.72501
 31
0.0
  0
LINE
  5
179
  8
0
 10
12.15
 20
3.72501
 30
0.0
 11
12.0
 21
3.72501
 31
0.0
  0
LINE
  5
17A
  8
0
 10
12.0
 20
3.72501
 30
0.0
 11
12.0
 21
3.755
 31
0.0
  0
LINE
  5
17B
  8
0
 10
12.0
 20
3.755
 30
0.0
 11
12.15
 21
3.755
 31
0.0
  0
LINE
  5
17C
  8
0
 10
12.15
 20
3.755
 30
0.0
 11
12.15
 21
3.76501
 31
0.0
  0
LINE
  5
17D
  8
0
 10
12.15
 20
3.76501
 30
0.0
 11
12.0
 21
3.76501
 31
0.0
  0
LINE
  5
17E
  8
0
 10
12.0
 20
3.76501
 30
0.0
 11
12.0
 21
3.79501
 31
0.0
  0
LINE
  5
17F
  8
0
 10
12.0
 20
3.79501
 30
0.0
 11
12.15
 21
3.79501
 31
0.0
  0
LINE
  5
180
  8
0
 10
12.15
 20
3.79501
 30
0.0
 11
12.15
 21
3.80501
 31
0.0
  0
LINE
  5
181
  8
0
 10
12.15
 20
3.80501
 30
0.0
 11
12.0
 21
3.80501
 31
0.0
  0
LINE
  5
182
  8
0
 10
12.0
 20
3.80501
 30
0.0
 11
12.0
 21
3.83501
 31
0.0
  0
LINE
  5
183
  8
0
 10
12.0
 20
3.83501
 30
0.0
 11
12.15
 21
3.83501
 31
0.0
  0
LINE
  5
184
  8
0
 10
12.15
 20
3.83501
 30
0.0
 11
12.15
 21
3.845
 31
0.0
  0
LINE
  5
185
  8
0
 10
12.15
 20
3.845
 30
0.0
 11
12.0
 21
3.845
 31
0.0
  0
LINE
  5
186
  8
0
 10
12.0
 20
3.845
 30
0.0
 11
12.0
 21
3.875
 31
0.0
  0
LINE
  5
187
  8
0
 10
12.0
 20
3.875
 30
0.0
 11
12.15
 21
3.875
 31
0.0
  0
LINE
  5
188
  8
0
 10
12.15
 20
3.875
 30
0.0
 11
12.15
 21
3.88501
 31
0.0
  0
LINE
  5
189
  8
0
 10
12.15
 20
3.88501
 30
0.0
 11
12.0
 21
3.88501
 31
0.0
  0
LINE
  5
18A
  8
0
 10
12.0
 20
3.88501
 30
0.0
 11
12.0
 21
3.91501
 31
0.0
  0
LINE
  5
18B
  8
0
 10
12.0
 20
3.91501
 30
0.0
 11
12.15
 21
3.91501
 31
0.0
  0
LINE
  5
18C
  8
0
 10
12.15
 20
3.91501
 30
0.0
 11
12.15
 21
3.925
 31
0.0
  0
LINE
  5
18D
  8
0
 10
12.15
 20
3.925
 30
0.0
 11
12.0
 21
3.925
 31
0.0
  0
LINE
  5
18E
  8
0
 10
12.0
 20
3.925
 30
0.0
 11
12.0
 21
3.955
 31
0.0
  0
LINE
  5
18F
  8
0
 10
12.0
 20
3.955
 30
0.0
 11
12.15
 21
3.955
 31
0.0
  0
LINE
  5
190
  8
0
 10
12.15
 20
3.955
 30
0.0
 11
12.15
 21
3.96501
 31
0.0
  0
LINE
  5
191
  8
0
 10
12.15
 20
3.96501
 30
0.0
 11
12.0
 21
3.96501
 31
0.0
  0
LINE
  5
192
  8
0
 10
12.0
 20
3.96501
 30
0.0
 11
12.0
 21
3.99501
 31
0.0
  0
LINE
  5
193
  8
0
 10
12.0
 20
3.99501
 30
0.0
 11
12.15
 21
3.99501
 31
0.0
  0
LINE
  5
194
  8
0
 10
12.15
 20
3.99501
 30
0.0
 11
12.15
 21
4.005
 31
0.0
  0
LINE
  5
195
  8
0
 10
12.15
 20
4.005
 30
0.0
 11
12.0
 21
4.005
 31
0.0
  0
LINE
  5
196
  8
0
 10
12.0
 20
4.005
 30
0.0
 11
12.0
 21
4.035
 31
0.0
  0
LINE
  5
197
  8
0
 10
12.0
 20
4.035
 30
0.0
 11
12.15
 21
4.035
 31
0.0
  0
LINE
  5
198
  8
0
 10
12.15
 20
4.035
 30
0.0
 11
12.15
 21
4.04501
 31
0.0
  0
LINE
  5
199
  8
0
 10
12.15
 20
4.04501
 30
0.0
 11
12.0
 21
4.04501
 31
0.0
  0
LINE
  5
19A
  8
0
 10
12.0
 20
4.04501
 30
0.0
 11
12.0
 21
4.07501
 31
0.0
  0
LINE
  5
19B
  8
0
 10
12.0
 20
4.07501
 30
0.0
 11
12.15
 21
4.07501
 31
0.0
  0
LINE
  5
19C
  8
0
 10
12.15
 20
4.07501
 30
0.0
 11
12.15
 21
4.08501
 31
0.0
  0
LINE
  5
19D
  8
0
 10
12.15
 20
4.08501
 30
0.0
 11
12.0
 21
4.08501
 31
0.0
  0
LINE
  5
19E
  8
0
 10
12.0
 20
4.08501
 30
0.0
 11
12.0
 21
4.11501
 31
0.0
  0
LINE
  5
19F
  8
0
 10
12.0
 20
4.11501
 30
0.0
 11
12.15
 21
4.11501
 31
0.0
  0
LINE
  5
1A0
  8
0
 10
12.15
 20
4.11501
 30
0.0
 11
12.15
 21
4.125
 31
0.0
  0
LINE
  5
1A1
  8
0
 10
12.15
 20
4.125
 30
0.0
 11
12.0
 21
4.125
 31
0.0
  0
LINE
  5
1A2
  8
0
 10
12.0
 20
4.125
 30
0.0
 11
12.0
 21
4.15501
 31
0.0
  0
LINE
  5
1A3
  8
0
 10
12.0
 20
4.15501
 30
0.0
 11
12.15
 21
4.15501
 31
0.0
  0
LINE
  5
1A4
  8
0
 10
12.15
 20
4.15501
 30
0.0
 11
12.15
 21
4.16501
 31
0.0
  0
LINE
  5
1A5
  8
0
 10
12.15
 20
4.16501
 30
0.0
 11
12.0
 21
4.16501
 31
0.0
  0
LINE
  5
1A6
  8
0
 10
12.0
 20
4.16501
 30
0.0
 11
12.0
 21
4.19501
 31
0.0
  0
LINE
  5
1A7
  8
0
 10
12.0
 20
4.19501
 30
0.0
 11
12.15
 21
4.19501
 31
0.0
  0
LINE
  5
1A8
  8
0
 10
12.15
 20
4.19501
 30
0.0
 11
12.15
 21
4.205
 31
0.0
  0
LINE
  5
1A9
  8
0
 10
12.15
 20
4.205
 30
0.0
 11
12.0
 21
4.205
 31
0.0
  0
LINE
  5
1AA
  8
0
 10
12.0
 20
4.205
 30
0.0
 11
12.0
 21
4.235
 31
0.0
  0
LINE
  5
1AB
  8
0
 10
12.0
 20
4.235
 30
0.0
 11
12.15
 21
4.235
 31
0.0
  0
LINE
  5
1AC
  8
0
 10
12.15
 20
4.235
 30
0.0
 11
12.15
 21
4.24501
 31
0.0
  0
LINE
  5
1AD
  8
0
 10
12.15
 20
4.24501
 30
0.0
 11
12.0
 21
4.24501
 31
0.0
  0
LINE
  5
1AE
  8
0
 10
12.0
 20
4.24501
 30
0.0
 11
12.0
 21
4.27501
 31
0.0
  0
LINE
  5
1AF
  8
0
 10
12.0
 20
4.27501
 30
0.0
 11
12.15
 21
4.27501
 31
0.0
  0
LINE
  5
1B0
  8
0
 10
12.15
 20
4.27501
 30
0.0
 11
12.15
 21
4.285
 31
0.0
  0
LINE
  5
1B1
  8
0
 10
12.15
 20
4.285
 30
0.0
 11
12.0
 21
4.285
 31
0.0
  0
LINE
  5
1B2
  8
0
 10
12.0
 20
4.285
 30
0.0
 11
12.0
 21
4.315
 31
0.0
  0
LINE
  5
1B3
  8
0
 10
12.0
 20
4.315
 30
0.0
 11
12.15
 21
4.315
 31
0.0
  0
LINE
  5
1B4
  8
0
 10
12.15
 20
4.315
 30
0.0
 11
12.15
 21
4.32501
 31
0.0
  0
LINE
  5
1B5
  8
0
 10
12.15
 20
4.32501
 30
0.0
 11
12.0
 21
4.32501
 31
0.0
  0
LINE
  5
1B6
  8
0
 10
12.0
 20
4.32501
 30
0.0
 11
12.0
 21
4.35501
 31
0.0
  0
LINE
  5
1B7
  8
0
 10
12.0
 20
4.35501
 30
0.0
 11
12.15
 21
4.35501
 31
0.0
  0
LINE
  5
1B8
  8
0
 10
12.15
 20
4.35501
 30
0.0
 11
12.15
 21
4.36501
 31
0.0
  0
LINE
  5
1B9
  8
0
 10
12.15
 20
4.36501
 30
0.0
 11
12.0
 21
4.36501
 31
0.0
  0
LINE
  5
1BA
  8
0
 10
12.0
 20
4.36501
 30
0.0
 11
12.0
 21
4.395
 31
0.0
  0
LINE
  5
1BB
  8
0
 10
12.0
 20
4.395
 30
0.0
 11
12.15
 21
4.395
 31
0.0
  0
LINE
  5
1BC
  8
0
 10
12.15
 20
4.395
 30
0.0
 11
12.15
 21
4.40501
 31
0.0
  0
LINE
  5
1BD
  8
0
 10
12.15
 20
4.40501
 30
0.0
 11
12.0
 21
4.40501
 31
0.0
  0
LINE
  5
1BE
  8
0
 10
12.0
 20
4.40501
 30
0.0
 11
12.0
 21
4.43501
 31
0.0
  0
LINE
  5
1BF
  8
0
 10
12.0
 20
4.43501
 30
0.0
 11
12.15
 21
4.43501
 31
0.0
  0
LINE
  5
1C0
  8
0
 10
12.15
 20
4.43501
 30
0.0
 11
12.15
 21
4.44501
 31
0.0
  0
LINE
  5
1C1
  8
0
 10
12.15
 20
4.44501
 30
0.0
 11
12.0
 21
4.44501
 31
0.0
  0
LINE
  5
1C2
  8
0
 10
12.0
 20
4.44501
 30
0.0
 11
12.0
 21
4.47501
 31
0.0
  0
LINE
  5
1C3
  8
0
 10
12.0
 20
4.47501
 30
0.0
 11
12.15
 21
4.47501
 31
0.0
  0
LINE
  5
1C4
  8
0
 10
12.15
 20
4.47501
 30
0.0
 11
12.15
 21
4.485
 31
0.0
  0
LINE
  5
1C5
  8
0
 10
12.15
 20
4.485
 30
0.0
 11
12.0
 21
4.485
 31
0.0
  0
LINE
  5
1C6
  8
0
 10
12.0
 20
4.485
 30
0.0
 11
12.0
 21
4.515
 31
0.0
  0
LINE
  5
1C7
  8
0
 10
12.0
 20
4.515
 30
0.0
 11
12.15
 21
4.515
 31
0.0
  0
LINE
  5
1C8
  8
0
 10
12.15
 20
4.515
 30
0.0
 11
12.15
 21
4.52499
 31
0.0
  0
LINE
  5
1C9
  8
0
 10
12.15
 20
4.52499
 30
0.0
 11
12.0
 21
4.52499
 31
0.0
  0
LINE
  5
1CA
  8
0
 10
12.0
 20
4.52499
 30
0.0
 11
12.0
 21
4.55499
 31
0.0
  0
LINE
  5
1CB
  8
0
 10
12.0
 20
4.55499
 30
0.0
 11
12.15
 21
4.55499
 31
0.0
  0
LINE
  5
1CC
  8
0
 10
12.15
 20
4.55499
 30
0.0
 11
12.15
 21
4.56499
 31
0.0
  0
LINE
  5
1CD
  8
0
 10
12.15
 20
4.56499
 30
0.0
 11
12.0
 21
4.56499
 31
0.0
  0
LINE
  5
1CE
  8
0
 10
12.0
 20
4.56499
 30
0.0
 11
12.0
 21
4.59499
 31
0.0
  0
LINE
  5
1CF
  8
0
 10
12.0
 20
4.59499
 30
0.0
 11
12.15
 21
4.59499
 31
0.0
  0
LINE
  5
1D0
  8
0
 10
12.15
 20
4.59499
 30
0.0
 11
12.15
 21
4.605
 31
0.0
  0
LINE
  5
1D1
  8
0
 10
12.15
 20
4.605
 30
0.0
 11
12.0
 21
4.605
 31
0.0
  0
LINE
  5
1D2
  8
0
 10
12.0
 20
4.605
 30
0.0
 11
12.0
 21
4.63499
 31
0.0
  0
LINE
  5
1D3
  8
0
 10
12.0
 20
4.63499
 30
0.0
 11
12.15
 21
4.63499
 31
0.0
  0
LINE
  5
1D4
  8
0
 10
12.15
 20
4.63499
 30
0.0
 11
12.15
 21
4.64499
 31
0.0
  0
LINE
  5
1D5
  8
0
 10
12.15
 20
4.64499
 30
0.0
 11
12.0
 21
4.64499
 31
0.0
  0
LINE
  5
1D6
  8
0
 10
12.0
 20
4.64499
 30
0.0
 11
12.0
 21
4.67499
 31
0.0
  0
LINE
  5
1D7
  8
0
 10
12.0
 20
4.67499
 30
0.0
 11
12.15
 21
4.67499
 31
0.0
  0
LINE
  5
1D8
  8
0
 10
12.15
 20
4.67499
 30
0.0
 11
12.15
 21
4.685
 31
0.0
  0
LINE
  5
1D9
  8
0
 10
12.15
 20
4.685
 30
0.0
 11
12.0
 21
4.685
 31
0.0
  0
LINE
  5
1DA
  8
0
 10
12.0
 20
4.685
 30
0.0
 11
12.0
 21
4.715
 31
0.0
  0
LINE
  5
1DB
  8
0
 10
12.0
 20
4.715
 30
0.0
 11
12.15
 21
4.715
 31
0.0
  0
LINE
  5
1DC
  8
0
 10
12.15
 20
4.715
 30
0.0
 11
12.15
 21
4.72499
 31
0.0
  0
LINE
  5
1DD
  8
0
 10
12.15
 20
4.72499
 30
0.0
 11
12.0
 21
4.72499
 31
0.0
  0
LINE
  5
1DE
  8
0
 10
12.0
 20
4.72499
 30
0.0
 11
12.0
 21
4.75499
 31
0.0
  0
LINE
  5
1DF
  8
0
 10
12.0
 20
4.75499
 30
0.0
 11
12.15
 21
4.75499
 31
0.0
  0
LINE
  5
1E0
  8
0
 10
12.15
 20
4.75499
 30
0.0
 11
12.15
 21
4.765
 31
0.0
  0
LINE
  5
1E1
  8
0
 10
12.15
 20
4.765
 30
0.0
 11
12.0
 21
4.765
 31
0.0
  0
LINE
  5
1E2
  8
0
 10
12.0
 20
4.765
 30
0.0
 11
12.0
 21
4.795
 31
0.0
  0
LINE
  5
1E3
  8
0
 10
12.0
 20
4.795
 30
0.0
 11
12.15
 21
4.795
 31
0.0
  0
LINE
  5
1E4
  8
0
 10
12.15
 20
4.795
 30
0.0
 11
12.15
 21
4.80499
 31
0.0
  0
LINE
  5
1E5
  8
0
 10
12.15
 20
4.80499
 30
0.0
 11
12.0
 21
4.80499
 31
0.0
  0
LINE
  5
1E6
  8
0
 10
12.0
 20
4.80499
 30
0.0
 11
12.0
 21
4.83499
 31
0.0
  0
LINE
  5
1E7
  8
0
 10
12.0
 20
4.83499
 30
0.0
 11
12.15
 21
4.83499
 31
0.0
  0
LINE
  5
1E8
  8
0
 10
12.15
 20
4.83499
 30
0.0
 11
12.15
 21
4.84499
 31
0.0
  0
LINE
  5
1E9
  8
0
 10
12.15
 20
4.84499
 30
0.0
 11
12.0
 21
4.84499
 31
0.0
  0
LINE
  5
1EA
  8
0
 10
12.0
 20
4.84499
 30
0.0
 11
12.0
 21
4.875
 31
0.0
  0
LINE
  5
1EB
  8
0
 10
12.0
 20
4.875
 30
0.0
 11
12.15
 21
4.875
 31
0.0
  0
LINE
  5
1EC
  8
0
 10
12.15
 20
4.875
 30
0.0
 11
12.15
 21
4.88499
 31
0.0
  0
LINE
  5
1ED
  8
0
 10
12.15
 20
4.88499
 30
0.0
 11
12.0
 21
4.88499
 31
0.0
  0
LINE
  5
1EE
  8
0
 10
12.0
 20
4.88499
 30
0.0
 11
12.0
 21
4.91499
 31
0.0
  0
LINE
  5
1EF
  8
0
 10
12.0
 20
4.91499
 30
0.0
 11
12.15
 21
4.91499
 31
0.0
  0
LINE
  5
1F0
  8
0
 10
12.15
 20
4.91499
 30
0.0
 11
12.15
 21
4.92499
 31
0.0
  0
LINE
  5
1F1
  8
0
 10
12.15
 20
4.92499
 30
0.0
 11
12.0
 21
4.92499
 31
0.0
  0
LINE
  5
1F2
  8
0
 10
12.0
 20
4.92499
 30
0.0
 11
12.0
 21
4.95499
 31
0.0
  0
LINE
  5
1F3
  8
0
 10
12.0
 20
4.95499
 30
0.0
 11
12.15
 21
4.95499
 31
0.0
  0
LINE
  5
1F4
  8
0
 10
12.15
 20
4.95499
 30
0.0
 11
12.15
 21
4.965
 31
0.0
  0
LINE
  5
1F5
  8
0
 10
12.15
 20
4.965
 30
0.0
 11
12.0
 21
4.965
 31
0.0
  0
LINE
  5
1F6
  8
0
 10
12.0
 20
4.965
 30
0.0
 11
12.0
 21
4.995
 31
0.0
  0
LINE
  5
1F7
  8
0
 10
12.0
 20
4.995
 30
0.0
 11
12.15
 21
4.995
 31
0.0
  0
LINE
  5
1F8
  8
0
 10
12.15
 20
4.995
 30
0.0
 11
12.15
 21
5.00499
 31
0.0
  0
LINE
  5
1F9
  8
0
 10
12.15
 20
5.00499
 30
0.0
 11
12.0
 21
5.00499
 31
0.0
  0
LINE
  5
1FA
  8
0
 10
12.0
 20
5.00499
 30
0.0
 11
12.0
 21
5.03499
 31
0.0
  0
LINE
  5
1FB
  8
0
 10
12.0
 20
5.03499
 30
0.0
 11
12.15
 21
5.03499
 31
0.0
  0
LINE
  5
1FC
  8
0
 10
12.15
 20
5.03499
 30
0.0
 11
12.15
 21
5.045
 31
0.0
  0
LINE
  5
1FD
  8
0
 10
12.15
 20
5.045
 30
0.0
 11
12.0
 21
5.045
 31
0.0
  0
LINE
  5
1FE
  8
0
 10
12.0
 20
5.045
 30
0.0
 11
12.0
 21
5.075
 31
0.0
  0
LINE
  5
1FF
  8
0
 10
12.0
 20
5.075
 30
0.0
 11
12.15
 21
5.075
 31
0.0
  0
LINE
  5
200
  8
0
 10
12.15
 20
5.075
 30
0.0
 11
12.15
 21
5.08499
 31
0.0
  0
LINE
  5
201
  8
0
 10
12.15
 20
5.08499
 30
0.0
 11
12.0
 21
5.08499
 31
0.0
  0
LINE
  5
202
  8
0
 10
12.0
 20
5.08499
 30
0.0
 11
12.0
 21
5.11499
 31
0.0
  0
LINE
  5
203
  8
0
 10
12.0
 20
5.11499
 30
0.0
 11
12.15
 21
5.11499
 31
0.0
  0
LINE
  5
204
  8
0
 10
12.15
 20
5.11499
 30
0.0
 11
12.15
 21
5.125
 31
0.0
  0
LINE
  5
205
  8
0
 10
12.15
 20
5.125
 30
0.0
 11
12.0
 21
5.125
 31
0.0
  0
LINE
  5
206
  8
0
 10
12.0
 20
5.125
 30
0.0
 11
12.0
 21
5.155
 31
0.0
  0
LINE
  5
207
  8
0
 10
12.0
 20
5.155
 30
0.0
 11
12.15
 21
5.155
 31
0.0
  0
LINE
  5
208
  8
0
 10
12.15
 20
5.155
 30
0.0
 11
12.15
 21
5.16499
 31
0.0
  0
LINE
  5
209
  8
0
 10
12.15
 20
5.16499
 30
0.0
 11
12.0
 21
5.16499
 31
0.0
  0
LINE
  5
20A
  8
0
 10
12.0
 20
5.16499
 30
0.0
 11
12.0
 21
5.19499
 31
0.0
  0
LINE
  5
20B
  8
0
 10
12.0
 20
5.19499
 30
0.0
 11
12.15
 21
5.19499
 31
0.0
  0
LINE
  5
20C
  8
0
 10
12.15
 20
5.19499
 30
0.0
 11
12.15
 21
5.20499
 31
0.0
  0
LINE
  5
20D
  8
0
 10
12.15
 20
5.20499
 30
0.0
 11
12.0
 21
5.20499
 31
0.0
  0
LINE
  5
20E
  8
0
 10
12.0
 20
5.20499
 30
0.0
 11
12.0
 21
5.23499
 31
0.0
  0
LINE
  5
20F
  8
0
 10
12.0
 20
5.23499
 30
0.0
 11
12.15
 21
5.23499
 31
0.0
  0
LINE
  5
210
  8
0
 10
12.15
 20
5.23499
 30
0.0
 11
12.15
 21
5.245
 31
0.0
  0
LINE
  5
211
  8
0
 10
12.15
 20
5.245
 30
0.0
 11
12.0
 21
5.245
 31
0.0
  0
LINE
  5
212
  8
0
 10
12.0
 20
5.245
 30
0.0
 11
12.0
 21
5.27499
 31
0.0
  0
LINE
  5
213
  8
0
 10
12.0
 20
5.27499
 30
0.0
 11
12.15
 21
5.27499
 31
0.0
  0
LINE
  5
214
  8
0
 10
12.15
 20
5.27499
 30
0.0
 11
12.15
 21
5.28499
 31
0.0
  0
LINE
  5
215
  8
0
 10
12.15
 20
5.28499
 30
0.0
 11
12.0
 21
5.28499
 31
0.0
  0
LINE
  5
216
  8
0
 10
12.0
 20
5.28499
 30
0.0
 11
12.0
 21
5.31499
 31
0.0
  0
LINE
  5
217
  8
0
 10
12.0
 20
5.31499
 30
0.0
 11
12.15
 21
5.31499
 31
0.0
  0
LINE
  5
218
  8
0
 10
12.15
 20
5.31499
 30
0.0
 11
12.15
 21
5.325
 31
0.0
  0
LINE
  5
219
  8
0
 10
12.15
 20
5.325
 30
0.0
 11
12.0
 21
5.325
 31
0.0
  0
LINE
  5
21A
  8
0
 10
12.0
 20
5.325
 30
0.0
 11
12.0
 21
5.355
 31
0.0
  0
LINE
  5
21B
  8
0
 10
12.0
 20
5.355
 30
0.0
 11
12.15
 21
5.355
 31
0.0
  0
LINE
  5
21C
  8
0
 10
12.15
 20
5.355
 30
0.0
 11
12.15
 21
5.36499
 31
0.0
  0
LINE
  5
21D
  8
0
 10
12.15
 20
5.36499
 30
0.0
 11
12.0
 21
5.36499
 31
0.0
  0
LINE
  5
21E
  8
0
 10
12.0
 20
5.36499
 30
0.0
 11
12.0
 21
5.39499
 31
0.0
  0
LINE
  5
21F
  8
0
 10
12.0
 20
5.39499
 30
0.0
 11
12.15
 21
5.39499
 31
0.0
  0
LINE
  5
220
  8
0
 10
12.15
 20
5.39499
 30
0.0
 11
12.15
 21
5.405
 31
0.0
  0
LINE
  5
221
  8
0
 10
12.15
 20
5.405
 30
0.0
 11
12.0
 21
5.405
 31
0.0
  0
LINE
  5
222
  8
0
 10
12.0
 20
5.405
 30
0.0
 11
12.0
 21
5.435
 31
0.0
  0
LINE
  5
223
  8
0
 10
12.0
 20
5.435
 30
0.0
 11
12.15
 21
5.435
 31
0.0
  0
LINE
  5
224
  8
0
 10
12.15
 20
5.435
 30
0.0
 11
12.15
 21
5.44499
 31
0.0
  0
LINE
  5
225
  8
0
 10
12.15
 20
5.44499
 30
0.0
 11
12.0
 21
5.44499
 31
0.0
  0
LINE
  5
226
  8
0
 10
12.0
 20
5.44499
 30
0.0
 11
12.0
 21
5.47499
 31
0.0
  0
LINE
  5
227
  8
0
 10
12.0
 20
5.47499
 30
0.0
 11
12.15
 21
5.47499
 31
0.0
  0
LINE
  5
228
  8
0
 10
12.15
 20
5.47499
 30
0.0
 11
12.15
 21
5.48499
 31
0.0
  0
LINE
  5
229
  8
0
 10
12.15
 20
5.48499
 30
0.0
 11
12.0
 21
5.48499
 31
0.0
  0
LINE
  5
22A
  8
0
 10
12.0
 20
5.48499
 30
0.0
 11
12.0
 21
5.5
 31
0.0
  0
LINE
  5
22B
  8
0
 10
12.0
 20
5.5
 30
0.0
 11
14.0
 21
5.5
 31
0.0
  0
LINE
  5
22C
  8
0
 10
14.0
 20
5.5
 30
0.0
 11
14.0
 21
3.5
 31
0.0
  0
LINE
  5
22D
  8
0
 10
14.0
 20
3.5
 30
0.0
 11
12.0
 21
3.5
 31
0.0
  0
LINE
  5
22E
  8
0
 10
4.0
 20
3.5
 30
0.0
 11
4.0
 21
5.5
 31
0.0
  0
LINE
  5
22F
  8
0
 10
4.0
 20
5.5
 30
0.0
 11
6.0
 21
5.5
 31
0.0
  0
LINE
  5
230
  8
0
 10
6.0
 20
5.5
 30
0.0
 11
6.0
 21
5.48499
 31
0.0
  0
LINE
  5
231
  8
0
 10
6.0
 20
5.48499
 30
0.0
 11
5.85001
 21
5.48499
 31
0.0
  0
LINE
  5
232
  8
0
 10
5.85001
 20
5.48499
 30
0.0
 11
5.85001
 21
5.47499
 31
0.0
  0
LINE
  5
233
  8
0
 10
5.85001
 20
5.47499
 30
0.0
 11
6.0
 21
5.47499
 31
0.0
  0
LINE
  5
234
  8
0
 10
6.0
 20
5.47499
 30
0.0
 11
6.0
 21
5.44499
 31
0.0
  0
LINE
  5
235
  8
0
 10
6.0
 20
5.44499
 30
0.0
 11
5.85001
 21
5.44499
 31
0.0
  0
LINE
  5
236
  8
0
 10
5.85001
 20
5.44499
 30
0.0
 11
5.85001
 21
5.435
 31
0.0
  0
LINE
  5
237
  8
0
 10
5.85001
 20
5.435
 30
0.0
 11
6.0
 21
5.435
 31
0.0
  0
LINE
  5
238
  8
0
 10
6.0
 20
5.435
 30
0.0
 11
6.0
 21
5.405
 31
0.0
  0
LINE
  5
239
  8
0
 10
6.0
 20
5.405
 30
0.0
 11
5.85001
 21
5.405
 31
0.0
  0
LINE
  5
23A
  8
0
 10
5.85001
 20
5.405
 30
0.0
 11
5.85001
 21
5.39499
 31
0.0
  0
LINE
  5
23B
  8
0
 10
5.85001
 20
5.39499
 30
0.0
 11
6.0
 21
5.39499
 31
0.0
  0
LINE
  5
23C
  8
0
 10
6.0
 20
5.39499
 30
0.0
 11
6.0
 21
5.36499
 31
0.0
  0
LINE
  5
23D
  8
0
 10
6.0
 20
5.36499
 30
0.0
 11
5.85001
 21
5.36499
 31
0.0
  0
LINE
  5
23E
  8
0
 10
5.85001
 20
5.36499
 30
0.0
 11
5.85001
 21
5.355
 31
0.0
  0
LINE
  5
23F
  8
0
 10
5.85001
 20
5.355
 30
0.0
 11
6.0
 21
5.355
 31
0.0
  0
LINE
  5
240
  8
0
 10
6.0
 20
5.355
 30
0.0
 11
6.0
 21
5.325
 31
0.0
  0
LINE
  5
241
  8
0
 10
6.0
 20
5.325
 30
0.0
 11
5.85001
 21
5.325
 31
0.0
  0
LINE
  5
242
  8
0
 10
5.85001
 20
5.325
 30
0.0
 11
5.85001
 21
5.31499
 31
0.0
  0
LINE
  5
243
  8
0
 10
5.85001
 20
5.31499
 30
0.0
 11
6.0
 21
5.31499
 31
0.0
  0
LINE
  5
244
  8
0
 10
6.0
 20
5.31499
 30
0.0
 11
6.0
 21
5.28499
 31
0.0
  0
LINE
  5
245
  8
0
 10
6.0
 20
5.28499
 30
0.0
 11
5.85001
 21
5.28499
 31
0.0
  0
LINE
  5
246
  8
0
 10
5.85001
 20
5.28499
 30
0.0
 11
5.85001
 21
5.27499
 31
0.0
  0
LINE
  5
247
  8
0
 10
5.85001
 20
5.27499
 30
0.0
 11
6.0
 21
5.27499
 31
0.0
  0
LINE
  5
248
  8
0
 10
6.0
 20
5.27499
 30
0.0
 11
6.0
 21
5.245
 31
0.0
  0
LINE
  5
249
  8
0
 10
6.0
 20
5.245
 30
0.0
 11
5.85001
 21
5.245
 31
0.0
  0
LINE
  5
24A
  8
0
 10
5.85001
 20
5.245
 30
0.0
 11
5.85001
 21
5.23499
 31
0.0
  0
LINE
  5
24B
  8
0
 10
5.85001
 20
5.23499
 30
0.0
 11
6.0
 21
5.23499
 31
0.0
  0
LINE
  5
24C
  8
0
 10
6.0
 20
5.23499
 30
0.0
 11
6.0
 21
5.20499
 31
0.0
  0
LINE
  5
24D
  8
0
 10
6.0
 20
5.20499
 30
0.0
 11
5.85001
 21
5.20499
 31
0.0
  0
LINE
  5
24E
  8
0
 10
5.85001
 20
5.20499
 30
0.0
 11
5.85001
 21
5.19499
 31
0.0
  0
LINE
  5
24F
  8
0
 10
5.85001
 20
5.19499
 30
0.0
 11
6.0
 21
5.19499
 31
0.0
  0
LINE
  5
250
  8
0
 10
6.0
 20
5.19499
 30
0.0
 11
6.0
 21
5.16499
 31
0.0
  0
LINE
  5
251
  8
0
 10
6.0
 20
5.16499
 30
0.0
 11
5.85001
 21
5.16499
 31
0.0
  0
LINE
  5
252
  8
0
 10
5.85001
 20
5.16499
 30
0.0
 11
5.85001
 21
5.155
 31
0.0
  0
LINE
  5
253
  8
0
 10
5.85001
 20
5.155
 30
0.0
 11
6.0
 21
5.155
 31
0.0
  0
LINE
  5
254
  8
0
 10
6.0
 20
5.155
 30
0.0
 11
6.0
 21
5.125
 31
0.0
  0
LINE
  5
255
  8
0
 10
6.0
 20
5.125
 30
0.0
 11
5.85001
 21
5.125
 31
0.0
  0
LINE
  5
256
  8
0
 10
5.85001
 20
5.125
 30
0.0
 11
5.85001
 21
5.11499
 31
0.0
  0
LINE
  5
257
  8
0
 10
5.85001
 20
5.11499
 30
0.0
 11
6.0
 21
5.11499
 31
0.0
  0
LINE
  5
258
  8
0
 10
6.0
 20
5.11499
 30
0.0
 11
6.0
 21
5.08499
 31
0.0
  0
LINE
  5
259
  8
0
 10
6.0
 20
5.08499
 30
0.0
 11
5.85001
 21
5.08499
 31
0.0
  0
LINE
  5
25A
  8
0
 10
5.85001
 20
5.08499
 30
0.0
 11
5.85001
 21
5.075
 31
0.0
  0
LINE
  5
25B
  8
0
 10
5.85001
 20
5.075
 30
0.0
 11
6.0
 21
5.075
 31
0.0
  0
LINE
  5
25C
  8
0
 10
6.0
 20
5.075
 30
0.0
 11
6.0
 21
5.045
 31
0.0
  0
LINE
  5
25D
  8
0
 10
6.0
 20
5.045
 30
0.0
 11
5.85001
 21
5.045
 31
0.0
  0
LINE
  5
25E
  8
0
 10
5.85001
 20
5.045
 30
0.0
 11
5.85001
 21
5.03499
 31
0.0
  0
LINE
  5
25F
  8
0
 10
5.85001
 20
5.03499
 30
0.0
 11
6.0
 21
5.03499
 31
0.0
  0
LINE
  5
260
  8
0
 10
6.0
 20
5.03499
 30
0.0
 11
6.0
 21
5.00499
 31
0.0
  0
LINE
  5
261
  8
0
 10
6.0
 20
5.00499
 30
0.0
 11
5.85001
 21
5.00499
 31
0.0
  0
LINE
  5
262
  8
0
 10
5.85001
 20
5.00499
 30
0.0
 11
5.85001
 21
4.995
 31
0.0
  0
LINE
  5
263
  8
0
 10
5.85001
 20
4.995
 30
0.0
 11
6.0
 21
4.995
 31
0.0
  0
LINE
  5
264
  8
0
 10
6.0
 20
4.995
 30
0.0
 11
6.0
 21
4.965
 31
0.0
  0
LINE
  5
265
  8
0
 10
6.0
 20
4.965
 30
0.0
 11
5.85001
 21
4.965
 31
0.0
  0
LINE
  5
266
  8
0
 10
5.85001
 20
4.965
 30
0.0
 11
5.85001
 21
4.95499
 31
0.0
  0
LINE
  5
267
  8
0
 10
5.85001
 20
4.95499
 30
0.0
 11
6.0
 21
4.95499
 31
0.0
  0
LINE
  5
268
  8
0
 10
6.0
 20
4.95499
 30
0.0
 11
6.0
 21
4.92499
 31
0.0
  0
LINE
  5
269
  8
0
 10
6.0
 20
4.92499
 30
0.0
 11
5.85001
 21
4.92499
 31
0.0
  0
LINE
  5
26A
  8
0
 10
5.85001
 20
4.92499
 30
0.0
 11
5.85001
 21
4.91499
 31
0.0
  0
LINE
  5
26B
  8
0
 10
5.85001
 20
4.91499
 30
0.0
 11
6.0
 21
4.91499
 31
0.0
  0
LINE
  5
26C
  8
0
 10
6.0
 20
4.91499
 30
0.0
 11
6.0
 21
4.88499
 31
0.0
  0
LINE
  5
26D
  8
0
 10
6.0
 20
4.88499
 30
0.0
 11
5.85001
 21
4.88499
 31
0.0
  0
LINE
  5
26E
  8
0
 10
5.85001
 20
4.88499
 30
0.0
 11
5.85001
 21
4.875
 31
0.0
  0
LINE
  5
26F
  8
0
 10
5.85001
 20
4.875
 30
0.0
 11
6.0
 21
4.875
 31
0.0
  0
LINE
  5
270
  8
0
 10
6.0
 20
4.875
 30
0.0
 11
6.0
 21
4.84499
 31
0.0
  0
LINE
  5
271
  8
0
 10
6.0
 20
4.84499
 30
0.0
 11
5.85001
 21
4.84499
 31
0.0
  0
LINE
  5
272
  8
0
 10
5.85001
 20
4.84499
 30
0.0
 11
5.85001
 21
4.83499
 31
0.0
  0
LINE
  5
273
  8
0
 10
5.85001
 20
4.83499
 30
0.0
 11
6.0
 21
4.83499
 31
0.0
  0
LINE
  5
274
  8
0
 10
6.0
 20
4.83499
 30
0.0
 11
6.0
 21
4.80499
 31
0.0
  0
LINE
  5
275
  8
0
 10
6.0
 20
4.80499
 30
0.0
 11
5.85001
 21
4.80499
 31
0.0
  0
LINE
  5
276
  8
0
 10
5.85001
 20
4.80499
 30
0.0
 11
5.85001
 21
4.795
 31
0.0
  0
LINE
  5
277
  8
0
 10
5.85001
 20
4.795
 30
0.0
 11
6.0
 21
4.795
 31
0.0
  0
LINE
  5
278
  8
0
 10
6.0
 20
4.795
 30
0.0
 11
6.0
 21
4.765
 31
0.0
  0
LINE
  5
279
  8
0
 10
6.0
 20
4.765
 30
0.0
 11
5.85001
 21
4.765
 31
0.0
  0
LINE
  5
27A
  8
0
 10
5.85001
 20
4.765
 30
0.0
 11
5.85001
 21
4.75499
 31
0.0
  0
LINE
  5
27B
  8
0
 10
5.85001
 20
4.75499
 30
0.0
 11
6.0
 21
4.75499
 31
0.0
  0
LINE
  5
27C
  8
0
 10
6.0
 20
4.75499
 30
0.0
 11
6.0
 21
4.72499
 31
0.0
  0
LINE
  5
27D
  8
0
 10
6.0
 20
4.72499
 30
0.0
 11
5.85001
 21
4.72499
 31
0.0
  0
LINE
  5
27E
  8
0
 10
5.85001
 20
4.72499
 30
0.0
 11
5.85001
 21
4.715
 31
0.0
  0
LINE
  5
27F
  8
0
 10
5.85001
 20
4.715
 30
0.0
 11
6.0
 21
4.715
 31
0.0
  0
LINE
  5
280
  8
0
 10
6.0
 20
4.715
 30
0.0
 11
6.0
 21
4.685
 31
0.0
  0
LINE
  5
281
  8
0
 10
6.0
 20
4.685
 30
0.0
 11
5.85001
 21
4.685
 31
0.0
  0
LINE
  5
282
  8
0
 10
5.85001
 20
4.685
 30
0.0
 11
5.85001
 21
4.67499
 31
0.0
  0
LINE
  5
283
  8
0
 10
5.85001
 20
4.67499
 30
0.0
 11
6.0
 21
4.67499
 31
0.0
  0
LINE
  5
284
  8
0
 10
6.0
 20
4.67499
 30
0.0
 11
6.0
 21
4.64499
 31
0.0
  0
LINE
  5
285
  8
0
 10
6.0
 20
4.64499
 30
0.0
 11
5.85001
 21
4.64499
 31
0.0
  0
LINE
  5
286
  8
0
 10
5.85001
 20
4.64499
 30
0.0
 11
5.85001
 21
4.63499
 31
0.0
  0
LINE
  5
287
  8
0
 10
5.85001
 20
4.63499
 30
0.0
 11
6.0
 21
4.63499
 31
0.0
  0
LINE
  5
288
  8
0
 10
6.0
 20
4.63499
 30
0.0
 11
6.0
 21
4.605
 31
0.0
  0
LINE
  5
289
  8
0
 10
6.0
 20
4.605
 30
0.0
 11
5.85001
 21
4.605
 31
0.0
  0
LINE
  5
28A
  8
0
 10
5.85001
 20
4.605
 30
0.0
 11
5.85001
 21
4.59499
 31
0.0
  0
LINE
  5
28B
  8
0
 10
5.85001
 20
4.59499
 30
0.0
 11
6.0
 21
4.59499
 31
0.0
  0
LINE
  5
28C
  8
0
 10
6.0
 20
4.59499
 30
0.0
 11
6.0
 21
4.56499
 31
0.0
  0
LINE
  5
28D
  8
0
 10
6.0
 20
4.56499
 30
0.0
 11
5.85001
 21
4.56499
 31
0.0
  0
LINE
  5
28E
  8
0
 10
5.85001
 20
4.56499
 30
0.0
 11
5.85001
 21
4.55499
 31
0.0
  0
LINE
  5
28F
  8
0
 10
5.85001
 20
4.55499
 30
0.0
 11
6.0
 21
4.55499
 31
0.0
  0
LINE
  5
290
  8
0
 10
6.0
 20
4.55499
 30
0.0
 11
6.0
 21
4.52499
 31
0.0
  0
LINE
  5
291
  8
0
 10
6.0
 20
4.52499
 30
0.0
 11
5.85001
 21
4.52499
 31
0.0
  0
LINE
  5
292
  8
0
 10
5.85001
 20
4.52499
 30
0.0
 11
5.85001
 21
4.515
 31
0.0
  0
LINE
  5
293
  8
0
 10
5.85001
 20
4.515
 30
0.0
 11
6.0
 21
4.515
 31
0.0
  0
LINE
  5
294
  8
0
 10
6.0
 20
4.515
 30
0.0
 11
6.0
 21
4.485
 31
0.0
  0
LINE
  5
295
  8
0
 10
6.0
 20
4.485
 30
0.0
 11
5.85001
 21
4.485
 31
0.0
  0
LINE
  5
296
  8
0
 10
5.85001
 20
4.485
 30
0.0
 11
5.85001
 21
4.47501
 31
0.0
  0
LINE
  5
297
  8
0
 10
5.85001
 20
4.47501
 30
0.0
 11
6.0
 21
4.47501
 31
0.0
  0
LINE
  5
298
  8
0
 10
6.0
 20
4.47501
 30
0.0
 11
6.0
 21
4.44501
 31
0.0
  0
LINE
  5
299
  8
0
 10
6.0
 20
4.44501
 30
0.0
 11
5.85001
 21
4.44501
 31
0.0
  0
LINE
  5
29A
  8
0
 10
5.85001
 20
4.44501
 30
0.0
 11
5.85001
 21
4.43501
 31
0.0
  0
LINE
  5
29B
  8
0
 10
5.85001
 20
4.43501
 30
0.0
 11
6.0
 21
4.43501
 31
0.0
  0
LINE
  5
29C
  8
0
 10
6.0
 20
4.43501
 30
0.0
 11
6.0
 21
4.40501
 31
0.0
  0
LINE
  5
29D
  8
0
 10
6.0
 20
4.40501
 30
0.0
 11
5.85001
 21
4.40501
 31
0.0
  0
LINE
  5
29E
  8
0
 10
5.85001
 20
4.40501
 30
0.0
 11
5.85001
 21
4.395
 31
0.0
  0
LINE
  5
29F
  8
0
 10
5.85001
 20
4.395
 30
0.0
 11
6.0
 21
4.395
 31
0.0
  0
LINE
  5
2A0
  8
0
 10
6.0
 20
4.395
 30
0.0
 11
6.0
 21
4.36501
 31
0.0
  0
LINE
  5
2A1
  8
0
 10
6.0
 20
4.36501
 30
0.0
 11
5.85001
 21
4.36501
 31
0.0
  0
LINE
  5
2A2
  8
0
 10
5.85001
 20
4.36501
 30
0.0
 11
5.85001
 21
4.35501
 31
0.0
  0
LINE
  5
2A3
  8
0
 10
5.85001
 20
4.35501
 30
0.0
 11
6.0
 21
4.35501
 31
0.0
  0
LINE
  5
2A4
  8
0
 10
6.0
 20
4.35501
 30
0.0
 11
6.0
 21
4.32501
 31
0.0
  0
LINE
  5
2A5
  8
0
 10
6.0
 20
4.32501
 30
0.0
 11
5.85001
 21
4.32501
 31
0.0
  0
LINE
  5
2A6
  8
0
 10
5.85001
 20
4.32501
 30
0.0
 11
5.85001
 21
4.315
 31
0.0
  0
LINE
  5
2A7
  8
0
 10
5.85001
 20
4.315
 30
0.0
 11
6.0
 21
4.315
 31
0.0
  0
LINE
  5
2A8
  8
0
 10
6.0
 20
4.315
 30
0.0
 11
6.0
 21
4.285
 31
0.0
  0
LINE
  5
2A9
  8
0
 10
6.0
 20
4.285
 30
0.0
 11
5.85001
 21
4.285
 31
0.0
  0
LINE
  5
2AA
  8
0
 10
5.85001
 20
4.285
 30
0.0
 11
5.85001
 21
4.27501
 31
0.0
  0
LINE
  5
2AB
  8
0
 10
5.85001
 20
4.27501
 30
0.0
 11
6.0
 21
4.27501
 31
0.0
  0
LINE
  5
2AC
  8
0
 10
6.0
 20
4.27501
 30
0.0
 11
6.0
 21
4.24501
 31
0.0
  0
LINE
  5
2AD
  8
0
 10
6.0
 20
4.24501
 30
0.0
 11
5.85001
 21
4.24501
 31
0.0
  0
LINE
  5
2AE
  8
0
 10
5.85001
 20
4.24501
 30
0.0
 11
5.85001
 21
4.235
 31
0.0
  0
LINE
  5
2AF
  8
0
 10
5.85001
 20
4.235
 30
0.0
 11
6.0
 21
4.235
 31
0.0
  0
LINE
  5
2B0
  8
0
 10
6.0
 20
4.235
 30
0.0
 11
6.0
 21
4.205
 31
0.0
  0
LINE
  5
2B1
  8
0
 10
6.0
 20
4.205
 30
0.0
 11
5.85001
 21
4.205
 31
0.0
  0
LINE
  5
2B2
  8
0
 10
5.85001
 20
4.205
 30
0.0
 11
5.85001
 21
4.19501
 31
0.0
  0
LINE
  5
2B3
  8
0
 10
5.85001
 20
4.19501
 30
0.0
 11
6.0
 21
4.19501
 31
0.0
  0
LINE
  5
2B4
  8
0
 10
6.0
 20
4.19501
 30
0.0
 11
6.0
 21
4.16501
 31
0.0
  0
LINE
  5
2B5
  8
0
 10
6.0
 20
4.16501
 30
0.0
 11
5.85001
 21
4.16501
 31
0.0
  0
LINE
  5
2B6
  8
0
 10
5.85001
 20
4.16501
 30
0.0
 11
5.85001
 21
4.15501
 31
0.0
  0
LINE
  5
2B7
  8
0
 10
5.85001
 20
4.15501
 30
0.0
 11
6.0
 21
4.15501
 31
0.0
  0
LINE
  5
2B8
  8
0
 10
6.0
 20
4.15501
 30
0.0
 11
6.0
 21
4.125
 31
0.0
  0
LINE
  5
2B9
  8
0
 10
6.0
 20
4.125
 30
0.0
 11
5.85001
 21
4.125
 31
0.0
  0
LINE
  5
2BA
  8
0
 10
5.85001
 20
4.125
 30
0.0
 11
5.85001
 21
4.11501
 31
0.0
  0
LINE
  5
2BB
  8
0
 10
5.85001
 20
4.11501
 30
0.0
 11
6.0
 21
4.11501
 31
0.0
  0
LINE
  5
2BC
  8
0
 10
6.0
 20
4.11501
 30
0.0
 11
6.0
 21
4.08501
 31
0.0
  0
LINE
  5
2BD
  8
0
 10
6.0
 20
4.08501
 30
0.0
 11
5.85001
 21
4.08501
 31
0.0
  0
LINE
  5
2BE
  8
0
 10
5.85001
 20
4.08501
 30
0.0
 11
5.85001
 21
4.07501
 31
0.0
  0
LINE
  5
2BF
  8
0
 10
5.85001
 20
4.07501
 30
0.0
 11
6.0
 21
4.07501
 31
0.0
  0
LINE
  5
2C0
  8
0
 10
6.0
 20
4.07501
 30
0.0
 11
6.0
 21
4.04501
 31
0.0
  0
LINE
  5
2C1
  8
0
 10
6.0
 20
4.04501
 30
0.0
 11
5.85001
 21
4.04501
 31
0.0
  0
LINE
  5
2C2
  8
0
 10
5.85001
 20
4.04501
 30
0.0
 11
5.85001
 21
4.035
 31
0.0
  0
LINE
  5
2C3
  8
0
 10
5.85001
 20
4.035
 30
0.0
 11
6.0
 21
4.035
 31
0.0
  0
LINE
  5
2C4
  8
0
 10
6.0
 20
4.035
 30
0.0
 11
6.0
 21
4.005
 31
0.0
  0
LINE
  5
2C5
  8
0
 10
6.0
 20
4.005
 30
0.0
 11
5.85001
 21
4.005
 31
0.0
  0
LINE
  5
2C6
  8
0
 10
5.85001
 20
4.005
 30
0.0
 11
5.85001
 21
3.99501
 31
0.0
  0
LINE
  5
2C7
  8
0
 10
5.85001
 20
3.99501
 30
0.0
 11
6.0
 21
3.99501
 31
0.0
  0
LINE
  5
2C8
  8
0
 10
6.0
 20
3.99501
 30
0.0
 11
6.0
 21
3.96501
 31
0.0
  0
LINE
  5
2C9
  8
0
 10
6.0
 20
3.96501
 30
0.0
 11
5.85001
 21
3.96501
 31
0.0
  0
LINE
  5
2CA
  8
0
 10
5.85001
 20
3.96501
 30
0.0
 11
5.85001
 21
3.955
 31
0.0
  0
LINE
  5
2CB
  8
0
 10
5.85001
 20
3.955
 30
0.0
 11
6.0
 21
3.955
 31
0.0
  0
LINE
  5
2CC
  8
0
 10
6.0
 20
3.955
 30
0.0
 11
6.0
 21
3.925
 31
0.0
  0
LINE
  5
2CD
  8
0
 10
6.0
 20
3.925
 30
0.0
 11
5.85001
 21
3.925
 31
0.0
  0
LINE
  5
2CE
  8
0
 10
5.85001
 20
3.925
 30
0.0
 11
5.85001
 21
3.91501
 31
0.0
  0
LINE
  5
2CF
  8
0
 10
5.85001
 20
3.91501
 30
0.0
 11
6.0
 21
3.91501
 31
0.0
  0
LINE
  5
2D0
  8
0
 10
6.0
 20
3.91501
 30
0.0
 11
6.0
 21
3.88501
 31
0.0
  0
LINE
  5
2D1
  8
0
 10
6.0
 20
3.88501
 30
0.0
 11
5.85001
 21
3.88501
 31
0.0
  0
LINE
  5
2D2
  8
0
 10
5.85001
 20
3.88501
 30
0.0
 11
5.85001
 21
3.875
 31
0.0
  0
LINE
  5
2D3
  8
0
 10
5.85001
 20
3.875
 30
0.0
 11
6.0
 21
3.875
 31
0.0
  0
LINE
  5
2D4
  8
0
 10
6.0
 20
3.875
 30
0.0
 11
6.0
 21
3.845
 31
0.0
  0
LINE
  5
2D5
  8
0
 10
6.0
 20
3.845
 30
0.0
 11
5.85001
 21
3.845
 31
0.0
  0
LINE
  5
2D6
  8
0
 10
5.85001
 20
3.845
 30
0.0
 11
5.85001
 21
3.83501
 31
0.0
  0
LINE
  5
2D7
  8
0
 10
5.85001
 20
3.83501
 30
0.0
 11
6.0
 21
3.83501
 31
0.0
  0
LINE
  5
2D8
  8
0
 10
6.0
 20
3.83501
 30
0.0
 11
6.0
 21
3.80501
 31
0.0
  0
LINE
  5
2D9
  8
0
 10
6.0
 20
3.80501
 30
0.0
 11
5.85001
 21
3.80501
 31
0.0
  0
LINE
  5
2DA
  8
0
 10
5.85001
 20
3.80501
 30
0.0
 11
5.85001
 21
3.79501
 31
0.0
  0
LINE
  5
2DB
  8
0
 10
5.85001
 20
3.79501
 30
0.0
 11
6.0
 21
3.79501
 31
0.0
  0
LINE
  5
2DC
  8
0
 10
6.0
 20
3.79501
 30
0.0
 11
6.0
 21
3.76501
 31
0.0
  0
LINE
  5
2DD
  8
0
 10
6.0
 20
3.76501
 30
0.0
 11
5.85001
 21
3.76501
 31
0.0
  0
LINE
  5
2DE
  8
0
 10
5.85001
 20
3.76501
 30
0.0
 11
5.85001
 21
3.755
 31
0.0
  0
LINE
  5
2DF
  8
0
 10
5.85001
 20
3.755
 30
0.0
 11
6.0
 21
3.755
 31
0.0
  0
LINE
  5
2E0
  8
0
 10
6.0
 20
3.755
 30
0.0
 11
6.0
 21
3.72501
 31
0.0
  0
LINE
  5
2E1
  8
0
 10
6.0
 20
3.72501
 30
0.0
 11
5.85001
 21
3.72501
 31
0.0
  0
LINE
  5
2E2
  8
0
 10
5.85001
 20
3.72501
 30
0.0
 11
5.85001
 21
3.71501
 31
0.0
  0
LINE
  5
2E3
  8
0
 10
5.85001
 20
3.71501
 30
0.0
 11
6.0
 21
3.71501
 31
0.0
  0
LINE
  5
2E4
  8
0
 10
6.0
 20
3.71501
 30
0.0
 11
6.0
 21
3.68501
 31
0.0
  0
LINE
  5
2E5
  8
0
 10
6.0
 20
3.68501
 30
0.0
 11
5.85001
 21
3.68501
 31
0.0
  0
LINE
  5
2E6
  8
0
 10
5.85001
 20
3.68501
 30
0.0
 11
5.85001
 21
3.675
 31
0.0
  0
LINE
  5
2E7
  8
0
 10
5.85001
 20
3.675
 30
0.0
 11
6.0
 21
3.675
 31
0.0
  0
LINE
  5
2E8
  8
0
 10
6.0
 20
3.675
 30
0.0
 11
6.0
 21
3.645
 31
0.0
  0
LINE
  5
2E9
  8
0
 10
6.0
 20
3.645
 30
0.0
 11
5.85001
 21
3.645
 31
0.0
  0
LINE
  5
2EA
  8
0
 10
5.85001
 20
3.645
 30
0.0
 11
5.85001
 21
3.63501
 31
0.0
  0
LINE
  5
2EB
  8
0
 10
5.85001
 20
3.63501
 30
0.0
 11
6.0
 21
3.63501
 31
0.0
  0
LINE
  5
2EC
  8
0
 10
6.0
 20
3.63501
 30
0.0
 11
6.0
 21
3.60501
 31
0.0
  0
LINE
  5
2ED
  8
0
 10
6.0
 20
3.60501
 30
0.0
 11
5.85001
 21
3.60501
 31
0.0
  0
LINE
  5
2EE
  8
0
 10
5.85001
 20
3.60501
 30
0.0
 11
5.85001
 21
3.595
 31
0.0
  0
LINE
  5
2EF
  8
0
 10
5.85001
 20
3.595
 30
0.0
 11
6.0
 21
3.595
 31
0.0
  0
LINE
  5
2F0
  8
0
 10
6.0
 20
3.595
 30
0.0
 11
6.0
 21
3.565
 31
0.0
  0
LINE
  5
2F1
  8
0
 10
6.0
 20
3.565
 30
0.0
 11
5.85001
 21
3.565
 31
0.0
  0
LINE
  5
2F2
  8
0
 10
5.85001
 20
3.565
 30
0.0
 11
5.85001
 21
3.55501
 31
0.0
  0
LINE
  5
2F3
  8
0
 10
5.85001
 20
3.55501
 30
0.0
 11
6.0
 21
3.55501
 31
0.0
  0
LINE
  5
2F4
  8
0
 10
6.0
 20
3.55501
 30
0.0
 11
6.0
 21
3.52501
 31
0.0
  0
LINE
  5
2F5
  8
0
 10
6.0
 20
3.52501
 30
0.0
 11
5.85001
 21
3.52501
 31
0.0
  0
LINE
  5
2F6
  8
0
 10
5.85001
 20
3.52501
 30
0.0
 11
5.85001
 21
3.51501
 31
0.0
  0
LINE
  5
2F7
  8
0
 10
5.85001
 20
3.51501
 30
0.0
 11
6.0
 21
3.51501
 31
0.0
  0
LINE
  5
2F8
  8
0
 10
6.0
 20
3.51501
 30
0.0
 11
6.0
 21
3.5
 31
0.0
  0
LINE
  5
2F9
  8
0
 10
6.0
 20
3.5
 30
0.0
 11
4.0
 21
3.5
 31
0.0
  0
LINE
  5
2FA
  8
0
 10
8.85001
 20
5.44499
 30
0.0
 11
8.85001
 21
5.47499
 31
0.0
  0
LINE
  5
2FB
  8
0
 10
8.85001
 20
5.47499
 30
0.0
 11
9.14999
 21
5.47499
 31
0.0
  0
LINE
  5
2FC
  8
0
 10
9.14999
 20
5.47499
 30
0.0
 11
9.14999
 21
5.44499
 31
0.0
  0
LINE
  5
2FD
  8
0
 10
9.14999
 20
5.44499
 30
0.0
 11
8.85001
 21
5.44499
 31
0.0
  0
LINE
  5
2FE
  8
0
 10
8.85001
 20
5.405
 30
0.0
 11
8.85001
 21
5.435
 31
0.0
  0
LINE
  5
2FF
  8
0
 10
8.85001
 20
5.435
 30
0.0
 11
9.14999
 21
5.435
 31
0.0
  0
LINE
  5
300
  8
0
 10
9.14999
 20
5.435
 30
0.0
 11
9.14999
 21
5.405
 31
0.0
  0
LINE
  5
301
  8
0
 10
9.14999
 20
5.405
 30
0.0
 11
8.85001
 21
5.405
 31
0.0
  0
LINE
  5
302
  8
0
 10
8.85001
 20
5.36499
 30
0.0
 11
8.85001
 21
5.39499
 31
0.0
  0
LINE
  5
303
  8
0
 10
8.85001
 20
5.39499
 30
0.0
 11
9.14999
 21
5.39499
 31
0.0
  0
LINE
  5
304
  8
0
 10
9.14999
 20
5.39499
 30
0.0
 11
9.14999
 21
5.36499
 31
0.0
  0
LINE
  5
305
  8
0
 10
9.14999
 20
5.36499
 30
0.0
 11
8.85001
 21
5.36499
 31
0.0
  0
LINE
  5
306
  8
0
 10
8.85001
 20
5.325
 30
0.0
 11
8.85001
 21
5.355
 31
0.0
  0
LINE
  5
307
  8
0
 10
8.85001
 20
5.355
 30
0.0
 11
9.14999
 21
5.355
 31
0.0
  0
LINE
  5
308
  8
0
 10
9.14999
 20
5.355
 30
0.0
 11
9.14999
 21
5.325
 31
0.0
  0
LINE
  5
309
  8
0
 10
9.14999
 20
5.325
 30
0.0
 11
8.85001
 21
5.325
 31
0.0
  0
LINE
  5
30A
  8
0
 10
8.85001
 20
5.28499
 30
0.0
 11
8.85001
 21
5.31499
 31
0.0
  0
LINE
  5
30B
  8
0
 10
8.85001
 20
5.31499
 30
0.0
 11
9.14999
 21
5.31499
 31
0.0
  0
LINE
  5
30C
  8
0
 10
9.14999
 20
5.31499
 30
0.0
 11
9.14999
 21
5.28499
 31
0.0
  0
LINE
  5
30D
  8
0
 10
9.14999
 20
5.28499
 30
0.0
 11
8.85001
 21
5.28499
 31
0.0
  0
LINE
  5
30E
  8
0
 10
8.85001
 20
5.245
 30
0.0
 11
8.85001
 21
5.27499
 31
0.0
  0
LINE
  5
30F
  8
0
 10
8.85001
 20
5.27499
 30
0.0
 11
9.14999
 21
5.27499
 31
0.0
  0
LINE
  5
310
  8
0
 10
9.14999
 20
5.27499
 30
0.0
 11
9.14999
 21
5.245
 31
0.0
  0
LINE
  5
311
  8
0
 10
9.14999
 20
5.245
 30
0.0
 11
8.85001
 21
5.245
 31
0.0
  0
LINE
  5
312
  8
0
 10
8.85001
 20
5.20499
 30
0.0
 11
8.85001
 21
5.23499
 31
0.0
  0
LINE
  5
313
  8
0
 10
8.85001
 20
5.23499
 30
0.0
 11
9.14999
 21
5.23499
 31
0.0
  0
LINE
  5
314
  8
0
 10
9.14999
 20
5.23499
 30
0.0
 11
9.14999
 21
5.20499
 31
0.0
  0
LINE
  5
315
  8
0
 10
9.14999
 20
5.20499
 30
0.0
 11
8.85001
 21
5.20499
 31
0.0
  0
LINE
  5
316
  8
0
 10
8.85001
 20
5.16499
 30
0.0
 11
8.85001
 21
5.19499
 31
0.0
  0
LINE
  5
317
  8
0
 10
8.85001
 20
5.19499
 30
0.0
 11
9.14999
 21
5.19499
 31
0.0
  0
LINE
  5
318
  8
0
 10
9.14999
 20
5.19499
 30
0.0
 11
9.14999
 21
5.16499
 31
0.0
  0
LINE
  5
319
  8
0
 10
9.14999
 20
5.16499
 30
0.0
 11
8.85001
 21
5.16499
 31
0.0
  0
LINE
  5
31A
  8
0
 10
8.85001
 20
5.125
 30
0.0
 11
8.85001
 21
5.155
 31
0.0
  0
LINE
  5
31B
  8
0
 10
8.85001
 20
5.155
 30
0.0
 11
9.14999
 21
5.155
 31
0.0
  0
LINE
  5
31C
  8
0
 10
9.14999
 20
5.155
 30
0.0
 11
9.14999
 21
5.125
 31
0.0
  0
LINE
  5
31D
  8
0
 10
9.14999
 20
5.125
 30
0.0
 11
8.85001
 21
5.125
 31
0.0
  0
LINE
  5
31E
  8
0
 10
8.85001
 20
5.08499
 30
0.0
 11
8.85001
 21
5.11499
 31
0.0
  0
LINE
  5
31F
  8
0
 10
8.85001
 20
5.11499
 30
0.0
 11
9.14999
 21
5.11499
 31
0.0
  0
LINE
  5
320
  8
0
 10
9.14999
 20
5.11499
 30
0.0
 11
9.14999
 21
5.08499
 31
0.0
  0
LINE
  5
321
  8
0
 10
9.14999
 20
5.08499
 30
0.0
 11
8.85001
 21
5.08499
 31
0.0
  0
LINE
  5
322
  8
0
 10
8.85001
 20
5.045
 30
0.0
 11
8.85001
 21
5.075
 31
0.0
  0
LINE
  5
323
  8
0
 10
8.85001
 20
5.075
 30
0.0
 11
9.14999
 21
5.075
 31
0.0
  0
LINE
  5
324
  8
0
 10
9.14999
 20
5.075
 30
0.0
 11
9.14999
 21
5.045
 31
0.0
  0
LINE
  5
325
  8
0
 10
9.14999
 20
5.045
 30
0.0
 11
8.85001
 21
5.045
 31
0.0
  0
LINE
  5
326
  8
0
 10
8.85001
 20
5.00499
 30
0.0
 11
8.85001
 21
5.03499
 31
0.0
  0
LINE
  5
327
  8
0
 10
8.85001
 20
5.03499
 30
0.0
 11
9.14999
 21
5.03499
 31
0.0
  0
LINE
  5
328
  8
0
 10
9.14999
 20
5.03499
 30
0.0
 11
9.14999
 21
5.00499
 31
0.0
  0
LINE
  5
329
  8
0
 10
9.14999
 20
5.00499
 30
0.0
 11
8.85001
 21
5.00499
 31
0.0
  0
LINE
  5
32A
  8
0
 10
8.85001
 20
4.965
 30
0.0
 11
8.85001
 21
4.995
 31
0.0
  0
LINE
  5
32B
  8
0
 10
8.85001
 20
4.995
 30
0.0
 11
9.14999
 21
4.995
 31
0.0
  0
LINE
  5
32C
  8
0
 10
9.14999
 20
4.995
 30
0.0
 11
9.14999
 21
4.965
 31
0.0
  0
LINE
  5
32D
  8
0
 10
9.14999
 20
4.965
 30
0.0
 11
8.85001
 21
4.965
 31
0.0
  0
LINE
  5
32E
  8
0
 10
8.85001
 20
4.92499
 30
0.0
 11
8.85001
 21
4.95499
 31
0.0
  0
LINE
  5
32F
  8
0
 10
8.85001
 20
4.95499
 30
0.0
 11
9.14999
 21
4.95499
 31
0.0
  0
LINE
  5
330
  8
0
 10
9.14999
 20
4.95499
 30
0.0
 11
9.14999
 21
4.92499
 31
0.0
  0
LINE
  5
331
  8
0
 10
9.14999
 20
4.92499
 30
0.0
 11
8.85001
 21
4.92499
 31
0.0
  0
LINE
  5
332
  8
0
 10
8.85001
 20
4.88499
 30
0.0
 11
8.85001
 21
4.91499
 31
0.0
  0
LINE
  5
333
  8
0
 10
8.85001
 20
4.91499
 30
0.0
 11
9.14999
 21
4.91499
 31
0.0
  0
LINE
  5
334
  8
0
 10
9.14999
 20
4.91499
 30
0.0
 11
9.14999
 21
4.88499
 31
0.0
  0
LINE
  5
335
  8
0
 10
9.14999
 20
4.88499
 30
0.0
 11
8.85001
 21
4.88499
 31
0.0
  0
LINE
  5
336
  8
0
 10
8.85001
 20
4.84499
 30
0.0
 11
8.85001
 21
4.875
 31
0.0
  0
LINE
  5
337
  8
0
 10
8.85001
 20
4.875
 30
0.0
 11
9.14999
 21
4.875
 31
0.0
  0
LINE
  5
338
  8
0
 10
9.14999
 20
4.875
 30
0.0
 11
9.14999
 21
4.84499
 31
0.0
  0
LINE
  5
339
  8
0
 10
9.14999
 20
4.84499
 30
0.0
 11
8.85001
 21
4.84499
 31
0.0
  0
LINE
  5
33A
  8
0
 10
8.85001
 20
4.80499
 30
0.0
 11
8.85001
 21
4.83499
 31
0.0
  0
LINE
  5
33B
  8
0
 10
8.85001
 20
4.83499
 30
0.0
 11
9.14999
 21
4.83499
 31
0.0
  0
LINE
  5
33C
  8
0
 10
9.14999
 20
4.83499
 30
0.0
 11
9.14999
 21
4.80499
 31
0.0
  0
LINE
  5
33D
  8
0
 10
9.14999
 20
4.80499
 30
0.0
 11
8.85001
 21
4.80499
 31
0.0
  0
LINE
  5
33E
  8
0
 10
8.85001
 20
4.765
 30
0.0
 11
8.85001
 21
4.795
 31
0.0
  0
LINE
  5
33F
  8
0
 10
8.85001
 20
4.795
 30
0.0
 11
9.14999
 21
4.795
 31
0.0
  0
LINE
  5
340
  8
0
 10
9.14999
 20
4.795
 30
0.0
 11
9.14999
 21
4.765
 31
0.0
  0
LINE
  5
341
  8
0
 10
9.14999
 20
4.765
 30
0.0
 11
8.85001
 21
4.765
 31
0.0
  0
LINE
  5
342
  8
0
 10
8.85001
 20
4.72499
 30
0.0
 11
8.85001
 21
4.75499
 31
0.0
  0
LINE
  5
343
  8
0
 10
8.85001
 20
4.75499
 30
0.0
 11
9.14999
 21
4.75499
 31
0.0
  0
LINE
  5
344
  8
0
 10
9.14999
 20
4.75499
 30
0.0
 11
9.14999
 21
4.72499
 31
0.0
  0
LINE
  5
345
  8
0
 10
9.14999
 20
4.72499
 30
0.0
 11
8.85001
 21
4.72499
 31
0.0
  0
LINE
  5
346
  8
0
 10
8.85001
 20
4.685
 30
0.0
 11
8.85001
 21
4.715
 31
0.0
  0
LINE
  5
347
  8
0
 10
8.85001
 20
4.715
 30
0.0
 11
9.14999
 21
4.715
 31
0.0
  0
LINE
  5
348
  8
0
 10
9.14999
 20
4.715
 30
0.0
 11
9.14999
 21
4.685
 31
0.0
  0
LINE
  5
349
  8
0
 10
9.14999
 20
4.685
 30
0.0
 11
8.85001
 21
4.685
 31
0.0
  0
LINE
  5
34A
  8
0
 10
8.85001
 20
4.64499
 30
0.0
 11
8.85001
 21
4.67499
 31
0.0
  0
LINE
  5
34B
  8
0
 10
8.85001
 20
4.67499
 30
0.0
 11
9.14999
 21
4.67499
 31
0.0
  0
LINE
  5
34C
  8
0
 10
9.14999
 20
4.67499
 30
0.0
 11
9.14999
 21
4.64499
 31
0.0
  0
LINE
  5
34D
  8
0
 10
9.14999
 20
4.64499
 30
0.0
 11
8.85001
 21
4.64499
 31
0.0
  0
LINE
  5
34E
  8
0
 10
8.85001
 20
4.605
 30
0.0
 11
8.85001
 21
4.63499
 31
0.0
  0
LINE
  5
34F
  8
0
 10
8.85001
 20
4.63499
 30
0.0
 11
9.14999
 21
4.63499
 31
0.0
  0
LINE
  5
350
  8
0
 10
9.14999
 20
4.63499
 30
0.0
 11
9.14999
 21
4.605
 31
0.0
  0
LINE
  5
351
  8
0
 10
9.14999
 20
4.605
 30
0.0
 11
8.85001
 21
4.605
 31
0.0
  0
LINE
  5
352
  8
0
 10
8.85001
 20
4.56499
 30
0.0
 11
8.85001
 21
4.59499
 31
0.0
  0
LINE
  5
353
  8
0
 10
8.85001
 20
4.59499
 30
0.0
 11
9.14999
 21
4.59499
 31
0.0
  0
LINE
  5
354
  8
0
 10
9.14999
 20
4.59499
 30
0.0
 11
9.14999
 21
4.56499
 31
0.0
  0
LINE
  5
355
  8
0
 10
9.14999
 20
4.56499
 30
0.0
 11
8.85001
 21
4.56499
 31
0.0
  0
LINE
  5
356
  8
0
 10
8.85001
 20
4.52499
 30
0.0
 11
8.85001
 21
4.55499
 31
0.0
  0
LINE
  5
357
  8
0
 10
8.85001
 20
4.55499
 30
0.0
 11
9.14999
 21
4.55499
 31
0.0
  0
LINE
  5
358
  8
0
 10
9.14999
 20
4.55499
 30
0.0
 11
9.14999
 21
4.52499
 31
0.0
  0
LINE
  5
359
  8
0
 10
9.14999
 20
4.52499
 30
0.0
 11
8.85001
 21
4.52499
 31
0.0
  0
LINE
  5
35A
  8
0
 10
8.85001
 20
4.485
 30
0.0
 11
8.85001
 21
4.515
 31
0.0
  0
LINE
  5
35B
  8
0
 10
8.85001
 20
4.515
 30
0.0
 11
9.14999
 21
4.515
 31
0.0
  0
LINE
  5
35C
  8
0
 10
9.14999
 20
4.515
 30
0.0
 11
9.14999
 21
4.485
 31
0.0
  0
LINE
  5
35D
  8
0
 10
9.14999
 20
4.485
 30
0.0
 11
8.85001
 21
4.485
 31
0.0
  0
LINE
  5
35E
  8
0
 10
8.85001
 20
4.44501
 30
0.0
 11
8.85001
 21
4.47501
 31
0.0
  0
LINE
  5
35F
  8
0
 10
8.85001
 20
4.47501
 30
0.0
 11
9.14999
 21
4.47501
 31
0.0
  0
LINE
  5
360
  8
0
 10
9.14999
 20
4.47501
 30
0.0
 11
9.14999
 21
4.44501
 31
0.0
  0
LINE
  5
361
  8
0
 10
9.14999
 20
4.44501
 30
0.0
 11
8.85001
 21
4.44501
 31
0.0
  0
LINE
  5
362
  8
0
 10
8.85001
 20
4.40501
 30
0.0
 11
8.85001
 21
4.43501
 31
0.0
  0
LINE
  5
363
  8
0
 10
8.85001
 20
4.43501
 30
0.0
 11
9.14999
 21
4.43501
 31
0.0
  0
LINE
  5
364
  8
0
 10
9.14999
 20
4.43501
 30
0.0
 11
9.14999
 21
4.40501
 31
0.0
  0
LINE
  5
365
  8
0
 10
9.14999
 20
4.40501
 30
0.0
 11
8.85001
 21
4.40501
 31
0.0
  0
LINE
  5
366
  8
0
 10
8.85001
 20
4.36501
 30
0.0
 11
8.85001
 21
4.395
 31
0.0
  0
LINE
  5
367
  8
0
 10
8.85001
 20
4.395
 30
0.0
 11
9.14999
 21
4.395
 31
0.0
  0
LINE
  5
368
  8
0
 10
9.14999
 20
4.395
 30
0.0
 11
9.14999
 21
4.36501
 31
0.0
  0
LINE
  5
369
  8
0
 10
9.14999
 20
4.36501
 30
0.0
 11
8.85001
 21
4.36501
 31
0.0
  0
LINE
  5
36A
  8
0
 10
8.85001
 20
4.32501
 30
0.0
 11
8.85001
 21
4.35501
 31
0.0
  0
LINE
  5
36B
  8
0
 10
8.85001
 20
4.35501
 30
0.0
 11
9.14999
 21
4.35501
 31
0.0
  0
LINE
  5
36C
  8
0
 10
9.14999
 20
4.35501
 30
0.0
 11
9.14999
 21
4.32501
 31
0.0
  0
LINE
  5
36D
  8
0
 10
9.14999
 20
4.32501
 30
0.0
 11
8.85001
 21
4.32501
 31
0.0
  0
LINE
  5
36E
  8
0
 10
8.85001
 20
4.285
 30
0.0
 11
8.85001
 21
4.315
 31
0.0
  0
LINE
  5
36F
  8
0
 10
8.85001
 20
4.315
 30
0.0
 11
9.14999
 21
4.315
 31
0.0
  0
LINE
  5
370
  8
0
 10
9.14999
 20
4.315
 30
0.0
 11
9.14999
 21
4.285
 31
0.0
  0
LINE
  5
371
  8
0
 10
9.14999
 20
4.285
 30
0.0
 11
8.85001
 21
4.285
 31
0.0
  0
LINE
  5
372
  8
0
 10
8.85001
 20
4.24501
 30
0.0
 11
8.85001
 21
4.27501
 31
0.0
  0
LINE
  5
373
  8
0
 10
8.85001
 20
4.27501
 30
0.0
 11
9.14999
 21
4.27501
 31
0.0
  0
LINE
  5
374
  8
0
 10
9.14999
 20
4.27501
 30
0.0
 11
9.14999
 21
4.24501
 31
0.0
  0
LINE
  5
375
  8
0
 10
9.14999
 20
4.24501
 30
0.0
 11
8.85001
 21
4.24501
 31
0.0
  0
LINE
  5
376
  8
0
 10
8.85001
 20
4.205
 30
0.0
 11
8.85001
 21
4.235
 31
0.0
  0
LINE
  5
377
  8
0
 10
8.85001
 20
4.235
 30
0.0
 11
9.14999
 21
4.235
 31
0.0
  0
LINE
  5
378
  8
0
 10
9.14999
 20
4.235
 30
0.0
 11
9.14999
 21
4.205
 31
0.0
  0
LINE
  5
379
  8
0
 10
9.14999
 20
4.205
 30
0.0
 11
8.85001
 21
4.205
 31
0.0
  0
LINE
  5
37A
  8
0
 10
8.85001
 20
4.16501
 30
0.0
 11
8.85001
 21
4.19501
 31
0.0
  0
LINE
  5
37B
  8
0
 10
8.85001
 20
4.19501
 30
0.0
 11
9.14999
 21
4.19501
 31
0.0
  0
LINE
  5
37C
  8
0
 10
9.14999
 20
4.19501
 30
0.0
 11
9.14999
 21
4.16501
 31
0.0
  0
LINE
  5
37D
  8
0
 10
9.14999
 20
4.16501
 30
0.0
 11
8.85001
 21
4.16501
 31
0.0
  0
LINE
  5
37E
  8
0
 10
8.85001
 20
4.125
 30
0.0
 11
8.85001
 21
4.15501
 31
0.0
  0
LINE
  5
37F
  8
0
 10
8.85001
 20
4.15501
 30
0.0
 11
9.14999
 21
4.15501
 31
0.0
  0
LINE
  5
380
  8
0
 10
9.14999
 20
4.15501
 30
0.0
 11
9.14999
 21
4.125
 31
0.0
  0
LINE
  5
381
  8
0
 10
9.14999
 20
4.125
 30
0.0
 11
8.85001
 21
4.125
 31
0.0
  0
LINE
  5
382
  8
0
 10
8.85001
 20
4.08501
 30
0.0
 11
8.85001
 21
4.11501
 31
0.0
  0
LINE
  5
383
  8
0
 10
8.85001
 20
4.11501
 30
0.0
 11
9.14999
 21
4.11501
 31
0.0
  0
LINE
  5
384
  8
0
 10
9.14999
 20
4.11501
 30
0.0
 11
9.14999
 21
4.08501
 31
0.0
  0
LINE
  5
385
  8
0
 10
9.14999
 20
4.08501
 30
0.0
 11
8.85001
 21
4.08501
 31
0.0
  0
LINE
  5
386
  8
0
 10
8.85001
 20
4.04501
 30
0.0
 11
8.85001
 21
4.07501
 31
0.0
  0
LINE
  5
387
  8
0
 10
8.85001
 20
4.07501
 30
0.0
 11
9.14999
 21
4.07501
 31
0.0
  0
LINE
  5
388
  8
0
 10
9.14999
 20
4.07501
 30
0.0
 11
9.14999
 21
4.04501
 31
0.0
  0
LINE
  5
389
  8
0
 10
9.14999
 20
4.04501
 30
0.0
 11
8.85001
 21
4.04501
 31
0.0
  0
LINE
  5
38A
  8
0
 10
8.85001
 20
4.005
 30
0.0
 11
8.85001
 21
4.035
 31
0.0
  0
LINE
  5
38B
  8
0
 10
8.85001
 20
4.035
 30
0.0
 11
9.14999
 21
4.035
 31
0.0
  0
LINE
  5
38C
  8
0
 10
9.14999
 20
4.035
 30
0.0
 11
9.14999
 21
4.005
 31
0.0
  0
LINE
  5
38D
  8
0
 10
9.14999
 20
4.005
 30
0.0
 11
8.85001
 21
4.005
 31
0.0
  0
LINE
  5
38E
  8
0
 10
8.85001
 20
3.96501
 30
0.0
 11
8.85001
 21
3.99501
 31
0.0
  0
LINE
  5
38F
  8
0
 10
8.85001
 20
3.99501
 30
0.0
 11
9.14999
 21
3.99501
 31
0.0
  0
LINE
  5
390
  8
0
 10
9.14999
 20
3.99501
 30
0.0
 11
9.14999
 21
3.96501
 31
0.0
  0
LINE
  5
391
  8
0
 10
9.14999
 20
3.96501
 30
0.0
 11
8.85001
 21
3.96501
 31
0.0
  0
LINE
  5
392
  8
0
 10
8.85001
 20
3.925
 30
0.0
 11
8.85001
 21
3.955
 31
0.0
  0
LINE
  5
393
  8
0
 10
8.85001
 20
3.955
 30
0.0
 11
9.14999
 21
3.955
 31
0.0
  0
LINE
  5
394
  8
0
 10
9.14999
 20
3.955
 30
0.0
 11
9.14999
 21
3.925
 31
0.0
  0
LINE
  5
395
  8
0
 10
9.14999
 20
3.925
 30
0.0
 11
8.85001
 21
3.925
 31
0.0
  0
LINE
  5
396
  8
0
 10
8.85001
 20
3.88501
 30
0.0
 11
8.85001
 21
3.91501
 31
0.0
  0
LINE
  5
397
  8
0
 10
8.85001
 20
3.91501
 30
0.0
 11
9.14999
 21
3.91501
 31
0.0
  0
LINE
  5
398
  8
0
 10
9.14999
 20
3.91501
 30
0.0
 11
9.14999
 21
3.88501
 31
0.0
  0
LINE
  5
399
  8
0
 10
9.14999
 20
3.88501
 30
0.0
 11
8.85001
 21
3.88501
 31
0.0
  0
LINE
  5
39A
  8
0
 10
8.85001
 20
3.845
 30
0.0
 11
8.85001
 21
3.875
 31
0.0
  0
LINE
  5
39B
  8
0
 10
8.85001
 20
3.875
 30
0.0
 11
9.14999
 21
3.875
 31
0.0
  0
LINE
  5
39C
  8
0
 10
9.14999
 20
3.875
 30
0.0
 11
9.14999
 21
3.845
 31
0.0
  0
LINE
  5
39D
  8
0
 10
9.14999
 20
3.845
 30
0.0
 11
8.85001
 21
3.845
 31
0.0
  0
LINE
  5
39E
  8
0
 10
8.85001
 20
3.80501
 30
0.0
 11
8.85001
 21
3.83501
 31
0.0
  0
LINE
  5
39F
  8
0
 10
8.85001
 20
3.83501
 30
0.0
 11
9.14999
 21
3.83501
 31
0.0
  0
LINE
  5
3A0
  8
0
 10
9.14999
 20
3.83501
 30
0.0
 11
9.14999
 21
3.80501
 31
0.0
  0
LINE
  5
3A1
  8
0
 10
9.14999
 20
3.80501
 30
0.0
 11
8.85001
 21
3.80501
 31
0.0
  0
LINE
  5
3A2
  8
0
 10
8.85001
 20
3.76501
 30
0.0
 11
8.85001
 21
3.79501
 31
0.0
  0
LINE
  5
3A3
  8
0
 10
8.85001
 20
3.79501
 30
0.0
 11
9.14999
 21
3.79501
 31
0.0
  0
LINE
  5
3A4
  8
0
 10
9.14999
 20
3.79501
 30
0.0
 11
9.14999
 21
3.76501
 31
0.0
  0
LINE
  5
3A5
  8
0
 10
9.14999
 20
3.76501
 30
0.0
 11
8.85001
 21
3.76501
 31
0.0
  0
LINE
  5
3A6
  8
0
 10
8.85001
 20
3.72501
 30
0.0
 11
8.85001
 21
3.755
 31
0.0
  0
LINE
  5
3A7
  8
0
 10
8.85001
 20
3.755
 30
0.0
 11
9.14999
 21
3.755
 31
0.0
  0
LINE
  5
3A8
  8
0
 10
9.14999
 20
3.755
 30
0.0
 11
9.14999
 21
3.72501
 31
0.0
  0
LINE
  5
3A9
  8
0
 10
9.14999
 20
3.72501
 30
0.0
 11
8.85001
 21
3.72501
 31
0.0
  0
LINE
  5
3AA
  8
0
 10
8.85001
 20
3.68501
 30
0.0
 11
8.85001
 21
3.71501
 31
0.0
  0
LINE
  5
3AB
  8
0
 10
8.85001
 20
3.71501
 30
0.0
 11
9.14999
 21
3.71501
 31
0.0
  0
LINE
  5
3AC
  8
0
 10
9.14999
 20
3.71501
 30
0.0
 11
9.14999
 21
3.68501
 31
0.0
  0
LINE
  5
3AD
  8
0
 10
9.14999
 20
3.68501
 30
0.0
 11
8.85001
 21
3.68501
 31
0.0
  0
LINE
  5
3AE
  8
0
 10
8.85001
 20
3.645
 30
0.0
 11
8.85001
 21
3.675
 31
0.0
  0
LINE
  5
3AF
  8
0
 10
8.85001
 20
3.675
 30
0.0
 11
9.14999
 21
3.675
 31
0.0
  0
LINE
  5
3B0
  8
0
 10
9.14999
 20
3.675
 30
0.0
 11
9.14999
 21
3.645
 31
0.0
  0
LINE
  5
3B1
  8
0
 10
9.14999
 20
3.645
 30
0.0
 11
8.85001
 21
3.645
 31
0.0
  0
LINE
  5
3B2
  8
0
 10
8.85001
 20
3.60501
 30
0.0
 11
8.85001
 21
3.63501
 31
0.0
  0
LINE
  5
3B3
  8
0
 10
8.85001
 20
3.63501
 30
0.0
 11
9.14999
 21
3.63501
 31
0.0
  0
LINE
  5
3B4
  8
0
 10
9.14999
 20
3.63501
 30
0.0
 11
9.14999
 21
3.60501
 31
0.0
  0
LINE
  5
3B5
  8
0
 10
9.14999
 20
3.60501
 30
0.0
 11
8.85001
 21
3.60501
 31
0.0
  0
LINE
  5
3B6
  8
0
 10
8.85001
 20
3.565
 30
0.0
 11
8.85001
 21
3.595
 31
0.0
  0
LINE
  5
3B7
  8
0
 10
8.85001
 20
3.595
 30
0.0
 11
9.14999
 21
3.595
 31
0.0
  0
LINE
  5
3B8
  8
0
 10
9.14999
 20
3.595
 30
0.0
 11
9.14999
 21
3.565
 31
0.0
  0
LINE
  5
3B9
  8
0
 10
9.14999
 20
3.565
 30
0.0
 11
8.85001
 21
3.565
 31
0.0
  0
LINE
  5
3BA
  8
0
 10
8.85001
 20
3.52501
 30
0.0
 11
8.85001
 21
3.55501
 31
0.0
  0
LINE
  5
3BB
  8
0
 10
8.85001
 20
3.55501
 30
0.0
 11
9.14999
 21
3.55501
 31
0.0
  0
LINE
  5
3BC
  8
0
 10
9.14999
 20
3.55501
 30
0.0
 11
9.14999
 21
3.52501
 31
0.0
  0
LINE
  5
3BD
  8
0
 10
9.14999
 20
3.52501
 30
0.0
 11
8.85001
 21
3.52501
 31
0.0
  0
LINE
  5
3BE
  8
0
 10
8.85001
 20
3.485
 30
0.0
 11
8.85001
 21
3.51501
 31
0.0
  0
LINE
  5
3BF
  8
0
 10
8.85001
 20
3.51501
 30
0.0
 11
9.14999
 21
3.51501
 31
0.0
  0
LINE
  5
3C0
  8
0
 10
9.14999
 20
3.51501
 30
0.0
 11
9.14999
 21
3.485
 31
0.0
  0
LINE
  5
3C1
  8
0
 10
9.14999
 20
3.485
 30
0.0
 11
8.85001
 21
3.485
 31
0.0
  0
LINE
  5
3C2
  8
0
 10
8.85001
 20
3.44501
 30
0.0
 11
8.85001
 21
3.47501
 31
0.0
  0
LINE
  5
3C3
  8
0
 10
8.85001
 20
3.47501
 30
0.0
 11
9.14999
 21
3.47501
 31
0.0
  0
LINE
  5
3C4
  8
0
 10
9.14999
 20
3.47501
 30
0.0
 11
9.14999
 21
3.44501
 31
0.0
  0
LINE
  5
3C5
  8
0
 10
9.14999
 20
3.44501
 30
0.0
 11
8.85001
 21
3.44501
 31
0.0
  0
LINE
  5
3C6
  8
0
 10
8.85001
 20
3.40501
 30
0.0
 11
8.85001
 21
3.43501
 31
0.0
  0
LINE
  5
3C7
  8
0
 10
8.85001
 20
3.43501
 30
0.0
 11
9.14999
 21
3.43501
 31
0.0
  0
LINE
  5
3C8
  8
0
 10
9.14999
 20
3.43501
 30
0.0
 11
9.14999
 21
3.40501
 31
0.0
  0
LINE
  5
3C9
  8
0
 10
9.14999
 20
3.40501
 30
0.0
 11
8.85001
 21
3.40501
 31
0.0
  0
LINE
  5
3CA
  8
0
 10
8.85001
 20
3.36501
 30
0.0
 11
8.85001
 21
3.395
 31
0.0
  0
LINE
  5
3CB
  8
0
 10
8.85001
 20
3.395
 30
0.0
 11
9.14999
 21
3.395
 31
0.0
  0
LINE
  5
3CC
  8
0
 10
9.14999
 20
3.395
 30
0.0
 11
9.14999
 21
3.36501
 31
0.0
  0
LINE
  5
3CD
  8
0
 10
9.14999
 20
3.36501
 30
0.0
 11
8.85001
 21
3.36501
 31
0.0
  0
LINE
  5
3CE
  8
0
 10
8.85001
 20
3.32501
 30
0.0
 11
8.85001
 21
3.35501
 31
0.0
  0
LINE
  5
3CF
  8
0
 10
8.85001
 20
3.35501
 30
0.0
 11
9.14999
 21
3.35501
 31
0.0
  0
LINE
  5
3D0
  8
0
 10
9.14999
 20
3.35501
 30
0.0
 11
9.14999
 21
3.32501
 31
0.0
  0
LINE
  5
3D1
  8
0
 10
9.14999
 20
3.32501
 30
0.0
 11
8.85001
 21
3.32501
 31
0.0
  0
LINE
  5
3D2
  8
0
 10
8.85001
 20
3.285
 30
0.0
 11
8.85001
 21
3.315
 31
0.0
  0
LINE
  5
3D3
  8
0
 10
8.85001
 20
3.315
 30
0.0
 11
9.14999
 21
3.315
 31
0.0
  0
LINE
  5
3D4
  8
0
 10
9.14999
 20
3.315
 30
0.0
 11
9.14999
 21
3.285
 31
0.0
  0
LINE
  5
3D5
  8
0
 10
9.14999
 20
3.285
 30
0.0
 11
8.85001
 21
3.285
 31
0.0
  0
ENDSEC
  0
EOF
