  0
SECTION
  2
HEADER
  9
$ACADVER
  1
AC1009
  9
$DWGCODEPAGE
  3
ANSI_1252
  9
$INSBASE
 10
0.0
 20
0.0
 30
0.0
  9
$EXTMIN
 10
1e+20
 20
1e+20
 30
1e+20
  9
$EXTMAX
 10
-1e+20
 20
-1e+20
 30
-1e+20
  9
$LIMMIN
 10
0.0
 20
0.0
  9
$LIMMAX
 10
420.0
 20
297.0
  9
$ORTHOMODE
 70
0
  9
$REGENMODE
 70
1
  9
$FILLMODE
 70
1
  9
$DRAGMODE
 70
2
  9
$QTEXTMODE
 70
0
  9
$MIRRTEXT
 70
1
  9
$OSMODE
 70
20583
  9
$LTSCALE
 40
1.0
  9
$ATTMODE
 70
1
  9
$TEXTSIZE
 40
2.5
  9
$TRACEWID
 40
1.0
  9
$TEXTSTYLE
  7
Standard
  9
$CLAYER
  8
0
  9
$CELTYPE
  6
ByLayer
  9
$CECOLOR
 62
256
  9
$DIMSCALE
 40
1.0
  9
$DIMASZ
 40
2.5
  9
$DIMEXO
 40
0.625
  9
$DIMDLI
 40
3.75
  9
$DIMRND
 40
0.0
  9
$DIMDLE
 40
0.0
  9
$DIMEXE
 40
1.25
  9
$DIMTP
 40
0.0
  9
$DIMTM
 40
0.0
  9
$DIMTXT
 40
2.5
  9
$DIMCEN
 40
2.5
  9
$DIMTSZ
 40
0.0
  9
$DIMTOL
 70
0
  9
$DIMLIM
 70
0
  9
$DIMTIH
 70
0
  9
$DIMTOH
 70
0
  9
$DIMSE1
 70
0
  9
$DIMSE2
 70
0
  9
$DIMTAD
 70
1
  9
$DIMZIN
 70
8
  9
$DIMBLK
  1

  9
$DIMASO
 70
1
  9
$DIMSHO
 70
1
  9
$DIMPOST
  1

  9
$DIMAPOST
  1

  9
$DIMALT
 70
0
  9
$DIMALTD
 70
3
  9
$DIMALTF
 40
0.03937007874
  9
$DIMLFAC
 40
1.0
  9
$DIMTOFL
 70
1
  9
$DIMTVP
 40
0.0
  9
$DIMTIX
 70
0
  9
$DIMSOXD
 70
0
  9
$DIMSAH
 70
0
  9
$DIMBLK1
  1

  9
$DIMBLK2
  1

  9
$DIMSTYLE
  2
ISO-25
  9
$DIMCLRD
 70
0
  9
$DIMCLRE
 70
0
  9
$DIMCLRT
 70
0
  9
$DIMTFAC
 40
1.0
  9
$DIMGAP
 40
0.625
  9
$COORDS
 70
1
  9
$ATTDIA
 70
0
  9
$ATTREQ
 70
1
  9
$HANDLING
 70
1
  9
$LUNITS
 70
2
  9
$LUPREC
 70
4
  9
$SKETCHINC
 40
1.0
  9
$FILLETRAD
 40
10.0
  9
$AUNITS
 70
0
  9
$AUPREC
 70
2
  9
$MENU
  1
.
  9
$ELEVATION
 40
0.0
  9
$PELEVATION
 40
0.0
  9
$THICKNESS
 40
0.0
  9
$LIMCHECK
 70
0
  9
$CHAMFERA
 40
0.0
  9
$CHAMFERB
 40
0.0
  9
$SKPOLY
 70
0
  9
$TDCREATE
 40
2459869.9617939815
  9
$TDUPDATE
 40
2459869.9617939815
  9
$TDINDWG
 40
0.0
  9
$TDUSRTIMER
 40
0.0
  9
$USRTIMER
 70
1
  9
$ANGBASE
 50
0.0
  9
$ANGDIR
 70
0
  9
$PDMODE
 70
0
  9
$PDSIZE
 40
0.0
  9
$PLINEWID
 40
0.0
  9
$SPLFRAME
 70
0
  9
$SPLINETYPE
 70
6
  9
$SPLINESEGS
 70
8
  9
$HANDSEED
  5
223
  9
$SURFTAB1
 70
6
  9
$SURFTAB2
 70
6
  9
$SURFTYPE
 70
6
  9
$SURFU
 70
6
  9
$SURFV
 70
6
  9
$UCSNAME
  2

  9
$UCSORG
 10
0.0
 20
0.0
 30
0.0
  9
$UCSXDIR
 10
1.0
 20
0.0
 30
0.0
  9
$UCSYDIR
 10
0.0
 20
1.0
 30
0.0
  9
$PUCSNAME
  2

  9
$PUCSORG
 10
0.0
 20
0.0
 30
0.0
  9
$PUCSXDIR
 10
1.0
 20
0.0
 30
0.0
  9
$PUCSYDIR
 10
0.0
 20
1.0
 30
0.0
  9
$USERI1
 70
0
  9
$USERI2
 70
0
  9
$USERI3
 70
0
  9
$USERI4
 70
0
  9
$USERI5
 70
0
  9
$USERR1
 40
0.0
  9
$USERR2
 40
0.0
  9
$USERR3
 40
0.0
  9
$USERR4
 40
0.0
  9
$USERR5
 40
0.0
  9
$WORLDVIEW
 70
1
  9
$SHADEDGE
 70
3
  9
$SHADEDIF
 70
70
  9
$TILEMODE
 70
1
  9
$MAXACTVP
 70
64
  9
$PLIMCHECK
 70
0
  9
$PEXTMIN
 10
1e+20
 20
1e+20
 30
1e+20
  9
$PEXTMAX
 10
-1e+20
 20
-1e+20
 30
-1e+20
  9
$PLIMMIN
 10
0.0
 20
0.0
  9
$PLIMMAX
 10
420.0
 20
297.0
  9
$UNITMODE
 70
0
  9
$VISRETAIN
 70
1
  9
$PLINEGEN
 70
0
  9
$PSLTSCALE
 70
1
  0
ENDSEC
  0
SECTION
  2
TABLES
  0
TABLE
  2
VPORT
 70
1
  0
VPORT
  5
217
  2
*Active
 70
0
 10
0.0
 20
0.0
 11
1.0
 21
1.0
 12
0.0
 22
0.0
 13
0.0
 23
0.0
 14
0.5
 24
0.5
 15
0.5
 25
0.5
 16
0.0
 26
0.0
 36
1.0
 17
0.0
 27
0.0
 37
0.0
 40
1000.0
 41
1.34
 42
50.0
 43
0.0
 44
0.0
 50
0.0
 51
0.0
 71
0
 72
1000
 73
1
 74
3
 75
0
 76
0
 77
0
 78
0
  0
ENDTAB
  0
TABLE
  2
LTYPE
 70
3
  0
LTYPE
  5
218
  2
ByBlock
 70
0
  3

 72
65
 73
0
 40
0.0
  0
LTYPE
  5
219
  2
ByLayer
 70
0
  3

 72
65
 73
0
 40
0.0
  0
LTYPE
  5
21A
  2
Continuous
 70
0
  3

 72
65
 73
0
 40
0.0
  0
ENDTAB
  0
TABLE
  2
LAYER
 70
2
  0
LAYER
  5
21B
  2
0
 70
0
 62
7
  6
Continuous
  0
LAYER
  5
21C
  2
Defpoints
 70
0
 62
7
  6
Continuous
  0
ENDTAB
  0
TABLE
  2
STYLE
 70
1
  0
STYLE
  5
21D
  2
Standard
 70
0
 40
0.0
 41
1.0
 50
0.0
 71
0
 42
2.5
  3
txt
  4

  0
ENDTAB
  0
TABLE
  2
VIEW
 70
0
  0
ENDTAB
  0
TABLE
  2
UCS
 70
0
  0
ENDTAB
  0
TABLE
  2
APPID
 70
3
  0
APPID
  5
21E
  2
ACAD
 70
0
  0
APPID
  5
221
  2
HATCHBACKGROUNDCOLOR
 70
0
  0
APPID
  5
222
  2
EZDXF
 70
0
  0
ENDTAB
  0
TABLE
  2
DIMSTYLE
 70
1
  0
DIMSTYLE
105
21F
  2
Standard
 70
0
  3

  4

  5

  6

  7

 40
1.0
 41
2.5
 42
0.625
 43
3.75
 44
1.25
 45
0.0
 46
0.0
 47
0.0
 48
0.0
140
2.5
141
2.5
142
0.0
143
0.03937007874
144
1.0
145
0.0
146
1.0
147
0.625
 71
0
 72
0
 73
0
 74
0
 75
0
 76
0
 77
1
 78
8
170
0
171
3
172
1
173
0
174
0
175
0
176
0
177
0
178
0
  0
ENDTAB
  0
ENDSEC
  0
SECTION
  2
BLOCKS
  0
BLOCK
  5
1F8
  8
0
  2
$Model_Space
 70
0
 10
0.0
 20
0.0
 30
0.0
  3
$Model_Space
  1

1001
EZDXF
1000
WRITTEN_BY_EZDXF
1000
0.17.2 @ 2022-10-17T03:04:59.920868+00:00
  0
ENDBLK
  5
1F9
  8
0
  0
BLOCK
  5
1FA
  8
0
  2
$Paper_Space
 70
0
 10
0.0
 20
0.0
 30
0.0
  3
$Paper_Space
  1

  0
ENDBLK
  5
1FB
  8
0
  0
ENDSEC
  0
SECTION
  2
ENTITIES
  0
LINE
  5
100
  8
0
 10
3.69604
 20
1.50964
 30
0.0
 11
3.89018
 21
1.53844
 31
0.0
  0
LINE
  5
101
  8
0
 10
3.89018
 20
1.53844
 30
0.0
 11
4.08058
 21
1.58612
 31
0.0
  0
LINE
  5
102
  8
0
 10
4.08058
 20
1.58612
 30
0.0
 11
4.26538
 21
1.65225
 31
0.0
  0
LINE
  5
103
  8
0
 10
4.26538
 20
1.65225
 30
0.0
 11
4.44279
 21
1.73616
 31
0.0
  0
LINE
  5
104
  8
0
 10
4.44279
 20
1.73616
 30
0.0
 11
4.61115
 21
1.83707
 31
0.0
  0
LINE
  5
105
  8
0
 10
4.61115
 20
1.83707
 30
0.0
 11
4.7688
 21
1.95398
 31
0.0
  0
LINE
  5
106
  8
0
 10
4.7688
 20
1.95398
 30
0.0
 11
4.91422
 21
2.0858
 31
0.0
  0
LINE
  5
107
  8
0
 10
4.91422
 20
2.0858
 30
0.0
 11
5.04604
 21
2.23122
 31
0.0
  0
LINE
  5
108
  8
0
 10
5.04604
 20
2.23122
 30
0.0
 11
5.16295
 21
2.38887
 31
0.0
  0
LINE
  5
109
  8
0
 10
5.16295
 20
2.38887
 30
0.0
 11
5.26385
 21
2.55722
 31
0.0
  0
LINE
  5
10A
  8
0
 10
5.26385
 20
2.55722
 30
0.0
 11
5.34776
 21
2.73463
 31
0.0
  0
LINE
  5
10B
  8
0
 10
5.34776
 20
2.73463
 30
0.0
 11
5.41389
 21
2.91943
 31
0.0
  0
LINE
  5
10C
  8
0
 10
5.41389
 20
2.91943
 30
0.0
 11
5.46158
 21
3.10983
 31
0.0
  0
LINE
  5
10D
  8
0
 10
5.46158
 20
3.10983
 30
0.0
 11
5.49037
 21
3.30397
 31
0.0
  0
LINE
  5
10E
  8
0
 10
5.49037
 20
3.30397
 30
0.0
 11
5.5
 21
3.5
 31
0.0
  0
LINE
  5
10F
  8
0
 10
5.5
 20
3.5
 30
0.0
 11
5.49037
 21
3.69604
 31
0.0
  0
LINE
  5
110
  8
0
 10
5.49037
 20
3.69604
 30
0.0
 11
5.46158
 21
3.89018
 31
0.0
  0
LINE
  5
111
  8
0
 10
5.46158
 20
3.89018
 30
0.0
 11
5.43031
 21
4.01501
 31
0.0
  0
LINE
  5
112
  8
0
 10
5.43031
 20
4.01501
 30
0.0
 11
5.8
 21
4.01501
 31
0.0
  0
LINE
  5
113
  8
0
 10
5.8
 20
4.01501
 30
0.0
 11
5.8
 21
7.98499
 31
0.0
  0
LINE
  5
114
  8
0
 10
5.8
 20
7.98499
 30
0.0
 11
5.43031
 21
7.98499
 31
0.0
  0
LINE
  5
115
  8
0
 10
5.43031
 20
7.98499
 30
0.0
 11
5.46158
 21
8.10982
 31
0.0
  0
LINE
  5
116
  8
0
 10
5.46158
 20
8.10982
 30
0.0
 11
5.49037
 21
8.30396
 31
0.0
  0
LINE
  5
117
  8
0
 10
5.49037
 20
8.30396
 30
0.0
 11
5.5
 21
8.5
 31
0.0
  0
LINE
  5
118
  8
0
 10
5.5
 20
8.5
 30
0.0
 11
5.49037
 21
8.69603
 31
0.0
  0
LINE
  5
119
  8
0
 10
5.49037
 20
8.69603
 30
0.0
 11
5.46158
 21
8.89017
 31
0.0
  0
LINE
  5
11A
  8
0
 10
5.46158
 20
8.89017
 30
0.0
 11
5.41389
 21
9.08057
 31
0.0
  0
LINE
  5
11B
  8
0
 10
5.41389
 20
9.08057
 30
0.0
 11
5.34776
 21
9.26537
 31
0.0
  0
LINE
  5
11C
  8
0
 10
5.34776
 20
9.26537
 30
0.0
 11
5.26385
 21
9.44278
 31
0.0
  0
LINE
  5
11D
  8
0
 10
5.26385
 20
9.44278
 30
0.0
 11
5.16295
 21
9.61113
 31
0.0
  0
LINE
  5
11E
  8
0
 10
5.16295
 20
9.61113
 30
0.0
 11
5.04604
 21
9.76878
 31
0.0
  0
LINE
  5
11F
  8
0
 10
5.04604
 20
9.76878
 30
0.0
 11
4.91422
 21
9.9142
 31
0.0
  0
LINE
  5
120
  8
0
 10
4.91422
 20
9.9142
 30
0.0
 11
4.7688
 21
10.046
 31
0.0
  0
LINE
  5
121
  8
0
 10
4.7688
 20
10.046
 30
0.0
 11
4.61115
 21
10.1629
 31
0.0
  0
LINE
  5
122
  8
0
 10
4.61115
 20
10.1629
 30
0.0
 11
4.44279
 21
10.2638
 31
0.0
  0
LINE
  5
123
  8
0
 10
4.44279
 20
10.2638
 30
0.0
 11
4.26538
 21
10.3477
 31
0.0
  0
LINE
  5
124
  8
0
 10
4.26538
 20
10.3477
 30
0.0
 11
4.08058
 21
10.4139
 31
0.0
  0
LINE
  5
125
  8
0
 10
4.08058
 20
10.4139
 30
0.0
 11
3.89018
 21
10.4616
 31
0.0
  0
LINE
  5
126
  8
0
 10
3.89018
 20
10.4616
 30
0.0
 11
3.69604
 21
10.4904
 31
0.0
  0
LINE
  5
127
  8
0
 10
3.69604
 20
10.4904
 30
0.0
 11
3.5
 21
10.5
 31
0.0
  0
LINE
  5
128
  8
0
 10
3.5
 20
10.5
 30
0.0
 11
3.30397
 21
10.4904
 31
0.0
  0
LINE
  5
129
  8
0
 10
3.30397
 20
10.4904
 30
0.0
 11
3.10983
 21
10.4616
 31
0.0
  0
LINE
  5
12A
  8
0
 10
3.10983
 20
10.4616
 30
0.0
 11
2.91943
 21
10.4139
 31
0.0
  0
LINE
  5
12B
  8
0
 10
2.91943
 20
10.4139
 30
0.0
 11
2.73463
 21
10.3477
 31
0.0
  0
LINE
  5
12C
  8
0
 10
2.73463
 20
10.3477
 30
0.0
 11
2.55722
 21
10.2638
 31
0.0
  0
LINE
  5
12D
  8
0
 10
2.55722
 20
10.2638
 30
0.0
 11
2.38887
 21
10.1629
 31
0.0
  0
LINE
  5
12E
  8
0
 10
2.38887
 20
10.1629
 30
0.0
 11
2.23122
 21
10.046
 31
0.0
  0
LINE
  5
12F
  8
0
 10
2.23122
 20
10.046
 30
0.0
 11
2.0858
 21
9.9142
 31
0.0
  0
LINE
  5
130
  8
0
 10
2.0858
 20
9.9142
 30
0.0
 11
1.95398
 21
9.76878
 31
0.0
  0
LINE
  5
131
  8
0
 10
1.95398
 20
9.76878
 30
0.0
 11
1.83707
 21
9.61113
 31
0.0
  0
LINE
  5
132
  8
0
 10
1.83707
 20
9.61113
 30
0.0
 11
1.73616
 21
9.44278
 31
0.0
  0
LINE
  5
133
  8
0
 10
1.73616
 20
9.44278
 30
0.0
 11
1.65225
 21
9.26537
 31
0.0
  0
LINE
  5
134
  8
0
 10
1.65225
 20
9.26537
 30
0.0
 11
1.58612
 21
9.08057
 31
0.0
  0
LINE
  5
135
  8
0
 10
1.58612
 20
9.08057
 30
0.0
 11
1.53844
 21
8.89017
 31
0.0
  0
LINE
  5
136
  8
0
 10
1.53844
 20
8.89017
 30
0.0
 11
1.50964
 21
8.69603
 31
0.0
  0
LINE
  5
137
  8
0
 10
1.50964
 20
8.69603
 30
0.0
 11
1.5
 21
8.5
 31
0.0
  0
LINE
  5
138
  8
0
 10
1.5
 20
8.5
 30
0.0
 11
1.50964
 21
8.30396
 31
0.0
  0
LINE
  5
139
  8
0
 10
1.50964
 20
8.30396
 30
0.0
 11
1.53844
 21
8.10982
 31
0.0
  0
LINE
  5
13A
  8
0
 10
1.53844
 20
8.10982
 30
0.0
 11
1.58612
 21
7.91942
 31
0.0
  0
LINE
  5
13B
  8
0
 10
1.58612
 20
7.91942
 30
0.0
 11
1.65225
 21
7.73462
 31
0.0
  0
LINE
  5
13C
  8
0
 10
1.65225
 20
7.73462
 30
0.0
 11
1.73616
 21
7.55721
 31
0.0
  0
LINE
  5
13D
  8
0
 10
1.73616
 20
7.55721
 30
0.0
 11
1.83707
 21
7.38885
 31
0.0
  0
LINE
  5
13E
  8
0
 10
1.83707
 20
7.38885
 30
0.0
 11
1.95398
 21
7.2312
 31
0.0
  0
LINE
  5
13F
  8
0
 10
1.95398
 20
7.2312
 30
0.0
 11
2.0858
 21
7.08578
 31
0.0
  0
LINE
  5
140
  8
0
 10
2.0858
 20
7.08578
 30
0.0
 11
2.23122
 21
6.95396
 31
0.0
  0
LINE
  5
141
  8
0
 10
2.23122
 20
6.95396
 30
0.0
 11
2.38887
 21
6.83705
 31
0.0
  0
LINE
  5
142
  8
0
 10
2.38887
 20
6.83705
 30
0.0
 11
2.55722
 21
6.73615
 31
0.0
  0
LINE
  5
143
  8
0
 10
2.55722
 20
6.73615
 30
0.0
 11
2.73463
 21
6.65224
 31
0.0
  0
LINE
  5
144
  8
0
 10
2.73463
 20
6.65224
 30
0.0
 11
2.91943
 21
6.58611
 31
0.0
  0
LINE
  5
145
  8
0
 10
2.91943
 20
6.58611
 30
0.0
 11
3.10983
 21
6.53842
 31
0.0
  0
LINE
  5
146
  8
0
 10
3.10983
 20
6.53842
 30
0.0
 11
3.30397
 21
6.50963
 31
0.0
  0
LINE
  5
147
  8
0
 10
3.30397
 20
6.50963
 30
0.0
 11
3.5
 21
6.5
 31
0.0
  0
LINE
  5
148
  8
0
 10
3.5
 20
6.5
 30
0.0
 11
3.69604
 21
6.50963
 31
0.0
  0
LINE
  5
149
  8
0
 10
3.69604
 20
6.50963
 30
0.0
 11
3.89018
 21
6.53842
 31
0.0
  0
LINE
  5
14A
  8
0
 10
3.89018
 20
6.53842
 30
0.0
 11
4.08058
 21
6.58611
 31
0.0
  0
LINE
  5
14B
  8
0
 10
4.08058
 20
6.58611
 30
0.0
 11
4.26538
 21
6.65224
 31
0.0
  0
LINE
  5
14C
  8
0
 10
4.26538
 20
6.65224
 30
0.0
 11
4.44279
 21
6.73615
 31
0.0
  0
LINE
  5
14D
  8
0
 10
4.44279
 20
6.73615
 30
0.0
 11
4.5
 21
6.77043
 31
0.0
  0
LINE
  5
14E
  8
0
 10
4.5
 20
6.77043
 30
0.0
 11
4.5
 21
5.22957
 31
0.0
  0
LINE
  5
14F
  8
0
 10
4.5
 20
5.22957
 30
0.0
 11
4.44279
 21
5.26385
 31
0.0
  0
LINE
  5
150
  8
0
 10
4.44279
 20
5.26385
 30
0.0
 11
4.26538
 21
5.34776
 31
0.0
  0
LINE
  5
151
  8
0
 10
4.26538
 20
5.34776
 30
0.0
 11
4.08058
 21
5.41389
 31
0.0
  0
LINE
  5
152
  8
0
 10
4.08058
 20
5.41389
 30
0.0
 11
3.89018
 21
5.46158
 31
0.0
  0
LINE
  5
153
  8
0
 10
3.89018
 20
5.46158
 30
0.0
 11
3.69604
 21
5.49037
 31
0.0
  0
LINE
  5
154
  8
0
 10
3.69604
 20
5.49037
 30
0.0
 11
3.5
 21
5.5
 31
0.0
  0
LINE
  5
155
  8
0
 10
3.5
 20
5.5
 30
0.0
 11
3.30397
 21
5.49037
 31
0.0
  0
LINE
  5
156
  8
0
 10
3.30397
 20
5.49037
 30
0.0
 11
3.10983
 21
5.46158
 31
0.0
  0
LINE
  5
157
  8
0
 10
3.10983
 20
5.46158
 30
0.0
 11
2.91943
 21
5.41389
 31
0.0
  0
LINE
  5
158
  8
0
 10
2.91943
 20
5.41389
 30
0.0
 11
2.73463
 21
5.34776
 31
0.0
  0
LINE
  5
159
  8
0
 10
2.73463
 20
5.34776
 30
0.0
 11
2.55722
 21
5.26385
 31
0.0
  0
LINE
  5
15A
  8
0
 10
2.55722
 20
5.26385
 30
0.0
 11
2.38887
 21
5.16295
 31
0.0
  0
LINE
  5
15B
  8
0
 10
2.38887
 20
5.16295
 30
0.0
 11
2.23122
 21
5.04604
 31
0.0
  0
LINE
  5
15C
  8
0
 10
2.23122
 20
5.04604
 30
0.0
 11
2.0858
 21
4.91422
 31
0.0
  0
LINE
  5
15D
  8
0
 10
2.0858
 20
4.91422
 30
0.0
 11
1.95398
 21
4.7688
 31
0.0
  0
LINE
  5
15E
  8
0
 10
1.95398
 20
4.7688
 30
0.0
 11
1.83707
 21
4.61115
 31
0.0
  0
LINE
  5
15F
  8
0
 10
1.83707
 20
4.61115
 30
0.0
 11
1.73616
 21
4.44279
 31
0.0
  0
LINE
  5
160
  8
0
 10
1.73616
 20
4.44279
 30
0.0
 11
1.65225
 21
4.26538
 31
0.0
  0
LINE
  5
161
  8
0
 10
1.65225
 20
4.26538
 30
0.0
 11
1.58612
 21
4.08058
 31
0.0
  0
LINE
  5
162
  8
0
 10
1.58612
 20
4.08058
 30
0.0
 11
1.53844
 21
3.89018
 31
0.0
  0
LINE
  5
163
  8
0
 10
1.53844
 20
3.89018
 30
0.0
 11
1.50964
 21
3.69604
 31
0.0
  0
LINE
  5
164
  8
0
 10
1.50964
 20
3.69604
 30
0.0
 11
1.5
 21
3.5
 31
0.0
  0
LINE
  5
165
  8
0
 10
1.5
 20
3.5
 30
0.0
 11
1.50964
 21
3.30397
 31
0.0
  0
LINE
  5
166
  8
0
 10
1.50964
 20
3.30397
 30
0.0
 11
1.53844
 21
3.10983
 31
0.0
  0
LINE
  5
167
  8
0
 10
1.53844
 20
3.10983
 30
0.0
 11
1.58612
 21
2.91943
 31
0.0
  0
LINE
  5
168
  8
0
 10
1.58612
 20
2.91943
 30
0.0
 11
1.65225
 21
2.73463
 31
0.0
  0
LINE
  5
169
  8
0
 10
1.65225
 20
2.73463
 30
0.0
 11
1.73616
 21
2.55722
 31
0.0
  0
LINE
  5
16A
  8
0
 10
1.73616
 20
2.55722
 30
0.0
 11
1.83707
 21
2.38887
 31
0.0
  0
LINE
  5
16B
  8
0
 10
1.83707
 20
2.38887
 30
0.0
 11
1.95398
 21
2.23122
 31
0.0
  0
LINE
  5
16C
  8
0
 10
1.95398
 20
2.23122
 30
0.0
 11
2.0858
 21
2.0858
 31
0.0
  0
LINE
  5
16D
  8
0
 10
2.0858
 20
2.0858
 30
0.0
 11
2.23122
 21
1.95398
 31
0.0
  0
LINE
  5
16E
  8
0
 10
2.23122
 20
1.95398
 30
0.0
 11
2.38887
 21
1.83707
 31
0.0
  0
LINE
  5
16F
  8
0
 10
2.38887
 20
1.83707
 30
0.0
 11
2.55722
 21
1.73616
 31
0.0
  0
LINE
  5
170
  8
0
 10
2.55722
 20
1.73616
 30
0.0
 11
2.73463
 21
1.65225
 31
0.0
  0
LINE
  5
171
  8
0
 10
2.73463
 20
1.65225
 30
0.0
 11
2.91943
 21
1.58612
 31
0.0
  0
LINE
  5
172
  8
0
 10
2.91943
 20
1.58612
 30
0.0
 11
3.10983
 21
1.53844
 31
0.0
  0
LINE
  5
173
  8
0
 10
3.10983
 20
1.53844
 30
0.0
 11
3.30397
 21
1.50964
 31
0.0
  0
LINE
  5
174
  8
0
 10
3.30397
 20
1.50964
 30
0.0
 11
3.5
 21
1.5
 31
0.0
  0
LINE
  5
175
  8
0
 10
3.5
 20
1.5
 30
0.0
 11
3.69604
 21
1.50964
 31
0.0
  0
LINE
  5
176
  8
0
 10
8.69603
 20
1.50964
 30
0.0
 11
8.89017
 21
1.53844
 31
0.0
  0
LINE
  5
177
  8
0
 10
8.89017
 20
1.53844
 30
0.0
 11
9.08057
 21
1.58612
 31
0.0
  0
LINE
  5
178
  8
0
 10
9.08057
 20
1.58612
 30
0.0
 11
9.26537
 21
1.65225
 31
0.0
  0
LINE
  5
179
  8
0
 10
9.26537
 20
1.65225
 30
0.0
 11
9.44278
 21
1.73616
 31
0.0
  0
LINE
  5
17A
  8
0
 10
9.44278
 20
1.73616
 30
0.0
 11
9.61113
 21
1.83707
 31
0.0
  0
LINE
  5
17B
  8
0
 10
9.61113
 20
1.83707
 30
0.0
 11
9.76878
 21
1.95398
 31
0.0
  0
LINE
  5
17C
  8
0
 10
9.76878
 20
1.95398
 30
0.0
 11
9.9142
 21
2.0858
 31
0.0
  0
LINE
  5
17D
  8
0
 10
9.9142
 20
2.0858
 30
0.0
 11
10.046
 21
2.23122
 31
0.0
  0
LINE
  5
17E
  8
0
 10
10.046
 20
2.23122
 30
0.0
 11
10.1629
 21
2.38887
 31
0.0
  0
LINE
  5
17F
  8
0
 10
10.1629
 20
2.38887
 30
0.0
 11
10.2638
 21
2.55722
 31
0.0
  0
LINE
  5
180
  8
0
 10
10.2638
 20
2.55722
 30
0.0
 11
10.3477
 21
2.73463
 31
0.0
  0
LINE
  5
181
  8
0
 10
10.3477
 20
2.73463
 30
0.0
 11
10.4139
 21
2.91943
 31
0.0
  0
LINE
  5
182
  8
0
 10
10.4139
 20
2.91943
 30
0.0
 11
10.4616
 21
3.10983
 31
0.0
  0
LINE
  5
183
  8
0
 10
10.4616
 20
3.10983
 30
0.0
 11
10.4904
 21
3.30397
 31
0.0
  0
LINE
  5
184
  8
0
 10
10.4904
 20
3.30397
 30
0.0
 11
10.5
 21
3.5
 31
0.0
  0
LINE
  5
185
  8
0
 10
10.5
 20
3.5
 30
0.0
 11
10.4904
 21
3.69604
 31
0.0
  0
LINE
  5
186
  8
0
 10
10.4904
 20
3.69604
 30
0.0
 11
10.4616
 21
3.89018
 31
0.0
  0
LINE
  5
187
  8
0
 10
10.4616
 20
3.89018
 30
0.0
 11
10.4139
 21
4.08058
 31
0.0
  0
LINE
  5
188
  8
0
 10
10.4139
 20
4.08058
 30
0.0
 11
10.3477
 21
4.26538
 31
0.0
  0
LINE
  5
189
  8
0
 10
10.3477
 20
4.26538
 30
0.0
 11
10.2638
 21
4.44279
 31
0.0
  0
LINE
  5
18A
  8
0
 10
10.2638
 20
4.44279
 30
0.0
 11
10.1629
 21
4.61115
 31
0.0
  0
LINE
  5
18B
  8
0
 10
10.1629
 20
4.61115
 30
0.0
 11
10.046
 21
4.7688
 31
0.0
  0
LINE
  5
18C
  8
0
 10
10.046
 20
4.7688
 30
0.0
 11
9.9142
 21
4.91422
 31
0.0
  0
LINE
  5
18D
  8
0
 10
9.9142
 20
4.91422
 30
0.0
 11
9.76878
 21
5.04604
 31
0.0
  0
LINE
  5
18E
  8
0
 10
9.76878
 20
5.04604
 30
0.0
 11
9.61113
 21
5.16295
 31
0.0
  0
LINE
  5
18F
  8
0
 10
9.61113
 20
5.16295
 30
0.0
 11
9.44278
 21
5.26385
 31
0.0
  0
LINE
  5
190
  8
0
 10
9.44278
 20
5.26385
 30
0.0
 11
9.26537
 21
5.34776
 31
0.0
  0
LINE
  5
191
  8
0
 10
9.26537
 20
5.34776
 30
0.0
 11
9.08057
 21
5.41389
 31
0.0
  0
LINE
  5
192
  8
0
 10
9.08057
 20
5.41389
 30
0.0
 11
8.89017
 21
5.46158
 31
0.0
  0
LINE
  5
193
  8
0
 10
8.89017
 20
5.46158
 30
0.0
 11
8.69603
 21
5.49037
 31
0.0
  0
LINE
  5
194
  8
0
 10
8.69603
 20
5.49037
 30
0.0
 11
8.5
 21
5.5
 31
0.0
  0
LINE
  5
195
  8
0
 10
8.5
 20
5.5
 30
0.0
 11
8.30396
 21
5.49037
 31
0.0
  0
LINE
  5
196
  8
0
 10
8.30396
 20
5.49037
 30
0.0
 11
8.10982
 21
5.46158
 31
0.0
  0
LINE
  5
197
  8
0
 10
8.10982
 20
5.46158
 30
0.0
 11
7.91942
 21
5.41389
 31
0.0
  0
LINE
  5
198
  8
0
 10
7.91942
 20
5.41389
 30
0.0
 11
7.73462
 21
5.34776
 31
0.0
  0
LINE
  5
199
  8
0
 10
7.73462
 20
5.34776
 30
0.0
 11
7.55721
 21
5.26385
 31
0.0
  0
LINE
  5
19A
  8
0
 10
7.55721
 20
5.26385
 30
0.0
 11
7.5
 21
5.22957
 31
0.0
  0
LINE
  5
19B
  8
0
 10
7.5
 20
5.22957
 30
0.0
 11
7.5
 21
6.77043
 31
0.0
  0
LINE
  5
19C
  8
0
 10
7.5
 20
6.77043
 30
0.0
 11
7.55721
 21
6.73615
 31
0.0
  0
LINE
  5
19D
  8
0
 10
7.55721
 20
6.73615
 30
0.0
 11
7.73462
 21
6.65224
 31
0.0
  0
LINE
  5
19E
  8
0
 10
7.73462
 20
6.65224
 30
0.0
 11
7.91942
 21
6.58611
 31
0.0
  0
LINE
  5
19F
  8
0
 10
7.91942
 20
6.58611
 30
0.0
 11
8.10982
 21
6.53842
 31
0.0
  0
LINE
  5
1A0
  8
0
 10
8.10982
 20
6.53842
 30
0.0
 11
8.30396
 21
6.50963
 31
0.0
  0
LINE
  5
1A1
  8
0
 10
8.30396
 20
6.50963
 30
0.0
 11
8.5
 21
6.5
 31
0.0
  0
LINE
  5
1A2
  8
0
 10
8.5
 20
6.5
 30
0.0
 11
8.69603
 21
6.50963
 31
0.0
  0
LINE
  5
1A3
  8
0
 10
8.69603
 20
6.50963
 30
0.0
 11
8.89017
 21
6.53842
 31
0.0
  0
LINE
  5
1A4
  8
0
 10
8.89017
 20
6.53842
 30
0.0
 11
9.08057
 21
6.58611
 31
0.0
  0
LINE
  5
1A5
  8
0
 10
9.08057
 20
6.58611
 30
0.0
 11
9.26537
 21
6.65224
 31
0.0
  0
LINE
  5
1A6
  8
0
 10
9.26537
 20
6.65224
 30
0.0
 11
9.44278
 21
6.73615
 31
0.0
  0
LINE
  5
1A7
  8
0
 10
9.44278
 20
6.73615
 30
0.0
 11
9.61113
 21
6.83705
 31
0.0
  0
LINE
  5
1A8
  8
0
 10
9.61113
 20
6.83705
 30
0.0
 11
9.76878
 21
6.95396
 31
0.0
  0
LINE
  5
1A9
  8
0
 10
9.76878
 20
6.95396
 30
0.0
 11
9.9142
 21
7.08578
 31
0.0
  0
LINE
  5
1AA
  8
0
 10
9.9142
 20
7.08578
 30
0.0
 11
10.046
 21
7.2312
 31
0.0
  0
LINE
  5
1AB
  8
0
 10
10.046
 20
7.2312
 30
0.0
 11
10.1629
 21
7.38885
 31
0.0
  0
LINE
  5
1AC
  8
0
 10
10.1629
 20
7.38885
 30
0.0
 11
10.2638
 21
7.55721
 31
0.0
  0
LINE
  5
1AD
  8
0
 10
10.2638
 20
7.55721
 30
0.0
 11
10.3477
 21
7.73462
 31
0.0
  0
LINE
  5
1AE
  8
0
 10
10.3477
 20
7.73462
 30
0.0
 11
10.4139
 21
7.91942
 31
0.0
  0
LINE
  5
1AF
  8
0
 10
10.4139
 20
7.91942
 30
0.0
 11
10.4616
 21
8.10982
 31
0.0
  0
LINE
  5
1B0
  8
0
 10
10.4616
 20
8.10982
 30
0.0
 11
10.4904
 21
8.30396
 31
0.0
  0
LINE
  5
1B1
  8
0
 10
10.4904
 20
8.30396
 30
0.0
 11
10.5
 21
8.5
 31
0.0
  0
LINE
  5
1B2
  8
0
 10
10.5
 20
8.5
 30
0.0
 11
10.4904
 21
8.69603
 31
0.0
  0
LINE
  5
1B3
  8
0
 10
10.4904
 20
8.69603
 30
0.0
 11
10.4616
 21
8.89017
 31
0.0
  0
LINE
  5
1B4
  8
0
 10
10.4616
 20
8.89017
 30
0.0
 11
10.4139
 21
9.08057
 31
0.0
  0
LINE
  5
1B5
  8
0
 10
10.4139
 20
9.08057
 30
0.0
 11
10.3477
 21
9.26537
 31
0.0
  0
LINE
  5
1B6
  8
0
 10
10.3477
 20
9.26537
 30
0.0
 11
10.2638
 21
9.44278
 31
0.0
  0
LINE
  5
1B7
  8
0
 10
10.2638
 20
9.44278
 30
0.0
 11
10.1629
 21
9.61113
 31
0.0
  0
LINE
  5
1B8
  8
0
 10
10.1629
 20
9.61113
 30
0.0
 11
10.046
 21
9.76878
 31
0.0
  0
LINE
  5
1B9
  8
0
 10
10.046
 20
9.76878
 30
0.0
 11
9.9142
 21
9.9142
 31
0.0
  0
LINE
  5
1BA
  8
0
 10
9.9142
 20
9.9142
 30
0.0
 11
9.76878
 21
10.046
 31
0.0
  0
LINE
  5
1BB
  8
0
 10
9.76878
 20
10.046
 30
0.0
 11
9.61113
 21
10.1629
 31
0.0
  0
LINE
  5
1BC
  8
0
 10
9.61113
 20
10.1629
 30
0.0
 11
9.44278
 21
10.2638
 31
0.0
  0
LINE
  5
1BD
  8
0
 10
9.44278
 20
10.2638
 30
0.0
 11
9.26537
 21
10.3477
 31
0.0
  0
LINE
  5
1BE
  8
0
 10
9.26537
 20
10.3477
 30
0.0
 11
9.08057
 21
10.4139
 31
0.0
  0
LINE
  5
1BF
  8
0
 10
9.08057
 20
10.4139
 30
0.0
 11
8.89017
 21
10.4616
 31
0.0
  0
LINE
  5
1C0
  8
0
 10
8.89017
 20
10.4616
 30
0.0
 11
8.69603
 21
10.4904
 31
0.0
  0
LINE
  5
1C1
  8
0
 10
8.69603
 20
10.4904
 30
0.0
 11
8.5
 21
10.5
 31
0.0
  0
LINE
  5
1C2
  8
0
 10
8.5
 20
10.5
 30
0.0
 11
8.30396
 21
10.4904
 31
0.0
  0
LINE
  5
1C3
  8
0
 10
8.30396
 20
10.4904
 30
0.0
 11
8.10982
 21
10.4616
 31
0.0
  0
LINE
  5
1C4
  8
0
 10
8.10982
 20
10.4616
 30
0.0
 11
7.91942
 21
10.4139
 31
0.0
  0
LINE
  5
1C5
  8
0
 10
7.91942
 20
10.4139
 30
0.0
 11
7.73462
 21
10.3477
 31
0.0
  0
LINE
  5
1C6
  8
0
 10
7.73462
 20
10.3477
 30
0.0
 11
7.55721
 21
10.2638
 31
0.0
  0
LINE
  5
1C7
  8
0
 10
7.55721
 20
10.2638
 30
0.0
 11
7.38885
 21
10.1629
 31
0.0
  0
LINE
  5
1C8
  8
0
 10
7.38885
 20
10.1629
 30
0.0
 11
7.2312
 21
10.046
 31
0.0
  0
LINE
  5
1C9
  8
0
 10
7.2312
 20
10.046
 30
0.0
 11
7.08578
 21
9.9142
 31
0.0
  0
LINE
  5
1CA
  8
0
 10
7.08578
 20
9.9142
 30
0.0
 11
6.95396
 21
9.76878
 31
0.0
  0
LINE
  5
1CB
  8
0
 10
6.95396
 20
9.76878
 30
0.0
 11
6.83705
 21
9.61113
 31
0.0
  0
LINE
  5
1CC
  8
0
 10
6.83705
 20
9.61113
 30
0.0
 11
6.73615
 21
9.44278
 31
0.0
  0
LINE
  5
1CD
  8
0
 10
6.73615
 20
9.44278
 30
0.0
 11
6.65224
 21
9.26537
 31
0.0
  0
LINE
  5
1CE
  8
0
 10
6.65224
 20
9.26537
 30
0.0
 11
6.58611
 21
9.08057
 31
0.0
  0
LINE
  5
1CF
  8
0
 10
6.58611
 20
9.08057
 30
0.0
 11
6.53842
 21
8.89017
 31
0.0
  0
LINE
  5
1D0
  8
0
 10
6.53842
 20
8.89017
 30
0.0
 11
6.50963
 21
8.69603
 31
0.0
  0
LINE
  5
1D1
  8
0
 10
6.50963
 20
8.69603
 30
0.0
 11
6.5
 21
8.5
 31
0.0
  0
LINE
  5
1D2
  8
0
 10
6.5
 20
8.5
 30
0.0
 11
6.50963
 21
8.30396
 31
0.0
  0
LINE
  5
1D3
  8
0
 10
6.50963
 20
8.30396
 30
0.0
 11
6.53842
 21
8.10982
 31
0.0
  0
LINE
  5
1D4
  8
0
 10
6.53842
 20
8.10982
 30
0.0
 11
6.56969
 21
7.98499
 31
0.0
  0
LINE
  5
1D5
  8
0
 10
6.56969
 20
7.98499
 30
0.0
 11
6.2
 21
7.98499
 31
0.0
  0
LINE
  5
1D6
  8
0
 10
6.2
 20
7.98499
 30
0.0
 11
6.2
 21
4.01501
 31
0.0
  0
LINE
  5
1D7
  8
0
 10
6.2
 20
4.01501
 30
0.0
 11
6.56969
 21
4.01501
 31
0.0
  0
LINE
  5
1D8
  8
0
 10
6.56969
 20
4.01501
 30
0.0
 11
6.53842
 21
3.89018
 31
0.0
  0
LINE
  5
1D9
  8
0
 10
6.53842
 20
3.89018
 30
0.0
 11
6.50963
 21
3.69604
 31
0.0
  0
LINE
  5
1DA
  8
0
 10
6.50963
 20
3.69604
 30
0.0
 11
6.5
 21
3.5
 31
0.0
  0
LINE
  5
1DB
  8
0
 10
6.5
 20
3.5
 30
0.0
 11
6.50963
 21
3.30397
 31
0.0
  0
LINE
  5
1DC
  8
0
 10
6.50963
 20
3.30397
 30
0.0
 11
6.53842
 21
3.10983
 31
0.0
  0
LINE
  5
1DD
  8
0
 10
6.53842
 20
3.10983
 30
0.0
 11
6.58611
 21
2.91943
 31
0.0
  0
LINE
  5
1DE
  8
0
 10
6.58611
 20
2.91943
 30
0.0
 11
6.65224
 21
2.73463
 31
0.0
  0
LINE
  5
1DF
  8
0
 10
6.65224
 20
2.73463
 30
0.0
 11
6.73615
 21
2.55722
 31
0.0
  0
LINE
  5
1E0
  8
0
 10
6.73615
 20
2.55722
 30
0.0
 11
6.83705
 21
2.38887
 31
0.0
  0
LINE
  5
1E1
  8
0
 10
6.83705
 20
2.38887
 30
0.0
 11
6.95396
 21
2.23122
 31
0.0
  0
LINE
  5
1E2
  8
0
 10
6.95396
 20
2.23122
 30
0.0
 11
7.08578
 21
2.0858
 31
0.0
  0
LINE
  5
1E3
  8
0
 10
7.08578
 20
2.0858
 30
0.0
 11
7.2312
 21
1.95398
 31
0.0
  0
LINE
  5
1E4
  8
0
 10
7.2312
 20
1.95398
 30
0.0
 11
7.38885
 21
1.83707
 31
0.0
  0
LINE
  5
1E5
  8
0
 10
7.38885
 20
1.83707
 30
0.0
 11
7.55721
 21
1.73616
 31
0.0
  0
LINE
  5
1E6
  8
0
 10
7.55721
 20
1.73616
 30
0.0
 11
7.73462
 21
1.65225
 31
0.0
  0
LINE
  5
1E7
  8
0
 10
7.73462
 20
1.65225
 30
0.0
 11
7.91942
 21
1.58612
 31
0.0
  0
LINE
  5
1E8
  8
0
 10
7.91942
 20
1.58612
 30
0.0
 11
8.10982
 21
1.53844
 31
0.0
  0
LINE
  5
1E9
  8
0
 10
8.10982
 20
1.53844
 30
0.0
 11
8.30396
 21
1.50964
 31
0.0
  0
LINE
  5
1EA
  8
0
 10
8.30396
 20
1.50964
 30
0.0
 11
8.5
 21
1.5
 31
0.0
  0
LINE
  5
1EB
  8
0
 10
8.5
 20
1.5
 30
0.0
 11
8.69603
 21
1.50964
 31
0.0
  0
ENDSEC
  0
EOF
