  0
SECTION
  2
HEADER
  9
$ACADVER
  1
AC1009
  9
$DWGCODEPAGE
  3
ANSI_1252
  9
$INSBASE
 10
0.0
 20
0.0
 30
0.0
  9
$EXTMIN
 10
1e+20
 20
1e+20
 30
1e+20
  9
$EXTMAX
 10
-1e+20
 20
-1e+20
 30
-1e+20
  9
$LIMMIN
 10
0.0
 20
0.0
  9
$LIMMAX
 10
420.0
 20
297.0
  9
$ORTHOMODE
 70
0
  9
$REGENMODE
 70
1
  9
$FILLMODE
 70
1
  9
$DRAGMODE
 70
2
  9
$QTEXTMODE
 70
0
  9
$MIRRTEXT
 70
1
  9
$OSMODE
 70
20583
  9
$LTSCALE
 40
1.0
  9
$ATTMODE
 70
1
  9
$TEXTSIZE
 40
2.5
  9
$TRACEWID
 40
1.0
  9
$TEXTSTYLE
  7
Standard
  9
$CLAYER
  8
0
  9
$CELTYPE
  6
ByLayer
  9
$CECOLOR
 62
256
  9
$DIMSCALE
 40
1.0
  9
$DIMASZ
 40
2.5
  9
$DIMEXO
 40
0.625
  9
$DIMDLI
 40
3.75
  9
$DIMRND
 40
0.0
  9
$DIMDLE
 40
0.0
  9
$DIMEXE
 40
1.25
  9
$DIMTP
 40
0.0
  9
$DIMTM
 40
0.0
  9
$DIMTXT
 40
2.5
  9
$DIMCEN
 40
2.5
  9
$DIMTSZ
 40
0.0
  9
$DIMTOL
 70
0
  9
$DIMLIM
 70
0
  9
$DIMTIH
 70
0
  9
$DIMTOH
 70
0
  9
$DIMSE1
 70
0
  9
$DIMSE2
 70
0
  9
$DIMTAD
 70
1
  9
$DIMZIN
 70
8
  9
$DIMBLK
  1

  9
$DIMASO
 70
1
  9
$DIMSHO
 70
1
  9
$DIMPOST
  1

  9
$DIMAPOST
  1

  9
$DIMALT
 70
0
  9
$DIMALTD
 70
3
  9
$DIMALTF
 40
0.03937007874
  9
$DIMLFAC
 40
1.0
  9
$DIMTOFL
 70
1
  9
$DIMTVP
 40
0.0
  9
$DIMTIX
 70
0
  9
$DIMSOXD
 70
0
  9
$DIMSAH
 70
0
  9
$DIMBLK1
  1

  9
$DIMBLK2
  1

  9
$DIMSTYLE
  2
ISO-25
  9
$DIMCLRD
 70
0
  9
$DIMCLRE
 70
0
  9
$DIMCLRT
 70
0
  9
$DIMTFAC
 40
1.0
  9
$DIMGAP
 40
0.625
  9
$COORDS
 70
1
  9
$ATTDIA
 70
0
  9
$ATTREQ
 70
1
  9
$HANDLING
 70
1
  9
$LUNITS
 70
2
  9
$LUPREC
 70
4
  9
$SKETCHINC
 40
1.0
  9
$FILLETRAD
 40
10.0
  9
$AUNITS
 70
0
  9
$AUPREC
 70
2
  9
$MENU
  1
.
  9
$ELEVATION
 40
0.0
  9
$PELEVATION
 40
0.0
  9
$THICKNESS
 40
0.0
  9
$LIMCHECK
 70
0
  9
$CHAMFERA
 40
0.0
  9
$CHAMFERB
 40
0.0
  9
$SKPOLY
 70
0
  9
$TDCREATE
 40
2460593.9527199073
  9
$TDUPDATE
 40
2460593.9527199073
  9
$TDINDWG
 40
0.0
  9
$TDUSRTIMER
 40
0.0
  9
$USRTIMER
 70
1
  9
$ANGBASE
 50
0.0
  9
$ANGDIR
 70
0
  9
$PDMODE
 70
0
  9
$PDSIZE
 40
0.0
  9
$PLINEWID
 40
0.0
  9
$SPLFRAME
 70
0
  9
$SPLINETYPE
 70
6
  9
$SPLINESEGS
 70
8
  9
$HANDSEED
  5
361
  9
$SURFTAB1
 70
6
  9
$SURFTAB2
 70
6
  9
$SURFTYPE
 70
6
  9
$SURFU
 70
6
  9
$SURFV
 70
6
  9
$UCSNAME
  2

  9
$UCSORG
 10
0.0
 20
0.0
 30
0.0
  9
$UCSXDIR
 10
1.0
 20
0.0
 30
0.0
  9
$UCSYDIR
 10
0.0
 20
1.0
 30
0.0
  9
$PUCSNAME
  2

  9
$PUCSORG
 10
0.0
 20
0.0
 30
0.0
  9
$PUCSXDIR
 10
1.0
 20
0.0
 30
0.0
  9
$PUCSYDIR
 10
0.0
 20
1.0
 30
0.0
  9
$USERI1
 70
0
  9
$USERI2
 70
0
  9
$USERI3
 70
0
  9
$USERI4
 70
0
  9
$USERI5
 70
0
  9
$USERR1
 40
0.0
  9
$USERR2
 40
0.0
  9
$USERR3
 40
0.0
  9
$USERR4
 40
0.0
  9
$USERR5
 40
0.0
  9
$WORLDVIEW
 70
1
  9
$SHADEDGE
 70
3
  9
$SHADEDIF
 70
70
  9
$TILEMODE
 70
1
  9
$MAXACTVP
 70
64
  9
$PLIMCHECK
 70
0
  9
$PEXTMIN
 10
1e+20
 20
1e+20
 30
1e+20
  9
$PEXTMAX
 10
-1e+20
 20
-1e+20
 30
-1e+20
  9
$PLIMMIN
 10
0.0
 20
0.0
  9
$PLIMMAX
 10
420.0
 20
297.0
  9
$UNITMODE
 70
0
  9
$VISRETAIN
 70
1
  9
$PLINEGEN
 70
0
  9
$PSLTSCALE
 70
1
  0
ENDSEC
  0
SECTION
  2
TABLES
  0
TABLE
  2
VPORT
 70
1
  0
VPORT
  5
355
  2
*Active
 70
0
 10
0.0
 20
0.0
 11
1.0
 21
1.0
 12
0.0
 22
0.0
 13
0.0
 23
0.0
 14
0.5
 24
0.5
 15
0.5
 25
0.5
 16
0.0
 26
0.0
 36
1.0
 17
0.0
 27
0.0
 37
0.0
 40
1000.0
 41
1.34
 42
50.0
 43
0.0
 44
0.0
 50
0.0
 51
0.0
 71
0
 72
1000
 73
1
 74
3
 75
0
 76
0
 77
0
 78
0
  0
ENDTAB
  0
TABLE
  2
LTYPE
 70
3
  0
LTYPE
  5
356
  2
ByBlock
 70
0
  3

 72
65
 73
0
 40
0.0
  0
LTYPE
  5
357
  2
ByLayer
 70
0
  3

 72
65
 73
0
 40
0.0
  0
LTYPE
  5
358
  2
Continuous
 70
0
  3

 72
65
 73
0
 40
0.0
  0
ENDTAB
  0
TABLE
  2
LAYER
 70
2
  0
LAYER
  5
359
  2
0
 70
0
 62
7
  6
Continuous
  0
LAYER
  5
35A
  2
Defpoints
 70
0
 62
7
  6
Continuous
  0
ENDTAB
  0
TABLE
  2
STYLE
 70
1
  0
STYLE
  5
35B
  2
Standard
 70
0
 40
0.0
 41
1.0
 50
0.0
 71
0
 42
2.5
  3
txt
  4

  0
ENDTAB
  0
TABLE
  2
VIEW
 70
0
  0
ENDTAB
  0
TABLE
  2
UCS
 70
0
  0
ENDTAB
  0
TABLE
  2
APPID
 70
3
  0
APPID
  5
35C
  2
ACAD
 70
0
  0
APPID
  5
35F
  2
HATCHBACKGROUNDCOLOR
 70
0
  0
APPID
  5
360
  2
EZDXF
 70
0
  0
ENDTAB
  0
TABLE
  2
DIMSTYLE
 70
1
  0
DIMSTYLE
105
35D
  2
Standard
 70
0
  3

  4

  5

  6

  7

 40
1.0
 41
2.5
 42
0.625
 43
3.75
 44
1.25
 45
0.0
 46
0.0
 47
0.0
 48
0.0
140
2.5
141
2.5
142
0.0
143
0.03937007874
144
1.0
145
0.0
146
1.0
147
0.625
 71
0
 72
0
 73
0
 74
0
 75
0
 76
0
 77
1
 78
8
170
0
171
3
172
1
173
0
174
0
175
0
176
0
177
0
178
0
  0
ENDTAB
  0
ENDSEC
  0
SECTION
  2
BLOCKS
  0
BLOCK
  5
336
  8
0
  2
$Model_Space
 70
0
 10
0.0
 20
0.0
 30
0.0
  3
$Model_Space
  1

1001
EZDXF
1000
WRITTEN_BY_EZDXF
1000
1.3.3 @ 2024-10-10T02:51:55.265976+00:00
  0
ENDBLK
  5
337
  8
0
  0
BLOCK
  5
338
  8
0
  2
$Paper_Space
 70
0
 10
0.0
 20
0.0
 30
0.0
  3
$Paper_Space
  1

  0
ENDBLK
  5
339
  8
0
  0
ENDSEC
  0
SECTION
  2
ENTITIES
  0
LINE
  5
100
  8
0
 10
2.42642
 20
0.458679
 30
0.0
 11
2.60115
 21
0.484589
 31
0.0
  0
LINE
  5
101
  8
0
 10
2.60115
 20
0.484589
 30
0.0
 11
2.77251
 21
0.527512
 31
0.0
  0
LINE
  5
102
  8
0
 10
2.77251
 20
0.527512
 30
0.0
 11
2.93883
 21
0.587021
 31
0.0
  0
LINE
  5
103
  8
0
 10
2.93883
 20
0.587021
 30
0.0
 11
3.09851
 21
0.662552
 31
0.0
  0
LINE
  5
104
  8
0
 10
3.09851
 20
0.662552
 30
0.0
 11
3.25002
 21
0.753357
 31
0.0
  0
LINE
  5
105
  8
0
 10
3.25002
 20
0.753357
 30
0.0
 11
3.39191
 21
0.858582
 31
0.0
  0
LINE
  5
106
  8
0
 10
3.39191
 20
0.858582
 30
0.0
 11
3.52278
 21
0.977219
 31
0.0
  0
LINE
  5
107
  8
0
 10
3.52278
 20
0.977219
 30
0.0
 11
3.64142
 21
1.10809
 31
0.0
  0
LINE
  5
108
  8
0
 10
3.64142
 20
1.10809
 30
0.0
 11
3.74664
 21
1.24998
 31
0.0
  0
LINE
  5
109
  8
0
 10
3.74664
 20
1.24998
 30
0.0
 11
3.83745
 21
1.40149
 31
0.0
  0
LINE
  5
10A
  8
0
 10
3.83745
 20
1.40149
 30
0.0
 11
3.91298
 21
1.56117
 31
0.0
  0
LINE
  5
10B
  8
0
 10
3.91298
 20
1.56117
 30
0.0
 11
3.97249
 21
1.72749
 31
0.0
  0
LINE
  5
10C
  8
0
 10
3.97249
 20
1.72749
 30
0.0
 11
4.01541
 21
1.89885
 31
0.0
  0
LINE
  5
10D
  8
0
 10
4.01541
 20
1.89885
 30
0.0
 11
4.04132
 21
2.07358
 31
0.0
  0
LINE
  5
10E
  8
0
 10
4.04132
 20
2.07358
 30
0.0
 11
4.04999
 21
2.25
 31
0.0
  0
LINE
  5
10F
  8
0
 10
4.04999
 20
2.25
 30
0.0
 11
4.04999
 21
4.35001
 31
0.0
  0
LINE
  5
110
  8
0
 10
4.04999
 20
4.35001
 30
0.0
 11
3.13499
 21
4.35001
 31
0.0
  0
LINE
  5
111
  8
0
 10
3.13499
 20
4.35001
 30
0.0
 11
3.13499
 21
4.64999
 31
0.0
  0
LINE
  5
112
  8
0
 10
3.13499
 20
4.64999
 30
0.0
 11
4.04999
 21
4.64999
 31
0.0
  0
LINE
  5
113
  8
0
 10
4.04999
 20
4.64999
 30
0.0
 11
4.04999
 21
6.75
 31
0.0
  0
LINE
  5
114
  8
0
 10
4.04999
 20
6.75
 30
0.0
 11
4.04132
 21
6.92642
 31
0.0
  0
LINE
  5
115
  8
0
 10
4.04132
 20
6.92642
 30
0.0
 11
4.01541
 21
7.10115
 31
0.0
  0
LINE
  5
116
  8
0
 10
4.01541
 20
7.10115
 30
0.0
 11
3.97249
 21
7.27251
 31
0.0
  0
LINE
  5
117
  8
0
 10
3.97249
 20
7.27251
 30
0.0
 11
3.91298
 21
7.43883
 31
0.0
  0
LINE
  5
118
  8
0
 10
3.91298
 20
7.43883
 30
0.0
 11
3.83745
 21
7.59851
 31
0.0
  0
LINE
  5
119
  8
0
 10
3.83745
 20
7.59851
 30
0.0
 11
3.74664
 21
7.75002
 31
0.0
  0
LINE
  5
11A
  8
0
 10
3.74664
 20
7.75002
 30
0.0
 11
3.64142
 21
7.89191
 31
0.0
  0
LINE
  5
11B
  8
0
 10
3.64142
 20
7.89191
 30
0.0
 11
3.52278
 21
8.02278
 31
0.0
  0
LINE
  5
11C
  8
0
 10
3.52278
 20
8.02278
 30
0.0
 11
3.39191
 21
8.14142
 31
0.0
  0
LINE
  5
11D
  8
0
 10
3.39191
 20
8.14142
 30
0.0
 11
3.25002
 21
8.24664
 31
0.0
  0
LINE
  5
11E
  8
0
 10
3.25002
 20
8.24664
 30
0.0
 11
3.09851
 21
8.33745
 31
0.0
  0
LINE
  5
11F
  8
0
 10
3.09851
 20
8.33745
 30
0.0
 11
2.93883
 21
8.41298
 31
0.0
  0
LINE
  5
120
  8
0
 10
2.93883
 20
8.41298
 30
0.0
 11
2.77251
 21
8.47249
 31
0.0
  0
LINE
  5
121
  8
0
 10
2.77251
 20
8.47249
 30
0.0
 11
2.60115
 21
8.51541
 31
0.0
  0
LINE
  5
122
  8
0
 10
2.60115
 20
8.51541
 30
0.0
 11
2.42642
 21
8.54132
 31
0.0
  0
LINE
  5
123
  8
0
 10
2.42642
 20
8.54132
 30
0.0
 11
2.25
 21
8.54999
 31
0.0
  0
LINE
  5
124
  8
0
 10
2.25
 20
8.54999
 30
0.0
 11
2.07358
 21
8.54132
 31
0.0
  0
LINE
  5
125
  8
0
 10
2.07358
 20
8.54132
 30
0.0
 11
1.89885
 21
8.51541
 31
0.0
  0
LINE
  5
126
  8
0
 10
1.89885
 20
8.51541
 30
0.0
 11
1.72749
 21
8.47249
 31
0.0
  0
LINE
  5
127
  8
0
 10
1.72749
 20
8.47249
 30
0.0
 11
1.56117
 21
8.41298
 31
0.0
  0
LINE
  5
128
  8
0
 10
1.56117
 20
8.41298
 30
0.0
 11
1.40149
 21
8.33745
 31
0.0
  0
LINE
  5
129
  8
0
 10
1.40149
 20
8.33745
 30
0.0
 11
1.24998
 21
8.24664
 31
0.0
  0
LINE
  5
12A
  8
0
 10
1.24998
 20
8.24664
 30
0.0
 11
1.10809
 21
8.14142
 31
0.0
  0
LINE
  5
12B
  8
0
 10
1.10809
 20
8.14142
 30
0.0
 11
0.977219
 21
8.02278
 31
0.0
  0
LINE
  5
12C
  8
0
 10
0.977219
 20
8.02278
 30
0.0
 11
0.858582
 21
7.89191
 31
0.0
  0
LINE
  5
12D
  8
0
 10
0.858582
 20
7.89191
 30
0.0
 11
0.753357
 21
7.75002
 31
0.0
  0
LINE
  5
12E
  8
0
 10
0.753357
 20
7.75002
 30
0.0
 11
0.662552
 21
7.59851
 31
0.0
  0
LINE
  5
12F
  8
0
 10
0.662552
 20
7.59851
 30
0.0
 11
0.587021
 21
7.43883
 31
0.0
  0
LINE
  5
130
  8
0
 10
0.587021
 20
7.43883
 30
0.0
 11
0.527512
 21
7.27251
 31
0.0
  0
LINE
  5
131
  8
0
 10
0.527512
 20
7.27251
 30
0.0
 11
0.484589
 21
7.10115
 31
0.0
  0
LINE
  5
132
  8
0
 10
0.484589
 20
7.10115
 30
0.0
 11
0.458679
 21
6.92642
 31
0.0
  0
LINE
  5
133
  8
0
 10
0.458679
 20
6.92642
 30
0.0
 11
0.450012
 21
6.75
 31
0.0
  0
LINE
  5
134
  8
0
 10
0.450012
 20
6.75
 30
0.0
 11
0.450012
 21
4.64999
 31
0.0
  0
LINE
  5
135
  8
0
 10
0.450012
 20
4.64999
 30
0.0
 11
1.36501
 21
4.64999
 31
0.0
  0
LINE
  5
136
  8
0
 10
1.36501
 20
4.64999
 30
0.0
 11
1.36501
 21
4.35001
 31
0.0
  0
LINE
  5
137
  8
0
 10
1.36501
 20
4.35001
 30
0.0
 11
0.450012
 21
4.35001
 31
0.0
  0
LINE
  5
138
  8
0
 10
0.450012
 20
4.35001
 30
0.0
 11
0.450012
 21
2.25
 31
0.0
  0
LINE
  5
139
  8
0
 10
0.450012
 20
2.25
 30
0.0
 11
0.458679
 21
2.07358
 31
0.0
  0
LINE
  5
13A
  8
0
 10
0.458679
 20
2.07358
 30
0.0
 11
0.484589
 21
1.89885
 31
0.0
  0
LINE
  5
13B
  8
0
 10
0.484589
 20
1.89885
 30
0.0
 11
0.527512
 21
1.72749
 31
0.0
  0
LINE
  5
13C
  8
0
 10
0.527512
 20
1.72749
 30
0.0
 11
0.587021
 21
1.56117
 31
0.0
  0
LINE
  5
13D
  8
0
 10
0.587021
 20
1.56117
 30
0.0
 11
0.662552
 21
1.40149
 31
0.0
  0
LINE
  5
13E
  8
0
 10
0.662552
 20
1.40149
 30
0.0
 11
0.753357
 21
1.24998
 31
0.0
  0
LINE
  5
13F
  8
0
 10
0.753357
 20
1.24998
 30
0.0
 11
0.858582
 21
1.10809
 31
0.0
  0
LINE
  5
140
  8
0
 10
0.858582
 20
1.10809
 30
0.0
 11
0.977219
 21
0.977219
 31
0.0
  0
LINE
  5
141
  8
0
 10
0.977219
 20
0.977219
 30
0.0
 11
1.10809
 21
0.858582
 31
0.0
  0
LINE
  5
142
  8
0
 10
1.10809
 20
0.858582
 30
0.0
 11
1.24998
 21
0.753357
 31
0.0
  0
LINE
  5
143
  8
0
 10
1.24998
 20
0.753357
 30
0.0
 11
1.40149
 21
0.662552
 31
0.0
  0
LINE
  5
144
  8
0
 10
1.40149
 20
0.662552
 30
0.0
 11
1.56117
 21
0.587021
 31
0.0
  0
LINE
  5
145
  8
0
 10
1.56117
 20
0.587021
 30
0.0
 11
1.72749
 21
0.527512
 31
0.0
  0
LINE
  5
146
  8
0
 10
1.72749
 20
0.527512
 30
0.0
 11
1.89885
 21
0.484589
 31
0.0
  0
LINE
  5
147
  8
0
 10
1.89885
 20
0.484589
 30
0.0
 11
2.07358
 21
0.458679
 31
0.0
  0
LINE
  5
148
  8
0
 10
2.07358
 20
0.458679
 30
0.0
 11
2.25
 21
0.450012
 31
0.0
  0
LINE
  5
149
  8
0
 10
2.25
 20
0.450012
 30
0.0
 11
2.42642
 21
0.458679
 31
0.0
  0
LINE
  5
14A
  8
0
 10
2.97499
 20
5.5
 30
0.0
 11
2.97499
 21
5.64999
 31
0.0
  0
LINE
  5
14B
  8
0
 10
2.97499
 20
5.64999
 30
0.0
 11
2.965
 21
5.64999
 31
0.0
  0
LINE
  5
14C
  8
0
 10
2.965
 20
5.64999
 30
0.0
 11
2.965
 21
5.5
 31
0.0
  0
LINE
  5
14D
  8
0
 10
2.965
 20
5.5
 30
0.0
 11
2.935
 21
5.5
 31
0.0
  0
LINE
  5
14E
  8
0
 10
2.935
 20
5.5
 30
0.0
 11
2.935
 21
5.64999
 31
0.0
  0
LINE
  5
14F
  8
0
 10
2.935
 20
5.64999
 30
0.0
 11
2.92499
 21
5.64999
 31
0.0
  0
LINE
  5
150
  8
0
 10
2.92499
 20
5.64999
 30
0.0
 11
2.92499
 21
5.5
 31
0.0
  0
LINE
  5
151
  8
0
 10
2.92499
 20
5.5
 30
0.0
 11
2.89499
 21
5.5
 31
0.0
  0
LINE
  5
152
  8
0
 10
2.89499
 20
5.5
 30
0.0
 11
2.89499
 21
5.64999
 31
0.0
  0
LINE
  5
153
  8
0
 10
2.89499
 20
5.64999
 30
0.0
 11
2.88499
 21
5.64999
 31
0.0
  0
LINE
  5
154
  8
0
 10
2.88499
 20
5.64999
 30
0.0
 11
2.88499
 21
5.5
 31
0.0
  0
LINE
  5
155
  8
0
 10
2.88499
 20
5.5
 30
0.0
 11
2.855
 21
5.5
 31
0.0
  0
LINE
  5
156
  8
0
 10
2.855
 20
5.5
 30
0.0
 11
2.855
 21
5.64999
 31
0.0
  0
LINE
  5
157
  8
0
 10
2.855
 20
5.64999
 30
0.0
 11
2.84499
 21
5.64999
 31
0.0
  0
LINE
  5
158
  8
0
 10
2.84499
 20
5.64999
 30
0.0
 11
2.84499
 21
5.5
 31
0.0
  0
LINE
  5
159
  8
0
 10
2.84499
 20
5.5
 30
0.0
 11
2.81499
 21
5.5
 31
0.0
  0
LINE
  5
15A
  8
0
 10
2.81499
 20
5.5
 30
0.0
 11
2.81499
 21
5.64999
 31
0.0
  0
LINE
  5
15B
  8
0
 10
2.81499
 20
5.64999
 30
0.0
 11
2.80499
 21
5.64999
 31
0.0
  0
LINE
  5
15C
  8
0
 10
2.80499
 20
5.64999
 30
0.0
 11
2.80499
 21
5.5
 31
0.0
  0
LINE
  5
15D
  8
0
 10
2.80499
 20
5.5
 30
0.0
 11
2.77499
 21
5.5
 31
0.0
  0
LINE
  5
15E
  8
0
 10
2.77499
 20
5.5
 30
0.0
 11
2.77499
 21
5.64999
 31
0.0
  0
LINE
  5
15F
  8
0
 10
2.77499
 20
5.64999
 30
0.0
 11
2.765
 21
5.64999
 31
0.0
  0
LINE
  5
160
  8
0
 10
2.765
 20
5.64999
 30
0.0
 11
2.765
 21
5.5
 31
0.0
  0
LINE
  5
161
  8
0
 10
2.765
 20
5.5
 30
0.0
 11
2.73499
 21
5.5
 31
0.0
  0
LINE
  5
162
  8
0
 10
2.73499
 20
5.5
 30
0.0
 11
2.73499
 21
5.64999
 31
0.0
  0
LINE
  5
163
  8
0
 10
2.73499
 20
5.64999
 30
0.0
 11
2.72499
 21
5.64999
 31
0.0
  0
LINE
  5
164
  8
0
 10
2.72499
 20
5.64999
 30
0.0
 11
2.72499
 21
5.5
 31
0.0
  0
LINE
  5
165
  8
0
 10
2.72499
 20
5.5
 30
0.0
 11
2.69499
 21
5.5
 31
0.0
  0
LINE
  5
166
  8
0
 10
2.69499
 20
5.5
 30
0.0
 11
2.69499
 21
5.64999
 31
0.0
  0
LINE
  5
167
  8
0
 10
2.69499
 20
5.64999
 30
0.0
 11
2.685
 21
5.64999
 31
0.0
  0
LINE
  5
168
  8
0
 10
2.685
 20
5.64999
 30
0.0
 11
2.685
 21
5.5
 31
0.0
  0
LINE
  5
169
  8
0
 10
2.685
 20
5.5
 30
0.0
 11
2.655
 21
5.5
 31
0.0
  0
LINE
  5
16A
  8
0
 10
2.655
 20
5.5
 30
0.0
 11
2.655
 21
5.64999
 31
0.0
  0
LINE
  5
16B
  8
0
 10
2.655
 20
5.64999
 30
0.0
 11
2.64499
 21
5.64999
 31
0.0
  0
LINE
  5
16C
  8
0
 10
2.64499
 20
5.64999
 30
0.0
 11
2.64499
 21
5.5
 31
0.0
  0
LINE
  5
16D
  8
0
 10
2.64499
 20
5.5
 30
0.0
 11
2.61499
 21
5.5
 31
0.0
  0
LINE
  5
16E
  8
0
 10
2.61499
 20
5.5
 30
0.0
 11
2.61499
 21
5.64999
 31
0.0
  0
LINE
  5
16F
  8
0
 10
2.61499
 20
5.64999
 30
0.0
 11
2.605
 21
5.64999
 31
0.0
  0
LINE
  5
170
  8
0
 10
2.605
 20
5.64999
 30
0.0
 11
2.605
 21
5.5
 31
0.0
  0
LINE
  5
171
  8
0
 10
2.605
 20
5.5
 30
0.0
 11
2.575
 21
5.5
 31
0.0
  0
LINE
  5
172
  8
0
 10
2.575
 20
5.5
 30
0.0
 11
2.575
 21
5.64999
 31
0.0
  0
LINE
  5
173
  8
0
 10
2.575
 20
5.64999
 30
0.0
 11
2.56499
 21
5.64999
 31
0.0
  0
LINE
  5
174
  8
0
 10
2.56499
 20
5.64999
 30
0.0
 11
2.56499
 21
5.5
 31
0.0
  0
LINE
  5
175
  8
0
 10
2.56499
 20
5.5
 30
0.0
 11
2.53499
 21
5.5
 31
0.0
  0
LINE
  5
176
  8
0
 10
2.53499
 20
5.5
 30
0.0
 11
2.53499
 21
5.64999
 31
0.0
  0
LINE
  5
177
  8
0
 10
2.53499
 20
5.64999
 30
0.0
 11
2.52499
 21
5.64999
 31
0.0
  0
LINE
  5
178
  8
0
 10
2.52499
 20
5.64999
 30
0.0
 11
2.52499
 21
5.5
 31
0.0
  0
LINE
  5
179
  8
0
 10
2.52499
 20
5.5
 30
0.0
 11
2.495
 21
5.5
 31
0.0
  0
LINE
  5
17A
  8
0
 10
2.495
 20
5.5
 30
0.0
 11
2.495
 21
5.64999
 31
0.0
  0
LINE
  5
17B
  8
0
 10
2.495
 20
5.64999
 30
0.0
 11
2.48499
 21
5.64999
 31
0.0
  0
LINE
  5
17C
  8
0
 10
2.48499
 20
5.64999
 30
0.0
 11
2.48499
 21
5.5
 31
0.0
  0
LINE
  5
17D
  8
0
 10
2.48499
 20
5.5
 30
0.0
 11
2.45499
 21
5.5
 31
0.0
  0
LINE
  5
17E
  8
0
 10
2.45499
 20
5.5
 30
0.0
 11
2.45499
 21
5.64999
 31
0.0
  0
LINE
  5
17F
  8
0
 10
2.45499
 20
5.64999
 30
0.0
 11
2.44499
 21
5.64999
 31
0.0
  0
LINE
  5
180
  8
0
 10
2.44499
 20
5.64999
 30
0.0
 11
2.44499
 21
5.5
 31
0.0
  0
LINE
  5
181
  8
0
 10
2.44499
 20
5.5
 30
0.0
 11
2.41499
 21
5.5
 31
0.0
  0
LINE
  5
182
  8
0
 10
2.41499
 20
5.5
 30
0.0
 11
2.41499
 21
5.64999
 31
0.0
  0
LINE
  5
183
  8
0
 10
2.41499
 20
5.64999
 30
0.0
 11
2.405
 21
5.64999
 31
0.0
  0
LINE
  5
184
  8
0
 10
2.405
 20
5.64999
 30
0.0
 11
2.405
 21
5.5
 31
0.0
  0
LINE
  5
185
  8
0
 10
2.405
 20
5.5
 30
0.0
 11
2.375
 21
5.5
 31
0.0
  0
LINE
  5
186
  8
0
 10
2.375
 20
5.5
 30
0.0
 11
2.375
 21
5.64999
 31
0.0
  0
LINE
  5
187
  8
0
 10
2.375
 20
5.64999
 30
0.0
 11
2.36499
 21
5.64999
 31
0.0
  0
LINE
  5
188
  8
0
 10
2.36499
 20
5.64999
 30
0.0
 11
2.36499
 21
5.5
 31
0.0
  0
LINE
  5
189
  8
0
 10
2.36499
 20
5.5
 30
0.0
 11
2.33499
 21
5.5
 31
0.0
  0
LINE
  5
18A
  8
0
 10
2.33499
 20
5.5
 30
0.0
 11
2.33499
 21
5.64999
 31
0.0
  0
LINE
  5
18B
  8
0
 10
2.33499
 20
5.64999
 30
0.0
 11
2.325
 21
5.64999
 31
0.0
  0
LINE
  5
18C
  8
0
 10
2.325
 20
5.64999
 30
0.0
 11
2.325
 21
5.5
 31
0.0
  0
LINE
  5
18D
  8
0
 10
2.325
 20
5.5
 30
0.0
 11
2.295
 21
5.5
 31
0.0
  0
LINE
  5
18E
  8
0
 10
2.295
 20
5.5
 30
0.0
 11
2.295
 21
5.64999
 31
0.0
  0
LINE
  5
18F
  8
0
 10
2.295
 20
5.64999
 30
0.0
 11
2.28499
 21
5.64999
 31
0.0
  0
LINE
  5
190
  8
0
 10
2.28499
 20
5.64999
 30
0.0
 11
2.28499
 21
5.5
 31
0.0
  0
LINE
  5
191
  8
0
 10
2.28499
 20
5.5
 30
0.0
 11
2.25499
 21
5.5
 31
0.0
  0
LINE
  5
192
  8
0
 10
2.25499
 20
5.5
 30
0.0
 11
2.25499
 21
5.64999
 31
0.0
  0
LINE
  5
193
  8
0
 10
2.25499
 20
5.64999
 30
0.0
 11
2.24501
 21
5.64999
 31
0.0
  0
LINE
  5
194
  8
0
 10
2.24501
 20
5.64999
 30
0.0
 11
2.24501
 21
5.5
 31
0.0
  0
LINE
  5
195
  8
0
 10
2.24501
 20
5.5
 30
0.0
 11
2.21501
 21
5.5
 31
0.0
  0
LINE
  5
196
  8
0
 10
2.21501
 20
5.5
 30
0.0
 11
2.21501
 21
5.64999
 31
0.0
  0
LINE
  5
197
  8
0
 10
2.21501
 20
5.64999
 30
0.0
 11
2.205
 21
5.64999
 31
0.0
  0
LINE
  5
198
  8
0
 10
2.205
 20
5.64999
 30
0.0
 11
2.205
 21
5.5
 31
0.0
  0
LINE
  5
199
  8
0
 10
2.205
 20
5.5
 30
0.0
 11
2.175
 21
5.5
 31
0.0
  0
LINE
  5
19A
  8
0
 10
2.175
 20
5.5
 30
0.0
 11
2.175
 21
5.64999
 31
0.0
  0
LINE
  5
19B
  8
0
 10
2.175
 20
5.64999
 30
0.0
 11
2.16501
 21
5.64999
 31
0.0
  0
LINE
  5
19C
  8
0
 10
2.16501
 20
5.64999
 30
0.0
 11
2.16501
 21
5.5
 31
0.0
  0
LINE
  5
19D
  8
0
 10
2.16501
 20
5.5
 30
0.0
 11
2.13501
 21
5.5
 31
0.0
  0
LINE
  5
19E
  8
0
 10
2.13501
 20
5.5
 30
0.0
 11
2.13501
 21
5.64999
 31
0.0
  0
LINE
  5
19F
  8
0
 10
2.13501
 20
5.64999
 30
0.0
 11
2.125
 21
5.64999
 31
0.0
  0
LINE
  5
1A0
  8
0
 10
2.125
 20
5.64999
 30
0.0
 11
2.125
 21
5.5
 31
0.0
  0
LINE
  5
1A1
  8
0
 10
2.125
 20
5.5
 30
0.0
 11
2.095
 21
5.5
 31
0.0
  0
LINE
  5
1A2
  8
0
 10
2.095
 20
5.5
 30
0.0
 11
2.095
 21
5.64999
 31
0.0
  0
LINE
  5
1A3
  8
0
 10
2.095
 20
5.64999
 30
0.0
 11
2.08501
 21
5.64999
 31
0.0
  0
LINE
  5
1A4
  8
0
 10
2.08501
 20
5.64999
 30
0.0
 11
2.08501
 21
5.5
 31
0.0
  0
LINE
  5
1A5
  8
0
 10
2.08501
 20
5.5
 30
0.0
 11
2.05501
 21
5.5
 31
0.0
  0
LINE
  5
1A6
  8
0
 10
2.05501
 20
5.5
 30
0.0
 11
2.05501
 21
5.64999
 31
0.0
  0
LINE
  5
1A7
  8
0
 10
2.05501
 20
5.64999
 30
0.0
 11
2.04501
 21
5.64999
 31
0.0
  0
LINE
  5
1A8
  8
0
 10
2.04501
 20
5.64999
 30
0.0
 11
2.04501
 21
5.5
 31
0.0
  0
LINE
  5
1A9
  8
0
 10
2.04501
 20
5.5
 30
0.0
 11
2.01501
 21
5.5
 31
0.0
  0
LINE
  5
1AA
  8
0
 10
2.01501
 20
5.5
 30
0.0
 11
2.01501
 21
5.64999
 31
0.0
  0
LINE
  5
1AB
  8
0
 10
2.01501
 20
5.64999
 30
0.0
 11
2.005
 21
5.64999
 31
0.0
  0
LINE
  5
1AC
  8
0
 10
2.005
 20
5.64999
 30
0.0
 11
2.005
 21
5.5
 31
0.0
  0
LINE
  5
1AD
  8
0
 10
2.005
 20
5.5
 30
0.0
 11
1.97501
 21
5.5
 31
0.0
  0
LINE
  5
1AE
  8
0
 10
1.97501
 20
5.5
 30
0.0
 11
1.97501
 21
5.64999
 31
0.0
  0
LINE
  5
1AF
  8
0
 10
1.97501
 20
5.64999
 30
0.0
 11
1.96501
 21
5.64999
 31
0.0
  0
LINE
  5
1B0
  8
0
 10
1.96501
 20
5.64999
 30
0.0
 11
1.96501
 21
5.5
 31
0.0
  0
LINE
  5
1B1
  8
0
 10
1.96501
 20
5.5
 30
0.0
 11
1.93501
 21
5.5
 31
0.0
  0
LINE
  5
1B2
  8
0
 10
1.93501
 20
5.5
 30
0.0
 11
1.93501
 21
5.64999
 31
0.0
  0
LINE
  5
1B3
  8
0
 10
1.93501
 20
5.64999
 30
0.0
 11
1.925
 21
5.64999
 31
0.0
  0
LINE
  5
1B4
  8
0
 10
1.925
 20
5.64999
 30
0.0
 11
1.925
 21
5.5
 31
0.0
  0
LINE
  5
1B5
  8
0
 10
1.925
 20
5.5
 30
0.0
 11
1.895
 21
5.5
 31
0.0
  0
LINE
  5
1B6
  8
0
 10
1.895
 20
5.5
 30
0.0
 11
1.895
 21
5.64999
 31
0.0
  0
LINE
  5
1B7
  8
0
 10
1.895
 20
5.64999
 30
0.0
 11
1.88501
 21
5.64999
 31
0.0
  0
LINE
  5
1B8
  8
0
 10
1.88501
 20
5.64999
 30
0.0
 11
1.88501
 21
5.5
 31
0.0
  0
LINE
  5
1B9
  8
0
 10
1.88501
 20
5.5
 30
0.0
 11
1.85501
 21
5.5
 31
0.0
  0
LINE
  5
1BA
  8
0
 10
1.85501
 20
5.5
 30
0.0
 11
1.85501
 21
5.64999
 31
0.0
  0
LINE
  5
1BB
  8
0
 10
1.85501
 20
5.64999
 30
0.0
 11
1.845
 21
5.64999
 31
0.0
  0
LINE
  5
1BC
  8
0
 10
1.845
 20
5.64999
 30
0.0
 11
1.845
 21
5.5
 31
0.0
  0
LINE
  5
1BD
  8
0
 10
1.845
 20
5.5
 30
0.0
 11
1.815
 21
5.5
 31
0.0
  0
LINE
  5
1BE
  8
0
 10
1.815
 20
5.5
 30
0.0
 11
1.815
 21
5.64999
 31
0.0
  0
LINE
  5
1BF
  8
0
 10
1.815
 20
5.64999
 30
0.0
 11
1.80501
 21
5.64999
 31
0.0
  0
LINE
  5
1C0
  8
0
 10
1.80501
 20
5.64999
 30
0.0
 11
1.80501
 21
5.5
 31
0.0
  0
LINE
  5
1C1
  8
0
 10
1.80501
 20
5.5
 30
0.0
 11
1.77501
 21
5.5
 31
0.0
  0
LINE
  5
1C2
  8
0
 10
1.77501
 20
5.5
 30
0.0
 11
1.77501
 21
5.64999
 31
0.0
  0
LINE
  5
1C3
  8
0
 10
1.77501
 20
5.64999
 30
0.0
 11
1.76501
 21
5.64999
 31
0.0
  0
LINE
  5
1C4
  8
0
 10
1.76501
 20
5.64999
 30
0.0
 11
1.76501
 21
5.5
 31
0.0
  0
LINE
  5
1C5
  8
0
 10
1.76501
 20
5.5
 30
0.0
 11
1.735
 21
5.5
 31
0.0
  0
LINE
  5
1C6
  8
0
 10
1.735
 20
5.5
 30
0.0
 11
1.735
 21
5.64999
 31
0.0
  0
LINE
  5
1C7
  8
0
 10
1.735
 20
5.64999
 30
0.0
 11
1.72501
 21
5.64999
 31
0.0
  0
LINE
  5
1C8
  8
0
 10
1.72501
 20
5.64999
 30
0.0
 11
1.72501
 21
5.5
 31
0.0
  0
LINE
  5
1C9
  8
0
 10
1.72501
 20
5.5
 30
0.0
 11
1.69501
 21
5.5
 31
0.0
  0
LINE
  5
1CA
  8
0
 10
1.69501
 20
5.5
 30
0.0
 11
1.69501
 21
5.64999
 31
0.0
  0
LINE
  5
1CB
  8
0
 10
1.69501
 20
5.64999
 30
0.0
 11
1.68501
 21
5.64999
 31
0.0
  0
LINE
  5
1CC
  8
0
 10
1.68501
 20
5.64999
 30
0.0
 11
1.68501
 21
5.5
 31
0.0
  0
LINE
  5
1CD
  8
0
 10
1.68501
 20
5.5
 30
0.0
 11
1.65501
 21
5.5
 31
0.0
  0
LINE
  5
1CE
  8
0
 10
1.65501
 20
5.5
 30
0.0
 11
1.65501
 21
5.64999
 31
0.0
  0
LINE
  5
1CF
  8
0
 10
1.65501
 20
5.64999
 30
0.0
 11
1.645
 21
5.64999
 31
0.0
  0
LINE
  5
1D0
  8
0
 10
1.645
 20
5.64999
 30
0.0
 11
1.645
 21
5.5
 31
0.0
  0
LINE
  5
1D1
  8
0
 10
1.645
 20
5.5
 30
0.0
 11
1.61501
 21
5.5
 31
0.0
  0
LINE
  5
1D2
  8
0
 10
1.61501
 20
5.5
 30
0.0
 11
1.61501
 21
5.64999
 31
0.0
  0
LINE
  5
1D3
  8
0
 10
1.61501
 20
5.64999
 30
0.0
 11
1.60501
 21
5.64999
 31
0.0
  0
LINE
  5
1D4
  8
0
 10
1.60501
 20
5.64999
 30
0.0
 11
1.60501
 21
5.5
 31
0.0
  0
LINE
  5
1D5
  8
0
 10
1.60501
 20
5.5
 30
0.0
 11
1.57501
 21
5.5
 31
0.0
  0
LINE
  5
1D6
  8
0
 10
1.57501
 20
5.5
 30
0.0
 11
1.57501
 21
5.64999
 31
0.0
  0
LINE
  5
1D7
  8
0
 10
1.57501
 20
5.64999
 30
0.0
 11
1.565
 21
5.64999
 31
0.0
  0
LINE
  5
1D8
  8
0
 10
1.565
 20
5.64999
 30
0.0
 11
1.565
 21
5.5
 31
0.0
  0
LINE
  5
1D9
  8
0
 10
1.565
 20
5.5
 30
0.0
 11
1.535
 21
5.5
 31
0.0
  0
LINE
  5
1DA
  8
0
 10
1.535
 20
5.5
 30
0.0
 11
1.535
 21
5.64999
 31
0.0
  0
LINE
  5
1DB
  8
0
 10
1.535
 20
5.64999
 30
0.0
 11
1.52501
 21
5.64999
 31
0.0
  0
LINE
  5
1DC
  8
0
 10
1.52501
 20
5.64999
 30
0.0
 11
1.52501
 21
5.5
 31
0.0
  0
LINE
  5
1DD
  8
0
 10
1.52501
 20
5.5
 30
0.0
 11
1.5
 21
5.5
 31
0.0
  0
LINE
  5
1DE
  8
0
 10
1.5
 20
5.5
 30
0.0
 11
1.5
 21
7.0
 31
0.0
  0
LINE
  5
1DF
  8
0
 10
1.5
 20
7.0
 30
0.0
 11
3.0
 21
7.0
 31
0.0
  0
LINE
  5
1E0
  8
0
 10
3.0
 20
7.0
 30
0.0
 11
3.0
 21
5.5
 31
0.0
  0
LINE
  5
1E1
  8
0
 10
3.0
 20
5.5
 30
0.0
 11
2.97499
 21
5.5
 31
0.0
  0
LINE
  5
1E2
  8
0
 10
1.375
 20
4.35001
 30
0.0
 11
1.375
 21
4.64999
 31
0.0
  0
LINE
  5
1E3
  8
0
 10
1.375
 20
4.64999
 30
0.0
 11
1.40501
 21
4.64999
 31
0.0
  0
LINE
  5
1E4
  8
0
 10
1.40501
 20
4.64999
 30
0.0
 11
1.40501
 21
4.35001
 31
0.0
  0
LINE
  5
1E5
  8
0
 10
1.40501
 20
4.35001
 30
0.0
 11
1.375
 21
4.35001
 31
0.0
  0
LINE
  5
1E6
  8
0
 10
1.41501
 20
4.35001
 30
0.0
 11
1.41501
 21
4.64999
 31
0.0
  0
LINE
  5
1E7
  8
0
 10
1.41501
 20
4.64999
 30
0.0
 11
1.44501
 21
4.64999
 31
0.0
  0
LINE
  5
1E8
  8
0
 10
1.44501
 20
4.64999
 30
0.0
 11
1.44501
 21
4.35001
 31
0.0
  0
LINE
  5
1E9
  8
0
 10
1.44501
 20
4.35001
 30
0.0
 11
1.41501
 21
4.35001
 31
0.0
  0
LINE
  5
1EA
  8
0
 10
1.455
 20
4.35001
 30
0.0
 11
1.455
 21
4.64999
 31
0.0
  0
LINE
  5
1EB
  8
0
 10
1.455
 20
4.64999
 30
0.0
 11
1.485
 21
4.64999
 31
0.0
  0
LINE
  5
1EC
  8
0
 10
1.485
 20
4.64999
 30
0.0
 11
1.485
 21
4.35001
 31
0.0
  0
LINE
  5
1ED
  8
0
 10
1.485
 20
4.35001
 30
0.0
 11
1.455
 21
4.35001
 31
0.0
  0
LINE
  5
1EE
  8
0
 10
1.49501
 20
4.35001
 30
0.0
 11
1.49501
 21
4.64999
 31
0.0
  0
LINE
  5
1EF
  8
0
 10
1.49501
 20
4.64999
 30
0.0
 11
1.52501
 21
4.64999
 31
0.0
  0
LINE
  5
1F0
  8
0
 10
1.52501
 20
4.64999
 30
0.0
 11
1.52501
 21
4.35001
 31
0.0
  0
LINE
  5
1F1
  8
0
 10
1.52501
 20
4.35001
 30
0.0
 11
1.49501
 21
4.35001
 31
0.0
  0
LINE
  5
1F2
  8
0
 10
1.535
 20
4.35001
 30
0.0
 11
1.535
 21
4.64999
 31
0.0
  0
LINE
  5
1F3
  8
0
 10
1.535
 20
4.64999
 30
0.0
 11
1.565
 21
4.64999
 31
0.0
  0
LINE
  5
1F4
  8
0
 10
1.565
 20
4.64999
 30
0.0
 11
1.565
 21
4.35001
 31
0.0
  0
LINE
  5
1F5
  8
0
 10
1.565
 20
4.35001
 30
0.0
 11
1.535
 21
4.35001
 31
0.0
  0
LINE
  5
1F6
  8
0
 10
1.57501
 20
4.35001
 30
0.0
 11
1.57501
 21
4.64999
 31
0.0
  0
LINE
  5
1F7
  8
0
 10
1.57501
 20
4.64999
 30
0.0
 11
1.60501
 21
4.64999
 31
0.0
  0
LINE
  5
1F8
  8
0
 10
1.60501
 20
4.64999
 30
0.0
 11
1.60501
 21
4.35001
 31
0.0
  0
LINE
  5
1F9
  8
0
 10
1.60501
 20
4.35001
 30
0.0
 11
1.57501
 21
4.35001
 31
0.0
  0
LINE
  5
1FA
  8
0
 10
1.61501
 20
4.35001
 30
0.0
 11
1.61501
 21
4.64999
 31
0.0
  0
LINE
  5
1FB
  8
0
 10
1.61501
 20
4.64999
 30
0.0
 11
1.645
 21
4.64999
 31
0.0
  0
LINE
  5
1FC
  8
0
 10
1.645
 20
4.64999
 30
0.0
 11
1.645
 21
4.35001
 31
0.0
  0
LINE
  5
1FD
  8
0
 10
1.645
 20
4.35001
 30
0.0
 11
1.61501
 21
4.35001
 31
0.0
  0
LINE
  5
1FE
  8
0
 10
1.65501
 20
4.35001
 30
0.0
 11
1.65501
 21
4.64999
 31
0.0
  0
LINE
  5
1FF
  8
0
 10
1.65501
 20
4.64999
 30
0.0
 11
1.68501
 21
4.64999
 31
0.0
  0
LINE
  5
200
  8
0
 10
1.68501
 20
4.64999
 30
0.0
 11
1.68501
 21
4.35001
 31
0.0
  0
LINE
  5
201
  8
0
 10
1.68501
 20
4.35001
 30
0.0
 11
1.65501
 21
4.35001
 31
0.0
  0
LINE
  5
202
  8
0
 10
1.69501
 20
4.35001
 30
0.0
 11
1.69501
 21
4.64999
 31
0.0
  0
LINE
  5
203
  8
0
 10
1.69501
 20
4.64999
 30
0.0
 11
1.72501
 21
4.64999
 31
0.0
  0
LINE
  5
204
  8
0
 10
1.72501
 20
4.64999
 30
0.0
 11
1.72501
 21
4.35001
 31
0.0
  0
LINE
  5
205
  8
0
 10
1.72501
 20
4.35001
 30
0.0
 11
1.69501
 21
4.35001
 31
0.0
  0
LINE
  5
206
  8
0
 10
1.735
 20
4.35001
 30
0.0
 11
1.735
 21
4.64999
 31
0.0
  0
LINE
  5
207
  8
0
 10
1.735
 20
4.64999
 30
0.0
 11
1.76501
 21
4.64999
 31
0.0
  0
LINE
  5
208
  8
0
 10
1.76501
 20
4.64999
 30
0.0
 11
1.76501
 21
4.35001
 31
0.0
  0
LINE
  5
209
  8
0
 10
1.76501
 20
4.35001
 30
0.0
 11
1.735
 21
4.35001
 31
0.0
  0
LINE
  5
20A
  8
0
 10
1.77501
 20
4.35001
 30
0.0
 11
1.77501
 21
4.64999
 31
0.0
  0
LINE
  5
20B
  8
0
 10
1.77501
 20
4.64999
 30
0.0
 11
1.80501
 21
4.64999
 31
0.0
  0
LINE
  5
20C
  8
0
 10
1.80501
 20
4.64999
 30
0.0
 11
1.80501
 21
4.35001
 31
0.0
  0
LINE
  5
20D
  8
0
 10
1.80501
 20
4.35001
 30
0.0
 11
1.77501
 21
4.35001
 31
0.0
  0
LINE
  5
20E
  8
0
 10
1.815
 20
4.35001
 30
0.0
 11
1.815
 21
4.64999
 31
0.0
  0
LINE
  5
20F
  8
0
 10
1.815
 20
4.64999
 30
0.0
 11
1.845
 21
4.64999
 31
0.0
  0
LINE
  5
210
  8
0
 10
1.845
 20
4.64999
 30
0.0
 11
1.845
 21
4.35001
 31
0.0
  0
LINE
  5
211
  8
0
 10
1.845
 20
4.35001
 30
0.0
 11
1.815
 21
4.35001
 31
0.0
  0
LINE
  5
212
  8
0
 10
1.85501
 20
4.35001
 30
0.0
 11
1.85501
 21
4.64999
 31
0.0
  0
LINE
  5
213
  8
0
 10
1.85501
 20
4.64999
 30
0.0
 11
1.88501
 21
4.64999
 31
0.0
  0
LINE
  5
214
  8
0
 10
1.88501
 20
4.64999
 30
0.0
 11
1.88501
 21
4.35001
 31
0.0
  0
LINE
  5
215
  8
0
 10
1.88501
 20
4.35001
 30
0.0
 11
1.85501
 21
4.35001
 31
0.0
  0
LINE
  5
216
  8
0
 10
1.895
 20
4.35001
 30
0.0
 11
1.895
 21
4.64999
 31
0.0
  0
LINE
  5
217
  8
0
 10
1.895
 20
4.64999
 30
0.0
 11
1.925
 21
4.64999
 31
0.0
  0
LINE
  5
218
  8
0
 10
1.925
 20
4.64999
 30
0.0
 11
1.925
 21
4.35001
 31
0.0
  0
LINE
  5
219
  8
0
 10
1.925
 20
4.35001
 30
0.0
 11
1.895
 21
4.35001
 31
0.0
  0
LINE
  5
21A
  8
0
 10
1.93501
 20
4.35001
 30
0.0
 11
1.93501
 21
4.64999
 31
0.0
  0
LINE
  5
21B
  8
0
 10
1.93501
 20
4.64999
 30
0.0
 11
1.96501
 21
4.64999
 31
0.0
  0
LINE
  5
21C
  8
0
 10
1.96501
 20
4.64999
 30
0.0
 11
1.96501
 21
4.35001
 31
0.0
  0
LINE
  5
21D
  8
0
 10
1.96501
 20
4.35001
 30
0.0
 11
1.93501
 21
4.35001
 31
0.0
  0
LINE
  5
21E
  8
0
 10
1.97501
 20
4.35001
 30
0.0
 11
1.97501
 21
4.64999
 31
0.0
  0
LINE
  5
21F
  8
0
 10
1.97501
 20
4.64999
 30
0.0
 11
2.005
 21
4.64999
 31
0.0
  0
LINE
  5
220
  8
0
 10
2.005
 20
4.64999
 30
0.0
 11
2.005
 21
4.35001
 31
0.0
  0
LINE
  5
221
  8
0
 10
2.005
 20
4.35001
 30
0.0
 11
1.97501
 21
4.35001
 31
0.0
  0
LINE
  5
222
  8
0
 10
2.01501
 20
4.35001
 30
0.0
 11
2.01501
 21
4.64999
 31
0.0
  0
LINE
  5
223
  8
0
 10
2.01501
 20
4.64999
 30
0.0
 11
2.04501
 21
4.64999
 31
0.0
  0
LINE
  5
224
  8
0
 10
2.04501
 20
4.64999
 30
0.0
 11
2.04501
 21
4.35001
 31
0.0
  0
LINE
  5
225
  8
0
 10
2.04501
 20
4.35001
 30
0.0
 11
2.01501
 21
4.35001
 31
0.0
  0
LINE
  5
226
  8
0
 10
2.05501
 20
4.35001
 30
0.0
 11
2.05501
 21
4.64999
 31
0.0
  0
LINE
  5
227
  8
0
 10
2.05501
 20
4.64999
 30
0.0
 11
2.08501
 21
4.64999
 31
0.0
  0
LINE
  5
228
  8
0
 10
2.08501
 20
4.64999
 30
0.0
 11
2.08501
 21
4.35001
 31
0.0
  0
LINE
  5
229
  8
0
 10
2.08501
 20
4.35001
 30
0.0
 11
2.05501
 21
4.35001
 31
0.0
  0
LINE
  5
22A
  8
0
 10
2.095
 20
4.35001
 30
0.0
 11
2.095
 21
4.64999
 31
0.0
  0
LINE
  5
22B
  8
0
 10
2.095
 20
4.64999
 30
0.0
 11
2.125
 21
4.64999
 31
0.0
  0
LINE
  5
22C
  8
0
 10
2.125
 20
4.64999
 30
0.0
 11
2.125
 21
4.35001
 31
0.0
  0
LINE
  5
22D
  8
0
 10
2.125
 20
4.35001
 30
0.0
 11
2.095
 21
4.35001
 31
0.0
  0
LINE
  5
22E
  8
0
 10
2.13501
 20
4.35001
 30
0.0
 11
2.13501
 21
4.64999
 31
0.0
  0
LINE
  5
22F
  8
0
 10
2.13501
 20
4.64999
 30
0.0
 11
2.16501
 21
4.64999
 31
0.0
  0
LINE
  5
230
  8
0
 10
2.16501
 20
4.64999
 30
0.0
 11
2.16501
 21
4.35001
 31
0.0
  0
LINE
  5
231
  8
0
 10
2.16501
 20
4.35001
 30
0.0
 11
2.13501
 21
4.35001
 31
0.0
  0
LINE
  5
232
  8
0
 10
2.175
 20
4.35001
 30
0.0
 11
2.175
 21
4.64999
 31
0.0
  0
LINE
  5
233
  8
0
 10
2.175
 20
4.64999
 30
0.0
 11
2.205
 21
4.64999
 31
0.0
  0
LINE
  5
234
  8
0
 10
2.205
 20
4.64999
 30
0.0
 11
2.205
 21
4.35001
 31
0.0
  0
LINE
  5
235
  8
0
 10
2.205
 20
4.35001
 30
0.0
 11
2.175
 21
4.35001
 31
0.0
  0
LINE
  5
236
  8
0
 10
2.21501
 20
4.35001
 30
0.0
 11
2.21501
 21
4.64999
 31
0.0
  0
LINE
  5
237
  8
0
 10
2.21501
 20
4.64999
 30
0.0
 11
2.24501
 21
4.64999
 31
0.0
  0
LINE
  5
238
  8
0
 10
2.24501
 20
4.64999
 30
0.0
 11
2.24501
 21
4.35001
 31
0.0
  0
LINE
  5
239
  8
0
 10
2.24501
 20
4.35001
 30
0.0
 11
2.21501
 21
4.35001
 31
0.0
  0
LINE
  5
23A
  8
0
 10
2.25499
 20
4.35001
 30
0.0
 11
2.25499
 21
4.64999
 31
0.0
  0
LINE
  5
23B
  8
0
 10
2.25499
 20
4.64999
 30
0.0
 11
2.28499
 21
4.64999
 31
0.0
  0
LINE
  5
23C
  8
0
 10
2.28499
 20
4.64999
 30
0.0
 11
2.28499
 21
4.35001
 31
0.0
  0
LINE
  5
23D
  8
0
 10
2.28499
 20
4.35001
 30
0.0
 11
2.25499
 21
4.35001
 31
0.0
  0
LINE
  5
23E
  8
0
 10
2.295
 20
4.35001
 30
0.0
 11
2.295
 21
4.64999
 31
0.0
  0
LINE
  5
23F
  8
0
 10
2.295
 20
4.64999
 30
0.0
 11
2.325
 21
4.64999
 31
0.0
  0
LINE
  5
240
  8
0
 10
2.325
 20
4.64999
 30
0.0
 11
2.325
 21
4.35001
 31
0.0
  0
LINE
  5
241
  8
0
 10
2.325
 20
4.35001
 30
0.0
 11
2.295
 21
4.35001
 31
0.0
  0
LINE
  5
242
  8
0
 10
2.33499
 20
4.35001
 30
0.0
 11
2.33499
 21
4.64999
 31
0.0
  0
LINE
  5
243
  8
0
 10
2.33499
 20
4.64999
 30
0.0
 11
2.36499
 21
4.64999
 31
0.0
  0
LINE
  5
244
  8
0
 10
2.36499
 20
4.64999
 30
0.0
 11
2.36499
 21
4.35001
 31
0.0
  0
LINE
  5
245
  8
0
 10
2.36499
 20
4.35001
 30
0.0
 11
2.33499
 21
4.35001
 31
0.0
  0
LINE
  5
246
  8
0
 10
2.375
 20
4.35001
 30
0.0
 11
2.375
 21
4.64999
 31
0.0
  0
LINE
  5
247
  8
0
 10
2.375
 20
4.64999
 30
0.0
 11
2.405
 21
4.64999
 31
0.0
  0
LINE
  5
248
  8
0
 10
2.405
 20
4.64999
 30
0.0
 11
2.405
 21
4.35001
 31
0.0
  0
LINE
  5
249
  8
0
 10
2.405
 20
4.35001
 30
0.0
 11
2.375
 21
4.35001
 31
0.0
  0
LINE
  5
24A
  8
0
 10
2.41499
 20
4.35001
 30
0.0
 11
2.41499
 21
4.64999
 31
0.0
  0
LINE
  5
24B
  8
0
 10
2.41499
 20
4.64999
 30
0.0
 11
2.44499
 21
4.64999
 31
0.0
  0
LINE
  5
24C
  8
0
 10
2.44499
 20
4.64999
 30
0.0
 11
2.44499
 21
4.35001
 31
0.0
  0
LINE
  5
24D
  8
0
 10
2.44499
 20
4.35001
 30
0.0
 11
2.41499
 21
4.35001
 31
0.0
  0
LINE
  5
24E
  8
0
 10
2.45499
 20
4.35001
 30
0.0
 11
2.45499
 21
4.64999
 31
0.0
  0
LINE
  5
24F
  8
0
 10
2.45499
 20
4.64999
 30
0.0
 11
2.48499
 21
4.64999
 31
0.0
  0
LINE
  5
250
  8
0
 10
2.48499
 20
4.64999
 30
0.0
 11
2.48499
 21
4.35001
 31
0.0
  0
LINE
  5
251
  8
0
 10
2.48499
 20
4.35001
 30
0.0
 11
2.45499
 21
4.35001
 31
0.0
  0
LINE
  5
252
  8
0
 10
2.495
 20
4.35001
 30
0.0
 11
2.495
 21
4.64999
 31
0.0
  0
LINE
  5
253
  8
0
 10
2.495
 20
4.64999
 30
0.0
 11
2.52499
 21
4.64999
 31
0.0
  0
LINE
  5
254
  8
0
 10
2.52499
 20
4.64999
 30
0.0
 11
2.52499
 21
4.35001
 31
0.0
  0
LINE
  5
255
  8
0
 10
2.52499
 20
4.35001
 30
0.0
 11
2.495
 21
4.35001
 31
0.0
  0
LINE
  5
256
  8
0
 10
2.53499
 20
4.35001
 30
0.0
 11
2.53499
 21
4.64999
 31
0.0
  0
LINE
  5
257
  8
0
 10
2.53499
 20
4.64999
 30
0.0
 11
2.56499
 21
4.64999
 31
0.0
  0
LINE
  5
258
  8
0
 10
2.56499
 20
4.64999
 30
0.0
 11
2.56499
 21
4.35001
 31
0.0
  0
LINE
  5
259
  8
0
 10
2.56499
 20
4.35001
 30
0.0
 11
2.53499
 21
4.35001
 31
0.0
  0
LINE
  5
25A
  8
0
 10
2.575
 20
4.35001
 30
0.0
 11
2.575
 21
4.64999
 31
0.0
  0
LINE
  5
25B
  8
0
 10
2.575
 20
4.64999
 30
0.0
 11
2.605
 21
4.64999
 31
0.0
  0
LINE
  5
25C
  8
0
 10
2.605
 20
4.64999
 30
0.0
 11
2.605
 21
4.35001
 31
0.0
  0
LINE
  5
25D
  8
0
 10
2.605
 20
4.35001
 30
0.0
 11
2.575
 21
4.35001
 31
0.0
  0
LINE
  5
25E
  8
0
 10
2.61499
 20
4.35001
 30
0.0
 11
2.61499
 21
4.64999
 31
0.0
  0
LINE
  5
25F
  8
0
 10
2.61499
 20
4.64999
 30
0.0
 11
2.64499
 21
4.64999
 31
0.0
  0
LINE
  5
260
  8
0
 10
2.64499
 20
4.64999
 30
0.0
 11
2.64499
 21
4.35001
 31
0.0
  0
LINE
  5
261
  8
0
 10
2.64499
 20
4.35001
 30
0.0
 11
2.61499
 21
4.35001
 31
0.0
  0
LINE
  5
262
  8
0
 10
2.655
 20
4.35001
 30
0.0
 11
2.655
 21
4.64999
 31
0.0
  0
LINE
  5
263
  8
0
 10
2.655
 20
4.64999
 30
0.0
 11
2.685
 21
4.64999
 31
0.0
  0
LINE
  5
264
  8
0
 10
2.685
 20
4.64999
 30
0.0
 11
2.685
 21
4.35001
 31
0.0
  0
LINE
  5
265
  8
0
 10
2.685
 20
4.35001
 30
0.0
 11
2.655
 21
4.35001
 31
0.0
  0
LINE
  5
266
  8
0
 10
2.69499
 20
4.35001
 30
0.0
 11
2.69499
 21
4.64999
 31
0.0
  0
LINE
  5
267
  8
0
 10
2.69499
 20
4.64999
 30
0.0
 11
2.72499
 21
4.64999
 31
0.0
  0
LINE
  5
268
  8
0
 10
2.72499
 20
4.64999
 30
0.0
 11
2.72499
 21
4.35001
 31
0.0
  0
LINE
  5
269
  8
0
 10
2.72499
 20
4.35001
 30
0.0
 11
2.69499
 21
4.35001
 31
0.0
  0
LINE
  5
26A
  8
0
 10
2.73499
 20
4.35001
 30
0.0
 11
2.73499
 21
4.64999
 31
0.0
  0
LINE
  5
26B
  8
0
 10
2.73499
 20
4.64999
 30
0.0
 11
2.765
 21
4.64999
 31
0.0
  0
LINE
  5
26C
  8
0
 10
2.765
 20
4.64999
 30
0.0
 11
2.765
 21
4.35001
 31
0.0
  0
LINE
  5
26D
  8
0
 10
2.765
 20
4.35001
 30
0.0
 11
2.73499
 21
4.35001
 31
0.0
  0
LINE
  5
26E
  8
0
 10
2.77499
 20
4.35001
 30
0.0
 11
2.77499
 21
4.64999
 31
0.0
  0
LINE
  5
26F
  8
0
 10
2.77499
 20
4.64999
 30
0.0
 11
2.80499
 21
4.64999
 31
0.0
  0
LINE
  5
270
  8
0
 10
2.80499
 20
4.64999
 30
0.0
 11
2.80499
 21
4.35001
 31
0.0
  0
LINE
  5
271
  8
0
 10
2.80499
 20
4.35001
 30
0.0
 11
2.77499
 21
4.35001
 31
0.0
  0
LINE
  5
272
  8
0
 10
2.81499
 20
4.35001
 30
0.0
 11
2.81499
 21
4.64999
 31
0.0
  0
LINE
  5
273
  8
0
 10
2.81499
 20
4.64999
 30
0.0
 11
2.84499
 21
4.64999
 31
0.0
  0
LINE
  5
274
  8
0
 10
2.84499
 20
4.64999
 30
0.0
 11
2.84499
 21
4.35001
 31
0.0
  0
LINE
  5
275
  8
0
 10
2.84499
 20
4.35001
 30
0.0
 11
2.81499
 21
4.35001
 31
0.0
  0
LINE
  5
276
  8
0
 10
2.855
 20
4.35001
 30
0.0
 11
2.855
 21
4.64999
 31
0.0
  0
LINE
  5
277
  8
0
 10
2.855
 20
4.64999
 30
0.0
 11
2.88499
 21
4.64999
 31
0.0
  0
LINE
  5
278
  8
0
 10
2.88499
 20
4.64999
 30
0.0
 11
2.88499
 21
4.35001
 31
0.0
  0
LINE
  5
279
  8
0
 10
2.88499
 20
4.35001
 30
0.0
 11
2.855
 21
4.35001
 31
0.0
  0
LINE
  5
27A
  8
0
 10
2.89499
 20
4.35001
 30
0.0
 11
2.89499
 21
4.64999
 31
0.0
  0
LINE
  5
27B
  8
0
 10
2.89499
 20
4.64999
 30
0.0
 11
2.92499
 21
4.64999
 31
0.0
  0
LINE
  5
27C
  8
0
 10
2.92499
 20
4.64999
 30
0.0
 11
2.92499
 21
4.35001
 31
0.0
  0
LINE
  5
27D
  8
0
 10
2.92499
 20
4.35001
 30
0.0
 11
2.89499
 21
4.35001
 31
0.0
  0
LINE
  5
27E
  8
0
 10
2.935
 20
4.35001
 30
0.0
 11
2.935
 21
4.64999
 31
0.0
  0
LINE
  5
27F
  8
0
 10
2.935
 20
4.64999
 30
0.0
 11
2.965
 21
4.64999
 31
0.0
  0
LINE
  5
280
  8
0
 10
2.965
 20
4.64999
 30
0.0
 11
2.965
 21
4.35001
 31
0.0
  0
LINE
  5
281
  8
0
 10
2.965
 20
4.35001
 30
0.0
 11
2.935
 21
4.35001
 31
0.0
  0
LINE
  5
282
  8
0
 10
2.97499
 20
4.35001
 30
0.0
 11
2.97499
 21
4.64999
 31
0.0
  0
LINE
  5
283
  8
0
 10
2.97499
 20
4.64999
 30
0.0
 11
3.00499
 21
4.64999
 31
0.0
  0
LINE
  5
284
  8
0
 10
3.00499
 20
4.64999
 30
0.0
 11
3.00499
 21
4.35001
 31
0.0
  0
LINE
  5
285
  8
0
 10
3.00499
 20
4.35001
 30
0.0
 11
2.97499
 21
4.35001
 31
0.0
  0
LINE
  5
286
  8
0
 10
3.015
 20
4.35001
 30
0.0
 11
3.015
 21
4.64999
 31
0.0
  0
LINE
  5
287
  8
0
 10
3.015
 20
4.64999
 30
0.0
 11
3.045
 21
4.64999
 31
0.0
  0
LINE
  5
288
  8
0
 10
3.045
 20
4.64999
 30
0.0
 11
3.045
 21
4.35001
 31
0.0
  0
LINE
  5
289
  8
0
 10
3.045
 20
4.35001
 30
0.0
 11
3.015
 21
4.35001
 31
0.0
  0
LINE
  5
28A
  8
0
 10
3.05499
 20
4.35001
 30
0.0
 11
3.05499
 21
4.64999
 31
0.0
  0
LINE
  5
28B
  8
0
 10
3.05499
 20
4.64999
 30
0.0
 11
3.08499
 21
4.64999
 31
0.0
  0
LINE
  5
28C
  8
0
 10
3.08499
 20
4.64999
 30
0.0
 11
3.08499
 21
4.35001
 31
0.0
  0
LINE
  5
28D
  8
0
 10
3.08499
 20
4.35001
 30
0.0
 11
3.05499
 21
4.35001
 31
0.0
  0
LINE
  5
28E
  8
0
 10
3.09499
 20
4.35001
 30
0.0
 11
3.09499
 21
4.64999
 31
0.0
  0
LINE
  5
28F
  8
0
 10
3.09499
 20
4.64999
 30
0.0
 11
3.125
 21
4.64999
 31
0.0
  0
LINE
  5
290
  8
0
 10
3.125
 20
4.64999
 30
0.0
 11
3.125
 21
4.35001
 31
0.0
  0
LINE
  5
291
  8
0
 10
3.125
 20
4.35001
 30
0.0
 11
3.09499
 21
4.35001
 31
0.0
  0
LINE
  5
292
  8
0
 10
1.5
 20
2.0
 30
0.0
 11
1.5
 21
3.5
 31
0.0
  0
LINE
  5
293
  8
0
 10
1.5
 20
3.5
 30
0.0
 11
1.52501
 21
3.5
 31
0.0
  0
LINE
  5
294
  8
0
 10
1.52501
 20
3.5
 30
0.0
 11
1.52501
 21
3.35001
 31
0.0
  0
LINE
  5
295
  8
0
 10
1.52501
 20
3.35001
 30
0.0
 11
1.535
 21
3.35001
 31
0.0
  0
LINE
  5
296
  8
0
 10
1.535
 20
3.35001
 30
0.0
 11
1.535
 21
3.5
 31
0.0
  0
LINE
  5
297
  8
0
 10
1.535
 20
3.5
 30
0.0
 11
1.565
 21
3.5
 31
0.0
  0
LINE
  5
298
  8
0
 10
1.565
 20
3.5
 30
0.0
 11
1.565
 21
3.35001
 31
0.0
  0
LINE
  5
299
  8
0
 10
1.565
 20
3.35001
 30
0.0
 11
1.57501
 21
3.35001
 31
0.0
  0
LINE
  5
29A
  8
0
 10
1.57501
 20
3.35001
 30
0.0
 11
1.57501
 21
3.5
 31
0.0
  0
LINE
  5
29B
  8
0
 10
1.57501
 20
3.5
 30
0.0
 11
1.60501
 21
3.5
 31
0.0
  0
LINE
  5
29C
  8
0
 10
1.60501
 20
3.5
 30
0.0
 11
1.60501
 21
3.35001
 31
0.0
  0
LINE
  5
29D
  8
0
 10
1.60501
 20
3.35001
 30
0.0
 11
1.61501
 21
3.35001
 31
0.0
  0
LINE
  5
29E
  8
0
 10
1.61501
 20
3.35001
 30
0.0
 11
1.61501
 21
3.5
 31
0.0
  0
LINE
  5
29F
  8
0
 10
1.61501
 20
3.5
 30
0.0
 11
1.645
 21
3.5
 31
0.0
  0
LINE
  5
2A0
  8
0
 10
1.645
 20
3.5
 30
0.0
 11
1.645
 21
3.35001
 31
0.0
  0
LINE
  5
2A1
  8
0
 10
1.645
 20
3.35001
 30
0.0
 11
1.65501
 21
3.35001
 31
0.0
  0
LINE
  5
2A2
  8
0
 10
1.65501
 20
3.35001
 30
0.0
 11
1.65501
 21
3.5
 31
0.0
  0
LINE
  5
2A3
  8
0
 10
1.65501
 20
3.5
 30
0.0
 11
1.68501
 21
3.5
 31
0.0
  0
LINE
  5
2A4
  8
0
 10
1.68501
 20
3.5
 30
0.0
 11
1.68501
 21
3.35001
 31
0.0
  0
LINE
  5
2A5
  8
0
 10
1.68501
 20
3.35001
 30
0.0
 11
1.69501
 21
3.35001
 31
0.0
  0
LINE
  5
2A6
  8
0
 10
1.69501
 20
3.35001
 30
0.0
 11
1.69501
 21
3.5
 31
0.0
  0
LINE
  5
2A7
  8
0
 10
1.69501
 20
3.5
 30
0.0
 11
1.72501
 21
3.5
 31
0.0
  0
LINE
  5
2A8
  8
0
 10
1.72501
 20
3.5
 30
0.0
 11
1.72501
 21
3.35001
 31
0.0
  0
LINE
  5
2A9
  8
0
 10
1.72501
 20
3.35001
 30
0.0
 11
1.735
 21
3.35001
 31
0.0
  0
LINE
  5
2AA
  8
0
 10
1.735
 20
3.35001
 30
0.0
 11
1.735
 21
3.5
 31
0.0
  0
LINE
  5
2AB
  8
0
 10
1.735
 20
3.5
 30
0.0
 11
1.76501
 21
3.5
 31
0.0
  0
LINE
  5
2AC
  8
0
 10
1.76501
 20
3.5
 30
0.0
 11
1.76501
 21
3.35001
 31
0.0
  0
LINE
  5
2AD
  8
0
 10
1.76501
 20
3.35001
 30
0.0
 11
1.77501
 21
3.35001
 31
0.0
  0
LINE
  5
2AE
  8
0
 10
1.77501
 20
3.35001
 30
0.0
 11
1.77501
 21
3.5
 31
0.0
  0
LINE
  5
2AF
  8
0
 10
1.77501
 20
3.5
 30
0.0
 11
1.80501
 21
3.5
 31
0.0
  0
LINE
  5
2B0
  8
0
 10
1.80501
 20
3.5
 30
0.0
 11
1.80501
 21
3.35001
 31
0.0
  0
LINE
  5
2B1
  8
0
 10
1.80501
 20
3.35001
 30
0.0
 11
1.815
 21
3.35001
 31
0.0
  0
LINE
  5
2B2
  8
0
 10
1.815
 20
3.35001
 30
0.0
 11
1.815
 21
3.5
 31
0.0
  0
LINE
  5
2B3
  8
0
 10
1.815
 20
3.5
 30
0.0
 11
1.845
 21
3.5
 31
0.0
  0
LINE
  5
2B4
  8
0
 10
1.845
 20
3.5
 30
0.0
 11
1.845
 21
3.35001
 31
0.0
  0
LINE
  5
2B5
  8
0
 10
1.845
 20
3.35001
 30
0.0
 11
1.85501
 21
3.35001
 31
0.0
  0
LINE
  5
2B6
  8
0
 10
1.85501
 20
3.35001
 30
0.0
 11
1.85501
 21
3.5
 31
0.0
  0
LINE
  5
2B7
  8
0
 10
1.85501
 20
3.5
 30
0.0
 11
1.88501
 21
3.5
 31
0.0
  0
LINE
  5
2B8
  8
0
 10
1.88501
 20
3.5
 30
0.0
 11
1.88501
 21
3.35001
 31
0.0
  0
LINE
  5
2B9
  8
0
 10
1.88501
 20
3.35001
 30
0.0
 11
1.895
 21
3.35001
 31
0.0
  0
LINE
  5
2BA
  8
0
 10
1.895
 20
3.35001
 30
0.0
 11
1.895
 21
3.5
 31
0.0
  0
LINE
  5
2BB
  8
0
 10
1.895
 20
3.5
 30
0.0
 11
1.925
 21
3.5
 31
0.0
  0
LINE
  5
2BC
  8
0
 10
1.925
 20
3.5
 30
0.0
 11
1.925
 21
3.35001
 31
0.0
  0
LINE
  5
2BD
  8
0
 10
1.925
 20
3.35001
 30
0.0
 11
1.93501
 21
3.35001
 31
0.0
  0
LINE
  5
2BE
  8
0
 10
1.93501
 20
3.35001
 30
0.0
 11
1.93501
 21
3.5
 31
0.0
  0
LINE
  5
2BF
  8
0
 10
1.93501
 20
3.5
 30
0.0
 11
1.96501
 21
3.5
 31
0.0
  0
LINE
  5
2C0
  8
0
 10
1.96501
 20
3.5
 30
0.0
 11
1.96501
 21
3.35001
 31
0.0
  0
LINE
  5
2C1
  8
0
 10
1.96501
 20
3.35001
 30
0.0
 11
1.97501
 21
3.35001
 31
0.0
  0
LINE
  5
2C2
  8
0
 10
1.97501
 20
3.35001
 30
0.0
 11
1.97501
 21
3.5
 31
0.0
  0
LINE
  5
2C3
  8
0
 10
1.97501
 20
3.5
 30
0.0
 11
2.005
 21
3.5
 31
0.0
  0
LINE
  5
2C4
  8
0
 10
2.005
 20
3.5
 30
0.0
 11
2.005
 21
3.35001
 31
0.0
  0
LINE
  5
2C5
  8
0
 10
2.005
 20
3.35001
 30
0.0
 11
2.01501
 21
3.35001
 31
0.0
  0
LINE
  5
2C6
  8
0
 10
2.01501
 20
3.35001
 30
0.0
 11
2.01501
 21
3.5
 31
0.0
  0
LINE
  5
2C7
  8
0
 10
2.01501
 20
3.5
 30
0.0
 11
2.04501
 21
3.5
 31
0.0
  0
LINE
  5
2C8
  8
0
 10
2.04501
 20
3.5
 30
0.0
 11
2.04501
 21
3.35001
 31
0.0
  0
LINE
  5
2C9
  8
0
 10
2.04501
 20
3.35001
 30
0.0
 11
2.05501
 21
3.35001
 31
0.0
  0
LINE
  5
2CA
  8
0
 10
2.05501
 20
3.35001
 30
0.0
 11
2.05501
 21
3.5
 31
0.0
  0
LINE
  5
2CB
  8
0
 10
2.05501
 20
3.5
 30
0.0
 11
2.08501
 21
3.5
 31
0.0
  0
LINE
  5
2CC
  8
0
 10
2.08501
 20
3.5
 30
0.0
 11
2.08501
 21
3.35001
 31
0.0
  0
LINE
  5
2CD
  8
0
 10
2.08501
 20
3.35001
 30
0.0
 11
2.095
 21
3.35001
 31
0.0
  0
LINE
  5
2CE
  8
0
 10
2.095
 20
3.35001
 30
0.0
 11
2.095
 21
3.5
 31
0.0
  0
LINE
  5
2CF
  8
0
 10
2.095
 20
3.5
 30
0.0
 11
2.125
 21
3.5
 31
0.0
  0
LINE
  5
2D0
  8
0
 10
2.125
 20
3.5
 30
0.0
 11
2.125
 21
3.35001
 31
0.0
  0
LINE
  5
2D1
  8
0
 10
2.125
 20
3.35001
 30
0.0
 11
2.13501
 21
3.35001
 31
0.0
  0
LINE
  5
2D2
  8
0
 10
2.13501
 20
3.35001
 30
0.0
 11
2.13501
 21
3.5
 31
0.0
  0
LINE
  5
2D3
  8
0
 10
2.13501
 20
3.5
 30
0.0
 11
2.16501
 21
3.5
 31
0.0
  0
LINE
  5
2D4
  8
0
 10
2.16501
 20
3.5
 30
0.0
 11
2.16501
 21
3.35001
 31
0.0
  0
LINE
  5
2D5
  8
0
 10
2.16501
 20
3.35001
 30
0.0
 11
2.175
 21
3.35001
 31
0.0
  0
LINE
  5
2D6
  8
0
 10
2.175
 20
3.35001
 30
0.0
 11
2.175
 21
3.5
 31
0.0
  0
LINE
  5
2D7
  8
0
 10
2.175
 20
3.5
 30
0.0
 11
2.205
 21
3.5
 31
0.0
  0
LINE
  5
2D8
  8
0
 10
2.205
 20
3.5
 30
0.0
 11
2.205
 21
3.35001
 31
0.0
  0
LINE
  5
2D9
  8
0
 10
2.205
 20
3.35001
 30
0.0
 11
2.21501
 21
3.35001
 31
0.0
  0
LINE
  5
2DA
  8
0
 10
2.21501
 20
3.35001
 30
0.0
 11
2.21501
 21
3.5
 31
0.0
  0
LINE
  5
2DB
  8
0
 10
2.21501
 20
3.5
 30
0.0
 11
2.24501
 21
3.5
 31
0.0
  0
LINE
  5
2DC
  8
0
 10
2.24501
 20
3.5
 30
0.0
 11
2.24501
 21
3.35001
 31
0.0
  0
LINE
  5
2DD
  8
0
 10
2.24501
 20
3.35001
 30
0.0
 11
2.25499
 21
3.35001
 31
0.0
  0
LINE
  5
2DE
  8
0
 10
2.25499
 20
3.35001
 30
0.0
 11
2.25499
 21
3.5
 31
0.0
  0
LINE
  5
2DF
  8
0
 10
2.25499
 20
3.5
 30
0.0
 11
2.28499
 21
3.5
 31
0.0
  0
LINE
  5
2E0
  8
0
 10
2.28499
 20
3.5
 30
0.0
 11
2.28499
 21
3.35001
 31
0.0
  0
LINE
  5
2E1
  8
0
 10
2.28499
 20
3.35001
 30
0.0
 11
2.295
 21
3.35001
 31
0.0
  0
LINE
  5
2E2
  8
0
 10
2.295
 20
3.35001
 30
0.0
 11
2.295
 21
3.5
 31
0.0
  0
LINE
  5
2E3
  8
0
 10
2.295
 20
3.5
 30
0.0
 11
2.325
 21
3.5
 31
0.0
  0
LINE
  5
2E4
  8
0
 10
2.325
 20
3.5
 30
0.0
 11
2.325
 21
3.35001
 31
0.0
  0
LINE
  5
2E5
  8
0
 10
2.325
 20
3.35001
 30
0.0
 11
2.33499
 21
3.35001
 31
0.0
  0
LINE
  5
2E6
  8
0
 10
2.33499
 20
3.35001
 30
0.0
 11
2.33499
 21
3.5
 31
0.0
  0
LINE
  5
2E7
  8
0
 10
2.33499
 20
3.5
 30
0.0
 11
2.36499
 21
3.5
 31
0.0
  0
LINE
  5
2E8
  8
0
 10
2.36499
 20
3.5
 30
0.0
 11
2.36499
 21
3.35001
 31
0.0
  0
LINE
  5
2E9
  8
0
 10
2.36499
 20
3.35001
 30
0.0
 11
2.375
 21
3.35001
 31
0.0
  0
LINE
  5
2EA
  8
0
 10
2.375
 20
3.35001
 30
0.0
 11
2.375
 21
3.5
 31
0.0
  0
LINE
  5
2EB
  8
0
 10
2.375
 20
3.5
 30
0.0
 11
2.405
 21
3.5
 31
0.0
  0
LINE
  5
2EC
  8
0
 10
2.405
 20
3.5
 30
0.0
 11
2.405
 21
3.35001
 31
0.0
  0
LINE
  5
2ED
  8
0
 10
2.405
 20
3.35001
 30
0.0
 11
2.41499
 21
3.35001
 31
0.0
  0
LINE
  5
2EE
  8
0
 10
2.41499
 20
3.35001
 30
0.0
 11
2.41499
 21
3.5
 31
0.0
  0
LINE
  5
2EF
  8
0
 10
2.41499
 20
3.5
 30
0.0
 11
2.44499
 21
3.5
 31
0.0
  0
LINE
  5
2F0
  8
0
 10
2.44499
 20
3.5
 30
0.0
 11
2.44499
 21
3.35001
 31
0.0
  0
LINE
  5
2F1
  8
0
 10
2.44499
 20
3.35001
 30
0.0
 11
2.45499
 21
3.35001
 31
0.0
  0
LINE
  5
2F2
  8
0
 10
2.45499
 20
3.35001
 30
0.0
 11
2.45499
 21
3.5
 31
0.0
  0
LINE
  5
2F3
  8
0
 10
2.45499
 20
3.5
 30
0.0
 11
2.48499
 21
3.5
 31
0.0
  0
LINE
  5
2F4
  8
0
 10
2.48499
 20
3.5
 30
0.0
 11
2.48499
 21
3.35001
 31
0.0
  0
LINE
  5
2F5
  8
0
 10
2.48499
 20
3.35001
 30
0.0
 11
2.495
 21
3.35001
 31
0.0
  0
LINE
  5
2F6
  8
0
 10
2.495
 20
3.35001
 30
0.0
 11
2.495
 21
3.5
 31
0.0
  0
LINE
  5
2F7
  8
0
 10
2.495
 20
3.5
 30
0.0
 11
2.52499
 21
3.5
 31
0.0
  0
LINE
  5
2F8
  8
0
 10
2.52499
 20
3.5
 30
0.0
 11
2.52499
 21
3.35001
 31
0.0
  0
LINE
  5
2F9
  8
0
 10
2.52499
 20
3.35001
 30
0.0
 11
2.53499
 21
3.35001
 31
0.0
  0
LINE
  5
2FA
  8
0
 10
2.53499
 20
3.35001
 30
0.0
 11
2.53499
 21
3.5
 31
0.0
  0
LINE
  5
2FB
  8
0
 10
2.53499
 20
3.5
 30
0.0
 11
2.56499
 21
3.5
 31
0.0
  0
LINE
  5
2FC
  8
0
 10
2.56499
 20
3.5
 30
0.0
 11
2.56499
 21
3.35001
 31
0.0
  0
LINE
  5
2FD
  8
0
 10
2.56499
 20
3.35001
 30
0.0
 11
2.575
 21
3.35001
 31
0.0
  0
LINE
  5
2FE
  8
0
 10
2.575
 20
3.35001
 30
0.0
 11
2.575
 21
3.5
 31
0.0
  0
LINE
  5
2FF
  8
0
 10
2.575
 20
3.5
 30
0.0
 11
2.605
 21
3.5
 31
0.0
  0
LINE
  5
300
  8
0
 10
2.605
 20
3.5
 30
0.0
 11
2.605
 21
3.35001
 31
0.0
  0
LINE
  5
301
  8
0
 10
2.605
 20
3.35001
 30
0.0
 11
2.61499
 21
3.35001
 31
0.0
  0
LINE
  5
302
  8
0
 10
2.61499
 20
3.35001
 30
0.0
 11
2.61499
 21
3.5
 31
0.0
  0
LINE
  5
303
  8
0
 10
2.61499
 20
3.5
 30
0.0
 11
2.64499
 21
3.5
 31
0.0
  0
LINE
  5
304
  8
0
 10
2.64499
 20
3.5
 30
0.0
 11
2.64499
 21
3.35001
 31
0.0
  0
LINE
  5
305
  8
0
 10
2.64499
 20
3.35001
 30
0.0
 11
2.655
 21
3.35001
 31
0.0
  0
LINE
  5
306
  8
0
 10
2.655
 20
3.35001
 30
0.0
 11
2.655
 21
3.5
 31
0.0
  0
LINE
  5
307
  8
0
 10
2.655
 20
3.5
 30
0.0
 11
2.685
 21
3.5
 31
0.0
  0
LINE
  5
308
  8
0
 10
2.685
 20
3.5
 30
0.0
 11
2.685
 21
3.35001
 31
0.0
  0
LINE
  5
309
  8
0
 10
2.685
 20
3.35001
 30
0.0
 11
2.69499
 21
3.35001
 31
0.0
  0
LINE
  5
30A
  8
0
 10
2.69499
 20
3.35001
 30
0.0
 11
2.69499
 21
3.5
 31
0.0
  0
LINE
  5
30B
  8
0
 10
2.69499
 20
3.5
 30
0.0
 11
2.72499
 21
3.5
 31
0.0
  0
LINE
  5
30C
  8
0
 10
2.72499
 20
3.5
 30
0.0
 11
2.72499
 21
3.35001
 31
0.0
  0
LINE
  5
30D
  8
0
 10
2.72499
 20
3.35001
 30
0.0
 11
2.73499
 21
3.35001
 31
0.0
  0
LINE
  5
30E
  8
0
 10
2.73499
 20
3.35001
 30
0.0
 11
2.73499
 21
3.5
 31
0.0
  0
LINE
  5
30F
  8
0
 10
2.73499
 20
3.5
 30
0.0
 11
2.765
 21
3.5
 31
0.0
  0
LINE
  5
310
  8
0
 10
2.765
 20
3.5
 30
0.0
 11
2.765
 21
3.35001
 31
0.0
  0
LINE
  5
311
  8
0
 10
2.765
 20
3.35001
 30
0.0
 11
2.77499
 21
3.35001
 31
0.0
  0
LINE
  5
312
  8
0
 10
2.77499
 20
3.35001
 30
0.0
 11
2.77499
 21
3.5
 31
0.0
  0
LINE
  5
313
  8
0
 10
2.77499
 20
3.5
 30
0.0
 11
2.80499
 21
3.5
 31
0.0
  0
LINE
  5
314
  8
0
 10
2.80499
 20
3.5
 30
0.0
 11
2.80499
 21
3.35001
 31
0.0
  0
LINE
  5
315
  8
0
 10
2.80499
 20
3.35001
 30
0.0
 11
2.81499
 21
3.35001
 31
0.0
  0
LINE
  5
316
  8
0
 10
2.81499
 20
3.35001
 30
0.0
 11
2.81499
 21
3.5
 31
0.0
  0
LINE
  5
317
  8
0
 10
2.81499
 20
3.5
 30
0.0
 11
2.84499
 21
3.5
 31
0.0
  0
LINE
  5
318
  8
0
 10
2.84499
 20
3.5
 30
0.0
 11
2.84499
 21
3.35001
 31
0.0
  0
LINE
  5
319
  8
0
 10
2.84499
 20
3.35001
 30
0.0
 11
2.855
 21
3.35001
 31
0.0
  0
LINE
  5
31A
  8
0
 10
2.855
 20
3.35001
 30
0.0
 11
2.855
 21
3.5
 31
0.0
  0
LINE
  5
31B
  8
0
 10
2.855
 20
3.5
 30
0.0
 11
2.88499
 21
3.5
 31
0.0
  0
LINE
  5
31C
  8
0
 10
2.88499
 20
3.5
 30
0.0
 11
2.88499
 21
3.35001
 31
0.0
  0
LINE
  5
31D
  8
0
 10
2.88499
 20
3.35001
 30
0.0
 11
2.89499
 21
3.35001
 31
0.0
  0
LINE
  5
31E
  8
0
 10
2.89499
 20
3.35001
 30
0.0
 11
2.89499
 21
3.5
 31
0.0
  0
LINE
  5
31F
  8
0
 10
2.89499
 20
3.5
 30
0.0
 11
2.92499
 21
3.5
 31
0.0
  0
LINE
  5
320
  8
0
 10
2.92499
 20
3.5
 30
0.0
 11
2.92499
 21
3.35001
 31
0.0
  0
LINE
  5
321
  8
0
 10
2.92499
 20
3.35001
 30
0.0
 11
2.935
 21
3.35001
 31
0.0
  0
LINE
  5
322
  8
0
 10
2.935
 20
3.35001
 30
0.0
 11
2.935
 21
3.5
 31
0.0
  0
LINE
  5
323
  8
0
 10
2.935
 20
3.5
 30
0.0
 11
2.965
 21
3.5
 31
0.0
  0
LINE
  5
324
  8
0
 10
2.965
 20
3.5
 30
0.0
 11
2.965
 21
3.35001
 31
0.0
  0
LINE
  5
325
  8
0
 10
2.965
 20
3.35001
 30
0.0
 11
2.97499
 21
3.35001
 31
0.0
  0
LINE
  5
326
  8
0
 10
2.97499
 20
3.35001
 30
0.0
 11
2.97499
 21
3.5
 31
0.0
  0
LINE
  5
327
  8
0
 10
2.97499
 20
3.5
 30
0.0
 11
3.0
 21
3.5
 31
0.0
  0
LINE
  5
328
  8
0
 10
3.0
 20
3.5
 30
0.0
 11
3.0
 21
2.0
 31
0.0
  0
LINE
  5
329
  8
0
 10
3.0
 20
2.0
 30
0.0
 11
1.5
 21
2.0
 31
0.0
  0
ENDSEC
  0
EOF
