  0
SECTION
  2
HEADER
  9
$ACADVER
  1
AC1009
  9
$DWGCODEPAGE
  3
ANSI_1252
  9
$INSBASE
 10
0.0
 20
0.0
 30
0.0
  9
$EXTMIN
 10
1e+20
 20
1e+20
 30
1e+20
  9
$EXTMAX
 10
-1e+20
 20
-1e+20
 30
-1e+20
  9
$LIMMIN
 10
0.0
 20
0.0
  9
$LIMMAX
 10
420.0
 20
297.0
  9
$ORTHOMODE
 70
0
  9
$REGENMODE
 70
1
  9
$FILLMODE
 70
1
  9
$DRAGMODE
 70
2
  9
$QTEXTMODE
 70
0
  9
$MIRRTEXT
 70
1
  9
$OSMODE
 70
20583
  9
$LTSCALE
 40
1.0
  9
$ATTMODE
 70
1
  9
$TEXTSIZE
 40
2.5
  9
$TRACEWID
 40
1.0
  9
$TEXTSTYLE
  7
Standard
  9
$CLAYER
  8
0
  9
$CELTYPE
  6
ByLayer
  9
$CECOLOR
 62
256
  9
$DIMSCALE
 40
1.0
  9
$DIMASZ
 40
2.5
  9
$DIMEXO
 40
0.625
  9
$DIMDLI
 40
3.75
  9
$DIMRND
 40
0.0
  9
$DIMDLE
 40
0.0
  9
$DIMEXE
 40
1.25
  9
$DIMTP
 40
0.0
  9
$DIMTM
 40
0.0
  9
$DIMTXT
 40
2.5
  9
$DIMCEN
 40
2.5
  9
$DIMTSZ
 40
0.0
  9
$DIMTOL
 70
0
  9
$DIMLIM
 70
0
  9
$DIMTIH
 70
0
  9
$DIMTOH
 70
0
  9
$DIMSE1
 70
0
  9
$DIMSE2
 70
0
  9
$DIMTAD
 70
1
  9
$DIMZIN
 70
8
  9
$DIMBLK
  1

  9
$DIMASO
 70
1
  9
$DIMSHO
 70
1
  9
$DIMPOST
  1

  9
$DIMAPOST
  1

  9
$DIMALT
 70
0
  9
$DIMALTD
 70
3
  9
$DIMALTF
 40
0.03937007874
  9
$DIMLFAC
 40
1.0
  9
$DIMTOFL
 70
1
  9
$DIMTVP
 40
0.0
  9
$DIMTIX
 70
0
  9
$DIMSOXD
 70
0
  9
$DIMSAH
 70
0
  9
$DIMBLK1
  1

  9
$DIMBLK2
  1

  9
$DIMSTYLE
  2
ISO-25
  9
$DIMCLRD
 70
0
  9
$DIMCLRE
 70
0
  9
$DIMCLRT
 70
0
  9
$DIMTFAC
 40
1.0
  9
$DIMGAP
 40
0.625
  9
$COORDS
 70
1
  9
$ATTDIA
 70
0
  9
$ATTREQ
 70
1
  9
$HANDLING
 70
1
  9
$LUNITS
 70
2
  9
$LUPREC
 70
4
  9
$SKETCHINC
 40
1.0
  9
$FILLETRAD
 40
10.0
  9
$AUNITS
 70
0
  9
$AUPREC
 70
2
  9
$MENU
  1
.
  9
$ELEVATION
 40
0.0
  9
$PELEVATION
 40
0.0
  9
$THICKNESS
 40
0.0
  9
$LIMCHECK
 70
0
  9
$CHAMFERA
 40
0.0
  9
$CHAMFERB
 40
0.0
  9
$SKPOLY
 70
0
  9
$TDCREATE
 40
2459878.9397106483
  9
$TDUPDATE
 40
2459878.9397106483
  9
$TDINDWG
 40
0.0
  9
$TDUSRTIMER
 40
0.0
  9
$USRTIMER
 70
1
  9
$ANGBASE
 50
0.0
  9
$ANGDIR
 70
0
  9
$PDMODE
 70
0
  9
$PDSIZE
 40
0.0
  9
$PLINEWID
 40
0.0
  9
$SPLFRAME
 70
0
  9
$SPLINETYPE
 70
6
  9
$SPLINESEGS
 70
8
  9
$HANDSEED
  5
4FC
  9
$SURFTAB1
 70
6
  9
$SURFTAB2
 70
6
  9
$SURFTYPE
 70
6
  9
$SURFU
 70
6
  9
$SURFV
 70
6
  9
$UCSNAME
  2

  9
$UCSORG
 10
0.0
 20
0.0
 30
0.0
  9
$UCSXDIR
 10
1.0
 20
0.0
 30
0.0
  9
$UCSYDIR
 10
0.0
 20
1.0
 30
0.0
  9
$PUCSNAME
  2

  9
$PUCSORG
 10
0.0
 20
0.0
 30
0.0
  9
$PUCSXDIR
 10
1.0
 20
0.0
 30
0.0
  9
$PUCSYDIR
 10
0.0
 20
1.0
 30
0.0
  9
$USERI1
 70
0
  9
$USERI2
 70
0
  9
$USERI3
 70
0
  9
$USERI4
 70
0
  9
$USERI5
 70
0
  9
$USERR1
 40
0.0
  9
$USERR2
 40
0.0
  9
$USERR3
 40
0.0
  9
$USERR4
 40
0.0
  9
$USERR5
 40
0.0
  9
$WORLDVIEW
 70
1
  9
$SHADEDGE
 70
3
  9
$SHADEDIF
 70
70
  9
$TILEMODE
 70
1
  9
$MAXACTVP
 70
64
  9
$PLIMCHECK
 70
0
  9
$PEXTMIN
 10
1e+20
 20
1e+20
 30
1e+20
  9
$PEXTMAX
 10
-1e+20
 20
-1e+20
 30
-1e+20
  9
$PLIMMIN
 10
0.0
 20
0.0
  9
$PLIMMAX
 10
420.0
 20
297.0
  9
$UNITMODE
 70
0
  9
$VISRETAIN
 70
1
  9
$PLINEGEN
 70
0
  9
$PSLTSCALE
 70
1
  0
ENDSEC
  0
SECTION
  2
TABLES
  0
TABLE
  2
VPORT
 70
1
  0
VPORT
  5
4F0
  2
*Active
 70
0
 10
0.0
 20
0.0
 11
1.0
 21
1.0
 12
0.0
 22
0.0
 13
0.0
 23
0.0
 14
0.5
 24
0.5
 15
0.5
 25
0.5
 16
0.0
 26
0.0
 36
1.0
 17
0.0
 27
0.0
 37
0.0
 40
1000.0
 41
1.34
 42
50.0
 43
0.0
 44
0.0
 50
0.0
 51
0.0
 71
0
 72
1000
 73
1
 74
3
 75
0
 76
0
 77
0
 78
0
  0
ENDTAB
  0
TABLE
  2
LTYPE
 70
3
  0
LTYPE
  5
4F1
  2
ByBlock
 70
0
  3

 72
65
 73
0
 40
0.0
  0
LTYPE
  5
4F2
  2
ByLayer
 70
0
  3

 72
65
 73
0
 40
0.0
  0
LTYPE
  5
4F3
  2
Continuous
 70
0
  3

 72
65
 73
0
 40
0.0
  0
ENDTAB
  0
TABLE
  2
LAYER
 70
2
  0
LAYER
  5
4F4
  2
0
 70
0
 62
7
  6
Continuous
  0
LAYER
  5
4F5
  2
Defpoints
 70
0
 62
7
  6
Continuous
  0
ENDTAB
  0
TABLE
  2
STYLE
 70
1
  0
STYLE
  5
4F6
  2
Standard
 70
0
 40
0.0
 41
1.0
 50
0.0
 71
0
 42
2.5
  3
txt
  4

  0
ENDTAB
  0
TABLE
  2
VIEW
 70
0
  0
ENDTAB
  0
TABLE
  2
UCS
 70
0
  0
ENDTAB
  0
TABLE
  2
APPID
 70
3
  0
APPID
  5
4F7
  2
ACAD
 70
0
  0
APPID
  5
4FA
  2
HATCHBACKGROUNDCOLOR
 70
0
  0
APPID
  5
4FB
  2
EZDXF
 70
0
  0
ENDTAB
  0
TABLE
  2
DIMSTYLE
 70
1
  0
DIMSTYLE
105
4F8
  2
Standard
 70
0
  3

  4

  5

  6

  7

 40
1.0
 41
2.5
 42
0.625
 43
3.75
 44
1.25
 45
0.0
 46
0.0
 47
0.0
 48
0.0
140
2.5
141
2.5
142
0.0
143
0.03937007874
144
1.0
145
0.0
146
1.0
147
0.625
 71
0
 72
0
 73
0
 74
0
 75
0
 76
0
 77
1
 78
8
170
0
171
3
172
1
173
0
174
0
175
0
176
0
177
0
178
0
  0
ENDTAB
  0
ENDSEC
  0
SECTION
  2
BLOCKS
  0
BLOCK
  5
4D1
  8
0
  2
$Model_Space
 70
0
 10
0.0
 20
0.0
 30
0.0
  3
$Model_Space
  1

1001
EZDXF
1000
WRITTEN_BY_EZDXF
1000
0.17.2 @ 2022-10-26T02:33:11.647097+00:00
  0
ENDBLK
  5
4D2
  8
0
  0
BLOCK
  5
4D3
  8
0
  2
$Paper_Space
 70
0
 10
0.0
 20
0.0
 30
0.0
  3
$Paper_Space
  1

  0
ENDBLK
  5
4D4
  8
0
  0
ENDSEC
  0
SECTION
  2
ENTITIES
  0
LINE
  5
100
  8
0
 10
36.9595
 20
-24.1816
 30
0.0
 11
37.9188
 21
-24.1639
 31
0.0
  0
LINE
  5
101
  8
0
 10
37.9188
 20
-24.1639
 30
0.0
 11
38.8779
 21
-24.1345
 31
0.0
  0
LINE
  5
102
  8
0
 10
38.8779
 20
-24.1345
 30
0.0
 11
39.8365
 21
-24.0933
 31
0.0
  0
LINE
  5
103
  8
0
 10
39.8365
 20
-24.0933
 30
0.0
 11
40.7945
 21
-24.0404
 31
0.0
  0
LINE
  5
104
  8
0
 10
40.7945
 20
-24.0404
 30
0.0
 11
41.7518
 21
-23.9756
 31
0.0
  0
LINE
  5
105
  8
0
 10
41.7518
 20
-23.9756
 30
0.0
 11
42.7083
 21
-23.8992
 31
0.0
  0
LINE
  5
106
  8
0
 10
42.7083
 20
-23.8992
 30
0.0
 11
43.6637
 21
-23.811
 31
0.0
  0
LINE
  5
107
  8
0
 10
43.6637
 20
-23.811
 30
0.0
 11
44.618
 21
-23.7111
 31
0.0
  0
LINE
  5
108
  8
0
 10
44.618
 20
-23.7111
 30
0.0
 11
45.571
 21
-23.5995
 31
0.0
  0
LINE
  5
109
  8
0
 10
45.571
 20
-23.5995
 30
0.0
 11
46.5225
 21
-23.4762
 31
0.0
  0
LINE
  5
10A
  8
0
 10
46.5225
 20
-23.4762
 30
0.0
 11
47.4725
 21
-23.3412
 31
0.0
  0
LINE
  5
10B
  8
0
 10
47.4725
 20
-23.3412
 30
0.0
 11
48.4207
 21
-23.1946
 31
0.0
  0
LINE
  5
10C
  8
0
 10
48.4207
 20
-23.1946
 30
0.0
 11
49.3671
 21
-23.0364
 31
0.0
  0
LINE
  5
10D
  8
0
 10
49.3671
 20
-23.0364
 30
0.0
 11
50.3114
 21
-22.8665
 31
0.0
  0
LINE
  5
10E
  8
0
 10
50.3114
 20
-22.8665
 30
0.0
 11
51.2536
 21
-22.6851
 31
0.0
  0
LINE
  5
10F
  8
0
 10
51.2536
 20
-22.6851
 30
0.0
 11
52.1935
 21
-22.4922
 31
0.0
  0
LINE
  5
110
  8
0
 10
52.1935
 20
-22.4922
 30
0.0
 11
53.131
 21
-22.2877
 31
0.0
  0
LINE
  5
111
  8
0
 10
53.131
 20
-22.2877
 30
0.0
 11
54.0659
 21
-22.0717
 31
0.0
  0
LINE
  5
112
  8
0
 10
54.0659
 20
-22.0717
 30
0.0
 11
54.998
 21
-21.8443
 31
0.0
  0
LINE
  5
113
  8
0
 10
54.998
 20
-21.8443
 30
0.0
 11
55.9273
 21
-21.6055
 31
0.0
  0
LINE
  5
114
  8
0
 10
55.9273
 20
-21.6055
 30
0.0
 11
56.8536
 21
-21.3552
 31
0.0
  0
LINE
  5
115
  8
0
 10
56.8536
 20
-21.3552
 30
0.0
 11
57.7767
 21
-21.0937
 31
0.0
  0
LINE
  5
116
  8
0
 10
57.7767
 20
-21.0937
 30
0.0
 11
58.6966
 21
-20.8208
 31
0.0
  0
LINE
  5
117
  8
0
 10
58.6966
 20
-20.8208
 30
0.0
 11
59.6131
 21
-20.5366
 31
0.0
  0
LINE
  5
118
  8
0
 10
59.6131
 20
-20.5366
 30
0.0
 11
60.526
 21
-20.2412
 31
0.0
  0
LINE
  5
119
  8
0
 10
60.526
 20
-20.2412
 30
0.0
 11
61.4352
 21
-19.9347
 31
0.0
  0
LINE
  5
11A
  8
0
 10
61.4352
 20
-19.9347
 30
0.0
 11
62.3406
 21
-19.617
 31
0.0
  0
LINE
  5
11B
  8
0
 10
62.3406
 20
-19.617
 30
0.0
 11
63.242
 21
-19.2882
 31
0.0
  0
LINE
  5
11C
  8
0
 10
63.242
 20
-19.2882
 30
0.0
 11
64.1393
 21
-18.9484
 31
0.0
  0
LINE
  5
11D
  8
0
 10
64.1393
 20
-18.9484
 30
0.0
 11
65.0324
 21
-18.5976
 31
0.0
  0
LINE
  5
11E
  8
0
 10
65.0324
 20
-18.5976
 30
0.0
 11
65.9211
 21
-18.2358
 31
0.0
  0
LINE
  5
11F
  8
0
 10
65.9211
 20
-18.2358
 30
0.0
 11
66.8053
 21
-17.8632
 31
0.0
  0
LINE
  5
120
  8
0
 10
66.8053
 20
-17.8632
 30
0.0
 11
67.6848
 21
-17.4798
 31
0.0
  0
LINE
  5
121
  8
0
 10
67.6848
 20
-17.4798
 30
0.0
 11
68.5596
 21
-17.0856
 31
0.0
  0
LINE
  5
122
  8
0
 10
68.5596
 20
-17.0856
 30
0.0
 11
69.4295
 21
-16.6806
 31
0.0
  0
LINE
  5
123
  8
0
 10
69.4295
 20
-16.6806
 30
0.0
 11
70.2943
 21
-16.2651
 31
0.0
  0
LINE
  5
124
  8
0
 10
70.2943
 20
-16.2651
 30
0.0
 11
71.154
 21
-15.839
 31
0.0
  0
LINE
  5
125
  8
0
 10
71.154
 20
-15.839
 30
0.0
 11
72.0084
 21
-15.4023
 31
0.0
  0
LINE
  5
126
  8
0
 10
72.0084
 20
-15.4023
 30
0.0
 11
72.8573
 21
-14.9552
 31
0.0
  0
LINE
  5
127
  8
0
 10
72.8573
 20
-14.9552
 30
0.0
 11
73.7007
 21
-14.4977
 31
0.0
  0
LINE
  5
128
  8
0
 10
73.7007
 20
-14.4977
 30
0.0
 11
74.5385
 21
-14.0299
 31
0.0
  0
LINE
  5
129
  8
0
 10
74.5385
 20
-14.0299
 30
0.0
 11
75.3704
 21
-13.5519
 31
0.0
  0
LINE
  5
12A
  8
0
 10
75.3704
 20
-13.5519
 30
0.0
 11
76.1964
 21
-13.0636
 31
0.0
  0
LINE
  5
12B
  8
0
 10
76.1964
 20
-13.0636
 30
0.0
 11
77.0164
 21
-12.5653
 31
0.0
  0
LINE
  5
12C
  8
0
 10
77.0164
 20
-12.5653
 30
0.0
 11
77.8301
 21
-12.057
 31
0.0
  0
LINE
  5
12D
  8
0
 10
77.8301
 20
-12.057
 30
0.0
 11
78.6376
 21
-11.5387
 31
0.0
  0
LINE
  5
12E
  8
0
 10
78.6376
 20
-11.5387
 30
0.0
 11
79.4386
 21
-11.0105
 31
0.0
  0
LINE
  5
12F
  8
0
 10
79.4386
 20
-11.0105
 30
0.0
 11
80.2332
 21
-10.4726
 31
0.0
  0
LINE
  5
130
  8
0
 10
80.2332
 20
-10.4726
 30
0.0
 11
81.021
 21
-9.92491
 31
0.0
  0
LINE
  5
131
  8
0
 10
81.021
 20
-9.92491
 30
0.0
 11
81.8021
 21
-9.36761
 31
0.0
  0
LINE
  5
132
  8
0
 10
81.8021
 20
-9.36761
 30
0.0
 11
82.5762
 21
-8.80078
 31
0.0
  0
LINE
  5
133
  8
0
 10
82.5762
 20
-8.80078
 30
0.0
 11
83.3434
 21
-8.22449
 31
0.0
  0
LINE
  5
134
  8
0
 10
83.3434
 20
-8.22449
 30
0.0
 11
84.1034
 21
-7.63882
 31
0.0
  0
LINE
  5
135
  8
0
 10
84.1034
 20
-7.63882
 30
0.0
 11
84.8562
 21
-7.04388
 31
0.0
  0
LINE
  5
136
  8
0
 10
84.8562
 20
-7.04388
 30
0.0
 11
85.6016
 21
-6.43974
 31
0.0
  0
LINE
  5
137
  8
0
 10
85.6016
 20
-6.43974
 30
0.0
 11
86.3396
 21
-5.82651
 31
0.0
  0
LINE
  5
138
  8
0
 10
86.3396
 20
-5.82651
 30
0.0
 11
87.0699
 21
-5.20425
 31
0.0
  0
LINE
  5
139
  8
0
 10
87.0699
 20
-5.20425
 30
0.0
 11
87.7926
 21
-4.57309
 31
0.0
  0
LINE
  5
13A
  8
0
 10
87.7926
 20
-4.57309
 30
0.0
 11
88.5075
 21
-3.93311
 31
0.0
  0
LINE
  5
13B
  8
0
 10
88.5075
 20
-3.93311
 30
0.0
 11
89.2145
 21
-3.28439
 31
0.0
  0
LINE
  5
13C
  8
0
 10
89.2145
 20
-3.28439
 30
0.0
 11
89.9135
 21
-2.62706
 31
0.0
  0
LINE
  5
13D
  8
0
 10
89.9135
 20
-2.62706
 30
0.0
 11
90.6043
 21
-1.9612
 31
0.0
  0
LINE
  5
13E
  8
0
 10
90.6043
 20
-1.9612
 30
0.0
 11
91.2869
 21
-1.28691
 31
0.0
  0
LINE
  5
13F
  8
0
 10
91.2869
 20
-1.28691
 30
0.0
 11
91.9612
 21
-0.604279
 31
0.0
  0
LINE
  5
140
  8
0
 10
91.9612
 20
-0.604279
 30
0.0
 11
92.6271
 21
0.0865479
 31
0.0
  0
LINE
  5
141
  8
0
 10
92.6271
 20
0.0865479
 30
0.0
 11
93.2844
 21
0.785507
 31
0.0
  0
LINE
  5
142
  8
0
 10
93.2844
 20
0.785507
 30
0.0
 11
93.9331
 21
1.49248
 31
0.0
  0
LINE
  5
143
  8
0
 10
93.9331
 20
1.49248
 30
0.0
 11
94.5731
 21
2.20737
 31
0.0
  0
LINE
  5
144
  8
0
 10
94.5731
 20
2.20737
 30
0.0
 11
95.2043
 21
2.93004
 31
0.0
  0
LINE
  5
145
  8
0
 10
95.2043
 20
2.93004
 30
0.0
 11
95.8265
 21
3.66042
 31
0.0
  0
LINE
  5
146
  8
0
 10
95.8265
 20
3.66042
 30
0.0
 11
96.4398
 21
4.39836
 31
0.0
  0
LINE
  5
147
  8
0
 10
96.4398
 20
4.39836
 30
0.0
 11
97.0439
 21
5.1438
 31
0.0
  0
LINE
  5
148
  8
0
 10
97.0439
 20
5.1438
 30
0.0
 11
97.6388
 21
5.89658
 31
0.0
  0
LINE
  5
149
  8
0
 10
97.6388
 20
5.89658
 30
0.0
 11
98.2245
 21
6.6566
 31
0.0
  0
LINE
  5
14A
  8
0
 10
98.2245
 20
6.6566
 30
0.0
 11
98.8008
 21
7.42375
 31
0.0
  0
LINE
  5
14B
  8
0
 10
98.8008
 20
7.42375
 30
0.0
 11
99.3676
 21
8.19792
 31
0.0
  0
LINE
  5
14C
  8
0
 10
99.3676
 20
8.19792
 30
0.0
 11
99.9249
 21
8.97899
 31
0.0
  0
LINE
  5
14D
  8
0
 10
99.9249
 20
8.97899
 30
0.0
 11
100.473
 21
9.76683
 31
0.0
  0
LINE
  5
14E
  8
0
 10
100.473
 20
9.76683
 30
0.0
 11
101.011
 21
10.5613
 31
0.0
  0
LINE
  5
14F
  8
0
 10
101.011
 20
10.5613
 30
0.0
 11
101.539
 21
11.3624
 31
0.0
  0
LINE
  5
150
  8
0
 10
101.539
 20
11.3624
 30
0.0
 11
102.057
 21
12.1699
 31
0.0
  0
LINE
  5
151
  8
0
 10
102.057
 20
12.1699
 30
0.0
 11
102.565
 21
12.9836
 31
0.0
  0
LINE
  5
152
  8
0
 10
102.565
 20
12.9836
 30
0.0
 11
103.064
 21
13.8036
 31
0.0
  0
LINE
  5
153
  8
0
 10
103.064
 20
13.8036
 30
0.0
 11
103.552
 21
14.6296
 31
0.0
  0
LINE
  5
154
  8
0
 10
103.552
 20
14.6296
 30
0.0
 11
104.03
 21
15.4615
 31
0.0
  0
LINE
  5
155
  8
0
 10
104.03
 20
15.4615
 30
0.0
 11
104.498
 21
16.2993
 31
0.0
  0
LINE
  5
156
  8
0
 10
104.498
 20
16.2993
 30
0.0
 11
104.955
 21
17.1427
 31
0.0
  0
LINE
  5
157
  8
0
 10
104.955
 20
17.1427
 30
0.0
 11
105.402
 21
17.9916
 31
0.0
  0
LINE
  5
158
  8
0
 10
105.402
 20
17.9916
 30
0.0
 11
105.839
 21
18.846
 31
0.0
  0
LINE
  5
159
  8
0
 10
105.839
 20
18.846
 30
0.0
 11
106.265
 21
19.7057
 31
0.0
  0
LINE
  5
15A
  8
0
 10
106.265
 20
19.7057
 30
0.0
 11
106.681
 21
20.5705
 31
0.0
  0
LINE
  5
15B
  8
0
 10
106.681
 20
20.5705
 30
0.0
 11
107.086
 21
21.4404
 31
0.0
  0
LINE
  5
15C
  8
0
 10
107.086
 20
21.4404
 30
0.0
 11
107.48
 21
22.3152
 31
0.0
  0
LINE
  5
15D
  8
0
 10
107.48
 20
22.3152
 30
0.0
 11
107.863
 21
23.1947
 31
0.0
  0
LINE
  5
15E
  8
0
 10
107.863
 20
23.1947
 30
0.0
 11
108.236
 21
24.0789
 31
0.0
  0
LINE
  5
15F
  8
0
 10
108.236
 20
24.0789
 30
0.0
 11
108.598
 21
24.9676
 31
0.0
  0
LINE
  5
160
  8
0
 10
108.598
 20
24.9676
 30
0.0
 11
108.948
 21
25.8607
 31
0.0
  0
LINE
  5
161
  8
0
 10
108.948
 20
25.8607
 30
0.0
 11
109.288
 21
26.758
 31
0.0
  0
LINE
  5
162
  8
0
 10
109.288
 20
26.758
 30
0.0
 11
109.617
 21
27.6594
 31
0.0
  0
LINE
  5
163
  8
0
 10
109.617
 20
27.6594
 30
0.0
 11
109.935
 21
28.5648
 31
0.0
  0
LINE
  5
164
  8
0
 10
109.935
 20
28.5648
 30
0.0
 11
110.241
 21
29.474
 31
0.0
  0
LINE
  5
165
  8
0
 10
110.241
 20
29.474
 30
0.0
 11
110.537
 21
30.3869
 31
0.0
  0
LINE
  5
166
  8
0
 10
110.537
 20
30.3869
 30
0.0
 11
110.821
 21
31.3034
 31
0.0
  0
LINE
  5
167
  8
0
 10
110.821
 20
31.3034
 30
0.0
 11
111.094
 21
32.2232
 31
0.0
  0
LINE
  5
168
  8
0
 10
111.094
 20
32.2232
 30
0.0
 11
111.355
 21
33.1464
 31
0.0
  0
LINE
  5
169
  8
0
 10
111.355
 20
33.1464
 30
0.0
 11
111.605
 21
34.0727
 31
0.0
  0
LINE
  5
16A
  8
0
 10
111.605
 20
34.0727
 30
0.0
 11
111.844
 21
35.002
 31
0.0
  0
LINE
  5
16B
  8
0
 10
111.844
 20
35.002
 30
0.0
 11
112.072
 21
35.9341
 31
0.0
  0
LINE
  5
16C
  8
0
 10
112.072
 20
35.9341
 30
0.0
 11
112.288
 21
36.869
 31
0.0
  0
LINE
  5
16D
  8
0
 10
112.288
 20
36.869
 30
0.0
 11
112.492
 21
37.8065
 31
0.0
  0
LINE
  5
16E
  8
0
 10
112.492
 20
37.8065
 30
0.0
 11
112.685
 21
38.7464
 31
0.0
  0
LINE
  5
16F
  8
0
 10
112.685
 20
38.7464
 30
0.0
 11
112.867
 21
39.6886
 31
0.0
  0
LINE
  5
170
  8
0
 10
112.867
 20
39.6886
 30
0.0
 11
113.036
 21
40.6329
 31
0.0
  0
LINE
  5
171
  8
0
 10
113.036
 20
40.6329
 30
0.0
 11
113.195
 21
41.5793
 31
0.0
  0
LINE
  5
172
  8
0
 10
113.195
 20
41.5793
 30
0.0
 11
113.341
 21
42.5275
 31
0.0
  0
LINE
  5
173
  8
0
 10
113.341
 20
42.5275
 30
0.0
 11
113.476
 21
43.4775
 31
0.0
  0
LINE
  5
174
  8
0
 10
113.476
 20
43.4775
 30
0.0
 11
113.599
 21
44.429
 31
0.0
  0
LINE
  5
175
  8
0
 10
113.599
 20
44.429
 30
0.0
 11
113.711
 21
45.382
 31
0.0
  0
LINE
  5
176
  8
0
 10
113.711
 20
45.382
 30
0.0
 11
113.811
 21
46.3363
 31
0.0
  0
LINE
  5
177
  8
0
 10
113.811
 20
46.3363
 30
0.0
 11
113.899
 21
47.2917
 31
0.0
  0
LINE
  5
178
  8
0
 10
113.899
 20
47.2917
 30
0.0
 11
113.976
 21
48.2482
 31
0.0
  0
LINE
  5
179
  8
0
 10
113.976
 20
48.2482
 30
0.0
 11
114.04
 21
49.2055
 31
0.0
  0
LINE
  5
17A
  8
0
 10
114.04
 20
49.2055
 30
0.0
 11
114.093
 21
50.1635
 31
0.0
  0
LINE
  5
17B
  8
0
 10
114.093
 20
50.1635
 30
0.0
 11
114.135
 21
51.1221
 31
0.0
  0
LINE
  5
17C
  8
0
 10
114.135
 20
51.1221
 30
0.0
 11
114.164
 21
52.0812
 31
0.0
  0
LINE
  5
17D
  8
0
 10
114.164
 20
52.0812
 30
0.0
 11
114.182
 21
53.0405
 31
0.0
  0
LINE
  5
17E
  8
0
 10
114.182
 20
53.0405
 30
0.0
 11
114.188
 21
54.0
 31
0.0
  0
LINE
  5
17F
  8
0
 10
114.188
 20
54.0
 30
0.0
 11
114.182
 21
54.9595
 31
0.0
  0
LINE
  5
180
  8
0
 10
114.182
 20
54.9595
 30
0.0
 11
114.164
 21
55.9188
 31
0.0
  0
LINE
  5
181
  8
0
 10
114.164
 20
55.9188
 30
0.0
 11
114.135
 21
56.8779
 31
0.0
  0
LINE
  5
182
  8
0
 10
114.135
 20
56.8779
 30
0.0
 11
114.093
 21
57.8365
 31
0.0
  0
LINE
  5
183
  8
0
 10
114.093
 20
57.8365
 30
0.0
 11
114.04
 21
58.7945
 31
0.0
  0
LINE
  5
184
  8
0
 10
114.04
 20
58.7945
 30
0.0
 11
113.976
 21
59.7518
 31
0.0
  0
LINE
  5
185
  8
0
 10
113.976
 20
59.7518
 30
0.0
 11
113.899
 21
60.7083
 31
0.0
  0
LINE
  5
186
  8
0
 10
113.899
 20
60.7083
 30
0.0
 11
113.811
 21
61.6637
 31
0.0
  0
LINE
  5
187
  8
0
 10
113.811
 20
61.6637
 30
0.0
 11
113.711
 21
62.618
 31
0.0
  0
LINE
  5
188
  8
0
 10
113.711
 20
62.618
 30
0.0
 11
113.599
 21
63.571
 31
0.0
  0
LINE
  5
189
  8
0
 10
113.599
 20
63.571
 30
0.0
 11
113.476
 21
64.5225
 31
0.0
  0
LINE
  5
18A
  8
0
 10
113.476
 20
64.5225
 30
0.0
 11
113.341
 21
65.4725
 31
0.0
  0
LINE
  5
18B
  8
0
 10
113.341
 20
65.4725
 30
0.0
 11
113.195
 21
66.4207
 31
0.0
  0
LINE
  5
18C
  8
0
 10
113.195
 20
66.4207
 30
0.0
 11
113.036
 21
67.3671
 31
0.0
  0
LINE
  5
18D
  8
0
 10
113.036
 20
67.3671
 30
0.0
 11
112.867
 21
68.3114
 31
0.0
  0
LINE
  5
18E
  8
0
 10
112.867
 20
68.3114
 30
0.0
 11
112.685
 21
69.2536
 31
0.0
  0
LINE
  5
18F
  8
0
 10
112.685
 20
69.2536
 30
0.0
 11
112.492
 21
70.1935
 31
0.0
  0
LINE
  5
190
  8
0
 10
112.492
 20
70.1935
 30
0.0
 11
112.288
 21
71.131
 31
0.0
  0
LINE
  5
191
  8
0
 10
112.288
 20
71.131
 30
0.0
 11
112.072
 21
72.0659
 31
0.0
  0
LINE
  5
192
  8
0
 10
112.072
 20
72.0659
 30
0.0
 11
111.844
 21
72.998
 31
0.0
  0
LINE
  5
193
  8
0
 10
111.844
 20
72.998
 30
0.0
 11
111.605
 21
73.9273
 31
0.0
  0
LINE
  5
194
  8
0
 10
111.605
 20
73.9273
 30
0.0
 11
111.355
 21
74.8536
 31
0.0
  0
LINE
  5
195
  8
0
 10
111.355
 20
74.8536
 30
0.0
 11
111.094
 21
75.7767
 31
0.0
  0
LINE
  5
196
  8
0
 10
111.094
 20
75.7767
 30
0.0
 11
110.821
 21
76.6966
 31
0.0
  0
LINE
  5
197
  8
0
 10
110.821
 20
76.6966
 30
0.0
 11
110.537
 21
77.6131
 31
0.0
  0
LINE
  5
198
  8
0
 10
110.537
 20
77.6131
 30
0.0
 11
110.241
 21
78.526
 31
0.0
  0
LINE
  5
199
  8
0
 10
110.241
 20
78.526
 30
0.0
 11
109.935
 21
79.4352
 31
0.0
  0
LINE
  5
19A
  8
0
 10
109.935
 20
79.4352
 30
0.0
 11
109.617
 21
80.3406
 31
0.0
  0
LINE
  5
19B
  8
0
 10
109.617
 20
80.3406
 30
0.0
 11
109.288
 21
81.242
 31
0.0
  0
LINE
  5
19C
  8
0
 10
109.288
 20
81.242
 30
0.0
 11
108.948
 21
82.1393
 31
0.0
  0
LINE
  5
19D
  8
0
 10
108.948
 20
82.1393
 30
0.0
 11
108.598
 21
83.0324
 31
0.0
  0
LINE
  5
19E
  8
0
 10
108.598
 20
83.0324
 30
0.0
 11
108.236
 21
83.9211
 31
0.0
  0
LINE
  5
19F
  8
0
 10
108.236
 20
83.9211
 30
0.0
 11
107.863
 21
84.8053
 31
0.0
  0
LINE
  5
1A0
  8
0
 10
107.863
 20
84.8053
 30
0.0
 11
107.48
 21
85.6848
 31
0.0
  0
LINE
  5
1A1
  8
0
 10
107.48
 20
85.6848
 30
0.0
 11
107.086
 21
86.5596
 31
0.0
  0
LINE
  5
1A2
  8
0
 10
107.086
 20
86.5596
 30
0.0
 11
106.681
 21
87.4295
 31
0.0
  0
LINE
  5
1A3
  8
0
 10
106.681
 20
87.4295
 30
0.0
 11
106.265
 21
88.2943
 31
0.0
  0
LINE
  5
1A4
  8
0
 10
106.265
 20
88.2943
 30
0.0
 11
105.839
 21
89.154
 31
0.0
  0
LINE
  5
1A5
  8
0
 10
105.839
 20
89.154
 30
0.0
 11
105.402
 21
90.0084
 31
0.0
  0
LINE
  5
1A6
  8
0
 10
105.402
 20
90.0084
 30
0.0
 11
104.955
 21
90.8573
 31
0.0
  0
LINE
  5
1A7
  8
0
 10
104.955
 20
90.8573
 30
0.0
 11
104.498
 21
91.7007
 31
0.0
  0
LINE
  5
1A8
  8
0
 10
104.498
 20
91.7007
 30
0.0
 11
104.03
 21
92.5385
 31
0.0
  0
LINE
  5
1A9
  8
0
 10
104.03
 20
92.5385
 30
0.0
 11
103.552
 21
93.3704
 31
0.0
  0
LINE
  5
1AA
  8
0
 10
103.552
 20
93.3704
 30
0.0
 11
103.064
 21
94.1964
 31
0.0
  0
LINE
  5
1AB
  8
0
 10
103.064
 20
94.1964
 30
0.0
 11
102.565
 21
95.0164
 31
0.0
  0
LINE
  5
1AC
  8
0
 10
102.565
 20
95.0164
 30
0.0
 11
102.057
 21
95.8301
 31
0.0
  0
LINE
  5
1AD
  8
0
 10
102.057
 20
95.8301
 30
0.0
 11
101.539
 21
96.6376
 31
0.0
  0
LINE
  5
1AE
  8
0
 10
101.539
 20
96.6376
 30
0.0
 11
101.011
 21
97.4386
 31
0.0
  0
LINE
  5
1AF
  8
0
 10
101.011
 20
97.4386
 30
0.0
 11
100.473
 21
98.2332
 31
0.0
  0
LINE
  5
1B0
  8
0
 10
100.473
 20
98.2332
 30
0.0
 11
99.9249
 21
99.021
 31
0.0
  0
LINE
  5
1B1
  8
0
 10
99.9249
 20
99.021
 30
0.0
 11
99.3676
 21
99.8021
 31
0.0
  0
LINE
  5
1B2
  8
0
 10
99.3676
 20
99.8021
 30
0.0
 11
98.8008
 21
100.576
 31
0.0
  0
LINE
  5
1B3
  8
0
 10
98.8008
 20
100.576
 30
0.0
 11
98.2245
 21
101.343
 31
0.0
  0
LINE
  5
1B4
  8
0
 10
98.2245
 20
101.343
 30
0.0
 11
97.6388
 21
102.103
 31
0.0
  0
LINE
  5
1B5
  8
0
 10
97.6388
 20
102.103
 30
0.0
 11
97.0439
 21
102.856
 31
0.0
  0
LINE
  5
1B6
  8
0
 10
97.0439
 20
102.856
 30
0.0
 11
96.4398
 21
103.602
 31
0.0
  0
LINE
  5
1B7
  8
0
 10
96.4398
 20
103.602
 30
0.0
 11
95.8265
 21
104.34
 31
0.0
  0
LINE
  5
1B8
  8
0
 10
95.8265
 20
104.34
 30
0.0
 11
95.2043
 21
105.07
 31
0.0
  0
LINE
  5
1B9
  8
0
 10
95.2043
 20
105.07
 30
0.0
 11
94.5731
 21
105.793
 31
0.0
  0
LINE
  5
1BA
  8
0
 10
94.5731
 20
105.793
 30
0.0
 11
93.9331
 21
106.508
 31
0.0
  0
LINE
  5
1BB
  8
0
 10
93.9331
 20
106.508
 30
0.0
 11
93.2844
 21
107.214
 31
0.0
  0
LINE
  5
1BC
  8
0
 10
93.2844
 20
107.214
 30
0.0
 11
92.6271
 21
107.913
 31
0.0
  0
LINE
  5
1BD
  8
0
 10
92.6271
 20
107.913
 30
0.0
 11
91.9612
 21
108.604
 31
0.0
  0
LINE
  5
1BE
  8
0
 10
91.9612
 20
108.604
 30
0.0
 11
91.2869
 21
109.287
 31
0.0
  0
LINE
  5
1BF
  8
0
 10
91.2869
 20
109.287
 30
0.0
 11
90.6043
 21
109.961
 31
0.0
  0
LINE
  5
1C0
  8
0
 10
90.6043
 20
109.961
 30
0.0
 11
89.9135
 21
110.627
 31
0.0
  0
LINE
  5
1C1
  8
0
 10
89.9135
 20
110.627
 30
0.0
 11
89.2145
 21
111.284
 31
0.0
  0
LINE
  5
1C2
  8
0
 10
89.2145
 20
111.284
 30
0.0
 11
88.5075
 21
111.933
 31
0.0
  0
LINE
  5
1C3
  8
0
 10
88.5075
 20
111.933
 30
0.0
 11
87.7926
 21
112.573
 31
0.0
  0
LINE
  5
1C4
  8
0
 10
87.7926
 20
112.573
 30
0.0
 11
87.0699
 21
113.204
 31
0.0
  0
LINE
  5
1C5
  8
0
 10
87.0699
 20
113.204
 30
0.0
 11
86.3396
 21
113.827
 31
0.0
  0
LINE
  5
1C6
  8
0
 10
86.3396
 20
113.827
 30
0.0
 11
85.6016
 21
114.44
 31
0.0
  0
LINE
  5
1C7
  8
0
 10
85.6016
 20
114.44
 30
0.0
 11
84.8562
 21
115.044
 31
0.0
  0
LINE
  5
1C8
  8
0
 10
84.8562
 20
115.044
 30
0.0
 11
84.1034
 21
115.639
 31
0.0
  0
LINE
  5
1C9
  8
0
 10
84.1034
 20
115.639
 30
0.0
 11
83.3434
 21
116.224
 31
0.0
  0
LINE
  5
1CA
  8
0
 10
83.3434
 20
116.224
 30
0.0
 11
82.5762
 21
116.801
 31
0.0
  0
LINE
  5
1CB
  8
0
 10
82.5762
 20
116.801
 30
0.0
 11
81.8021
 21
117.368
 31
0.0
  0
LINE
  5
1CC
  8
0
 10
81.8021
 20
117.368
 30
0.0
 11
81.021
 21
117.925
 31
0.0
  0
LINE
  5
1CD
  8
0
 10
81.021
 20
117.925
 30
0.0
 11
80.2332
 21
118.473
 31
0.0
  0
LINE
  5
1CE
  8
0
 10
80.2332
 20
118.473
 30
0.0
 11
79.4386
 21
119.011
 31
0.0
  0
LINE
  5
1CF
  8
0
 10
79.4386
 20
119.011
 30
0.0
 11
78.6376
 21
119.539
 31
0.0
  0
LINE
  5
1D0
  8
0
 10
78.6376
 20
119.539
 30
0.0
 11
77.8301
 21
120.057
 31
0.0
  0
LINE
  5
1D1
  8
0
 10
77.8301
 20
120.057
 30
0.0
 11
77.0164
 21
120.565
 31
0.0
  0
LINE
  5
1D2
  8
0
 10
77.0164
 20
120.565
 30
0.0
 11
76.1964
 21
121.064
 31
0.0
  0
LINE
  5
1D3
  8
0
 10
76.1964
 20
121.064
 30
0.0
 11
75.3704
 21
121.552
 31
0.0
  0
LINE
  5
1D4
  8
0
 10
75.3704
 20
121.552
 30
0.0
 11
74.5385
 21
122.03
 31
0.0
  0
LINE
  5
1D5
  8
0
 10
74.5385
 20
122.03
 30
0.0
 11
73.7007
 21
122.498
 31
0.0
  0
LINE
  5
1D6
  8
0
 10
73.7007
 20
122.498
 30
0.0
 11
72.8573
 21
122.955
 31
0.0
  0
LINE
  5
1D7
  8
0
 10
72.8573
 20
122.955
 30
0.0
 11
72.0084
 21
123.402
 31
0.0
  0
LINE
  5
1D8
  8
0
 10
72.0084
 20
123.402
 30
0.0
 11
71.154
 21
123.839
 31
0.0
  0
LINE
  5
1D9
  8
0
 10
71.154
 20
123.839
 30
0.0
 11
70.2943
 21
124.265
 31
0.0
  0
LINE
  5
1DA
  8
0
 10
70.2943
 20
124.265
 30
0.0
 11
69.4295
 21
124.681
 31
0.0
  0
LINE
  5
1DB
  8
0
 10
69.4295
 20
124.681
 30
0.0
 11
68.5596
 21
125.086
 31
0.0
  0
LINE
  5
1DC
  8
0
 10
68.5596
 20
125.086
 30
0.0
 11
67.6848
 21
125.48
 31
0.0
  0
LINE
  5
1DD
  8
0
 10
67.6848
 20
125.48
 30
0.0
 11
66.8053
 21
125.863
 31
0.0
  0
LINE
  5
1DE
  8
0
 10
66.8053
 20
125.863
 30
0.0
 11
65.9211
 21
126.236
 31
0.0
  0
LINE
  5
1DF
  8
0
 10
65.9211
 20
126.236
 30
0.0
 11
65.0324
 21
126.598
 31
0.0
  0
LINE
  5
1E0
  8
0
 10
65.0324
 20
126.598
 30
0.0
 11
64.1393
 21
126.948
 31
0.0
  0
LINE
  5
1E1
  8
0
 10
64.1393
 20
126.948
 30
0.0
 11
63.242
 21
127.288
 31
0.0
  0
LINE
  5
1E2
  8
0
 10
63.242
 20
127.288
 30
0.0
 11
62.3406
 21
127.617
 31
0.0
  0
LINE
  5
1E3
  8
0
 10
62.3406
 20
127.617
 30
0.0
 11
61.4352
 21
127.935
 31
0.0
  0
LINE
  5
1E4
  8
0
 10
61.4352
 20
127.935
 30
0.0
 11
60.526
 21
128.241
 31
0.0
  0
LINE
  5
1E5
  8
0
 10
60.526
 20
128.241
 30
0.0
 11
59.6131
 21
128.537
 31
0.0
  0
LINE
  5
1E6
  8
0
 10
59.6131
 20
128.537
 30
0.0
 11
58.6966
 21
128.821
 31
0.0
  0
LINE
  5
1E7
  8
0
 10
58.6966
 20
128.821
 30
0.0
 11
57.7767
 21
129.094
 31
0.0
  0
LINE
  5
1E8
  8
0
 10
57.7767
 20
129.094
 30
0.0
 11
56.8536
 21
129.355
 31
0.0
  0
LINE
  5
1E9
  8
0
 10
56.8536
 20
129.355
 30
0.0
 11
55.9273
 21
129.605
 31
0.0
  0
LINE
  5
1EA
  8
0
 10
55.9273
 20
129.605
 30
0.0
 11
54.998
 21
129.844
 31
0.0
  0
LINE
  5
1EB
  8
0
 10
54.998
 20
129.844
 30
0.0
 11
54.0659
 21
130.072
 31
0.0
  0
LINE
  5
1EC
  8
0
 10
54.0659
 20
130.072
 30
0.0
 11
53.131
 21
130.288
 31
0.0
  0
LINE
  5
1ED
  8
0
 10
53.131
 20
130.288
 30
0.0
 11
52.1935
 21
130.492
 31
0.0
  0
LINE
  5
1EE
  8
0
 10
52.1935
 20
130.492
 30
0.0
 11
51.2536
 21
130.685
 31
0.0
  0
LINE
  5
1EF
  8
0
 10
51.2536
 20
130.685
 30
0.0
 11
50.3114
 21
130.867
 31
0.0
  0
LINE
  5
1F0
  8
0
 10
50.3114
 20
130.867
 30
0.0
 11
49.3671
 21
131.036
 31
0.0
  0
LINE
  5
1F1
  8
0
 10
49.3671
 20
131.036
 30
0.0
 11
48.4207
 21
131.195
 31
0.0
  0
LINE
  5
1F2
  8
0
 10
48.4207
 20
131.195
 30
0.0
 11
47.4725
 21
131.341
 31
0.0
  0
LINE
  5
1F3
  8
0
 10
47.4725
 20
131.341
 30
0.0
 11
46.5225
 21
131.476
 31
0.0
  0
LINE
  5
1F4
  8
0
 10
46.5225
 20
131.476
 30
0.0
 11
45.571
 21
131.599
 31
0.0
  0
LINE
  5
1F5
  8
0
 10
45.571
 20
131.599
 30
0.0
 11
44.618
 21
131.711
 31
0.0
  0
LINE
  5
1F6
  8
0
 10
44.618
 20
131.711
 30
0.0
 11
43.6637
 21
131.811
 31
0.0
  0
LINE
  5
1F7
  8
0
 10
43.6637
 20
131.811
 30
0.0
 11
42.7083
 21
131.899
 31
0.0
  0
LINE
  5
1F8
  8
0
 10
42.7083
 20
131.899
 30
0.0
 11
41.7518
 21
131.976
 31
0.0
  0
LINE
  5
1F9
  8
0
 10
41.7518
 20
131.976
 30
0.0
 11
40.7945
 21
132.04
 31
0.0
  0
LINE
  5
1FA
  8
0
 10
40.7945
 20
132.04
 30
0.0
 11
39.8365
 21
132.093
 31
0.0
  0
LINE
  5
1FB
  8
0
 10
39.8365
 20
132.093
 30
0.0
 11
38.8779
 21
132.135
 31
0.0
  0
LINE
  5
1FC
  8
0
 10
38.8779
 20
132.135
 30
0.0
 11
37.9188
 21
132.164
 31
0.0
  0
LINE
  5
1FD
  8
0
 10
37.9188
 20
132.164
 30
0.0
 11
36.9595
 21
132.182
 31
0.0
  0
LINE
  5
1FE
  8
0
 10
36.9595
 20
132.182
 30
0.0
 11
36.0
 21
132.188
 31
0.0
  0
LINE
  5
1FF
  8
0
 10
36.0
 20
132.188
 30
0.0
 11
35.0405
 21
132.182
 31
0.0
  0
LINE
  5
200
  8
0
 10
35.0405
 20
132.182
 30
0.0
 11
34.0812
 21
132.164
 31
0.0
  0
LINE
  5
201
  8
0
 10
34.0812
 20
132.164
 30
0.0
 11
33.1221
 21
132.135
 31
0.0
  0
LINE
  5
202
  8
0
 10
33.1221
 20
132.135
 30
0.0
 11
32.1635
 21
132.093
 31
0.0
  0
LINE
  5
203
  8
0
 10
32.1635
 20
132.093
 30
0.0
 11
31.2055
 21
132.04
 31
0.0
  0
LINE
  5
204
  8
0
 10
31.2055
 20
132.04
 30
0.0
 11
30.2482
 21
131.976
 31
0.0
  0
LINE
  5
205
  8
0
 10
30.2482
 20
131.976
 30
0.0
 11
29.2917
 21
131.899
 31
0.0
  0
LINE
  5
206
  8
0
 10
29.2917
 20
131.899
 30
0.0
 11
28.3363
 21
131.811
 31
0.0
  0
LINE
  5
207
  8
0
 10
28.3363
 20
131.811
 30
0.0
 11
27.382
 21
131.711
 31
0.0
  0
LINE
  5
208
  8
0
 10
27.382
 20
131.711
 30
0.0
 11
26.429
 21
131.599
 31
0.0
  0
LINE
  5
209
  8
0
 10
26.429
 20
131.599
 30
0.0
 11
25.4775
 21
131.476
 31
0.0
  0
LINE
  5
20A
  8
0
 10
25.4775
 20
131.476
 30
0.0
 11
24.5275
 21
131.341
 31
0.0
  0
LINE
  5
20B
  8
0
 10
24.5275
 20
131.341
 30
0.0
 11
23.5793
 21
131.195
 31
0.0
  0
LINE
  5
20C
  8
0
 10
23.5793
 20
131.195
 30
0.0
 11
22.6329
 21
131.036
 31
0.0
  0
LINE
  5
20D
  8
0
 10
22.6329
 20
131.036
 30
0.0
 11
21.6886
 21
130.867
 31
0.0
  0
LINE
  5
20E
  8
0
 10
21.6886
 20
130.867
 30
0.0
 11
20.7464
 21
130.685
 31
0.0
  0
LINE
  5
20F
  8
0
 10
20.7464
 20
130.685
 30
0.0
 11
19.8065
 21
130.492
 31
0.0
  0
LINE
  5
210
  8
0
 10
19.8065
 20
130.492
 30
0.0
 11
18.869
 21
130.288
 31
0.0
  0
LINE
  5
211
  8
0
 10
18.869
 20
130.288
 30
0.0
 11
17.9341
 21
130.072
 31
0.0
  0
LINE
  5
212
  8
0
 10
17.9341
 20
130.072
 30
0.0
 11
17.002
 21
129.844
 31
0.0
  0
LINE
  5
213
  8
0
 10
17.002
 20
129.844
 30
0.0
 11
16.0727
 21
129.605
 31
0.0
  0
LINE
  5
214
  8
0
 10
16.0727
 20
129.605
 30
0.0
 11
15.1464
 21
129.355
 31
0.0
  0
LINE
  5
215
  8
0
 10
15.1464
 20
129.355
 30
0.0
 11
14.2232
 21
129.094
 31
0.0
  0
LINE
  5
216
  8
0
 10
14.2232
 20
129.094
 30
0.0
 11
13.3034
 21
128.821
 31
0.0
  0
LINE
  5
217
  8
0
 10
13.3034
 20
128.821
 30
0.0
 11
12.3869
 21
128.537
 31
0.0
  0
LINE
  5
218
  8
0
 10
12.3869
 20
128.537
 30
0.0
 11
11.474
 21
128.241
 31
0.0
  0
LINE
  5
219
  8
0
 10
11.474
 20
128.241
 30
0.0
 11
10.5648
 21
127.935
 31
0.0
  0
LINE
  5
21A
  8
0
 10
10.5648
 20
127.935
 30
0.0
 11
9.65942
 21
127.617
 31
0.0
  0
LINE
  5
21B
  8
0
 10
9.65942
 20
127.617
 30
0.0
 11
8.75801
 21
127.288
 31
0.0
  0
LINE
  5
21C
  8
0
 10
8.75801
 20
127.288
 30
0.0
 11
7.8607
 21
126.948
 31
0.0
  0
LINE
  5
21D
  8
0
 10
7.8607
 20
126.948
 30
0.0
 11
6.96764
 21
126.598
 31
0.0
  0
LINE
  5
21E
  8
0
 10
6.96764
 20
126.598
 30
0.0
 11
6.07893
 21
126.236
 31
0.0
  0
LINE
  5
21F
  8
0
 10
6.07893
 20
126.236
 30
0.0
 11
5.19475
 21
125.863
 31
0.0
  0
LINE
  5
220
  8
0
 10
5.19475
 20
125.863
 30
0.0
 11
4.31519
 21
125.48
 31
0.0
  0
LINE
  5
221
  8
0
 10
4.31519
 20
125.48
 30
0.0
 11
3.44041
 21
125.086
 31
0.0
  0
LINE
  5
222
  8
0
 10
3.44041
 20
125.086
 30
0.0
 11
2.57053
 21
124.681
 31
0.0
  0
LINE
  5
223
  8
0
 10
2.57053
 20
124.681
 30
0.0
 11
1.70569
 21
124.265
 31
0.0
  0
LINE
  5
224
  8
0
 10
1.70569
 20
124.265
 30
0.0
 11
0.846008
 21
123.839
 31
0.0
  0
LINE
  5
225
  8
0
 10
0.846008
 20
123.839
 30
0.0
 11
-0.00836182
 21
123.402
 31
0.0
  0
LINE
  5
226
  8
0
 10
-0.00836182
 20
123.402
 30
0.0
 11
-0.85733
 21
122.955
 31
0.0
  0
LINE
  5
227
  8
0
 10
-0.85733
 20
122.955
 30
0.0
 11
-1.70073
 21
122.498
 31
0.0
  0
LINE
  5
228
  8
0
 10
-1.70073
 20
122.498
 30
0.0
 11
-2.53847
 21
122.03
 31
0.0
  0
LINE
  5
229
  8
0
 10
-2.53847
 20
122.03
 30
0.0
 11
-3.37041
 21
121.552
 31
0.0
  0
LINE
  5
22A
  8
0
 10
-3.37041
 20
121.552
 30
0.0
 11
-4.1964
 21
121.064
 31
0.0
  0
LINE
  5
22B
  8
0
 10
-4.1964
 20
121.064
 30
0.0
 11
-5.01634
 21
120.565
 31
0.0
  0
LINE
  5
22C
  8
0
 10
-5.01634
 20
120.565
 30
0.0
 11
-5.83012
 21
120.057
 31
0.0
  0
LINE
  5
22D
  8
0
 10
-5.83012
 20
120.057
 30
0.0
 11
-6.63759
 21
119.539
 31
0.0
  0
LINE
  5
22E
  8
0
 10
-6.63759
 20
119.539
 30
0.0
 11
-7.43864
 21
119.011
 31
0.0
  0
LINE
  5
22F
  8
0
 10
-7.43864
 20
119.011
 30
0.0
 11
-8.23315
 21
118.473
 31
0.0
  0
LINE
  5
230
  8
0
 10
-8.23315
 20
118.473
 30
0.0
 11
-9.021
 21
117.925
 31
0.0
  0
LINE
  5
231
  8
0
 10
-9.021
 20
117.925
 30
0.0
 11
-9.80206
 21
117.368
 31
0.0
  0
LINE
  5
232
  8
0
 10
-9.80206
 20
117.368
 30
0.0
 11
-10.5762
 21
116.801
 31
0.0
  0
LINE
  5
233
  8
0
 10
-10.5762
 20
116.801
 30
0.0
 11
-11.3434
 21
116.224
 31
0.0
  0
LINE
  5
234
  8
0
 10
-11.3434
 20
116.224
 30
0.0
 11
-12.1034
 21
115.639
 31
0.0
  0
LINE
  5
235
  8
0
 10
-12.1034
 20
115.639
 30
0.0
 11
-12.8562
 21
115.044
 31
0.0
  0
LINE
  5
236
  8
0
 10
-12.8562
 20
115.044
 30
0.0
 11
-13.6016
 21
114.44
 31
0.0
  0
LINE
  5
237
  8
0
 10
-13.6016
 20
114.44
 30
0.0
 11
-14.3396
 21
113.827
 31
0.0
  0
LINE
  5
238
  8
0
 10
-14.3396
 20
113.827
 30
0.0
 11
-15.0699
 21
113.204
 31
0.0
  0
LINE
  5
239
  8
0
 10
-15.0699
 20
113.204
 30
0.0
 11
-15.7926
 21
112.573
 31
0.0
  0
LINE
  5
23A
  8
0
 10
-15.7926
 20
112.573
 30
0.0
 11
-16.5075
 21
111.933
 31
0.0
  0
LINE
  5
23B
  8
0
 10
-16.5075
 20
111.933
 30
0.0
 11
-17.2145
 21
111.284
 31
0.0
  0
LINE
  5
23C
  8
0
 10
-17.2145
 20
111.284
 30
0.0
 11
-17.9135
 21
110.627
 31
0.0
  0
LINE
  5
23D
  8
0
 10
-17.9135
 20
110.627
 30
0.0
 11
-18.6043
 21
109.961
 31
0.0
  0
LINE
  5
23E
  8
0
 10
-18.6043
 20
109.961
 30
0.0
 11
-19.2869
 21
109.287
 31
0.0
  0
LINE
  5
23F
  8
0
 10
-19.2869
 20
109.287
 30
0.0
 11
-19.9612
 21
108.604
 31
0.0
  0
LINE
  5
240
  8
0
 10
-19.9612
 20
108.604
 30
0.0
 11
-20.6271
 21
107.913
 31
0.0
  0
LINE
  5
241
  8
0
 10
-20.6271
 20
107.913
 30
0.0
 11
-21.2844
 21
107.214
 31
0.0
  0
LINE
  5
242
  8
0
 10
-21.2844
 20
107.214
 30
0.0
 11
-21.9331
 21
106.508
 31
0.0
  0
LINE
  5
243
  8
0
 10
-21.9331
 20
106.508
 30
0.0
 11
-22.5731
 21
105.793
 31
0.0
  0
LINE
  5
244
  8
0
 10
-22.5731
 20
105.793
 30
0.0
 11
-23.2043
 21
105.07
 31
0.0
  0
LINE
  5
245
  8
0
 10
-23.2043
 20
105.07
 30
0.0
 11
-23.8265
 21
104.34
 31
0.0
  0
LINE
  5
246
  8
0
 10
-23.8265
 20
104.34
 30
0.0
 11
-24.4397
 21
103.602
 31
0.0
  0
LINE
  5
247
  8
0
 10
-24.4397
 20
103.602
 30
0.0
 11
-25.0439
 21
102.856
 31
0.0
  0
LINE
  5
248
  8
0
 10
-25.0439
 20
102.856
 30
0.0
 11
-25.6388
 21
102.103
 31
0.0
  0
LINE
  5
249
  8
0
 10
-25.6388
 20
102.103
 30
0.0
 11
-26.2245
 21
101.343
 31
0.0
  0
LINE
  5
24A
  8
0
 10
-26.2245
 20
101.343
 30
0.0
 11
-26.8008
 21
100.576
 31
0.0
  0
LINE
  5
24B
  8
0
 10
-26.8008
 20
100.576
 30
0.0
 11
-27.3676
 21
99.8021
 31
0.0
  0
LINE
  5
24C
  8
0
 10
-27.3676
 20
99.8021
 30
0.0
 11
-27.9249
 21
99.021
 31
0.0
  0
LINE
  5
24D
  8
0
 10
-27.9249
 20
99.021
 30
0.0
 11
-28.4726
 21
98.2332
 31
0.0
  0
LINE
  5
24E
  8
0
 10
-28.4726
 20
98.2332
 30
0.0
 11
-29.0105
 21
97.4386
 31
0.0
  0
LINE
  5
24F
  8
0
 10
-29.0105
 20
97.4386
 30
0.0
 11
-29.5387
 21
96.6376
 31
0.0
  0
LINE
  5
250
  8
0
 10
-29.5387
 20
96.6376
 30
0.0
 11
-30.057
 21
95.8301
 31
0.0
  0
LINE
  5
251
  8
0
 10
-30.057
 20
95.8301
 30
0.0
 11
-30.5653
 21
95.0164
 31
0.0
  0
LINE
  5
252
  8
0
 10
-30.5653
 20
95.0164
 30
0.0
 11
-31.0636
 21
94.1964
 31
0.0
  0
LINE
  5
253
  8
0
 10
-31.0636
 20
94.1964
 30
0.0
 11
-31.5519
 21
93.3704
 31
0.0
  0
LINE
  5
254
  8
0
 10
-31.5519
 20
93.3704
 30
0.0
 11
-32.0299
 21
92.5385
 31
0.0
  0
LINE
  5
255
  8
0
 10
-32.0299
 20
92.5385
 30
0.0
 11
-32.4977
 21
91.7007
 31
0.0
  0
LINE
  5
256
  8
0
 10
-32.4977
 20
91.7007
 30
0.0
 11
-32.9552
 21
90.8573
 31
0.0
  0
LINE
  5
257
  8
0
 10
-32.9552
 20
90.8573
 30
0.0
 11
-33.4023
 21
90.0084
 31
0.0
  0
LINE
  5
258
  8
0
 10
-33.4023
 20
90.0084
 30
0.0
 11
-33.839
 21
89.154
 31
0.0
  0
LINE
  5
259
  8
0
 10
-33.839
 20
89.154
 30
0.0
 11
-34.2651
 21
88.2943
 31
0.0
  0
LINE
  5
25A
  8
0
 10
-34.2651
 20
88.2943
 30
0.0
 11
-34.6807
 21
87.4295
 31
0.0
  0
LINE
  5
25B
  8
0
 10
-34.6807
 20
87.4295
 30
0.0
 11
-35.0856
 21
86.5596
 31
0.0
  0
LINE
  5
25C
  8
0
 10
-35.0856
 20
86.5596
 30
0.0
 11
-35.4798
 21
85.6848
 31
0.0
  0
LINE
  5
25D
  8
0
 10
-35.4798
 20
85.6848
 30
0.0
 11
-35.8632
 21
84.8053
 31
0.0
  0
LINE
  5
25E
  8
0
 10
-35.8632
 20
84.8053
 30
0.0
 11
-36.2358
 21
83.9211
 31
0.0
  0
LINE
  5
25F
  8
0
 10
-36.2358
 20
83.9211
 30
0.0
 11
-36.5976
 21
83.0324
 31
0.0
  0
LINE
  5
260
  8
0
 10
-36.5976
 20
83.0324
 30
0.0
 11
-36.9484
 21
82.1393
 31
0.0
  0
LINE
  5
261
  8
0
 10
-36.9484
 20
82.1393
 30
0.0
 11
-37.2882
 21
81.242
 31
0.0
  0
LINE
  5
262
  8
0
 10
-37.2882
 20
81.242
 30
0.0
 11
-37.617
 21
80.3406
 31
0.0
  0
LINE
  5
263
  8
0
 10
-37.617
 20
80.3406
 30
0.0
 11
-37.9347
 21
79.4352
 31
0.0
  0
LINE
  5
264
  8
0
 10
-37.9347
 20
79.4352
 30
0.0
 11
-38.2412
 21
78.526
 31
0.0
  0
LINE
  5
265
  8
0
 10
-38.2412
 20
78.526
 30
0.0
 11
-38.5366
 21
77.6131
 31
0.0
  0
LINE
  5
266
  8
0
 10
-38.5366
 20
77.6131
 30
0.0
 11
-38.8208
 21
76.6966
 31
0.0
  0
LINE
  5
267
  8
0
 10
-38.8208
 20
76.6966
 30
0.0
 11
-39.0937
 21
75.7767
 31
0.0
  0
LINE
  5
268
  8
0
 10
-39.0937
 20
75.7767
 30
0.0
 11
-39.3552
 21
74.8536
 31
0.0
  0
LINE
  5
269
  8
0
 10
-39.3552
 20
74.8536
 30
0.0
 11
-39.6055
 21
73.9273
 31
0.0
  0
LINE
  5
26A
  8
0
 10
-39.6055
 20
73.9273
 30
0.0
 11
-39.8443
 21
72.998
 31
0.0
  0
LINE
  5
26B
  8
0
 10
-39.8443
 20
72.998
 30
0.0
 11
-40.0717
 21
72.0659
 31
0.0
  0
LINE
  5
26C
  8
0
 10
-40.0717
 20
72.0659
 30
0.0
 11
-40.2877
 21
71.131
 31
0.0
  0
LINE
  5
26D
  8
0
 10
-40.2877
 20
71.131
 30
0.0
 11
-40.4922
 21
70.1935
 31
0.0
  0
LINE
  5
26E
  8
0
 10
-40.4922
 20
70.1935
 30
0.0
 11
-40.6852
 21
69.2536
 31
0.0
  0
LINE
  5
26F
  8
0
 10
-40.6852
 20
69.2536
 30
0.0
 11
-40.8666
 21
68.3114
 31
0.0
  0
LINE
  5
270
  8
0
 10
-40.8666
 20
68.3114
 30
0.0
 11
-41.0364
 21
67.3671
 31
0.0
  0
LINE
  5
271
  8
0
 10
-41.0364
 20
67.3671
 30
0.0
 11
-41.1946
 21
66.4207
 31
0.0
  0
LINE
  5
272
  8
0
 10
-41.1946
 20
66.4207
 30
0.0
 11
-41.3412
 21
65.4725
 31
0.0
  0
LINE
  5
273
  8
0
 10
-41.3412
 20
65.4725
 30
0.0
 11
-41.4762
 21
64.5225
 31
0.0
  0
LINE
  5
274
  8
0
 10
-41.4762
 20
64.5225
 30
0.0
 11
-41.5995
 21
63.571
 31
0.0
  0
LINE
  5
275
  8
0
 10
-41.5995
 20
63.571
 30
0.0
 11
-41.7111
 21
62.618
 31
0.0
  0
LINE
  5
276
  8
0
 10
-41.7111
 20
62.618
 30
0.0
 11
-41.811
 21
61.6637
 31
0.0
  0
LINE
  5
277
  8
0
 10
-41.811
 20
61.6637
 30
0.0
 11
-41.8992
 21
60.7083
 31
0.0
  0
LINE
  5
278
  8
0
 10
-41.8992
 20
60.7083
 30
0.0
 11
-41.9756
 21
59.7518
 31
0.0
  0
LINE
  5
279
  8
0
 10
-41.9756
 20
59.7518
 30
0.0
 11
-42.0404
 21
58.7945
 31
0.0
  0
LINE
  5
27A
  8
0
 10
-42.0404
 20
58.7945
 30
0.0
 11
-42.0933
 21
57.8365
 31
0.0
  0
LINE
  5
27B
  8
0
 10
-42.0933
 20
57.8365
 30
0.0
 11
-42.1345
 21
56.8779
 31
0.0
  0
LINE
  5
27C
  8
0
 10
-42.1345
 20
56.8779
 30
0.0
 11
-42.1639
 21
55.9188
 31
0.0
  0
LINE
  5
27D
  8
0
 10
-42.1639
 20
55.9188
 30
0.0
 11
-42.1816
 21
54.9595
 31
0.0
  0
LINE
  5
27E
  8
0
 10
-42.1816
 20
54.9595
 30
0.0
 11
-42.1875
 21
54.0
 31
0.0
  0
LINE
  5
27F
  8
0
 10
-42.1875
 20
54.0
 30
0.0
 11
-42.1816
 21
53.0405
 31
0.0
  0
LINE
  5
280
  8
0
 10
-42.1816
 20
53.0405
 30
0.0
 11
-42.1639
 21
52.0812
 31
0.0
  0
LINE
  5
281
  8
0
 10
-42.1639
 20
52.0812
 30
0.0
 11
-42.1345
 21
51.1221
 31
0.0
  0
LINE
  5
282
  8
0
 10
-42.1345
 20
51.1221
 30
0.0
 11
-42.0933
 21
50.1635
 31
0.0
  0
LINE
  5
283
  8
0
 10
-42.0933
 20
50.1635
 30
0.0
 11
-42.0404
 21
49.2055
 31
0.0
  0
LINE
  5
284
  8
0
 10
-42.0404
 20
49.2055
 30
0.0
 11
-41.9756
 21
48.2482
 31
0.0
  0
LINE
  5
285
  8
0
 10
-41.9756
 20
48.2482
 30
0.0
 11
-41.8992
 21
47.2917
 31
0.0
  0
LINE
  5
286
  8
0
 10
-41.8992
 20
47.2917
 30
0.0
 11
-41.811
 21
46.3363
 31
0.0
  0
LINE
  5
287
  8
0
 10
-41.811
 20
46.3363
 30
0.0
 11
-41.7111
 21
45.382
 31
0.0
  0
LINE
  5
288
  8
0
 10
-41.7111
 20
45.382
 30
0.0
 11
-41.5995
 21
44.429
 31
0.0
  0
LINE
  5
289
  8
0
 10
-41.5995
 20
44.429
 30
0.0
 11
-41.4762
 21
43.4775
 31
0.0
  0
LINE
  5
28A
  8
0
 10
-41.4762
 20
43.4775
 30
0.0
 11
-41.3412
 21
42.5275
 31
0.0
  0
LINE
  5
28B
  8
0
 10
-41.3412
 20
42.5275
 30
0.0
 11
-41.1946
 21
41.5793
 31
0.0
  0
LINE
  5
28C
  8
0
 10
-41.1946
 20
41.5793
 30
0.0
 11
-41.0364
 21
40.6329
 31
0.0
  0
LINE
  5
28D
  8
0
 10
-41.0364
 20
40.6329
 30
0.0
 11
-40.8666
 21
39.6886
 31
0.0
  0
LINE
  5
28E
  8
0
 10
-40.8666
 20
39.6886
 30
0.0
 11
-40.6852
 21
38.7464
 31
0.0
  0
LINE
  5
28F
  8
0
 10
-40.6852
 20
38.7464
 30
0.0
 11
-40.4922
 21
37.8065
 31
0.0
  0
LINE
  5
290
  8
0
 10
-40.4922
 20
37.8065
 30
0.0
 11
-40.2877
 21
36.869
 31
0.0
  0
LINE
  5
291
  8
0
 10
-40.2877
 20
36.869
 30
0.0
 11
-40.0717
 21
35.9341
 31
0.0
  0
LINE
  5
292
  8
0
 10
-40.0717
 20
35.9341
 30
0.0
 11
-39.8443
 21
35.002
 31
0.0
  0
LINE
  5
293
  8
0
 10
-39.8443
 20
35.002
 30
0.0
 11
-39.6055
 21
34.0727
 31
0.0
  0
LINE
  5
294
  8
0
 10
-39.6055
 20
34.0727
 30
0.0
 11
-39.3552
 21
33.1464
 31
0.0
  0
LINE
  5
295
  8
0
 10
-39.3552
 20
33.1464
 30
0.0
 11
-39.0937
 21
32.2232
 31
0.0
  0
LINE
  5
296
  8
0
 10
-39.0937
 20
32.2232
 30
0.0
 11
-38.8208
 21
31.3034
 31
0.0
  0
LINE
  5
297
  8
0
 10
-38.8208
 20
31.3034
 30
0.0
 11
-38.5366
 21
30.3869
 31
0.0
  0
LINE
  5
298
  8
0
 10
-38.5366
 20
30.3869
 30
0.0
 11
-38.2412
 21
29.474
 31
0.0
  0
LINE
  5
299
  8
0
 10
-38.2412
 20
29.474
 30
0.0
 11
-37.9347
 21
28.5648
 31
0.0
  0
LINE
  5
29A
  8
0
 10
-37.9347
 20
28.5648
 30
0.0
 11
-37.617
 21
27.6594
 31
0.0
  0
LINE
  5
29B
  8
0
 10
-37.617
 20
27.6594
 30
0.0
 11
-37.2882
 21
26.758
 31
0.0
  0
LINE
  5
29C
  8
0
 10
-37.2882
 20
26.758
 30
0.0
 11
-36.9484
 21
25.8607
 31
0.0
  0
LINE
  5
29D
  8
0
 10
-36.9484
 20
25.8607
 30
0.0
 11
-36.5976
 21
24.9676
 31
0.0
  0
LINE
  5
29E
  8
0
 10
-36.5976
 20
24.9676
 30
0.0
 11
-36.2358
 21
24.0789
 31
0.0
  0
LINE
  5
29F
  8
0
 10
-36.2358
 20
24.0789
 30
0.0
 11
-35.8632
 21
23.1947
 31
0.0
  0
LINE
  5
2A0
  8
0
 10
-35.8632
 20
23.1947
 30
0.0
 11
-35.4798
 21
22.3152
 31
0.0
  0
LINE
  5
2A1
  8
0
 10
-35.4798
 20
22.3152
 30
0.0
 11
-35.0856
 21
21.4404
 31
0.0
  0
LINE
  5
2A2
  8
0
 10
-35.0856
 20
21.4404
 30
0.0
 11
-34.6807
 21
20.5705
 31
0.0
  0
LINE
  5
2A3
  8
0
 10
-34.6807
 20
20.5705
 30
0.0
 11
-34.2651
 21
19.7057
 31
0.0
  0
LINE
  5
2A4
  8
0
 10
-34.2651
 20
19.7057
 30
0.0
 11
-33.839
 21
18.846
 31
0.0
  0
LINE
  5
2A5
  8
0
 10
-33.839
 20
18.846
 30
0.0
 11
-33.4023
 21
17.9916
 31
0.0
  0
LINE
  5
2A6
  8
0
 10
-33.4023
 20
17.9916
 30
0.0
 11
-32.9552
 21
17.1427
 31
0.0
  0
LINE
  5
2A7
  8
0
 10
-32.9552
 20
17.1427
 30
0.0
 11
-32.4977
 21
16.2993
 31
0.0
  0
LINE
  5
2A8
  8
0
 10
-32.4977
 20
16.2993
 30
0.0
 11
-32.0299
 21
15.4615
 31
0.0
  0
LINE
  5
2A9
  8
0
 10
-32.0299
 20
15.4615
 30
0.0
 11
-31.5519
 21
14.6296
 31
0.0
  0
LINE
  5
2AA
  8
0
 10
-31.5519
 20
14.6296
 30
0.0
 11
-31.0636
 21
13.8036
 31
0.0
  0
LINE
  5
2AB
  8
0
 10
-31.0636
 20
13.8036
 30
0.0
 11
-30.5653
 21
12.9836
 31
0.0
  0
LINE
  5
2AC
  8
0
 10
-30.5653
 20
12.9836
 30
0.0
 11
-30.057
 21
12.1699
 31
0.0
  0
LINE
  5
2AD
  8
0
 10
-30.057
 20
12.1699
 30
0.0
 11
-29.5387
 21
11.3624
 31
0.0
  0
LINE
  5
2AE
  8
0
 10
-29.5387
 20
11.3624
 30
0.0
 11
-29.0105
 21
10.5613
 31
0.0
  0
LINE
  5
2AF
  8
0
 10
-29.0105
 20
10.5613
 30
0.0
 11
-28.4726
 21
9.76683
 31
0.0
  0
LINE
  5
2B0
  8
0
 10
-28.4726
 20
9.76683
 30
0.0
 11
-27.9249
 21
8.97899
 31
0.0
  0
LINE
  5
2B1
  8
0
 10
-27.9249
 20
8.97899
 30
0.0
 11
-27.3676
 21
8.19792
 31
0.0
  0
LINE
  5
2B2
  8
0
 10
-27.3676
 20
8.19792
 30
0.0
 11
-26.8008
 21
7.42375
 31
0.0
  0
LINE
  5
2B3
  8
0
 10
-26.8008
 20
7.42375
 30
0.0
 11
-26.2245
 21
6.6566
 31
0.0
  0
LINE
  5
2B4
  8
0
 10
-26.2245
 20
6.6566
 30
0.0
 11
-25.6388
 21
5.89658
 31
0.0
  0
LINE
  5
2B5
  8
0
 10
-25.6388
 20
5.89658
 30
0.0
 11
-25.0439
 21
5.1438
 31
0.0
  0
LINE
  5
2B6
  8
0
 10
-25.0439
 20
5.1438
 30
0.0
 11
-24.4397
 21
4.39836
 31
0.0
  0
LINE
  5
2B7
  8
0
 10
-24.4397
 20
4.39836
 30
0.0
 11
-23.8265
 21
3.66042
 31
0.0
  0
LINE
  5
2B8
  8
0
 10
-23.8265
 20
3.66042
 30
0.0
 11
-23.2043
 21
2.93004
 31
0.0
  0
LINE
  5
2B9
  8
0
 10
-23.2043
 20
2.93004
 30
0.0
 11
-22.5731
 21
2.20737
 31
0.0
  0
LINE
  5
2BA
  8
0
 10
-22.5731
 20
2.20737
 30
0.0
 11
-21.9331
 21
1.49248
 31
0.0
  0
LINE
  5
2BB
  8
0
 10
-21.9331
 20
1.49248
 30
0.0
 11
-21.2844
 21
0.785507
 31
0.0
  0
LINE
  5
2BC
  8
0
 10
-21.2844
 20
0.785507
 30
0.0
 11
-20.6271
 21
0.0865479
 31
0.0
  0
LINE
  5
2BD
  8
0
 10
-20.6271
 20
0.0865479
 30
0.0
 11
-19.9612
 21
-0.604279
 31
0.0
  0
LINE
  5
2BE
  8
0
 10
-19.9612
 20
-0.604279
 30
0.0
 11
-19.2869
 21
-1.28691
 31
0.0
  0
LINE
  5
2BF
  8
0
 10
-19.2869
 20
-1.28691
 30
0.0
 11
-18.6043
 21
-1.9612
 31
0.0
  0
LINE
  5
2C0
  8
0
 10
-18.6043
 20
-1.9612
 30
0.0
 11
-17.9135
 21
-2.62706
 31
0.0
  0
LINE
  5
2C1
  8
0
 10
-17.9135
 20
-2.62706
 30
0.0
 11
-17.2145
 21
-3.28439
 31
0.0
  0
LINE
  5
2C2
  8
0
 10
-17.2145
 20
-3.28439
 30
0.0
 11
-16.5075
 21
-3.93311
 31
0.0
  0
LINE
  5
2C3
  8
0
 10
-16.5075
 20
-3.93311
 30
0.0
 11
-15.7926
 21
-4.57309
 31
0.0
  0
LINE
  5
2C4
  8
0
 10
-15.7926
 20
-4.57309
 30
0.0
 11
-15.0699
 21
-5.20425
 31
0.0
  0
LINE
  5
2C5
  8
0
 10
-15.0699
 20
-5.20425
 30
0.0
 11
-14.3396
 21
-5.82651
 31
0.0
  0
LINE
  5
2C6
  8
0
 10
-14.3396
 20
-5.82651
 30
0.0
 11
-13.6016
 21
-6.43974
 31
0.0
  0
LINE
  5
2C7
  8
0
 10
-13.6016
 20
-6.43974
 30
0.0
 11
-12.8562
 21
-7.04388
 31
0.0
  0
LINE
  5
2C8
  8
0
 10
-12.8562
 20
-7.04388
 30
0.0
 11
-12.1034
 21
-7.63882
 31
0.0
  0
LINE
  5
2C9
  8
0
 10
-12.1034
 20
-7.63882
 30
0.0
 11
-11.3434
 21
-8.22449
 31
0.0
  0
LINE
  5
2CA
  8
0
 10
-11.3434
 20
-8.22449
 30
0.0
 11
-10.5762
 21
-8.80078
 31
0.0
  0
LINE
  5
2CB
  8
0
 10
-10.5762
 20
-8.80078
 30
0.0
 11
-9.80206
 21
-9.36761
 31
0.0
  0
LINE
  5
2CC
  8
0
 10
-9.80206
 20
-9.36761
 30
0.0
 11
-9.021
 21
-9.92491
 31
0.0
  0
LINE
  5
2CD
  8
0
 10
-9.021
 20
-9.92491
 30
0.0
 11
-8.23315
 21
-10.4726
 31
0.0
  0
LINE
  5
2CE
  8
0
 10
-8.23315
 20
-10.4726
 30
0.0
 11
-7.43864
 21
-11.0105
 31
0.0
  0
LINE
  5
2CF
  8
0
 10
-7.43864
 20
-11.0105
 30
0.0
 11
-6.63759
 21
-11.5387
 31
0.0
  0
LINE
  5
2D0
  8
0
 10
-6.63759
 20
-11.5387
 30
0.0
 11
-5.83012
 21
-12.057
 31
0.0
  0
LINE
  5
2D1
  8
0
 10
-5.83012
 20
-12.057
 30
0.0
 11
-5.01634
 21
-12.5653
 31
0.0
  0
LINE
  5
2D2
  8
0
 10
-5.01634
 20
-12.5653
 30
0.0
 11
-4.1964
 21
-13.0636
 31
0.0
  0
LINE
  5
2D3
  8
0
 10
-4.1964
 20
-13.0636
 30
0.0
 11
-3.37041
 21
-13.5519
 31
0.0
  0
LINE
  5
2D4
  8
0
 10
-3.37041
 20
-13.5519
 30
0.0
 11
-2.53847
 21
-14.0299
 31
0.0
  0
LINE
  5
2D5
  8
0
 10
-2.53847
 20
-14.0299
 30
0.0
 11
-1.70073
 21
-14.4977
 31
0.0
  0
LINE
  5
2D6
  8
0
 10
-1.70073
 20
-14.4977
 30
0.0
 11
-0.85733
 21
-14.9552
 31
0.0
  0
LINE
  5
2D7
  8
0
 10
-0.85733
 20
-14.9552
 30
0.0
 11
-0.00836182
 21
-15.4023
 31
0.0
  0
LINE
  5
2D8
  8
0
 10
-0.00836182
 20
-15.4023
 30
0.0
 11
0.846008
 21
-15.839
 31
0.0
  0
LINE
  5
2D9
  8
0
 10
0.846008
 20
-15.839
 30
0.0
 11
1.70569
 21
-16.2651
 31
0.0
  0
LINE
  5
2DA
  8
0
 10
1.70569
 20
-16.2651
 30
0.0
 11
2.57053
 21
-16.6806
 31
0.0
  0
LINE
  5
2DB
  8
0
 10
2.57053
 20
-16.6806
 30
0.0
 11
3.44041
 21
-17.0856
 31
0.0
  0
LINE
  5
2DC
  8
0
 10
3.44041
 20
-17.0856
 30
0.0
 11
4.31519
 21
-17.4798
 31
0.0
  0
LINE
  5
2DD
  8
0
 10
4.31519
 20
-17.4798
 30
0.0
 11
5.19475
 21
-17.8632
 31
0.0
  0
LINE
  5
2DE
  8
0
 10
5.19475
 20
-17.8632
 30
0.0
 11
6.07893
 21
-18.2358
 31
0.0
  0
LINE
  5
2DF
  8
0
 10
6.07893
 20
-18.2358
 30
0.0
 11
6.96764
 21
-18.5976
 31
0.0
  0
LINE
  5
2E0
  8
0
 10
6.96764
 20
-18.5976
 30
0.0
 11
7.8607
 21
-18.9484
 31
0.0
  0
LINE
  5
2E1
  8
0
 10
7.8607
 20
-18.9484
 30
0.0
 11
8.75801
 21
-19.2882
 31
0.0
  0
LINE
  5
2E2
  8
0
 10
8.75801
 20
-19.2882
 30
0.0
 11
9.65942
 21
-19.617
 31
0.0
  0
LINE
  5
2E3
  8
0
 10
9.65942
 20
-19.617
 30
0.0
 11
10.5648
 21
-19.9347
 31
0.0
  0
LINE
  5
2E4
  8
0
 10
10.5648
 20
-19.9347
 30
0.0
 11
11.474
 21
-20.2412
 31
0.0
  0
LINE
  5
2E5
  8
0
 10
11.474
 20
-20.2412
 30
0.0
 11
12.3869
 21
-20.5366
 31
0.0
  0
LINE
  5
2E6
  8
0
 10
12.3869
 20
-20.5366
 30
0.0
 11
13.3034
 21
-20.8208
 31
0.0
  0
LINE
  5
2E7
  8
0
 10
13.3034
 20
-20.8208
 30
0.0
 11
14.2232
 21
-21.0937
 31
0.0
  0
LINE
  5
2E8
  8
0
 10
14.2232
 20
-21.0937
 30
0.0
 11
15.1464
 21
-21.3552
 31
0.0
  0
LINE
  5
2E9
  8
0
 10
15.1464
 20
-21.3552
 30
0.0
 11
16.0727
 21
-21.6055
 31
0.0
  0
LINE
  5
2EA
  8
0
 10
16.0727
 20
-21.6055
 30
0.0
 11
17.002
 21
-21.8443
 31
0.0
  0
LINE
  5
2EB
  8
0
 10
17.002
 20
-21.8443
 30
0.0
 11
17.9341
 21
-22.0717
 31
0.0
  0
LINE
  5
2EC
  8
0
 10
17.9341
 20
-22.0717
 30
0.0
 11
18.869
 21
-22.2877
 31
0.0
  0
LINE
  5
2ED
  8
0
 10
18.869
 20
-22.2877
 30
0.0
 11
19.8065
 21
-22.4922
 31
0.0
  0
LINE
  5
2EE
  8
0
 10
19.8065
 20
-22.4922
 30
0.0
 11
20.7464
 21
-22.6851
 31
0.0
  0
LINE
  5
2EF
  8
0
 10
20.7464
 20
-22.6851
 30
0.0
 11
21.6886
 21
-22.8665
 31
0.0
  0
LINE
  5
2F0
  8
0
 10
21.6886
 20
-22.8665
 30
0.0
 11
22.6329
 21
-23.0364
 31
0.0
  0
LINE
  5
2F1
  8
0
 10
22.6329
 20
-23.0364
 30
0.0
 11
23.5793
 21
-23.1946
 31
0.0
  0
LINE
  5
2F2
  8
0
 10
23.5793
 20
-23.1946
 30
0.0
 11
24.5275
 21
-23.3412
 31
0.0
  0
LINE
  5
2F3
  8
0
 10
24.5275
 20
-23.3412
 30
0.0
 11
25.4775
 21
-23.4762
 31
0.0
  0
LINE
  5
2F4
  8
0
 10
25.4775
 20
-23.4762
 30
0.0
 11
26.429
 21
-23.5995
 31
0.0
  0
LINE
  5
2F5
  8
0
 10
26.429
 20
-23.5995
 30
0.0
 11
27.382
 21
-23.7111
 31
0.0
  0
LINE
  5
2F6
  8
0
 10
27.382
 20
-23.7111
 30
0.0
 11
28.3363
 21
-23.811
 31
0.0
  0
LINE
  5
2F7
  8
0
 10
28.3363
 20
-23.811
 30
0.0
 11
29.2917
 21
-23.8992
 31
0.0
  0
LINE
  5
2F8
  8
0
 10
29.2917
 20
-23.8992
 30
0.0
 11
30.2482
 21
-23.9756
 31
0.0
  0
LINE
  5
2F9
  8
0
 10
30.2482
 20
-23.9756
 30
0.0
 11
31.2055
 21
-24.0404
 31
0.0
  0
LINE
  5
2FA
  8
0
 10
31.2055
 20
-24.0404
 30
0.0
 11
32.1635
 21
-24.0933
 31
0.0
  0
LINE
  5
2FB
  8
0
 10
32.1635
 20
-24.0933
 30
0.0
 11
33.1221
 21
-24.1345
 31
0.0
  0
LINE
  5
2FC
  8
0
 10
33.1221
 20
-24.1345
 30
0.0
 11
34.0812
 21
-24.1639
 31
0.0
  0
LINE
  5
2FD
  8
0
 10
34.0812
 20
-24.1639
 30
0.0
 11
35.0405
 21
-24.1816
 31
0.0
  0
LINE
  5
2FE
  8
0
 10
35.0405
 20
-24.1816
 30
0.0
 11
36.0
 21
-24.1875
 31
0.0
  0
LINE
  5
2FF
  8
0
 10
36.0
 20
-24.1875
 30
0.0
 11
36.9595
 21
-24.1816
 31
0.0
  0
LINE
  5
300
  8
0
 10
35.0773
 20
-21.1818
 30
0.0
 11
34.1548
 21
-21.1648
 31
0.0
  0
LINE
  5
301
  8
0
 10
34.1548
 20
-21.1648
 30
0.0
 11
33.2326
 21
-21.1366
 31
0.0
  0
LINE
  5
302
  8
0
 10
33.2326
 20
-21.1366
 30
0.0
 11
32.3107
 21
-21.0969
 31
0.0
  0
LINE
  5
303
  8
0
 10
32.3107
 20
-21.0969
 30
0.0
 11
31.3894
 21
-21.046
 31
0.0
  0
LINE
  5
304
  8
0
 10
31.3894
 20
-21.046
 30
0.0
 11
30.4689
 21
-20.9838
 31
0.0
  0
LINE
  5
305
  8
0
 10
30.4689
 20
-20.9838
 30
0.0
 11
29.5491
 21
-20.9102
 31
0.0
  0
LINE
  5
306
  8
0
 10
29.5491
 20
-20.9102
 30
0.0
 11
28.6303
 21
-20.8254
 31
0.0
  0
LINE
  5
307
  8
0
 10
28.6303
 20
-20.8254
 30
0.0
 11
27.7127
 21
-20.7294
 31
0.0
  0
LINE
  5
308
  8
0
 10
27.7127
 20
-20.7294
 30
0.0
 11
26.7962
 21
-20.6221
 31
0.0
  0
LINE
  5
309
  8
0
 10
26.7962
 20
-20.6221
 30
0.0
 11
25.8812
 21
-20.5035
 31
0.0
  0
LINE
  5
30A
  8
0
 10
25.8812
 20
-20.5035
 30
0.0
 11
24.9677
 21
-20.3737
 31
0.0
  0
LINE
  5
30B
  8
0
 10
24.9677
 20
-20.3737
 30
0.0
 11
24.0558
 21
-20.2327
 31
0.0
  0
LINE
  5
30C
  8
0
 10
24.0558
 20
-20.2327
 30
0.0
 11
23.1458
 21
-20.0806
 31
0.0
  0
LINE
  5
30D
  8
0
 10
23.1458
 20
-20.0806
 30
0.0
 11
22.2377
 21
-19.9172
 31
0.0
  0
LINE
  5
30E
  8
0
 10
22.2377
 20
-19.9172
 30
0.0
 11
21.3316
 21
-19.7428
 31
0.0
  0
LINE
  5
30F
  8
0
 10
21.3316
 20
-19.7428
 30
0.0
 11
20.4278
 21
-19.5572
 31
0.0
  0
LINE
  5
310
  8
0
 10
20.4278
 20
-19.5572
 30
0.0
 11
19.5263
 21
-19.3606
 31
0.0
  0
LINE
  5
311
  8
0
 10
19.5263
 20
-19.3606
 30
0.0
 11
18.6273
 21
-19.1529
 31
0.0
  0
LINE
  5
312
  8
0
 10
18.6273
 20
-19.1529
 30
0.0
 11
17.7309
 21
-18.9342
 31
0.0
  0
LINE
  5
313
  8
0
 10
17.7309
 20
-18.9342
 30
0.0
 11
16.8373
 21
-18.7045
 31
0.0
  0
LINE
  5
314
  8
0
 10
16.8373
 20
-18.7045
 30
0.0
 11
15.9465
 21
-18.4639
 31
0.0
  0
LINE
  5
315
  8
0
 10
15.9465
 20
-18.4639
 30
0.0
 11
15.0588
 21
-18.2124
 31
0.0
  0
LINE
  5
316
  8
0
 10
15.0588
 20
-18.2124
 30
0.0
 11
14.1742
 21
-17.95
 31
0.0
  0
LINE
  5
317
  8
0
 10
14.1742
 20
-17.95
 30
0.0
 11
13.2929
 21
-17.6767
 31
0.0
  0
LINE
  5
318
  8
0
 10
13.2929
 20
-17.6767
 30
0.0
 11
12.4151
 21
-17.3926
 31
0.0
  0
LINE
  5
319
  8
0
 10
12.4151
 20
-17.3926
 30
0.0
 11
11.5407
 21
-17.0978
 31
0.0
  0
LINE
  5
31A
  8
0
 10
11.5407
 20
-17.0978
 30
0.0
 11
10.6701
 21
-16.7923
 31
0.0
  0
LINE
  5
31B
  8
0
 10
10.6701
 20
-16.7923
 30
0.0
 11
9.80327
 21
-16.4762
 31
0.0
  0
LINE
  5
31C
  8
0
 10
9.80327
 20
-16.4762
 30
0.0
 11
8.94038
 21
-16.1494
 31
0.0
  0
LINE
  5
31D
  8
0
 10
8.94038
 20
-16.1494
 30
0.0
 11
8.08159
 21
-15.812
 31
0.0
  0
LINE
  5
31E
  8
0
 10
8.08159
 20
-15.812
 30
0.0
 11
7.22699
 21
-15.4642
 31
0.0
  0
LINE
  5
31F
  8
0
 10
7.22699
 20
-15.4642
 30
0.0
 11
6.37672
 21
-15.1059
 31
0.0
  0
LINE
  5
320
  8
0
 10
6.37672
 20
-15.1059
 30
0.0
 11
5.53091
 21
-14.7371
 31
0.0
  0
LINE
  5
321
  8
0
 10
5.53091
 20
-14.7371
 30
0.0
 11
4.6897
 21
-14.3581
 31
0.0
  0
LINE
  5
322
  8
0
 10
4.6897
 20
-14.3581
 30
0.0
 11
3.8532
 21
-13.9687
 31
0.0
  0
LINE
  5
323
  8
0
 10
3.8532
 20
-13.9687
 30
0.0
 11
3.02153
 21
-13.5691
 31
0.0
  0
LINE
  5
324
  8
0
 10
3.02153
 20
-13.5691
 30
0.0
 11
2.19484
 21
-13.1593
 31
0.0
  0
LINE
  5
325
  8
0
 10
2.19484
 20
-13.1593
 30
0.0
 11
1.37325
 21
-12.7394
 31
0.0
  0
LINE
  5
326
  8
0
 10
1.37325
 20
-12.7394
 30
0.0
 11
0.556854
 21
-12.3094
 31
0.0
  0
LINE
  5
327
  8
0
 10
0.556854
 20
-12.3094
 30
0.0
 11
-0.254181
 21
-11.8695
 31
0.0
  0
LINE
  5
328
  8
0
 10
-0.254181
 20
-11.8695
 30
0.0
 11
-1.05977
 21
-11.4197
 31
0.0
  0
LINE
  5
329
  8
0
 10
-1.05977
 20
-11.4197
 30
0.0
 11
-1.85979
 21
-10.9599
 31
0.0
  0
LINE
  5
32A
  8
0
 10
-1.85979
 20
-10.9599
 30
0.0
 11
-2.6541
 21
-10.4905
 31
0.0
  0
LINE
  5
32B
  8
0
 10
-2.6541
 20
-10.4905
 30
0.0
 11
-3.44258
 21
-10.0113
 31
0.0
  0
LINE
  5
32C
  8
0
 10
-3.44258
 20
-10.0113
 30
0.0
 11
-4.22513
 21
-9.52242
 31
0.0
  0
LINE
  5
32D
  8
0
 10
-4.22513
 20
-9.52242
 30
0.0
 11
-5.00162
 21
-9.02402
 31
0.0
  0
LINE
  5
32E
  8
0
 10
-5.00162
 20
-9.02402
 30
0.0
 11
-5.77193
 21
-8.51611
 31
0.0
  0
LINE
  5
32F
  8
0
 10
-5.77193
 20
-8.51611
 30
0.0
 11
-6.53595
 21
-7.99879
 31
0.0
  0
LINE
  5
330
  8
0
 10
-6.53595
 20
-7.99879
 30
0.0
 11
-7.29356
 21
-7.47215
 31
0.0
  0
LINE
  5
331
  8
0
 10
-7.29356
 20
-7.47215
 30
0.0
 11
-8.04466
 21
-6.93625
 31
0.0
  0
LINE
  5
332
  8
0
 10
-8.04466
 20
-6.93625
 30
0.0
 11
-8.78914
 21
-6.39116
 31
0.0
  0
LINE
  5
333
  8
0
 10
-8.78914
 20
-6.39116
 30
0.0
 11
-9.52686
 21
-5.83698
 31
0.0
  0
LINE
  5
334
  8
0
 10
-9.52686
 20
-5.83698
 30
0.0
 11
-10.2577
 21
-5.27379
 31
0.0
  0
LINE
  5
335
  8
0
 10
-10.2577
 20
-5.27379
 30
0.0
 11
-10.9816
 21
-4.70168
 31
0.0
  0
LINE
  5
336
  8
0
 10
-10.9816
 20
-4.70168
 30
0.0
 11
-11.6984
 21
-4.12071
 31
0.0
  0
LINE
  5
337
  8
0
 10
-11.6984
 20
-4.12071
 30
0.0
 11
-12.4081
 21
-3.53101
 31
0.0
  0
LINE
  5
338
  8
0
 10
-12.4081
 20
-3.53101
 30
0.0
 11
-13.1104
 21
-2.93263
 31
0.0
  0
LINE
  5
339
  8
0
 10
-13.1104
 20
-2.93263
 30
0.0
 11
-13.8054
 21
-2.32568
 31
0.0
  0
LINE
  5
33A
  8
0
 10
-13.8054
 20
-2.32568
 30
0.0
 11
-14.4928
 21
-1.71025
 31
0.0
  0
LINE
  5
33B
  8
0
 10
-14.4928
 20
-1.71025
 30
0.0
 11
-15.1727
 21
-1.08644
 31
0.0
  0
LINE
  5
33C
  8
0
 10
-15.1727
 20
-1.08644
 30
0.0
 11
-15.8448
 21
-0.454315
 31
0.0
  0
LINE
  5
33D
  8
0
 10
-15.8448
 20
-0.454315
 30
0.0
 11
-16.5092
 21
0.185989
 31
0.0
  0
LINE
  5
33E
  8
0
 10
-16.5092
 20
0.185989
 30
0.0
 11
-17.1656
 21
0.834396
 31
0.0
  0
LINE
  5
33F
  8
0
 10
-17.1656
 20
0.834396
 30
0.0
 11
-17.814
 21
1.49083
 31
0.0
  0
LINE
  5
340
  8
0
 10
-17.814
 20
1.49083
 30
0.0
 11
-18.4543
 21
2.15517
 31
0.0
  0
LINE
  5
341
  8
0
 10
-18.4543
 20
2.15517
 30
0.0
 11
-19.0864
 21
2.8273
 31
0.0
  0
LINE
  5
342
  8
0
 10
-19.0864
 20
2.8273
 30
0.0
 11
-19.7103
 21
3.50716
 31
0.0
  0
LINE
  5
343
  8
0
 10
-19.7103
 20
3.50716
 30
0.0
 11
-20.3257
 21
4.19461
 31
0.0
  0
LINE
  5
344
  8
0
 10
-20.3257
 20
4.19461
 30
0.0
 11
-20.9326
 21
4.88956
 31
0.0
  0
LINE
  5
345
  8
0
 10
-20.9326
 20
4.88956
 30
0.0
 11
-21.531
 21
5.5919
 31
0.0
  0
LINE
  5
346
  8
0
 10
-21.531
 20
5.5919
 30
0.0
 11
-22.1207
 21
6.30154
 31
0.0
  0
LINE
  5
347
  8
0
 10
-22.1207
 20
6.30154
 30
0.0
 11
-22.7017
 21
7.01837
 31
0.0
  0
LINE
  5
348
  8
0
 10
-22.7017
 20
7.01837
 30
0.0
 11
-23.2738
 21
7.74226
 31
0.0
  0
LINE
  5
349
  8
0
 10
-23.2738
 20
7.74226
 30
0.0
 11
-23.837
 21
8.47313
 31
0.0
  0
LINE
  5
34A
  8
0
 10
-23.837
 20
8.47313
 30
0.0
 11
-24.3912
 21
9.21085
 31
0.0
  0
LINE
  5
34B
  8
0
 10
-24.3912
 20
9.21085
 30
0.0
 11
-24.9362
 21
9.95532
 31
0.0
  0
LINE
  5
34C
  8
0
 10
-24.9362
 20
9.95532
 30
0.0
 11
-25.4722
 21
10.7064
 31
0.0
  0
LINE
  5
34D
  8
0
 10
-25.4722
 20
10.7064
 30
0.0
 11
-25.9988
 21
11.464
 31
0.0
  0
LINE
  5
34E
  8
0
 10
-25.9988
 20
11.464
 30
0.0
 11
-26.5161
 21
12.2281
 31
0.0
  0
LINE
  5
34F
  8
0
 10
-26.5161
 20
12.2281
 30
0.0
 11
-27.024
 21
12.9984
 31
0.0
  0
LINE
  5
350
  8
0
 10
-27.024
 20
12.9984
 30
0.0
 11
-27.5224
 21
13.7749
 31
0.0
  0
LINE
  5
351
  8
0
 10
-27.5224
 20
13.7749
 30
0.0
 11
-28.0113
 21
14.5574
 31
0.0
  0
LINE
  5
352
  8
0
 10
-28.0113
 20
14.5574
 30
0.0
 11
-28.4905
 21
15.3459
 31
0.0
  0
LINE
  5
353
  8
0
 10
-28.4905
 20
15.3459
 30
0.0
 11
-28.9599
 21
16.1402
 31
0.0
  0
LINE
  5
354
  8
0
 10
-28.9599
 20
16.1402
 30
0.0
 11
-29.4197
 21
16.9402
 31
0.0
  0
LINE
  5
355
  8
0
 10
-29.4197
 20
16.9402
 30
0.0
 11
-29.8695
 21
17.7458
 31
0.0
  0
LINE
  5
356
  8
0
 10
-29.8695
 20
17.7458
 30
0.0
 11
-30.3094
 21
18.5569
 31
0.0
  0
LINE
  5
357
  8
0
 10
-30.3094
 20
18.5569
 30
0.0
 11
-30.7394
 21
19.3732
 31
0.0
  0
LINE
  5
358
  8
0
 10
-30.7394
 20
19.3732
 30
0.0
 11
-31.1593
 21
20.1948
 31
0.0
  0
LINE
  5
359
  8
0
 10
-31.1593
 20
20.1948
 30
0.0
 11
-31.5691
 21
21.0215
 31
0.0
  0
LINE
  5
35A
  8
0
 10
-31.5691
 20
21.0215
 30
0.0
 11
-31.9687
 21
21.8532
 31
0.0
  0
LINE
  5
35B
  8
0
 10
-31.9687
 20
21.8532
 30
0.0
 11
-32.3581
 21
22.6897
 31
0.0
  0
LINE
  5
35C
  8
0
 10
-32.3581
 20
22.6897
 30
0.0
 11
-32.7371
 21
23.5309
 31
0.0
  0
LINE
  5
35D
  8
0
 10
-32.7371
 20
23.5309
 30
0.0
 11
-33.1059
 21
24.3767
 31
0.0
  0
LINE
  5
35E
  8
0
 10
-33.1059
 20
24.3767
 30
0.0
 11
-33.4439
 21
25.1789
 31
0.0
  0
LINE
  5
35F
  8
0
 10
-33.4439
 20
25.1789
 30
0.0
 11
-33.4439
 21
49.0
 31
0.0
  0
LINE
  5
360
  8
0
 10
-33.4439
 20
49.0
 30
0.0
 11
-35.4439
 21
49.0
 31
0.0
  0
LINE
  5
361
  8
0
 10
-35.4439
 20
49.0
 30
0.0
 11
-35.4439
 21
59.0
 31
0.0
  0
LINE
  5
362
  8
0
 10
-35.4439
 20
59.0
 30
0.0
 11
-33.4439
 21
59.0
 31
0.0
  0
LINE
  5
363
  8
0
 10
-33.4439
 20
59.0
 30
0.0
 11
-33.4439
 21
82.8211
 31
0.0
  0
LINE
  5
364
  8
0
 10
-33.4439
 20
82.8211
 30
0.0
 11
-33.1059
 21
83.6233
 31
0.0
  0
LINE
  5
365
  8
0
 10
-33.1059
 20
83.6233
 30
0.0
 11
-32.7371
 21
84.4691
 31
0.0
  0
LINE
  5
366
  8
0
 10
-32.7371
 20
84.4691
 30
0.0
 11
-32.3581
 21
85.3103
 31
0.0
  0
LINE
  5
367
  8
0
 10
-32.3581
 20
85.3103
 30
0.0
 11
-31.9687
 21
86.1468
 31
0.0
  0
LINE
  5
368
  8
0
 10
-31.9687
 20
86.1468
 30
0.0
 11
-31.5691
 21
86.9785
 31
0.0
  0
LINE
  5
369
  8
0
 10
-31.5691
 20
86.9785
 30
0.0
 11
-31.1593
 21
87.8051
 31
0.0
  0
LINE
  5
36A
  8
0
 10
-31.1593
 20
87.8051
 30
0.0
 11
-30.7394
 21
88.6268
 31
0.0
  0
LINE
  5
36B
  8
0
 10
-30.7394
 20
88.6268
 30
0.0
 11
-30.3094
 21
89.4431
 31
0.0
  0
LINE
  5
36C
  8
0
 10
-30.3094
 20
89.4431
 30
0.0
 11
-29.8695
 21
90.2542
 31
0.0
  0
LINE
  5
36D
  8
0
 10
-29.8695
 20
90.2542
 30
0.0
 11
-29.4197
 21
91.0598
 31
0.0
  0
LINE
  5
36E
  8
0
 10
-29.4197
 20
91.0598
 30
0.0
 11
-28.9599
 21
91.8598
 31
0.0
  0
LINE
  5
36F
  8
0
 10
-28.9599
 20
91.8598
 30
0.0
 11
-28.4905
 21
92.6541
 31
0.0
  0
LINE
  5
370
  8
0
 10
-28.4905
 20
92.6541
 30
0.0
 11
-28.0113
 21
93.4426
 31
0.0
  0
LINE
  5
371
  8
0
 10
-28.0113
 20
93.4426
 30
0.0
 11
-27.5224
 21
94.2251
 31
0.0
  0
LINE
  5
372
  8
0
 10
-27.5224
 20
94.2251
 30
0.0
 11
-27.024
 21
95.0016
 31
0.0
  0
LINE
  5
373
  8
0
 10
-27.024
 20
95.0016
 30
0.0
 11
-26.5161
 21
95.7719
 31
0.0
  0
LINE
  5
374
  8
0
 10
-26.5161
 20
95.7719
 30
0.0
 11
-25.9988
 21
96.5359
 31
0.0
  0
LINE
  5
375
  8
0
 10
-25.9988
 20
96.5359
 30
0.0
 11
-25.4722
 21
97.2936
 31
0.0
  0
LINE
  5
376
  8
0
 10
-25.4722
 20
97.2936
 30
0.0
 11
-24.9362
 21
98.0447
 31
0.0
  0
LINE
  5
377
  8
0
 10
-24.9362
 20
98.0447
 30
0.0
 11
-24.3912
 21
98.7891
 31
0.0
  0
LINE
  5
378
  8
0
 10
-24.3912
 20
98.7891
 30
0.0
 11
-23.837
 21
99.5269
 31
0.0
  0
LINE
  5
379
  8
0
 10
-23.837
 20
99.5269
 30
0.0
 11
-23.2738
 21
100.258
 31
0.0
  0
LINE
  5
37A
  8
0
 10
-23.2738
 20
100.258
 30
0.0
 11
-22.7017
 21
100.982
 31
0.0
  0
LINE
  5
37B
  8
0
 10
-22.7017
 20
100.982
 30
0.0
 11
-22.1207
 21
101.698
 31
0.0
  0
LINE
  5
37C
  8
0
 10
-22.1207
 20
101.698
 30
0.0
 11
-21.531
 21
102.408
 31
0.0
  0
LINE
  5
37D
  8
0
 10
-21.531
 20
102.408
 30
0.0
 11
-20.9326
 21
103.11
 31
0.0
  0
LINE
  5
37E
  8
0
 10
-20.9326
 20
103.11
 30
0.0
 11
-20.3257
 21
103.805
 31
0.0
  0
LINE
  5
37F
  8
0
 10
-20.3257
 20
103.805
 30
0.0
 11
-19.7103
 21
104.493
 31
0.0
  0
LINE
  5
380
  8
0
 10
-19.7103
 20
104.493
 30
0.0
 11
-19.0864
 21
105.173
 31
0.0
  0
LINE
  5
381
  8
0
 10
-19.0864
 20
105.173
 30
0.0
 11
-18.4543
 21
105.845
 31
0.0
  0
LINE
  5
382
  8
0
 10
-18.4543
 20
105.845
 30
0.0
 11
-17.814
 21
106.509
 31
0.0
  0
LINE
  5
383
  8
0
 10
-17.814
 20
106.509
 30
0.0
 11
-17.1656
 21
107.166
 31
0.0
  0
LINE
  5
384
  8
0
 10
-17.1656
 20
107.166
 30
0.0
 11
-16.5092
 21
107.814
 31
0.0
  0
LINE
  5
385
  8
0
 10
-16.5092
 20
107.814
 30
0.0
 11
-15.8448
 21
108.454
 31
0.0
  0
LINE
  5
386
  8
0
 10
-15.8448
 20
108.454
 30
0.0
 11
-15.1727
 21
109.086
 31
0.0
  0
LINE
  5
387
  8
0
 10
-15.1727
 20
109.086
 30
0.0
 11
-14.4928
 21
109.71
 31
0.0
  0
LINE
  5
388
  8
0
 10
-14.4928
 20
109.71
 30
0.0
 11
-13.8054
 21
110.326
 31
0.0
  0
LINE
  5
389
  8
0
 10
-13.8054
 20
110.326
 30
0.0
 11
-13.1104
 21
110.933
 31
0.0
  0
LINE
  5
38A
  8
0
 10
-13.1104
 20
110.933
 30
0.0
 11
-12.4081
 21
111.531
 31
0.0
  0
LINE
  5
38B
  8
0
 10
-12.4081
 20
111.531
 30
0.0
 11
-11.6984
 21
112.121
 31
0.0
  0
LINE
  5
38C
  8
0
 10
-11.6984
 20
112.121
 30
0.0
 11
-10.9816
 21
112.702
 31
0.0
  0
LINE
  5
38D
  8
0
 10
-10.9816
 20
112.702
 30
0.0
 11
-10.2577
 21
113.274
 31
0.0
  0
LINE
  5
38E
  8
0
 10
-10.2577
 20
113.274
 30
0.0
 11
-9.52686
 21
113.837
 31
0.0
  0
LINE
  5
38F
  8
0
 10
-9.52686
 20
113.837
 30
0.0
 11
-8.78914
 21
114.391
 31
0.0
  0
LINE
  5
390
  8
0
 10
-8.78914
 20
114.391
 30
0.0
 11
-8.04466
 21
114.936
 31
0.0
  0
LINE
  5
391
  8
0
 10
-8.04466
 20
114.936
 30
0.0
 11
-7.29356
 21
115.472
 31
0.0
  0
LINE
  5
392
  8
0
 10
-7.29356
 20
115.472
 30
0.0
 11
-6.53595
 21
115.999
 31
0.0
  0
LINE
  5
393
  8
0
 10
-6.53595
 20
115.999
 30
0.0
 11
-5.77193
 21
116.516
 31
0.0
  0
LINE
  5
394
  8
0
 10
-5.77193
 20
116.516
 30
0.0
 11
-5.00162
 21
117.024
 31
0.0
  0
LINE
  5
395
  8
0
 10
-5.00162
 20
117.024
 30
0.0
 11
-4.22513
 21
117.522
 31
0.0
  0
LINE
  5
396
  8
0
 10
-4.22513
 20
117.522
 30
0.0
 11
-3.44258
 21
118.011
 31
0.0
  0
LINE
  5
397
  8
0
 10
-3.44258
 20
118.011
 30
0.0
 11
-2.6541
 21
118.49
 31
0.0
  0
LINE
  5
398
  8
0
 10
-2.6541
 20
118.49
 30
0.0
 11
-1.85979
 21
118.96
 31
0.0
  0
LINE
  5
399
  8
0
 10
-1.85979
 20
118.96
 30
0.0
 11
-1.05977
 21
119.42
 31
0.0
  0
LINE
  5
39A
  8
0
 10
-1.05977
 20
119.42
 30
0.0
 11
-0.254181
 21
119.87
 31
0.0
  0
LINE
  5
39B
  8
0
 10
-0.254181
 20
119.87
 30
0.0
 11
0.556854
 21
120.309
 31
0.0
  0
LINE
  5
39C
  8
0
 10
0.556854
 20
120.309
 30
0.0
 11
1.37325
 21
120.739
 31
0.0
  0
LINE
  5
39D
  8
0
 10
1.37325
 20
120.739
 30
0.0
 11
2.19484
 21
121.159
 31
0.0
  0
LINE
  5
39E
  8
0
 10
2.19484
 20
121.159
 30
0.0
 11
3.02153
 21
121.569
 31
0.0
  0
LINE
  5
39F
  8
0
 10
3.02153
 20
121.569
 30
0.0
 11
3.8532
 21
121.969
 31
0.0
  0
LINE
  5
3A0
  8
0
 10
3.8532
 20
121.969
 30
0.0
 11
4.6897
 21
122.358
 31
0.0
  0
LINE
  5
3A1
  8
0
 10
4.6897
 20
122.358
 30
0.0
 11
5.53091
 21
122.737
 31
0.0
  0
LINE
  5
3A2
  8
0
 10
5.53091
 20
122.737
 30
0.0
 11
6.37672
 21
123.106
 31
0.0
  0
LINE
  5
3A3
  8
0
 10
6.37672
 20
123.106
 30
0.0
 11
7.22699
 21
123.464
 31
0.0
  0
LINE
  5
3A4
  8
0
 10
7.22699
 20
123.464
 30
0.0
 11
8.08159
 21
123.812
 31
0.0
  0
LINE
  5
3A5
  8
0
 10
8.08159
 20
123.812
 30
0.0
 11
8.94038
 21
124.149
 31
0.0
  0
LINE
  5
3A6
  8
0
 10
8.94038
 20
124.149
 30
0.0
 11
9.80327
 21
124.476
 31
0.0
  0
LINE
  5
3A7
  8
0
 10
9.80327
 20
124.476
 30
0.0
 11
10.6701
 21
124.792
 31
0.0
  0
LINE
  5
3A8
  8
0
 10
10.6701
 20
124.792
 30
0.0
 11
11.5407
 21
125.098
 31
0.0
  0
LINE
  5
3A9
  8
0
 10
11.5407
 20
125.098
 30
0.0
 11
12.4151
 21
125.393
 31
0.0
  0
LINE
  5
3AA
  8
0
 10
12.4151
 20
125.393
 30
0.0
 11
13.2929
 21
125.677
 31
0.0
  0
LINE
  5
3AB
  8
0
 10
13.2929
 20
125.677
 30
0.0
 11
14.1742
 21
125.95
 31
0.0
  0
LINE
  5
3AC
  8
0
 10
14.1742
 20
125.95
 30
0.0
 11
15.0588
 21
126.212
 31
0.0
  0
LINE
  5
3AD
  8
0
 10
15.0588
 20
126.212
 30
0.0
 11
15.9465
 21
126.464
 31
0.0
  0
LINE
  5
3AE
  8
0
 10
15.9465
 20
126.464
 30
0.0
 11
16.8373
 21
126.705
 31
0.0
  0
LINE
  5
3AF
  8
0
 10
16.8373
 20
126.705
 30
0.0
 11
17.7309
 21
126.934
 31
0.0
  0
LINE
  5
3B0
  8
0
 10
17.7309
 20
126.934
 30
0.0
 11
18.6273
 21
127.153
 31
0.0
  0
LINE
  5
3B1
  8
0
 10
18.6273
 20
127.153
 30
0.0
 11
19.5263
 21
127.361
 31
0.0
  0
LINE
  5
3B2
  8
0
 10
19.5263
 20
127.361
 30
0.0
 11
20.4278
 21
127.557
 31
0.0
  0
LINE
  5
3B3
  8
0
 10
20.4278
 20
127.557
 30
0.0
 11
21.3316
 21
127.743
 31
0.0
  0
LINE
  5
3B4
  8
0
 10
21.3316
 20
127.743
 30
0.0
 11
22.2377
 21
127.917
 31
0.0
  0
LINE
  5
3B5
  8
0
 10
22.2377
 20
127.917
 30
0.0
 11
23.1458
 21
128.081
 31
0.0
  0
LINE
  5
3B6
  8
0
 10
23.1458
 20
128.081
 30
0.0
 11
24.0558
 21
128.233
 31
0.0
  0
LINE
  5
3B7
  8
0
 10
24.0558
 20
128.233
 30
0.0
 11
24.9677
 21
128.374
 31
0.0
  0
LINE
  5
3B8
  8
0
 10
24.9677
 20
128.374
 30
0.0
 11
25.8812
 21
128.503
 31
0.0
  0
LINE
  5
3B9
  8
0
 10
25.8812
 20
128.503
 30
0.0
 11
26.7962
 21
128.622
 31
0.0
  0
LINE
  5
3BA
  8
0
 10
26.7962
 20
128.622
 30
0.0
 11
27.7127
 21
128.729
 31
0.0
  0
LINE
  5
3BB
  8
0
 10
27.7127
 20
128.729
 30
0.0
 11
28.6303
 21
128.825
 31
0.0
  0
LINE
  5
3BC
  8
0
 10
28.6303
 20
128.825
 30
0.0
 11
29.5491
 21
128.91
 31
0.0
  0
LINE
  5
3BD
  8
0
 10
29.5491
 20
128.91
 30
0.0
 11
30.4689
 21
128.984
 31
0.0
  0
LINE
  5
3BE
  8
0
 10
30.4689
 20
128.984
 30
0.0
 11
31.3894
 21
129.046
 31
0.0
  0
LINE
  5
3BF
  8
0
 10
31.3894
 20
129.046
 30
0.0
 11
32.3107
 21
129.097
 31
0.0
  0
LINE
  5
3C0
  8
0
 10
32.3107
 20
129.097
 30
0.0
 11
33.2326
 21
129.137
 31
0.0
  0
LINE
  5
3C1
  8
0
 10
33.2326
 20
129.137
 30
0.0
 11
34.1548
 21
129.165
 31
0.0
  0
LINE
  5
3C2
  8
0
 10
34.1548
 20
129.165
 30
0.0
 11
35.0773
 21
129.182
 31
0.0
  0
LINE
  5
3C3
  8
0
 10
35.0773
 20
129.182
 30
0.0
 11
36.0
 21
129.188
 31
0.0
  0
LINE
  5
3C4
  8
0
 10
36.0
 20
129.188
 30
0.0
 11
36.9227
 21
129.182
 31
0.0
  0
LINE
  5
3C5
  8
0
 10
36.9227
 20
129.182
 30
0.0
 11
37.8452
 21
129.165
 31
0.0
  0
LINE
  5
3C6
  8
0
 10
37.8452
 20
129.165
 30
0.0
 11
38.7674
 21
129.137
 31
0.0
  0
LINE
  5
3C7
  8
0
 10
38.7674
 20
129.137
 30
0.0
 11
39.6893
 21
129.097
 31
0.0
  0
LINE
  5
3C8
  8
0
 10
39.6893
 20
129.097
 30
0.0
 11
40.6105
 21
129.046
 31
0.0
  0
LINE
  5
3C9
  8
0
 10
40.6105
 20
129.046
 30
0.0
 11
41.5311
 21
128.984
 31
0.0
  0
LINE
  5
3CA
  8
0
 10
41.5311
 20
128.984
 30
0.0
 11
42.4509
 21
128.91
 31
0.0
  0
LINE
  5
3CB
  8
0
 10
42.4509
 20
128.91
 30
0.0
 11
43.3697
 21
128.825
 31
0.0
  0
LINE
  5
3CC
  8
0
 10
43.3697
 20
128.825
 30
0.0
 11
44.2873
 21
128.729
 31
0.0
  0
LINE
  5
3CD
  8
0
 10
44.2873
 20
128.729
 30
0.0
 11
45.2038
 21
128.622
 31
0.0
  0
LINE
  5
3CE
  8
0
 10
45.2038
 20
128.622
 30
0.0
 11
46.1188
 21
128.503
 31
0.0
  0
LINE
  5
3CF
  8
0
 10
46.1188
 20
128.503
 30
0.0
 11
47.0323
 21
128.374
 31
0.0
  0
LINE
  5
3D0
  8
0
 10
47.0323
 20
128.374
 30
0.0
 11
47.9441
 21
128.233
 31
0.0
  0
LINE
  5
3D1
  8
0
 10
47.9441
 20
128.233
 30
0.0
 11
48.8542
 21
128.081
 31
0.0
  0
LINE
  5
3D2
  8
0
 10
48.8542
 20
128.081
 30
0.0
 11
49.7623
 21
127.917
 31
0.0
  0
LINE
  5
3D3
  8
0
 10
49.7623
 20
127.917
 30
0.0
 11
50.6684
 21
127.743
 31
0.0
  0
LINE
  5
3D4
  8
0
 10
50.6684
 20
127.743
 30
0.0
 11
51.5722
 21
127.557
 31
0.0
  0
LINE
  5
3D5
  8
0
 10
51.5722
 20
127.557
 30
0.0
 11
52.4737
 21
127.361
 31
0.0
  0
LINE
  5
3D6
  8
0
 10
52.4737
 20
127.361
 30
0.0
 11
53.3727
 21
127.153
 31
0.0
  0
LINE
  5
3D7
  8
0
 10
53.3727
 20
127.153
 30
0.0
 11
54.2691
 21
126.934
 31
0.0
  0
LINE
  5
3D8
  8
0
 10
54.2691
 20
126.934
 30
0.0
 11
55.1627
 21
126.705
 31
0.0
  0
LINE
  5
3D9
  8
0
 10
55.1627
 20
126.705
 30
0.0
 11
56.0535
 21
126.464
 31
0.0
  0
LINE
  5
3DA
  8
0
 10
56.0535
 20
126.464
 30
0.0
 11
56.9412
 21
126.212
 31
0.0
  0
LINE
  5
3DB
  8
0
 10
56.9412
 20
126.212
 30
0.0
 11
57.8258
 21
125.95
 31
0.0
  0
LINE
  5
3DC
  8
0
 10
57.8258
 20
125.95
 30
0.0
 11
58.7071
 21
125.677
 31
0.0
  0
LINE
  5
3DD
  8
0
 10
58.7071
 20
125.677
 30
0.0
 11
59.5849
 21
125.393
 31
0.0
  0
LINE
  5
3DE
  8
0
 10
59.5849
 20
125.393
 30
0.0
 11
60.4593
 21
125.098
 31
0.0
  0
LINE
  5
3DF
  8
0
 10
60.4593
 20
125.098
 30
0.0
 11
61.3299
 21
124.792
 31
0.0
  0
LINE
  5
3E0
  8
0
 10
61.3299
 20
124.792
 30
0.0
 11
62.1967
 21
124.476
 31
0.0
  0
LINE
  5
3E1
  8
0
 10
62.1967
 20
124.476
 30
0.0
 11
63.0596
 21
124.149
 31
0.0
  0
LINE
  5
3E2
  8
0
 10
63.0596
 20
124.149
 30
0.0
 11
63.9184
 21
123.812
 31
0.0
  0
LINE
  5
3E3
  8
0
 10
63.9184
 20
123.812
 30
0.0
 11
64.773
 21
123.464
 31
0.0
  0
LINE
  5
3E4
  8
0
 10
64.773
 20
123.464
 30
0.0
 11
65.6233
 21
123.106
 31
0.0
  0
LINE
  5
3E5
  8
0
 10
65.6233
 20
123.106
 30
0.0
 11
66.4691
 21
122.737
 31
0.0
  0
LINE
  5
3E6
  8
0
 10
66.4691
 20
122.737
 30
0.0
 11
67.3103
 21
122.358
 31
0.0
  0
LINE
  5
3E7
  8
0
 10
67.3103
 20
122.358
 30
0.0
 11
68.1468
 21
121.969
 31
0.0
  0
LINE
  5
3E8
  8
0
 10
68.1468
 20
121.969
 30
0.0
 11
68.9785
 21
121.569
 31
0.0
  0
LINE
  5
3E9
  8
0
 10
68.9785
 20
121.569
 30
0.0
 11
69.8051
 21
121.159
 31
0.0
  0
LINE
  5
3EA
  8
0
 10
69.8051
 20
121.159
 30
0.0
 11
70.6268
 21
120.739
 31
0.0
  0
LINE
  5
3EB
  8
0
 10
70.6268
 20
120.739
 30
0.0
 11
71.4431
 21
120.309
 31
0.0
  0
LINE
  5
3EC
  8
0
 10
71.4431
 20
120.309
 30
0.0
 11
72.2542
 21
119.87
 31
0.0
  0
LINE
  5
3ED
  8
0
 10
72.2542
 20
119.87
 30
0.0
 11
73.0598
 21
119.42
 31
0.0
  0
LINE
  5
3EE
  8
0
 10
73.0598
 20
119.42
 30
0.0
 11
73.8598
 21
118.96
 31
0.0
  0
LINE
  5
3EF
  8
0
 10
73.8598
 20
118.96
 30
0.0
 11
74.6541
 21
118.49
 31
0.0
  0
LINE
  5
3F0
  8
0
 10
74.6541
 20
118.49
 30
0.0
 11
75.4426
 21
118.011
 31
0.0
  0
LINE
  5
3F1
  8
0
 10
75.4426
 20
118.011
 30
0.0
 11
76.2251
 21
117.522
 31
0.0
  0
LINE
  5
3F2
  8
0
 10
76.2251
 20
117.522
 30
0.0
 11
77.0016
 21
117.024
 31
0.0
  0
LINE
  5
3F3
  8
0
 10
77.0016
 20
117.024
 30
0.0
 11
77.7719
 21
116.516
 31
0.0
  0
LINE
  5
3F4
  8
0
 10
77.7719
 20
116.516
 30
0.0
 11
78.5359
 21
115.999
 31
0.0
  0
LINE
  5
3F5
  8
0
 10
78.5359
 20
115.999
 30
0.0
 11
79.2936
 21
115.472
 31
0.0
  0
LINE
  5
3F6
  8
0
 10
79.2936
 20
115.472
 30
0.0
 11
80.0447
 21
114.936
 31
0.0
  0
LINE
  5
3F7
  8
0
 10
80.0447
 20
114.936
 30
0.0
 11
80.7891
 21
114.391
 31
0.0
  0
LINE
  5
3F8
  8
0
 10
80.7891
 20
114.391
 30
0.0
 11
81.5269
 21
113.837
 31
0.0
  0
LINE
  5
3F9
  8
0
 10
81.5269
 20
113.837
 30
0.0
 11
82.2577
 21
113.274
 31
0.0
  0
LINE
  5
3FA
  8
0
 10
82.2577
 20
113.274
 30
0.0
 11
82.9816
 21
112.702
 31
0.0
  0
LINE
  5
3FB
  8
0
 10
82.9816
 20
112.702
 30
0.0
 11
83.6984
 21
112.121
 31
0.0
  0
LINE
  5
3FC
  8
0
 10
83.6984
 20
112.121
 30
0.0
 11
84.4081
 21
111.531
 31
0.0
  0
LINE
  5
3FD
  8
0
 10
84.4081
 20
111.531
 30
0.0
 11
85.1104
 21
110.933
 31
0.0
  0
LINE
  5
3FE
  8
0
 10
85.1104
 20
110.933
 30
0.0
 11
85.8054
 21
110.326
 31
0.0
  0
LINE
  5
3FF
  8
0
 10
85.8054
 20
110.326
 30
0.0
 11
86.4928
 21
109.71
 31
0.0
  0
LINE
  5
400
  8
0
 10
86.4928
 20
109.71
 30
0.0
 11
87.1727
 21
109.086
 31
0.0
  0
LINE
  5
401
  8
0
 10
87.1727
 20
109.086
 30
0.0
 11
87.8448
 21
108.454
 31
0.0
  0
LINE
  5
402
  8
0
 10
87.8448
 20
108.454
 30
0.0
 11
88.5092
 21
107.814
 31
0.0
  0
LINE
  5
403
  8
0
 10
88.5092
 20
107.814
 30
0.0
 11
89.1656
 21
107.166
 31
0.0
  0
LINE
  5
404
  8
0
 10
89.1656
 20
107.166
 30
0.0
 11
89.814
 21
106.509
 31
0.0
  0
LINE
  5
405
  8
0
 10
89.814
 20
106.509
 30
0.0
 11
90.4543
 21
105.845
 31
0.0
  0
LINE
  5
406
  8
0
 10
90.4543
 20
105.845
 30
0.0
 11
91.0864
 21
105.173
 31
0.0
  0
LINE
  5
407
  8
0
 10
91.0864
 20
105.173
 30
0.0
 11
91.7103
 21
104.493
 31
0.0
  0
LINE
  5
408
  8
0
 10
91.7103
 20
104.493
 30
0.0
 11
92.3257
 21
103.805
 31
0.0
  0
LINE
  5
409
  8
0
 10
92.3257
 20
103.805
 30
0.0
 11
92.9326
 21
103.11
 31
0.0
  0
LINE
  5
40A
  8
0
 10
92.9326
 20
103.11
 30
0.0
 11
93.531
 21
102.408
 31
0.0
  0
LINE
  5
40B
  8
0
 10
93.531
 20
102.408
 30
0.0
 11
94.1207
 21
101.698
 31
0.0
  0
LINE
  5
40C
  8
0
 10
94.1207
 20
101.698
 30
0.0
 11
94.7017
 21
100.982
 31
0.0
  0
LINE
  5
40D
  8
0
 10
94.7017
 20
100.982
 30
0.0
 11
95.2738
 21
100.258
 31
0.0
  0
LINE
  5
40E
  8
0
 10
95.2738
 20
100.258
 30
0.0
 11
95.837
 21
99.5269
 31
0.0
  0
LINE
  5
40F
  8
0
 10
95.837
 20
99.5269
 30
0.0
 11
96.3912
 21
98.7891
 31
0.0
  0
LINE
  5
410
  8
0
 10
96.3912
 20
98.7891
 30
0.0
 11
96.9362
 21
98.0447
 31
0.0
  0
LINE
  5
411
  8
0
 10
96.9362
 20
98.0447
 30
0.0
 11
97.4722
 21
97.2936
 31
0.0
  0
LINE
  5
412
  8
0
 10
97.4722
 20
97.2936
 30
0.0
 11
97.9988
 21
96.5359
 31
0.0
  0
LINE
  5
413
  8
0
 10
97.9988
 20
96.5359
 30
0.0
 11
98.5161
 21
95.7719
 31
0.0
  0
LINE
  5
414
  8
0
 10
98.5161
 20
95.7719
 30
0.0
 11
99.024
 21
95.0016
 31
0.0
  0
LINE
  5
415
  8
0
 10
99.024
 20
95.0016
 30
0.0
 11
99.5224
 21
94.2251
 31
0.0
  0
LINE
  5
416
  8
0
 10
99.5224
 20
94.2251
 30
0.0
 11
100.011
 21
93.4426
 31
0.0
  0
LINE
  5
417
  8
0
 10
100.011
 20
93.4426
 30
0.0
 11
100.49
 21
92.6541
 31
0.0
  0
LINE
  5
418
  8
0
 10
100.49
 20
92.6541
 30
0.0
 11
100.96
 21
91.8598
 31
0.0
  0
LINE
  5
419
  8
0
 10
100.96
 20
91.8598
 30
0.0
 11
101.42
 21
91.0598
 31
0.0
  0
LINE
  5
41A
  8
0
 10
101.42
 20
91.0598
 30
0.0
 11
101.87
 21
90.2542
 31
0.0
  0
LINE
  5
41B
  8
0
 10
101.87
 20
90.2542
 30
0.0
 11
102.309
 21
89.4431
 31
0.0
  0
LINE
  5
41C
  8
0
 10
102.309
 20
89.4431
 30
0.0
 11
102.739
 21
88.6268
 31
0.0
  0
LINE
  5
41D
  8
0
 10
102.739
 20
88.6268
 30
0.0
 11
103.159
 21
87.8051
 31
0.0
  0
LINE
  5
41E
  8
0
 10
103.159
 20
87.8051
 30
0.0
 11
103.569
 21
86.9785
 31
0.0
  0
LINE
  5
41F
  8
0
 10
103.569
 20
86.9785
 30
0.0
 11
103.969
 21
86.1468
 31
0.0
  0
LINE
  5
420
  8
0
 10
103.969
 20
86.1468
 30
0.0
 11
104.358
 21
85.3103
 31
0.0
  0
LINE
  5
421
  8
0
 10
104.358
 20
85.3103
 30
0.0
 11
104.737
 21
84.4691
 31
0.0
  0
LINE
  5
422
  8
0
 10
104.737
 20
84.4691
 30
0.0
 11
105.106
 21
83.6233
 31
0.0
  0
LINE
  5
423
  8
0
 10
105.106
 20
83.6233
 30
0.0
 11
105.464
 21
82.773
 31
0.0
  0
LINE
  5
424
  8
0
 10
105.464
 20
82.773
 30
0.0
 11
105.812
 21
81.9184
 31
0.0
  0
LINE
  5
425
  8
0
 10
105.812
 20
81.9184
 30
0.0
 11
106.149
 21
81.0596
 31
0.0
  0
LINE
  5
426
  8
0
 10
106.149
 20
81.0596
 30
0.0
 11
106.476
 21
80.1967
 31
0.0
  0
LINE
  5
427
  8
0
 10
106.476
 20
80.1967
 30
0.0
 11
106.792
 21
79.3299
 31
0.0
  0
LINE
  5
428
  8
0
 10
106.792
 20
79.3299
 30
0.0
 11
107.098
 21
78.4593
 31
0.0
  0
LINE
  5
429
  8
0
 10
107.098
 20
78.4593
 30
0.0
 11
107.393
 21
77.5849
 31
0.0
  0
LINE
  5
42A
  8
0
 10
107.393
 20
77.5849
 30
0.0
 11
107.677
 21
76.7071
 31
0.0
  0
LINE
  5
42B
  8
0
 10
107.677
 20
76.7071
 30
0.0
 11
107.95
 21
75.8258
 31
0.0
  0
LINE
  5
42C
  8
0
 10
107.95
 20
75.8258
 30
0.0
 11
108.212
 21
74.9412
 31
0.0
  0
LINE
  5
42D
  8
0
 10
108.212
 20
74.9412
 30
0.0
 11
108.464
 21
74.0535
 31
0.0
  0
LINE
  5
42E
  8
0
 10
108.464
 20
74.0535
 30
0.0
 11
108.705
 21
73.1627
 31
0.0
  0
LINE
  5
42F
  8
0
 10
108.705
 20
73.1627
 30
0.0
 11
108.934
 21
72.2691
 31
0.0
  0
LINE
  5
430
  8
0
 10
108.934
 20
72.2691
 30
0.0
 11
109.153
 21
71.3727
 31
0.0
  0
LINE
  5
431
  8
0
 10
109.153
 20
71.3727
 30
0.0
 11
109.361
 21
70.4737
 31
0.0
  0
LINE
  5
432
  8
0
 10
109.361
 20
70.4737
 30
0.0
 11
109.557
 21
69.5722
 31
0.0
  0
LINE
  5
433
  8
0
 10
109.557
 20
69.5722
 30
0.0
 11
109.743
 21
68.6684
 31
0.0
  0
LINE
  5
434
  8
0
 10
109.743
 20
68.6684
 30
0.0
 11
109.917
 21
67.7623
 31
0.0
  0
LINE
  5
435
  8
0
 10
109.917
 20
67.7623
 30
0.0
 11
110.081
 21
66.8542
 31
0.0
  0
LINE
  5
436
  8
0
 10
110.081
 20
66.8542
 30
0.0
 11
110.233
 21
65.9441
 31
0.0
  0
LINE
  5
437
  8
0
 10
110.233
 20
65.9441
 30
0.0
 11
110.374
 21
65.0323
 31
0.0
  0
LINE
  5
438
  8
0
 10
110.374
 20
65.0323
 30
0.0
 11
110.503
 21
64.1188
 31
0.0
  0
LINE
  5
439
  8
0
 10
110.503
 20
64.1188
 30
0.0
 11
110.622
 21
63.2038
 31
0.0
  0
LINE
  5
43A
  8
0
 10
110.622
 20
63.2038
 30
0.0
 11
110.729
 21
62.2873
 31
0.0
  0
LINE
  5
43B
  8
0
 10
110.729
 20
62.2873
 30
0.0
 11
110.825
 21
61.3697
 31
0.0
  0
LINE
  5
43C
  8
0
 10
110.825
 20
61.3697
 30
0.0
 11
110.91
 21
60.4509
 31
0.0
  0
LINE
  5
43D
  8
0
 10
110.91
 20
60.4509
 30
0.0
 11
110.984
 21
59.5311
 31
0.0
  0
LINE
  5
43E
  8
0
 10
110.984
 20
59.5311
 30
0.0
 11
111.046
 21
58.6105
 31
0.0
  0
LINE
  5
43F
  8
0
 10
111.046
 20
58.6105
 30
0.0
 11
111.097
 21
57.6893
 31
0.0
  0
LINE
  5
440
  8
0
 10
111.097
 20
57.6893
 30
0.0
 11
111.137
 21
56.7674
 31
0.0
  0
LINE
  5
441
  8
0
 10
111.137
 20
56.7674
 30
0.0
 11
111.165
 21
55.8452
 31
0.0
  0
LINE
  5
442
  8
0
 10
111.165
 20
55.8452
 30
0.0
 11
111.182
 21
54.9227
 31
0.0
  0
LINE
  5
443
  8
0
 10
111.182
 20
54.9227
 30
0.0
 11
111.188
 21
54.0
 31
0.0
  0
LINE
  5
444
  8
0
 10
111.188
 20
54.0
 30
0.0
 11
111.182
 21
53.0773
 31
0.0
  0
LINE
  5
445
  8
0
 10
111.182
 20
53.0773
 30
0.0
 11
111.165
 21
52.1548
 31
0.0
  0
LINE
  5
446
  8
0
 10
111.165
 20
52.1548
 30
0.0
 11
111.137
 21
51.2326
 31
0.0
  0
LINE
  5
447
  8
0
 10
111.137
 20
51.2326
 30
0.0
 11
111.097
 21
50.3107
 31
0.0
  0
LINE
  5
448
  8
0
 10
111.097
 20
50.3107
 30
0.0
 11
111.046
 21
49.3894
 31
0.0
  0
LINE
  5
449
  8
0
 10
111.046
 20
49.3894
 30
0.0
 11
110.984
 21
48.4689
 31
0.0
  0
LINE
  5
44A
  8
0
 10
110.984
 20
48.4689
 30
0.0
 11
110.91
 21
47.5491
 31
0.0
  0
LINE
  5
44B
  8
0
 10
110.91
 20
47.5491
 30
0.0
 11
110.825
 21
46.6303
 31
0.0
  0
LINE
  5
44C
  8
0
 10
110.825
 20
46.6303
 30
0.0
 11
110.729
 21
45.7127
 31
0.0
  0
LINE
  5
44D
  8
0
 10
110.729
 20
45.7127
 30
0.0
 11
110.622
 21
44.7962
 31
0.0
  0
LINE
  5
44E
  8
0
 10
110.622
 20
44.7962
 30
0.0
 11
110.503
 21
43.8812
 31
0.0
  0
LINE
  5
44F
  8
0
 10
110.503
 20
43.8812
 30
0.0
 11
110.374
 21
42.9677
 31
0.0
  0
LINE
  5
450
  8
0
 10
110.374
 20
42.9677
 30
0.0
 11
110.233
 21
42.0558
 31
0.0
  0
LINE
  5
451
  8
0
 10
110.233
 20
42.0558
 30
0.0
 11
110.081
 21
41.1458
 31
0.0
  0
LINE
  5
452
  8
0
 10
110.081
 20
41.1458
 30
0.0
 11
109.917
 21
40.2377
 31
0.0
  0
LINE
  5
453
  8
0
 10
109.917
 20
40.2377
 30
0.0
 11
109.743
 21
39.3316
 31
0.0
  0
LINE
  5
454
  8
0
 10
109.743
 20
39.3316
 30
0.0
 11
109.557
 21
38.4278
 31
0.0
  0
LINE
  5
455
  8
0
 10
109.557
 20
38.4278
 30
0.0
 11
109.361
 21
37.5263
 31
0.0
  0
LINE
  5
456
  8
0
 10
109.361
 20
37.5263
 30
0.0
 11
109.153
 21
36.6273
 31
0.0
  0
LINE
  5
457
  8
0
 10
109.153
 20
36.6273
 30
0.0
 11
108.934
 21
35.7309
 31
0.0
  0
LINE
  5
458
  8
0
 10
108.934
 20
35.7309
 30
0.0
 11
108.705
 21
34.8373
 31
0.0
  0
LINE
  5
459
  8
0
 10
108.705
 20
34.8373
 30
0.0
 11
108.464
 21
33.9465
 31
0.0
  0
LINE
  5
45A
  8
0
 10
108.464
 20
33.9465
 30
0.0
 11
108.212
 21
33.0588
 31
0.0
  0
LINE
  5
45B
  8
0
 10
108.212
 20
33.0588
 30
0.0
 11
107.95
 21
32.1742
 31
0.0
  0
LINE
  5
45C
  8
0
 10
107.95
 20
32.1742
 30
0.0
 11
107.677
 21
31.2929
 31
0.0
  0
LINE
  5
45D
  8
0
 10
107.677
 20
31.2929
 30
0.0
 11
107.393
 21
30.4151
 31
0.0
  0
LINE
  5
45E
  8
0
 10
107.393
 20
30.4151
 30
0.0
 11
107.098
 21
29.5407
 31
0.0
  0
LINE
  5
45F
  8
0
 10
107.098
 20
29.5407
 30
0.0
 11
106.792
 21
28.6701
 31
0.0
  0
LINE
  5
460
  8
0
 10
106.792
 20
28.6701
 30
0.0
 11
106.476
 21
27.8033
 31
0.0
  0
LINE
  5
461
  8
0
 10
106.476
 20
27.8033
 30
0.0
 11
106.149
 21
26.9404
 31
0.0
  0
LINE
  5
462
  8
0
 10
106.149
 20
26.9404
 30
0.0
 11
105.812
 21
26.0816
 31
0.0
  0
LINE
  5
463
  8
0
 10
105.812
 20
26.0816
 30
0.0
 11
105.464
 21
25.227
 31
0.0
  0
LINE
  5
464
  8
0
 10
105.464
 20
25.227
 30
0.0
 11
105.106
 21
24.3767
 31
0.0
  0
LINE
  5
465
  8
0
 10
105.106
 20
24.3767
 30
0.0
 11
104.737
 21
23.5309
 31
0.0
  0
LINE
  5
466
  8
0
 10
104.737
 20
23.5309
 30
0.0
 11
104.358
 21
22.6897
 31
0.0
  0
LINE
  5
467
  8
0
 10
104.358
 20
22.6897
 30
0.0
 11
103.969
 21
21.8532
 31
0.0
  0
LINE
  5
468
  8
0
 10
103.969
 20
21.8532
 30
0.0
 11
103.569
 21
21.0215
 31
0.0
  0
LINE
  5
469
  8
0
 10
103.569
 20
21.0215
 30
0.0
 11
103.159
 21
20.1948
 31
0.0
  0
LINE
  5
46A
  8
0
 10
103.159
 20
20.1948
 30
0.0
 11
102.739
 21
19.3732
 31
0.0
  0
LINE
  5
46B
  8
0
 10
102.739
 20
19.3732
 30
0.0
 11
102.309
 21
18.5569
 31
0.0
  0
LINE
  5
46C
  8
0
 10
102.309
 20
18.5569
 30
0.0
 11
101.87
 21
17.7458
 31
0.0
  0
LINE
  5
46D
  8
0
 10
101.87
 20
17.7458
 30
0.0
 11
101.42
 21
16.9402
 31
0.0
  0
LINE
  5
46E
  8
0
 10
101.42
 20
16.9402
 30
0.0
 11
100.96
 21
16.1402
 31
0.0
  0
LINE
  5
46F
  8
0
 10
100.96
 20
16.1402
 30
0.0
 11
100.49
 21
15.3459
 31
0.0
  0
LINE
  5
470
  8
0
 10
100.49
 20
15.3459
 30
0.0
 11
100.011
 21
14.5574
 31
0.0
  0
LINE
  5
471
  8
0
 10
100.011
 20
14.5574
 30
0.0
 11
99.5224
 21
13.7749
 31
0.0
  0
LINE
  5
472
  8
0
 10
99.5224
 20
13.7749
 30
0.0
 11
99.024
 21
12.9984
 31
0.0
  0
LINE
  5
473
  8
0
 10
99.024
 20
12.9984
 30
0.0
 11
98.5161
 21
12.2281
 31
0.0
  0
LINE
  5
474
  8
0
 10
98.5161
 20
12.2281
 30
0.0
 11
97.9988
 21
11.464
 31
0.0
  0
LINE
  5
475
  8
0
 10
97.9988
 20
11.464
 30
0.0
 11
97.4722
 21
10.7064
 31
0.0
  0
LINE
  5
476
  8
0
 10
97.4722
 20
10.7064
 30
0.0
 11
96.9362
 21
9.95532
 31
0.0
  0
LINE
  5
477
  8
0
 10
96.9362
 20
9.95532
 30
0.0
 11
96.3912
 21
9.21085
 31
0.0
  0
LINE
  5
478
  8
0
 10
96.3912
 20
9.21085
 30
0.0
 11
95.837
 21
8.47313
 31
0.0
  0
LINE
  5
479
  8
0
 10
95.837
 20
8.47313
 30
0.0
 11
95.2738
 21
7.74226
 31
0.0
  0
LINE
  5
47A
  8
0
 10
95.2738
 20
7.74226
 30
0.0
 11
94.7017
 21
7.01837
 31
0.0
  0
LINE
  5
47B
  8
0
 10
94.7017
 20
7.01837
 30
0.0
 11
94.1207
 21
6.30154
 31
0.0
  0
LINE
  5
47C
  8
0
 10
94.1207
 20
6.30154
 30
0.0
 11
93.531
 21
5.5919
 31
0.0
  0
LINE
  5
47D
  8
0
 10
93.531
 20
5.5919
 30
0.0
 11
92.9326
 21
4.88956
 31
0.0
  0
LINE
  5
47E
  8
0
 10
92.9326
 20
4.88956
 30
0.0
 11
92.3257
 21
4.19461
 31
0.0
  0
LINE
  5
47F
  8
0
 10
92.3257
 20
4.19461
 30
0.0
 11
91.7103
 21
3.50716
 31
0.0
  0
LINE
  5
480
  8
0
 10
91.7103
 20
3.50716
 30
0.0
 11
91.0864
 21
2.8273
 31
0.0
  0
LINE
  5
481
  8
0
 10
91.0864
 20
2.8273
 30
0.0
 11
90.4543
 21
2.15517
 31
0.0
  0
LINE
  5
482
  8
0
 10
90.4543
 20
2.15517
 30
0.0
 11
89.814
 21
1.49083
 31
0.0
  0
LINE
  5
483
  8
0
 10
89.814
 20
1.49083
 30
0.0
 11
89.1656
 21
0.834396
 31
0.0
  0
LINE
  5
484
  8
0
 10
89.1656
 20
0.834396
 30
0.0
 11
88.5092
 21
0.185989
 31
0.0
  0
LINE
  5
485
  8
0
 10
88.5092
 20
0.185989
 30
0.0
 11
87.8448
 21
-0.454315
 31
0.0
  0
LINE
  5
486
  8
0
 10
87.8448
 20
-0.454315
 30
0.0
 11
87.1727
 21
-1.08644
 31
0.0
  0
LINE
  5
487
  8
0
 10
87.1727
 20
-1.08644
 30
0.0
 11
86.4928
 21
-1.71025
 31
0.0
  0
LINE
  5
488
  8
0
 10
86.4928
 20
-1.71025
 30
0.0
 11
85.8054
 21
-2.32568
 31
0.0
  0
LINE
  5
489
  8
0
 10
85.8054
 20
-2.32568
 30
0.0
 11
85.1104
 21
-2.93263
 31
0.0
  0
LINE
  5
48A
  8
0
 10
85.1104
 20
-2.93263
 30
0.0
 11
84.4081
 21
-3.53101
 31
0.0
  0
LINE
  5
48B
  8
0
 10
84.4081
 20
-3.53101
 30
0.0
 11
83.6984
 21
-4.12071
 31
0.0
  0
LINE
  5
48C
  8
0
 10
83.6984
 20
-4.12071
 30
0.0
 11
82.9816
 21
-4.70168
 31
0.0
  0
LINE
  5
48D
  8
0
 10
82.9816
 20
-4.70168
 30
0.0
 11
82.2577
 21
-5.27379
 31
0.0
  0
LINE
  5
48E
  8
0
 10
82.2577
 20
-5.27379
 30
0.0
 11
81.5269
 21
-5.83698
 31
0.0
  0
LINE
  5
48F
  8
0
 10
81.5269
 20
-5.83698
 30
0.0
 11
80.7891
 21
-6.39116
 31
0.0
  0
LINE
  5
490
  8
0
 10
80.7891
 20
-6.39116
 30
0.0
 11
80.0447
 21
-6.93625
 31
0.0
  0
LINE
  5
491
  8
0
 10
80.0447
 20
-6.93625
 30
0.0
 11
79.2936
 21
-7.47215
 31
0.0
  0
LINE
  5
492
  8
0
 10
79.2936
 20
-7.47215
 30
0.0
 11
78.5359
 21
-7.99879
 31
0.0
  0
LINE
  5
493
  8
0
 10
78.5359
 20
-7.99879
 30
0.0
 11
77.7719
 21
-8.51611
 31
0.0
  0
LINE
  5
494
  8
0
 10
77.7719
 20
-8.51611
 30
0.0
 11
77.0016
 21
-9.02402
 31
0.0
  0
LINE
  5
495
  8
0
 10
77.0016
 20
-9.02402
 30
0.0
 11
76.2251
 21
-9.52242
 31
0.0
  0
LINE
  5
496
  8
0
 10
76.2251
 20
-9.52242
 30
0.0
 11
75.4426
 21
-10.0113
 31
0.0
  0
LINE
  5
497
  8
0
 10
75.4426
 20
-10.0113
 30
0.0
 11
74.6541
 21
-10.4905
 31
0.0
  0
LINE
  5
498
  8
0
 10
74.6541
 20
-10.4905
 30
0.0
 11
73.8598
 21
-10.9599
 31
0.0
  0
LINE
  5
499
  8
0
 10
73.8598
 20
-10.9599
 30
0.0
 11
73.0598
 21
-11.4197
 31
0.0
  0
LINE
  5
49A
  8
0
 10
73.0598
 20
-11.4197
 30
0.0
 11
72.2542
 21
-11.8695
 31
0.0
  0
LINE
  5
49B
  8
0
 10
72.2542
 20
-11.8695
 30
0.0
 11
71.4431
 21
-12.3094
 31
0.0
  0
LINE
  5
49C
  8
0
 10
71.4431
 20
-12.3094
 30
0.0
 11
70.6268
 21
-12.7394
 31
0.0
  0
LINE
  5
49D
  8
0
 10
70.6268
 20
-12.7394
 30
0.0
 11
69.8051
 21
-13.1593
 31
0.0
  0
LINE
  5
49E
  8
0
 10
69.8051
 20
-13.1593
 30
0.0
 11
68.9785
 21
-13.5691
 31
0.0
  0
LINE
  5
49F
  8
0
 10
68.9785
 20
-13.5691
 30
0.0
 11
68.1468
 21
-13.9687
 31
0.0
  0
LINE
  5
4A0
  8
0
 10
68.1468
 20
-13.9687
 30
0.0
 11
67.3103
 21
-14.3581
 31
0.0
  0
LINE
  5
4A1
  8
0
 10
67.3103
 20
-14.3581
 30
0.0
 11
66.4691
 21
-14.7371
 31
0.0
  0
LINE
  5
4A2
  8
0
 10
66.4691
 20
-14.7371
 30
0.0
 11
65.6233
 21
-15.1059
 31
0.0
  0
LINE
  5
4A3
  8
0
 10
65.6233
 20
-15.1059
 30
0.0
 11
64.773
 21
-15.4642
 31
0.0
  0
LINE
  5
4A4
  8
0
 10
64.773
 20
-15.4642
 30
0.0
 11
63.9184
 21
-15.812
 31
0.0
  0
LINE
  5
4A5
  8
0
 10
63.9184
 20
-15.812
 30
0.0
 11
63.0596
 21
-16.1494
 31
0.0
  0
LINE
  5
4A6
  8
0
 10
63.0596
 20
-16.1494
 30
0.0
 11
62.1967
 21
-16.4762
 31
0.0
  0
LINE
  5
4A7
  8
0
 10
62.1967
 20
-16.4762
 30
0.0
 11
61.3299
 21
-16.7923
 31
0.0
  0
LINE
  5
4A8
  8
0
 10
61.3299
 20
-16.7923
 30
0.0
 11
60.4593
 21
-17.0978
 31
0.0
  0
LINE
  5
4A9
  8
0
 10
60.4593
 20
-17.0978
 30
0.0
 11
59.5849
 21
-17.3926
 31
0.0
  0
LINE
  5
4AA
  8
0
 10
59.5849
 20
-17.3926
 30
0.0
 11
58.7071
 21
-17.6767
 31
0.0
  0
LINE
  5
4AB
  8
0
 10
58.7071
 20
-17.6767
 30
0.0
 11
57.8258
 21
-17.95
 31
0.0
  0
LINE
  5
4AC
  8
0
 10
57.8258
 20
-17.95
 30
0.0
 11
56.9412
 21
-18.2124
 31
0.0
  0
LINE
  5
4AD
  8
0
 10
56.9412
 20
-18.2124
 30
0.0
 11
56.0535
 21
-18.4639
 31
0.0
  0
LINE
  5
4AE
  8
0
 10
56.0535
 20
-18.4639
 30
0.0
 11
55.1627
 21
-18.7045
 31
0.0
  0
LINE
  5
4AF
  8
0
 10
55.1627
 20
-18.7045
 30
0.0
 11
54.2691
 21
-18.9342
 31
0.0
  0
LINE
  5
4B0
  8
0
 10
54.2691
 20
-18.9342
 30
0.0
 11
53.3727
 21
-19.1529
 31
0.0
  0
LINE
  5
4B1
  8
0
 10
53.3727
 20
-19.1529
 30
0.0
 11
52.4737
 21
-19.3606
 31
0.0
  0
LINE
  5
4B2
  8
0
 10
52.4737
 20
-19.3606
 30
0.0
 11
51.5722
 21
-19.5572
 31
0.0
  0
LINE
  5
4B3
  8
0
 10
51.5722
 20
-19.5572
 30
0.0
 11
50.6684
 21
-19.7428
 31
0.0
  0
LINE
  5
4B4
  8
0
 10
50.6684
 20
-19.7428
 30
0.0
 11
49.7623
 21
-19.9172
 31
0.0
  0
LINE
  5
4B5
  8
0
 10
49.7623
 20
-19.9172
 30
0.0
 11
48.8542
 21
-20.0806
 31
0.0
  0
LINE
  5
4B6
  8
0
 10
48.8542
 20
-20.0806
 30
0.0
 11
47.9441
 21
-20.2327
 31
0.0
  0
LINE
  5
4B7
  8
0
 10
47.9441
 20
-20.2327
 30
0.0
 11
47.0323
 21
-20.3737
 31
0.0
  0
LINE
  5
4B8
  8
0
 10
47.0323
 20
-20.3737
 30
0.0
 11
46.1188
 21
-20.5035
 31
0.0
  0
LINE
  5
4B9
  8
0
 10
46.1188
 20
-20.5035
 30
0.0
 11
45.2038
 21
-20.6221
 31
0.0
  0
LINE
  5
4BA
  8
0
 10
45.2038
 20
-20.6221
 30
0.0
 11
44.2873
 21
-20.7294
 31
0.0
  0
LINE
  5
4BB
  8
0
 10
44.2873
 20
-20.7294
 30
0.0
 11
43.3697
 21
-20.8254
 31
0.0
  0
LINE
  5
4BC
  8
0
 10
43.3697
 20
-20.8254
 30
0.0
 11
42.4509
 21
-20.9102
 31
0.0
  0
LINE
  5
4BD
  8
0
 10
42.4509
 20
-20.9102
 30
0.0
 11
41.5311
 21
-20.9838
 31
0.0
  0
LINE
  5
4BE
  8
0
 10
41.5311
 20
-20.9838
 30
0.0
 11
40.6105
 21
-21.046
 31
0.0
  0
LINE
  5
4BF
  8
0
 10
40.6105
 20
-21.046
 30
0.0
 11
39.6893
 21
-21.0969
 31
0.0
  0
LINE
  5
4C0
  8
0
 10
39.6893
 20
-21.0969
 30
0.0
 11
38.7674
 21
-21.1366
 31
0.0
  0
LINE
  5
4C1
  8
0
 10
38.7674
 20
-21.1366
 30
0.0
 11
37.8452
 21
-21.1648
 31
0.0
  0
LINE
  5
4C2
  8
0
 10
37.8452
 20
-21.1648
 30
0.0
 11
36.9227
 21
-21.1818
 31
0.0
  0
LINE
  5
4C3
  8
0
 10
36.9227
 20
-21.1818
 30
0.0
 11
36.0
 21
-21.1875
 31
0.0
  0
LINE
  5
4C4
  8
0
 10
36.0
 20
-21.1875
 30
0.0
 11
35.0773
 21
-21.1818
 31
0.0
  0
ENDSEC
  0
EOF
