  0
SECTION
  2
HEADER
  9
$ACADVER
  1
AC1009
  9
$DWGCODEPAGE
  3
ANSI_1252
  9
$INSBASE
 10
0.0
 20
0.0
 30
0.0
  9
$EXTMIN
 10
1e+20
 20
1e+20
 30
1e+20
  9
$EXTMAX
 10
-1e+20
 20
-1e+20
 30
-1e+20
  9
$LIMMIN
 10
0.0
 20
0.0
  9
$LIMMAX
 10
420.0
 20
297.0
  9
$ORTHOMODE
 70
0
  9
$REGENMODE
 70
1
  9
$FILLMODE
 70
1
  9
$DRAGMODE
 70
2
  9
$QTEXTMODE
 70
0
  9
$MIRRTEXT
 70
1
  9
$OSMODE
 70
20583
  9
$LTSCALE
 40
1.0
  9
$ATTMODE
 70
1
  9
$TEXTSIZE
 40
2.5
  9
$TRACEWID
 40
1.0
  9
$TEXTSTYLE
  7
Standard
  9
$CLAYER
  8
0
  9
$CELTYPE
  6
ByLayer
  9
$CECOLOR
 62
256
  9
$DIMSCALE
 40
1.0
  9
$DIMASZ
 40
2.5
  9
$DIMEXO
 40
0.625
  9
$DIMDLI
 40
3.75
  9
$DIMRND
 40
0.0
  9
$DIMDLE
 40
0.0
  9
$DIMEXE
 40
1.25
  9
$DIMTP
 40
0.0
  9
$DIMTM
 40
0.0
  9
$DIMTXT
 40
2.5
  9
$DIMCEN
 40
2.5
  9
$DIMTSZ
 40
0.0
  9
$DIMTOL
 70
0
  9
$DIMLIM
 70
0
  9
$DIMTIH
 70
0
  9
$DIMTOH
 70
0
  9
$DIMSE1
 70
0
  9
$DIMSE2
 70
0
  9
$DIMTAD
 70
1
  9
$DIMZIN
 70
8
  9
$DIMBLK
  1

  9
$DIMASO
 70
1
  9
$DIMSHO
 70
1
  9
$DIMPOST
  1

  9
$DIMAPOST
  1

  9
$DIMALT
 70
0
  9
$DIMALTD
 70
3
  9
$DIMALTF
 40
0.03937007874
  9
$DIMLFAC
 40
1.0
  9
$DIMTOFL
 70
1
  9
$DIMTVP
 40
0.0
  9
$DIMTIX
 70
0
  9
$DIMSOXD
 70
0
  9
$DIMSAH
 70
0
  9
$DIMBLK1
  1

  9
$DIMBLK2
  1

  9
$DIMSTYLE
  2
ISO-25
  9
$DIMCLRD
 70
0
  9
$DIMCLRE
 70
0
  9
$DIMCLRT
 70
0
  9
$DIMTFAC
 40
1.0
  9
$DIMGAP
 40
0.625
  9
$COORDS
 70
1
  9
$ATTDIA
 70
0
  9
$ATTREQ
 70
1
  9
$HANDLING
 70
1
  9
$LUNITS
 70
2
  9
$LUPREC
 70
4
  9
$SKETCHINC
 40
1.0
  9
$FILLETRAD
 40
10.0
  9
$AUNITS
 70
0
  9
$AUPREC
 70
2
  9
$MENU
  1
.
  9
$ELEVATION
 40
0.0
  9
$PELEVATION
 40
0.0
  9
$THICKNESS
 40
0.0
  9
$LIMCHECK
 70
0
  9
$CHAMFERA
 40
0.0
  9
$CHAMFERB
 40
0.0
  9
$SKPOLY
 70
0
  9
$TDCREATE
 40
2460131.822349537
  9
$TDUPDATE
 40
2460131.822349537
  9
$TDINDWG
 40
0.0
  9
$TDUSRTIMER
 40
0.0
  9
$USRTIMER
 70
1
  9
$ANGBASE
 50
0.0
  9
$ANGDIR
 70
0
  9
$PDMODE
 70
0
  9
$PDSIZE
 40
0.0
  9
$PLINEWID
 40
0.0
  9
$SPLFRAME
 70
0
  9
$SPLINETYPE
 70
6
  9
$SPLINESEGS
 70
8
  9
$HANDSEED
  5
683
  9
$SURFTAB1
 70
6
  9
$SURFTAB2
 70
6
  9
$SURFTYPE
 70
6
  9
$SURFU
 70
6
  9
$SURFV
 70
6
  9
$UCSNAME
  2

  9
$UCSORG
 10
0.0
 20
0.0
 30
0.0
  9
$UCSXDIR
 10
1.0
 20
0.0
 30
0.0
  9
$UCSYDIR
 10
0.0
 20
1.0
 30
0.0
  9
$PUCSNAME
  2

  9
$PUCSORG
 10
0.0
 20
0.0
 30
0.0
  9
$PUCSXDIR
 10
1.0
 20
0.0
 30
0.0
  9
$PUCSYDIR
 10
0.0
 20
1.0
 30
0.0
  9
$USERI1
 70
0
  9
$USERI2
 70
0
  9
$USERI3
 70
0
  9
$USERI4
 70
0
  9
$USERI5
 70
0
  9
$USERR1
 40
0.0
  9
$USERR2
 40
0.0
  9
$USERR3
 40
0.0
  9
$USERR4
 40
0.0
  9
$USERR5
 40
0.0
  9
$WORLDVIEW
 70
1
  9
$SHADEDGE
 70
3
  9
$SHADEDIF
 70
70
  9
$TILEMODE
 70
1
  9
$MAXACTVP
 70
64
  9
$PLIMCHECK
 70
0
  9
$PEXTMIN
 10
1e+20
 20
1e+20
 30
1e+20
  9
$PEXTMAX
 10
-1e+20
 20
-1e+20
 30
-1e+20
  9
$PLIMMIN
 10
0.0
 20
0.0
  9
$PLIMMAX
 10
420.0
 20
297.0
  9
$UNITMODE
 70
0
  9
$VISRETAIN
 70
1
  9
$PLINEGEN
 70
0
  9
$PSLTSCALE
 70
1
  0
ENDSEC
  0
SECTION
  2
TABLES
  0
TABLE
  2
VPORT
 70
1
  0
VPORT
  5
677
  2
*Active
 70
0
 10
0.0
 20
0.0
 11
1.0
 21
1.0
 12
0.0
 22
0.0
 13
0.0
 23
0.0
 14
0.5
 24
0.5
 15
0.5
 25
0.5
 16
0.0
 26
0.0
 36
1.0
 17
0.0
 27
0.0
 37
0.0
 40
1000.0
 41
1.34
 42
50.0
 43
0.0
 44
0.0
 50
0.0
 51
0.0
 71
0
 72
1000
 73
1
 74
3
 75
0
 76
0
 77
0
 78
0
  0
ENDTAB
  0
TABLE
  2
LTYPE
 70
3
  0
LTYPE
  5
678
  2
ByBlock
 70
0
  3

 72
65
 73
0
 40
0.0
  0
LTYPE
  5
679
  2
ByLayer
 70
0
  3

 72
65
 73
0
 40
0.0
  0
LTYPE
  5
67A
  2
Continuous
 70
0
  3

 72
65
 73
0
 40
0.0
  0
ENDTAB
  0
TABLE
  2
LAYER
 70
2
  0
LAYER
  5
67B
  2
0
 70
0
 62
7
  6
Continuous
  0
LAYER
  5
67C
  2
Defpoints
 70
0
 62
7
  6
Continuous
  0
ENDTAB
  0
TABLE
  2
STYLE
 70
1
  0
STYLE
  5
67D
  2
Standard
 70
0
 40
0.0
 41
1.0
 50
0.0
 71
0
 42
2.5
  3
txt
  4

  0
ENDTAB
  0
TABLE
  2
VIEW
 70
0
  0
ENDTAB
  0
TABLE
  2
UCS
 70
0
  0
ENDTAB
  0
TABLE
  2
APPID
 70
3
  0
APPID
  5
67E
  2
ACAD
 70
0
  0
APPID
  5
681
  2
HATCHBACKGROUNDCOLOR
 70
0
  0
APPID
  5
682
  2
EZDXF
 70
0
  0
ENDTAB
  0
TABLE
  2
DIMSTYLE
 70
1
  0
DIMSTYLE
105
67F
  2
Standard
 70
0
  3

  4

  5

  6

  7

 40
1.0
 41
2.5
 42
0.625
 43
3.75
 44
1.25
 45
0.0
 46
0.0
 47
0.0
 48
0.0
140
2.5
141
2.5
142
0.0
143
0.03937007874
144
1.0
145
0.0
146
1.0
147
0.625
 71
0
 72
0
 73
0
 74
0
 75
0
 76
0
 77
1
 78
8
170
0
171
3
172
1
173
0
174
0
175
0
176
0
177
0
178
0
  0
ENDTAB
  0
ENDSEC
  0
SECTION
  2
BLOCKS
  0
BLOCK
  5
658
  8
0
  2
$Model_Space
 70
0
 10
0.0
 20
0.0
 30
0.0
  3
$Model_Space
  1

1001
EZDXF
1000
WRITTEN_BY_EZDXF
1000
1.0.3 @ 2023-07-05T19:44:11.578765+00:00
  0
ENDBLK
  5
659
  8
0
  0
BLOCK
  5
65A
  8
0
  2
$Paper_Space
 70
0
 10
0.0
 20
0.0
 30
0.0
  3
$Paper_Space
  1

  0
ENDBLK
  5
65B
  8
0
  0
ENDSEC
  0
SECTION
  2
ENTITIES
  0
LINE
  5
100
  8
0
 10
5.5
 20
8.01501
 30
0.0
 11
6.5
 21
8.01501
 31
0.0
  0
LINE
  5
101
  8
0
 10
6.5
 20
8.01501
 30
0.0
 11
6.5
 21
7.0
 31
0.0
  0
LINE
  5
102
  8
0
 10
6.5
 20
7.0
 30
0.0
 11
9.0
 21
7.0
 31
0.0
  0
LINE
  5
103
  8
0
 10
9.0
 20
7.0
 30
0.0
 11
9.19603
 21
7.00964
 31
0.0
  0
LINE
  5
104
  8
0
 10
9.19603
 20
7.00964
 30
0.0
 11
9.39017
 21
7.03844
 31
0.0
  0
LINE
  5
105
  8
0
 10
9.39017
 20
7.03844
 30
0.0
 11
9.58057
 21
7.08612
 31
0.0
  0
LINE
  5
106
  8
0
 10
9.58057
 20
7.08612
 30
0.0
 11
9.76537
 21
7.15225
 31
0.0
  0
LINE
  5
107
  8
0
 10
9.76537
 20
7.15225
 30
0.0
 11
9.94278
 21
7.23616
 31
0.0
  0
LINE
  5
108
  8
0
 10
9.94278
 20
7.23616
 30
0.0
 11
10.1111
 21
7.33707
 31
0.0
  0
LINE
  5
109
  8
0
 10
10.1111
 20
7.33707
 30
0.0
 11
10.2688
 21
7.45398
 31
0.0
  0
LINE
  5
10A
  8
0
 10
10.2688
 20
7.45398
 30
0.0
 11
10.4142
 21
7.5858
 31
0.0
  0
LINE
  5
10B
  8
0
 10
10.4142
 20
7.5858
 30
0.0
 11
10.546
 21
7.73122
 31
0.0
  0
LINE
  5
10C
  8
0
 10
10.546
 20
7.73122
 30
0.0
 11
10.6629
 21
7.88887
 31
0.0
  0
LINE
  5
10D
  8
0
 10
10.6629
 20
7.88887
 30
0.0
 11
10.7638
 21
8.05722
 31
0.0
  0
LINE
  5
10E
  8
0
 10
10.7638
 20
8.05722
 30
0.0
 11
10.8477
 21
8.23463
 31
0.0
  0
LINE
  5
10F
  8
0
 10
10.8477
 20
8.23463
 30
0.0
 11
10.9139
 21
8.41943
 31
0.0
  0
LINE
  5
110
  8
0
 10
10.9139
 20
8.41943
 30
0.0
 11
10.9616
 21
8.60983
 31
0.0
  0
LINE
  5
111
  8
0
 10
10.9616
 20
8.60983
 30
0.0
 11
10.9904
 21
8.80397
 31
0.0
  0
LINE
  5
112
  8
0
 10
10.9904
 20
8.80397
 30
0.0
 11
11.0
 21
9.0
 31
0.0
  0
LINE
  5
113
  8
0
 10
11.0
 20
9.0
 30
0.0
 11
10.9904
 21
9.19603
 31
0.0
  0
LINE
  5
114
  8
0
 10
10.9904
 20
9.19603
 30
0.0
 11
10.9616
 21
9.39017
 31
0.0
  0
LINE
  5
115
  8
0
 10
10.9616
 20
9.39017
 30
0.0
 11
10.9139
 21
9.58057
 31
0.0
  0
LINE
  5
116
  8
0
 10
10.9139
 20
9.58057
 30
0.0
 11
10.8477
 21
9.76537
 31
0.0
  0
LINE
  5
117
  8
0
 10
10.8477
 20
9.76537
 30
0.0
 11
10.7638
 21
9.94278
 31
0.0
  0
LINE
  5
118
  8
0
 10
10.7638
 20
9.94278
 30
0.0
 11
10.6629
 21
10.1111
 31
0.0
  0
LINE
  5
119
  8
0
 10
10.6629
 20
10.1111
 30
0.0
 11
10.546
 21
10.2688
 31
0.0
  0
LINE
  5
11A
  8
0
 10
10.546
 20
10.2688
 30
0.0
 11
10.4142
 21
10.4142
 31
0.0
  0
LINE
  5
11B
  8
0
 10
10.4142
 20
10.4142
 30
0.0
 11
10.2688
 21
10.546
 31
0.0
  0
LINE
  5
11C
  8
0
 10
10.2688
 20
10.546
 30
0.0
 11
10.1111
 21
10.6629
 31
0.0
  0
LINE
  5
11D
  8
0
 10
10.1111
 20
10.6629
 30
0.0
 11
9.94278
 21
10.7638
 31
0.0
  0
LINE
  5
11E
  8
0
 10
9.94278
 20
10.7638
 30
0.0
 11
9.76537
 21
10.8477
 31
0.0
  0
LINE
  5
11F
  8
0
 10
9.76537
 20
10.8477
 30
0.0
 11
9.58057
 21
10.9139
 31
0.0
  0
LINE
  5
120
  8
0
 10
9.58057
 20
10.9139
 30
0.0
 11
9.39017
 21
10.9616
 31
0.0
  0
LINE
  5
121
  8
0
 10
9.39017
 20
10.9616
 30
0.0
 11
9.19603
 21
10.9904
 31
0.0
  0
LINE
  5
122
  8
0
 10
9.19603
 20
10.9904
 30
0.0
 11
9.0
 21
11.0
 31
0.0
  0
LINE
  5
123
  8
0
 10
9.0
 20
11.0
 30
0.0
 11
6.5
 21
11.0
 31
0.0
  0
LINE
  5
124
  8
0
 10
6.5
 20
11.0
 30
0.0
 11
6.5
 21
9.98499
 31
0.0
  0
LINE
  5
125
  8
0
 10
6.5
 20
9.98499
 30
0.0
 11
5.5
 21
9.98499
 31
0.0
  0
LINE
  5
126
  8
0
 10
5.5
 20
9.98499
 30
0.0
 11
5.5
 21
11.0
 31
0.0
  0
LINE
  5
127
  8
0
 10
5.5
 20
11.0
 30
0.0
 11
3.0
 21
11.0
 31
0.0
  0
LINE
  5
128
  8
0
 10
3.0
 20
11.0
 30
0.0
 11
2.80397
 21
10.9904
 31
0.0
  0
LINE
  5
129
  8
0
 10
2.80397
 20
10.9904
 30
0.0
 11
2.60983
 21
10.9616
 31
0.0
  0
LINE
  5
12A
  8
0
 10
2.60983
 20
10.9616
 30
0.0
 11
2.41943
 21
10.9139
 31
0.0
  0
LINE
  5
12B
  8
0
 10
2.41943
 20
10.9139
 30
0.0
 11
2.23463
 21
10.8477
 31
0.0
  0
LINE
  5
12C
  8
0
 10
2.23463
 20
10.8477
 30
0.0
 11
2.05722
 21
10.7638
 31
0.0
  0
LINE
  5
12D
  8
0
 10
2.05722
 20
10.7638
 30
0.0
 11
1.88887
 21
10.6629
 31
0.0
  0
LINE
  5
12E
  8
0
 10
1.88887
 20
10.6629
 30
0.0
 11
1.73122
 21
10.546
 31
0.0
  0
LINE
  5
12F
  8
0
 10
1.73122
 20
10.546
 30
0.0
 11
1.5858
 21
10.4142
 31
0.0
  0
LINE
  5
130
  8
0
 10
1.5858
 20
10.4142
 30
0.0
 11
1.45398
 21
10.2688
 31
0.0
  0
LINE
  5
131
  8
0
 10
1.45398
 20
10.2688
 30
0.0
 11
1.33707
 21
10.1111
 31
0.0
  0
LINE
  5
132
  8
0
 10
1.33707
 20
10.1111
 30
0.0
 11
1.23616
 21
9.94278
 31
0.0
  0
LINE
  5
133
  8
0
 10
1.23616
 20
9.94278
 30
0.0
 11
1.15225
 21
9.76537
 31
0.0
  0
LINE
  5
134
  8
0
 10
1.15225
 20
9.76537
 30
0.0
 11
1.08612
 21
9.58057
 31
0.0
  0
LINE
  5
135
  8
0
 10
1.08612
 20
9.58057
 30
0.0
 11
1.03844
 21
9.39017
 31
0.0
  0
LINE
  5
136
  8
0
 10
1.03844
 20
9.39017
 30
0.0
 11
1.00964
 21
9.19603
 31
0.0
  0
LINE
  5
137
  8
0
 10
1.00964
 20
9.19603
 30
0.0
 11
1.0
 21
9.0
 31
0.0
  0
LINE
  5
138
  8
0
 10
1.0
 20
9.0
 30
0.0
 11
1.00964
 21
8.80397
 31
0.0
  0
LINE
  5
139
  8
0
 10
1.00964
 20
8.80397
 30
0.0
 11
1.03844
 21
8.60983
 31
0.0
  0
LINE
  5
13A
  8
0
 10
1.03844
 20
8.60983
 30
0.0
 11
1.08612
 21
8.41943
 31
0.0
  0
LINE
  5
13B
  8
0
 10
1.08612
 20
8.41943
 30
0.0
 11
1.15225
 21
8.23463
 31
0.0
  0
LINE
  5
13C
  8
0
 10
1.15225
 20
8.23463
 30
0.0
 11
1.23616
 21
8.05722
 31
0.0
  0
LINE
  5
13D
  8
0
 10
1.23616
 20
8.05722
 30
0.0
 11
1.33707
 21
7.88887
 31
0.0
  0
LINE
  5
13E
  8
0
 10
1.33707
 20
7.88887
 30
0.0
 11
1.45398
 21
7.73122
 31
0.0
  0
LINE
  5
13F
  8
0
 10
1.45398
 20
7.73122
 30
0.0
 11
1.5858
 21
7.5858
 31
0.0
  0
LINE
  5
140
  8
0
 10
1.5858
 20
7.5858
 30
0.0
 11
1.73122
 21
7.45398
 31
0.0
  0
LINE
  5
141
  8
0
 10
1.73122
 20
7.45398
 30
0.0
 11
1.88887
 21
7.33707
 31
0.0
  0
LINE
  5
142
  8
0
 10
1.88887
 20
7.33707
 30
0.0
 11
2.05722
 21
7.23616
 31
0.0
  0
LINE
  5
143
  8
0
 10
2.05722
 20
7.23616
 30
0.0
 11
2.23463
 21
7.15225
 31
0.0
  0
LINE
  5
144
  8
0
 10
2.23463
 20
7.15225
 30
0.0
 11
2.41943
 21
7.08612
 31
0.0
  0
LINE
  5
145
  8
0
 10
2.41943
 20
7.08612
 30
0.0
 11
2.60983
 21
7.03844
 31
0.0
  0
LINE
  5
146
  8
0
 10
2.60983
 20
7.03844
 30
0.0
 11
2.80397
 21
7.00964
 31
0.0
  0
LINE
  5
147
  8
0
 10
2.80397
 20
7.00964
 30
0.0
 11
3.0
 21
7.0
 31
0.0
  0
LINE
  5
148
  8
0
 10
3.0
 20
7.0
 30
0.0
 11
5.5
 21
7.0
 31
0.0
  0
LINE
  5
149
  8
0
 10
5.5
 20
7.0
 30
0.0
 11
5.5
 21
8.01501
 31
0.0
  0
LINE
  5
14A
  8
0
 10
7.5
 20
8.0
 30
0.0
 11
7.5
 21
8.01501
 31
0.0
  0
LINE
  5
14B
  8
0
 10
7.5
 20
8.01501
 30
0.0
 11
8.0
 21
8.01501
 31
0.0
  0
LINE
  5
14C
  8
0
 10
8.0
 20
8.01501
 30
0.0
 11
8.0
 21
8.02501
 31
0.0
  0
LINE
  5
14D
  8
0
 10
8.0
 20
8.02501
 30
0.0
 11
7.5
 21
8.02501
 31
0.0
  0
LINE
  5
14E
  8
0
 10
7.5
 20
8.02501
 30
0.0
 11
7.5
 21
8.05501
 31
0.0
  0
LINE
  5
14F
  8
0
 10
7.5
 20
8.05501
 30
0.0
 11
8.0
 21
8.05501
 31
0.0
  0
LINE
  5
150
  8
0
 10
8.0
 20
8.05501
 30
0.0
 11
8.0
 21
8.065
 31
0.0
  0
LINE
  5
151
  8
0
 10
8.0
 20
8.065
 30
0.0
 11
7.5
 21
8.065
 31
0.0
  0
LINE
  5
152
  8
0
 10
7.5
 20
8.065
 30
0.0
 11
7.5
 21
8.095
 31
0.0
  0
LINE
  5
153
  8
0
 10
7.5
 20
8.095
 30
0.0
 11
8.0
 21
8.095
 31
0.0
  0
LINE
  5
154
  8
0
 10
8.0
 20
8.095
 30
0.0
 11
8.0
 21
8.10501
 31
0.0
  0
LINE
  5
155
  8
0
 10
8.0
 20
8.10501
 30
0.0
 11
7.5
 21
8.10501
 31
0.0
  0
LINE
  5
156
  8
0
 10
7.5
 20
8.10501
 30
0.0
 11
7.5
 21
8.13501
 31
0.0
  0
LINE
  5
157
  8
0
 10
7.5
 20
8.13501
 30
0.0
 11
8.0
 21
8.13501
 31
0.0
  0
LINE
  5
158
  8
0
 10
8.0
 20
8.13501
 30
0.0
 11
8.0
 21
8.145
 31
0.0
  0
LINE
  5
159
  8
0
 10
8.0
 20
8.145
 30
0.0
 11
7.5
 21
8.145
 31
0.0
  0
LINE
  5
15A
  8
0
 10
7.5
 20
8.145
 30
0.0
 11
7.5
 21
8.175
 31
0.0
  0
LINE
  5
15B
  8
0
 10
7.5
 20
8.175
 30
0.0
 11
8.0
 21
8.175
 31
0.0
  0
LINE
  5
15C
  8
0
 10
8.0
 20
8.175
 30
0.0
 11
8.0
 21
8.18501
 31
0.0
  0
LINE
  5
15D
  8
0
 10
8.0
 20
8.18501
 30
0.0
 11
7.5
 21
8.18501
 31
0.0
  0
LINE
  5
15E
  8
0
 10
7.5
 20
8.18501
 30
0.0
 11
7.5
 21
8.21501
 31
0.0
  0
LINE
  5
15F
  8
0
 10
7.5
 20
8.21501
 30
0.0
 11
8.0
 21
8.21501
 31
0.0
  0
LINE
  5
160
  8
0
 10
8.0
 20
8.21501
 30
0.0
 11
8.0
 21
8.22501
 31
0.0
  0
LINE
  5
161
  8
0
 10
8.0
 20
8.22501
 30
0.0
 11
7.5
 21
8.22501
 31
0.0
  0
LINE
  5
162
  8
0
 10
7.5
 20
8.22501
 30
0.0
 11
7.5
 21
8.255
 31
0.0
  0
LINE
  5
163
  8
0
 10
7.5
 20
8.255
 30
0.0
 11
8.0
 21
8.255
 31
0.0
  0
LINE
  5
164
  8
0
 10
8.0
 20
8.255
 30
0.0
 11
8.0
 21
8.26501
 31
0.0
  0
LINE
  5
165
  8
0
 10
8.0
 20
8.26501
 30
0.0
 11
7.5
 21
8.26501
 31
0.0
  0
LINE
  5
166
  8
0
 10
7.5
 20
8.26501
 30
0.0
 11
7.5
 21
8.29501
 31
0.0
  0
LINE
  5
167
  8
0
 10
7.5
 20
8.29501
 30
0.0
 11
8.0
 21
8.29501
 31
0.0
  0
LINE
  5
168
  8
0
 10
8.0
 20
8.29501
 30
0.0
 11
8.0
 21
8.30501
 31
0.0
  0
LINE
  5
169
  8
0
 10
8.0
 20
8.30501
 30
0.0
 11
7.5
 21
8.30501
 31
0.0
  0
LINE
  5
16A
  8
0
 10
7.5
 20
8.30501
 30
0.0
 11
7.5
 21
8.33501
 31
0.0
  0
LINE
  5
16B
  8
0
 10
7.5
 20
8.33501
 30
0.0
 11
8.0
 21
8.33501
 31
0.0
  0
LINE
  5
16C
  8
0
 10
8.0
 20
8.33501
 30
0.0
 11
8.0
 21
8.345
 31
0.0
  0
LINE
  5
16D
  8
0
 10
8.0
 20
8.345
 30
0.0
 11
7.5
 21
8.345
 31
0.0
  0
LINE
  5
16E
  8
0
 10
7.5
 20
8.345
 30
0.0
 11
7.5
 21
8.375
 31
0.0
  0
LINE
  5
16F
  8
0
 10
7.5
 20
8.375
 30
0.0
 11
8.0
 21
8.375
 31
0.0
  0
LINE
  5
170
  8
0
 10
8.0
 20
8.375
 30
0.0
 11
8.0
 21
8.38501
 31
0.0
  0
LINE
  5
171
  8
0
 10
8.0
 20
8.38501
 30
0.0
 11
7.5
 21
8.38501
 31
0.0
  0
LINE
  5
172
  8
0
 10
7.5
 20
8.38501
 30
0.0
 11
7.5
 21
8.41501
 31
0.0
  0
LINE
  5
173
  8
0
 10
7.5
 20
8.41501
 30
0.0
 11
8.0
 21
8.41501
 31
0.0
  0
LINE
  5
174
  8
0
 10
8.0
 20
8.41501
 30
0.0
 11
8.0
 21
8.425
 31
0.0
  0
LINE
  5
175
  8
0
 10
8.0
 20
8.425
 30
0.0
 11
7.5
 21
8.425
 31
0.0
  0
LINE
  5
176
  8
0
 10
7.5
 20
8.425
 30
0.0
 11
7.5
 21
8.455
 31
0.0
  0
LINE
  5
177
  8
0
 10
7.5
 20
8.455
 30
0.0
 11
8.0
 21
8.455
 31
0.0
  0
LINE
  5
178
  8
0
 10
8.0
 20
8.455
 30
0.0
 11
8.0
 21
8.46501
 31
0.0
  0
LINE
  5
179
  8
0
 10
8.0
 20
8.46501
 30
0.0
 11
7.5
 21
8.46501
 31
0.0
  0
LINE
  5
17A
  8
0
 10
7.5
 20
8.46501
 30
0.0
 11
7.5
 21
8.49501
 31
0.0
  0
LINE
  5
17B
  8
0
 10
7.5
 20
8.49501
 30
0.0
 11
8.0
 21
8.49501
 31
0.0
  0
LINE
  5
17C
  8
0
 10
8.0
 20
8.49501
 30
0.0
 11
8.0
 21
8.505
 31
0.0
  0
LINE
  5
17D
  8
0
 10
8.0
 20
8.505
 30
0.0
 11
7.5
 21
8.505
 31
0.0
  0
LINE
  5
17E
  8
0
 10
7.5
 20
8.505
 30
0.0
 11
7.5
 21
8.535
 31
0.0
  0
LINE
  5
17F
  8
0
 10
7.5
 20
8.535
 30
0.0
 11
8.0
 21
8.535
 31
0.0
  0
LINE
  5
180
  8
0
 10
8.0
 20
8.535
 30
0.0
 11
8.0
 21
8.54501
 31
0.0
  0
LINE
  5
181
  8
0
 10
8.0
 20
8.54501
 30
0.0
 11
7.5
 21
8.54501
 31
0.0
  0
LINE
  5
182
  8
0
 10
7.5
 20
8.54501
 30
0.0
 11
7.5
 21
8.57501
 31
0.0
  0
LINE
  5
183
  8
0
 10
7.5
 20
8.57501
 30
0.0
 11
8.0
 21
8.57501
 31
0.0
  0
LINE
  5
184
  8
0
 10
8.0
 20
8.57501
 30
0.0
 11
8.0
 21
8.58501
 31
0.0
  0
LINE
  5
185
  8
0
 10
8.0
 20
8.58501
 30
0.0
 11
7.5
 21
8.58501
 31
0.0
  0
LINE
  5
186
  8
0
 10
7.5
 20
8.58501
 30
0.0
 11
7.5
 21
8.61501
 31
0.0
  0
LINE
  5
187
  8
0
 10
7.5
 20
8.61501
 30
0.0
 11
8.0
 21
8.61501
 31
0.0
  0
LINE
  5
188
  8
0
 10
8.0
 20
8.61501
 30
0.0
 11
8.0
 21
8.625
 31
0.0
  0
LINE
  5
189
  8
0
 10
8.0
 20
8.625
 30
0.0
 11
7.5
 21
8.625
 31
0.0
  0
LINE
  5
18A
  8
0
 10
7.5
 20
8.625
 30
0.0
 11
7.5
 21
8.65501
 31
0.0
  0
LINE
  5
18B
  8
0
 10
7.5
 20
8.65501
 30
0.0
 11
8.0
 21
8.65501
 31
0.0
  0
LINE
  5
18C
  8
0
 10
8.0
 20
8.65501
 30
0.0
 11
8.0
 21
8.66501
 31
0.0
  0
LINE
  5
18D
  8
0
 10
8.0
 20
8.66501
 30
0.0
 11
7.5
 21
8.66501
 31
0.0
  0
LINE
  5
18E
  8
0
 10
7.5
 20
8.66501
 30
0.0
 11
7.5
 21
8.69501
 31
0.0
  0
LINE
  5
18F
  8
0
 10
7.5
 20
8.69501
 30
0.0
 11
8.0
 21
8.69501
 31
0.0
  0
LINE
  5
190
  8
0
 10
8.0
 20
8.69501
 30
0.0
 11
8.0
 21
8.705
 31
0.0
  0
LINE
  5
191
  8
0
 10
8.0
 20
8.705
 30
0.0
 11
7.5
 21
8.705
 31
0.0
  0
LINE
  5
192
  8
0
 10
7.5
 20
8.705
 30
0.0
 11
7.5
 21
8.735
 31
0.0
  0
LINE
  5
193
  8
0
 10
7.5
 20
8.735
 30
0.0
 11
8.0
 21
8.735
 31
0.0
  0
LINE
  5
194
  8
0
 10
8.0
 20
8.735
 30
0.0
 11
8.0
 21
8.74501
 31
0.0
  0
LINE
  5
195
  8
0
 10
8.0
 20
8.74501
 30
0.0
 11
7.5
 21
8.74501
 31
0.0
  0
LINE
  5
196
  8
0
 10
7.5
 20
8.74501
 30
0.0
 11
7.5
 21
8.77501
 31
0.0
  0
LINE
  5
197
  8
0
 10
7.5
 20
8.77501
 30
0.0
 11
8.0
 21
8.77501
 31
0.0
  0
LINE
  5
198
  8
0
 10
8.0
 20
8.77501
 30
0.0
 11
8.0
 21
8.785
 31
0.0
  0
LINE
  5
199
  8
0
 10
8.0
 20
8.785
 30
0.0
 11
7.5
 21
8.785
 31
0.0
  0
LINE
  5
19A
  8
0
 10
7.5
 20
8.785
 30
0.0
 11
7.5
 21
8.815
 31
0.0
  0
LINE
  5
19B
  8
0
 10
7.5
 20
8.815
 30
0.0
 11
8.0
 21
8.815
 31
0.0
  0
LINE
  5
19C
  8
0
 10
8.0
 20
8.815
 30
0.0
 11
8.0
 21
8.82501
 31
0.0
  0
LINE
  5
19D
  8
0
 10
8.0
 20
8.82501
 30
0.0
 11
7.5
 21
8.82501
 31
0.0
  0
LINE
  5
19E
  8
0
 10
7.5
 20
8.82501
 30
0.0
 11
7.5
 21
8.85501
 31
0.0
  0
LINE
  5
19F
  8
0
 10
7.5
 20
8.85501
 30
0.0
 11
8.0
 21
8.85501
 31
0.0
  0
LINE
  5
1A0
  8
0
 10
8.0
 20
8.85501
 30
0.0
 11
8.0
 21
8.86501
 31
0.0
  0
LINE
  5
1A1
  8
0
 10
8.0
 20
8.86501
 30
0.0
 11
7.5
 21
8.86501
 31
0.0
  0
LINE
  5
1A2
  8
0
 10
7.5
 20
8.86501
 30
0.0
 11
7.5
 21
8.895
 31
0.0
  0
LINE
  5
1A3
  8
0
 10
7.5
 20
8.895
 30
0.0
 11
8.0
 21
8.895
 31
0.0
  0
LINE
  5
1A4
  8
0
 10
8.0
 20
8.895
 30
0.0
 11
8.0
 21
8.90501
 31
0.0
  0
LINE
  5
1A5
  8
0
 10
8.0
 20
8.90501
 30
0.0
 11
7.5
 21
8.90501
 31
0.0
  0
LINE
  5
1A6
  8
0
 10
7.5
 20
8.90501
 30
0.0
 11
7.5
 21
8.93501
 31
0.0
  0
LINE
  5
1A7
  8
0
 10
7.5
 20
8.93501
 30
0.0
 11
8.0
 21
8.93501
 31
0.0
  0
LINE
  5
1A8
  8
0
 10
8.0
 20
8.93501
 30
0.0
 11
8.0
 21
8.94501
 31
0.0
  0
LINE
  5
1A9
  8
0
 10
8.0
 20
8.94501
 30
0.0
 11
7.5
 21
8.94501
 31
0.0
  0
LINE
  5
1AA
  8
0
 10
7.5
 20
8.94501
 30
0.0
 11
7.5
 21
8.97501
 31
0.0
  0
LINE
  5
1AB
  8
0
 10
7.5
 20
8.97501
 30
0.0
 11
8.0
 21
8.97501
 31
0.0
  0
LINE
  5
1AC
  8
0
 10
8.0
 20
8.97501
 30
0.0
 11
8.0
 21
8.985
 31
0.0
  0
LINE
  5
1AD
  8
0
 10
8.0
 20
8.985
 30
0.0
 11
7.5
 21
8.985
 31
0.0
  0
LINE
  5
1AE
  8
0
 10
7.5
 20
8.985
 30
0.0
 11
7.5
 21
9.015
 31
0.0
  0
LINE
  5
1AF
  8
0
 10
7.5
 20
9.015
 30
0.0
 11
8.0
 21
9.015
 31
0.0
  0
LINE
  5
1B0
  8
0
 10
8.0
 20
9.015
 30
0.0
 11
8.0
 21
9.02499
 31
0.0
  0
LINE
  5
1B1
  8
0
 10
8.0
 20
9.02499
 30
0.0
 11
7.5
 21
9.02499
 31
0.0
  0
LINE
  5
1B2
  8
0
 10
7.5
 20
9.02499
 30
0.0
 11
7.5
 21
9.05499
 31
0.0
  0
LINE
  5
1B3
  8
0
 10
7.5
 20
9.05499
 30
0.0
 11
8.0
 21
9.05499
 31
0.0
  0
LINE
  5
1B4
  8
0
 10
8.0
 20
9.05499
 30
0.0
 11
8.0
 21
9.06499
 31
0.0
  0
LINE
  5
1B5
  8
0
 10
8.0
 20
9.06499
 30
0.0
 11
7.5
 21
9.06499
 31
0.0
  0
LINE
  5
1B6
  8
0
 10
7.5
 20
9.06499
 30
0.0
 11
7.5
 21
9.09499
 31
0.0
  0
LINE
  5
1B7
  8
0
 10
7.5
 20
9.09499
 30
0.0
 11
8.0
 21
9.09499
 31
0.0
  0
LINE
  5
1B8
  8
0
 10
8.0
 20
9.09499
 30
0.0
 11
8.0
 21
9.105
 31
0.0
  0
LINE
  5
1B9
  8
0
 10
8.0
 20
9.105
 30
0.0
 11
7.5
 21
9.105
 31
0.0
  0
LINE
  5
1BA
  8
0
 10
7.5
 20
9.105
 30
0.0
 11
7.5
 21
9.13499
 31
0.0
  0
LINE
  5
1BB
  8
0
 10
7.5
 20
9.13499
 30
0.0
 11
8.0
 21
9.13499
 31
0.0
  0
LINE
  5
1BC
  8
0
 10
8.0
 20
9.13499
 30
0.0
 11
8.0
 21
9.14499
 31
0.0
  0
LINE
  5
1BD
  8
0
 10
8.0
 20
9.14499
 30
0.0
 11
7.5
 21
9.14499
 31
0.0
  0
LINE
  5
1BE
  8
0
 10
7.5
 20
9.14499
 30
0.0
 11
7.5
 21
9.17499
 31
0.0
  0
LINE
  5
1BF
  8
0
 10
7.5
 20
9.17499
 30
0.0
 11
8.0
 21
9.17499
 31
0.0
  0
LINE
  5
1C0
  8
0
 10
8.0
 20
9.17499
 30
0.0
 11
8.0
 21
9.185
 31
0.0
  0
LINE
  5
1C1
  8
0
 10
8.0
 20
9.185
 30
0.0
 11
7.5
 21
9.185
 31
0.0
  0
LINE
  5
1C2
  8
0
 10
7.5
 20
9.185
 30
0.0
 11
7.5
 21
9.215
 31
0.0
  0
LINE
  5
1C3
  8
0
 10
7.5
 20
9.215
 30
0.0
 11
8.0
 21
9.215
 31
0.0
  0
LINE
  5
1C4
  8
0
 10
8.0
 20
9.215
 30
0.0
 11
8.0
 21
9.22499
 31
0.0
  0
LINE
  5
1C5
  8
0
 10
8.0
 20
9.22499
 30
0.0
 11
7.5
 21
9.22499
 31
0.0
  0
LINE
  5
1C6
  8
0
 10
7.5
 20
9.22499
 30
0.0
 11
7.5
 21
9.25499
 31
0.0
  0
LINE
  5
1C7
  8
0
 10
7.5
 20
9.25499
 30
0.0
 11
8.0
 21
9.25499
 31
0.0
  0
LINE
  5
1C8
  8
0
 10
8.0
 20
9.25499
 30
0.0
 11
8.0
 21
9.265
 31
0.0
  0
LINE
  5
1C9
  8
0
 10
8.0
 20
9.265
 30
0.0
 11
7.5
 21
9.265
 31
0.0
  0
LINE
  5
1CA
  8
0
 10
7.5
 20
9.265
 30
0.0
 11
7.5
 21
9.295
 31
0.0
  0
LINE
  5
1CB
  8
0
 10
7.5
 20
9.295
 30
0.0
 11
8.0
 21
9.295
 31
0.0
  0
LINE
  5
1CC
  8
0
 10
8.0
 20
9.295
 30
0.0
 11
8.0
 21
9.30499
 31
0.0
  0
LINE
  5
1CD
  8
0
 10
8.0
 20
9.30499
 30
0.0
 11
7.5
 21
9.30499
 31
0.0
  0
LINE
  5
1CE
  8
0
 10
7.5
 20
9.30499
 30
0.0
 11
7.5
 21
9.33499
 31
0.0
  0
LINE
  5
1CF
  8
0
 10
7.5
 20
9.33499
 30
0.0
 11
8.0
 21
9.33499
 31
0.0
  0
LINE
  5
1D0
  8
0
 10
8.0
 20
9.33499
 30
0.0
 11
8.0
 21
9.34499
 31
0.0
  0
LINE
  5
1D1
  8
0
 10
8.0
 20
9.34499
 30
0.0
 11
7.5
 21
9.34499
 31
0.0
  0
LINE
  5
1D2
  8
0
 10
7.5
 20
9.34499
 30
0.0
 11
7.5
 21
9.375
 31
0.0
  0
LINE
  5
1D3
  8
0
 10
7.5
 20
9.375
 30
0.0
 11
8.0
 21
9.375
 31
0.0
  0
LINE
  5
1D4
  8
0
 10
8.0
 20
9.375
 30
0.0
 11
8.0
 21
9.38499
 31
0.0
  0
LINE
  5
1D5
  8
0
 10
8.0
 20
9.38499
 30
0.0
 11
7.5
 21
9.38499
 31
0.0
  0
LINE
  5
1D6
  8
0
 10
7.5
 20
9.38499
 30
0.0
 11
7.5
 21
9.41499
 31
0.0
  0
LINE
  5
1D7
  8
0
 10
7.5
 20
9.41499
 30
0.0
 11
8.0
 21
9.41499
 31
0.0
  0
LINE
  5
1D8
  8
0
 10
8.0
 20
9.41499
 30
0.0
 11
8.0
 21
9.42499
 31
0.0
  0
LINE
  5
1D9
  8
0
 10
8.0
 20
9.42499
 30
0.0
 11
7.5
 21
9.42499
 31
0.0
  0
LINE
  5
1DA
  8
0
 10
7.5
 20
9.42499
 30
0.0
 11
7.5
 21
9.45499
 31
0.0
  0
LINE
  5
1DB
  8
0
 10
7.5
 20
9.45499
 30
0.0
 11
8.0
 21
9.45499
 31
0.0
  0
LINE
  5
1DC
  8
0
 10
8.0
 20
9.45499
 30
0.0
 11
8.0
 21
9.465
 31
0.0
  0
LINE
  5
1DD
  8
0
 10
8.0
 20
9.465
 30
0.0
 11
7.5
 21
9.465
 31
0.0
  0
LINE
  5
1DE
  8
0
 10
7.5
 20
9.465
 30
0.0
 11
7.5
 21
9.495
 31
0.0
  0
LINE
  5
1DF
  8
0
 10
7.5
 20
9.495
 30
0.0
 11
8.0
 21
9.495
 31
0.0
  0
LINE
  5
1E0
  8
0
 10
8.0
 20
9.495
 30
0.0
 11
8.0
 21
9.50499
 31
0.0
  0
LINE
  5
1E1
  8
0
 10
8.0
 20
9.50499
 30
0.0
 11
7.5
 21
9.50499
 31
0.0
  0
LINE
  5
1E2
  8
0
 10
7.5
 20
9.50499
 30
0.0
 11
7.5
 21
9.53499
 31
0.0
  0
LINE
  5
1E3
  8
0
 10
7.5
 20
9.53499
 30
0.0
 11
8.0
 21
9.53499
 31
0.0
  0
LINE
  5
1E4
  8
0
 10
8.0
 20
9.53499
 30
0.0
 11
8.0
 21
9.545
 31
0.0
  0
LINE
  5
1E5
  8
0
 10
8.0
 20
9.545
 30
0.0
 11
7.5
 21
9.545
 31
0.0
  0
LINE
  5
1E6
  8
0
 10
7.5
 20
9.545
 30
0.0
 11
7.5
 21
9.575
 31
0.0
  0
LINE
  5
1E7
  8
0
 10
7.5
 20
9.575
 30
0.0
 11
8.0
 21
9.575
 31
0.0
  0
LINE
  5
1E8
  8
0
 10
8.0
 20
9.575
 30
0.0
 11
8.0
 21
9.58499
 31
0.0
  0
LINE
  5
1E9
  8
0
 10
8.0
 20
9.58499
 30
0.0
 11
7.5
 21
9.58499
 31
0.0
  0
LINE
  5
1EA
  8
0
 10
7.5
 20
9.58499
 30
0.0
 11
7.5
 21
9.61499
 31
0.0
  0
LINE
  5
1EB
  8
0
 10
7.5
 20
9.61499
 30
0.0
 11
8.0
 21
9.61499
 31
0.0
  0
LINE
  5
1EC
  8
0
 10
8.0
 20
9.61499
 30
0.0
 11
8.0
 21
9.625
 31
0.0
  0
LINE
  5
1ED
  8
0
 10
8.0
 20
9.625
 30
0.0
 11
7.5
 21
9.625
 31
0.0
  0
LINE
  5
1EE
  8
0
 10
7.5
 20
9.625
 30
0.0
 11
7.5
 21
9.655
 31
0.0
  0
LINE
  5
1EF
  8
0
 10
7.5
 20
9.655
 30
0.0
 11
8.0
 21
9.655
 31
0.0
  0
LINE
  5
1F0
  8
0
 10
8.0
 20
9.655
 30
0.0
 11
8.0
 21
9.66499
 31
0.0
  0
LINE
  5
1F1
  8
0
 10
8.0
 20
9.66499
 30
0.0
 11
7.5
 21
9.66499
 31
0.0
  0
LINE
  5
1F2
  8
0
 10
7.5
 20
9.66499
 30
0.0
 11
7.5
 21
9.69499
 31
0.0
  0
LINE
  5
1F3
  8
0
 10
7.5
 20
9.69499
 30
0.0
 11
8.0
 21
9.69499
 31
0.0
  0
LINE
  5
1F4
  8
0
 10
8.0
 20
9.69499
 30
0.0
 11
8.0
 21
9.70499
 31
0.0
  0
LINE
  5
1F5
  8
0
 10
8.0
 20
9.70499
 30
0.0
 11
7.5
 21
9.70499
 31
0.0
  0
LINE
  5
1F6
  8
0
 10
7.5
 20
9.70499
 30
0.0
 11
7.5
 21
9.73499
 31
0.0
  0
LINE
  5
1F7
  8
0
 10
7.5
 20
9.73499
 30
0.0
 11
8.0
 21
9.73499
 31
0.0
  0
LINE
  5
1F8
  8
0
 10
8.0
 20
9.73499
 30
0.0
 11
8.0
 21
9.745
 31
0.0
  0
LINE
  5
1F9
  8
0
 10
8.0
 20
9.745
 30
0.0
 11
7.5
 21
9.745
 31
0.0
  0
LINE
  5
1FA
  8
0
 10
7.5
 20
9.745
 30
0.0
 11
7.5
 21
9.77499
 31
0.0
  0
LINE
  5
1FB
  8
0
 10
7.5
 20
9.77499
 30
0.0
 11
8.0
 21
9.77499
 31
0.0
  0
LINE
  5
1FC
  8
0
 10
8.0
 20
9.77499
 30
0.0
 11
8.0
 21
9.78499
 31
0.0
  0
LINE
  5
1FD
  8
0
 10
8.0
 20
9.78499
 30
0.0
 11
7.5
 21
9.78499
 31
0.0
  0
LINE
  5
1FE
  8
0
 10
7.5
 20
9.78499
 30
0.0
 11
7.5
 21
9.81499
 31
0.0
  0
LINE
  5
1FF
  8
0
 10
7.5
 20
9.81499
 30
0.0
 11
8.0
 21
9.81499
 31
0.0
  0
LINE
  5
200
  8
0
 10
8.0
 20
9.81499
 30
0.0
 11
8.0
 21
9.825
 31
0.0
  0
LINE
  5
201
  8
0
 10
8.0
 20
9.825
 30
0.0
 11
7.5
 21
9.825
 31
0.0
  0
LINE
  5
202
  8
0
 10
7.5
 20
9.825
 30
0.0
 11
7.5
 21
9.855
 31
0.0
  0
LINE
  5
203
  8
0
 10
7.5
 20
9.855
 30
0.0
 11
8.0
 21
9.855
 31
0.0
  0
LINE
  5
204
  8
0
 10
8.0
 20
9.855
 30
0.0
 11
8.0
 21
9.86499
 31
0.0
  0
LINE
  5
205
  8
0
 10
8.0
 20
9.86499
 30
0.0
 11
7.5
 21
9.86499
 31
0.0
  0
LINE
  5
206
  8
0
 10
7.5
 20
9.86499
 30
0.0
 11
7.5
 21
9.89499
 31
0.0
  0
LINE
  5
207
  8
0
 10
7.5
 20
9.89499
 30
0.0
 11
8.0
 21
9.89499
 31
0.0
  0
LINE
  5
208
  8
0
 10
8.0
 20
9.89499
 30
0.0
 11
8.0
 21
9.905
 31
0.0
  0
LINE
  5
209
  8
0
 10
8.0
 20
9.905
 30
0.0
 11
7.5
 21
9.905
 31
0.0
  0
LINE
  5
20A
  8
0
 10
7.5
 20
9.905
 30
0.0
 11
7.5
 21
9.935
 31
0.0
  0
LINE
  5
20B
  8
0
 10
7.5
 20
9.935
 30
0.0
 11
8.0
 21
9.935
 31
0.0
  0
LINE
  5
20C
  8
0
 10
8.0
 20
9.935
 30
0.0
 11
8.0
 21
9.94499
 31
0.0
  0
LINE
  5
20D
  8
0
 10
8.0
 20
9.94499
 30
0.0
 11
7.5
 21
9.94499
 31
0.0
  0
LINE
  5
20E
  8
0
 10
7.5
 20
9.94499
 30
0.0
 11
7.5
 21
9.97499
 31
0.0
  0
LINE
  5
20F
  8
0
 10
7.5
 20
9.97499
 30
0.0
 11
8.0
 21
9.97499
 31
0.0
  0
LINE
  5
210
  8
0
 10
8.0
 20
9.97499
 30
0.0
 11
8.0
 21
9.98499
 31
0.0
  0
LINE
  5
211
  8
0
 10
8.0
 20
9.98499
 30
0.0
 11
7.5
 21
9.98499
 31
0.0
  0
LINE
  5
212
  8
0
 10
7.5
 20
9.98499
 30
0.0
 11
7.5
 21
10.0
 31
0.0
  0
LINE
  5
213
  8
0
 10
7.5
 20
10.0
 30
0.0
 11
9.5
 21
10.0
 31
0.0
  0
LINE
  5
214
  8
0
 10
9.5
 20
10.0
 30
0.0
 11
9.5
 21
8.0
 31
0.0
  0
LINE
  5
215
  8
0
 10
9.5
 20
8.0
 30
0.0
 11
7.5
 21
8.0
 31
0.0
  0
LINE
  5
216
  8
0
 10
2.5
 20
8.0
 30
0.0
 11
2.5
 21
10.0
 31
0.0
  0
LINE
  5
217
  8
0
 10
2.5
 20
10.0
 30
0.0
 11
4.5
 21
10.0
 31
0.0
  0
LINE
  5
218
  8
0
 10
4.5
 20
10.0
 30
0.0
 11
4.5
 21
9.98499
 31
0.0
  0
LINE
  5
219
  8
0
 10
4.5
 20
9.98499
 30
0.0
 11
4.0
 21
9.98499
 31
0.0
  0
LINE
  5
21A
  8
0
 10
4.0
 20
9.98499
 30
0.0
 11
4.0
 21
9.97499
 31
0.0
  0
LINE
  5
21B
  8
0
 10
4.0
 20
9.97499
 30
0.0
 11
4.5
 21
9.97499
 31
0.0
  0
LINE
  5
21C
  8
0
 10
4.5
 20
9.97499
 30
0.0
 11
4.5
 21
9.94499
 31
0.0
  0
LINE
  5
21D
  8
0
 10
4.5
 20
9.94499
 30
0.0
 11
4.0
 21
9.94499
 31
0.0
  0
LINE
  5
21E
  8
0
 10
4.0
 20
9.94499
 30
0.0
 11
4.0
 21
9.935
 31
0.0
  0
LINE
  5
21F
  8
0
 10
4.0
 20
9.935
 30
0.0
 11
4.5
 21
9.935
 31
0.0
  0
LINE
  5
220
  8
0
 10
4.5
 20
9.935
 30
0.0
 11
4.5
 21
9.905
 31
0.0
  0
LINE
  5
221
  8
0
 10
4.5
 20
9.905
 30
0.0
 11
4.0
 21
9.905
 31
0.0
  0
LINE
  5
222
  8
0
 10
4.0
 20
9.905
 30
0.0
 11
4.0
 21
9.89499
 31
0.0
  0
LINE
  5
223
  8
0
 10
4.0
 20
9.89499
 30
0.0
 11
4.5
 21
9.89499
 31
0.0
  0
LINE
  5
224
  8
0
 10
4.5
 20
9.89499
 30
0.0
 11
4.5
 21
9.86499
 31
0.0
  0
LINE
  5
225
  8
0
 10
4.5
 20
9.86499
 30
0.0
 11
4.0
 21
9.86499
 31
0.0
  0
LINE
  5
226
  8
0
 10
4.0
 20
9.86499
 30
0.0
 11
4.0
 21
9.855
 31
0.0
  0
LINE
  5
227
  8
0
 10
4.0
 20
9.855
 30
0.0
 11
4.5
 21
9.855
 31
0.0
  0
LINE
  5
228
  8
0
 10
4.5
 20
9.855
 30
0.0
 11
4.5
 21
9.825
 31
0.0
  0
LINE
  5
229
  8
0
 10
4.5
 20
9.825
 30
0.0
 11
4.0
 21
9.825
 31
0.0
  0
LINE
  5
22A
  8
0
 10
4.0
 20
9.825
 30
0.0
 11
4.0
 21
9.81499
 31
0.0
  0
LINE
  5
22B
  8
0
 10
4.0
 20
9.81499
 30
0.0
 11
4.5
 21
9.81499
 31
0.0
  0
LINE
  5
22C
  8
0
 10
4.5
 20
9.81499
 30
0.0
 11
4.5
 21
9.78499
 31
0.0
  0
LINE
  5
22D
  8
0
 10
4.5
 20
9.78499
 30
0.0
 11
4.0
 21
9.78499
 31
0.0
  0
LINE
  5
22E
  8
0
 10
4.0
 20
9.78499
 30
0.0
 11
4.0
 21
9.77499
 31
0.0
  0
LINE
  5
22F
  8
0
 10
4.0
 20
9.77499
 30
0.0
 11
4.5
 21
9.77499
 31
0.0
  0
LINE
  5
230
  8
0
 10
4.5
 20
9.77499
 30
0.0
 11
4.5
 21
9.745
 31
0.0
  0
LINE
  5
231
  8
0
 10
4.5
 20
9.745
 30
0.0
 11
4.0
 21
9.745
 31
0.0
  0
LINE
  5
232
  8
0
 10
4.0
 20
9.745
 30
0.0
 11
4.0
 21
9.73499
 31
0.0
  0
LINE
  5
233
  8
0
 10
4.0
 20
9.73499
 30
0.0
 11
4.5
 21
9.73499
 31
0.0
  0
LINE
  5
234
  8
0
 10
4.5
 20
9.73499
 30
0.0
 11
4.5
 21
9.70499
 31
0.0
  0
LINE
  5
235
  8
0
 10
4.5
 20
9.70499
 30
0.0
 11
4.0
 21
9.70499
 31
0.0
  0
LINE
  5
236
  8
0
 10
4.0
 20
9.70499
 30
0.0
 11
4.0
 21
9.69499
 31
0.0
  0
LINE
  5
237
  8
0
 10
4.0
 20
9.69499
 30
0.0
 11
4.5
 21
9.69499
 31
0.0
  0
LINE
  5
238
  8
0
 10
4.5
 20
9.69499
 30
0.0
 11
4.5
 21
9.66499
 31
0.0
  0
LINE
  5
239
  8
0
 10
4.5
 20
9.66499
 30
0.0
 11
4.0
 21
9.66499
 31
0.0
  0
LINE
  5
23A
  8
0
 10
4.0
 20
9.66499
 30
0.0
 11
4.0
 21
9.655
 31
0.0
  0
LINE
  5
23B
  8
0
 10
4.0
 20
9.655
 30
0.0
 11
4.5
 21
9.655
 31
0.0
  0
LINE
  5
23C
  8
0
 10
4.5
 20
9.655
 30
0.0
 11
4.5
 21
9.625
 31
0.0
  0
LINE
  5
23D
  8
0
 10
4.5
 20
9.625
 30
0.0
 11
4.0
 21
9.625
 31
0.0
  0
LINE
  5
23E
  8
0
 10
4.0
 20
9.625
 30
0.0
 11
4.0
 21
9.61499
 31
0.0
  0
LINE
  5
23F
  8
0
 10
4.0
 20
9.61499
 30
0.0
 11
4.5
 21
9.61499
 31
0.0
  0
LINE
  5
240
  8
0
 10
4.5
 20
9.61499
 30
0.0
 11
4.5
 21
9.58499
 31
0.0
  0
LINE
  5
241
  8
0
 10
4.5
 20
9.58499
 30
0.0
 11
4.0
 21
9.58499
 31
0.0
  0
LINE
  5
242
  8
0
 10
4.0
 20
9.58499
 30
0.0
 11
4.0
 21
9.575
 31
0.0
  0
LINE
  5
243
  8
0
 10
4.0
 20
9.575
 30
0.0
 11
4.5
 21
9.575
 31
0.0
  0
LINE
  5
244
  8
0
 10
4.5
 20
9.575
 30
0.0
 11
4.5
 21
9.545
 31
0.0
  0
LINE
  5
245
  8
0
 10
4.5
 20
9.545
 30
0.0
 11
4.0
 21
9.545
 31
0.0
  0
LINE
  5
246
  8
0
 10
4.0
 20
9.545
 30
0.0
 11
4.0
 21
9.53499
 31
0.0
  0
LINE
  5
247
  8
0
 10
4.0
 20
9.53499
 30
0.0
 11
4.5
 21
9.53499
 31
0.0
  0
LINE
  5
248
  8
0
 10
4.5
 20
9.53499
 30
0.0
 11
4.5
 21
9.50499
 31
0.0
  0
LINE
  5
249
  8
0
 10
4.5
 20
9.50499
 30
0.0
 11
4.0
 21
9.50499
 31
0.0
  0
LINE
  5
24A
  8
0
 10
4.0
 20
9.50499
 30
0.0
 11
4.0
 21
9.495
 31
0.0
  0
LINE
  5
24B
  8
0
 10
4.0
 20
9.495
 30
0.0
 11
4.5
 21
9.495
 31
0.0
  0
LINE
  5
24C
  8
0
 10
4.5
 20
9.495
 30
0.0
 11
4.5
 21
9.465
 31
0.0
  0
LINE
  5
24D
  8
0
 10
4.5
 20
9.465
 30
0.0
 11
4.0
 21
9.465
 31
0.0
  0
LINE
  5
24E
  8
0
 10
4.0
 20
9.465
 30
0.0
 11
4.0
 21
9.45499
 31
0.0
  0
LINE
  5
24F
  8
0
 10
4.0
 20
9.45499
 30
0.0
 11
4.5
 21
9.45499
 31
0.0
  0
LINE
  5
250
  8
0
 10
4.5
 20
9.45499
 30
0.0
 11
4.5
 21
9.42499
 31
0.0
  0
LINE
  5
251
  8
0
 10
4.5
 20
9.42499
 30
0.0
 11
4.0
 21
9.42499
 31
0.0
  0
LINE
  5
252
  8
0
 10
4.0
 20
9.42499
 30
0.0
 11
4.0
 21
9.41499
 31
0.0
  0
LINE
  5
253
  8
0
 10
4.0
 20
9.41499
 30
0.0
 11
4.5
 21
9.41499
 31
0.0
  0
LINE
  5
254
  8
0
 10
4.5
 20
9.41499
 30
0.0
 11
4.5
 21
9.38499
 31
0.0
  0
LINE
  5
255
  8
0
 10
4.5
 20
9.38499
 30
0.0
 11
4.0
 21
9.38499
 31
0.0
  0
LINE
  5
256
  8
0
 10
4.0
 20
9.38499
 30
0.0
 11
4.0
 21
9.375
 31
0.0
  0
LINE
  5
257
  8
0
 10
4.0
 20
9.375
 30
0.0
 11
4.5
 21
9.375
 31
0.0
  0
LINE
  5
258
  8
0
 10
4.5
 20
9.375
 30
0.0
 11
4.5
 21
9.34499
 31
0.0
  0
LINE
  5
259
  8
0
 10
4.5
 20
9.34499
 30
0.0
 11
4.0
 21
9.34499
 31
0.0
  0
LINE
  5
25A
  8
0
 10
4.0
 20
9.34499
 30
0.0
 11
4.0
 21
9.33499
 31
0.0
  0
LINE
  5
25B
  8
0
 10
4.0
 20
9.33499
 30
0.0
 11
4.5
 21
9.33499
 31
0.0
  0
LINE
  5
25C
  8
0
 10
4.5
 20
9.33499
 30
0.0
 11
4.5
 21
9.30499
 31
0.0
  0
LINE
  5
25D
  8
0
 10
4.5
 20
9.30499
 30
0.0
 11
4.0
 21
9.30499
 31
0.0
  0
LINE
  5
25E
  8
0
 10
4.0
 20
9.30499
 30
0.0
 11
4.0
 21
9.295
 31
0.0
  0
LINE
  5
25F
  8
0
 10
4.0
 20
9.295
 30
0.0
 11
4.5
 21
9.295
 31
0.0
  0
LINE
  5
260
  8
0
 10
4.5
 20
9.295
 30
0.0
 11
4.5
 21
9.265
 31
0.0
  0
LINE
  5
261
  8
0
 10
4.5
 20
9.265
 30
0.0
 11
4.0
 21
9.265
 31
0.0
  0
LINE
  5
262
  8
0
 10
4.0
 20
9.265
 30
0.0
 11
4.0
 21
9.25499
 31
0.0
  0
LINE
  5
263
  8
0
 10
4.0
 20
9.25499
 30
0.0
 11
4.5
 21
9.25499
 31
0.0
  0
LINE
  5
264
  8
0
 10
4.5
 20
9.25499
 30
0.0
 11
4.5
 21
9.22499
 31
0.0
  0
LINE
  5
265
  8
0
 10
4.5
 20
9.22499
 30
0.0
 11
4.0
 21
9.22499
 31
0.0
  0
LINE
  5
266
  8
0
 10
4.0
 20
9.22499
 30
0.0
 11
4.0
 21
9.215
 31
0.0
  0
LINE
  5
267
  8
0
 10
4.0
 20
9.215
 30
0.0
 11
4.5
 21
9.215
 31
0.0
  0
LINE
  5
268
  8
0
 10
4.5
 20
9.215
 30
0.0
 11
4.5
 21
9.185
 31
0.0
  0
LINE
  5
269
  8
0
 10
4.5
 20
9.185
 30
0.0
 11
4.0
 21
9.185
 31
0.0
  0
LINE
  5
26A
  8
0
 10
4.0
 20
9.185
 30
0.0
 11
4.0
 21
9.17499
 31
0.0
  0
LINE
  5
26B
  8
0
 10
4.0
 20
9.17499
 30
0.0
 11
4.5
 21
9.17499
 31
0.0
  0
LINE
  5
26C
  8
0
 10
4.5
 20
9.17499
 30
0.0
 11
4.5
 21
9.14499
 31
0.0
  0
LINE
  5
26D
  8
0
 10
4.5
 20
9.14499
 30
0.0
 11
4.0
 21
9.14499
 31
0.0
  0
LINE
  5
26E
  8
0
 10
4.0
 20
9.14499
 30
0.0
 11
4.0
 21
9.13499
 31
0.0
  0
LINE
  5
26F
  8
0
 10
4.0
 20
9.13499
 30
0.0
 11
4.5
 21
9.13499
 31
0.0
  0
LINE
  5
270
  8
0
 10
4.5
 20
9.13499
 30
0.0
 11
4.5
 21
9.105
 31
0.0
  0
LINE
  5
271
  8
0
 10
4.5
 20
9.105
 30
0.0
 11
4.0
 21
9.105
 31
0.0
  0
LINE
  5
272
  8
0
 10
4.0
 20
9.105
 30
0.0
 11
4.0
 21
9.09499
 31
0.0
  0
LINE
  5
273
  8
0
 10
4.0
 20
9.09499
 30
0.0
 11
4.5
 21
9.09499
 31
0.0
  0
LINE
  5
274
  8
0
 10
4.5
 20
9.09499
 30
0.0
 11
4.5
 21
9.06499
 31
0.0
  0
LINE
  5
275
  8
0
 10
4.5
 20
9.06499
 30
0.0
 11
4.0
 21
9.06499
 31
0.0
  0
LINE
  5
276
  8
0
 10
4.0
 20
9.06499
 30
0.0
 11
4.0
 21
9.05499
 31
0.0
  0
LINE
  5
277
  8
0
 10
4.0
 20
9.05499
 30
0.0
 11
4.5
 21
9.05499
 31
0.0
  0
LINE
  5
278
  8
0
 10
4.5
 20
9.05499
 30
0.0
 11
4.5
 21
9.02499
 31
0.0
  0
LINE
  5
279
  8
0
 10
4.5
 20
9.02499
 30
0.0
 11
4.0
 21
9.02499
 31
0.0
  0
LINE
  5
27A
  8
0
 10
4.0
 20
9.02499
 30
0.0
 11
4.0
 21
9.015
 31
0.0
  0
LINE
  5
27B
  8
0
 10
4.0
 20
9.015
 30
0.0
 11
4.5
 21
9.015
 31
0.0
  0
LINE
  5
27C
  8
0
 10
4.5
 20
9.015
 30
0.0
 11
4.5
 21
8.985
 31
0.0
  0
LINE
  5
27D
  8
0
 10
4.5
 20
8.985
 30
0.0
 11
4.0
 21
8.985
 31
0.0
  0
LINE
  5
27E
  8
0
 10
4.0
 20
8.985
 30
0.0
 11
4.0
 21
8.97501
 31
0.0
  0
LINE
  5
27F
  8
0
 10
4.0
 20
8.97501
 30
0.0
 11
4.5
 21
8.97501
 31
0.0
  0
LINE
  5
280
  8
0
 10
4.5
 20
8.97501
 30
0.0
 11
4.5
 21
8.94501
 31
0.0
  0
LINE
  5
281
  8
0
 10
4.5
 20
8.94501
 30
0.0
 11
4.0
 21
8.94501
 31
0.0
  0
LINE
  5
282
  8
0
 10
4.0
 20
8.94501
 30
0.0
 11
4.0
 21
8.93501
 31
0.0
  0
LINE
  5
283
  8
0
 10
4.0
 20
8.93501
 30
0.0
 11
4.5
 21
8.93501
 31
0.0
  0
LINE
  5
284
  8
0
 10
4.5
 20
8.93501
 30
0.0
 11
4.5
 21
8.90501
 31
0.0
  0
LINE
  5
285
  8
0
 10
4.5
 20
8.90501
 30
0.0
 11
4.0
 21
8.90501
 31
0.0
  0
LINE
  5
286
  8
0
 10
4.0
 20
8.90501
 30
0.0
 11
4.0
 21
8.895
 31
0.0
  0
LINE
  5
287
  8
0
 10
4.0
 20
8.895
 30
0.0
 11
4.5
 21
8.895
 31
0.0
  0
LINE
  5
288
  8
0
 10
4.5
 20
8.895
 30
0.0
 11
4.5
 21
8.86501
 31
0.0
  0
LINE
  5
289
  8
0
 10
4.5
 20
8.86501
 30
0.0
 11
4.0
 21
8.86501
 31
0.0
  0
LINE
  5
28A
  8
0
 10
4.0
 20
8.86501
 30
0.0
 11
4.0
 21
8.85501
 31
0.0
  0
LINE
  5
28B
  8
0
 10
4.0
 20
8.85501
 30
0.0
 11
4.5
 21
8.85501
 31
0.0
  0
LINE
  5
28C
  8
0
 10
4.5
 20
8.85501
 30
0.0
 11
4.5
 21
8.82501
 31
0.0
  0
LINE
  5
28D
  8
0
 10
4.5
 20
8.82501
 30
0.0
 11
4.0
 21
8.82501
 31
0.0
  0
LINE
  5
28E
  8
0
 10
4.0
 20
8.82501
 30
0.0
 11
4.0
 21
8.815
 31
0.0
  0
LINE
  5
28F
  8
0
 10
4.0
 20
8.815
 30
0.0
 11
4.5
 21
8.815
 31
0.0
  0
LINE
  5
290
  8
0
 10
4.5
 20
8.815
 30
0.0
 11
4.5
 21
8.785
 31
0.0
  0
LINE
  5
291
  8
0
 10
4.5
 20
8.785
 30
0.0
 11
4.0
 21
8.785
 31
0.0
  0
LINE
  5
292
  8
0
 10
4.0
 20
8.785
 30
0.0
 11
4.0
 21
8.77501
 31
0.0
  0
LINE
  5
293
  8
0
 10
4.0
 20
8.77501
 30
0.0
 11
4.5
 21
8.77501
 31
0.0
  0
LINE
  5
294
  8
0
 10
4.5
 20
8.77501
 30
0.0
 11
4.5
 21
8.74501
 31
0.0
  0
LINE
  5
295
  8
0
 10
4.5
 20
8.74501
 30
0.0
 11
4.0
 21
8.74501
 31
0.0
  0
LINE
  5
296
  8
0
 10
4.0
 20
8.74501
 30
0.0
 11
4.0
 21
8.735
 31
0.0
  0
LINE
  5
297
  8
0
 10
4.0
 20
8.735
 30
0.0
 11
4.5
 21
8.735
 31
0.0
  0
LINE
  5
298
  8
0
 10
4.5
 20
8.735
 30
0.0
 11
4.5
 21
8.705
 31
0.0
  0
LINE
  5
299
  8
0
 10
4.5
 20
8.705
 30
0.0
 11
4.0
 21
8.705
 31
0.0
  0
LINE
  5
29A
  8
0
 10
4.0
 20
8.705
 30
0.0
 11
4.0
 21
8.69501
 31
0.0
  0
LINE
  5
29B
  8
0
 10
4.0
 20
8.69501
 30
0.0
 11
4.5
 21
8.69501
 31
0.0
  0
LINE
  5
29C
  8
0
 10
4.5
 20
8.69501
 30
0.0
 11
4.5
 21
8.66501
 31
0.0
  0
LINE
  5
29D
  8
0
 10
4.5
 20
8.66501
 30
0.0
 11
4.0
 21
8.66501
 31
0.0
  0
LINE
  5
29E
  8
0
 10
4.0
 20
8.66501
 30
0.0
 11
4.0
 21
8.65501
 31
0.0
  0
LINE
  5
29F
  8
0
 10
4.0
 20
8.65501
 30
0.0
 11
4.5
 21
8.65501
 31
0.0
  0
LINE
  5
2A0
  8
0
 10
4.5
 20
8.65501
 30
0.0
 11
4.5
 21
8.625
 31
0.0
  0
LINE
  5
2A1
  8
0
 10
4.5
 20
8.625
 30
0.0
 11
4.0
 21
8.625
 31
0.0
  0
LINE
  5
2A2
  8
0
 10
4.0
 20
8.625
 30
0.0
 11
4.0
 21
8.61501
 31
0.0
  0
LINE
  5
2A3
  8
0
 10
4.0
 20
8.61501
 30
0.0
 11
4.5
 21
8.61501
 31
0.0
  0
LINE
  5
2A4
  8
0
 10
4.5
 20
8.61501
 30
0.0
 11
4.5
 21
8.58501
 31
0.0
  0
LINE
  5
2A5
  8
0
 10
4.5
 20
8.58501
 30
0.0
 11
4.0
 21
8.58501
 31
0.0
  0
LINE
  5
2A6
  8
0
 10
4.0
 20
8.58501
 30
0.0
 11
4.0
 21
8.57501
 31
0.0
  0
LINE
  5
2A7
  8
0
 10
4.0
 20
8.57501
 30
0.0
 11
4.5
 21
8.57501
 31
0.0
  0
LINE
  5
2A8
  8
0
 10
4.5
 20
8.57501
 30
0.0
 11
4.5
 21
8.54501
 31
0.0
  0
LINE
  5
2A9
  8
0
 10
4.5
 20
8.54501
 30
0.0
 11
4.0
 21
8.54501
 31
0.0
  0
LINE
  5
2AA
  8
0
 10
4.0
 20
8.54501
 30
0.0
 11
4.0
 21
8.535
 31
0.0
  0
LINE
  5
2AB
  8
0
 10
4.0
 20
8.535
 30
0.0
 11
4.5
 21
8.535
 31
0.0
  0
LINE
  5
2AC
  8
0
 10
4.5
 20
8.535
 30
0.0
 11
4.5
 21
8.505
 31
0.0
  0
LINE
  5
2AD
  8
0
 10
4.5
 20
8.505
 30
0.0
 11
4.0
 21
8.505
 31
0.0
  0
LINE
  5
2AE
  8
0
 10
4.0
 20
8.505
 30
0.0
 11
4.0
 21
8.49501
 31
0.0
  0
LINE
  5
2AF
  8
0
 10
4.0
 20
8.49501
 30
0.0
 11
4.5
 21
8.49501
 31
0.0
  0
LINE
  5
2B0
  8
0
 10
4.5
 20
8.49501
 30
0.0
 11
4.5
 21
8.46501
 31
0.0
  0
LINE
  5
2B1
  8
0
 10
4.5
 20
8.46501
 30
0.0
 11
4.0
 21
8.46501
 31
0.0
  0
LINE
  5
2B2
  8
0
 10
4.0
 20
8.46501
 30
0.0
 11
4.0
 21
8.455
 31
0.0
  0
LINE
  5
2B3
  8
0
 10
4.0
 20
8.455
 30
0.0
 11
4.5
 21
8.455
 31
0.0
  0
LINE
  5
2B4
  8
0
 10
4.5
 20
8.455
 30
0.0
 11
4.5
 21
8.425
 31
0.0
  0
LINE
  5
2B5
  8
0
 10
4.5
 20
8.425
 30
0.0
 11
4.0
 21
8.425
 31
0.0
  0
LINE
  5
2B6
  8
0
 10
4.0
 20
8.425
 30
0.0
 11
4.0
 21
8.41501
 31
0.0
  0
LINE
  5
2B7
  8
0
 10
4.0
 20
8.41501
 30
0.0
 11
4.5
 21
8.41501
 31
0.0
  0
LINE
  5
2B8
  8
0
 10
4.5
 20
8.41501
 30
0.0
 11
4.5
 21
8.38501
 31
0.0
  0
LINE
  5
2B9
  8
0
 10
4.5
 20
8.38501
 30
0.0
 11
4.0
 21
8.38501
 31
0.0
  0
LINE
  5
2BA
  8
0
 10
4.0
 20
8.38501
 30
0.0
 11
4.0
 21
8.375
 31
0.0
  0
LINE
  5
2BB
  8
0
 10
4.0
 20
8.375
 30
0.0
 11
4.5
 21
8.375
 31
0.0
  0
LINE
  5
2BC
  8
0
 10
4.5
 20
8.375
 30
0.0
 11
4.5
 21
8.345
 31
0.0
  0
LINE
  5
2BD
  8
0
 10
4.5
 20
8.345
 30
0.0
 11
4.0
 21
8.345
 31
0.0
  0
LINE
  5
2BE
  8
0
 10
4.0
 20
8.345
 30
0.0
 11
4.0
 21
8.33501
 31
0.0
  0
LINE
  5
2BF
  8
0
 10
4.0
 20
8.33501
 30
0.0
 11
4.5
 21
8.33501
 31
0.0
  0
LINE
  5
2C0
  8
0
 10
4.5
 20
8.33501
 30
0.0
 11
4.5
 21
8.30501
 31
0.0
  0
LINE
  5
2C1
  8
0
 10
4.5
 20
8.30501
 30
0.0
 11
4.0
 21
8.30501
 31
0.0
  0
LINE
  5
2C2
  8
0
 10
4.0
 20
8.30501
 30
0.0
 11
4.0
 21
8.29501
 31
0.0
  0
LINE
  5
2C3
  8
0
 10
4.0
 20
8.29501
 30
0.0
 11
4.5
 21
8.29501
 31
0.0
  0
LINE
  5
2C4
  8
0
 10
4.5
 20
8.29501
 30
0.0
 11
4.5
 21
8.26501
 31
0.0
  0
LINE
  5
2C5
  8
0
 10
4.5
 20
8.26501
 30
0.0
 11
4.0
 21
8.26501
 31
0.0
  0
LINE
  5
2C6
  8
0
 10
4.0
 20
8.26501
 30
0.0
 11
4.0
 21
8.255
 31
0.0
  0
LINE
  5
2C7
  8
0
 10
4.0
 20
8.255
 30
0.0
 11
4.5
 21
8.255
 31
0.0
  0
LINE
  5
2C8
  8
0
 10
4.5
 20
8.255
 30
0.0
 11
4.5
 21
8.22501
 31
0.0
  0
LINE
  5
2C9
  8
0
 10
4.5
 20
8.22501
 30
0.0
 11
4.0
 21
8.22501
 31
0.0
  0
LINE
  5
2CA
  8
0
 10
4.0
 20
8.22501
 30
0.0
 11
4.0
 21
8.21501
 31
0.0
  0
LINE
  5
2CB
  8
0
 10
4.0
 20
8.21501
 30
0.0
 11
4.5
 21
8.21501
 31
0.0
  0
LINE
  5
2CC
  8
0
 10
4.5
 20
8.21501
 30
0.0
 11
4.5
 21
8.18501
 31
0.0
  0
LINE
  5
2CD
  8
0
 10
4.5
 20
8.18501
 30
0.0
 11
4.0
 21
8.18501
 31
0.0
  0
LINE
  5
2CE
  8
0
 10
4.0
 20
8.18501
 30
0.0
 11
4.0
 21
8.175
 31
0.0
  0
LINE
  5
2CF
  8
0
 10
4.0
 20
8.175
 30
0.0
 11
4.5
 21
8.175
 31
0.0
  0
LINE
  5
2D0
  8
0
 10
4.5
 20
8.175
 30
0.0
 11
4.5
 21
8.145
 31
0.0
  0
LINE
  5
2D1
  8
0
 10
4.5
 20
8.145
 30
0.0
 11
4.0
 21
8.145
 31
0.0
  0
LINE
  5
2D2
  8
0
 10
4.0
 20
8.145
 30
0.0
 11
4.0
 21
8.13501
 31
0.0
  0
LINE
  5
2D3
  8
0
 10
4.0
 20
8.13501
 30
0.0
 11
4.5
 21
8.13501
 31
0.0
  0
LINE
  5
2D4
  8
0
 10
4.5
 20
8.13501
 30
0.0
 11
4.5
 21
8.10501
 31
0.0
  0
LINE
  5
2D5
  8
0
 10
4.5
 20
8.10501
 30
0.0
 11
4.0
 21
8.10501
 31
0.0
  0
LINE
  5
2D6
  8
0
 10
4.0
 20
8.10501
 30
0.0
 11
4.0
 21
8.095
 31
0.0
  0
LINE
  5
2D7
  8
0
 10
4.0
 20
8.095
 30
0.0
 11
4.5
 21
8.095
 31
0.0
  0
LINE
  5
2D8
  8
0
 10
4.5
 20
8.095
 30
0.0
 11
4.5
 21
8.065
 31
0.0
  0
LINE
  5
2D9
  8
0
 10
4.5
 20
8.065
 30
0.0
 11
4.0
 21
8.065
 31
0.0
  0
LINE
  5
2DA
  8
0
 10
4.0
 20
8.065
 30
0.0
 11
4.0
 21
8.05501
 31
0.0
  0
LINE
  5
2DB
  8
0
 10
4.0
 20
8.05501
 30
0.0
 11
4.5
 21
8.05501
 31
0.0
  0
LINE
  5
2DC
  8
0
 10
4.5
 20
8.05501
 30
0.0
 11
4.5
 21
8.02501
 31
0.0
  0
LINE
  5
2DD
  8
0
 10
4.5
 20
8.02501
 30
0.0
 11
4.0
 21
8.02501
 31
0.0
  0
LINE
  5
2DE
  8
0
 10
4.0
 20
8.02501
 30
0.0
 11
4.0
 21
8.01501
 31
0.0
  0
LINE
  5
2DF
  8
0
 10
4.0
 20
8.01501
 30
0.0
 11
4.5
 21
8.01501
 31
0.0
  0
LINE
  5
2E0
  8
0
 10
4.5
 20
8.01501
 30
0.0
 11
4.5
 21
8.0
 31
0.0
  0
LINE
  5
2E1
  8
0
 10
4.5
 20
8.0
 30
0.0
 11
2.5
 21
8.0
 31
0.0
  0
LINE
  5
2E2
  8
0
 10
5.5
 20
9.94499
 30
0.0
 11
5.5
 21
9.97499
 31
0.0
  0
LINE
  5
2E3
  8
0
 10
5.5
 20
9.97499
 30
0.0
 11
6.5
 21
9.97499
 31
0.0
  0
LINE
  5
2E4
  8
0
 10
6.5
 20
9.97499
 30
0.0
 11
6.5
 21
9.94499
 31
0.0
  0
LINE
  5
2E5
  8
0
 10
6.5
 20
9.94499
 30
0.0
 11
5.5
 21
9.94499
 31
0.0
  0
LINE
  5
2E6
  8
0
 10
5.5
 20
9.905
 30
0.0
 11
5.5
 21
9.935
 31
0.0
  0
LINE
  5
2E7
  8
0
 10
5.5
 20
9.935
 30
0.0
 11
6.5
 21
9.935
 31
0.0
  0
LINE
  5
2E8
  8
0
 10
6.5
 20
9.935
 30
0.0
 11
6.5
 21
9.905
 31
0.0
  0
LINE
  5
2E9
  8
0
 10
6.5
 20
9.905
 30
0.0
 11
5.5
 21
9.905
 31
0.0
  0
LINE
  5
2EA
  8
0
 10
5.5
 20
9.86499
 30
0.0
 11
5.5
 21
9.89499
 31
0.0
  0
LINE
  5
2EB
  8
0
 10
5.5
 20
9.89499
 30
0.0
 11
6.5
 21
9.89499
 31
0.0
  0
LINE
  5
2EC
  8
0
 10
6.5
 20
9.89499
 30
0.0
 11
6.5
 21
9.86499
 31
0.0
  0
LINE
  5
2ED
  8
0
 10
6.5
 20
9.86499
 30
0.0
 11
5.5
 21
9.86499
 31
0.0
  0
LINE
  5
2EE
  8
0
 10
5.5
 20
9.825
 30
0.0
 11
5.5
 21
9.855
 31
0.0
  0
LINE
  5
2EF
  8
0
 10
5.5
 20
9.855
 30
0.0
 11
6.5
 21
9.855
 31
0.0
  0
LINE
  5
2F0
  8
0
 10
6.5
 20
9.855
 30
0.0
 11
6.5
 21
9.825
 31
0.0
  0
LINE
  5
2F1
  8
0
 10
6.5
 20
9.825
 30
0.0
 11
5.5
 21
9.825
 31
0.0
  0
LINE
  5
2F2
  8
0
 10
5.5
 20
9.78499
 30
0.0
 11
5.5
 21
9.81499
 31
0.0
  0
LINE
  5
2F3
  8
0
 10
5.5
 20
9.81499
 30
0.0
 11
6.5
 21
9.81499
 31
0.0
  0
LINE
  5
2F4
  8
0
 10
6.5
 20
9.81499
 30
0.0
 11
6.5
 21
9.78499
 31
0.0
  0
LINE
  5
2F5
  8
0
 10
6.5
 20
9.78499
 30
0.0
 11
5.5
 21
9.78499
 31
0.0
  0
LINE
  5
2F6
  8
0
 10
5.5
 20
9.745
 30
0.0
 11
5.5
 21
9.77499
 31
0.0
  0
LINE
  5
2F7
  8
0
 10
5.5
 20
9.77499
 30
0.0
 11
6.5
 21
9.77499
 31
0.0
  0
LINE
  5
2F8
  8
0
 10
6.5
 20
9.77499
 30
0.0
 11
6.5
 21
9.745
 31
0.0
  0
LINE
  5
2F9
  8
0
 10
6.5
 20
9.745
 30
0.0
 11
5.5
 21
9.745
 31
0.0
  0
LINE
  5
2FA
  8
0
 10
5.5
 20
9.70499
 30
0.0
 11
5.5
 21
9.73499
 31
0.0
  0
LINE
  5
2FB
  8
0
 10
5.5
 20
9.73499
 30
0.0
 11
6.5
 21
9.73499
 31
0.0
  0
LINE
  5
2FC
  8
0
 10
6.5
 20
9.73499
 30
0.0
 11
6.5
 21
9.70499
 31
0.0
  0
LINE
  5
2FD
  8
0
 10
6.5
 20
9.70499
 30
0.0
 11
5.5
 21
9.70499
 31
0.0
  0
LINE
  5
2FE
  8
0
 10
5.5
 20
9.66499
 30
0.0
 11
5.5
 21
9.69499
 31
0.0
  0
LINE
  5
2FF
  8
0
 10
5.5
 20
9.69499
 30
0.0
 11
6.5
 21
9.69499
 31
0.0
  0
LINE
  5
300
  8
0
 10
6.5
 20
9.69499
 30
0.0
 11
6.5
 21
9.66499
 31
0.0
  0
LINE
  5
301
  8
0
 10
6.5
 20
9.66499
 30
0.0
 11
5.5
 21
9.66499
 31
0.0
  0
LINE
  5
302
  8
0
 10
5.5
 20
9.625
 30
0.0
 11
5.5
 21
9.655
 31
0.0
  0
LINE
  5
303
  8
0
 10
5.5
 20
9.655
 30
0.0
 11
6.5
 21
9.655
 31
0.0
  0
LINE
  5
304
  8
0
 10
6.5
 20
9.655
 30
0.0
 11
6.5
 21
9.625
 31
0.0
  0
LINE
  5
305
  8
0
 10
6.5
 20
9.625
 30
0.0
 11
5.5
 21
9.625
 31
0.0
  0
LINE
  5
306
  8
0
 10
5.5
 20
9.58499
 30
0.0
 11
5.5
 21
9.61499
 31
0.0
  0
LINE
  5
307
  8
0
 10
5.5
 20
9.61499
 30
0.0
 11
6.5
 21
9.61499
 31
0.0
  0
LINE
  5
308
  8
0
 10
6.5
 20
9.61499
 30
0.0
 11
6.5
 21
9.58499
 31
0.0
  0
LINE
  5
309
  8
0
 10
6.5
 20
9.58499
 30
0.0
 11
5.5
 21
9.58499
 31
0.0
  0
LINE
  5
30A
  8
0
 10
5.5
 20
9.545
 30
0.0
 11
5.5
 21
9.575
 31
0.0
  0
LINE
  5
30B
  8
0
 10
5.5
 20
9.575
 30
0.0
 11
6.5
 21
9.575
 31
0.0
  0
LINE
  5
30C
  8
0
 10
6.5
 20
9.575
 30
0.0
 11
6.5
 21
9.545
 31
0.0
  0
LINE
  5
30D
  8
0
 10
6.5
 20
9.545
 30
0.0
 11
5.5
 21
9.545
 31
0.0
  0
LINE
  5
30E
  8
0
 10
5.5
 20
9.50499
 30
0.0
 11
5.5
 21
9.53499
 31
0.0
  0
LINE
  5
30F
  8
0
 10
5.5
 20
9.53499
 30
0.0
 11
6.5
 21
9.53499
 31
0.0
  0
LINE
  5
310
  8
0
 10
6.5
 20
9.53499
 30
0.0
 11
6.5
 21
9.50499
 31
0.0
  0
LINE
  5
311
  8
0
 10
6.5
 20
9.50499
 30
0.0
 11
5.5
 21
9.50499
 31
0.0
  0
LINE
  5
312
  8
0
 10
5.5
 20
9.465
 30
0.0
 11
5.5
 21
9.495
 31
0.0
  0
LINE
  5
313
  8
0
 10
5.5
 20
9.495
 30
0.0
 11
6.5
 21
9.495
 31
0.0
  0
LINE
  5
314
  8
0
 10
6.5
 20
9.495
 30
0.0
 11
6.5
 21
9.465
 31
0.0
  0
LINE
  5
315
  8
0
 10
6.5
 20
9.465
 30
0.0
 11
5.5
 21
9.465
 31
0.0
  0
LINE
  5
316
  8
0
 10
5.5
 20
9.42499
 30
0.0
 11
5.5
 21
9.45499
 31
0.0
  0
LINE
  5
317
  8
0
 10
5.5
 20
9.45499
 30
0.0
 11
6.5
 21
9.45499
 31
0.0
  0
LINE
  5
318
  8
0
 10
6.5
 20
9.45499
 30
0.0
 11
6.5
 21
9.42499
 31
0.0
  0
LINE
  5
319
  8
0
 10
6.5
 20
9.42499
 30
0.0
 11
5.5
 21
9.42499
 31
0.0
  0
LINE
  5
31A
  8
0
 10
5.5
 20
9.38499
 30
0.0
 11
5.5
 21
9.41499
 31
0.0
  0
LINE
  5
31B
  8
0
 10
5.5
 20
9.41499
 30
0.0
 11
6.5
 21
9.41499
 31
0.0
  0
LINE
  5
31C
  8
0
 10
6.5
 20
9.41499
 30
0.0
 11
6.5
 21
9.38499
 31
0.0
  0
LINE
  5
31D
  8
0
 10
6.5
 20
9.38499
 30
0.0
 11
5.5
 21
9.38499
 31
0.0
  0
LINE
  5
31E
  8
0
 10
5.5
 20
9.34499
 30
0.0
 11
5.5
 21
9.375
 31
0.0
  0
LINE
  5
31F
  8
0
 10
5.5
 20
9.375
 30
0.0
 11
6.5
 21
9.375
 31
0.0
  0
LINE
  5
320
  8
0
 10
6.5
 20
9.375
 30
0.0
 11
6.5
 21
9.34499
 31
0.0
  0
LINE
  5
321
  8
0
 10
6.5
 20
9.34499
 30
0.0
 11
5.5
 21
9.34499
 31
0.0
  0
LINE
  5
322
  8
0
 10
5.5
 20
9.30499
 30
0.0
 11
5.5
 21
9.33499
 31
0.0
  0
LINE
  5
323
  8
0
 10
5.5
 20
9.33499
 30
0.0
 11
6.5
 21
9.33499
 31
0.0
  0
LINE
  5
324
  8
0
 10
6.5
 20
9.33499
 30
0.0
 11
6.5
 21
9.30499
 31
0.0
  0
LINE
  5
325
  8
0
 10
6.5
 20
9.30499
 30
0.0
 11
5.5
 21
9.30499
 31
0.0
  0
LINE
  5
326
  8
0
 10
5.5
 20
9.265
 30
0.0
 11
5.5
 21
9.295
 31
0.0
  0
LINE
  5
327
  8
0
 10
5.5
 20
9.295
 30
0.0
 11
6.5
 21
9.295
 31
0.0
  0
LINE
  5
328
  8
0
 10
6.5
 20
9.295
 30
0.0
 11
6.5
 21
9.265
 31
0.0
  0
LINE
  5
329
  8
0
 10
6.5
 20
9.265
 30
0.0
 11
5.5
 21
9.265
 31
0.0
  0
LINE
  5
32A
  8
0
 10
5.5
 20
9.22499
 30
0.0
 11
5.5
 21
9.25499
 31
0.0
  0
LINE
  5
32B
  8
0
 10
5.5
 20
9.25499
 30
0.0
 11
6.5
 21
9.25499
 31
0.0
  0
LINE
  5
32C
  8
0
 10
6.5
 20
9.25499
 30
0.0
 11
6.5
 21
9.22499
 31
0.0
  0
LINE
  5
32D
  8
0
 10
6.5
 20
9.22499
 30
0.0
 11
5.5
 21
9.22499
 31
0.0
  0
LINE
  5
32E
  8
0
 10
5.5
 20
9.185
 30
0.0
 11
5.5
 21
9.215
 31
0.0
  0
LINE
  5
32F
  8
0
 10
5.5
 20
9.215
 30
0.0
 11
6.5
 21
9.215
 31
0.0
  0
LINE
  5
330
  8
0
 10
6.5
 20
9.215
 30
0.0
 11
6.5
 21
9.185
 31
0.0
  0
LINE
  5
331
  8
0
 10
6.5
 20
9.185
 30
0.0
 11
5.5
 21
9.185
 31
0.0
  0
LINE
  5
332
  8
0
 10
5.5
 20
9.14499
 30
0.0
 11
5.5
 21
9.17499
 31
0.0
  0
LINE
  5
333
  8
0
 10
5.5
 20
9.17499
 30
0.0
 11
6.5
 21
9.17499
 31
0.0
  0
LINE
  5
334
  8
0
 10
6.5
 20
9.17499
 30
0.0
 11
6.5
 21
9.14499
 31
0.0
  0
LINE
  5
335
  8
0
 10
6.5
 20
9.14499
 30
0.0
 11
5.5
 21
9.14499
 31
0.0
  0
LINE
  5
336
  8
0
 10
5.5
 20
9.105
 30
0.0
 11
5.5
 21
9.13499
 31
0.0
  0
LINE
  5
337
  8
0
 10
5.5
 20
9.13499
 30
0.0
 11
6.5
 21
9.13499
 31
0.0
  0
LINE
  5
338
  8
0
 10
6.5
 20
9.13499
 30
0.0
 11
6.5
 21
9.105
 31
0.0
  0
LINE
  5
339
  8
0
 10
6.5
 20
9.105
 30
0.0
 11
5.5
 21
9.105
 31
0.0
  0
LINE
  5
33A
  8
0
 10
5.5
 20
9.06499
 30
0.0
 11
5.5
 21
9.09499
 31
0.0
  0
LINE
  5
33B
  8
0
 10
5.5
 20
9.09499
 30
0.0
 11
6.5
 21
9.09499
 31
0.0
  0
LINE
  5
33C
  8
0
 10
6.5
 20
9.09499
 30
0.0
 11
6.5
 21
9.06499
 31
0.0
  0
LINE
  5
33D
  8
0
 10
6.5
 20
9.06499
 30
0.0
 11
5.5
 21
9.06499
 31
0.0
  0
LINE
  5
33E
  8
0
 10
5.5
 20
9.02499
 30
0.0
 11
5.5
 21
9.05499
 31
0.0
  0
LINE
  5
33F
  8
0
 10
5.5
 20
9.05499
 30
0.0
 11
6.5
 21
9.05499
 31
0.0
  0
LINE
  5
340
  8
0
 10
6.5
 20
9.05499
 30
0.0
 11
6.5
 21
9.02499
 31
0.0
  0
LINE
  5
341
  8
0
 10
6.5
 20
9.02499
 30
0.0
 11
5.5
 21
9.02499
 31
0.0
  0
LINE
  5
342
  8
0
 10
5.5
 20
8.985
 30
0.0
 11
5.5
 21
9.015
 31
0.0
  0
LINE
  5
343
  8
0
 10
5.5
 20
9.015
 30
0.0
 11
6.5
 21
9.015
 31
0.0
  0
LINE
  5
344
  8
0
 10
6.5
 20
9.015
 30
0.0
 11
6.5
 21
8.985
 31
0.0
  0
LINE
  5
345
  8
0
 10
6.5
 20
8.985
 30
0.0
 11
5.5
 21
8.985
 31
0.0
  0
LINE
  5
346
  8
0
 10
5.5
 20
8.94501
 30
0.0
 11
5.5
 21
8.97501
 31
0.0
  0
LINE
  5
347
  8
0
 10
5.5
 20
8.97501
 30
0.0
 11
6.5
 21
8.97501
 31
0.0
  0
LINE
  5
348
  8
0
 10
6.5
 20
8.97501
 30
0.0
 11
6.5
 21
8.94501
 31
0.0
  0
LINE
  5
349
  8
0
 10
6.5
 20
8.94501
 30
0.0
 11
5.5
 21
8.94501
 31
0.0
  0
LINE
  5
34A
  8
0
 10
5.5
 20
8.90501
 30
0.0
 11
5.5
 21
8.93501
 31
0.0
  0
LINE
  5
34B
  8
0
 10
5.5
 20
8.93501
 30
0.0
 11
6.5
 21
8.93501
 31
0.0
  0
LINE
  5
34C
  8
0
 10
6.5
 20
8.93501
 30
0.0
 11
6.5
 21
8.90501
 31
0.0
  0
LINE
  5
34D
  8
0
 10
6.5
 20
8.90501
 30
0.0
 11
5.5
 21
8.90501
 31
0.0
  0
LINE
  5
34E
  8
0
 10
5.5
 20
8.86501
 30
0.0
 11
5.5
 21
8.895
 31
0.0
  0
LINE
  5
34F
  8
0
 10
5.5
 20
8.895
 30
0.0
 11
6.5
 21
8.895
 31
0.0
  0
LINE
  5
350
  8
0
 10
6.5
 20
8.895
 30
0.0
 11
6.5
 21
8.86501
 31
0.0
  0
LINE
  5
351
  8
0
 10
6.5
 20
8.86501
 30
0.0
 11
5.5
 21
8.86501
 31
0.0
  0
LINE
  5
352
  8
0
 10
5.5
 20
8.82501
 30
0.0
 11
5.5
 21
8.85501
 31
0.0
  0
LINE
  5
353
  8
0
 10
5.5
 20
8.85501
 30
0.0
 11
6.5
 21
8.85501
 31
0.0
  0
LINE
  5
354
  8
0
 10
6.5
 20
8.85501
 30
0.0
 11
6.5
 21
8.82501
 31
0.0
  0
LINE
  5
355
  8
0
 10
6.5
 20
8.82501
 30
0.0
 11
5.5
 21
8.82501
 31
0.0
  0
LINE
  5
356
  8
0
 10
5.5
 20
8.785
 30
0.0
 11
5.5
 21
8.815
 31
0.0
  0
LINE
  5
357
  8
0
 10
5.5
 20
8.815
 30
0.0
 11
6.5
 21
8.815
 31
0.0
  0
LINE
  5
358
  8
0
 10
6.5
 20
8.815
 30
0.0
 11
6.5
 21
8.785
 31
0.0
  0
LINE
  5
359
  8
0
 10
6.5
 20
8.785
 30
0.0
 11
5.5
 21
8.785
 31
0.0
  0
LINE
  5
35A
  8
0
 10
5.5
 20
8.74501
 30
0.0
 11
5.5
 21
8.77501
 31
0.0
  0
LINE
  5
35B
  8
0
 10
5.5
 20
8.77501
 30
0.0
 11
6.5
 21
8.77501
 31
0.0
  0
LINE
  5
35C
  8
0
 10
6.5
 20
8.77501
 30
0.0
 11
6.5
 21
8.74501
 31
0.0
  0
LINE
  5
35D
  8
0
 10
6.5
 20
8.74501
 30
0.0
 11
5.5
 21
8.74501
 31
0.0
  0
LINE
  5
35E
  8
0
 10
5.5
 20
8.705
 30
0.0
 11
5.5
 21
8.735
 31
0.0
  0
LINE
  5
35F
  8
0
 10
5.5
 20
8.735
 30
0.0
 11
6.5
 21
8.735
 31
0.0
  0
LINE
  5
360
  8
0
 10
6.5
 20
8.735
 30
0.0
 11
6.5
 21
8.705
 31
0.0
  0
LINE
  5
361
  8
0
 10
6.5
 20
8.705
 30
0.0
 11
5.5
 21
8.705
 31
0.0
  0
LINE
  5
362
  8
0
 10
5.5
 20
8.66501
 30
0.0
 11
5.5
 21
8.69501
 31
0.0
  0
LINE
  5
363
  8
0
 10
5.5
 20
8.69501
 30
0.0
 11
6.5
 21
8.69501
 31
0.0
  0
LINE
  5
364
  8
0
 10
6.5
 20
8.69501
 30
0.0
 11
6.5
 21
8.66501
 31
0.0
  0
LINE
  5
365
  8
0
 10
6.5
 20
8.66501
 30
0.0
 11
5.5
 21
8.66501
 31
0.0
  0
LINE
  5
366
  8
0
 10
5.5
 20
8.625
 30
0.0
 11
5.5
 21
8.65501
 31
0.0
  0
LINE
  5
367
  8
0
 10
5.5
 20
8.65501
 30
0.0
 11
6.5
 21
8.65501
 31
0.0
  0
LINE
  5
368
  8
0
 10
6.5
 20
8.65501
 30
0.0
 11
6.5
 21
8.625
 31
0.0
  0
LINE
  5
369
  8
0
 10
6.5
 20
8.625
 30
0.0
 11
5.5
 21
8.625
 31
0.0
  0
LINE
  5
36A
  8
0
 10
5.5
 20
8.58501
 30
0.0
 11
5.5
 21
8.61501
 31
0.0
  0
LINE
  5
36B
  8
0
 10
5.5
 20
8.61501
 30
0.0
 11
6.5
 21
8.61501
 31
0.0
  0
LINE
  5
36C
  8
0
 10
6.5
 20
8.61501
 30
0.0
 11
6.5
 21
8.58501
 31
0.0
  0
LINE
  5
36D
  8
0
 10
6.5
 20
8.58501
 30
0.0
 11
5.5
 21
8.58501
 31
0.0
  0
LINE
  5
36E
  8
0
 10
5.5
 20
8.54501
 30
0.0
 11
5.5
 21
8.57501
 31
0.0
  0
LINE
  5
36F
  8
0
 10
5.5
 20
8.57501
 30
0.0
 11
6.5
 21
8.57501
 31
0.0
  0
LINE
  5
370
  8
0
 10
6.5
 20
8.57501
 30
0.0
 11
6.5
 21
8.54501
 31
0.0
  0
LINE
  5
371
  8
0
 10
6.5
 20
8.54501
 30
0.0
 11
5.5
 21
8.54501
 31
0.0
  0
LINE
  5
372
  8
0
 10
5.5
 20
8.505
 30
0.0
 11
5.5
 21
8.535
 31
0.0
  0
LINE
  5
373
  8
0
 10
5.5
 20
8.535
 30
0.0
 11
6.5
 21
8.535
 31
0.0
  0
LINE
  5
374
  8
0
 10
6.5
 20
8.535
 30
0.0
 11
6.5
 21
8.505
 31
0.0
  0
LINE
  5
375
  8
0
 10
6.5
 20
8.505
 30
0.0
 11
5.5
 21
8.505
 31
0.0
  0
LINE
  5
376
  8
0
 10
5.5
 20
8.46501
 30
0.0
 11
5.5
 21
8.49501
 31
0.0
  0
LINE
  5
377
  8
0
 10
5.5
 20
8.49501
 30
0.0
 11
6.5
 21
8.49501
 31
0.0
  0
LINE
  5
378
  8
0
 10
6.5
 20
8.49501
 30
0.0
 11
6.5
 21
8.46501
 31
0.0
  0
LINE
  5
379
  8
0
 10
6.5
 20
8.46501
 30
0.0
 11
5.5
 21
8.46501
 31
0.0
  0
LINE
  5
37A
  8
0
 10
5.5
 20
8.425
 30
0.0
 11
5.5
 21
8.455
 31
0.0
  0
LINE
  5
37B
  8
0
 10
5.5
 20
8.455
 30
0.0
 11
6.5
 21
8.455
 31
0.0
  0
LINE
  5
37C
  8
0
 10
6.5
 20
8.455
 30
0.0
 11
6.5
 21
8.425
 31
0.0
  0
LINE
  5
37D
  8
0
 10
6.5
 20
8.425
 30
0.0
 11
5.5
 21
8.425
 31
0.0
  0
LINE
  5
37E
  8
0
 10
5.5
 20
8.38501
 30
0.0
 11
5.5
 21
8.41501
 31
0.0
  0
LINE
  5
37F
  8
0
 10
5.5
 20
8.41501
 30
0.0
 11
6.5
 21
8.41501
 31
0.0
  0
LINE
  5
380
  8
0
 10
6.5
 20
8.41501
 30
0.0
 11
6.5
 21
8.38501
 31
0.0
  0
LINE
  5
381
  8
0
 10
6.5
 20
8.38501
 30
0.0
 11
5.5
 21
8.38501
 31
0.0
  0
LINE
  5
382
  8
0
 10
5.5
 20
8.345
 30
0.0
 11
5.5
 21
8.375
 31
0.0
  0
LINE
  5
383
  8
0
 10
5.5
 20
8.375
 30
0.0
 11
6.5
 21
8.375
 31
0.0
  0
LINE
  5
384
  8
0
 10
6.5
 20
8.375
 30
0.0
 11
6.5
 21
8.345
 31
0.0
  0
LINE
  5
385
  8
0
 10
6.5
 20
8.345
 30
0.0
 11
5.5
 21
8.345
 31
0.0
  0
LINE
  5
386
  8
0
 10
5.5
 20
8.30501
 30
0.0
 11
5.5
 21
8.33501
 31
0.0
  0
LINE
  5
387
  8
0
 10
5.5
 20
8.33501
 30
0.0
 11
6.5
 21
8.33501
 31
0.0
  0
LINE
  5
388
  8
0
 10
6.5
 20
8.33501
 30
0.0
 11
6.5
 21
8.30501
 31
0.0
  0
LINE
  5
389
  8
0
 10
6.5
 20
8.30501
 30
0.0
 11
5.5
 21
8.30501
 31
0.0
  0
LINE
  5
38A
  8
0
 10
5.5
 20
8.26501
 30
0.0
 11
5.5
 21
8.29501
 31
0.0
  0
LINE
  5
38B
  8
0
 10
5.5
 20
8.29501
 30
0.0
 11
6.5
 21
8.29501
 31
0.0
  0
LINE
  5
38C
  8
0
 10
6.5
 20
8.29501
 30
0.0
 11
6.5
 21
8.26501
 31
0.0
  0
LINE
  5
38D
  8
0
 10
6.5
 20
8.26501
 30
0.0
 11
5.5
 21
8.26501
 31
0.0
  0
LINE
  5
38E
  8
0
 10
5.5
 20
8.22501
 30
0.0
 11
5.5
 21
8.255
 31
0.0
  0
LINE
  5
38F
  8
0
 10
5.5
 20
8.255
 30
0.0
 11
6.5
 21
8.255
 31
0.0
  0
LINE
  5
390
  8
0
 10
6.5
 20
8.255
 30
0.0
 11
6.5
 21
8.22501
 31
0.0
  0
LINE
  5
391
  8
0
 10
6.5
 20
8.22501
 30
0.0
 11
5.5
 21
8.22501
 31
0.0
  0
LINE
  5
392
  8
0
 10
5.5
 20
8.18501
 30
0.0
 11
5.5
 21
8.21501
 31
0.0
  0
LINE
  5
393
  8
0
 10
5.5
 20
8.21501
 30
0.0
 11
6.5
 21
8.21501
 31
0.0
  0
LINE
  5
394
  8
0
 10
6.5
 20
8.21501
 30
0.0
 11
6.5
 21
8.18501
 31
0.0
  0
LINE
  5
395
  8
0
 10
6.5
 20
8.18501
 30
0.0
 11
5.5
 21
8.18501
 31
0.0
  0
LINE
  5
396
  8
0
 10
5.5
 20
8.145
 30
0.0
 11
5.5
 21
8.175
 31
0.0
  0
LINE
  5
397
  8
0
 10
5.5
 20
8.175
 30
0.0
 11
6.5
 21
8.175
 31
0.0
  0
LINE
  5
398
  8
0
 10
6.5
 20
8.175
 30
0.0
 11
6.5
 21
8.145
 31
0.0
  0
LINE
  5
399
  8
0
 10
6.5
 20
8.145
 30
0.0
 11
5.5
 21
8.145
 31
0.0
  0
LINE
  5
39A
  8
0
 10
5.5
 20
8.10501
 30
0.0
 11
5.5
 21
8.13501
 31
0.0
  0
LINE
  5
39B
  8
0
 10
5.5
 20
8.13501
 30
0.0
 11
6.5
 21
8.13501
 31
0.0
  0
LINE
  5
39C
  8
0
 10
6.5
 20
8.13501
 30
0.0
 11
6.5
 21
8.10501
 31
0.0
  0
LINE
  5
39D
  8
0
 10
6.5
 20
8.10501
 30
0.0
 11
5.5
 21
8.10501
 31
0.0
  0
LINE
  5
39E
  8
0
 10
5.5
 20
8.065
 30
0.0
 11
5.5
 21
8.095
 31
0.0
  0
LINE
  5
39F
  8
0
 10
5.5
 20
8.095
 30
0.0
 11
6.5
 21
8.095
 31
0.0
  0
LINE
  5
3A0
  8
0
 10
6.5
 20
8.095
 30
0.0
 11
6.5
 21
8.065
 31
0.0
  0
LINE
  5
3A1
  8
0
 10
6.5
 20
8.065
 30
0.0
 11
5.5
 21
8.065
 31
0.0
  0
LINE
  5
3A2
  8
0
 10
5.5
 20
8.02501
 30
0.0
 11
5.5
 21
8.05501
 31
0.0
  0
LINE
  5
3A3
  8
0
 10
5.5
 20
8.05501
 30
0.0
 11
6.5
 21
8.05501
 31
0.0
  0
LINE
  5
3A4
  8
0
 10
6.5
 20
8.05501
 30
0.0
 11
6.5
 21
8.02501
 31
0.0
  0
LINE
  5
3A5
  8
0
 10
6.5
 20
8.02501
 30
0.0
 11
5.5
 21
8.02501
 31
0.0
  0
LINE
  5
3A6
  8
0
 10
5.5
 20
2.01501
 30
0.0
 11
6.5
 21
2.01501
 31
0.0
  0
LINE
  5
3A7
  8
0
 10
6.5
 20
2.01501
 30
0.0
 11
6.5
 21
1.0
 31
0.0
  0
LINE
  5
3A8
  8
0
 10
6.5
 20
1.0
 30
0.0
 11
9.0
 21
1.0
 31
0.0
  0
LINE
  5
3A9
  8
0
 10
9.0
 20
1.0
 30
0.0
 11
9.19603
 21
1.00964
 31
0.0
  0
LINE
  5
3AA
  8
0
 10
9.19603
 20
1.00964
 30
0.0
 11
9.39017
 21
1.03844
 31
0.0
  0
LINE
  5
3AB
  8
0
 10
9.39017
 20
1.03844
 30
0.0
 11
9.58057
 21
1.08612
 31
0.0
  0
LINE
  5
3AC
  8
0
 10
9.58057
 20
1.08612
 30
0.0
 11
9.76537
 21
1.15225
 31
0.0
  0
LINE
  5
3AD
  8
0
 10
9.76537
 20
1.15225
 30
0.0
 11
9.94278
 21
1.23616
 31
0.0
  0
LINE
  5
3AE
  8
0
 10
9.94278
 20
1.23616
 30
0.0
 11
10.1111
 21
1.33707
 31
0.0
  0
LINE
  5
3AF
  8
0
 10
10.1111
 20
1.33707
 30
0.0
 11
10.2688
 21
1.45398
 31
0.0
  0
LINE
  5
3B0
  8
0
 10
10.2688
 20
1.45398
 30
0.0
 11
10.4142
 21
1.5858
 31
0.0
  0
LINE
  5
3B1
  8
0
 10
10.4142
 20
1.5858
 30
0.0
 11
10.546
 21
1.73122
 31
0.0
  0
LINE
  5
3B2
  8
0
 10
10.546
 20
1.73122
 30
0.0
 11
10.6629
 21
1.88887
 31
0.0
  0
LINE
  5
3B3
  8
0
 10
10.6629
 20
1.88887
 30
0.0
 11
10.7638
 21
2.05722
 31
0.0
  0
LINE
  5
3B4
  8
0
 10
10.7638
 20
2.05722
 30
0.0
 11
10.8477
 21
2.23463
 31
0.0
  0
LINE
  5
3B5
  8
0
 10
10.8477
 20
2.23463
 30
0.0
 11
10.9139
 21
2.41943
 31
0.0
  0
LINE
  5
3B6
  8
0
 10
10.9139
 20
2.41943
 30
0.0
 11
10.9616
 21
2.60983
 31
0.0
  0
LINE
  5
3B7
  8
0
 10
10.9616
 20
2.60983
 30
0.0
 11
10.9904
 21
2.80397
 31
0.0
  0
LINE
  5
3B8
  8
0
 10
10.9904
 20
2.80397
 30
0.0
 11
11.0
 21
3.0
 31
0.0
  0
LINE
  5
3B9
  8
0
 10
11.0
 20
3.0
 30
0.0
 11
10.9904
 21
3.19603
 31
0.0
  0
LINE
  5
3BA
  8
0
 10
10.9904
 20
3.19603
 30
0.0
 11
10.9616
 21
3.39017
 31
0.0
  0
LINE
  5
3BB
  8
0
 10
10.9616
 20
3.39017
 30
0.0
 11
10.9139
 21
3.58057
 31
0.0
  0
LINE
  5
3BC
  8
0
 10
10.9139
 20
3.58057
 30
0.0
 11
10.8477
 21
3.76537
 31
0.0
  0
LINE
  5
3BD
  8
0
 10
10.8477
 20
3.76537
 30
0.0
 11
10.7638
 21
3.94278
 31
0.0
  0
LINE
  5
3BE
  8
0
 10
10.7638
 20
3.94278
 30
0.0
 11
10.6629
 21
4.11113
 31
0.0
  0
LINE
  5
3BF
  8
0
 10
10.6629
 20
4.11113
 30
0.0
 11
10.546
 21
4.26878
 31
0.0
  0
LINE
  5
3C0
  8
0
 10
10.546
 20
4.26878
 30
0.0
 11
10.4142
 21
4.4142
 31
0.0
  0
LINE
  5
3C1
  8
0
 10
10.4142
 20
4.4142
 30
0.0
 11
10.2688
 21
4.54602
 31
0.0
  0
LINE
  5
3C2
  8
0
 10
10.2688
 20
4.54602
 30
0.0
 11
10.1111
 21
4.66293
 31
0.0
  0
LINE
  5
3C3
  8
0
 10
10.1111
 20
4.66293
 30
0.0
 11
9.94278
 21
4.76384
 31
0.0
  0
LINE
  5
3C4
  8
0
 10
9.94278
 20
4.76384
 30
0.0
 11
9.76537
 21
4.84775
 31
0.0
  0
LINE
  5
3C5
  8
0
 10
9.76537
 20
4.84775
 30
0.0
 11
9.58057
 21
4.91388
 31
0.0
  0
LINE
  5
3C6
  8
0
 10
9.58057
 20
4.91388
 30
0.0
 11
9.39017
 21
4.96156
 31
0.0
  0
LINE
  5
3C7
  8
0
 10
9.39017
 20
4.96156
 30
0.0
 11
9.19603
 21
4.99036
 31
0.0
  0
LINE
  5
3C8
  8
0
 10
9.19603
 20
4.99036
 30
0.0
 11
9.0
 21
5.0
 31
0.0
  0
LINE
  5
3C9
  8
0
 10
9.0
 20
5.0
 30
0.0
 11
6.5
 21
5.0
 31
0.0
  0
LINE
  5
3CA
  8
0
 10
6.5
 20
5.0
 30
0.0
 11
6.5
 21
3.98499
 31
0.0
  0
LINE
  5
3CB
  8
0
 10
6.5
 20
3.98499
 30
0.0
 11
5.5
 21
3.98499
 31
0.0
  0
LINE
  5
3CC
  8
0
 10
5.5
 20
3.98499
 30
0.0
 11
5.5
 21
5.0
 31
0.0
  0
LINE
  5
3CD
  8
0
 10
5.5
 20
5.0
 30
0.0
 11
3.0
 21
5.0
 31
0.0
  0
LINE
  5
3CE
  8
0
 10
3.0
 20
5.0
 30
0.0
 11
2.80397
 21
4.99036
 31
0.0
  0
LINE
  5
3CF
  8
0
 10
2.80397
 20
4.99036
 30
0.0
 11
2.60983
 21
4.96156
 31
0.0
  0
LINE
  5
3D0
  8
0
 10
2.60983
 20
4.96156
 30
0.0
 11
2.41943
 21
4.91388
 31
0.0
  0
LINE
  5
3D1
  8
0
 10
2.41943
 20
4.91388
 30
0.0
 11
2.23463
 21
4.84775
 31
0.0
  0
LINE
  5
3D2
  8
0
 10
2.23463
 20
4.84775
 30
0.0
 11
2.05722
 21
4.76384
 31
0.0
  0
LINE
  5
3D3
  8
0
 10
2.05722
 20
4.76384
 30
0.0
 11
1.88887
 21
4.66293
 31
0.0
  0
LINE
  5
3D4
  8
0
 10
1.88887
 20
4.66293
 30
0.0
 11
1.73122
 21
4.54602
 31
0.0
  0
LINE
  5
3D5
  8
0
 10
1.73122
 20
4.54602
 30
0.0
 11
1.5858
 21
4.4142
 31
0.0
  0
LINE
  5
3D6
  8
0
 10
1.5858
 20
4.4142
 30
0.0
 11
1.45398
 21
4.26878
 31
0.0
  0
LINE
  5
3D7
  8
0
 10
1.45398
 20
4.26878
 30
0.0
 11
1.33707
 21
4.11113
 31
0.0
  0
LINE
  5
3D8
  8
0
 10
1.33707
 20
4.11113
 30
0.0
 11
1.23616
 21
3.94278
 31
0.0
  0
LINE
  5
3D9
  8
0
 10
1.23616
 20
3.94278
 30
0.0
 11
1.15225
 21
3.76537
 31
0.0
  0
LINE
  5
3DA
  8
0
 10
1.15225
 20
3.76537
 30
0.0
 11
1.08612
 21
3.58057
 31
0.0
  0
LINE
  5
3DB
  8
0
 10
1.08612
 20
3.58057
 30
0.0
 11
1.03844
 21
3.39017
 31
0.0
  0
LINE
  5
3DC
  8
0
 10
1.03844
 20
3.39017
 30
0.0
 11
1.00964
 21
3.19603
 31
0.0
  0
LINE
  5
3DD
  8
0
 10
1.00964
 20
3.19603
 30
0.0
 11
1.0
 21
3.0
 31
0.0
  0
LINE
  5
3DE
  8
0
 10
1.0
 20
3.0
 30
0.0
 11
1.00964
 21
2.80397
 31
0.0
  0
LINE
  5
3DF
  8
0
 10
1.00964
 20
2.80397
 30
0.0
 11
1.03844
 21
2.60983
 31
0.0
  0
LINE
  5
3E0
  8
0
 10
1.03844
 20
2.60983
 30
0.0
 11
1.08612
 21
2.41943
 31
0.0
  0
LINE
  5
3E1
  8
0
 10
1.08612
 20
2.41943
 30
0.0
 11
1.15225
 21
2.23463
 31
0.0
  0
LINE
  5
3E2
  8
0
 10
1.15225
 20
2.23463
 30
0.0
 11
1.23616
 21
2.05722
 31
0.0
  0
LINE
  5
3E3
  8
0
 10
1.23616
 20
2.05722
 30
0.0
 11
1.33707
 21
1.88887
 31
0.0
  0
LINE
  5
3E4
  8
0
 10
1.33707
 20
1.88887
 30
0.0
 11
1.45398
 21
1.73122
 31
0.0
  0
LINE
  5
3E5
  8
0
 10
1.45398
 20
1.73122
 30
0.0
 11
1.5858
 21
1.5858
 31
0.0
  0
LINE
  5
3E6
  8
0
 10
1.5858
 20
1.5858
 30
0.0
 11
1.73122
 21
1.45398
 31
0.0
  0
LINE
  5
3E7
  8
0
 10
1.73122
 20
1.45398
 30
0.0
 11
1.88887
 21
1.33707
 31
0.0
  0
LINE
  5
3E8
  8
0
 10
1.88887
 20
1.33707
 30
0.0
 11
2.05722
 21
1.23616
 31
0.0
  0
LINE
  5
3E9
  8
0
 10
2.05722
 20
1.23616
 30
0.0
 11
2.23463
 21
1.15225
 31
0.0
  0
LINE
  5
3EA
  8
0
 10
2.23463
 20
1.15225
 30
0.0
 11
2.41943
 21
1.08612
 31
0.0
  0
LINE
  5
3EB
  8
0
 10
2.41943
 20
1.08612
 30
0.0
 11
2.60983
 21
1.03844
 31
0.0
  0
LINE
  5
3EC
  8
0
 10
2.60983
 20
1.03844
 30
0.0
 11
2.80397
 21
1.00964
 31
0.0
  0
LINE
  5
3ED
  8
0
 10
2.80397
 20
1.00964
 30
0.0
 11
3.0
 21
1.0
 31
0.0
  0
LINE
  5
3EE
  8
0
 10
3.0
 20
1.0
 30
0.0
 11
5.5
 21
1.0
 31
0.0
  0
LINE
  5
3EF
  8
0
 10
5.5
 20
1.0
 30
0.0
 11
5.5
 21
2.01501
 31
0.0
  0
LINE
  5
3F0
  8
0
 10
2.5
 20
2.0
 30
0.0
 11
2.5
 21
4.0
 31
0.0
  0
LINE
  5
3F1
  8
0
 10
2.5
 20
4.0
 30
0.0
 11
4.5
 21
4.0
 31
0.0
  0
LINE
  5
3F2
  8
0
 10
4.5
 20
4.0
 30
0.0
 11
4.5
 21
3.98499
 31
0.0
  0
LINE
  5
3F3
  8
0
 10
4.5
 20
3.98499
 30
0.0
 11
4.0
 21
3.98499
 31
0.0
  0
LINE
  5
3F4
  8
0
 10
4.0
 20
3.98499
 30
0.0
 11
4.0
 21
3.97499
 31
0.0
  0
LINE
  5
3F5
  8
0
 10
4.0
 20
3.97499
 30
0.0
 11
4.5
 21
3.97499
 31
0.0
  0
LINE
  5
3F6
  8
0
 10
4.5
 20
3.97499
 30
0.0
 11
4.5
 21
3.94499
 31
0.0
  0
LINE
  5
3F7
  8
0
 10
4.5
 20
3.94499
 30
0.0
 11
4.0
 21
3.94499
 31
0.0
  0
LINE
  5
3F8
  8
0
 10
4.0
 20
3.94499
 30
0.0
 11
4.0
 21
3.935
 31
0.0
  0
LINE
  5
3F9
  8
0
 10
4.0
 20
3.935
 30
0.0
 11
4.5
 21
3.935
 31
0.0
  0
LINE
  5
3FA
  8
0
 10
4.5
 20
3.935
 30
0.0
 11
4.5
 21
3.905
 31
0.0
  0
LINE
  5
3FB
  8
0
 10
4.5
 20
3.905
 30
0.0
 11
4.0
 21
3.905
 31
0.0
  0
LINE
  5
3FC
  8
0
 10
4.0
 20
3.905
 30
0.0
 11
4.0
 21
3.89499
 31
0.0
  0
LINE
  5
3FD
  8
0
 10
4.0
 20
3.89499
 30
0.0
 11
4.5
 21
3.89499
 31
0.0
  0
LINE
  5
3FE
  8
0
 10
4.5
 20
3.89499
 30
0.0
 11
4.5
 21
3.86499
 31
0.0
  0
LINE
  5
3FF
  8
0
 10
4.5
 20
3.86499
 30
0.0
 11
4.0
 21
3.86499
 31
0.0
  0
LINE
  5
400
  8
0
 10
4.0
 20
3.86499
 30
0.0
 11
4.0
 21
3.855
 31
0.0
  0
LINE
  5
401
  8
0
 10
4.0
 20
3.855
 30
0.0
 11
4.5
 21
3.855
 31
0.0
  0
LINE
  5
402
  8
0
 10
4.5
 20
3.855
 30
0.0
 11
4.5
 21
3.825
 31
0.0
  0
LINE
  5
403
  8
0
 10
4.5
 20
3.825
 30
0.0
 11
4.0
 21
3.825
 31
0.0
  0
LINE
  5
404
  8
0
 10
4.0
 20
3.825
 30
0.0
 11
4.0
 21
3.81499
 31
0.0
  0
LINE
  5
405
  8
0
 10
4.0
 20
3.81499
 30
0.0
 11
4.5
 21
3.81499
 31
0.0
  0
LINE
  5
406
  8
0
 10
4.5
 20
3.81499
 30
0.0
 11
4.5
 21
3.78499
 31
0.0
  0
LINE
  5
407
  8
0
 10
4.5
 20
3.78499
 30
0.0
 11
4.0
 21
3.78499
 31
0.0
  0
LINE
  5
408
  8
0
 10
4.0
 20
3.78499
 30
0.0
 11
4.0
 21
3.77499
 31
0.0
  0
LINE
  5
409
  8
0
 10
4.0
 20
3.77499
 30
0.0
 11
4.5
 21
3.77499
 31
0.0
  0
LINE
  5
40A
  8
0
 10
4.5
 20
3.77499
 30
0.0
 11
4.5
 21
3.745
 31
0.0
  0
LINE
  5
40B
  8
0
 10
4.5
 20
3.745
 30
0.0
 11
4.0
 21
3.745
 31
0.0
  0
LINE
  5
40C
  8
0
 10
4.0
 20
3.745
 30
0.0
 11
4.0
 21
3.73499
 31
0.0
  0
LINE
  5
40D
  8
0
 10
4.0
 20
3.73499
 30
0.0
 11
4.5
 21
3.73499
 31
0.0
  0
LINE
  5
40E
  8
0
 10
4.5
 20
3.73499
 30
0.0
 11
4.5
 21
3.70499
 31
0.0
  0
LINE
  5
40F
  8
0
 10
4.5
 20
3.70499
 30
0.0
 11
4.0
 21
3.70499
 31
0.0
  0
LINE
  5
410
  8
0
 10
4.0
 20
3.70499
 30
0.0
 11
4.0
 21
3.69499
 31
0.0
  0
LINE
  5
411
  8
0
 10
4.0
 20
3.69499
 30
0.0
 11
4.5
 21
3.69499
 31
0.0
  0
LINE
  5
412
  8
0
 10
4.5
 20
3.69499
 30
0.0
 11
4.5
 21
3.66499
 31
0.0
  0
LINE
  5
413
  8
0
 10
4.5
 20
3.66499
 30
0.0
 11
4.0
 21
3.66499
 31
0.0
  0
LINE
  5
414
  8
0
 10
4.0
 20
3.66499
 30
0.0
 11
4.0
 21
3.655
 31
0.0
  0
LINE
  5
415
  8
0
 10
4.0
 20
3.655
 30
0.0
 11
4.5
 21
3.655
 31
0.0
  0
LINE
  5
416
  8
0
 10
4.5
 20
3.655
 30
0.0
 11
4.5
 21
3.625
 31
0.0
  0
LINE
  5
417
  8
0
 10
4.5
 20
3.625
 30
0.0
 11
4.0
 21
3.625
 31
0.0
  0
LINE
  5
418
  8
0
 10
4.0
 20
3.625
 30
0.0
 11
4.0
 21
3.61499
 31
0.0
  0
LINE
  5
419
  8
0
 10
4.0
 20
3.61499
 30
0.0
 11
4.5
 21
3.61499
 31
0.0
  0
LINE
  5
41A
  8
0
 10
4.5
 20
3.61499
 30
0.0
 11
4.5
 21
3.58499
 31
0.0
  0
LINE
  5
41B
  8
0
 10
4.5
 20
3.58499
 30
0.0
 11
4.0
 21
3.58499
 31
0.0
  0
LINE
  5
41C
  8
0
 10
4.0
 20
3.58499
 30
0.0
 11
4.0
 21
3.575
 31
0.0
  0
LINE
  5
41D
  8
0
 10
4.0
 20
3.575
 30
0.0
 11
4.5
 21
3.575
 31
0.0
  0
LINE
  5
41E
  8
0
 10
4.5
 20
3.575
 30
0.0
 11
4.5
 21
3.545
 31
0.0
  0
LINE
  5
41F
  8
0
 10
4.5
 20
3.545
 30
0.0
 11
4.0
 21
3.545
 31
0.0
  0
LINE
  5
420
  8
0
 10
4.0
 20
3.545
 30
0.0
 11
4.0
 21
3.53499
 31
0.0
  0
LINE
  5
421
  8
0
 10
4.0
 20
3.53499
 30
0.0
 11
4.5
 21
3.53499
 31
0.0
  0
LINE
  5
422
  8
0
 10
4.5
 20
3.53499
 30
0.0
 11
4.5
 21
3.50499
 31
0.0
  0
LINE
  5
423
  8
0
 10
4.5
 20
3.50499
 30
0.0
 11
4.0
 21
3.50499
 31
0.0
  0
LINE
  5
424
  8
0
 10
4.0
 20
3.50499
 30
0.0
 11
4.0
 21
3.495
 31
0.0
  0
LINE
  5
425
  8
0
 10
4.0
 20
3.495
 30
0.0
 11
4.5
 21
3.495
 31
0.0
  0
LINE
  5
426
  8
0
 10
4.5
 20
3.495
 30
0.0
 11
4.5
 21
3.465
 31
0.0
  0
LINE
  5
427
  8
0
 10
4.5
 20
3.465
 30
0.0
 11
4.0
 21
3.465
 31
0.0
  0
LINE
  5
428
  8
0
 10
4.0
 20
3.465
 30
0.0
 11
4.0
 21
3.45499
 31
0.0
  0
LINE
  5
429
  8
0
 10
4.0
 20
3.45499
 30
0.0
 11
4.5
 21
3.45499
 31
0.0
  0
LINE
  5
42A
  8
0
 10
4.5
 20
3.45499
 30
0.0
 11
4.5
 21
3.42499
 31
0.0
  0
LINE
  5
42B
  8
0
 10
4.5
 20
3.42499
 30
0.0
 11
4.0
 21
3.42499
 31
0.0
  0
LINE
  5
42C
  8
0
 10
4.0
 20
3.42499
 30
0.0
 11
4.0
 21
3.41499
 31
0.0
  0
LINE
  5
42D
  8
0
 10
4.0
 20
3.41499
 30
0.0
 11
4.5
 21
3.41499
 31
0.0
  0
LINE
  5
42E
  8
0
 10
4.5
 20
3.41499
 30
0.0
 11
4.5
 21
3.38499
 31
0.0
  0
LINE
  5
42F
  8
0
 10
4.5
 20
3.38499
 30
0.0
 11
4.0
 21
3.38499
 31
0.0
  0
LINE
  5
430
  8
0
 10
4.0
 20
3.38499
 30
0.0
 11
4.0
 21
3.375
 31
0.0
  0
LINE
  5
431
  8
0
 10
4.0
 20
3.375
 30
0.0
 11
4.5
 21
3.375
 31
0.0
  0
LINE
  5
432
  8
0
 10
4.5
 20
3.375
 30
0.0
 11
4.5
 21
3.34499
 31
0.0
  0
LINE
  5
433
  8
0
 10
4.5
 20
3.34499
 30
0.0
 11
4.0
 21
3.34499
 31
0.0
  0
LINE
  5
434
  8
0
 10
4.0
 20
3.34499
 30
0.0
 11
4.0
 21
3.33499
 31
0.0
  0
LINE
  5
435
  8
0
 10
4.0
 20
3.33499
 30
0.0
 11
4.5
 21
3.33499
 31
0.0
  0
LINE
  5
436
  8
0
 10
4.5
 20
3.33499
 30
0.0
 11
4.5
 21
3.30499
 31
0.0
  0
LINE
  5
437
  8
0
 10
4.5
 20
3.30499
 30
0.0
 11
4.0
 21
3.30499
 31
0.0
  0
LINE
  5
438
  8
0
 10
4.0
 20
3.30499
 30
0.0
 11
4.0
 21
3.295
 31
0.0
  0
LINE
  5
439
  8
0
 10
4.0
 20
3.295
 30
0.0
 11
4.5
 21
3.295
 31
0.0
  0
LINE
  5
43A
  8
0
 10
4.5
 20
3.295
 30
0.0
 11
4.5
 21
3.265
 31
0.0
  0
LINE
  5
43B
  8
0
 10
4.5
 20
3.265
 30
0.0
 11
4.0
 21
3.265
 31
0.0
  0
LINE
  5
43C
  8
0
 10
4.0
 20
3.265
 30
0.0
 11
4.0
 21
3.25499
 31
0.0
  0
LINE
  5
43D
  8
0
 10
4.0
 20
3.25499
 30
0.0
 11
4.5
 21
3.25499
 31
0.0
  0
LINE
  5
43E
  8
0
 10
4.5
 20
3.25499
 30
0.0
 11
4.5
 21
3.22499
 31
0.0
  0
LINE
  5
43F
  8
0
 10
4.5
 20
3.22499
 30
0.0
 11
4.0
 21
3.22499
 31
0.0
  0
LINE
  5
440
  8
0
 10
4.0
 20
3.22499
 30
0.0
 11
4.0
 21
3.215
 31
0.0
  0
LINE
  5
441
  8
0
 10
4.0
 20
3.215
 30
0.0
 11
4.5
 21
3.215
 31
0.0
  0
LINE
  5
442
  8
0
 10
4.5
 20
3.215
 30
0.0
 11
4.5
 21
3.185
 31
0.0
  0
LINE
  5
443
  8
0
 10
4.5
 20
3.185
 30
0.0
 11
4.0
 21
3.185
 31
0.0
  0
LINE
  5
444
  8
0
 10
4.0
 20
3.185
 30
0.0
 11
4.0
 21
3.17499
 31
0.0
  0
LINE
  5
445
  8
0
 10
4.0
 20
3.17499
 30
0.0
 11
4.5
 21
3.17499
 31
0.0
  0
LINE
  5
446
  8
0
 10
4.5
 20
3.17499
 30
0.0
 11
4.5
 21
3.14499
 31
0.0
  0
LINE
  5
447
  8
0
 10
4.5
 20
3.14499
 30
0.0
 11
4.0
 21
3.14499
 31
0.0
  0
LINE
  5
448
  8
0
 10
4.0
 20
3.14499
 30
0.0
 11
4.0
 21
3.13499
 31
0.0
  0
LINE
  5
449
  8
0
 10
4.0
 20
3.13499
 30
0.0
 11
4.5
 21
3.13499
 31
0.0
  0
LINE
  5
44A
  8
0
 10
4.5
 20
3.13499
 30
0.0
 11
4.5
 21
3.105
 31
0.0
  0
LINE
  5
44B
  8
0
 10
4.5
 20
3.105
 30
0.0
 11
4.0
 21
3.105
 31
0.0
  0
LINE
  5
44C
  8
0
 10
4.0
 20
3.105
 30
0.0
 11
4.0
 21
3.09499
 31
0.0
  0
LINE
  5
44D
  8
0
 10
4.0
 20
3.09499
 30
0.0
 11
4.5
 21
3.09499
 31
0.0
  0
LINE
  5
44E
  8
0
 10
4.5
 20
3.09499
 30
0.0
 11
4.5
 21
3.06499
 31
0.0
  0
LINE
  5
44F
  8
0
 10
4.5
 20
3.06499
 30
0.0
 11
4.0
 21
3.06499
 31
0.0
  0
LINE
  5
450
  8
0
 10
4.0
 20
3.06499
 30
0.0
 11
4.0
 21
3.05499
 31
0.0
  0
LINE
  5
451
  8
0
 10
4.0
 20
3.05499
 30
0.0
 11
4.5
 21
3.05499
 31
0.0
  0
LINE
  5
452
  8
0
 10
4.5
 20
3.05499
 30
0.0
 11
4.5
 21
3.02499
 31
0.0
  0
LINE
  5
453
  8
0
 10
4.5
 20
3.02499
 30
0.0
 11
4.0
 21
3.02499
 31
0.0
  0
LINE
  5
454
  8
0
 10
4.0
 20
3.02499
 30
0.0
 11
4.0
 21
3.015
 31
0.0
  0
LINE
  5
455
  8
0
 10
4.0
 20
3.015
 30
0.0
 11
4.5
 21
3.015
 31
0.0
  0
LINE
  5
456
  8
0
 10
4.5
 20
3.015
 30
0.0
 11
4.5
 21
2.985
 31
0.0
  0
LINE
  5
457
  8
0
 10
4.5
 20
2.985
 30
0.0
 11
4.0
 21
2.985
 31
0.0
  0
LINE
  5
458
  8
0
 10
4.0
 20
2.985
 30
0.0
 11
4.0
 21
2.97501
 31
0.0
  0
LINE
  5
459
  8
0
 10
4.0
 20
2.97501
 30
0.0
 11
4.5
 21
2.97501
 31
0.0
  0
LINE
  5
45A
  8
0
 10
4.5
 20
2.97501
 30
0.0
 11
4.5
 21
2.94501
 31
0.0
  0
LINE
  5
45B
  8
0
 10
4.5
 20
2.94501
 30
0.0
 11
4.0
 21
2.94501
 31
0.0
  0
LINE
  5
45C
  8
0
 10
4.0
 20
2.94501
 30
0.0
 11
4.0
 21
2.93501
 31
0.0
  0
LINE
  5
45D
  8
0
 10
4.0
 20
2.93501
 30
0.0
 11
4.5
 21
2.93501
 31
0.0
  0
LINE
  5
45E
  8
0
 10
4.5
 20
2.93501
 30
0.0
 11
4.5
 21
2.90501
 31
0.0
  0
LINE
  5
45F
  8
0
 10
4.5
 20
2.90501
 30
0.0
 11
4.0
 21
2.90501
 31
0.0
  0
LINE
  5
460
  8
0
 10
4.0
 20
2.90501
 30
0.0
 11
4.0
 21
2.895
 31
0.0
  0
LINE
  5
461
  8
0
 10
4.0
 20
2.895
 30
0.0
 11
4.5
 21
2.895
 31
0.0
  0
LINE
  5
462
  8
0
 10
4.5
 20
2.895
 30
0.0
 11
4.5
 21
2.86501
 31
0.0
  0
LINE
  5
463
  8
0
 10
4.5
 20
2.86501
 30
0.0
 11
4.0
 21
2.86501
 31
0.0
  0
LINE
  5
464
  8
0
 10
4.0
 20
2.86501
 30
0.0
 11
4.0
 21
2.85501
 31
0.0
  0
LINE
  5
465
  8
0
 10
4.0
 20
2.85501
 30
0.0
 11
4.5
 21
2.85501
 31
0.0
  0
LINE
  5
466
  8
0
 10
4.5
 20
2.85501
 30
0.0
 11
4.5
 21
2.82501
 31
0.0
  0
LINE
  5
467
  8
0
 10
4.5
 20
2.82501
 30
0.0
 11
4.0
 21
2.82501
 31
0.0
  0
LINE
  5
468
  8
0
 10
4.0
 20
2.82501
 30
0.0
 11
4.0
 21
2.815
 31
0.0
  0
LINE
  5
469
  8
0
 10
4.0
 20
2.815
 30
0.0
 11
4.5
 21
2.815
 31
0.0
  0
LINE
  5
46A
  8
0
 10
4.5
 20
2.815
 30
0.0
 11
4.5
 21
2.785
 31
0.0
  0
LINE
  5
46B
  8
0
 10
4.5
 20
2.785
 30
0.0
 11
4.0
 21
2.785
 31
0.0
  0
LINE
  5
46C
  8
0
 10
4.0
 20
2.785
 30
0.0
 11
4.0
 21
2.77501
 31
0.0
  0
LINE
  5
46D
  8
0
 10
4.0
 20
2.77501
 30
0.0
 11
4.5
 21
2.77501
 31
0.0
  0
LINE
  5
46E
  8
0
 10
4.5
 20
2.77501
 30
0.0
 11
4.5
 21
2.74501
 31
0.0
  0
LINE
  5
46F
  8
0
 10
4.5
 20
2.74501
 30
0.0
 11
4.0
 21
2.74501
 31
0.0
  0
LINE
  5
470
  8
0
 10
4.0
 20
2.74501
 30
0.0
 11
4.0
 21
2.735
 31
0.0
  0
LINE
  5
471
  8
0
 10
4.0
 20
2.735
 30
0.0
 11
4.5
 21
2.735
 31
0.0
  0
LINE
  5
472
  8
0
 10
4.5
 20
2.735
 30
0.0
 11
4.5
 21
2.705
 31
0.0
  0
LINE
  5
473
  8
0
 10
4.5
 20
2.705
 30
0.0
 11
4.0
 21
2.705
 31
0.0
  0
LINE
  5
474
  8
0
 10
4.0
 20
2.705
 30
0.0
 11
4.0
 21
2.69501
 31
0.0
  0
LINE
  5
475
  8
0
 10
4.0
 20
2.69501
 30
0.0
 11
4.5
 21
2.69501
 31
0.0
  0
LINE
  5
476
  8
0
 10
4.5
 20
2.69501
 30
0.0
 11
4.5
 21
2.66501
 31
0.0
  0
LINE
  5
477
  8
0
 10
4.5
 20
2.66501
 30
0.0
 11
4.0
 21
2.66501
 31
0.0
  0
LINE
  5
478
  8
0
 10
4.0
 20
2.66501
 30
0.0
 11
4.0
 21
2.65501
 31
0.0
  0
LINE
  5
479
  8
0
 10
4.0
 20
2.65501
 30
0.0
 11
4.5
 21
2.65501
 31
0.0
  0
LINE
  5
47A
  8
0
 10
4.5
 20
2.65501
 30
0.0
 11
4.5
 21
2.625
 31
0.0
  0
LINE
  5
47B
  8
0
 10
4.5
 20
2.625
 30
0.0
 11
4.0
 21
2.625
 31
0.0
  0
LINE
  5
47C
  8
0
 10
4.0
 20
2.625
 30
0.0
 11
4.0
 21
2.61501
 31
0.0
  0
LINE
  5
47D
  8
0
 10
4.0
 20
2.61501
 30
0.0
 11
4.5
 21
2.61501
 31
0.0
  0
LINE
  5
47E
  8
0
 10
4.5
 20
2.61501
 30
0.0
 11
4.5
 21
2.58501
 31
0.0
  0
LINE
  5
47F
  8
0
 10
4.5
 20
2.58501
 30
0.0
 11
4.0
 21
2.58501
 31
0.0
  0
LINE
  5
480
  8
0
 10
4.0
 20
2.58501
 30
0.0
 11
4.0
 21
2.57501
 31
0.0
  0
LINE
  5
481
  8
0
 10
4.0
 20
2.57501
 30
0.0
 11
4.5
 21
2.57501
 31
0.0
  0
LINE
  5
482
  8
0
 10
4.5
 20
2.57501
 30
0.0
 11
4.5
 21
2.54501
 31
0.0
  0
LINE
  5
483
  8
0
 10
4.5
 20
2.54501
 30
0.0
 11
4.0
 21
2.54501
 31
0.0
  0
LINE
  5
484
  8
0
 10
4.0
 20
2.54501
 30
0.0
 11
4.0
 21
2.535
 31
0.0
  0
LINE
  5
485
  8
0
 10
4.0
 20
2.535
 30
0.0
 11
4.5
 21
2.535
 31
0.0
  0
LINE
  5
486
  8
0
 10
4.5
 20
2.535
 30
0.0
 11
4.5
 21
2.505
 31
0.0
  0
LINE
  5
487
  8
0
 10
4.5
 20
2.505
 30
0.0
 11
4.0
 21
2.505
 31
0.0
  0
LINE
  5
488
  8
0
 10
4.0
 20
2.505
 30
0.0
 11
4.0
 21
2.49501
 31
0.0
  0
LINE
  5
489
  8
0
 10
4.0
 20
2.49501
 30
0.0
 11
4.5
 21
2.49501
 31
0.0
  0
LINE
  5
48A
  8
0
 10
4.5
 20
2.49501
 30
0.0
 11
4.5
 21
2.46501
 31
0.0
  0
LINE
  5
48B
  8
0
 10
4.5
 20
2.46501
 30
0.0
 11
4.0
 21
2.46501
 31
0.0
  0
LINE
  5
48C
  8
0
 10
4.0
 20
2.46501
 30
0.0
 11
4.0
 21
2.455
 31
0.0
  0
LINE
  5
48D
  8
0
 10
4.0
 20
2.455
 30
0.0
 11
4.5
 21
2.455
 31
0.0
  0
LINE
  5
48E
  8
0
 10
4.5
 20
2.455
 30
0.0
 11
4.5
 21
2.425
 31
0.0
  0
LINE
  5
48F
  8
0
 10
4.5
 20
2.425
 30
0.0
 11
4.0
 21
2.425
 31
0.0
  0
LINE
  5
490
  8
0
 10
4.0
 20
2.425
 30
0.0
 11
4.0
 21
2.41501
 31
0.0
  0
LINE
  5
491
  8
0
 10
4.0
 20
2.41501
 30
0.0
 11
4.5
 21
2.41501
 31
0.0
  0
LINE
  5
492
  8
0
 10
4.5
 20
2.41501
 30
0.0
 11
4.5
 21
2.38501
 31
0.0
  0
LINE
  5
493
  8
0
 10
4.5
 20
2.38501
 30
0.0
 11
4.0
 21
2.38501
 31
0.0
  0
LINE
  5
494
  8
0
 10
4.0
 20
2.38501
 30
0.0
 11
4.0
 21
2.375
 31
0.0
  0
LINE
  5
495
  8
0
 10
4.0
 20
2.375
 30
0.0
 11
4.5
 21
2.375
 31
0.0
  0
LINE
  5
496
  8
0
 10
4.5
 20
2.375
 30
0.0
 11
4.5
 21
2.345
 31
0.0
  0
LINE
  5
497
  8
0
 10
4.5
 20
2.345
 30
0.0
 11
4.0
 21
2.345
 31
0.0
  0
LINE
  5
498
  8
0
 10
4.0
 20
2.345
 30
0.0
 11
4.0
 21
2.33501
 31
0.0
  0
LINE
  5
499
  8
0
 10
4.0
 20
2.33501
 30
0.0
 11
4.5
 21
2.33501
 31
0.0
  0
LINE
  5
49A
  8
0
 10
4.5
 20
2.33501
 30
0.0
 11
4.5
 21
2.30501
 31
0.0
  0
LINE
  5
49B
  8
0
 10
4.5
 20
2.30501
 30
0.0
 11
4.0
 21
2.30501
 31
0.0
  0
LINE
  5
49C
  8
0
 10
4.0
 20
2.30501
 30
0.0
 11
4.0
 21
2.29501
 31
0.0
  0
LINE
  5
49D
  8
0
 10
4.0
 20
2.29501
 30
0.0
 11
4.5
 21
2.29501
 31
0.0
  0
LINE
  5
49E
  8
0
 10
4.5
 20
2.29501
 30
0.0
 11
4.5
 21
2.26501
 31
0.0
  0
LINE
  5
49F
  8
0
 10
4.5
 20
2.26501
 30
0.0
 11
4.0
 21
2.26501
 31
0.0
  0
LINE
  5
4A0
  8
0
 10
4.0
 20
2.26501
 30
0.0
 11
4.0
 21
2.255
 31
0.0
  0
LINE
  5
4A1
  8
0
 10
4.0
 20
2.255
 30
0.0
 11
4.5
 21
2.255
 31
0.0
  0
LINE
  5
4A2
  8
0
 10
4.5
 20
2.255
 30
0.0
 11
4.5
 21
2.22501
 31
0.0
  0
LINE
  5
4A3
  8
0
 10
4.5
 20
2.22501
 30
0.0
 11
4.0
 21
2.22501
 31
0.0
  0
LINE
  5
4A4
  8
0
 10
4.0
 20
2.22501
 30
0.0
 11
4.0
 21
2.21501
 31
0.0
  0
LINE
  5
4A5
  8
0
 10
4.0
 20
2.21501
 30
0.0
 11
4.5
 21
2.21501
 31
0.0
  0
LINE
  5
4A6
  8
0
 10
4.5
 20
2.21501
 30
0.0
 11
4.5
 21
2.18501
 31
0.0
  0
LINE
  5
4A7
  8
0
 10
4.5
 20
2.18501
 30
0.0
 11
4.0
 21
2.18501
 31
0.0
  0
LINE
  5
4A8
  8
0
 10
4.0
 20
2.18501
 30
0.0
 11
4.0
 21
2.175
 31
0.0
  0
LINE
  5
4A9
  8
0
 10
4.0
 20
2.175
 30
0.0
 11
4.5
 21
2.175
 31
0.0
  0
LINE
  5
4AA
  8
0
 10
4.5
 20
2.175
 30
0.0
 11
4.5
 21
2.145
 31
0.0
  0
LINE
  5
4AB
  8
0
 10
4.5
 20
2.145
 30
0.0
 11
4.0
 21
2.145
 31
0.0
  0
LINE
  5
4AC
  8
0
 10
4.0
 20
2.145
 30
0.0
 11
4.0
 21
2.13501
 31
0.0
  0
LINE
  5
4AD
  8
0
 10
4.0
 20
2.13501
 30
0.0
 11
4.5
 21
2.13501
 31
0.0
  0
LINE
  5
4AE
  8
0
 10
4.5
 20
2.13501
 30
0.0
 11
4.5
 21
2.10501
 31
0.0
  0
LINE
  5
4AF
  8
0
 10
4.5
 20
2.10501
 30
0.0
 11
4.0
 21
2.10501
 31
0.0
  0
LINE
  5
4B0
  8
0
 10
4.0
 20
2.10501
 30
0.0
 11
4.0
 21
2.095
 31
0.0
  0
LINE
  5
4B1
  8
0
 10
4.0
 20
2.095
 30
0.0
 11
4.5
 21
2.095
 31
0.0
  0
LINE
  5
4B2
  8
0
 10
4.5
 20
2.095
 30
0.0
 11
4.5
 21
2.065
 31
0.0
  0
LINE
  5
4B3
  8
0
 10
4.5
 20
2.065
 30
0.0
 11
4.0
 21
2.065
 31
0.0
  0
LINE
  5
4B4
  8
0
 10
4.0
 20
2.065
 30
0.0
 11
4.0
 21
2.05501
 31
0.0
  0
LINE
  5
4B5
  8
0
 10
4.0
 20
2.05501
 30
0.0
 11
4.5
 21
2.05501
 31
0.0
  0
LINE
  5
4B6
  8
0
 10
4.5
 20
2.05501
 30
0.0
 11
4.5
 21
2.02501
 31
0.0
  0
LINE
  5
4B7
  8
0
 10
4.5
 20
2.02501
 30
0.0
 11
4.0
 21
2.02501
 31
0.0
  0
LINE
  5
4B8
  8
0
 10
4.0
 20
2.02501
 30
0.0
 11
4.0
 21
2.01501
 31
0.0
  0
LINE
  5
4B9
  8
0
 10
4.0
 20
2.01501
 30
0.0
 11
4.5
 21
2.01501
 31
0.0
  0
LINE
  5
4BA
  8
0
 10
4.5
 20
2.01501
 30
0.0
 11
4.5
 21
2.0
 31
0.0
  0
LINE
  5
4BB
  8
0
 10
4.5
 20
2.0
 30
0.0
 11
2.5
 21
2.0
 31
0.0
  0
LINE
  5
4BC
  8
0
 10
7.5
 20
2.0
 30
0.0
 11
7.5
 21
2.01501
 31
0.0
  0
LINE
  5
4BD
  8
0
 10
7.5
 20
2.01501
 30
0.0
 11
8.0
 21
2.01501
 31
0.0
  0
LINE
  5
4BE
  8
0
 10
8.0
 20
2.01501
 30
0.0
 11
8.0
 21
2.02501
 31
0.0
  0
LINE
  5
4BF
  8
0
 10
8.0
 20
2.02501
 30
0.0
 11
7.5
 21
2.02501
 31
0.0
  0
LINE
  5
4C0
  8
0
 10
7.5
 20
2.02501
 30
0.0
 11
7.5
 21
2.05501
 31
0.0
  0
LINE
  5
4C1
  8
0
 10
7.5
 20
2.05501
 30
0.0
 11
8.0
 21
2.05501
 31
0.0
  0
LINE
  5
4C2
  8
0
 10
8.0
 20
2.05501
 30
0.0
 11
8.0
 21
2.065
 31
0.0
  0
LINE
  5
4C3
  8
0
 10
8.0
 20
2.065
 30
0.0
 11
7.5
 21
2.065
 31
0.0
  0
LINE
  5
4C4
  8
0
 10
7.5
 20
2.065
 30
0.0
 11
7.5
 21
2.095
 31
0.0
  0
LINE
  5
4C5
  8
0
 10
7.5
 20
2.095
 30
0.0
 11
8.0
 21
2.095
 31
0.0
  0
LINE
  5
4C6
  8
0
 10
8.0
 20
2.095
 30
0.0
 11
8.0
 21
2.10501
 31
0.0
  0
LINE
  5
4C7
  8
0
 10
8.0
 20
2.10501
 30
0.0
 11
7.5
 21
2.10501
 31
0.0
  0
LINE
  5
4C8
  8
0
 10
7.5
 20
2.10501
 30
0.0
 11
7.5
 21
2.13501
 31
0.0
  0
LINE
  5
4C9
  8
0
 10
7.5
 20
2.13501
 30
0.0
 11
8.0
 21
2.13501
 31
0.0
  0
LINE
  5
4CA
  8
0
 10
8.0
 20
2.13501
 30
0.0
 11
8.0
 21
2.145
 31
0.0
  0
LINE
  5
4CB
  8
0
 10
8.0
 20
2.145
 30
0.0
 11
7.5
 21
2.145
 31
0.0
  0
LINE
  5
4CC
  8
0
 10
7.5
 20
2.145
 30
0.0
 11
7.5
 21
2.175
 31
0.0
  0
LINE
  5
4CD
  8
0
 10
7.5
 20
2.175
 30
0.0
 11
8.0
 21
2.175
 31
0.0
  0
LINE
  5
4CE
  8
0
 10
8.0
 20
2.175
 30
0.0
 11
8.0
 21
2.18501
 31
0.0
  0
LINE
  5
4CF
  8
0
 10
8.0
 20
2.18501
 30
0.0
 11
7.5
 21
2.18501
 31
0.0
  0
LINE
  5
4D0
  8
0
 10
7.5
 20
2.18501
 30
0.0
 11
7.5
 21
2.21501
 31
0.0
  0
LINE
  5
4D1
  8
0
 10
7.5
 20
2.21501
 30
0.0
 11
8.0
 21
2.21501
 31
0.0
  0
LINE
  5
4D2
  8
0
 10
8.0
 20
2.21501
 30
0.0
 11
8.0
 21
2.22501
 31
0.0
  0
LINE
  5
4D3
  8
0
 10
8.0
 20
2.22501
 30
0.0
 11
7.5
 21
2.22501
 31
0.0
  0
LINE
  5
4D4
  8
0
 10
7.5
 20
2.22501
 30
0.0
 11
7.5
 21
2.255
 31
0.0
  0
LINE
  5
4D5
  8
0
 10
7.5
 20
2.255
 30
0.0
 11
8.0
 21
2.255
 31
0.0
  0
LINE
  5
4D6
  8
0
 10
8.0
 20
2.255
 30
0.0
 11
8.0
 21
2.26501
 31
0.0
  0
LINE
  5
4D7
  8
0
 10
8.0
 20
2.26501
 30
0.0
 11
7.5
 21
2.26501
 31
0.0
  0
LINE
  5
4D8
  8
0
 10
7.5
 20
2.26501
 30
0.0
 11
7.5
 21
2.29501
 31
0.0
  0
LINE
  5
4D9
  8
0
 10
7.5
 20
2.29501
 30
0.0
 11
8.0
 21
2.29501
 31
0.0
  0
LINE
  5
4DA
  8
0
 10
8.0
 20
2.29501
 30
0.0
 11
8.0
 21
2.30501
 31
0.0
  0
LINE
  5
4DB
  8
0
 10
8.0
 20
2.30501
 30
0.0
 11
7.5
 21
2.30501
 31
0.0
  0
LINE
  5
4DC
  8
0
 10
7.5
 20
2.30501
 30
0.0
 11
7.5
 21
2.33501
 31
0.0
  0
LINE
  5
4DD
  8
0
 10
7.5
 20
2.33501
 30
0.0
 11
8.0
 21
2.33501
 31
0.0
  0
LINE
  5
4DE
  8
0
 10
8.0
 20
2.33501
 30
0.0
 11
8.0
 21
2.345
 31
0.0
  0
LINE
  5
4DF
  8
0
 10
8.0
 20
2.345
 30
0.0
 11
7.5
 21
2.345
 31
0.0
  0
LINE
  5
4E0
  8
0
 10
7.5
 20
2.345
 30
0.0
 11
7.5
 21
2.375
 31
0.0
  0
LINE
  5
4E1
  8
0
 10
7.5
 20
2.375
 30
0.0
 11
8.0
 21
2.375
 31
0.0
  0
LINE
  5
4E2
  8
0
 10
8.0
 20
2.375
 30
0.0
 11
8.0
 21
2.38501
 31
0.0
  0
LINE
  5
4E3
  8
0
 10
8.0
 20
2.38501
 30
0.0
 11
7.5
 21
2.38501
 31
0.0
  0
LINE
  5
4E4
  8
0
 10
7.5
 20
2.38501
 30
0.0
 11
7.5
 21
2.41501
 31
0.0
  0
LINE
  5
4E5
  8
0
 10
7.5
 20
2.41501
 30
0.0
 11
8.0
 21
2.41501
 31
0.0
  0
LINE
  5
4E6
  8
0
 10
8.0
 20
2.41501
 30
0.0
 11
8.0
 21
2.425
 31
0.0
  0
LINE
  5
4E7
  8
0
 10
8.0
 20
2.425
 30
0.0
 11
7.5
 21
2.425
 31
0.0
  0
LINE
  5
4E8
  8
0
 10
7.5
 20
2.425
 30
0.0
 11
7.5
 21
2.455
 31
0.0
  0
LINE
  5
4E9
  8
0
 10
7.5
 20
2.455
 30
0.0
 11
8.0
 21
2.455
 31
0.0
  0
LINE
  5
4EA
  8
0
 10
8.0
 20
2.455
 30
0.0
 11
8.0
 21
2.46501
 31
0.0
  0
LINE
  5
4EB
  8
0
 10
8.0
 20
2.46501
 30
0.0
 11
7.5
 21
2.46501
 31
0.0
  0
LINE
  5
4EC
  8
0
 10
7.5
 20
2.46501
 30
0.0
 11
7.5
 21
2.49501
 31
0.0
  0
LINE
  5
4ED
  8
0
 10
7.5
 20
2.49501
 30
0.0
 11
8.0
 21
2.49501
 31
0.0
  0
LINE
  5
4EE
  8
0
 10
8.0
 20
2.49501
 30
0.0
 11
8.0
 21
2.505
 31
0.0
  0
LINE
  5
4EF
  8
0
 10
8.0
 20
2.505
 30
0.0
 11
7.5
 21
2.505
 31
0.0
  0
LINE
  5
4F0
  8
0
 10
7.5
 20
2.505
 30
0.0
 11
7.5
 21
2.535
 31
0.0
  0
LINE
  5
4F1
  8
0
 10
7.5
 20
2.535
 30
0.0
 11
8.0
 21
2.535
 31
0.0
  0
LINE
  5
4F2
  8
0
 10
8.0
 20
2.535
 30
0.0
 11
8.0
 21
2.54501
 31
0.0
  0
LINE
  5
4F3
  8
0
 10
8.0
 20
2.54501
 30
0.0
 11
7.5
 21
2.54501
 31
0.0
  0
LINE
  5
4F4
  8
0
 10
7.5
 20
2.54501
 30
0.0
 11
7.5
 21
2.57501
 31
0.0
  0
LINE
  5
4F5
  8
0
 10
7.5
 20
2.57501
 30
0.0
 11
8.0
 21
2.57501
 31
0.0
  0
LINE
  5
4F6
  8
0
 10
8.0
 20
2.57501
 30
0.0
 11
8.0
 21
2.58501
 31
0.0
  0
LINE
  5
4F7
  8
0
 10
8.0
 20
2.58501
 30
0.0
 11
7.5
 21
2.58501
 31
0.0
  0
LINE
  5
4F8
  8
0
 10
7.5
 20
2.58501
 30
0.0
 11
7.5
 21
2.61501
 31
0.0
  0
LINE
  5
4F9
  8
0
 10
7.5
 20
2.61501
 30
0.0
 11
8.0
 21
2.61501
 31
0.0
  0
LINE
  5
4FA
  8
0
 10
8.0
 20
2.61501
 30
0.0
 11
8.0
 21
2.625
 31
0.0
  0
LINE
  5
4FB
  8
0
 10
8.0
 20
2.625
 30
0.0
 11
7.5
 21
2.625
 31
0.0
  0
LINE
  5
4FC
  8
0
 10
7.5
 20
2.625
 30
0.0
 11
7.5
 21
2.65501
 31
0.0
  0
LINE
  5
4FD
  8
0
 10
7.5
 20
2.65501
 30
0.0
 11
8.0
 21
2.65501
 31
0.0
  0
LINE
  5
4FE
  8
0
 10
8.0
 20
2.65501
 30
0.0
 11
8.0
 21
2.66501
 31
0.0
  0
LINE
  5
4FF
  8
0
 10
8.0
 20
2.66501
 30
0.0
 11
7.5
 21
2.66501
 31
0.0
  0
LINE
  5
500
  8
0
 10
7.5
 20
2.66501
 30
0.0
 11
7.5
 21
2.69501
 31
0.0
  0
LINE
  5
501
  8
0
 10
7.5
 20
2.69501
 30
0.0
 11
8.0
 21
2.69501
 31
0.0
  0
LINE
  5
502
  8
0
 10
8.0
 20
2.69501
 30
0.0
 11
8.0
 21
2.705
 31
0.0
  0
LINE
  5
503
  8
0
 10
8.0
 20
2.705
 30
0.0
 11
7.5
 21
2.705
 31
0.0
  0
LINE
  5
504
  8
0
 10
7.5
 20
2.705
 30
0.0
 11
7.5
 21
2.735
 31
0.0
  0
LINE
  5
505
  8
0
 10
7.5
 20
2.735
 30
0.0
 11
8.0
 21
2.735
 31
0.0
  0
LINE
  5
506
  8
0
 10
8.0
 20
2.735
 30
0.0
 11
8.0
 21
2.74501
 31
0.0
  0
LINE
  5
507
  8
0
 10
8.0
 20
2.74501
 30
0.0
 11
7.5
 21
2.74501
 31
0.0
  0
LINE
  5
508
  8
0
 10
7.5
 20
2.74501
 30
0.0
 11
7.5
 21
2.77501
 31
0.0
  0
LINE
  5
509
  8
0
 10
7.5
 20
2.77501
 30
0.0
 11
8.0
 21
2.77501
 31
0.0
  0
LINE
  5
50A
  8
0
 10
8.0
 20
2.77501
 30
0.0
 11
8.0
 21
2.785
 31
0.0
  0
LINE
  5
50B
  8
0
 10
8.0
 20
2.785
 30
0.0
 11
7.5
 21
2.785
 31
0.0
  0
LINE
  5
50C
  8
0
 10
7.5
 20
2.785
 30
0.0
 11
7.5
 21
2.815
 31
0.0
  0
LINE
  5
50D
  8
0
 10
7.5
 20
2.815
 30
0.0
 11
8.0
 21
2.815
 31
0.0
  0
LINE
  5
50E
  8
0
 10
8.0
 20
2.815
 30
0.0
 11
8.0
 21
2.82501
 31
0.0
  0
LINE
  5
50F
  8
0
 10
8.0
 20
2.82501
 30
0.0
 11
7.5
 21
2.82501
 31
0.0
  0
LINE
  5
510
  8
0
 10
7.5
 20
2.82501
 30
0.0
 11
7.5
 21
2.85501
 31
0.0
  0
LINE
  5
511
  8
0
 10
7.5
 20
2.85501
 30
0.0
 11
8.0
 21
2.85501
 31
0.0
  0
LINE
  5
512
  8
0
 10
8.0
 20
2.85501
 30
0.0
 11
8.0
 21
2.86501
 31
0.0
  0
LINE
  5
513
  8
0
 10
8.0
 20
2.86501
 30
0.0
 11
7.5
 21
2.86501
 31
0.0
  0
LINE
  5
514
  8
0
 10
7.5
 20
2.86501
 30
0.0
 11
7.5
 21
2.895
 31
0.0
  0
LINE
  5
515
  8
0
 10
7.5
 20
2.895
 30
0.0
 11
8.0
 21
2.895
 31
0.0
  0
LINE
  5
516
  8
0
 10
8.0
 20
2.895
 30
0.0
 11
8.0
 21
2.90501
 31
0.0
  0
LINE
  5
517
  8
0
 10
8.0
 20
2.90501
 30
0.0
 11
7.5
 21
2.90501
 31
0.0
  0
LINE
  5
518
  8
0
 10
7.5
 20
2.90501
 30
0.0
 11
7.5
 21
2.93501
 31
0.0
  0
LINE
  5
519
  8
0
 10
7.5
 20
2.93501
 30
0.0
 11
8.0
 21
2.93501
 31
0.0
  0
LINE
  5
51A
  8
0
 10
8.0
 20
2.93501
 30
0.0
 11
8.0
 21
2.94501
 31
0.0
  0
LINE
  5
51B
  8
0
 10
8.0
 20
2.94501
 30
0.0
 11
7.5
 21
2.94501
 31
0.0
  0
LINE
  5
51C
  8
0
 10
7.5
 20
2.94501
 30
0.0
 11
7.5
 21
2.97501
 31
0.0
  0
LINE
  5
51D
  8
0
 10
7.5
 20
2.97501
 30
0.0
 11
8.0
 21
2.97501
 31
0.0
  0
LINE
  5
51E
  8
0
 10
8.0
 20
2.97501
 30
0.0
 11
8.0
 21
2.985
 31
0.0
  0
LINE
  5
51F
  8
0
 10
8.0
 20
2.985
 30
0.0
 11
7.5
 21
2.985
 31
0.0
  0
LINE
  5
520
  8
0
 10
7.5
 20
2.985
 30
0.0
 11
7.5
 21
3.015
 31
0.0
  0
LINE
  5
521
  8
0
 10
7.5
 20
3.015
 30
0.0
 11
8.0
 21
3.015
 31
0.0
  0
LINE
  5
522
  8
0
 10
8.0
 20
3.015
 30
0.0
 11
8.0
 21
3.02499
 31
0.0
  0
LINE
  5
523
  8
0
 10
8.0
 20
3.02499
 30
0.0
 11
7.5
 21
3.02499
 31
0.0
  0
LINE
  5
524
  8
0
 10
7.5
 20
3.02499
 30
0.0
 11
7.5
 21
3.05499
 31
0.0
  0
LINE
  5
525
  8
0
 10
7.5
 20
3.05499
 30
0.0
 11
8.0
 21
3.05499
 31
0.0
  0
LINE
  5
526
  8
0
 10
8.0
 20
3.05499
 30
0.0
 11
8.0
 21
3.06499
 31
0.0
  0
LINE
  5
527
  8
0
 10
8.0
 20
3.06499
 30
0.0
 11
7.5
 21
3.06499
 31
0.0
  0
LINE
  5
528
  8
0
 10
7.5
 20
3.06499
 30
0.0
 11
7.5
 21
3.09499
 31
0.0
  0
LINE
  5
529
  8
0
 10
7.5
 20
3.09499
 30
0.0
 11
8.0
 21
3.09499
 31
0.0
  0
LINE
  5
52A
  8
0
 10
8.0
 20
3.09499
 30
0.0
 11
8.0
 21
3.105
 31
0.0
  0
LINE
  5
52B
  8
0
 10
8.0
 20
3.105
 30
0.0
 11
7.5
 21
3.105
 31
0.0
  0
LINE
  5
52C
  8
0
 10
7.5
 20
3.105
 30
0.0
 11
7.5
 21
3.13499
 31
0.0
  0
LINE
  5
52D
  8
0
 10
7.5
 20
3.13499
 30
0.0
 11
8.0
 21
3.13499
 31
0.0
  0
LINE
  5
52E
  8
0
 10
8.0
 20
3.13499
 30
0.0
 11
8.0
 21
3.14499
 31
0.0
  0
LINE
  5
52F
  8
0
 10
8.0
 20
3.14499
 30
0.0
 11
7.5
 21
3.14499
 31
0.0
  0
LINE
  5
530
  8
0
 10
7.5
 20
3.14499
 30
0.0
 11
7.5
 21
3.17499
 31
0.0
  0
LINE
  5
531
  8
0
 10
7.5
 20
3.17499
 30
0.0
 11
8.0
 21
3.17499
 31
0.0
  0
LINE
  5
532
  8
0
 10
8.0
 20
3.17499
 30
0.0
 11
8.0
 21
3.185
 31
0.0
  0
LINE
  5
533
  8
0
 10
8.0
 20
3.185
 30
0.0
 11
7.5
 21
3.185
 31
0.0
  0
LINE
  5
534
  8
0
 10
7.5
 20
3.185
 30
0.0
 11
7.5
 21
3.215
 31
0.0
  0
LINE
  5
535
  8
0
 10
7.5
 20
3.215
 30
0.0
 11
8.0
 21
3.215
 31
0.0
  0
LINE
  5
536
  8
0
 10
8.0
 20
3.215
 30
0.0
 11
8.0
 21
3.22499
 31
0.0
  0
LINE
  5
537
  8
0
 10
8.0
 20
3.22499
 30
0.0
 11
7.5
 21
3.22499
 31
0.0
  0
LINE
  5
538
  8
0
 10
7.5
 20
3.22499
 30
0.0
 11
7.5
 21
3.25499
 31
0.0
  0
LINE
  5
539
  8
0
 10
7.5
 20
3.25499
 30
0.0
 11
8.0
 21
3.25499
 31
0.0
  0
LINE
  5
53A
  8
0
 10
8.0
 20
3.25499
 30
0.0
 11
8.0
 21
3.265
 31
0.0
  0
LINE
  5
53B
  8
0
 10
8.0
 20
3.265
 30
0.0
 11
7.5
 21
3.265
 31
0.0
  0
LINE
  5
53C
  8
0
 10
7.5
 20
3.265
 30
0.0
 11
7.5
 21
3.295
 31
0.0
  0
LINE
  5
53D
  8
0
 10
7.5
 20
3.295
 30
0.0
 11
8.0
 21
3.295
 31
0.0
  0
LINE
  5
53E
  8
0
 10
8.0
 20
3.295
 30
0.0
 11
8.0
 21
3.30499
 31
0.0
  0
LINE
  5
53F
  8
0
 10
8.0
 20
3.30499
 30
0.0
 11
7.5
 21
3.30499
 31
0.0
  0
LINE
  5
540
  8
0
 10
7.5
 20
3.30499
 30
0.0
 11
7.5
 21
3.33499
 31
0.0
  0
LINE
  5
541
  8
0
 10
7.5
 20
3.33499
 30
0.0
 11
8.0
 21
3.33499
 31
0.0
  0
LINE
  5
542
  8
0
 10
8.0
 20
3.33499
 30
0.0
 11
8.0
 21
3.34499
 31
0.0
  0
LINE
  5
543
  8
0
 10
8.0
 20
3.34499
 30
0.0
 11
7.5
 21
3.34499
 31
0.0
  0
LINE
  5
544
  8
0
 10
7.5
 20
3.34499
 30
0.0
 11
7.5
 21
3.375
 31
0.0
  0
LINE
  5
545
  8
0
 10
7.5
 20
3.375
 30
0.0
 11
8.0
 21
3.375
 31
0.0
  0
LINE
  5
546
  8
0
 10
8.0
 20
3.375
 30
0.0
 11
8.0
 21
3.38499
 31
0.0
  0
LINE
  5
547
  8
0
 10
8.0
 20
3.38499
 30
0.0
 11
7.5
 21
3.38499
 31
0.0
  0
LINE
  5
548
  8
0
 10
7.5
 20
3.38499
 30
0.0
 11
7.5
 21
3.41499
 31
0.0
  0
LINE
  5
549
  8
0
 10
7.5
 20
3.41499
 30
0.0
 11
8.0
 21
3.41499
 31
0.0
  0
LINE
  5
54A
  8
0
 10
8.0
 20
3.41499
 30
0.0
 11
8.0
 21
3.42499
 31
0.0
  0
LINE
  5
54B
  8
0
 10
8.0
 20
3.42499
 30
0.0
 11
7.5
 21
3.42499
 31
0.0
  0
LINE
  5
54C
  8
0
 10
7.5
 20
3.42499
 30
0.0
 11
7.5
 21
3.45499
 31
0.0
  0
LINE
  5
54D
  8
0
 10
7.5
 20
3.45499
 30
0.0
 11
8.0
 21
3.45499
 31
0.0
  0
LINE
  5
54E
  8
0
 10
8.0
 20
3.45499
 30
0.0
 11
8.0
 21
3.465
 31
0.0
  0
LINE
  5
54F
  8
0
 10
8.0
 20
3.465
 30
0.0
 11
7.5
 21
3.465
 31
0.0
  0
LINE
  5
550
  8
0
 10
7.5
 20
3.465
 30
0.0
 11
7.5
 21
3.495
 31
0.0
  0
LINE
  5
551
  8
0
 10
7.5
 20
3.495
 30
0.0
 11
8.0
 21
3.495
 31
0.0
  0
LINE
  5
552
  8
0
 10
8.0
 20
3.495
 30
0.0
 11
8.0
 21
3.50499
 31
0.0
  0
LINE
  5
553
  8
0
 10
8.0
 20
3.50499
 30
0.0
 11
7.5
 21
3.50499
 31
0.0
  0
LINE
  5
554
  8
0
 10
7.5
 20
3.50499
 30
0.0
 11
7.5
 21
3.53499
 31
0.0
  0
LINE
  5
555
  8
0
 10
7.5
 20
3.53499
 30
0.0
 11
8.0
 21
3.53499
 31
0.0
  0
LINE
  5
556
  8
0
 10
8.0
 20
3.53499
 30
0.0
 11
8.0
 21
3.545
 31
0.0
  0
LINE
  5
557
  8
0
 10
8.0
 20
3.545
 30
0.0
 11
7.5
 21
3.545
 31
0.0
  0
LINE
  5
558
  8
0
 10
7.5
 20
3.545
 30
0.0
 11
7.5
 21
3.575
 31
0.0
  0
LINE
  5
559
  8
0
 10
7.5
 20
3.575
 30
0.0
 11
8.0
 21
3.575
 31
0.0
  0
LINE
  5
55A
  8
0
 10
8.0
 20
3.575
 30
0.0
 11
8.0
 21
3.58499
 31
0.0
  0
LINE
  5
55B
  8
0
 10
8.0
 20
3.58499
 30
0.0
 11
7.5
 21
3.58499
 31
0.0
  0
LINE
  5
55C
  8
0
 10
7.5
 20
3.58499
 30
0.0
 11
7.5
 21
3.61499
 31
0.0
  0
LINE
  5
55D
  8
0
 10
7.5
 20
3.61499
 30
0.0
 11
8.0
 21
3.61499
 31
0.0
  0
LINE
  5
55E
  8
0
 10
8.0
 20
3.61499
 30
0.0
 11
8.0
 21
3.625
 31
0.0
  0
LINE
  5
55F
  8
0
 10
8.0
 20
3.625
 30
0.0
 11
7.5
 21
3.625
 31
0.0
  0
LINE
  5
560
  8
0
 10
7.5
 20
3.625
 30
0.0
 11
7.5
 21
3.655
 31
0.0
  0
LINE
  5
561
  8
0
 10
7.5
 20
3.655
 30
0.0
 11
8.0
 21
3.655
 31
0.0
  0
LINE
  5
562
  8
0
 10
8.0
 20
3.655
 30
0.0
 11
8.0
 21
3.66499
 31
0.0
  0
LINE
  5
563
  8
0
 10
8.0
 20
3.66499
 30
0.0
 11
7.5
 21
3.66499
 31
0.0
  0
LINE
  5
564
  8
0
 10
7.5
 20
3.66499
 30
0.0
 11
7.5
 21
3.69499
 31
0.0
  0
LINE
  5
565
  8
0
 10
7.5
 20
3.69499
 30
0.0
 11
8.0
 21
3.69499
 31
0.0
  0
LINE
  5
566
  8
0
 10
8.0
 20
3.69499
 30
0.0
 11
8.0
 21
3.70499
 31
0.0
  0
LINE
  5
567
  8
0
 10
8.0
 20
3.70499
 30
0.0
 11
7.5
 21
3.70499
 31
0.0
  0
LINE
  5
568
  8
0
 10
7.5
 20
3.70499
 30
0.0
 11
7.5
 21
3.73499
 31
0.0
  0
LINE
  5
569
  8
0
 10
7.5
 20
3.73499
 30
0.0
 11
8.0
 21
3.73499
 31
0.0
  0
LINE
  5
56A
  8
0
 10
8.0
 20
3.73499
 30
0.0
 11
8.0
 21
3.745
 31
0.0
  0
LINE
  5
56B
  8
0
 10
8.0
 20
3.745
 30
0.0
 11
7.5
 21
3.745
 31
0.0
  0
LINE
  5
56C
  8
0
 10
7.5
 20
3.745
 30
0.0
 11
7.5
 21
3.77499
 31
0.0
  0
LINE
  5
56D
  8
0
 10
7.5
 20
3.77499
 30
0.0
 11
8.0
 21
3.77499
 31
0.0
  0
LINE
  5
56E
  8
0
 10
8.0
 20
3.77499
 30
0.0
 11
8.0
 21
3.78499
 31
0.0
  0
LINE
  5
56F
  8
0
 10
8.0
 20
3.78499
 30
0.0
 11
7.5
 21
3.78499
 31
0.0
  0
LINE
  5
570
  8
0
 10
7.5
 20
3.78499
 30
0.0
 11
7.5
 21
3.81499
 31
0.0
  0
LINE
  5
571
  8
0
 10
7.5
 20
3.81499
 30
0.0
 11
8.0
 21
3.81499
 31
0.0
  0
LINE
  5
572
  8
0
 10
8.0
 20
3.81499
 30
0.0
 11
8.0
 21
3.825
 31
0.0
  0
LINE
  5
573
  8
0
 10
8.0
 20
3.825
 30
0.0
 11
7.5
 21
3.825
 31
0.0
  0
LINE
  5
574
  8
0
 10
7.5
 20
3.825
 30
0.0
 11
7.5
 21
3.855
 31
0.0
  0
LINE
  5
575
  8
0
 10
7.5
 20
3.855
 30
0.0
 11
8.0
 21
3.855
 31
0.0
  0
LINE
  5
576
  8
0
 10
8.0
 20
3.855
 30
0.0
 11
8.0
 21
3.86499
 31
0.0
  0
LINE
  5
577
  8
0
 10
8.0
 20
3.86499
 30
0.0
 11
7.5
 21
3.86499
 31
0.0
  0
LINE
  5
578
  8
0
 10
7.5
 20
3.86499
 30
0.0
 11
7.5
 21
3.89499
 31
0.0
  0
LINE
  5
579
  8
0
 10
7.5
 20
3.89499
 30
0.0
 11
8.0
 21
3.89499
 31
0.0
  0
LINE
  5
57A
  8
0
 10
8.0
 20
3.89499
 30
0.0
 11
8.0
 21
3.905
 31
0.0
  0
LINE
  5
57B
  8
0
 10
8.0
 20
3.905
 30
0.0
 11
7.5
 21
3.905
 31
0.0
  0
LINE
  5
57C
  8
0
 10
7.5
 20
3.905
 30
0.0
 11
7.5
 21
3.935
 31
0.0
  0
LINE
  5
57D
  8
0
 10
7.5
 20
3.935
 30
0.0
 11
8.0
 21
3.935
 31
0.0
  0
LINE
  5
57E
  8
0
 10
8.0
 20
3.935
 30
0.0
 11
8.0
 21
3.94499
 31
0.0
  0
LINE
  5
57F
  8
0
 10
8.0
 20
3.94499
 30
0.0
 11
7.5
 21
3.94499
 31
0.0
  0
LINE
  5
580
  8
0
 10
7.5
 20
3.94499
 30
0.0
 11
7.5
 21
3.97499
 31
0.0
  0
LINE
  5
581
  8
0
 10
7.5
 20
3.97499
 30
0.0
 11
8.0
 21
3.97499
 31
0.0
  0
LINE
  5
582
  8
0
 10
8.0
 20
3.97499
 30
0.0
 11
8.0
 21
3.98499
 31
0.0
  0
LINE
  5
583
  8
0
 10
8.0
 20
3.98499
 30
0.0
 11
7.5
 21
3.98499
 31
0.0
  0
LINE
  5
584
  8
0
 10
7.5
 20
3.98499
 30
0.0
 11
7.5
 21
4.0
 31
0.0
  0
LINE
  5
585
  8
0
 10
7.5
 20
4.0
 30
0.0
 11
9.5
 21
4.0
 31
0.0
  0
LINE
  5
586
  8
0
 10
9.5
 20
4.0
 30
0.0
 11
9.5
 21
2.0
 31
0.0
  0
LINE
  5
587
  8
0
 10
9.5
 20
2.0
 30
0.0
 11
7.5
 21
2.0
 31
0.0
  0
LINE
  5
588
  8
0
 10
5.5
 20
3.94499
 30
0.0
 11
5.5
 21
3.97499
 31
0.0
  0
LINE
  5
589
  8
0
 10
5.5
 20
3.97499
 30
0.0
 11
6.5
 21
3.97499
 31
0.0
  0
LINE
  5
58A
  8
0
 10
6.5
 20
3.97499
 30
0.0
 11
6.5
 21
3.94499
 31
0.0
  0
LINE
  5
58B
  8
0
 10
6.5
 20
3.94499
 30
0.0
 11
5.5
 21
3.94499
 31
0.0
  0
LINE
  5
58C
  8
0
 10
5.5
 20
3.905
 30
0.0
 11
5.5
 21
3.935
 31
0.0
  0
LINE
  5
58D
  8
0
 10
5.5
 20
3.935
 30
0.0
 11
6.5
 21
3.935
 31
0.0
  0
LINE
  5
58E
  8
0
 10
6.5
 20
3.935
 30
0.0
 11
6.5
 21
3.905
 31
0.0
  0
LINE
  5
58F
  8
0
 10
6.5
 20
3.905
 30
0.0
 11
5.5
 21
3.905
 31
0.0
  0
LINE
  5
590
  8
0
 10
5.5
 20
3.86499
 30
0.0
 11
5.5
 21
3.89499
 31
0.0
  0
LINE
  5
591
  8
0
 10
5.5
 20
3.89499
 30
0.0
 11
6.5
 21
3.89499
 31
0.0
  0
LINE
  5
592
  8
0
 10
6.5
 20
3.89499
 30
0.0
 11
6.5
 21
3.86499
 31
0.0
  0
LINE
  5
593
  8
0
 10
6.5
 20
3.86499
 30
0.0
 11
5.5
 21
3.86499
 31
0.0
  0
LINE
  5
594
  8
0
 10
5.5
 20
3.825
 30
0.0
 11
5.5
 21
3.855
 31
0.0
  0
LINE
  5
595
  8
0
 10
5.5
 20
3.855
 30
0.0
 11
6.5
 21
3.855
 31
0.0
  0
LINE
  5
596
  8
0
 10
6.5
 20
3.855
 30
0.0
 11
6.5
 21
3.825
 31
0.0
  0
LINE
  5
597
  8
0
 10
6.5
 20
3.825
 30
0.0
 11
5.5
 21
3.825
 31
0.0
  0
LINE
  5
598
  8
0
 10
5.5
 20
3.78499
 30
0.0
 11
5.5
 21
3.81499
 31
0.0
  0
LINE
  5
599
  8
0
 10
5.5
 20
3.81499
 30
0.0
 11
6.5
 21
3.81499
 31
0.0
  0
LINE
  5
59A
  8
0
 10
6.5
 20
3.81499
 30
0.0
 11
6.5
 21
3.78499
 31
0.0
  0
LINE
  5
59B
  8
0
 10
6.5
 20
3.78499
 30
0.0
 11
5.5
 21
3.78499
 31
0.0
  0
LINE
  5
59C
  8
0
 10
5.5
 20
3.745
 30
0.0
 11
5.5
 21
3.77499
 31
0.0
  0
LINE
  5
59D
  8
0
 10
5.5
 20
3.77499
 30
0.0
 11
6.5
 21
3.77499
 31
0.0
  0
LINE
  5
59E
  8
0
 10
6.5
 20
3.77499
 30
0.0
 11
6.5
 21
3.745
 31
0.0
  0
LINE
  5
59F
  8
0
 10
6.5
 20
3.745
 30
0.0
 11
5.5
 21
3.745
 31
0.0
  0
LINE
  5
5A0
  8
0
 10
5.5
 20
3.70499
 30
0.0
 11
5.5
 21
3.73499
 31
0.0
  0
LINE
  5
5A1
  8
0
 10
5.5
 20
3.73499
 30
0.0
 11
6.5
 21
3.73499
 31
0.0
  0
LINE
  5
5A2
  8
0
 10
6.5
 20
3.73499
 30
0.0
 11
6.5
 21
3.70499
 31
0.0
  0
LINE
  5
5A3
  8
0
 10
6.5
 20
3.70499
 30
0.0
 11
5.5
 21
3.70499
 31
0.0
  0
LINE
  5
5A4
  8
0
 10
5.5
 20
3.66499
 30
0.0
 11
5.5
 21
3.69499
 31
0.0
  0
LINE
  5
5A5
  8
0
 10
5.5
 20
3.69499
 30
0.0
 11
6.5
 21
3.69499
 31
0.0
  0
LINE
  5
5A6
  8
0
 10
6.5
 20
3.69499
 30
0.0
 11
6.5
 21
3.66499
 31
0.0
  0
LINE
  5
5A7
  8
0
 10
6.5
 20
3.66499
 30
0.0
 11
5.5
 21
3.66499
 31
0.0
  0
LINE
  5
5A8
  8
0
 10
5.5
 20
3.625
 30
0.0
 11
5.5
 21
3.655
 31
0.0
  0
LINE
  5
5A9
  8
0
 10
5.5
 20
3.655
 30
0.0
 11
6.5
 21
3.655
 31
0.0
  0
LINE
  5
5AA
  8
0
 10
6.5
 20
3.655
 30
0.0
 11
6.5
 21
3.625
 31
0.0
  0
LINE
  5
5AB
  8
0
 10
6.5
 20
3.625
 30
0.0
 11
5.5
 21
3.625
 31
0.0
  0
LINE
  5
5AC
  8
0
 10
5.5
 20
3.58499
 30
0.0
 11
5.5
 21
3.61499
 31
0.0
  0
LINE
  5
5AD
  8
0
 10
5.5
 20
3.61499
 30
0.0
 11
6.5
 21
3.61499
 31
0.0
  0
LINE
  5
5AE
  8
0
 10
6.5
 20
3.61499
 30
0.0
 11
6.5
 21
3.58499
 31
0.0
  0
LINE
  5
5AF
  8
0
 10
6.5
 20
3.58499
 30
0.0
 11
5.5
 21
3.58499
 31
0.0
  0
LINE
  5
5B0
  8
0
 10
5.5
 20
3.545
 30
0.0
 11
5.5
 21
3.575
 31
0.0
  0
LINE
  5
5B1
  8
0
 10
5.5
 20
3.575
 30
0.0
 11
6.5
 21
3.575
 31
0.0
  0
LINE
  5
5B2
  8
0
 10
6.5
 20
3.575
 30
0.0
 11
6.5
 21
3.545
 31
0.0
  0
LINE
  5
5B3
  8
0
 10
6.5
 20
3.545
 30
0.0
 11
5.5
 21
3.545
 31
0.0
  0
LINE
  5
5B4
  8
0
 10
5.5
 20
3.50499
 30
0.0
 11
5.5
 21
3.53499
 31
0.0
  0
LINE
  5
5B5
  8
0
 10
5.5
 20
3.53499
 30
0.0
 11
6.5
 21
3.53499
 31
0.0
  0
LINE
  5
5B6
  8
0
 10
6.5
 20
3.53499
 30
0.0
 11
6.5
 21
3.50499
 31
0.0
  0
LINE
  5
5B7
  8
0
 10
6.5
 20
3.50499
 30
0.0
 11
5.5
 21
3.50499
 31
0.0
  0
LINE
  5
5B8
  8
0
 10
5.5
 20
3.465
 30
0.0
 11
5.5
 21
3.495
 31
0.0
  0
LINE
  5
5B9
  8
0
 10
5.5
 20
3.495
 30
0.0
 11
6.5
 21
3.495
 31
0.0
  0
LINE
  5
5BA
  8
0
 10
6.5
 20
3.495
 30
0.0
 11
6.5
 21
3.465
 31
0.0
  0
LINE
  5
5BB
  8
0
 10
6.5
 20
3.465
 30
0.0
 11
5.5
 21
3.465
 31
0.0
  0
LINE
  5
5BC
  8
0
 10
5.5
 20
3.42499
 30
0.0
 11
5.5
 21
3.45499
 31
0.0
  0
LINE
  5
5BD
  8
0
 10
5.5
 20
3.45499
 30
0.0
 11
6.5
 21
3.45499
 31
0.0
  0
LINE
  5
5BE
  8
0
 10
6.5
 20
3.45499
 30
0.0
 11
6.5
 21
3.42499
 31
0.0
  0
LINE
  5
5BF
  8
0
 10
6.5
 20
3.42499
 30
0.0
 11
5.5
 21
3.42499
 31
0.0
  0
LINE
  5
5C0
  8
0
 10
5.5
 20
3.38499
 30
0.0
 11
5.5
 21
3.41499
 31
0.0
  0
LINE
  5
5C1
  8
0
 10
5.5
 20
3.41499
 30
0.0
 11
6.5
 21
3.41499
 31
0.0
  0
LINE
  5
5C2
  8
0
 10
6.5
 20
3.41499
 30
0.0
 11
6.5
 21
3.38499
 31
0.0
  0
LINE
  5
5C3
  8
0
 10
6.5
 20
3.38499
 30
0.0
 11
5.5
 21
3.38499
 31
0.0
  0
LINE
  5
5C4
  8
0
 10
5.5
 20
3.34499
 30
0.0
 11
5.5
 21
3.375
 31
0.0
  0
LINE
  5
5C5
  8
0
 10
5.5
 20
3.375
 30
0.0
 11
6.5
 21
3.375
 31
0.0
  0
LINE
  5
5C6
  8
0
 10
6.5
 20
3.375
 30
0.0
 11
6.5
 21
3.34499
 31
0.0
  0
LINE
  5
5C7
  8
0
 10
6.5
 20
3.34499
 30
0.0
 11
5.5
 21
3.34499
 31
0.0
  0
LINE
  5
5C8
  8
0
 10
5.5
 20
3.30499
 30
0.0
 11
5.5
 21
3.33499
 31
0.0
  0
LINE
  5
5C9
  8
0
 10
5.5
 20
3.33499
 30
0.0
 11
6.5
 21
3.33499
 31
0.0
  0
LINE
  5
5CA
  8
0
 10
6.5
 20
3.33499
 30
0.0
 11
6.5
 21
3.30499
 31
0.0
  0
LINE
  5
5CB
  8
0
 10
6.5
 20
3.30499
 30
0.0
 11
5.5
 21
3.30499
 31
0.0
  0
LINE
  5
5CC
  8
0
 10
5.5
 20
3.265
 30
0.0
 11
5.5
 21
3.295
 31
0.0
  0
LINE
  5
5CD
  8
0
 10
5.5
 20
3.295
 30
0.0
 11
6.5
 21
3.295
 31
0.0
  0
LINE
  5
5CE
  8
0
 10
6.5
 20
3.295
 30
0.0
 11
6.5
 21
3.265
 31
0.0
  0
LINE
  5
5CF
  8
0
 10
6.5
 20
3.265
 30
0.0
 11
5.5
 21
3.265
 31
0.0
  0
LINE
  5
5D0
  8
0
 10
5.5
 20
3.22499
 30
0.0
 11
5.5
 21
3.25499
 31
0.0
  0
LINE
  5
5D1
  8
0
 10
5.5
 20
3.25499
 30
0.0
 11
6.5
 21
3.25499
 31
0.0
  0
LINE
  5
5D2
  8
0
 10
6.5
 20
3.25499
 30
0.0
 11
6.5
 21
3.22499
 31
0.0
  0
LINE
  5
5D3
  8
0
 10
6.5
 20
3.22499
 30
0.0
 11
5.5
 21
3.22499
 31
0.0
  0
LINE
  5
5D4
  8
0
 10
5.5
 20
3.185
 30
0.0
 11
5.5
 21
3.215
 31
0.0
  0
LINE
  5
5D5
  8
0
 10
5.5
 20
3.215
 30
0.0
 11
6.5
 21
3.215
 31
0.0
  0
LINE
  5
5D6
  8
0
 10
6.5
 20
3.215
 30
0.0
 11
6.5
 21
3.185
 31
0.0
  0
LINE
  5
5D7
  8
0
 10
6.5
 20
3.185
 30
0.0
 11
5.5
 21
3.185
 31
0.0
  0
LINE
  5
5D8
  8
0
 10
5.5
 20
3.14499
 30
0.0
 11
5.5
 21
3.17499
 31
0.0
  0
LINE
  5
5D9
  8
0
 10
5.5
 20
3.17499
 30
0.0
 11
6.5
 21
3.17499
 31
0.0
  0
LINE
  5
5DA
  8
0
 10
6.5
 20
3.17499
 30
0.0
 11
6.5
 21
3.14499
 31
0.0
  0
LINE
  5
5DB
  8
0
 10
6.5
 20
3.14499
 30
0.0
 11
5.5
 21
3.14499
 31
0.0
  0
LINE
  5
5DC
  8
0
 10
5.5
 20
3.105
 30
0.0
 11
5.5
 21
3.13499
 31
0.0
  0
LINE
  5
5DD
  8
0
 10
5.5
 20
3.13499
 30
0.0
 11
6.5
 21
3.13499
 31
0.0
  0
LINE
  5
5DE
  8
0
 10
6.5
 20
3.13499
 30
0.0
 11
6.5
 21
3.105
 31
0.0
  0
LINE
  5
5DF
  8
0
 10
6.5
 20
3.105
 30
0.0
 11
5.5
 21
3.105
 31
0.0
  0
LINE
  5
5E0
  8
0
 10
5.5
 20
3.06499
 30
0.0
 11
5.5
 21
3.09499
 31
0.0
  0
LINE
  5
5E1
  8
0
 10
5.5
 20
3.09499
 30
0.0
 11
6.5
 21
3.09499
 31
0.0
  0
LINE
  5
5E2
  8
0
 10
6.5
 20
3.09499
 30
0.0
 11
6.5
 21
3.06499
 31
0.0
  0
LINE
  5
5E3
  8
0
 10
6.5
 20
3.06499
 30
0.0
 11
5.5
 21
3.06499
 31
0.0
  0
LINE
  5
5E4
  8
0
 10
5.5
 20
3.02499
 30
0.0
 11
5.5
 21
3.05499
 31
0.0
  0
LINE
  5
5E5
  8
0
 10
5.5
 20
3.05499
 30
0.0
 11
6.5
 21
3.05499
 31
0.0
  0
LINE
  5
5E6
  8
0
 10
6.5
 20
3.05499
 30
0.0
 11
6.5
 21
3.02499
 31
0.0
  0
LINE
  5
5E7
  8
0
 10
6.5
 20
3.02499
 30
0.0
 11
5.5
 21
3.02499
 31
0.0
  0
LINE
  5
5E8
  8
0
 10
5.5
 20
2.985
 30
0.0
 11
5.5
 21
3.015
 31
0.0
  0
LINE
  5
5E9
  8
0
 10
5.5
 20
3.015
 30
0.0
 11
6.5
 21
3.015
 31
0.0
  0
LINE
  5
5EA
  8
0
 10
6.5
 20
3.015
 30
0.0
 11
6.5
 21
2.985
 31
0.0
  0
LINE
  5
5EB
  8
0
 10
6.5
 20
2.985
 30
0.0
 11
5.5
 21
2.985
 31
0.0
  0
LINE
  5
5EC
  8
0
 10
5.5
 20
2.94501
 30
0.0
 11
5.5
 21
2.97501
 31
0.0
  0
LINE
  5
5ED
  8
0
 10
5.5
 20
2.97501
 30
0.0
 11
6.5
 21
2.97501
 31
0.0
  0
LINE
  5
5EE
  8
0
 10
6.5
 20
2.97501
 30
0.0
 11
6.5
 21
2.94501
 31
0.0
  0
LINE
  5
5EF
  8
0
 10
6.5
 20
2.94501
 30
0.0
 11
5.5
 21
2.94501
 31
0.0
  0
LINE
  5
5F0
  8
0
 10
5.5
 20
2.90501
 30
0.0
 11
5.5
 21
2.93501
 31
0.0
  0
LINE
  5
5F1
  8
0
 10
5.5
 20
2.93501
 30
0.0
 11
6.5
 21
2.93501
 31
0.0
  0
LINE
  5
5F2
  8
0
 10
6.5
 20
2.93501
 30
0.0
 11
6.5
 21
2.90501
 31
0.0
  0
LINE
  5
5F3
  8
0
 10
6.5
 20
2.90501
 30
0.0
 11
5.5
 21
2.90501
 31
0.0
  0
LINE
  5
5F4
  8
0
 10
5.5
 20
2.86501
 30
0.0
 11
5.5
 21
2.895
 31
0.0
  0
LINE
  5
5F5
  8
0
 10
5.5
 20
2.895
 30
0.0
 11
6.5
 21
2.895
 31
0.0
  0
LINE
  5
5F6
  8
0
 10
6.5
 20
2.895
 30
0.0
 11
6.5
 21
2.86501
 31
0.0
  0
LINE
  5
5F7
  8
0
 10
6.5
 20
2.86501
 30
0.0
 11
5.5
 21
2.86501
 31
0.0
  0
LINE
  5
5F8
  8
0
 10
5.5
 20
2.82501
 30
0.0
 11
5.5
 21
2.85501
 31
0.0
  0
LINE
  5
5F9
  8
0
 10
5.5
 20
2.85501
 30
0.0
 11
6.5
 21
2.85501
 31
0.0
  0
LINE
  5
5FA
  8
0
 10
6.5
 20
2.85501
 30
0.0
 11
6.5
 21
2.82501
 31
0.0
  0
LINE
  5
5FB
  8
0
 10
6.5
 20
2.82501
 30
0.0
 11
5.5
 21
2.82501
 31
0.0
  0
LINE
  5
5FC
  8
0
 10
5.5
 20
2.785
 30
0.0
 11
5.5
 21
2.815
 31
0.0
  0
LINE
  5
5FD
  8
0
 10
5.5
 20
2.815
 30
0.0
 11
6.5
 21
2.815
 31
0.0
  0
LINE
  5
5FE
  8
0
 10
6.5
 20
2.815
 30
0.0
 11
6.5
 21
2.785
 31
0.0
  0
LINE
  5
5FF
  8
0
 10
6.5
 20
2.785
 30
0.0
 11
5.5
 21
2.785
 31
0.0
  0
LINE
  5
600
  8
0
 10
5.5
 20
2.74501
 30
0.0
 11
5.5
 21
2.77501
 31
0.0
  0
LINE
  5
601
  8
0
 10
5.5
 20
2.77501
 30
0.0
 11
6.5
 21
2.77501
 31
0.0
  0
LINE
  5
602
  8
0
 10
6.5
 20
2.77501
 30
0.0
 11
6.5
 21
2.74501
 31
0.0
  0
LINE
  5
603
  8
0
 10
6.5
 20
2.74501
 30
0.0
 11
5.5
 21
2.74501
 31
0.0
  0
LINE
  5
604
  8
0
 10
5.5
 20
2.705
 30
0.0
 11
5.5
 21
2.735
 31
0.0
  0
LINE
  5
605
  8
0
 10
5.5
 20
2.735
 30
0.0
 11
6.5
 21
2.735
 31
0.0
  0
LINE
  5
606
  8
0
 10
6.5
 20
2.735
 30
0.0
 11
6.5
 21
2.705
 31
0.0
  0
LINE
  5
607
  8
0
 10
6.5
 20
2.705
 30
0.0
 11
5.5
 21
2.705
 31
0.0
  0
LINE
  5
608
  8
0
 10
5.5
 20
2.66501
 30
0.0
 11
5.5
 21
2.69501
 31
0.0
  0
LINE
  5
609
  8
0
 10
5.5
 20
2.69501
 30
0.0
 11
6.5
 21
2.69501
 31
0.0
  0
LINE
  5
60A
  8
0
 10
6.5
 20
2.69501
 30
0.0
 11
6.5
 21
2.66501
 31
0.0
  0
LINE
  5
60B
  8
0
 10
6.5
 20
2.66501
 30
0.0
 11
5.5
 21
2.66501
 31
0.0
  0
LINE
  5
60C
  8
0
 10
5.5
 20
2.625
 30
0.0
 11
5.5
 21
2.65501
 31
0.0
  0
LINE
  5
60D
  8
0
 10
5.5
 20
2.65501
 30
0.0
 11
6.5
 21
2.65501
 31
0.0
  0
LINE
  5
60E
  8
0
 10
6.5
 20
2.65501
 30
0.0
 11
6.5
 21
2.625
 31
0.0
  0
LINE
  5
60F
  8
0
 10
6.5
 20
2.625
 30
0.0
 11
5.5
 21
2.625
 31
0.0
  0
LINE
  5
610
  8
0
 10
5.5
 20
2.58501
 30
0.0
 11
5.5
 21
2.61501
 31
0.0
  0
LINE
  5
611
  8
0
 10
5.5
 20
2.61501
 30
0.0
 11
6.5
 21
2.61501
 31
0.0
  0
LINE
  5
612
  8
0
 10
6.5
 20
2.61501
 30
0.0
 11
6.5
 21
2.58501
 31
0.0
  0
LINE
  5
613
  8
0
 10
6.5
 20
2.58501
 30
0.0
 11
5.5
 21
2.58501
 31
0.0
  0
LINE
  5
614
  8
0
 10
5.5
 20
2.54501
 30
0.0
 11
5.5
 21
2.57501
 31
0.0
  0
LINE
  5
615
  8
0
 10
5.5
 20
2.57501
 30
0.0
 11
6.5
 21
2.57501
 31
0.0
  0
LINE
  5
616
  8
0
 10
6.5
 20
2.57501
 30
0.0
 11
6.5
 21
2.54501
 31
0.0
  0
LINE
  5
617
  8
0
 10
6.5
 20
2.54501
 30
0.0
 11
5.5
 21
2.54501
 31
0.0
  0
LINE
  5
618
  8
0
 10
5.5
 20
2.505
 30
0.0
 11
5.5
 21
2.535
 31
0.0
  0
LINE
  5
619
  8
0
 10
5.5
 20
2.535
 30
0.0
 11
6.5
 21
2.535
 31
0.0
  0
LINE
  5
61A
  8
0
 10
6.5
 20
2.535
 30
0.0
 11
6.5
 21
2.505
 31
0.0
  0
LINE
  5
61B
  8
0
 10
6.5
 20
2.505
 30
0.0
 11
5.5
 21
2.505
 31
0.0
  0
LINE
  5
61C
  8
0
 10
5.5
 20
2.46501
 30
0.0
 11
5.5
 21
2.49501
 31
0.0
  0
LINE
  5
61D
  8
0
 10
5.5
 20
2.49501
 30
0.0
 11
6.5
 21
2.49501
 31
0.0
  0
LINE
  5
61E
  8
0
 10
6.5
 20
2.49501
 30
0.0
 11
6.5
 21
2.46501
 31
0.0
  0
LINE
  5
61F
  8
0
 10
6.5
 20
2.46501
 30
0.0
 11
5.5
 21
2.46501
 31
0.0
  0
LINE
  5
620
  8
0
 10
5.5
 20
2.425
 30
0.0
 11
5.5
 21
2.455
 31
0.0
  0
LINE
  5
621
  8
0
 10
5.5
 20
2.455
 30
0.0
 11
6.5
 21
2.455
 31
0.0
  0
LINE
  5
622
  8
0
 10
6.5
 20
2.455
 30
0.0
 11
6.5
 21
2.425
 31
0.0
  0
LINE
  5
623
  8
0
 10
6.5
 20
2.425
 30
0.0
 11
5.5
 21
2.425
 31
0.0
  0
LINE
  5
624
  8
0
 10
5.5
 20
2.38501
 30
0.0
 11
5.5
 21
2.41501
 31
0.0
  0
LINE
  5
625
  8
0
 10
5.5
 20
2.41501
 30
0.0
 11
6.5
 21
2.41501
 31
0.0
  0
LINE
  5
626
  8
0
 10
6.5
 20
2.41501
 30
0.0
 11
6.5
 21
2.38501
 31
0.0
  0
LINE
  5
627
  8
0
 10
6.5
 20
2.38501
 30
0.0
 11
5.5
 21
2.38501
 31
0.0
  0
LINE
  5
628
  8
0
 10
5.5
 20
2.345
 30
0.0
 11
5.5
 21
2.375
 31
0.0
  0
LINE
  5
629
  8
0
 10
5.5
 20
2.375
 30
0.0
 11
6.5
 21
2.375
 31
0.0
  0
LINE
  5
62A
  8
0
 10
6.5
 20
2.375
 30
0.0
 11
6.5
 21
2.345
 31
0.0
  0
LINE
  5
62B
  8
0
 10
6.5
 20
2.345
 30
0.0
 11
5.5
 21
2.345
 31
0.0
  0
LINE
  5
62C
  8
0
 10
5.5
 20
2.30501
 30
0.0
 11
5.5
 21
2.33501
 31
0.0
  0
LINE
  5
62D
  8
0
 10
5.5
 20
2.33501
 30
0.0
 11
6.5
 21
2.33501
 31
0.0
  0
LINE
  5
62E
  8
0
 10
6.5
 20
2.33501
 30
0.0
 11
6.5
 21
2.30501
 31
0.0
  0
LINE
  5
62F
  8
0
 10
6.5
 20
2.30501
 30
0.0
 11
5.5
 21
2.30501
 31
0.0
  0
LINE
  5
630
  8
0
 10
5.5
 20
2.26501
 30
0.0
 11
5.5
 21
2.29501
 31
0.0
  0
LINE
  5
631
  8
0
 10
5.5
 20
2.29501
 30
0.0
 11
6.5
 21
2.29501
 31
0.0
  0
LINE
  5
632
  8
0
 10
6.5
 20
2.29501
 30
0.0
 11
6.5
 21
2.26501
 31
0.0
  0
LINE
  5
633
  8
0
 10
6.5
 20
2.26501
 30
0.0
 11
5.5
 21
2.26501
 31
0.0
  0
LINE
  5
634
  8
0
 10
5.5
 20
2.22501
 30
0.0
 11
5.5
 21
2.255
 31
0.0
  0
LINE
  5
635
  8
0
 10
5.5
 20
2.255
 30
0.0
 11
6.5
 21
2.255
 31
0.0
  0
LINE
  5
636
  8
0
 10
6.5
 20
2.255
 30
0.0
 11
6.5
 21
2.22501
 31
0.0
  0
LINE
  5
637
  8
0
 10
6.5
 20
2.22501
 30
0.0
 11
5.5
 21
2.22501
 31
0.0
  0
LINE
  5
638
  8
0
 10
5.5
 20
2.18501
 30
0.0
 11
5.5
 21
2.21501
 31
0.0
  0
LINE
  5
639
  8
0
 10
5.5
 20
2.21501
 30
0.0
 11
6.5
 21
2.21501
 31
0.0
  0
LINE
  5
63A
  8
0
 10
6.5
 20
2.21501
 30
0.0
 11
6.5
 21
2.18501
 31
0.0
  0
LINE
  5
63B
  8
0
 10
6.5
 20
2.18501
 30
0.0
 11
5.5
 21
2.18501
 31
0.0
  0
LINE
  5
63C
  8
0
 10
5.5
 20
2.145
 30
0.0
 11
5.5
 21
2.175
 31
0.0
  0
LINE
  5
63D
  8
0
 10
5.5
 20
2.175
 30
0.0
 11
6.5
 21
2.175
 31
0.0
  0
LINE
  5
63E
  8
0
 10
6.5
 20
2.175
 30
0.0
 11
6.5
 21
2.145
 31
0.0
  0
LINE
  5
63F
  8
0
 10
6.5
 20
2.145
 30
0.0
 11
5.5
 21
2.145
 31
0.0
  0
LINE
  5
640
  8
0
 10
5.5
 20
2.10501
 30
0.0
 11
5.5
 21
2.13501
 31
0.0
  0
LINE
  5
641
  8
0
 10
5.5
 20
2.13501
 30
0.0
 11
6.5
 21
2.13501
 31
0.0
  0
LINE
  5
642
  8
0
 10
6.5
 20
2.13501
 30
0.0
 11
6.5
 21
2.10501
 31
0.0
  0
LINE
  5
643
  8
0
 10
6.5
 20
2.10501
 30
0.0
 11
5.5
 21
2.10501
 31
0.0
  0
LINE
  5
644
  8
0
 10
5.5
 20
2.065
 30
0.0
 11
5.5
 21
2.095
 31
0.0
  0
LINE
  5
645
  8
0
 10
5.5
 20
2.095
 30
0.0
 11
6.5
 21
2.095
 31
0.0
  0
LINE
  5
646
  8
0
 10
6.5
 20
2.095
 30
0.0
 11
6.5
 21
2.065
 31
0.0
  0
LINE
  5
647
  8
0
 10
6.5
 20
2.065
 30
0.0
 11
5.5
 21
2.065
 31
0.0
  0
LINE
  5
648
  8
0
 10
5.5
 20
2.02501
 30
0.0
 11
5.5
 21
2.05501
 31
0.0
  0
LINE
  5
649
  8
0
 10
5.5
 20
2.05501
 30
0.0
 11
6.5
 21
2.05501
 31
0.0
  0
LINE
  5
64A
  8
0
 10
6.5
 20
2.05501
 30
0.0
 11
6.5
 21
2.02501
 31
0.0
  0
LINE
  5
64B
  8
0
 10
6.5
 20
2.02501
 30
0.0
 11
5.5
 21
2.02501
 31
0.0
  0
ENDSEC
  0
EOF
