  0
SECTION
  2
HEADER
  9
$ACADVER
  1
AC1009
  9
$DWGCODEPAGE
  3
ANSI_1252
  9
$INSBASE
 10
0.0
 20
0.0
 30
0.0
  9
$EXTMIN
 10
1e+20
 20
1e+20
 30
1e+20
  9
$EXTMAX
 10
-1e+20
 20
-1e+20
 30
-1e+20
  9
$LIMMIN
 10
0.0
 20
0.0
  9
$LIMMAX
 10
420.0
 20
297.0
  9
$ORTHOMODE
 70
0
  9
$REGENMODE
 70
1
  9
$FILLMODE
 70
1
  9
$DRAGMODE
 70
2
  9
$QTEXTMODE
 70
0
  9
$MIRRTEXT
 70
1
  9
$OSMODE
 70
20583
  9
$LTSCALE
 40
1.0
  9
$ATTMODE
 70
1
  9
$TEXTSIZE
 40
2.5
  9
$TRACEWID
 40
1.0
  9
$TEXTSTYLE
  7
Standard
  9
$CLAYER
  8
0
  9
$CELTYPE
  6
ByLayer
  9
$CECOLOR
 62
256
  9
$DIMSCALE
 40
1.0
  9
$DIMASZ
 40
2.5
  9
$DIMEXO
 40
0.625
  9
$DIMDLI
 40
3.75
  9
$DIMRND
 40
0.0
  9
$DIMDLE
 40
0.0
  9
$DIMEXE
 40
1.25
  9
$DIMTP
 40
0.0
  9
$DIMTM
 40
0.0
  9
$DIMTXT
 40
2.5
  9
$DIMCEN
 40
2.5
  9
$DIMTSZ
 40
0.0
  9
$DIMTOL
 70
0
  9
$DIMLIM
 70
0
  9
$DIMTIH
 70
0
  9
$DIMTOH
 70
0
  9
$DIMSE1
 70
0
  9
$DIMSE2
 70
0
  9
$DIMTAD
 70
1
  9
$DIMZIN
 70
8
  9
$DIMBLK
  1

  9
$DIMASO
 70
1
  9
$DIMSHO
 70
1
  9
$DIMPOST
  1

  9
$DIMAPOST
  1

  9
$DIMALT
 70
0
  9
$DIMALTD
 70
3
  9
$DIMALTF
 40
0.03937007874
  9
$DIMLFAC
 40
1.0
  9
$DIMTOFL
 70
1
  9
$DIMTVP
 40
0.0
  9
$DIMTIX
 70
0
  9
$DIMSOXD
 70
0
  9
$DIMSAH
 70
0
  9
$DIMBLK1
  1

  9
$DIMBLK2
  1

  9
$DIMSTYLE
  2
ISO-25
  9
$DIMCLRD
 70
0
  9
$DIMCLRE
 70
0
  9
$DIMCLRT
 70
0
  9
$DIMTFAC
 40
1.0
  9
$DIMGAP
 40
0.625
  9
$COORDS
 70
1
  9
$ATTDIA
 70
0
  9
$ATTREQ
 70
1
  9
$HANDLING
 70
1
  9
$LUNITS
 70
2
  9
$LUPREC
 70
4
  9
$SKETCHINC
 40
1.0
  9
$FILLETRAD
 40
10.0
  9
$AUNITS
 70
0
  9
$AUPREC
 70
2
  9
$MENU
  1
.
  9
$ELEVATION
 40
0.0
  9
$PELEVATION
 40
0.0
  9
$THICKNESS
 40
0.0
  9
$LIMCHECK
 70
0
  9
$CHAMFERA
 40
0.0
  9
$CHAMFERB
 40
0.0
  9
$SKPOLY
 70
0
  9
$TDCREATE
 40
2460593.953159722
  9
$TDUPDATE
 40
2460593.953159722
  9
$TDINDWG
 40
0.0
  9
$TDUSRTIMER
 40
0.0
  9
$USRTIMER
 70
1
  9
$ANGBASE
 50
0.0
  9
$ANGDIR
 70
0
  9
$PDMODE
 70
0
  9
$PDSIZE
 40
0.0
  9
$PLINEWID
 40
0.0
  9
$SPLFRAME
 70
0
  9
$SPLINETYPE
 70
6
  9
$SPLINESEGS
 70
8
  9
$HANDSEED
  5
2B1
  9
$SURFTAB1
 70
6
  9
$SURFTAB2
 70
6
  9
$SURFTYPE
 70
6
  9
$SURFU
 70
6
  9
$SURFV
 70
6
  9
$UCSNAME
  2

  9
$UCSORG
 10
0.0
 20
0.0
 30
0.0
  9
$UCSXDIR
 10
1.0
 20
0.0
 30
0.0
  9
$UCSYDIR
 10
0.0
 20
1.0
 30
0.0
  9
$PUCSNAME
  2

  9
$PUCSORG
 10
0.0
 20
0.0
 30
0.0
  9
$PUCSXDIR
 10
1.0
 20
0.0
 30
0.0
  9
$PUCSYDIR
 10
0.0
 20
1.0
 30
0.0
  9
$USERI1
 70
0
  9
$USERI2
 70
0
  9
$USERI3
 70
0
  9
$USERI4
 70
0
  9
$USERI5
 70
0
  9
$USERR1
 40
0.0
  9
$USERR2
 40
0.0
  9
$USERR3
 40
0.0
  9
$USERR4
 40
0.0
  9
$USERR5
 40
0.0
  9
$WORLDVIEW
 70
1
  9
$SHADEDGE
 70
3
  9
$SHADEDIF
 70
70
  9
$TILEMODE
 70
1
  9
$MAXACTVP
 70
64
  9
$PLIMCHECK
 70
0
  9
$PEXTMIN
 10
1e+20
 20
1e+20
 30
1e+20
  9
$PEXTMAX
 10
-1e+20
 20
-1e+20
 30
-1e+20
  9
$PLIMMIN
 10
0.0
 20
0.0
  9
$PLIMMAX
 10
420.0
 20
297.0
  9
$UNITMODE
 70
0
  9
$VISRETAIN
 70
1
  9
$PLINEGEN
 70
0
  9
$PSLTSCALE
 70
1
  0
ENDSEC
  0
SECTION
  2
TABLES
  0
TABLE
  2
VPORT
 70
1
  0
VPORT
  5
2A5
  2
*Active
 70
0
 10
0.0
 20
0.0
 11
1.0
 21
1.0
 12
0.0
 22
0.0
 13
0.0
 23
0.0
 14
0.5
 24
0.5
 15
0.5
 25
0.5
 16
0.0
 26
0.0
 36
1.0
 17
0.0
 27
0.0
 37
0.0
 40
1000.0
 41
1.34
 42
50.0
 43
0.0
 44
0.0
 50
0.0
 51
0.0
 71
0
 72
1000
 73
1
 74
3
 75
0
 76
0
 77
0
 78
0
  0
ENDTAB
  0
TABLE
  2
LTYPE
 70
3
  0
LTYPE
  5
2A6
  2
ByBlock
 70
0
  3

 72
65
 73
0
 40
0.0
  0
LTYPE
  5
2A7
  2
ByLayer
 70
0
  3

 72
65
 73
0
 40
0.0
  0
LTYPE
  5
2A8
  2
Continuous
 70
0
  3

 72
65
 73
0
 40
0.0
  0
ENDTAB
  0
TABLE
  2
LAYER
 70
2
  0
LAYER
  5
2A9
  2
0
 70
0
 62
7
  6
Continuous
  0
LAYER
  5
2AA
  2
Defpoints
 70
0
 62
7
  6
Continuous
  0
ENDTAB
  0
TABLE
  2
STYLE
 70
1
  0
STYLE
  5
2AB
  2
Standard
 70
0
 40
0.0
 41
1.0
 50
0.0
 71
0
 42
2.5
  3
txt
  4

  0
ENDTAB
  0
TABLE
  2
VIEW
 70
0
  0
ENDTAB
  0
TABLE
  2
UCS
 70
0
  0
ENDTAB
  0
TABLE
  2
APPID
 70
3
  0
APPID
  5
2AC
  2
ACAD
 70
0
  0
APPID
  5
2AF
  2
HATCHBACKGROUNDCOLOR
 70
0
  0
APPID
  5
2B0
  2
EZDXF
 70
0
  0
ENDTAB
  0
TABLE
  2
DIMSTYLE
 70
1
  0
DIMSTYLE
105
2AD
  2
Standard
 70
0
  3

  4

  5

  6

  7

 40
1.0
 41
2.5
 42
0.625
 43
3.75
 44
1.25
 45
0.0
 46
0.0
 47
0.0
 48
0.0
140
2.5
141
2.5
142
0.0
143
0.03937007874
144
1.0
145
0.0
146
1.0
147
0.625
 71
0
 72
0
 73
0
 74
0
 75
0
 76
0
 77
1
 78
8
170
0
171
3
172
1
173
0
174
0
175
0
176
0
177
0
178
0
  0
ENDTAB
  0
ENDSEC
  0
SECTION
  2
BLOCKS
  0
BLOCK
  5
286
  8
0
  2
$Model_Space
 70
0
 10
0.0
 20
0.0
 30
0.0
  3
$Model_Space
  1

1001
EZDXF
1000
WRITTEN_BY_EZDXF
1000
1.3.3 @ 2024-10-10T02:52:33.827020+00:00
  0
ENDBLK
  5
287
  8
0
  0
BLOCK
  5
288
  8
0
  2
$Paper_Space
 70
0
 10
0.0
 20
0.0
 30
0.0
  3
$Paper_Space
  1

  0
ENDBLK
  5
289
  8
0
  0
ENDSEC
  0
SECTION
  2
ENTITIES
  0
LINE
  5
100
  8
0
 10
4.79404
 20
1.51445
 30
0.0
 11
5.08527
 21
1.55765
 31
0.0
  0
LINE
  5
101
  8
0
 10
5.08527
 20
1.55765
 30
0.0
 11
5.37085
 21
1.62918
 31
0.0
  0
LINE
  5
102
  8
0
 10
5.37085
 20
1.62918
 30
0.0
 11
5.64804
 21
1.72836
 31
0.0
  0
LINE
  5
103
  8
0
 10
5.64804
 20
1.72836
 30
0.0
 11
5.91418
 21
1.85425
 31
0.0
  0
LINE
  5
104
  8
0
 10
5.91418
 20
1.85425
 30
0.0
 11
6.1667
 21
2.0056
 31
0.0
  0
LINE
  5
105
  8
0
 10
6.1667
 20
2.0056
 30
0.0
 11
6.40317
 21
2.18097
 31
0.0
  0
LINE
  5
106
  8
0
 10
6.40317
 20
2.18097
 30
0.0
 11
6.62131
 21
2.37869
 31
0.0
  0
LINE
  5
107
  8
0
 10
6.62131
 20
2.37869
 30
0.0
 11
6.81903
 21
2.59683
 31
0.0
  0
LINE
  5
108
  8
0
 10
6.81903
 20
2.59683
 30
0.0
 11
6.9944
 21
2.8333
 31
0.0
  0
LINE
  5
109
  8
0
 10
6.9944
 20
2.8333
 30
0.0
 11
7.14575
 21
3.08582
 31
0.0
  0
LINE
  5
10A
  8
0
 10
7.14575
 20
3.08582
 30
0.0
 11
7.27164
 21
3.35196
 31
0.0
  0
LINE
  5
10B
  8
0
 10
7.27164
 20
3.35196
 30
0.0
 11
7.37082
 21
3.62915
 31
0.0
  0
LINE
  5
10C
  8
0
 10
7.37082
 20
3.62915
 30
0.0
 11
7.44235
 21
3.91473
 31
0.0
  0
LINE
  5
10D
  8
0
 10
7.44235
 20
3.91473
 30
0.0
 11
7.48555
 21
4.20596
 31
0.0
  0
LINE
  5
10E
  8
0
 10
7.48555
 20
4.20596
 30
0.0
 11
7.5
 21
4.5
 31
0.0
  0
LINE
  5
10F
  8
0
 10
7.5
 20
4.5
 30
0.0
 11
7.5
 21
8.85001
 31
0.0
  0
LINE
  5
110
  8
0
 10
7.5
 20
8.85001
 30
0.0
 11
5.98499
 21
8.85001
 31
0.0
  0
LINE
  5
111
  8
0
 10
5.98499
 20
8.85001
 30
0.0
 11
5.98499
 21
9.14999
 31
0.0
  0
LINE
  5
112
  8
0
 10
5.98499
 20
9.14999
 30
0.0
 11
7.5
 21
9.14999
 31
0.0
  0
LINE
  5
113
  8
0
 10
7.5
 20
9.14999
 30
0.0
 11
7.5
 21
13.5
 31
0.0
  0
LINE
  5
114
  8
0
 10
7.5
 20
13.5
 30
0.0
 11
7.48555
 21
13.794
 31
0.0
  0
LINE
  5
115
  8
0
 10
7.48555
 20
13.794
 30
0.0
 11
7.44235
 21
14.0853
 31
0.0
  0
LINE
  5
116
  8
0
 10
7.44235
 20
14.0853
 30
0.0
 11
7.37082
 21
14.3708
 31
0.0
  0
LINE
  5
117
  8
0
 10
7.37082
 20
14.3708
 30
0.0
 11
7.27164
 21
14.648
 31
0.0
  0
LINE
  5
118
  8
0
 10
7.27164
 20
14.648
 30
0.0
 11
7.14575
 21
14.9142
 31
0.0
  0
LINE
  5
119
  8
0
 10
7.14575
 20
14.9142
 30
0.0
 11
6.9944
 21
15.1667
 31
0.0
  0
LINE
  5
11A
  8
0
 10
6.9944
 20
15.1667
 30
0.0
 11
6.81903
 21
15.4032
 31
0.0
  0
LINE
  5
11B
  8
0
 10
6.81903
 20
15.4032
 30
0.0
 11
6.62131
 21
15.6213
 31
0.0
  0
LINE
  5
11C
  8
0
 10
6.62131
 20
15.6213
 30
0.0
 11
6.40317
 21
15.819
 31
0.0
  0
LINE
  5
11D
  8
0
 10
6.40317
 20
15.819
 30
0.0
 11
6.1667
 21
15.9944
 31
0.0
  0
LINE
  5
11E
  8
0
 10
6.1667
 20
15.9944
 30
0.0
 11
5.91418
 21
16.1458
 31
0.0
  0
LINE
  5
11F
  8
0
 10
5.91418
 20
16.1458
 30
0.0
 11
5.64804
 21
16.2716
 31
0.0
  0
LINE
  5
120
  8
0
 10
5.64804
 20
16.2716
 30
0.0
 11
5.37085
 21
16.3708
 31
0.0
  0
LINE
  5
121
  8
0
 10
5.37085
 20
16.3708
 30
0.0
 11
5.08527
 21
16.4424
 31
0.0
  0
LINE
  5
122
  8
0
 10
5.08527
 20
16.4424
 30
0.0
 11
4.79404
 21
16.4855
 31
0.0
  0
LINE
  5
123
  8
0
 10
4.79404
 20
16.4855
 30
0.0
 11
4.5
 21
16.5
 31
0.0
  0
LINE
  5
124
  8
0
 10
4.5
 20
16.5
 30
0.0
 11
4.20596
 21
16.4855
 31
0.0
  0
LINE
  5
125
  8
0
 10
4.20596
 20
16.4855
 30
0.0
 11
3.91473
 21
16.4424
 31
0.0
  0
LINE
  5
126
  8
0
 10
3.91473
 20
16.4424
 30
0.0
 11
3.62915
 21
16.3708
 31
0.0
  0
LINE
  5
127
  8
0
 10
3.62915
 20
16.3708
 30
0.0
 11
3.35196
 21
16.2716
 31
0.0
  0
LINE
  5
128
  8
0
 10
3.35196
 20
16.2716
 30
0.0
 11
3.08582
 21
16.1458
 31
0.0
  0
LINE
  5
129
  8
0
 10
3.08582
 20
16.1458
 30
0.0
 11
2.8333
 21
15.9944
 31
0.0
  0
LINE
  5
12A
  8
0
 10
2.8333
 20
15.9944
 30
0.0
 11
2.59683
 21
15.819
 31
0.0
  0
LINE
  5
12B
  8
0
 10
2.59683
 20
15.819
 30
0.0
 11
2.37869
 21
15.6213
 31
0.0
  0
LINE
  5
12C
  8
0
 10
2.37869
 20
15.6213
 30
0.0
 11
2.18097
 21
15.4032
 31
0.0
  0
LINE
  5
12D
  8
0
 10
2.18097
 20
15.4032
 30
0.0
 11
2.0056
 21
15.1667
 31
0.0
  0
LINE
  5
12E
  8
0
 10
2.0056
 20
15.1667
 30
0.0
 11
1.85425
 21
14.9142
 31
0.0
  0
LINE
  5
12F
  8
0
 10
1.85425
 20
14.9142
 30
0.0
 11
1.72836
 21
14.648
 31
0.0
  0
LINE
  5
130
  8
0
 10
1.72836
 20
14.648
 30
0.0
 11
1.62918
 21
14.3708
 31
0.0
  0
LINE
  5
131
  8
0
 10
1.62918
 20
14.3708
 30
0.0
 11
1.55765
 21
14.0853
 31
0.0
  0
LINE
  5
132
  8
0
 10
1.55765
 20
14.0853
 30
0.0
 11
1.51445
 21
13.794
 31
0.0
  0
LINE
  5
133
  8
0
 10
1.51445
 20
13.794
 30
0.0
 11
1.5
 21
13.5
 31
0.0
  0
LINE
  5
134
  8
0
 10
1.5
 20
13.5
 30
0.0
 11
1.5
 21
9.14999
 31
0.0
  0
LINE
  5
135
  8
0
 10
1.5
 20
9.14999
 30
0.0
 11
3.01501
 21
9.14999
 31
0.0
  0
LINE
  5
136
  8
0
 10
3.01501
 20
9.14999
 30
0.0
 11
3.01501
 21
8.85001
 31
0.0
  0
LINE
  5
137
  8
0
 10
3.01501
 20
8.85001
 30
0.0
 11
1.5
 21
8.85001
 31
0.0
  0
LINE
  5
138
  8
0
 10
1.5
 20
8.85001
 30
0.0
 11
1.5
 21
4.5
 31
0.0
  0
LINE
  5
139
  8
0
 10
1.5
 20
4.5
 30
0.0
 11
1.51445
 21
4.20596
 31
0.0
  0
LINE
  5
13A
  8
0
 10
1.51445
 20
4.20596
 30
0.0
 11
1.55765
 21
3.91473
 31
0.0
  0
LINE
  5
13B
  8
0
 10
1.55765
 20
3.91473
 30
0.0
 11
1.62918
 21
3.62915
 31
0.0
  0
LINE
  5
13C
  8
0
 10
1.62918
 20
3.62915
 30
0.0
 11
1.72836
 21
3.35196
 31
0.0
  0
LINE
  5
13D
  8
0
 10
1.72836
 20
3.35196
 30
0.0
 11
1.85425
 21
3.08582
 31
0.0
  0
LINE
  5
13E
  8
0
 10
1.85425
 20
3.08582
 30
0.0
 11
2.0056
 21
2.8333
 31
0.0
  0
LINE
  5
13F
  8
0
 10
2.0056
 20
2.8333
 30
0.0
 11
2.18097
 21
2.59683
 31
0.0
  0
LINE
  5
140
  8
0
 10
2.18097
 20
2.59683
 30
0.0
 11
2.37869
 21
2.37869
 31
0.0
  0
LINE
  5
141
  8
0
 10
2.37869
 20
2.37869
 30
0.0
 11
2.59683
 21
2.18097
 31
0.0
  0
LINE
  5
142
  8
0
 10
2.59683
 20
2.18097
 30
0.0
 11
2.8333
 21
2.0056
 31
0.0
  0
LINE
  5
143
  8
0
 10
2.8333
 20
2.0056
 30
0.0
 11
3.08582
 21
1.85425
 31
0.0
  0
LINE
  5
144
  8
0
 10
3.08582
 20
1.85425
 30
0.0
 11
3.35196
 21
1.72836
 31
0.0
  0
LINE
  5
145
  8
0
 10
3.35196
 20
1.72836
 30
0.0
 11
3.62915
 21
1.62918
 31
0.0
  0
LINE
  5
146
  8
0
 10
3.62915
 20
1.62918
 30
0.0
 11
3.91473
 21
1.55765
 31
0.0
  0
LINE
  5
147
  8
0
 10
3.91473
 20
1.55765
 30
0.0
 11
4.20596
 21
1.51445
 31
0.0
  0
LINE
  5
148
  8
0
 10
4.20596
 20
1.51445
 30
0.0
 11
4.5
 21
1.5
 31
0.0
  0
LINE
  5
149
  8
0
 10
4.5
 20
1.5
 30
0.0
 11
4.79404
 21
1.51445
 31
0.0
  0
LINE
  5
14A
  8
0
 10
3.3
 20
11.8
 30
0.0
 11
3.3
 21
14.2
 31
0.0
  0
LINE
  5
14B
  8
0
 10
3.3
 20
14.2
 30
0.0
 11
5.7
 21
14.2
 31
0.0
  0
LINE
  5
14C
  8
0
 10
5.7
 20
14.2
 30
0.0
 11
5.7
 21
11.8
 31
0.0
  0
LINE
  5
14D
  8
0
 10
5.7
 20
11.8
 30
0.0
 11
3.3
 21
11.8
 31
0.0
  0
LINE
  5
14E
  8
0
 10
3.02501
 20
8.85001
 30
0.0
 11
3.02501
 21
9.14999
 31
0.0
  0
LINE
  5
14F
  8
0
 10
3.02501
 20
9.14999
 30
0.0
 11
3.05501
 21
9.14999
 31
0.0
  0
LINE
  5
150
  8
0
 10
3.05501
 20
9.14999
 30
0.0
 11
3.05501
 21
8.85001
 31
0.0
  0
LINE
  5
151
  8
0
 10
3.05501
 20
8.85001
 30
0.0
 11
3.02501
 21
8.85001
 31
0.0
  0
LINE
  5
152
  8
0
 10
3.065
 20
8.85001
 30
0.0
 11
3.065
 21
9.14999
 31
0.0
  0
LINE
  5
153
  8
0
 10
3.065
 20
9.14999
 30
0.0
 11
3.095
 21
9.14999
 31
0.0
  0
LINE
  5
154
  8
0
 10
3.095
 20
9.14999
 30
0.0
 11
3.095
 21
8.85001
 31
0.0
  0
LINE
  5
155
  8
0
 10
3.095
 20
8.85001
 30
0.0
 11
3.065
 21
8.85001
 31
0.0
  0
LINE
  5
156
  8
0
 10
3.10501
 20
8.85001
 30
0.0
 11
3.10501
 21
9.14999
 31
0.0
  0
LINE
  5
157
  8
0
 10
3.10501
 20
9.14999
 30
0.0
 11
3.13501
 21
9.14999
 31
0.0
  0
LINE
  5
158
  8
0
 10
3.13501
 20
9.14999
 30
0.0
 11
3.13501
 21
8.85001
 31
0.0
  0
LINE
  5
159
  8
0
 10
3.13501
 20
8.85001
 30
0.0
 11
3.10501
 21
8.85001
 31
0.0
  0
LINE
  5
15A
  8
0
 10
3.145
 20
8.85001
 30
0.0
 11
3.145
 21
9.14999
 31
0.0
  0
LINE
  5
15B
  8
0
 10
3.145
 20
9.14999
 30
0.0
 11
3.175
 21
9.14999
 31
0.0
  0
LINE
  5
15C
  8
0
 10
3.175
 20
9.14999
 30
0.0
 11
3.175
 21
8.85001
 31
0.0
  0
LINE
  5
15D
  8
0
 10
3.175
 20
8.85001
 30
0.0
 11
3.145
 21
8.85001
 31
0.0
  0
LINE
  5
15E
  8
0
 10
3.18501
 20
8.85001
 30
0.0
 11
3.18501
 21
9.14999
 31
0.0
  0
LINE
  5
15F
  8
0
 10
3.18501
 20
9.14999
 30
0.0
 11
3.21501
 21
9.14999
 31
0.0
  0
LINE
  5
160
  8
0
 10
3.21501
 20
9.14999
 30
0.0
 11
3.21501
 21
8.85001
 31
0.0
  0
LINE
  5
161
  8
0
 10
3.21501
 20
8.85001
 30
0.0
 11
3.18501
 21
8.85001
 31
0.0
  0
LINE
  5
162
  8
0
 10
3.22501
 20
8.85001
 30
0.0
 11
3.22501
 21
9.14999
 31
0.0
  0
LINE
  5
163
  8
0
 10
3.22501
 20
9.14999
 30
0.0
 11
3.255
 21
9.14999
 31
0.0
  0
LINE
  5
164
  8
0
 10
3.255
 20
9.14999
 30
0.0
 11
3.255
 21
8.85001
 31
0.0
  0
LINE
  5
165
  8
0
 10
3.255
 20
8.85001
 30
0.0
 11
3.22501
 21
8.85001
 31
0.0
  0
LINE
  5
166
  8
0
 10
3.26501
 20
8.85001
 30
0.0
 11
3.26501
 21
9.14999
 31
0.0
  0
LINE
  5
167
  8
0
 10
3.26501
 20
9.14999
 30
0.0
 11
3.29501
 21
9.14999
 31
0.0
  0
LINE
  5
168
  8
0
 10
3.29501
 20
9.14999
 30
0.0
 11
3.29501
 21
8.85001
 31
0.0
  0
LINE
  5
169
  8
0
 10
3.29501
 20
8.85001
 30
0.0
 11
3.26501
 21
8.85001
 31
0.0
  0
LINE
  5
16A
  8
0
 10
3.30501
 20
8.85001
 30
0.0
 11
3.30501
 21
9.14999
 31
0.0
  0
LINE
  5
16B
  8
0
 10
3.30501
 20
9.14999
 30
0.0
 11
3.33501
 21
9.14999
 31
0.0
  0
LINE
  5
16C
  8
0
 10
3.33501
 20
9.14999
 30
0.0
 11
3.33501
 21
8.85001
 31
0.0
  0
LINE
  5
16D
  8
0
 10
3.33501
 20
8.85001
 30
0.0
 11
3.30501
 21
8.85001
 31
0.0
  0
LINE
  5
16E
  8
0
 10
3.345
 20
8.85001
 30
0.0
 11
3.345
 21
9.14999
 31
0.0
  0
LINE
  5
16F
  8
0
 10
3.345
 20
9.14999
 30
0.0
 11
3.375
 21
9.14999
 31
0.0
  0
LINE
  5
170
  8
0
 10
3.375
 20
9.14999
 30
0.0
 11
3.375
 21
8.85001
 31
0.0
  0
LINE
  5
171
  8
0
 10
3.375
 20
8.85001
 30
0.0
 11
3.345
 21
8.85001
 31
0.0
  0
LINE
  5
172
  8
0
 10
3.38501
 20
8.85001
 30
0.0
 11
3.38501
 21
9.14999
 31
0.0
  0
LINE
  5
173
  8
0
 10
3.38501
 20
9.14999
 30
0.0
 11
3.41501
 21
9.14999
 31
0.0
  0
LINE
  5
174
  8
0
 10
3.41501
 20
9.14999
 30
0.0
 11
3.41501
 21
8.85001
 31
0.0
  0
LINE
  5
175
  8
0
 10
3.41501
 20
8.85001
 30
0.0
 11
3.38501
 21
8.85001
 31
0.0
  0
LINE
  5
176
  8
0
 10
3.425
 20
8.85001
 30
0.0
 11
3.425
 21
9.14999
 31
0.0
  0
LINE
  5
177
  8
0
 10
3.425
 20
9.14999
 30
0.0
 11
3.455
 21
9.14999
 31
0.0
  0
LINE
  5
178
  8
0
 10
3.455
 20
9.14999
 30
0.0
 11
3.455
 21
8.85001
 31
0.0
  0
LINE
  5
179
  8
0
 10
3.455
 20
8.85001
 30
0.0
 11
3.425
 21
8.85001
 31
0.0
  0
LINE
  5
17A
  8
0
 10
3.46501
 20
8.85001
 30
0.0
 11
3.46501
 21
9.14999
 31
0.0
  0
LINE
  5
17B
  8
0
 10
3.46501
 20
9.14999
 30
0.0
 11
3.49501
 21
9.14999
 31
0.0
  0
LINE
  5
17C
  8
0
 10
3.49501
 20
9.14999
 30
0.0
 11
3.49501
 21
8.85001
 31
0.0
  0
LINE
  5
17D
  8
0
 10
3.49501
 20
8.85001
 30
0.0
 11
3.46501
 21
8.85001
 31
0.0
  0
LINE
  5
17E
  8
0
 10
3.505
 20
8.85001
 30
0.0
 11
3.505
 21
9.14999
 31
0.0
  0
LINE
  5
17F
  8
0
 10
3.505
 20
9.14999
 30
0.0
 11
3.535
 21
9.14999
 31
0.0
  0
LINE
  5
180
  8
0
 10
3.535
 20
9.14999
 30
0.0
 11
3.535
 21
8.85001
 31
0.0
  0
LINE
  5
181
  8
0
 10
3.535
 20
8.85001
 30
0.0
 11
3.505
 21
8.85001
 31
0.0
  0
LINE
  5
182
  8
0
 10
3.54501
 20
8.85001
 30
0.0
 11
3.54501
 21
9.14999
 31
0.0
  0
LINE
  5
183
  8
0
 10
3.54501
 20
9.14999
 30
0.0
 11
3.57501
 21
9.14999
 31
0.0
  0
LINE
  5
184
  8
0
 10
3.57501
 20
9.14999
 30
0.0
 11
3.57501
 21
8.85001
 31
0.0
  0
LINE
  5
185
  8
0
 10
3.57501
 20
8.85001
 30
0.0
 11
3.54501
 21
8.85001
 31
0.0
  0
LINE
  5
186
  8
0
 10
3.58501
 20
8.85001
 30
0.0
 11
3.58501
 21
9.14999
 31
0.0
  0
LINE
  5
187
  8
0
 10
3.58501
 20
9.14999
 30
0.0
 11
3.61501
 21
9.14999
 31
0.0
  0
LINE
  5
188
  8
0
 10
3.61501
 20
9.14999
 30
0.0
 11
3.61501
 21
8.85001
 31
0.0
  0
LINE
  5
189
  8
0
 10
3.61501
 20
8.85001
 30
0.0
 11
3.58501
 21
8.85001
 31
0.0
  0
LINE
  5
18A
  8
0
 10
3.625
 20
8.85001
 30
0.0
 11
3.625
 21
9.14999
 31
0.0
  0
LINE
  5
18B
  8
0
 10
3.625
 20
9.14999
 30
0.0
 11
3.65501
 21
9.14999
 31
0.0
  0
LINE
  5
18C
  8
0
 10
3.65501
 20
9.14999
 30
0.0
 11
3.65501
 21
8.85001
 31
0.0
  0
LINE
  5
18D
  8
0
 10
3.65501
 20
8.85001
 30
0.0
 11
3.625
 21
8.85001
 31
0.0
  0
LINE
  5
18E
  8
0
 10
3.66501
 20
8.85001
 30
0.0
 11
3.66501
 21
9.14999
 31
0.0
  0
LINE
  5
18F
  8
0
 10
3.66501
 20
9.14999
 30
0.0
 11
3.69501
 21
9.14999
 31
0.0
  0
LINE
  5
190
  8
0
 10
3.69501
 20
9.14999
 30
0.0
 11
3.69501
 21
8.85001
 31
0.0
  0
LINE
  5
191
  8
0
 10
3.69501
 20
8.85001
 30
0.0
 11
3.66501
 21
8.85001
 31
0.0
  0
LINE
  5
192
  8
0
 10
3.705
 20
8.85001
 30
0.0
 11
3.705
 21
9.14999
 31
0.0
  0
LINE
  5
193
  8
0
 10
3.705
 20
9.14999
 30
0.0
 11
3.735
 21
9.14999
 31
0.0
  0
LINE
  5
194
  8
0
 10
3.735
 20
9.14999
 30
0.0
 11
3.735
 21
8.85001
 31
0.0
  0
LINE
  5
195
  8
0
 10
3.735
 20
8.85001
 30
0.0
 11
3.705
 21
8.85001
 31
0.0
  0
LINE
  5
196
  8
0
 10
3.74501
 20
8.85001
 30
0.0
 11
3.74501
 21
9.14999
 31
0.0
  0
LINE
  5
197
  8
0
 10
3.74501
 20
9.14999
 30
0.0
 11
3.77501
 21
9.14999
 31
0.0
  0
LINE
  5
198
  8
0
 10
3.77501
 20
9.14999
 30
0.0
 11
3.77501
 21
8.85001
 31
0.0
  0
LINE
  5
199
  8
0
 10
3.77501
 20
8.85001
 30
0.0
 11
3.74501
 21
8.85001
 31
0.0
  0
LINE
  5
19A
  8
0
 10
3.785
 20
8.85001
 30
0.0
 11
3.785
 21
9.14999
 31
0.0
  0
LINE
  5
19B
  8
0
 10
3.785
 20
9.14999
 30
0.0
 11
3.815
 21
9.14999
 31
0.0
  0
LINE
  5
19C
  8
0
 10
3.815
 20
9.14999
 30
0.0
 11
3.815
 21
8.85001
 31
0.0
  0
LINE
  5
19D
  8
0
 10
3.815
 20
8.85001
 30
0.0
 11
3.785
 21
8.85001
 31
0.0
  0
LINE
  5
19E
  8
0
 10
3.82501
 20
8.85001
 30
0.0
 11
3.82501
 21
9.14999
 31
0.0
  0
LINE
  5
19F
  8
0
 10
3.82501
 20
9.14999
 30
0.0
 11
3.85501
 21
9.14999
 31
0.0
  0
LINE
  5
1A0
  8
0
 10
3.85501
 20
9.14999
 30
0.0
 11
3.85501
 21
8.85001
 31
0.0
  0
LINE
  5
1A1
  8
0
 10
3.85501
 20
8.85001
 30
0.0
 11
3.82501
 21
8.85001
 31
0.0
  0
LINE
  5
1A2
  8
0
 10
3.86501
 20
8.85001
 30
0.0
 11
3.86501
 21
9.14999
 31
0.0
  0
LINE
  5
1A3
  8
0
 10
3.86501
 20
9.14999
 30
0.0
 11
3.895
 21
9.14999
 31
0.0
  0
LINE
  5
1A4
  8
0
 10
3.895
 20
9.14999
 30
0.0
 11
3.895
 21
8.85001
 31
0.0
  0
LINE
  5
1A5
  8
0
 10
3.895
 20
8.85001
 30
0.0
 11
3.86501
 21
8.85001
 31
0.0
  0
LINE
  5
1A6
  8
0
 10
3.90501
 20
8.85001
 30
0.0
 11
3.90501
 21
9.14999
 31
0.0
  0
LINE
  5
1A7
  8
0
 10
3.90501
 20
9.14999
 30
0.0
 11
3.93501
 21
9.14999
 31
0.0
  0
LINE
  5
1A8
  8
0
 10
3.93501
 20
9.14999
 30
0.0
 11
3.93501
 21
8.85001
 31
0.0
  0
LINE
  5
1A9
  8
0
 10
3.93501
 20
8.85001
 30
0.0
 11
3.90501
 21
8.85001
 31
0.0
  0
LINE
  5
1AA
  8
0
 10
3.94501
 20
8.85001
 30
0.0
 11
3.94501
 21
9.14999
 31
0.0
  0
LINE
  5
1AB
  8
0
 10
3.94501
 20
9.14999
 30
0.0
 11
3.97501
 21
9.14999
 31
0.0
  0
LINE
  5
1AC
  8
0
 10
3.97501
 20
9.14999
 30
0.0
 11
3.97501
 21
8.85001
 31
0.0
  0
LINE
  5
1AD
  8
0
 10
3.97501
 20
8.85001
 30
0.0
 11
3.94501
 21
8.85001
 31
0.0
  0
LINE
  5
1AE
  8
0
 10
3.985
 20
8.85001
 30
0.0
 11
3.985
 21
9.14999
 31
0.0
  0
LINE
  5
1AF
  8
0
 10
3.985
 20
9.14999
 30
0.0
 11
4.01501
 21
9.14999
 31
0.0
  0
LINE
  5
1B0
  8
0
 10
4.01501
 20
9.14999
 30
0.0
 11
4.01501
 21
8.85001
 31
0.0
  0
LINE
  5
1B1
  8
0
 10
4.01501
 20
8.85001
 30
0.0
 11
3.985
 21
8.85001
 31
0.0
  0
LINE
  5
1B2
  8
0
 10
4.02501
 20
8.85001
 30
0.0
 11
4.02501
 21
9.14999
 31
0.0
  0
LINE
  5
1B3
  8
0
 10
4.02501
 20
9.14999
 30
0.0
 11
4.05501
 21
9.14999
 31
0.0
  0
LINE
  5
1B4
  8
0
 10
4.05501
 20
9.14999
 30
0.0
 11
4.05501
 21
8.85001
 31
0.0
  0
LINE
  5
1B5
  8
0
 10
4.05501
 20
8.85001
 30
0.0
 11
4.02501
 21
8.85001
 31
0.0
  0
LINE
  5
1B6
  8
0
 10
4.065
 20
8.85001
 30
0.0
 11
4.065
 21
9.14999
 31
0.0
  0
LINE
  5
1B7
  8
0
 10
4.065
 20
9.14999
 30
0.0
 11
4.095
 21
9.14999
 31
0.0
  0
LINE
  5
1B8
  8
0
 10
4.095
 20
9.14999
 30
0.0
 11
4.095
 21
8.85001
 31
0.0
  0
LINE
  5
1B9
  8
0
 10
4.095
 20
8.85001
 30
0.0
 11
4.065
 21
8.85001
 31
0.0
  0
LINE
  5
1BA
  8
0
 10
4.10501
 20
8.85001
 30
0.0
 11
4.10501
 21
9.14999
 31
0.0
  0
LINE
  5
1BB
  8
0
 10
4.10501
 20
9.14999
 30
0.0
 11
4.13501
 21
9.14999
 31
0.0
  0
LINE
  5
1BC
  8
0
 10
4.13501
 20
9.14999
 30
0.0
 11
4.13501
 21
8.85001
 31
0.0
  0
LINE
  5
1BD
  8
0
 10
4.13501
 20
8.85001
 30
0.0
 11
4.10501
 21
8.85001
 31
0.0
  0
LINE
  5
1BE
  8
0
 10
4.145
 20
8.85001
 30
0.0
 11
4.145
 21
9.14999
 31
0.0
  0
LINE
  5
1BF
  8
0
 10
4.145
 20
9.14999
 30
0.0
 11
4.175
 21
9.14999
 31
0.0
  0
LINE
  5
1C0
  8
0
 10
4.175
 20
9.14999
 30
0.0
 11
4.175
 21
8.85001
 31
0.0
  0
LINE
  5
1C1
  8
0
 10
4.175
 20
8.85001
 30
0.0
 11
4.145
 21
8.85001
 31
0.0
  0
LINE
  5
1C2
  8
0
 10
4.18501
 20
8.85001
 30
0.0
 11
4.18501
 21
9.14999
 31
0.0
  0
LINE
  5
1C3
  8
0
 10
4.18501
 20
9.14999
 30
0.0
 11
4.21501
 21
9.14999
 31
0.0
  0
LINE
  5
1C4
  8
0
 10
4.21501
 20
9.14999
 30
0.0
 11
4.21501
 21
8.85001
 31
0.0
  0
LINE
  5
1C5
  8
0
 10
4.21501
 20
8.85001
 30
0.0
 11
4.18501
 21
8.85001
 31
0.0
  0
LINE
  5
1C6
  8
0
 10
4.22501
 20
8.85001
 30
0.0
 11
4.22501
 21
9.14999
 31
0.0
  0
LINE
  5
1C7
  8
0
 10
4.22501
 20
9.14999
 30
0.0
 11
4.255
 21
9.14999
 31
0.0
  0
LINE
  5
1C8
  8
0
 10
4.255
 20
9.14999
 30
0.0
 11
4.255
 21
8.85001
 31
0.0
  0
LINE
  5
1C9
  8
0
 10
4.255
 20
8.85001
 30
0.0
 11
4.22501
 21
8.85001
 31
0.0
  0
LINE
  5
1CA
  8
0
 10
4.26501
 20
8.85001
 30
0.0
 11
4.26501
 21
9.14999
 31
0.0
  0
LINE
  5
1CB
  8
0
 10
4.26501
 20
9.14999
 30
0.0
 11
4.29501
 21
9.14999
 31
0.0
  0
LINE
  5
1CC
  8
0
 10
4.29501
 20
9.14999
 30
0.0
 11
4.29501
 21
8.85001
 31
0.0
  0
LINE
  5
1CD
  8
0
 10
4.29501
 20
8.85001
 30
0.0
 11
4.26501
 21
8.85001
 31
0.0
  0
LINE
  5
1CE
  8
0
 10
4.30501
 20
8.85001
 30
0.0
 11
4.30501
 21
9.14999
 31
0.0
  0
LINE
  5
1CF
  8
0
 10
4.30501
 20
9.14999
 30
0.0
 11
4.33501
 21
9.14999
 31
0.0
  0
LINE
  5
1D0
  8
0
 10
4.33501
 20
9.14999
 30
0.0
 11
4.33501
 21
8.85001
 31
0.0
  0
LINE
  5
1D1
  8
0
 10
4.33501
 20
8.85001
 30
0.0
 11
4.30501
 21
8.85001
 31
0.0
  0
LINE
  5
1D2
  8
0
 10
4.345
 20
8.85001
 30
0.0
 11
4.345
 21
9.14999
 31
0.0
  0
LINE
  5
1D3
  8
0
 10
4.345
 20
9.14999
 30
0.0
 11
4.375
 21
9.14999
 31
0.0
  0
LINE
  5
1D4
  8
0
 10
4.375
 20
9.14999
 30
0.0
 11
4.375
 21
8.85001
 31
0.0
  0
LINE
  5
1D5
  8
0
 10
4.375
 20
8.85001
 30
0.0
 11
4.345
 21
8.85001
 31
0.0
  0
LINE
  5
1D6
  8
0
 10
4.38501
 20
8.85001
 30
0.0
 11
4.38501
 21
9.14999
 31
0.0
  0
LINE
  5
1D7
  8
0
 10
4.38501
 20
9.14999
 30
0.0
 11
4.41501
 21
9.14999
 31
0.0
  0
LINE
  5
1D8
  8
0
 10
4.41501
 20
9.14999
 30
0.0
 11
4.41501
 21
8.85001
 31
0.0
  0
LINE
  5
1D9
  8
0
 10
4.41501
 20
8.85001
 30
0.0
 11
4.38501
 21
8.85001
 31
0.0
  0
LINE
  5
1DA
  8
0
 10
4.425
 20
8.85001
 30
0.0
 11
4.425
 21
9.14999
 31
0.0
  0
LINE
  5
1DB
  8
0
 10
4.425
 20
9.14999
 30
0.0
 11
4.455
 21
9.14999
 31
0.0
  0
LINE
  5
1DC
  8
0
 10
4.455
 20
9.14999
 30
0.0
 11
4.455
 21
8.85001
 31
0.0
  0
LINE
  5
1DD
  8
0
 10
4.455
 20
8.85001
 30
0.0
 11
4.425
 21
8.85001
 31
0.0
  0
LINE
  5
1DE
  8
0
 10
4.46501
 20
8.85001
 30
0.0
 11
4.46501
 21
9.14999
 31
0.0
  0
LINE
  5
1DF
  8
0
 10
4.46501
 20
9.14999
 30
0.0
 11
4.49501
 21
9.14999
 31
0.0
  0
LINE
  5
1E0
  8
0
 10
4.49501
 20
9.14999
 30
0.0
 11
4.49501
 21
8.85001
 31
0.0
  0
LINE
  5
1E1
  8
0
 10
4.49501
 20
8.85001
 30
0.0
 11
4.46501
 21
8.85001
 31
0.0
  0
LINE
  5
1E2
  8
0
 10
4.50499
 20
8.85001
 30
0.0
 11
4.50499
 21
9.14999
 31
0.0
  0
LINE
  5
1E3
  8
0
 10
4.50499
 20
9.14999
 30
0.0
 11
4.53499
 21
9.14999
 31
0.0
  0
LINE
  5
1E4
  8
0
 10
4.53499
 20
9.14999
 30
0.0
 11
4.53499
 21
8.85001
 31
0.0
  0
LINE
  5
1E5
  8
0
 10
4.53499
 20
8.85001
 30
0.0
 11
4.50499
 21
8.85001
 31
0.0
  0
LINE
  5
1E6
  8
0
 10
4.545
 20
8.85001
 30
0.0
 11
4.545
 21
9.14999
 31
0.0
  0
LINE
  5
1E7
  8
0
 10
4.545
 20
9.14999
 30
0.0
 11
4.575
 21
9.14999
 31
0.0
  0
LINE
  5
1E8
  8
0
 10
4.575
 20
9.14999
 30
0.0
 11
4.575
 21
8.85001
 31
0.0
  0
LINE
  5
1E9
  8
0
 10
4.575
 20
8.85001
 30
0.0
 11
4.545
 21
8.85001
 31
0.0
  0
LINE
  5
1EA
  8
0
 10
4.58499
 20
8.85001
 30
0.0
 11
4.58499
 21
9.14999
 31
0.0
  0
LINE
  5
1EB
  8
0
 10
4.58499
 20
9.14999
 30
0.0
 11
4.61499
 21
9.14999
 31
0.0
  0
LINE
  5
1EC
  8
0
 10
4.61499
 20
9.14999
 30
0.0
 11
4.61499
 21
8.85001
 31
0.0
  0
LINE
  5
1ED
  8
0
 10
4.61499
 20
8.85001
 30
0.0
 11
4.58499
 21
8.85001
 31
0.0
  0
LINE
  5
1EE
  8
0
 10
4.625
 20
8.85001
 30
0.0
 11
4.625
 21
9.14999
 31
0.0
  0
LINE
  5
1EF
  8
0
 10
4.625
 20
9.14999
 30
0.0
 11
4.655
 21
9.14999
 31
0.0
  0
LINE
  5
1F0
  8
0
 10
4.655
 20
9.14999
 30
0.0
 11
4.655
 21
8.85001
 31
0.0
  0
LINE
  5
1F1
  8
0
 10
4.655
 20
8.85001
 30
0.0
 11
4.625
 21
8.85001
 31
0.0
  0
LINE
  5
1F2
  8
0
 10
4.66499
 20
8.85001
 30
0.0
 11
4.66499
 21
9.14999
 31
0.0
  0
LINE
  5
1F3
  8
0
 10
4.66499
 20
9.14999
 30
0.0
 11
4.69499
 21
9.14999
 31
0.0
  0
LINE
  5
1F4
  8
0
 10
4.69499
 20
9.14999
 30
0.0
 11
4.69499
 21
8.85001
 31
0.0
  0
LINE
  5
1F5
  8
0
 10
4.69499
 20
8.85001
 30
0.0
 11
4.66499
 21
8.85001
 31
0.0
  0
LINE
  5
1F6
  8
0
 10
4.70499
 20
8.85001
 30
0.0
 11
4.70499
 21
9.14999
 31
0.0
  0
LINE
  5
1F7
  8
0
 10
4.70499
 20
9.14999
 30
0.0
 11
4.73499
 21
9.14999
 31
0.0
  0
LINE
  5
1F8
  8
0
 10
4.73499
 20
9.14999
 30
0.0
 11
4.73499
 21
8.85001
 31
0.0
  0
LINE
  5
1F9
  8
0
 10
4.73499
 20
8.85001
 30
0.0
 11
4.70499
 21
8.85001
 31
0.0
  0
LINE
  5
1FA
  8
0
 10
4.745
 20
8.85001
 30
0.0
 11
4.745
 21
9.14999
 31
0.0
  0
LINE
  5
1FB
  8
0
 10
4.745
 20
9.14999
 30
0.0
 11
4.77499
 21
9.14999
 31
0.0
  0
LINE
  5
1FC
  8
0
 10
4.77499
 20
9.14999
 30
0.0
 11
4.77499
 21
8.85001
 31
0.0
  0
LINE
  5
1FD
  8
0
 10
4.77499
 20
8.85001
 30
0.0
 11
4.745
 21
8.85001
 31
0.0
  0
LINE
  5
1FE
  8
0
 10
4.78499
 20
8.85001
 30
0.0
 11
4.78499
 21
9.14999
 31
0.0
  0
LINE
  5
1FF
  8
0
 10
4.78499
 20
9.14999
 30
0.0
 11
4.81499
 21
9.14999
 31
0.0
  0
LINE
  5
200
  8
0
 10
4.81499
 20
9.14999
 30
0.0
 11
4.81499
 21
8.85001
 31
0.0
  0
LINE
  5
201
  8
0
 10
4.81499
 20
8.85001
 30
0.0
 11
4.78499
 21
8.85001
 31
0.0
  0
LINE
  5
202
  8
0
 10
4.825
 20
8.85001
 30
0.0
 11
4.825
 21
9.14999
 31
0.0
  0
LINE
  5
203
  8
0
 10
4.825
 20
9.14999
 30
0.0
 11
4.855
 21
9.14999
 31
0.0
  0
LINE
  5
204
  8
0
 10
4.855
 20
9.14999
 30
0.0
 11
4.855
 21
8.85001
 31
0.0
  0
LINE
  5
205
  8
0
 10
4.855
 20
8.85001
 30
0.0
 11
4.825
 21
8.85001
 31
0.0
  0
LINE
  5
206
  8
0
 10
4.86499
 20
8.85001
 30
0.0
 11
4.86499
 21
9.14999
 31
0.0
  0
LINE
  5
207
  8
0
 10
4.86499
 20
9.14999
 30
0.0
 11
4.89499
 21
9.14999
 31
0.0
  0
LINE
  5
208
  8
0
 10
4.89499
 20
9.14999
 30
0.0
 11
4.89499
 21
8.85001
 31
0.0
  0
LINE
  5
209
  8
0
 10
4.89499
 20
8.85001
 30
0.0
 11
4.86499
 21
8.85001
 31
0.0
  0
LINE
  5
20A
  8
0
 10
4.905
 20
8.85001
 30
0.0
 11
4.905
 21
9.14999
 31
0.0
  0
LINE
  5
20B
  8
0
 10
4.905
 20
9.14999
 30
0.0
 11
4.935
 21
9.14999
 31
0.0
  0
LINE
  5
20C
  8
0
 10
4.935
 20
9.14999
 30
0.0
 11
4.935
 21
8.85001
 31
0.0
  0
LINE
  5
20D
  8
0
 10
4.935
 20
8.85001
 30
0.0
 11
4.905
 21
8.85001
 31
0.0
  0
LINE
  5
20E
  8
0
 10
4.94499
 20
8.85001
 30
0.0
 11
4.94499
 21
9.14999
 31
0.0
  0
LINE
  5
20F
  8
0
 10
4.94499
 20
9.14999
 30
0.0
 11
4.97499
 21
9.14999
 31
0.0
  0
LINE
  5
210
  8
0
 10
4.97499
 20
9.14999
 30
0.0
 11
4.97499
 21
8.85001
 31
0.0
  0
LINE
  5
211
  8
0
 10
4.97499
 20
8.85001
 30
0.0
 11
4.94499
 21
8.85001
 31
0.0
  0
LINE
  5
212
  8
0
 10
4.98499
 20
8.85001
 30
0.0
 11
4.98499
 21
9.14999
 31
0.0
  0
LINE
  5
213
  8
0
 10
4.98499
 20
9.14999
 30
0.0
 11
5.015
 21
9.14999
 31
0.0
  0
LINE
  5
214
  8
0
 10
5.015
 20
9.14999
 30
0.0
 11
5.015
 21
8.85001
 31
0.0
  0
LINE
  5
215
  8
0
 10
5.015
 20
8.85001
 30
0.0
 11
4.98499
 21
8.85001
 31
0.0
  0
LINE
  5
216
  8
0
 10
5.02499
 20
8.85001
 30
0.0
 11
5.02499
 21
9.14999
 31
0.0
  0
LINE
  5
217
  8
0
 10
5.02499
 20
9.14999
 30
0.0
 11
5.05499
 21
9.14999
 31
0.0
  0
LINE
  5
218
  8
0
 10
5.05499
 20
9.14999
 30
0.0
 11
5.05499
 21
8.85001
 31
0.0
  0
LINE
  5
219
  8
0
 10
5.05499
 20
8.85001
 30
0.0
 11
5.02499
 21
8.85001
 31
0.0
  0
LINE
  5
21A
  8
0
 10
5.06499
 20
8.85001
 30
0.0
 11
5.06499
 21
9.14999
 31
0.0
  0
LINE
  5
21B
  8
0
 10
5.06499
 20
9.14999
 30
0.0
 11
5.09499
 21
9.14999
 31
0.0
  0
LINE
  5
21C
  8
0
 10
5.09499
 20
9.14999
 30
0.0
 11
5.09499
 21
8.85001
 31
0.0
  0
LINE
  5
21D
  8
0
 10
5.09499
 20
8.85001
 30
0.0
 11
5.06499
 21
8.85001
 31
0.0
  0
LINE
  5
21E
  8
0
 10
5.105
 20
8.85001
 30
0.0
 11
5.105
 21
9.14999
 31
0.0
  0
LINE
  5
21F
  8
0
 10
5.105
 20
9.14999
 30
0.0
 11
5.13499
 21
9.14999
 31
0.0
  0
LINE
  5
220
  8
0
 10
5.13499
 20
9.14999
 30
0.0
 11
5.13499
 21
8.85001
 31
0.0
  0
LINE
  5
221
  8
0
 10
5.13499
 20
8.85001
 30
0.0
 11
5.105
 21
8.85001
 31
0.0
  0
LINE
  5
222
  8
0
 10
5.14499
 20
8.85001
 30
0.0
 11
5.14499
 21
9.14999
 31
0.0
  0
LINE
  5
223
  8
0
 10
5.14499
 20
9.14999
 30
0.0
 11
5.17499
 21
9.14999
 31
0.0
  0
LINE
  5
224
  8
0
 10
5.17499
 20
9.14999
 30
0.0
 11
5.17499
 21
8.85001
 31
0.0
  0
LINE
  5
225
  8
0
 10
5.17499
 20
8.85001
 30
0.0
 11
5.14499
 21
8.85001
 31
0.0
  0
LINE
  5
226
  8
0
 10
5.185
 20
8.85001
 30
0.0
 11
5.185
 21
9.14999
 31
0.0
  0
LINE
  5
227
  8
0
 10
5.185
 20
9.14999
 30
0.0
 11
5.215
 21
9.14999
 31
0.0
  0
LINE
  5
228
  8
0
 10
5.215
 20
9.14999
 30
0.0
 11
5.215
 21
8.85001
 31
0.0
  0
LINE
  5
229
  8
0
 10
5.215
 20
8.85001
 30
0.0
 11
5.185
 21
8.85001
 31
0.0
  0
LINE
  5
22A
  8
0
 10
5.22499
 20
8.85001
 30
0.0
 11
5.22499
 21
9.14999
 31
0.0
  0
LINE
  5
22B
  8
0
 10
5.22499
 20
9.14999
 30
0.0
 11
5.25499
 21
9.14999
 31
0.0
  0
LINE
  5
22C
  8
0
 10
5.25499
 20
9.14999
 30
0.0
 11
5.25499
 21
8.85001
 31
0.0
  0
LINE
  5
22D
  8
0
 10
5.25499
 20
8.85001
 30
0.0
 11
5.22499
 21
8.85001
 31
0.0
  0
LINE
  5
22E
  8
0
 10
5.265
 20
8.85001
 30
0.0
 11
5.265
 21
9.14999
 31
0.0
  0
LINE
  5
22F
  8
0
 10
5.265
 20
9.14999
 30
0.0
 11
5.295
 21
9.14999
 31
0.0
  0
LINE
  5
230
  8
0
 10
5.295
 20
9.14999
 30
0.0
 11
5.295
 21
8.85001
 31
0.0
  0
LINE
  5
231
  8
0
 10
5.295
 20
8.85001
 30
0.0
 11
5.265
 21
8.85001
 31
0.0
  0
LINE
  5
232
  8
0
 10
5.30499
 20
8.85001
 30
0.0
 11
5.30499
 21
9.14999
 31
0.0
  0
LINE
  5
233
  8
0
 10
5.30499
 20
9.14999
 30
0.0
 11
5.33499
 21
9.14999
 31
0.0
  0
LINE
  5
234
  8
0
 10
5.33499
 20
9.14999
 30
0.0
 11
5.33499
 21
8.85001
 31
0.0
  0
LINE
  5
235
  8
0
 10
5.33499
 20
8.85001
 30
0.0
 11
5.30499
 21
8.85001
 31
0.0
  0
LINE
  5
236
  8
0
 10
5.34499
 20
8.85001
 30
0.0
 11
5.34499
 21
9.14999
 31
0.0
  0
LINE
  5
237
  8
0
 10
5.34499
 20
9.14999
 30
0.0
 11
5.375
 21
9.14999
 31
0.0
  0
LINE
  5
238
  8
0
 10
5.375
 20
9.14999
 30
0.0
 11
5.375
 21
8.85001
 31
0.0
  0
LINE
  5
239
  8
0
 10
5.375
 20
8.85001
 30
0.0
 11
5.34499
 21
8.85001
 31
0.0
  0
LINE
  5
23A
  8
0
 10
5.38499
 20
8.85001
 30
0.0
 11
5.38499
 21
9.14999
 31
0.0
  0
LINE
  5
23B
  8
0
 10
5.38499
 20
9.14999
 30
0.0
 11
5.41499
 21
9.14999
 31
0.0
  0
LINE
  5
23C
  8
0
 10
5.41499
 20
9.14999
 30
0.0
 11
5.41499
 21
8.85001
 31
0.0
  0
LINE
  5
23D
  8
0
 10
5.41499
 20
8.85001
 30
0.0
 11
5.38499
 21
8.85001
 31
0.0
  0
LINE
  5
23E
  8
0
 10
5.42499
 20
8.85001
 30
0.0
 11
5.42499
 21
9.14999
 31
0.0
  0
LINE
  5
23F
  8
0
 10
5.42499
 20
9.14999
 30
0.0
 11
5.45499
 21
9.14999
 31
0.0
  0
LINE
  5
240
  8
0
 10
5.45499
 20
9.14999
 30
0.0
 11
5.45499
 21
8.85001
 31
0.0
  0
LINE
  5
241
  8
0
 10
5.45499
 20
8.85001
 30
0.0
 11
5.42499
 21
8.85001
 31
0.0
  0
LINE
  5
242
  8
0
 10
5.465
 20
8.85001
 30
0.0
 11
5.465
 21
9.14999
 31
0.0
  0
LINE
  5
243
  8
0
 10
5.465
 20
9.14999
 30
0.0
 11
5.495
 21
9.14999
 31
0.0
  0
LINE
  5
244
  8
0
 10
5.495
 20
9.14999
 30
0.0
 11
5.495
 21
8.85001
 31
0.0
  0
LINE
  5
245
  8
0
 10
5.495
 20
8.85001
 30
0.0
 11
5.465
 21
8.85001
 31
0.0
  0
LINE
  5
246
  8
0
 10
5.50499
 20
8.85001
 30
0.0
 11
5.50499
 21
9.14999
 31
0.0
  0
LINE
  5
247
  8
0
 10
5.50499
 20
9.14999
 30
0.0
 11
5.53499
 21
9.14999
 31
0.0
  0
LINE
  5
248
  8
0
 10
5.53499
 20
9.14999
 30
0.0
 11
5.53499
 21
8.85001
 31
0.0
  0
LINE
  5
249
  8
0
 10
5.53499
 20
8.85001
 30
0.0
 11
5.50499
 21
8.85001
 31
0.0
  0
LINE
  5
24A
  8
0
 10
5.545
 20
8.85001
 30
0.0
 11
5.545
 21
9.14999
 31
0.0
  0
LINE
  5
24B
  8
0
 10
5.545
 20
9.14999
 30
0.0
 11
5.575
 21
9.14999
 31
0.0
  0
LINE
  5
24C
  8
0
 10
5.575
 20
9.14999
 30
0.0
 11
5.575
 21
8.85001
 31
0.0
  0
LINE
  5
24D
  8
0
 10
5.575
 20
8.85001
 30
0.0
 11
5.545
 21
8.85001
 31
0.0
  0
LINE
  5
24E
  8
0
 10
5.58499
 20
8.85001
 30
0.0
 11
5.58499
 21
9.14999
 31
0.0
  0
LINE
  5
24F
  8
0
 10
5.58499
 20
9.14999
 30
0.0
 11
5.61499
 21
9.14999
 31
0.0
  0
LINE
  5
250
  8
0
 10
5.61499
 20
9.14999
 30
0.0
 11
5.61499
 21
8.85001
 31
0.0
  0
LINE
  5
251
  8
0
 10
5.61499
 20
8.85001
 30
0.0
 11
5.58499
 21
8.85001
 31
0.0
  0
LINE
  5
252
  8
0
 10
5.625
 20
8.85001
 30
0.0
 11
5.625
 21
9.14999
 31
0.0
  0
LINE
  5
253
  8
0
 10
5.625
 20
9.14999
 30
0.0
 11
5.655
 21
9.14999
 31
0.0
  0
LINE
  5
254
  8
0
 10
5.655
 20
9.14999
 30
0.0
 11
5.655
 21
8.85001
 31
0.0
  0
LINE
  5
255
  8
0
 10
5.655
 20
8.85001
 30
0.0
 11
5.625
 21
8.85001
 31
0.0
  0
LINE
  5
256
  8
0
 10
5.66499
 20
8.85001
 30
0.0
 11
5.66499
 21
9.14999
 31
0.0
  0
LINE
  5
257
  8
0
 10
5.66499
 20
9.14999
 30
0.0
 11
5.69499
 21
9.14999
 31
0.0
  0
LINE
  5
258
  8
0
 10
5.69499
 20
9.14999
 30
0.0
 11
5.69499
 21
8.85001
 31
0.0
  0
LINE
  5
259
  8
0
 10
5.69499
 20
8.85001
 30
0.0
 11
5.66499
 21
8.85001
 31
0.0
  0
LINE
  5
25A
  8
0
 10
5.70499
 20
8.85001
 30
0.0
 11
5.70499
 21
9.14999
 31
0.0
  0
LINE
  5
25B
  8
0
 10
5.70499
 20
9.14999
 30
0.0
 11
5.73499
 21
9.14999
 31
0.0
  0
LINE
  5
25C
  8
0
 10
5.73499
 20
9.14999
 30
0.0
 11
5.73499
 21
8.85001
 31
0.0
  0
LINE
  5
25D
  8
0
 10
5.73499
 20
8.85001
 30
0.0
 11
5.70499
 21
8.85001
 31
0.0
  0
LINE
  5
25E
  8
0
 10
5.745
 20
8.85001
 30
0.0
 11
5.745
 21
9.14999
 31
0.0
  0
LINE
  5
25F
  8
0
 10
5.745
 20
9.14999
 30
0.0
 11
5.77499
 21
9.14999
 31
0.0
  0
LINE
  5
260
  8
0
 10
5.77499
 20
9.14999
 30
0.0
 11
5.77499
 21
8.85001
 31
0.0
  0
LINE
  5
261
  8
0
 10
5.77499
 20
8.85001
 30
0.0
 11
5.745
 21
8.85001
 31
0.0
  0
LINE
  5
262
  8
0
 10
5.78499
 20
8.85001
 30
0.0
 11
5.78499
 21
9.14999
 31
0.0
  0
LINE
  5
263
  8
0
 10
5.78499
 20
9.14999
 30
0.0
 11
5.81499
 21
9.14999
 31
0.0
  0
LINE
  5
264
  8
0
 10
5.81499
 20
9.14999
 30
0.0
 11
5.81499
 21
8.85001
 31
0.0
  0
LINE
  5
265
  8
0
 10
5.81499
 20
8.85001
 30
0.0
 11
5.78499
 21
8.85001
 31
0.0
  0
LINE
  5
266
  8
0
 10
5.825
 20
8.85001
 30
0.0
 11
5.825
 21
9.14999
 31
0.0
  0
LINE
  5
267
  8
0
 10
5.825
 20
9.14999
 30
0.0
 11
5.855
 21
9.14999
 31
0.0
  0
LINE
  5
268
  8
0
 10
5.855
 20
9.14999
 30
0.0
 11
5.855
 21
8.85001
 31
0.0
  0
LINE
  5
269
  8
0
 10
5.855
 20
8.85001
 30
0.0
 11
5.825
 21
8.85001
 31
0.0
  0
LINE
  5
26A
  8
0
 10
5.86499
 20
8.85001
 30
0.0
 11
5.86499
 21
9.14999
 31
0.0
  0
LINE
  5
26B
  8
0
 10
5.86499
 20
9.14999
 30
0.0
 11
5.89499
 21
9.14999
 31
0.0
  0
LINE
  5
26C
  8
0
 10
5.89499
 20
9.14999
 30
0.0
 11
5.89499
 21
8.85001
 31
0.0
  0
LINE
  5
26D
  8
0
 10
5.89499
 20
8.85001
 30
0.0
 11
5.86499
 21
8.85001
 31
0.0
  0
LINE
  5
26E
  8
0
 10
5.905
 20
8.85001
 30
0.0
 11
5.905
 21
9.14999
 31
0.0
  0
LINE
  5
26F
  8
0
 10
5.905
 20
9.14999
 30
0.0
 11
5.935
 21
9.14999
 31
0.0
  0
LINE
  5
270
  8
0
 10
5.935
 20
9.14999
 30
0.0
 11
5.935
 21
8.85001
 31
0.0
  0
LINE
  5
271
  8
0
 10
5.935
 20
8.85001
 30
0.0
 11
5.905
 21
8.85001
 31
0.0
  0
LINE
  5
272
  8
0
 10
5.94499
 20
8.85001
 30
0.0
 11
5.94499
 21
9.14999
 31
0.0
  0
LINE
  5
273
  8
0
 10
5.94499
 20
9.14999
 30
0.0
 11
5.97499
 21
9.14999
 31
0.0
  0
LINE
  5
274
  8
0
 10
5.97499
 20
9.14999
 30
0.0
 11
5.97499
 21
8.85001
 31
0.0
  0
LINE
  5
275
  8
0
 10
5.97499
 20
8.85001
 30
0.0
 11
5.94499
 21
8.85001
 31
0.0
  0
LINE
  5
276
  8
0
 10
3.3
 20
3.8
 30
0.0
 11
3.3
 21
6.20001
 31
0.0
  0
LINE
  5
277
  8
0
 10
3.3
 20
6.20001
 30
0.0
 11
5.7
 21
6.20001
 31
0.0
  0
LINE
  5
278
  8
0
 10
5.7
 20
6.20001
 30
0.0
 11
5.7
 21
3.8
 31
0.0
  0
LINE
  5
279
  8
0
 10
5.7
 20
3.8
 30
0.0
 11
3.3
 21
3.8
 31
0.0
  0
ENDSEC
  0
EOF
