  0
SECTION
  2
HEADER
  9
$ACADVER
  1
AC1009
  9
$DWGCODEPAGE
  3
ANSI_1252
  9
$INSBASE
 10
0.0
 20
0.0
 30
0.0
  9
$EXTMIN
 10
1e+20
 20
1e+20
 30
1e+20
  9
$EXTMAX
 10
-1e+20
 20
-1e+20
 30
-1e+20
  9
$LIMMIN
 10
0.0
 20
0.0
  9
$LIMMAX
 10
420.0
 20
297.0
  9
$ORTHOMODE
 70
0
  9
$REGENMODE
 70
1
  9
$FILLMODE
 70
1
  9
$DRAGMODE
 70
2
  9
$QTEXTMODE
 70
0
  9
$MIRRTEXT
 70
1
  9
$OSMODE
 70
20583
  9
$LTSCALE
 40
1.0
  9
$ATTMODE
 70
1
  9
$TEXTSIZE
 40
2.5
  9
$TRACEWID
 40
1.0
  9
$TEXTSTYLE
  7
Standard
  9
$CLAYER
  8
0
  9
$CELTYPE
  6
ByLayer
  9
$CECOLOR
 62
256
  9
$DIMSCALE
 40
1.0
  9
$DIMASZ
 40
2.5
  9
$DIMEXO
 40
0.625
  9
$DIMDLI
 40
3.75
  9
$DIMRND
 40
0.0
  9
$DIMDLE
 40
0.0
  9
$DIMEXE
 40
1.25
  9
$DIMTP
 40
0.0
  9
$DIMTM
 40
0.0
  9
$DIMTXT
 40
2.5
  9
$DIMCEN
 40
2.5
  9
$DIMTSZ
 40
0.0
  9
$DIMTOL
 70
0
  9
$DIMLIM
 70
0
  9
$DIMTIH
 70
0
  9
$DIMTOH
 70
0
  9
$DIMSE1
 70
0
  9
$DIMSE2
 70
0
  9
$DIMTAD
 70
1
  9
$DIMZIN
 70
8
  9
$DIMBLK
  1

  9
$DIMASO
 70
1
  9
$DIMSHO
 70
1
  9
$DIMPOST
  1

  9
$DIMAPOST
  1

  9
$DIMALT
 70
0
  9
$DIMALTD
 70
3
  9
$DIMALTF
 40
0.03937007874
  9
$DIMLFAC
 40
1.0
  9
$DIMTOFL
 70
1
  9
$DIMTVP
 40
0.0
  9
$DIMTIX
 70
0
  9
$DIMSOXD
 70
0
  9
$DIMSAH
 70
0
  9
$DIMBLK1
  1

  9
$DIMBLK2
  1

  9
$DIMSTYLE
  2
ISO-25
  9
$DIMCLRD
 70
0
  9
$DIMCLRE
 70
0
  9
$DIMCLRT
 70
0
  9
$DIMTFAC
 40
1.0
  9
$DIMGAP
 40
0.625
  9
$COORDS
 70
1
  9
$ATTDIA
 70
0
  9
$ATTREQ
 70
1
  9
$HANDLING
 70
1
  9
$LUNITS
 70
2
  9
$LUPREC
 70
4
  9
$SKETCHINC
 40
1.0
  9
$FILLETRAD
 40
10.0
  9
$AUNITS
 70
0
  9
$AUPREC
 70
2
  9
$MENU
  1
.
  9
$ELEVATION
 40
0.0
  9
$PELEVATION
 40
0.0
  9
$THICKNESS
 40
0.0
  9
$LIMCHECK
 70
0
  9
$CHAMFERA
 40
0.0
  9
$CHAMFERB
 40
0.0
  9
$SKPOLY
 70
0
  9
$TDCREATE
 40
2460746.436087963
  9
$TDUPDATE
 40
2460746.436087963
  9
$TDINDWG
 40
0.0
  9
$TDUSRTIMER
 40
0.0
  9
$USRTIMER
 70
1
  9
$ANGBASE
 50
0.0
  9
$ANGDIR
 70
0
  9
$PDMODE
 70
0
  9
$PDSIZE
 40
0.0
  9
$PLINEWID
 40
0.0
  9
$SPLFRAME
 70
0
  9
$SPLINETYPE
 70
6
  9
$SPLINESEGS
 70
8
  9
$HANDSEED
  5
304
  9
$SURFTAB1
 70
6
  9
$SURFTAB2
 70
6
  9
$SURFTYPE
 70
6
  9
$SURFU
 70
6
  9
$SURFV
 70
6
  9
$UCSNAME
  2

  9
$UCSORG
 10
0.0
 20
0.0
 30
0.0
  9
$UCSXDIR
 10
1.0
 20
0.0
 30
0.0
  9
$UCSYDIR
 10
0.0
 20
1.0
 30
0.0
  9
$PUCSNAME
  2

  9
$PUCSORG
 10
0.0
 20
0.0
 30
0.0
  9
$PUCSXDIR
 10
1.0
 20
0.0
 30
0.0
  9
$PUCSYDIR
 10
0.0
 20
1.0
 30
0.0
  9
$USERI1
 70
0
  9
$USERI2
 70
0
  9
$USERI3
 70
0
  9
$USERI4
 70
0
  9
$USERI5
 70
0
  9
$USERR1
 40
0.0
  9
$USERR2
 40
0.0
  9
$USERR3
 40
0.0
  9
$USERR4
 40
0.0
  9
$USERR5
 40
0.0
  9
$WORLDVIEW
 70
1
  9
$SHADEDGE
 70
3
  9
$SHADEDIF
 70
70
  9
$TILEMODE
 70
1
  9
$MAXACTVP
 70
64
  9
$PLIMCHECK
 70
0
  9
$PEXTMIN
 10
1e+20
 20
1e+20
 30
1e+20
  9
$PEXTMAX
 10
-1e+20
 20
-1e+20
 30
-1e+20
  9
$PLIMMIN
 10
0.0
 20
0.0
  9
$PLIMMAX
 10
420.0
 20
297.0
  9
$UNITMODE
 70
0
  9
$VISRETAIN
 70
1
  9
$PLINEGEN
 70
0
  9
$PSLTSCALE
 70
1
  0
ENDSEC
  0
SECTION
  2
TABLES
  0
TABLE
  2
VPORT
 70
1
  0
VPORT
  5
2F8
  2
*Active
 70
0
 10
0.0
 20
0.0
 11
1.0
 21
1.0
 12
0.0
 22
0.0
 13
0.0
 23
0.0
 14
0.5
 24
0.5
 15
0.5
 25
0.5
 16
0.0
 26
0.0
 36
1.0
 17
0.0
 27
0.0
 37
0.0
 40
1000.0
 41
1.34
 42
50.0
 43
0.0
 44
0.0
 50
0.0
 51
0.0
 71
0
 72
1000
 73
1
 74
3
 75
0
 76
0
 77
0
 78
0
  0
ENDTAB
  0
TABLE
  2
LTYPE
 70
3
  0
LTYPE
  5
2F9
  2
ByBlock
 70
0
  3

 72
65
 73
0
 40
0.0
  0
LTYPE
  5
2FA
  2
ByLayer
 70
0
  3

 72
65
 73
0
 40
0.0
  0
LTYPE
  5
2FB
  2
Continuous
 70
0
  3

 72
65
 73
0
 40
0.0
  0
ENDTAB
  0
TABLE
  2
LAYER
 70
2
  0
LAYER
  5
2FC
  2
0
 70
0
 62
7
  6
Continuous
  0
LAYER
  5
2FD
  2
Defpoints
 70
0
 62
7
  6
Continuous
  0
ENDTAB
  0
TABLE
  2
STYLE
 70
1
  0
STYLE
  5
2FE
  2
Standard
 70
0
 40
0.0
 41
1.0
 50
0.0
 71
0
 42
2.5
  3
txt
  4

  0
ENDTAB
  0
TABLE
  2
VIEW
 70
0
  0
ENDTAB
  0
TABLE
  2
UCS
 70
0
  0
ENDTAB
  0
TABLE
  2
APPID
 70
3
  0
APPID
  5
2FF
  2
ACAD
 70
0
  0
APPID
  5
302
  2
HATCHBACKGROUNDCOLOR
 70
0
  0
APPID
  5
303
  2
EZDXF
 70
0
  0
ENDTAB
  0
TABLE
  2
DIMSTYLE
 70
1
  0
DIMSTYLE
105
300
  2
Standard
 70
0
  3

  4

  5

  6

  7

 40
1.0
 41
2.5
 42
0.625
 43
3.75
 44
1.25
 45
0.0
 46
0.0
 47
0.0
 48
0.0
140
2.5
141
2.5
142
0.0
143
0.03937007874
144
1.0
145
0.0
146
1.0
147
0.625
 71
0
 72
0
 73
0
 74
0
 75
0
 76
0
 77
1
 78
8
170
0
171
3
172
1
173
0
174
0
175
0
176
0
177
0
178
0
  0
ENDTAB
  0
ENDSEC
  0
SECTION
  2
BLOCKS
  0
BLOCK
  5
2D9
  8
0
  2
$Model_Space
 70
0
 10
0.0
 20
0.0
 30
0.0
  3
$Model_Space
  1

1001
EZDXF
1000
WRITTEN_BY_EZDXF
1000
1.3.5 @ 2025-03-11T14:27:58.394251+00:00
  0
ENDBLK
  5
2DA
  8
0
  0
BLOCK
  5
2DB
  8
0
  2
$Paper_Space
 70
0
 10
0.0
 20
0.0
 30
0.0
  3
$Paper_Space
  1

  0
ENDBLK
  5
2DC
  8
0
  0
ENDSEC
  0
SECTION
  2
ENTITIES
  0
LINE
  5
100
  8
0
 10
0.613571
 20
-49.9962
 30
0.0
 11
1.22705
 21
-49.9849
 31
0.0
  0
LINE
  5
101
  8
0
 10
1.22705
 20
-49.9849
 30
0.0
 11
1.84035
 21
-49.9661
 31
0.0
  0
LINE
  5
102
  8
0
 10
1.84035
 20
-49.9661
 30
0.0
 11
2.45337
 21
-49.9398
 31
0.0
  0
LINE
  5
103
  8
0
 10
2.45337
 20
-49.9398
 30
0.0
 11
3.06602
 21
-49.9059
 31
0.0
  0
LINE
  5
104
  8
0
 10
3.06602
 20
-49.9059
 30
0.0
 11
3.67822
 21
-49.8645
 31
0.0
  0
LINE
  5
105
  8
0
 10
3.67822
 20
-49.8645
 30
0.0
 11
4.28986
 21
-49.8156
 31
0.0
  0
LINE
  5
106
  8
0
 10
4.28986
 20
-49.8156
 30
0.0
 11
4.90085
 21
-49.7592
 31
0.0
  0
LINE
  5
107
  8
0
 10
4.90085
 20
-49.7592
 30
0.0
 11
5.51111
 21
-49.6953
 31
0.0
  0
LINE
  5
108
  8
0
 10
5.51111
 20
-49.6953
 30
0.0
 11
6.12053
 21
-49.624
 31
0.0
  0
LINE
  5
109
  8
0
 10
6.12053
 20
-49.624
 30
0.0
 11
6.72903
 21
-49.5451
 31
0.0
  0
LINE
  5
10A
  8
0
 10
6.72903
 20
-49.5451
 30
0.0
 11
7.33652
 21
-49.4588
 31
0.0
  0
LINE
  5
10B
  8
0
 10
7.33652
 20
-49.4588
 30
0.0
 11
7.9429
 21
-49.3651
 31
0.0
  0
LINE
  5
10C
  8
0
 10
7.9429
 20
-49.3651
 30
0.0
 11
8.54808
 21
-49.2639
 31
0.0
  0
LINE
  5
10D
  8
0
 10
8.54808
 20
-49.2639
 30
0.0
 11
9.15199
 21
-49.1553
 31
0.0
  0
LINE
  5
10E
  8
0
 10
9.15199
 20
-49.1553
 30
0.0
 11
9.7545
 21
-49.0393
 31
0.0
  0
LINE
  5
10F
  8
0
 10
9.7545
 20
-49.0393
 30
0.0
 11
10.3556
 21
-48.9159
 31
0.0
  0
LINE
  5
110
  8
0
 10
10.3556
 20
-48.9159
 30
0.0
 11
10.955
 21
-48.7851
 31
0.0
  0
LINE
  5
111
  8
0
 10
10.955
 20
-48.7851
 30
0.0
 11
11.5529
 21
-48.647
 31
0.0
  0
LINE
  5
112
  8
0
 10
11.5529
 20
-48.647
 30
0.0
 11
12.149
 21
-48.5016
 31
0.0
  0
LINE
  5
113
  8
0
 10
12.149
 20
-48.5016
 30
0.0
 11
12.7433
 21
-48.3488
 31
0.0
  0
LINE
  5
114
  8
0
 10
12.7433
 20
-48.3488
 30
0.0
 11
13.3356
 21
-48.1888
 31
0.0
  0
LINE
  5
115
  8
0
 10
13.3356
 20
-48.1888
 30
0.0
 11
13.926
 21
-48.0215
 31
0.0
  0
LINE
  5
116
  8
0
 10
13.926
 20
-48.0215
 30
0.0
 11
14.5142
 21
-47.847
 31
0.0
  0
LINE
  5
117
  8
0
 10
14.5142
 20
-47.847
 30
0.0
 11
15.1003
 21
-47.6653
 31
0.0
  0
LINE
  5
118
  8
0
 10
15.1003
 20
-47.6653
 30
0.0
 11
15.6841
 21
-47.4764
 31
0.0
  0
LINE
  5
119
  8
0
 10
15.6841
 20
-47.4764
 30
0.0
 11
16.2655
 21
-47.2804
 31
0.0
  0
LINE
  5
11A
  8
0
 10
16.2655
 20
-47.2804
 30
0.0
 11
16.8445
 21
-47.0772
 31
0.0
  0
LINE
  5
11B
  8
0
 10
16.8445
 20
-47.0772
 30
0.0
 11
17.4209
 21
-46.8669
 31
0.0
  0
LINE
  5
11C
  8
0
 10
17.4209
 20
-46.8669
 30
0.0
 11
17.9948
 21
-46.6496
 31
0.0
  0
LINE
  5
11D
  8
0
 10
17.9948
 20
-46.6496
 30
0.0
 11
18.5659
 21
-46.4253
 31
0.0
  0
LINE
  5
11E
  8
0
 10
18.5659
 20
-46.4253
 30
0.0
 11
19.1342
 21
-46.194
 31
0.0
  0
LINE
  5
11F
  8
0
 10
19.1342
 20
-46.194
 30
0.0
 11
19.6996
 21
-45.9557
 31
0.0
  0
LINE
  5
120
  8
0
 10
19.6996
 20
-45.9557
 30
0.0
 11
20.2621
 21
-45.7105
 31
0.0
  0
LINE
  5
121
  8
0
 10
20.2621
 20
-45.7105
 30
0.0
 11
20.8215
 21
-45.4584
 31
0.0
  0
LINE
  5
122
  8
0
 10
20.8215
 20
-45.4584
 30
0.0
 11
21.3777
 21
-45.1995
 31
0.0
  0
LINE
  5
123
  8
0
 10
21.3777
 20
-45.1995
 30
0.0
 11
21.9308
 21
-44.9337
 31
0.0
  0
LINE
  5
124
  8
0
 10
21.9308
 20
-44.9337
 30
0.0
 11
22.4806
 21
-44.6612
 31
0.0
  0
LINE
  5
125
  8
0
 10
22.4806
 20
-44.6612
 30
0.0
 11
23.0269
 21
-44.382
 31
0.0
  0
LINE
  5
126
  8
0
 10
23.0269
 20
-44.382
 30
0.0
 11
23.5698
 21
-44.0961
 31
0.0
  0
LINE
  5
127
  8
0
 10
23.5698
 20
-44.0961
 30
0.0
 11
24.1092
 21
-43.8035
 31
0.0
  0
LINE
  5
128
  8
0
 10
24.1092
 20
-43.8035
 30
0.0
 11
24.6449
 21
-43.5043
 31
0.0
  0
LINE
  5
129
  8
0
 10
24.6449
 20
-43.5043
 30
0.0
 11
25.1769
 21
-43.1986
 31
0.0
  0
LINE
  5
12A
  8
0
 10
25.1769
 20
-43.1986
 30
0.0
 11
25.7051
 21
-42.8864
 31
0.0
  0
LINE
  5
12B
  8
0
 10
25.7051
 20
-42.8864
 30
0.0
 11
26.2295
 21
-42.5677
 31
0.0
  0
LINE
  5
12C
  8
0
 10
26.2295
 20
-42.5677
 30
0.0
 11
26.7499
 21
-42.2427
 31
0.0
  0
LINE
  5
12D
  8
0
 10
26.7499
 20
-42.2427
 30
0.0
 11
27.2662
 21
-41.9112
 31
0.0
  0
LINE
  5
12E
  8
0
 10
27.2662
 20
-41.9112
 30
0.0
 11
27.7785
 21
-41.5735
 31
0.0
  0
LINE
  5
12F
  8
0
 10
27.7785
 20
-41.5735
 30
0.0
 11
28.2866
 21
-41.2295
 31
0.0
  0
LINE
  5
130
  8
0
 10
28.2866
 20
-41.2295
 30
0.0
 11
28.7904
 21
-40.8792
 31
0.0
  0
LINE
  5
131
  8
0
 10
28.7904
 20
-40.8792
 30
0.0
 11
29.2899
 21
-40.5229
 31
0.0
  0
LINE
  5
132
  8
0
 10
29.2899
 20
-40.5229
 30
0.0
 11
29.785
 21
-40.1604
 31
0.0
  0
LINE
  5
133
  8
0
 10
29.785
 20
-40.1604
 30
0.0
 11
30.2755
 21
-39.7918
 31
0.0
  0
LINE
  5
134
  8
0
 10
30.2755
 20
-39.7918
 30
0.0
 11
30.7616
 21
-39.4173
 31
0.0
  0
LINE
  5
135
  8
0
 10
30.7616
 20
-39.4173
 30
0.0
 11
31.243
 21
-39.0368
 31
0.0
  0
LINE
  5
136
  8
0
 10
31.243
 20
-39.0368
 30
0.0
 11
31.7197
 21
-38.6505
 31
0.0
  0
LINE
  5
137
  8
0
 10
31.7197
 20
-38.6505
 30
0.0
 11
32.1916
 21
-38.2584
 31
0.0
  0
LINE
  5
138
  8
0
 10
32.1916
 20
-38.2584
 30
0.0
 11
32.6586
 21
-37.8604
 31
0.0
  0
LINE
  5
139
  8
0
 10
32.6586
 20
-37.8604
 30
0.0
 11
33.1208
 21
-37.4568
 31
0.0
  0
LINE
  5
13A
  8
0
 10
33.1208
 20
-37.4568
 30
0.0
 11
33.5779
 21
-37.0475
 31
0.0
  0
LINE
  5
13B
  8
0
 10
33.5779
 20
-37.0475
 30
0.0
 11
34.03
 21
-36.6327
 31
0.0
  0
LINE
  5
13C
  8
0
 10
34.03
 20
-36.6327
 30
0.0
 11
34.477
 21
-36.2123
 31
0.0
  0
LINE
  5
13D
  8
0
 10
34.477
 20
-36.2123
 30
0.0
 11
34.9188
 21
-35.7865
 31
0.0
  0
LINE
  5
13E
  8
0
 10
34.9188
 20
-35.7865
 30
0.0
 11
35.3553
 21
-35.3553
 31
0.0
  0
LINE
  5
13F
  8
0
 10
35.3553
 20
-35.3553
 30
0.0
 11
35.7865
 21
-34.9188
 31
0.0
  0
LINE
  5
140
  8
0
 10
35.7865
 20
-34.9188
 30
0.0
 11
36.2123
 21
-34.477
 31
0.0
  0
LINE
  5
141
  8
0
 10
36.2123
 20
-34.477
 30
0.0
 11
36.6327
 21
-34.03
 31
0.0
  0
LINE
  5
142
  8
0
 10
36.6327
 20
-34.03
 30
0.0
 11
37.0475
 21
-33.5779
 31
0.0
  0
LINE
  5
143
  8
0
 10
37.0475
 20
-33.5779
 30
0.0
 11
37.4568
 21
-33.1208
 31
0.0
  0
LINE
  5
144
  8
0
 10
37.4568
 20
-33.1208
 30
0.0
 11
37.8604
 21
-32.6586
 31
0.0
  0
LINE
  5
145
  8
0
 10
37.8604
 20
-32.6586
 30
0.0
 11
38.2584
 21
-32.1916
 31
0.0
  0
LINE
  5
146
  8
0
 10
38.2584
 20
-32.1916
 30
0.0
 11
38.6505
 21
-31.7197
 31
0.0
  0
LINE
  5
147
  8
0
 10
38.6505
 20
-31.7197
 30
0.0
 11
39.0368
 21
-31.243
 31
0.0
  0
LINE
  5
148
  8
0
 10
39.0368
 20
-31.243
 30
0.0
 11
39.4173
 21
-30.7616
 31
0.0
  0
LINE
  5
149
  8
0
 10
39.4173
 20
-30.7616
 30
0.0
 11
39.7918
 21
-30.2755
 31
0.0
  0
LINE
  5
14A
  8
0
 10
39.7918
 20
-30.2755
 30
0.0
 11
40.1604
 21
-29.785
 31
0.0
  0
LINE
  5
14B
  8
0
 10
40.1604
 20
-29.785
 30
0.0
 11
40.5229
 21
-29.2899
 31
0.0
  0
LINE
  5
14C
  8
0
 10
40.5229
 20
-29.2899
 30
0.0
 11
40.8792
 21
-28.7904
 31
0.0
  0
LINE
  5
14D
  8
0
 10
40.8792
 20
-28.7904
 30
0.0
 11
41.2295
 21
-28.2866
 31
0.0
  0
LINE
  5
14E
  8
0
 10
41.2295
 20
-28.2866
 30
0.0
 11
41.5735
 21
-27.7785
 31
0.0
  0
LINE
  5
14F
  8
0
 10
41.5735
 20
-27.7785
 30
0.0
 11
41.9112
 21
-27.2662
 31
0.0
  0
LINE
  5
150
  8
0
 10
41.9112
 20
-27.2662
 30
0.0
 11
42.2427
 21
-26.7499
 31
0.0
  0
LINE
  5
151
  8
0
 10
42.2427
 20
-26.7499
 30
0.0
 11
42.5677
 21
-26.2295
 31
0.0
  0
LINE
  5
152
  8
0
 10
42.5677
 20
-26.2295
 30
0.0
 11
42.8864
 21
-25.7051
 31
0.0
  0
LINE
  5
153
  8
0
 10
42.8864
 20
-25.7051
 30
0.0
 11
43.1986
 21
-25.1769
 31
0.0
  0
LINE
  5
154
  8
0
 10
43.1986
 20
-25.1769
 30
0.0
 11
43.5043
 21
-24.6449
 31
0.0
  0
LINE
  5
155
  8
0
 10
43.5043
 20
-24.6449
 30
0.0
 11
43.8035
 21
-24.1092
 31
0.0
  0
LINE
  5
156
  8
0
 10
43.8035
 20
-24.1092
 30
0.0
 11
44.0961
 21
-23.5698
 31
0.0
  0
LINE
  5
157
  8
0
 10
44.0961
 20
-23.5698
 30
0.0
 11
44.382
 21
-23.0269
 31
0.0
  0
LINE
  5
158
  8
0
 10
44.382
 20
-23.0269
 30
0.0
 11
44.6612
 21
-22.4806
 31
0.0
  0
LINE
  5
159
  8
0
 10
44.6612
 20
-22.4806
 30
0.0
 11
44.9337
 21
-21.9308
 31
0.0
  0
LINE
  5
15A
  8
0
 10
44.9337
 20
-21.9308
 30
0.0
 11
45.1995
 21
-21.3777
 31
0.0
  0
LINE
  5
15B
  8
0
 10
45.1995
 20
-21.3777
 30
0.0
 11
45.4584
 21
-20.8215
 31
0.0
  0
LINE
  5
15C
  8
0
 10
45.4584
 20
-20.8215
 30
0.0
 11
45.7105
 21
-20.2621
 31
0.0
  0
LINE
  5
15D
  8
0
 10
45.7105
 20
-20.2621
 30
0.0
 11
45.9557
 21
-19.6996
 31
0.0
  0
LINE
  5
15E
  8
0
 10
45.9557
 20
-19.6996
 30
0.0
 11
46.194
 21
-19.1342
 31
0.0
  0
LINE
  5
15F
  8
0
 10
46.194
 20
-19.1342
 30
0.0
 11
46.4253
 21
-18.5659
 31
0.0
  0
LINE
  5
160
  8
0
 10
46.4253
 20
-18.5659
 30
0.0
 11
46.6496
 21
-17.9948
 31
0.0
  0
LINE
  5
161
  8
0
 10
46.6496
 20
-17.9948
 30
0.0
 11
46.8669
 21
-17.4209
 31
0.0
  0
LINE
  5
162
  8
0
 10
46.8669
 20
-17.4209
 30
0.0
 11
47.0772
 21
-16.8445
 31
0.0
  0
LINE
  5
163
  8
0
 10
47.0772
 20
-16.8445
 30
0.0
 11
47.2804
 21
-16.2655
 31
0.0
  0
LINE
  5
164
  8
0
 10
47.2804
 20
-16.2655
 30
0.0
 11
47.4764
 21
-15.6841
 31
0.0
  0
LINE
  5
165
  8
0
 10
47.4764
 20
-15.6841
 30
0.0
 11
47.6653
 21
-15.1003
 31
0.0
  0
LINE
  5
166
  8
0
 10
47.6653
 20
-15.1003
 30
0.0
 11
47.847
 21
-14.5142
 31
0.0
  0
LINE
  5
167
  8
0
 10
47.847
 20
-14.5142
 30
0.0
 11
48.0215
 21
-13.926
 31
0.0
  0
LINE
  5
168
  8
0
 10
48.0215
 20
-13.926
 30
0.0
 11
48.1888
 21
-13.3356
 31
0.0
  0
LINE
  5
169
  8
0
 10
48.1888
 20
-13.3356
 30
0.0
 11
48.3488
 21
-12.7433
 31
0.0
  0
LINE
  5
16A
  8
0
 10
48.3488
 20
-12.7433
 30
0.0
 11
48.5016
 21
-12.149
 31
0.0
  0
LINE
  5
16B
  8
0
 10
48.5016
 20
-12.149
 30
0.0
 11
48.647
 21
-11.5529
 31
0.0
  0
LINE
  5
16C
  8
0
 10
48.647
 20
-11.5529
 30
0.0
 11
48.7851
 21
-10.955
 31
0.0
  0
LINE
  5
16D
  8
0
 10
48.7851
 20
-10.955
 30
0.0
 11
48.9159
 21
-10.3556
 31
0.0
  0
LINE
  5
16E
  8
0
 10
48.9159
 20
-10.3556
 30
0.0
 11
49.0393
 21
-9.7545
 31
0.0
  0
LINE
  5
16F
  8
0
 10
49.0393
 20
-9.7545
 30
0.0
 11
49.1553
 21
-9.15199
 31
0.0
  0
LINE
  5
170
  8
0
 10
49.1553
 20
-9.15199
 30
0.0
 11
49.2639
 21
-8.54808
 31
0.0
  0
LINE
  5
171
  8
0
 10
49.2639
 20
-8.54808
 30
0.0
 11
49.3651
 21
-7.9429
 31
0.0
  0
LINE
  5
172
  8
0
 10
49.3651
 20
-7.9429
 30
0.0
 11
49.4588
 21
-7.33652
 31
0.0
  0
LINE
  5
173
  8
0
 10
49.4588
 20
-7.33652
 30
0.0
 11
49.5451
 21
-6.72903
 31
0.0
  0
LINE
  5
174
  8
0
 10
49.5451
 20
-6.72903
 30
0.0
 11
49.624
 21
-6.12053
 31
0.0
  0
LINE
  5
175
  8
0
 10
49.624
 20
-6.12053
 30
0.0
 11
49.6953
 21
-5.51111
 31
0.0
  0
LINE
  5
176
  8
0
 10
49.6953
 20
-5.51111
 30
0.0
 11
49.7592
 21
-4.90085
 31
0.0
  0
LINE
  5
177
  8
0
 10
49.7592
 20
-4.90085
 30
0.0
 11
49.8156
 21
-4.28986
 31
0.0
  0
LINE
  5
178
  8
0
 10
49.8156
 20
-4.28986
 30
0.0
 11
49.8645
 21
-3.67822
 31
0.0
  0
LINE
  5
179
  8
0
 10
49.8645
 20
-3.67822
 30
0.0
 11
49.9059
 21
-3.06602
 31
0.0
  0
LINE
  5
17A
  8
0
 10
49.9059
 20
-3.06602
 30
0.0
 11
49.9398
 21
-2.45337
 31
0.0
  0
LINE
  5
17B
  8
0
 10
49.9398
 20
-2.45337
 30
0.0
 11
49.9661
 21
-1.84035
 31
0.0
  0
LINE
  5
17C
  8
0
 10
49.9661
 20
-1.84035
 30
0.0
 11
49.9849
 21
-1.22705
 31
0.0
  0
LINE
  5
17D
  8
0
 10
49.9849
 20
-1.22705
 30
0.0
 11
49.9962
 21
-0.613571
 31
0.0
  0
LINE
  5
17E
  8
0
 10
49.9962
 20
-0.613571
 30
0.0
 11
50.0
 21
0.0
 31
0.0
  0
LINE
  5
17F
  8
0
 10
50.0
 20
0.0
 30
0.0
 11
49.9962
 21
0.613571
 31
0.0
  0
LINE
  5
180
  8
0
 10
49.9962
 20
0.613571
 30
0.0
 11
49.9849
 21
1.22705
 31
0.0
  0
LINE
  5
181
  8
0
 10
49.9849
 20
1.22705
 30
0.0
 11
49.9661
 21
1.84035
 31
0.0
  0
LINE
  5
182
  8
0
 10
49.9661
 20
1.84035
 30
0.0
 11
49.9398
 21
2.45337
 31
0.0
  0
LINE
  5
183
  8
0
 10
49.9398
 20
2.45337
 30
0.0
 11
49.9059
 21
3.06602
 31
0.0
  0
LINE
  5
184
  8
0
 10
49.9059
 20
3.06602
 30
0.0
 11
49.8645
 21
3.67822
 31
0.0
  0
LINE
  5
185
  8
0
 10
49.8645
 20
3.67822
 30
0.0
 11
49.8156
 21
4.28986
 31
0.0
  0
LINE
  5
186
  8
0
 10
49.8156
 20
4.28986
 30
0.0
 11
49.7592
 21
4.90085
 31
0.0
  0
LINE
  5
187
  8
0
 10
49.7592
 20
4.90085
 30
0.0
 11
49.6953
 21
5.51111
 31
0.0
  0
LINE
  5
188
  8
0
 10
49.6953
 20
5.51111
 30
0.0
 11
49.624
 21
6.12053
 31
0.0
  0
LINE
  5
189
  8
0
 10
49.624
 20
6.12053
 30
0.0
 11
49.5451
 21
6.72903
 31
0.0
  0
LINE
  5
18A
  8
0
 10
49.5451
 20
6.72903
 30
0.0
 11
49.4588
 21
7.33652
 31
0.0
  0
LINE
  5
18B
  8
0
 10
49.4588
 20
7.33652
 30
0.0
 11
49.3651
 21
7.9429
 31
0.0
  0
LINE
  5
18C
  8
0
 10
49.3651
 20
7.9429
 30
0.0
 11
49.2639
 21
8.54808
 31
0.0
  0
LINE
  5
18D
  8
0
 10
49.2639
 20
8.54808
 30
0.0
 11
49.1553
 21
9.15199
 31
0.0
  0
LINE
  5
18E
  8
0
 10
49.1553
 20
9.15199
 30
0.0
 11
49.0393
 21
9.7545
 31
0.0
  0
LINE
  5
18F
  8
0
 10
49.0393
 20
9.7545
 30
0.0
 11
48.9159
 21
10.3556
 31
0.0
  0
LINE
  5
190
  8
0
 10
48.9159
 20
10.3556
 30
0.0
 11
48.7851
 21
10.955
 31
0.0
  0
LINE
  5
191
  8
0
 10
48.7851
 20
10.955
 30
0.0
 11
48.647
 21
11.5529
 31
0.0
  0
LINE
  5
192
  8
0
 10
48.647
 20
11.5529
 30
0.0
 11
48.5016
 21
12.149
 31
0.0
  0
LINE
  5
193
  8
0
 10
48.5016
 20
12.149
 30
0.0
 11
48.3488
 21
12.7433
 31
0.0
  0
LINE
  5
194
  8
0
 10
48.3488
 20
12.7433
 30
0.0
 11
48.1888
 21
13.3356
 31
0.0
  0
LINE
  5
195
  8
0
 10
48.1888
 20
13.3356
 30
0.0
 11
48.0215
 21
13.926
 31
0.0
  0
LINE
  5
196
  8
0
 10
48.0215
 20
13.926
 30
0.0
 11
47.847
 21
14.5142
 31
0.0
  0
LINE
  5
197
  8
0
 10
47.847
 20
14.5142
 30
0.0
 11
47.6653
 21
15.1003
 31
0.0
  0
LINE
  5
198
  8
0
 10
47.6653
 20
15.1003
 30
0.0
 11
47.4764
 21
15.6841
 31
0.0
  0
LINE
  5
199
  8
0
 10
47.4764
 20
15.6841
 30
0.0
 11
47.2804
 21
16.2655
 31
0.0
  0
LINE
  5
19A
  8
0
 10
47.2804
 20
16.2655
 30
0.0
 11
47.0772
 21
16.8445
 31
0.0
  0
LINE
  5
19B
  8
0
 10
47.0772
 20
16.8445
 30
0.0
 11
46.8669
 21
17.4209
 31
0.0
  0
LINE
  5
19C
  8
0
 10
46.8669
 20
17.4209
 30
0.0
 11
46.6496
 21
17.9948
 31
0.0
  0
LINE
  5
19D
  8
0
 10
46.6496
 20
17.9948
 30
0.0
 11
46.4253
 21
18.5659
 31
0.0
  0
LINE
  5
19E
  8
0
 10
46.4253
 20
18.5659
 30
0.0
 11
46.194
 21
19.1342
 31
0.0
  0
LINE
  5
19F
  8
0
 10
46.194
 20
19.1342
 30
0.0
 11
45.9557
 21
19.6996
 31
0.0
  0
LINE
  5
1A0
  8
0
 10
45.9557
 20
19.6996
 30
0.0
 11
45.7105
 21
20.2621
 31
0.0
  0
LINE
  5
1A1
  8
0
 10
45.7105
 20
20.2621
 30
0.0
 11
45.4584
 21
20.8215
 31
0.0
  0
LINE
  5
1A2
  8
0
 10
45.4584
 20
20.8215
 30
0.0
 11
45.1995
 21
21.3777
 31
0.0
  0
LINE
  5
1A3
  8
0
 10
45.1995
 20
21.3777
 30
0.0
 11
44.9337
 21
21.9308
 31
0.0
  0
LINE
  5
1A4
  8
0
 10
44.9337
 20
21.9308
 30
0.0
 11
44.6612
 21
22.4806
 31
0.0
  0
LINE
  5
1A5
  8
0
 10
44.6612
 20
22.4806
 30
0.0
 11
44.382
 21
23.0269
 31
0.0
  0
LINE
  5
1A6
  8
0
 10
44.382
 20
23.0269
 30
0.0
 11
44.0961
 21
23.5698
 31
0.0
  0
LINE
  5
1A7
  8
0
 10
44.0961
 20
23.5698
 30
0.0
 11
43.8035
 21
24.1092
 31
0.0
  0
LINE
  5
1A8
  8
0
 10
43.8035
 20
24.1092
 30
0.0
 11
43.5043
 21
24.6449
 31
0.0
  0
LINE
  5
1A9
  8
0
 10
43.5043
 20
24.6449
 30
0.0
 11
43.1986
 21
25.1769
 31
0.0
  0
LINE
  5
1AA
  8
0
 10
43.1986
 20
25.1769
 30
0.0
 11
42.8864
 21
25.7051
 31
0.0
  0
LINE
  5
1AB
  8
0
 10
42.8864
 20
25.7051
 30
0.0
 11
42.5677
 21
26.2295
 31
0.0
  0
LINE
  5
1AC
  8
0
 10
42.5677
 20
26.2295
 30
0.0
 11
42.2427
 21
26.7499
 31
0.0
  0
LINE
  5
1AD
  8
0
 10
42.2427
 20
26.7499
 30
0.0
 11
41.9112
 21
27.2662
 31
0.0
  0
LINE
  5
1AE
  8
0
 10
41.9112
 20
27.2662
 30
0.0
 11
41.5735
 21
27.7785
 31
0.0
  0
LINE
  5
1AF
  8
0
 10
41.5735
 20
27.7785
 30
0.0
 11
41.2295
 21
28.2866
 31
0.0
  0
LINE
  5
1B0
  8
0
 10
41.2295
 20
28.2866
 30
0.0
 11
40.8792
 21
28.7904
 31
0.0
  0
LINE
  5
1B1
  8
0
 10
40.8792
 20
28.7904
 30
0.0
 11
40.5229
 21
29.2899
 31
0.0
  0
LINE
  5
1B2
  8
0
 10
40.5229
 20
29.2899
 30
0.0
 11
40.1604
 21
29.785
 31
0.0
  0
LINE
  5
1B3
  8
0
 10
40.1604
 20
29.785
 30
0.0
 11
39.7918
 21
30.2755
 31
0.0
  0
LINE
  5
1B4
  8
0
 10
39.7918
 20
30.2755
 30
0.0
 11
39.4173
 21
30.7616
 31
0.0
  0
LINE
  5
1B5
  8
0
 10
39.4173
 20
30.7616
 30
0.0
 11
39.0368
 21
31.243
 31
0.0
  0
LINE
  5
1B6
  8
0
 10
39.0368
 20
31.243
 30
0.0
 11
38.6505
 21
31.7197
 31
0.0
  0
LINE
  5
1B7
  8
0
 10
38.6505
 20
31.7197
 30
0.0
 11
38.2584
 21
32.1916
 31
0.0
  0
LINE
  5
1B8
  8
0
 10
38.2584
 20
32.1916
 30
0.0
 11
37.8604
 21
32.6586
 31
0.0
  0
LINE
  5
1B9
  8
0
 10
37.8604
 20
32.6586
 30
0.0
 11
37.4568
 21
33.1208
 31
0.0
  0
LINE
  5
1BA
  8
0
 10
37.4568
 20
33.1208
 30
0.0
 11
37.0475
 21
33.5779
 31
0.0
  0
LINE
  5
1BB
  8
0
 10
37.0475
 20
33.5779
 30
0.0
 11
36.6327
 21
34.03
 31
0.0
  0
LINE
  5
1BC
  8
0
 10
36.6327
 20
34.03
 30
0.0
 11
36.2123
 21
34.477
 31
0.0
  0
LINE
  5
1BD
  8
0
 10
36.2123
 20
34.477
 30
0.0
 11
35.7865
 21
34.9188
 31
0.0
  0
LINE
  5
1BE
  8
0
 10
35.7865
 20
34.9188
 30
0.0
 11
35.3553
 21
35.3553
 31
0.0
  0
LINE
  5
1BF
  8
0
 10
35.3553
 20
35.3553
 30
0.0
 11
34.9188
 21
35.7865
 31
0.0
  0
LINE
  5
1C0
  8
0
 10
34.9188
 20
35.7865
 30
0.0
 11
34.477
 21
36.2123
 31
0.0
  0
LINE
  5
1C1
  8
0
 10
34.477
 20
36.2123
 30
0.0
 11
34.03
 21
36.6327
 31
0.0
  0
LINE
  5
1C2
  8
0
 10
34.03
 20
36.6327
 30
0.0
 11
33.5779
 21
37.0475
 31
0.0
  0
LINE
  5
1C3
  8
0
 10
33.5779
 20
37.0475
 30
0.0
 11
33.1208
 21
37.4568
 31
0.0
  0
LINE
  5
1C4
  8
0
 10
33.1208
 20
37.4568
 30
0.0
 11
32.6586
 21
37.8604
 31
0.0
  0
LINE
  5
1C5
  8
0
 10
32.6586
 20
37.8604
 30
0.0
 11
32.1916
 21
38.2584
 31
0.0
  0
LINE
  5
1C6
  8
0
 10
32.1916
 20
38.2584
 30
0.0
 11
31.7197
 21
38.6505
 31
0.0
  0
LINE
  5
1C7
  8
0
 10
31.7197
 20
38.6505
 30
0.0
 11
31.243
 21
39.0368
 31
0.0
  0
LINE
  5
1C8
  8
0
 10
31.243
 20
39.0368
 30
0.0
 11
30.7616
 21
39.4173
 31
0.0
  0
LINE
  5
1C9
  8
0
 10
30.7616
 20
39.4173
 30
0.0
 11
30.2755
 21
39.7918
 31
0.0
  0
LINE
  5
1CA
  8
0
 10
30.2755
 20
39.7918
 30
0.0
 11
29.785
 21
40.1604
 31
0.0
  0
LINE
  5
1CB
  8
0
 10
29.785
 20
40.1604
 30
0.0
 11
29.2899
 21
40.5229
 31
0.0
  0
LINE
  5
1CC
  8
0
 10
29.2899
 20
40.5229
 30
0.0
 11
28.7904
 21
40.8792
 31
0.0
  0
LINE
  5
1CD
  8
0
 10
28.7904
 20
40.8792
 30
0.0
 11
28.2866
 21
41.2295
 31
0.0
  0
LINE
  5
1CE
  8
0
 10
28.2866
 20
41.2295
 30
0.0
 11
27.7785
 21
41.5735
 31
0.0
  0
LINE
  5
1CF
  8
0
 10
27.7785
 20
41.5735
 30
0.0
 11
27.2662
 21
41.9112
 31
0.0
  0
LINE
  5
1D0
  8
0
 10
27.2662
 20
41.9112
 30
0.0
 11
26.7499
 21
42.2427
 31
0.0
  0
LINE
  5
1D1
  8
0
 10
26.7499
 20
42.2427
 30
0.0
 11
26.2295
 21
42.5677
 31
0.0
  0
LINE
  5
1D2
  8
0
 10
26.2295
 20
42.5677
 30
0.0
 11
25.7051
 21
42.8864
 31
0.0
  0
LINE
  5
1D3
  8
0
 10
25.7051
 20
42.8864
 30
0.0
 11
25.1769
 21
43.1986
 31
0.0
  0
LINE
  5
1D4
  8
0
 10
25.1769
 20
43.1986
 30
0.0
 11
24.6449
 21
43.5043
 31
0.0
  0
LINE
  5
1D5
  8
0
 10
24.6449
 20
43.5043
 30
0.0
 11
24.1092
 21
43.8035
 31
0.0
  0
LINE
  5
1D6
  8
0
 10
24.1092
 20
43.8035
 30
0.0
 11
23.5698
 21
44.0961
 31
0.0
  0
LINE
  5
1D7
  8
0
 10
23.5698
 20
44.0961
 30
0.0
 11
23.0269
 21
44.382
 31
0.0
  0
LINE
  5
1D8
  8
0
 10
23.0269
 20
44.382
 30
0.0
 11
22.4806
 21
44.6612
 31
0.0
  0
LINE
  5
1D9
  8
0
 10
22.4806
 20
44.6612
 30
0.0
 11
21.9308
 21
44.9337
 31
0.0
  0
LINE
  5
1DA
  8
0
 10
21.9308
 20
44.9337
 30
0.0
 11
21.3777
 21
45.1995
 31
0.0
  0
LINE
  5
1DB
  8
0
 10
21.3777
 20
45.1995
 30
0.0
 11
20.8215
 21
45.4584
 31
0.0
  0
LINE
  5
1DC
  8
0
 10
20.8215
 20
45.4584
 30
0.0
 11
20.2621
 21
45.7105
 31
0.0
  0
LINE
  5
1DD
  8
0
 10
20.2621
 20
45.7105
 30
0.0
 11
19.6996
 21
45.9557
 31
0.0
  0
LINE
  5
1DE
  8
0
 10
19.6996
 20
45.9557
 30
0.0
 11
19.1342
 21
46.194
 31
0.0
  0
LINE
  5
1DF
  8
0
 10
19.1342
 20
46.194
 30
0.0
 11
18.5659
 21
46.4253
 31
0.0
  0
LINE
  5
1E0
  8
0
 10
18.5659
 20
46.4253
 30
0.0
 11
17.9948
 21
46.6496
 31
0.0
  0
LINE
  5
1E1
  8
0
 10
17.9948
 20
46.6496
 30
0.0
 11
17.4209
 21
46.8669
 31
0.0
  0
LINE
  5
1E2
  8
0
 10
17.4209
 20
46.8669
 30
0.0
 11
16.8445
 21
47.0772
 31
0.0
  0
LINE
  5
1E3
  8
0
 10
16.8445
 20
47.0772
 30
0.0
 11
16.2655
 21
47.2804
 31
0.0
  0
LINE
  5
1E4
  8
0
 10
16.2655
 20
47.2804
 30
0.0
 11
15.6841
 21
47.4764
 31
0.0
  0
LINE
  5
1E5
  8
0
 10
15.6841
 20
47.4764
 30
0.0
 11
15.1003
 21
47.6653
 31
0.0
  0
LINE
  5
1E6
  8
0
 10
15.1003
 20
47.6653
 30
0.0
 11
14.5142
 21
47.847
 31
0.0
  0
LINE
  5
1E7
  8
0
 10
14.5142
 20
47.847
 30
0.0
 11
13.926
 21
48.0215
 31
0.0
  0
LINE
  5
1E8
  8
0
 10
13.926
 20
48.0215
 30
0.0
 11
13.3356
 21
48.1888
 31
0.0
  0
LINE
  5
1E9
  8
0
 10
13.3356
 20
48.1888
 30
0.0
 11
12.7433
 21
48.3488
 31
0.0
  0
LINE
  5
1EA
  8
0
 10
12.7433
 20
48.3488
 30
0.0
 11
12.149
 21
48.5016
 31
0.0
  0
LINE
  5
1EB
  8
0
 10
12.149
 20
48.5016
 30
0.0
 11
11.5529
 21
48.647
 31
0.0
  0
LINE
  5
1EC
  8
0
 10
11.5529
 20
48.647
 30
0.0
 11
10.955
 21
48.7851
 31
0.0
  0
LINE
  5
1ED
  8
0
 10
10.955
 20
48.7851
 30
0.0
 11
10.3556
 21
48.9159
 31
0.0
  0
LINE
  5
1EE
  8
0
 10
10.3556
 20
48.9159
 30
0.0
 11
9.7545
 21
49.0393
 31
0.0
  0
LINE
  5
1EF
  8
0
 10
9.7545
 20
49.0393
 30
0.0
 11
9.15199
 21
49.1553
 31
0.0
  0
LINE
  5
1F0
  8
0
 10
9.15199
 20
49.1553
 30
0.0
 11
8.54808
 21
49.2639
 31
0.0
  0
LINE
  5
1F1
  8
0
 10
8.54808
 20
49.2639
 30
0.0
 11
7.9429
 21
49.3651
 31
0.0
  0
LINE
  5
1F2
  8
0
 10
7.9429
 20
49.3651
 30
0.0
 11
7.33652
 21
49.4588
 31
0.0
  0
LINE
  5
1F3
  8
0
 10
7.33652
 20
49.4588
 30
0.0
 11
6.72903
 21
49.5451
 31
0.0
  0
LINE
  5
1F4
  8
0
 10
6.72903
 20
49.5451
 30
0.0
 11
6.12053
 21
49.624
 31
0.0
  0
LINE
  5
1F5
  8
0
 10
6.12053
 20
49.624
 30
0.0
 11
5.51111
 21
49.6953
 31
0.0
  0
LINE
  5
1F6
  8
0
 10
5.51111
 20
49.6953
 30
0.0
 11
4.90085
 21
49.7592
 31
0.0
  0
LINE
  5
1F7
  8
0
 10
4.90085
 20
49.7592
 30
0.0
 11
4.28986
 21
49.8156
 31
0.0
  0
LINE
  5
1F8
  8
0
 10
4.28986
 20
49.8156
 30
0.0
 11
3.67822
 21
49.8645
 31
0.0
  0
LINE
  5
1F9
  8
0
 10
3.67822
 20
49.8645
 30
0.0
 11
3.06602
 21
49.9059
 31
0.0
  0
LINE
  5
1FA
  8
0
 10
3.06602
 20
49.9059
 30
0.0
 11
2.45337
 21
49.9398
 31
0.0
  0
LINE
  5
1FB
  8
0
 10
2.45337
 20
49.9398
 30
0.0
 11
1.84035
 21
49.9661
 31
0.0
  0
LINE
  5
1FC
  8
0
 10
1.84035
 20
49.9661
 30
0.0
 11
1.22705
 21
49.9849
 31
0.0
  0
LINE
  5
1FD
  8
0
 10
1.22705
 20
49.9849
 30
0.0
 11
0.613571
 21
49.9962
 31
0.0
  0
LINE
  5
1FE
  8
0
 10
0.613571
 20
49.9962
 30
0.0
 11
0.0
 21
50.0
 31
0.0
  0
LINE
  5
1FF
  8
0
 10
0.0
 20
50.0
 30
0.0
 11
-0.613571
 21
49.9962
 31
0.0
  0
LINE
  5
200
  8
0
 10
-0.613571
 20
49.9962
 30
0.0
 11
-1.22705
 21
49.9849
 31
0.0
  0
LINE
  5
201
  8
0
 10
-1.22705
 20
49.9849
 30
0.0
 11
-1.84035
 21
49.9661
 31
0.0
  0
LINE
  5
202
  8
0
 10
-1.84035
 20
49.9661
 30
0.0
 11
-2.45337
 21
49.9398
 31
0.0
  0
LINE
  5
203
  8
0
 10
-2.45337
 20
49.9398
 30
0.0
 11
-3.06602
 21
49.9059
 31
0.0
  0
LINE
  5
204
  8
0
 10
-3.06602
 20
49.9059
 30
0.0
 11
-3.67822
 21
49.8645
 31
0.0
  0
LINE
  5
205
  8
0
 10
-3.67822
 20
49.8645
 30
0.0
 11
-4.28986
 21
49.8156
 31
0.0
  0
LINE
  5
206
  8
0
 10
-4.28986
 20
49.8156
 30
0.0
 11
-4.90085
 21
49.7592
 31
0.0
  0
LINE
  5
207
  8
0
 10
-4.90085
 20
49.7592
 30
0.0
 11
-5.51111
 21
49.6953
 31
0.0
  0
LINE
  5
208
  8
0
 10
-5.51111
 20
49.6953
 30
0.0
 11
-6.12053
 21
49.624
 31
0.0
  0
LINE
  5
209
  8
0
 10
-6.12053
 20
49.624
 30
0.0
 11
-6.72903
 21
49.5451
 31
0.0
  0
LINE
  5
20A
  8
0
 10
-6.72903
 20
49.5451
 30
0.0
 11
-7.33652
 21
49.4588
 31
0.0
  0
LINE
  5
20B
  8
0
 10
-7.33652
 20
49.4588
 30
0.0
 11
-7.9429
 21
49.3651
 31
0.0
  0
LINE
  5
20C
  8
0
 10
-7.9429
 20
49.3651
 30
0.0
 11
-8.54808
 21
49.2639
 31
0.0
  0
LINE
  5
20D
  8
0
 10
-8.54808
 20
49.2639
 30
0.0
 11
-9.15199
 21
49.1553
 31
0.0
  0
LINE
  5
20E
  8
0
 10
-9.15199
 20
49.1553
 30
0.0
 11
-9.7545
 21
49.0393
 31
0.0
  0
LINE
  5
20F
  8
0
 10
-9.7545
 20
49.0393
 30
0.0
 11
-10.3556
 21
48.9159
 31
0.0
  0
LINE
  5
210
  8
0
 10
-10.3556
 20
48.9159
 30
0.0
 11
-10.955
 21
48.7851
 31
0.0
  0
LINE
  5
211
  8
0
 10
-10.955
 20
48.7851
 30
0.0
 11
-11.5529
 21
48.647
 31
0.0
  0
LINE
  5
212
  8
0
 10
-11.5529
 20
48.647
 30
0.0
 11
-12.149
 21
48.5016
 31
0.0
  0
LINE
  5
213
  8
0
 10
-12.149
 20
48.5016
 30
0.0
 11
-12.7433
 21
48.3488
 31
0.0
  0
LINE
  5
214
  8
0
 10
-12.7433
 20
48.3488
 30
0.0
 11
-13.3356
 21
48.1888
 31
0.0
  0
LINE
  5
215
  8
0
 10
-13.3356
 20
48.1888
 30
0.0
 11
-13.926
 21
48.0215
 31
0.0
  0
LINE
  5
216
  8
0
 10
-13.926
 20
48.0215
 30
0.0
 11
-14.5142
 21
47.847
 31
0.0
  0
LINE
  5
217
  8
0
 10
-14.5142
 20
47.847
 30
0.0
 11
-15.1003
 21
47.6653
 31
0.0
  0
LINE
  5
218
  8
0
 10
-15.1003
 20
47.6653
 30
0.0
 11
-15.6841
 21
47.4764
 31
0.0
  0
LINE
  5
219
  8
0
 10
-15.6841
 20
47.4764
 30
0.0
 11
-16.2655
 21
47.2804
 31
0.0
  0
LINE
  5
21A
  8
0
 10
-16.2655
 20
47.2804
 30
0.0
 11
-16.8445
 21
47.0772
 31
0.0
  0
LINE
  5
21B
  8
0
 10
-16.8445
 20
47.0772
 30
0.0
 11
-17.4209
 21
46.8669
 31
0.0
  0
LINE
  5
21C
  8
0
 10
-17.4209
 20
46.8669
 30
0.0
 11
-17.9948
 21
46.6496
 31
0.0
  0
LINE
  5
21D
  8
0
 10
-17.9948
 20
46.6496
 30
0.0
 11
-18.5659
 21
46.4253
 31
0.0
  0
LINE
  5
21E
  8
0
 10
-18.5659
 20
46.4253
 30
0.0
 11
-19.1342
 21
46.194
 31
0.0
  0
LINE
  5
21F
  8
0
 10
-19.1342
 20
46.194
 30
0.0
 11
-19.6996
 21
45.9557
 31
0.0
  0
LINE
  5
220
  8
0
 10
-19.6996
 20
45.9557
 30
0.0
 11
-20.2621
 21
45.7105
 31
0.0
  0
LINE
  5
221
  8
0
 10
-20.2621
 20
45.7105
 30
0.0
 11
-20.8215
 21
45.4584
 31
0.0
  0
LINE
  5
222
  8
0
 10
-20.8215
 20
45.4584
 30
0.0
 11
-21.3777
 21
45.1995
 31
0.0
  0
LINE
  5
223
  8
0
 10
-21.3777
 20
45.1995
 30
0.0
 11
-21.9308
 21
44.9337
 31
0.0
  0
LINE
  5
224
  8
0
 10
-21.9308
 20
44.9337
 30
0.0
 11
-22.4806
 21
44.6612
 31
0.0
  0
LINE
  5
225
  8
0
 10
-22.4806
 20
44.6612
 30
0.0
 11
-23.0269
 21
44.382
 31
0.0
  0
LINE
  5
226
  8
0
 10
-23.0269
 20
44.382
 30
0.0
 11
-23.5698
 21
44.0961
 31
0.0
  0
LINE
  5
227
  8
0
 10
-23.5698
 20
44.0961
 30
0.0
 11
-24.1092
 21
43.8035
 31
0.0
  0
LINE
  5
228
  8
0
 10
-24.1092
 20
43.8035
 30
0.0
 11
-24.6449
 21
43.5043
 31
0.0
  0
LINE
  5
229
  8
0
 10
-24.6449
 20
43.5043
 30
0.0
 11
-25.1769
 21
43.1986
 31
0.0
  0
LINE
  5
22A
  8
0
 10
-25.1769
 20
43.1986
 30
0.0
 11
-25.7051
 21
42.8864
 31
0.0
  0
LINE
  5
22B
  8
0
 10
-25.7051
 20
42.8864
 30
0.0
 11
-26.2295
 21
42.5677
 31
0.0
  0
LINE
  5
22C
  8
0
 10
-26.2295
 20
42.5677
 30
0.0
 11
-26.7499
 21
42.2427
 31
0.0
  0
LINE
  5
22D
  8
0
 10
-26.7499
 20
42.2427
 30
0.0
 11
-27.2662
 21
41.9112
 31
0.0
  0
LINE
  5
22E
  8
0
 10
-27.2662
 20
41.9112
 30
0.0
 11
-27.7785
 21
41.5735
 31
0.0
  0
LINE
  5
22F
  8
0
 10
-27.7785
 20
41.5735
 30
0.0
 11
-28.2866
 21
41.2295
 31
0.0
  0
LINE
  5
230
  8
0
 10
-28.2866
 20
41.2295
 30
0.0
 11
-28.7904
 21
40.8792
 31
0.0
  0
LINE
  5
231
  8
0
 10
-28.7904
 20
40.8792
 30
0.0
 11
-29.2899
 21
40.5229
 31
0.0
  0
LINE
  5
232
  8
0
 10
-29.2899
 20
40.5229
 30
0.0
 11
-29.785
 21
40.1604
 31
0.0
  0
LINE
  5
233
  8
0
 10
-29.785
 20
40.1604
 30
0.0
 11
-30.2755
 21
39.7918
 31
0.0
  0
LINE
  5
234
  8
0
 10
-30.2755
 20
39.7918
 30
0.0
 11
-30.7616
 21
39.4173
 31
0.0
  0
LINE
  5
235
  8
0
 10
-30.7616
 20
39.4173
 30
0.0
 11
-31.243
 21
39.0368
 31
0.0
  0
LINE
  5
236
  8
0
 10
-31.243
 20
39.0368
 30
0.0
 11
-31.7197
 21
38.6505
 31
0.0
  0
LINE
  5
237
  8
0
 10
-31.7197
 20
38.6505
 30
0.0
 11
-32.1916
 21
38.2584
 31
0.0
  0
LINE
  5
238
  8
0
 10
-32.1916
 20
38.2584
 30
0.0
 11
-32.6586
 21
37.8604
 31
0.0
  0
LINE
  5
239
  8
0
 10
-32.6586
 20
37.8604
 30
0.0
 11
-33.1208
 21
37.4568
 31
0.0
  0
LINE
  5
23A
  8
0
 10
-33.1208
 20
37.4568
 30
0.0
 11
-33.5779
 21
37.0475
 31
0.0
  0
LINE
  5
23B
  8
0
 10
-33.5779
 20
37.0475
 30
0.0
 11
-34.03
 21
36.6327
 31
0.0
  0
LINE
  5
23C
  8
0
 10
-34.03
 20
36.6327
 30
0.0
 11
-34.477
 21
36.2123
 31
0.0
  0
LINE
  5
23D
  8
0
 10
-34.477
 20
36.2123
 30
0.0
 11
-34.9188
 21
35.7865
 31
0.0
  0
LINE
  5
23E
  8
0
 10
-34.9188
 20
35.7865
 30
0.0
 11
-35.3553
 21
35.3553
 31
0.0
  0
LINE
  5
23F
  8
0
 10
-35.3553
 20
35.3553
 30
0.0
 11
-35.7865
 21
34.9188
 31
0.0
  0
LINE
  5
240
  8
0
 10
-35.7865
 20
34.9188
 30
0.0
 11
-36.2123
 21
34.477
 31
0.0
  0
LINE
  5
241
  8
0
 10
-36.2123
 20
34.477
 30
0.0
 11
-36.6327
 21
34.03
 31
0.0
  0
LINE
  5
242
  8
0
 10
-36.6327
 20
34.03
 30
0.0
 11
-37.0475
 21
33.5779
 31
0.0
  0
LINE
  5
243
  8
0
 10
-37.0475
 20
33.5779
 30
0.0
 11
-37.4568
 21
33.1208
 31
0.0
  0
LINE
  5
244
  8
0
 10
-37.4568
 20
33.1208
 30
0.0
 11
-37.8604
 21
32.6586
 31
0.0
  0
LINE
  5
245
  8
0
 10
-37.8604
 20
32.6586
 30
0.0
 11
-38.2584
 21
32.1916
 31
0.0
  0
LINE
  5
246
  8
0
 10
-38.2584
 20
32.1916
 30
0.0
 11
-38.6505
 21
31.7197
 31
0.0
  0
LINE
  5
247
  8
0
 10
-38.6505
 20
31.7197
 30
0.0
 11
-39.0368
 21
31.243
 31
0.0
  0
LINE
  5
248
  8
0
 10
-39.0368
 20
31.243
 30
0.0
 11
-39.4173
 21
30.7616
 31
0.0
  0
LINE
  5
249
  8
0
 10
-39.4173
 20
30.7616
 30
0.0
 11
-39.7918
 21
30.2755
 31
0.0
  0
LINE
  5
24A
  8
0
 10
-39.7918
 20
30.2755
 30
0.0
 11
-40.1604
 21
29.785
 31
0.0
  0
LINE
  5
24B
  8
0
 10
-40.1604
 20
29.785
 30
0.0
 11
-40.5229
 21
29.2899
 31
0.0
  0
LINE
  5
24C
  8
0
 10
-40.5229
 20
29.2899
 30
0.0
 11
-40.8792
 21
28.7904
 31
0.0
  0
LINE
  5
24D
  8
0
 10
-40.8792
 20
28.7904
 30
0.0
 11
-41.2295
 21
28.2866
 31
0.0
  0
LINE
  5
24E
  8
0
 10
-41.2295
 20
28.2866
 30
0.0
 11
-41.5735
 21
27.7785
 31
0.0
  0
LINE
  5
24F
  8
0
 10
-41.5735
 20
27.7785
 30
0.0
 11
-41.9112
 21
27.2662
 31
0.0
  0
LINE
  5
250
  8
0
 10
-41.9112
 20
27.2662
 30
0.0
 11
-42.2427
 21
26.7499
 31
0.0
  0
LINE
  5
251
  8
0
 10
-42.2427
 20
26.7499
 30
0.0
 11
-42.5677
 21
26.2295
 31
0.0
  0
LINE
  5
252
  8
0
 10
-42.5677
 20
26.2295
 30
0.0
 11
-42.8864
 21
25.7051
 31
0.0
  0
LINE
  5
253
  8
0
 10
-42.8864
 20
25.7051
 30
0.0
 11
-43.1986
 21
25.1769
 31
0.0
  0
LINE
  5
254
  8
0
 10
-43.1986
 20
25.1769
 30
0.0
 11
-43.5043
 21
24.6449
 31
0.0
  0
LINE
  5
255
  8
0
 10
-43.5043
 20
24.6449
 30
0.0
 11
-43.8035
 21
24.1092
 31
0.0
  0
LINE
  5
256
  8
0
 10
-43.8035
 20
24.1092
 30
0.0
 11
-44.0961
 21
23.5698
 31
0.0
  0
LINE
  5
257
  8
0
 10
-44.0961
 20
23.5698
 30
0.0
 11
-44.382
 21
23.0269
 31
0.0
  0
LINE
  5
258
  8
0
 10
-44.382
 20
23.0269
 30
0.0
 11
-44.6612
 21
22.4806
 31
0.0
  0
LINE
  5
259
  8
0
 10
-44.6612
 20
22.4806
 30
0.0
 11
-44.9337
 21
21.9308
 31
0.0
  0
LINE
  5
25A
  8
0
 10
-44.9337
 20
21.9308
 30
0.0
 11
-45.1995
 21
21.3777
 31
0.0
  0
LINE
  5
25B
  8
0
 10
-45.1995
 20
21.3777
 30
0.0
 11
-45.4584
 21
20.8215
 31
0.0
  0
LINE
  5
25C
  8
0
 10
-45.4584
 20
20.8215
 30
0.0
 11
-45.7105
 21
20.2621
 31
0.0
  0
LINE
  5
25D
  8
0
 10
-45.7105
 20
20.2621
 30
0.0
 11
-45.9557
 21
19.6996
 31
0.0
  0
LINE
  5
25E
  8
0
 10
-45.9557
 20
19.6996
 30
0.0
 11
-46.194
 21
19.1342
 31
0.0
  0
LINE
  5
25F
  8
0
 10
-46.194
 20
19.1342
 30
0.0
 11
-46.4253
 21
18.5659
 31
0.0
  0
LINE
  5
260
  8
0
 10
-46.4253
 20
18.5659
 30
0.0
 11
-46.6496
 21
17.9948
 31
0.0
  0
LINE
  5
261
  8
0
 10
-46.6496
 20
17.9948
 30
0.0
 11
-46.8669
 21
17.4209
 31
0.0
  0
LINE
  5
262
  8
0
 10
-46.8669
 20
17.4209
 30
0.0
 11
-47.0772
 21
16.8445
 31
0.0
  0
LINE
  5
263
  8
0
 10
-47.0772
 20
16.8445
 30
0.0
 11
-47.2804
 21
16.2655
 31
0.0
  0
LINE
  5
264
  8
0
 10
-47.2804
 20
16.2655
 30
0.0
 11
-47.2857
 21
16.2497
 31
0.0
  0
LINE
  5
265
  8
0
 10
-47.2857
 20
16.2497
 30
0.0
 11
-47.2857
 21
-16.2497
 31
0.0
  0
LINE
  5
266
  8
0
 10
-47.2857
 20
-16.2497
 30
0.0
 11
-47.2804
 21
-16.2655
 31
0.0
  0
LINE
  5
267
  8
0
 10
-47.2804
 20
-16.2655
 30
0.0
 11
-47.0772
 21
-16.8445
 31
0.0
  0
LINE
  5
268
  8
0
 10
-47.0772
 20
-16.8445
 30
0.0
 11
-46.8669
 21
-17.4209
 31
0.0
  0
LINE
  5
269
  8
0
 10
-46.8669
 20
-17.4209
 30
0.0
 11
-46.6496
 21
-17.9948
 31
0.0
  0
LINE
  5
26A
  8
0
 10
-46.6496
 20
-17.9948
 30
0.0
 11
-46.4253
 21
-18.5659
 31
0.0
  0
LINE
  5
26B
  8
0
 10
-46.4253
 20
-18.5659
 30
0.0
 11
-46.194
 21
-19.1342
 31
0.0
  0
LINE
  5
26C
  8
0
 10
-46.194
 20
-19.1342
 30
0.0
 11
-45.9557
 21
-19.6996
 31
0.0
  0
LINE
  5
26D
  8
0
 10
-45.9557
 20
-19.6996
 30
0.0
 11
-45.7105
 21
-20.2621
 31
0.0
  0
LINE
  5
26E
  8
0
 10
-45.7105
 20
-20.2621
 30
0.0
 11
-45.4584
 21
-20.8215
 31
0.0
  0
LINE
  5
26F
  8
0
 10
-45.4584
 20
-20.8215
 30
0.0
 11
-45.1995
 21
-21.3777
 31
0.0
  0
LINE
  5
270
  8
0
 10
-45.1995
 20
-21.3777
 30
0.0
 11
-44.9337
 21
-21.9308
 31
0.0
  0
LINE
  5
271
  8
0
 10
-44.9337
 20
-21.9308
 30
0.0
 11
-44.6612
 21
-22.4806
 31
0.0
  0
LINE
  5
272
  8
0
 10
-44.6612
 20
-22.4806
 30
0.0
 11
-44.382
 21
-23.0269
 31
0.0
  0
LINE
  5
273
  8
0
 10
-44.382
 20
-23.0269
 30
0.0
 11
-44.0961
 21
-23.5698
 31
0.0
  0
LINE
  5
274
  8
0
 10
-44.0961
 20
-23.5698
 30
0.0
 11
-43.8035
 21
-24.1092
 31
0.0
  0
LINE
  5
275
  8
0
 10
-43.8035
 20
-24.1092
 30
0.0
 11
-43.5043
 21
-24.6449
 31
0.0
  0
LINE
  5
276
  8
0
 10
-43.5043
 20
-24.6449
 30
0.0
 11
-43.1986
 21
-25.1769
 31
0.0
  0
LINE
  5
277
  8
0
 10
-43.1986
 20
-25.1769
 30
0.0
 11
-42.8864
 21
-25.7051
 31
0.0
  0
LINE
  5
278
  8
0
 10
-42.8864
 20
-25.7051
 30
0.0
 11
-42.5677
 21
-26.2295
 31
0.0
  0
LINE
  5
279
  8
0
 10
-42.5677
 20
-26.2295
 30
0.0
 11
-42.2427
 21
-26.7499
 31
0.0
  0
LINE
  5
27A
  8
0
 10
-42.2427
 20
-26.7499
 30
0.0
 11
-41.9112
 21
-27.2662
 31
0.0
  0
LINE
  5
27B
  8
0
 10
-41.9112
 20
-27.2662
 30
0.0
 11
-41.5735
 21
-27.7785
 31
0.0
  0
LINE
  5
27C
  8
0
 10
-41.5735
 20
-27.7785
 30
0.0
 11
-41.2295
 21
-28.2866
 31
0.0
  0
LINE
  5
27D
  8
0
 10
-41.2295
 20
-28.2866
 30
0.0
 11
-40.8792
 21
-28.7904
 31
0.0
  0
LINE
  5
27E
  8
0
 10
-40.8792
 20
-28.7904
 30
0.0
 11
-40.5229
 21
-29.2899
 31
0.0
  0
LINE
  5
27F
  8
0
 10
-40.5229
 20
-29.2899
 30
0.0
 11
-40.1604
 21
-29.785
 31
0.0
  0
LINE
  5
280
  8
0
 10
-40.1604
 20
-29.785
 30
0.0
 11
-39.7918
 21
-30.2755
 31
0.0
  0
LINE
  5
281
  8
0
 10
-39.7918
 20
-30.2755
 30
0.0
 11
-39.4173
 21
-30.7616
 31
0.0
  0
LINE
  5
282
  8
0
 10
-39.4173
 20
-30.7616
 30
0.0
 11
-39.0368
 21
-31.243
 31
0.0
  0
LINE
  5
283
  8
0
 10
-39.0368
 20
-31.243
 30
0.0
 11
-38.6505
 21
-31.7197
 31
0.0
  0
LINE
  5
284
  8
0
 10
-38.6505
 20
-31.7197
 30
0.0
 11
-38.2584
 21
-32.1916
 31
0.0
  0
LINE
  5
285
  8
0
 10
-38.2584
 20
-32.1916
 30
0.0
 11
-37.8604
 21
-32.6586
 31
0.0
  0
LINE
  5
286
  8
0
 10
-37.8604
 20
-32.6586
 30
0.0
 11
-37.4568
 21
-33.1208
 31
0.0
  0
LINE
  5
287
  8
0
 10
-37.4568
 20
-33.1208
 30
0.0
 11
-37.0475
 21
-33.5779
 31
0.0
  0
LINE
  5
288
  8
0
 10
-37.0475
 20
-33.5779
 30
0.0
 11
-36.6327
 21
-34.03
 31
0.0
  0
LINE
  5
289
  8
0
 10
-36.6327
 20
-34.03
 30
0.0
 11
-36.2123
 21
-34.477
 31
0.0
  0
LINE
  5
28A
  8
0
 10
-36.2123
 20
-34.477
 30
0.0
 11
-35.7865
 21
-34.9188
 31
0.0
  0
LINE
  5
28B
  8
0
 10
-35.7865
 20
-34.9188
 30
0.0
 11
-35.3553
 21
-35.3553
 31
0.0
  0
LINE
  5
28C
  8
0
 10
-35.3553
 20
-35.3553
 30
0.0
 11
-34.9188
 21
-35.7865
 31
0.0
  0
LINE
  5
28D
  8
0
 10
-34.9188
 20
-35.7865
 30
0.0
 11
-34.477
 21
-36.2123
 31
0.0
  0
LINE
  5
28E
  8
0
 10
-34.477
 20
-36.2123
 30
0.0
 11
-34.03
 21
-36.6327
 31
0.0
  0
LINE
  5
28F
  8
0
 10
-34.03
 20
-36.6327
 30
0.0
 11
-33.5779
 21
-37.0475
 31
0.0
  0
LINE
  5
290
  8
0
 10
-33.5779
 20
-37.0475
 30
0.0
 11
-33.1208
 21
-37.4568
 31
0.0
  0
LINE
  5
291
  8
0
 10
-33.1208
 20
-37.4568
 30
0.0
 11
-32.6586
 21
-37.8604
 31
0.0
  0
LINE
  5
292
  8
0
 10
-32.6586
 20
-37.8604
 30
0.0
 11
-32.1916
 21
-38.2584
 31
0.0
  0
LINE
  5
293
  8
0
 10
-32.1916
 20
-38.2584
 30
0.0
 11
-31.7197
 21
-38.6505
 31
0.0
  0
LINE
  5
294
  8
0
 10
-31.7197
 20
-38.6505
 30
0.0
 11
-31.243
 21
-39.0368
 31
0.0
  0
LINE
  5
295
  8
0
 10
-31.243
 20
-39.0368
 30
0.0
 11
-30.7616
 21
-39.4173
 31
0.0
  0
LINE
  5
296
  8
0
 10
-30.7616
 20
-39.4173
 30
0.0
 11
-30.2755
 21
-39.7918
 31
0.0
  0
LINE
  5
297
  8
0
 10
-30.2755
 20
-39.7918
 30
0.0
 11
-29.785
 21
-40.1604
 31
0.0
  0
LINE
  5
298
  8
0
 10
-29.785
 20
-40.1604
 30
0.0
 11
-29.2899
 21
-40.5229
 31
0.0
  0
LINE
  5
299
  8
0
 10
-29.2899
 20
-40.5229
 30
0.0
 11
-28.7904
 21
-40.8792
 31
0.0
  0
LINE
  5
29A
  8
0
 10
-28.7904
 20
-40.8792
 30
0.0
 11
-28.2866
 21
-41.2295
 31
0.0
  0
LINE
  5
29B
  8
0
 10
-28.2866
 20
-41.2295
 30
0.0
 11
-27.7785
 21
-41.5735
 31
0.0
  0
LINE
  5
29C
  8
0
 10
-27.7785
 20
-41.5735
 30
0.0
 11
-27.2662
 21
-41.9112
 31
0.0
  0
LINE
  5
29D
  8
0
 10
-27.2662
 20
-41.9112
 30
0.0
 11
-26.7499
 21
-42.2427
 31
0.0
  0
LINE
  5
29E
  8
0
 10
-26.7499
 20
-42.2427
 30
0.0
 11
-26.2295
 21
-42.5677
 31
0.0
  0
LINE
  5
29F
  8
0
 10
-26.2295
 20
-42.5677
 30
0.0
 11
-25.7051
 21
-42.8864
 31
0.0
  0
LINE
  5
2A0
  8
0
 10
-25.7051
 20
-42.8864
 30
0.0
 11
-25.1769
 21
-43.1986
 31
0.0
  0
LINE
  5
2A1
  8
0
 10
-25.1769
 20
-43.1986
 30
0.0
 11
-24.6449
 21
-43.5043
 31
0.0
  0
LINE
  5
2A2
  8
0
 10
-24.6449
 20
-43.5043
 30
0.0
 11
-24.1092
 21
-43.8035
 31
0.0
  0
LINE
  5
2A3
  8
0
 10
-24.1092
 20
-43.8035
 30
0.0
 11
-23.5698
 21
-44.0961
 31
0.0
  0
LINE
  5
2A4
  8
0
 10
-23.5698
 20
-44.0961
 30
0.0
 11
-23.0269
 21
-44.382
 31
0.0
  0
LINE
  5
2A5
  8
0
 10
-23.0269
 20
-44.382
 30
0.0
 11
-22.4806
 21
-44.6612
 31
0.0
  0
LINE
  5
2A6
  8
0
 10
-22.4806
 20
-44.6612
 30
0.0
 11
-21.9308
 21
-44.9337
 31
0.0
  0
LINE
  5
2A7
  8
0
 10
-21.9308
 20
-44.9337
 30
0.0
 11
-21.3777
 21
-45.1995
 31
0.0
  0
LINE
  5
2A8
  8
0
 10
-21.3777
 20
-45.1995
 30
0.0
 11
-20.8215
 21
-45.4584
 31
0.0
  0
LINE
  5
2A9
  8
0
 10
-20.8215
 20
-45.4584
 30
0.0
 11
-20.2621
 21
-45.7105
 31
0.0
  0
LINE
  5
2AA
  8
0
 10
-20.2621
 20
-45.7105
 30
0.0
 11
-19.6996
 21
-45.9557
 31
0.0
  0
LINE
  5
2AB
  8
0
 10
-19.6996
 20
-45.9557
 30
0.0
 11
-19.1342
 21
-46.194
 31
0.0
  0
LINE
  5
2AC
  8
0
 10
-19.1342
 20
-46.194
 30
0.0
 11
-18.5659
 21
-46.4253
 31
0.0
  0
LINE
  5
2AD
  8
0
 10
-18.5659
 20
-46.4253
 30
0.0
 11
-17.9948
 21
-46.6496
 31
0.0
  0
LINE
  5
2AE
  8
0
 10
-17.9948
 20
-46.6496
 30
0.0
 11
-17.4209
 21
-46.8669
 31
0.0
  0
LINE
  5
2AF
  8
0
 10
-17.4209
 20
-46.8669
 30
0.0
 11
-16.8445
 21
-47.0772
 31
0.0
  0
LINE
  5
2B0
  8
0
 10
-16.8445
 20
-47.0772
 30
0.0
 11
-16.2655
 21
-47.2804
 31
0.0
  0
LINE
  5
2B1
  8
0
 10
-16.2655
 20
-47.2804
 30
0.0
 11
-15.6841
 21
-47.4764
 31
0.0
  0
LINE
  5
2B2
  8
0
 10
-15.6841
 20
-47.4764
 30
0.0
 11
-15.1003
 21
-47.6653
 31
0.0
  0
LINE
  5
2B3
  8
0
 10
-15.1003
 20
-47.6653
 30
0.0
 11
-14.5142
 21
-47.847
 31
0.0
  0
LINE
  5
2B4
  8
0
 10
-14.5142
 20
-47.847
 30
0.0
 11
-13.926
 21
-48.0215
 31
0.0
  0
LINE
  5
2B5
  8
0
 10
-13.926
 20
-48.0215
 30
0.0
 11
-13.3356
 21
-48.1888
 31
0.0
  0
LINE
  5
2B6
  8
0
 10
-13.3356
 20
-48.1888
 30
0.0
 11
-12.7433
 21
-48.3488
 31
0.0
  0
LINE
  5
2B7
  8
0
 10
-12.7433
 20
-48.3488
 30
0.0
 11
-12.149
 21
-48.5016
 31
0.0
  0
LINE
  5
2B8
  8
0
 10
-12.149
 20
-48.5016
 30
0.0
 11
-11.5529
 21
-48.647
 31
0.0
  0
LINE
  5
2B9
  8
0
 10
-11.5529
 20
-48.647
 30
0.0
 11
-10.955
 21
-48.7851
 31
0.0
  0
LINE
  5
2BA
  8
0
 10
-10.955
 20
-48.7851
 30
0.0
 11
-10.3556
 21
-48.9159
 31
0.0
  0
LINE
  5
2BB
  8
0
 10
-10.3556
 20
-48.9159
 30
0.0
 11
-9.7545
 21
-49.0393
 31
0.0
  0
LINE
  5
2BC
  8
0
 10
-9.7545
 20
-49.0393
 30
0.0
 11
-9.15199
 21
-49.1553
 31
0.0
  0
LINE
  5
2BD
  8
0
 10
-9.15199
 20
-49.1553
 30
0.0
 11
-8.54808
 21
-49.2639
 31
0.0
  0
LINE
  5
2BE
  8
0
 10
-8.54808
 20
-49.2639
 30
0.0
 11
-7.9429
 21
-49.3651
 31
0.0
  0
LINE
  5
2BF
  8
0
 10
-7.9429
 20
-49.3651
 30
0.0
 11
-7.33652
 21
-49.4588
 31
0.0
  0
LINE
  5
2C0
  8
0
 10
-7.33652
 20
-49.4588
 30
0.0
 11
-6.72903
 21
-49.5451
 31
0.0
  0
LINE
  5
2C1
  8
0
 10
-6.72903
 20
-49.5451
 30
0.0
 11
-6.12053
 21
-49.624
 31
0.0
  0
LINE
  5
2C2
  8
0
 10
-6.12053
 20
-49.624
 30
0.0
 11
-5.51111
 21
-49.6953
 31
0.0
  0
LINE
  5
2C3
  8
0
 10
-5.51111
 20
-49.6953
 30
0.0
 11
-4.90085
 21
-49.7592
 31
0.0
  0
LINE
  5
2C4
  8
0
 10
-4.90085
 20
-49.7592
 30
0.0
 11
-4.28986
 21
-49.8156
 31
0.0
  0
LINE
  5
2C5
  8
0
 10
-4.28986
 20
-49.8156
 30
0.0
 11
-3.67822
 21
-49.8645
 31
0.0
  0
LINE
  5
2C6
  8
0
 10
-3.67822
 20
-49.8645
 30
0.0
 11
-3.06602
 21
-49.9059
 31
0.0
  0
LINE
  5
2C7
  8
0
 10
-3.06602
 20
-49.9059
 30
0.0
 11
-2.45337
 21
-49.9398
 31
0.0
  0
LINE
  5
2C8
  8
0
 10
-2.45337
 20
-49.9398
 30
0.0
 11
-1.84035
 21
-49.9661
 31
0.0
  0
LINE
  5
2C9
  8
0
 10
-1.84035
 20
-49.9661
 30
0.0
 11
-1.22705
 21
-49.9849
 31
0.0
  0
LINE
  5
2CA
  8
0
 10
-1.22705
 20
-49.9849
 30
0.0
 11
-0.613571
 21
-49.9962
 31
0.0
  0
LINE
  5
2CB
  8
0
 10
-0.613571
 20
-49.9962
 30
0.0
 11
0.0
 21
-50.0
 31
0.0
  0
LINE
  5
2CC
  8
0
 10
0.0
 20
-50.0
 30
0.0
 11
0.613571
 21
-49.9962
 31
0.0
  0
ENDSEC
  0
EOF
