  0
SECTION
  2
HEADER
  9
$ACADVER
  1
AC1009
  9
$DWGCODEPAGE
  3
ANSI_1252
  9
$INSBASE
 10
0.0
 20
0.0
 30
0.0
  9
$EXTMIN
 10
1e+20
 20
1e+20
 30
1e+20
  9
$EXTMAX
 10
-1e+20
 20
-1e+20
 30
-1e+20
  9
$LIMMIN
 10
0.0
 20
0.0
  9
$LIMMAX
 10
420.0
 20
297.0
  9
$ORTHOMODE
 70
0
  9
$REGENMODE
 70
1
  9
$FILLMODE
 70
1
  9
$DRAGMODE
 70
2
  9
$QTEXTMODE
 70
0
  9
$MIRRTEXT
 70
1
  9
$OSMODE
 70
20583
  9
$LTSCALE
 40
1.0
  9
$ATTMODE
 70
1
  9
$TEXTSIZE
 40
2.5
  9
$TRACEWID
 40
1.0
  9
$TEXTSTYLE
  7
Standard
  9
$CLAYER
  8
0
  9
$CELTYPE
  6
ByLayer
  9
$CECOLOR
 62
256
  9
$DIMSCALE
 40
1.0
  9
$DIMASZ
 40
2.5
  9
$DIMEXO
 40
0.625
  9
$DIMDLI
 40
3.75
  9
$DIMRND
 40
0.0
  9
$DIMDLE
 40
0.0
  9
$DIMEXE
 40
1.25
  9
$DIMTP
 40
0.0
  9
$DIMTM
 40
0.0
  9
$DIMTXT
 40
2.5
  9
$DIMCEN
 40
2.5
  9
$DIMTSZ
 40
0.0
  9
$DIMTOL
 70
0
  9
$DIMLIM
 70
0
  9
$DIMTIH
 70
0
  9
$DIMTOH
 70
0
  9
$DIMSE1
 70
0
  9
$DIMSE2
 70
0
  9
$DIMTAD
 70
1
  9
$DIMZIN
 70
8
  9
$DIMBLK
  1

  9
$DIMASO
 70
1
  9
$DIMSHO
 70
1
  9
$DIMPOST
  1

  9
$DIMAPOST
  1

  9
$DIMALT
 70
0
  9
$DIMALTD
 70
3
  9
$DIMALTF
 40
0.03937007874
  9
$DIMLFAC
 40
1.0
  9
$DIMTOFL
 70
1
  9
$DIMTVP
 40
0.0
  9
$DIMTIX
 70
0
  9
$DIMSOXD
 70
0
  9
$DIMSAH
 70
0
  9
$DIMBLK1
  1

  9
$DIMBLK2
  1

  9
$DIMSTYLE
  2
ISO-25
  9
$DIMCLRD
 70
0
  9
$DIMCLRE
 70
0
  9
$DIMCLRT
 70
0
  9
$DIMTFAC
 40
1.0
  9
$DIMGAP
 40
0.625
  9
$COORDS
 70
1
  9
$ATTDIA
 70
0
  9
$ATTREQ
 70
1
  9
$HANDLING
 70
1
  9
$LUNITS
 70
2
  9
$LUPREC
 70
4
  9
$SKETCHINC
 40
1.0
  9
$FILLETRAD
 40
10.0
  9
$AUNITS
 70
0
  9
$AUPREC
 70
2
  9
$MENU
  1
.
  9
$ELEVATION
 40
0.0
  9
$PELEVATION
 40
0.0
  9
$THICKNESS
 40
0.0
  9
$LIMCHECK
 70
0
  9
$CHAMFERA
 40
0.0
  9
$CHAMFERB
 40
0.0
  9
$SKPOLY
 70
0
  9
$TDCREATE
 40
2461228.8615856483
  9
$TDUPDATE
 40
2461228.8615856483
  9
$TDINDWG
 40
0.0
  9
$TDUSRTIMER
 40
0.0
  9
$USRTIMER
 70
1
  9
$ANGBASE
 50
0.0
  9
$ANGDIR
 70
0
  9
$PDMODE
 70
0
  9
$PDSIZE
 40
0.0
  9
$PLINEWID
 40
0.0
  9
$SPLFRAME
 70
0
  9
$SPLINETYPE
 70
6
  9
$SPLINESEGS
 70
8
  9
$HANDSEED
  5
747
  9
$SURFTAB1
 70
6
  9
$SURFTAB2
 70
6
  9
$SURFTYPE
 70
6
  9
$SURFU
 70
6
  9
$SURFV
 70
6
  9
$UCSNAME
  2

  9
$UCSORG
 10
0.0
 20
0.0
 30
0.0
  9
$UCSXDIR
 10
1.0
 20
0.0
 30
0.0
  9
$UCSYDIR
 10
0.0
 20
1.0
 30
0.0
  9
$PUCSNAME
  2

  9
$PUCSORG
 10
0.0
 20
0.0
 30
0.0
  9
$PUCSXDIR
 10
1.0
 20
0.0
 30
0.0
  9
$PUCSYDIR
 10
0.0
 20
1.0
 30
0.0
  9
$USERI1
 70
0
  9
$USERI2
 70
0
  9
$USERI3
 70
0
  9
$USERI4
 70
0
  9
$USERI5
 70
0
  9
$USERR1
 40
0.0
  9
$USERR2
 40
0.0
  9
$USERR3
 40
0.0
  9
$USERR4
 40
0.0
  9
$USERR5
 40
0.0
  9
$WORLDVIEW
 70
1
  9
$SHADEDGE
 70
3
  9
$SHADEDIF
 70
70
  9
$TILEMODE
 70
1
  9
$MAXACTVP
 70
64
  9
$PLIMCHECK
 70
0
  9
$PEXTMIN
 10
1e+20
 20
1e+20
 30
1e+20
  9
$PEXTMAX
 10
-1e+20
 20
-1e+20
 30
-1e+20
  9
$PLIMMIN
 10
0.0
 20
0.0
  9
$PLIMMAX
 10
420.0
 20
297.0
  9
$UNITMODE
 70
0
  9
$VISRETAIN
 70
1
  9
$PLINEGEN
 70
0
  9
$PSLTSCALE
 70
1
  0
ENDSEC
  0
SECTION
  2
TABLES
  0
TABLE
  2
VPORT
 70
1
  0
VPORT
  5
73B
  2
*Active
 70
0
 10
0.0
 20
0.0
 11
1.0
 21
1.0
 12
0.0
 22
0.0
 13
0.0
 23
0.0
 14
0.5
 24
0.5
 15
0.5
 25
0.5
 16
0.0
 26
0.0
 36
1.0
 17
0.0
 27
0.0
 37
0.0
 40
1000.0
 41
1.34
 42
50.0
 43
0.0
 44
0.0
 50
0.0
 51
0.0
 71
0
 72
1000
 73
1
 74
3
 75
0
 76
0
 77
0
 78
0
  0
ENDTAB
  0
TABLE
  2
LTYPE
 70
3
  0
LTYPE
  5
73C
  2
ByBlock
 70
0
  3

 72
65
 73
0
 40
0.0
  0
LTYPE
  5
73D
  2
ByLayer
 70
0
  3

 72
65
 73
0
 40
0.0
  0
LTYPE
  5
73E
  2
Continuous
 70
0
  3

 72
65
 73
0
 40
0.0
  0
ENDTAB
  0
TABLE
  2
LAYER
 70
2
  0
LAYER
  5
73F
  2
0
 70
0
 62
7
  6
Continuous
  0
LAYER
  5
740
  2
Defpoints
 70
0
 62
7
  6
Continuous
  0
ENDTAB
  0
TABLE
  2
STYLE
 70
1
  0
STYLE
  5
741
  2
Standard
 70
0
 40
0.0
 41
1.0
 50
0.0
 71
0
 42
2.5
  3
txt
  4

  0
ENDTAB
  0
TABLE
  2
VIEW
 70
0
  0
ENDTAB
  0
TABLE
  2
UCS
 70
0
  0
ENDTAB
  0
TABLE
  2
APPID
 70
3
  0
APPID
  5
742
  2
ACAD
 70
0
  0
APPID
  5
745
  2
HATCHBACKGROUNDCOLOR
 70
0
  0
APPID
  5
746
  2
EZDXF
 70
0
  0
ENDTAB
  0
TABLE
  2
DIMSTYLE
 70
1
  0
DIMSTYLE
105
743
  2
Standard
 70
0
  3

  4

  5

  6

  7

 40
1.0
 41
2.5
 42
0.625
 43
3.75
 44
1.25
 45
0.0
 46
0.0
 47
0.0
 48
0.0
140
2.5
141
2.5
142
0.0
143
0.03937007874
144
1.0
145
0.0
146
1.0
147
0.625
 71
0
 72
0
 73
0
 74
0
 75
0
 76
0
 77
1
 78
8
170
0
171
3
172
1
173
0
174
0
175
0
176
0
177
0
178
0
  0
ENDTAB
  0
ENDSEC
  0
SECTION
  2
BLOCKS
  0
BLOCK
  5
71C
  8
0
  2
$Model_Space
 70
0
 10
0.0
 20
0.0
 30
0.0
  3
$Model_Space
  1

1001
EZDXF
1000
WRITTEN_BY_EZDXF
1000
1.4.3 @ 2026-07-07T00:40:41.356797+00:00
  0
ENDBLK
  5
71D
  8
0
  0
BLOCK
  5
71E
  8
0
  2
$Paper_Space
 70
0
 10
0.0
 20
0.0
 30
0.0
  3
$Paper_Space
  1

  0
ENDBLK
  5
71F
  8
0
  0
ENDSEC
  0
SECTION
  2
ENTITIES
  0
LINE
  5
100
  8
0
 10
3.41402
 20
2.2473
 30
0.0
 11
3.54047
 21
2.1875
 31
0.0
  0
LINE
  5
101
  8
0
 10
3.54047
 20
2.1875
 30
0.0
 11
3.77147
 21
2.10484
 31
0.0
  0
LINE
  5
102
  8
0
 10
3.77147
 20
2.10484
 30
0.0
 11
4.00945
 21
2.04523
 31
0.0
  0
LINE
  5
103
  8
0
 10
4.00945
 20
2.04523
 30
0.0
 11
4.25212
 21
2.00923
 31
0.0
  0
LINE
  5
104
  8
0
 10
4.25212
 20
2.00923
 30
0.0
 11
4.49718
 21
1.99719
 31
0.0
  0
LINE
  5
105
  8
0
 10
4.49718
 20
1.99719
 30
0.0
 11
4.74222
 21
2.00922
 31
0.0
  0
LINE
  5
106
  8
0
 10
4.74222
 20
2.00922
 30
0.0
 11
4.98491
 21
2.04524
 31
0.0
  0
LINE
  5
107
  8
0
 10
4.98491
 20
2.04524
 30
0.0
 11
5.22289
 21
2.10484
 31
0.0
  0
LINE
  5
108
  8
0
 10
5.22289
 20
2.10484
 30
0.0
 11
5.45389
 21
2.1875
 31
0.0
  0
LINE
  5
109
  8
0
 10
5.45389
 20
2.1875
 30
0.0
 11
5.67567
 21
2.29239
 31
0.0
  0
LINE
  5
10A
  8
0
 10
5.67567
 20
2.29239
 30
0.0
 11
5.88611
 21
2.41852
 31
0.0
  0
LINE
  5
10B
  8
0
 10
5.88611
 20
2.41852
 30
0.0
 11
6.08316
 21
2.56465
 31
0.0
  0
LINE
  5
10C
  8
0
 10
6.08316
 20
2.56465
 30
0.0
 11
6.26495
 21
2.72942
 31
0.0
  0
LINE
  5
10D
  8
0
 10
6.26495
 20
2.72942
 30
0.0
 11
6.42972
 21
2.91121
 31
0.0
  0
LINE
  5
10E
  8
0
 10
6.42972
 20
2.91121
 30
0.0
 11
6.57585
 21
3.10828
 31
0.0
  0
LINE
  5
10F
  8
0
 10
6.57585
 20
3.10828
 30
0.0
 11
6.702
 21
3.3187
 31
0.0
  0
LINE
  5
110
  8
0
 10
6.702
 20
3.3187
 30
0.0
 11
6.80687
 21
3.54048
 31
0.0
  0
LINE
  5
111
  8
0
 10
6.80687
 20
3.54048
 30
0.0
 11
6.88953
 21
3.77148
 31
0.0
  0
LINE
  5
112
  8
0
 10
6.88953
 20
3.77148
 30
0.0
 11
6.94914
 21
4.00948
 31
0.0
  0
LINE
  5
113
  8
0
 10
6.94914
 20
4.00948
 30
0.0
 11
6.98514
 21
4.25214
 31
0.0
  0
LINE
  5
114
  8
0
 10
6.98514
 20
4.25214
 30
0.0
 11
6.99718
 21
4.49719
 31
0.0
  0
LINE
  5
115
  8
0
 10
6.99718
 20
4.49719
 30
0.0
 11
6.98514
 21
4.74223
 31
0.0
  0
LINE
  5
116
  8
0
 10
6.98514
 20
4.74223
 30
0.0
 11
6.94914
 21
4.98491
 31
0.0
  0
LINE
  5
117
  8
0
 10
6.94914
 20
4.98491
 30
0.0
 11
6.88953
 21
5.2229
 31
0.0
  0
LINE
  5
118
  8
0
 10
6.88953
 20
5.2229
 30
0.0
 11
6.80687
 21
5.4539
 31
0.0
  0
LINE
  5
119
  8
0
 10
6.80687
 20
5.4539
 30
0.0
 11
6.702
 21
5.67569
 31
0.0
  0
LINE
  5
11A
  8
0
 10
6.702
 20
5.67569
 30
0.0
 11
6.57585
 21
5.88611
 31
0.0
  0
LINE
  5
11B
  8
0
 10
6.57585
 20
5.88611
 30
0.0
 11
6.42972
 21
6.08318
 31
0.0
  0
LINE
  5
11C
  8
0
 10
6.42972
 20
6.08318
 30
0.0
 11
6.26495
 21
6.26495
 31
0.0
  0
LINE
  5
11D
  8
0
 10
6.26495
 20
6.26495
 30
0.0
 11
6.08318
 21
6.42972
 31
0.0
  0
LINE
  5
11E
  8
0
 10
6.08318
 20
6.42972
 30
0.0
 11
5.88611
 21
6.57585
 31
0.0
  0
LINE
  5
11F
  8
0
 10
5.88611
 20
6.57585
 30
0.0
 11
5.67569
 21
6.702
 31
0.0
  0
LINE
  5
120
  8
0
 10
5.67569
 20
6.702
 30
0.0
 11
5.4539
 21
6.80687
 31
0.0
  0
LINE
  5
121
  8
0
 10
5.4539
 20
6.80687
 30
0.0
 11
5.2229
 21
6.88953
 31
0.0
  0
LINE
  5
122
  8
0
 10
5.2229
 20
6.88953
 30
0.0
 11
4.98491
 21
6.94914
 31
0.0
  0
LINE
  5
123
  8
0
 10
4.98491
 20
6.94914
 30
0.0
 11
4.74223
 21
6.98514
 31
0.0
  0
LINE
  5
124
  8
0
 10
4.74223
 20
6.98514
 30
0.0
 11
4.49719
 21
6.99718
 31
0.0
  0
LINE
  5
125
  8
0
 10
4.49719
 20
6.99718
 30
0.0
 11
4.25214
 21
6.98514
 31
0.0
  0
LINE
  5
126
  8
0
 10
4.25214
 20
6.98514
 30
0.0
 11
4.00948
 21
6.94914
 31
0.0
  0
LINE
  5
127
  8
0
 10
4.00948
 20
6.94914
 30
0.0
 11
3.77148
 21
6.88953
 31
0.0
  0
LINE
  5
128
  8
0
 10
3.77148
 20
6.88953
 30
0.0
 11
3.54048
 21
6.80687
 31
0.0
  0
LINE
  5
129
  8
0
 10
3.54048
 20
6.80687
 30
0.0
 11
3.3187
 21
6.702
 31
0.0
  0
LINE
  5
12A
  8
0
 10
3.3187
 20
6.702
 30
0.0
 11
3.10828
 21
6.57585
 31
0.0
  0
LINE
  5
12B
  8
0
 10
3.10828
 20
6.57585
 30
0.0
 11
2.91121
 21
6.42972
 31
0.0
  0
LINE
  5
12C
  8
0
 10
2.91121
 20
6.42972
 30
0.0
 11
2.72942
 21
6.26495
 31
0.0
  0
LINE
  5
12D
  8
0
 10
2.72942
 20
6.26495
 30
0.0
 11
2.56465
 21
6.08316
 31
0.0
  0
LINE
  5
12E
  8
0
 10
2.56465
 20
6.08316
 30
0.0
 11
2.41852
 21
5.88611
 31
0.0
  0
LINE
  5
12F
  8
0
 10
2.41852
 20
5.88611
 30
0.0
 11
2.29239
 21
5.67567
 31
0.0
  0
LINE
  5
130
  8
0
 10
2.29239
 20
5.67567
 30
0.0
 11
2.1875
 21
5.45389
 31
0.0
  0
LINE
  5
131
  8
0
 10
2.1875
 20
5.45389
 30
0.0
 11
2.10484
 21
5.22289
 31
0.0
  0
LINE
  5
132
  8
0
 10
2.10484
 20
5.22289
 30
0.0
 11
2.04524
 21
4.98491
 31
0.0
  0
LINE
  5
133
  8
0
 10
2.04524
 20
4.98491
 30
0.0
 11
2.00922
 21
4.74222
 31
0.0
  0
LINE
  5
134
  8
0
 10
2.00922
 20
4.74222
 30
0.0
 11
1.99719
 21
4.49718
 31
0.0
  0
LINE
  5
135
  8
0
 10
1.99719
 20
4.49718
 30
0.0
 11
2.00923
 21
4.25212
 31
0.0
  0
LINE
  5
136
  8
0
 10
2.00923
 20
4.25212
 30
0.0
 11
2.04523
 21
4.00945
 31
0.0
  0
LINE
  5
137
  8
0
 10
2.04523
 20
4.00945
 30
0.0
 11
2.10484
 21
3.77147
 31
0.0
  0
LINE
  5
138
  8
0
 10
2.10484
 20
3.77147
 30
0.0
 11
2.1875
 21
3.54047
 31
0.0
  0
LINE
  5
139
  8
0
 10
2.1875
 20
3.54047
 30
0.0
 11
2.2473
 21
3.41402
 31
0.0
  0
LINE
  5
13A
  8
0
 10
2.2473
 20
3.41402
 30
0.0
 11
0.0
 21
1.16672
 31
0.0
  0
LINE
  5
13B
  8
0
 10
0.0
 20
1.16672
 30
0.0
 11
-2.2473
 21
3.41402
 31
0.0
  0
LINE
  5
13C
  8
0
 10
-2.2473
 20
3.41402
 30
0.0
 11
-2.1875
 21
3.54047
 31
0.0
  0
LINE
  5
13D
  8
0
 10
-2.1875
 20
3.54047
 30
0.0
 11
-2.10484
 21
3.77147
 31
0.0
  0
LINE
  5
13E
  8
0
 10
-2.10484
 20
3.77147
 30
0.0
 11
-2.04523
 21
4.00945
 31
0.0
  0
LINE
  5
13F
  8
0
 10
-2.04523
 20
4.00945
 30
0.0
 11
-2.00923
 21
4.25212
 31
0.0
  0
LINE
  5
140
  8
0
 10
-2.00923
 20
4.25212
 30
0.0
 11
-1.99719
 21
4.49718
 31
0.0
  0
LINE
  5
141
  8
0
 10
-1.99719
 20
4.49718
 30
0.0
 11
-2.00922
 21
4.74222
 31
0.0
  0
LINE
  5
142
  8
0
 10
-2.00922
 20
4.74222
 30
0.0
 11
-2.04524
 21
4.98491
 31
0.0
  0
LINE
  5
143
  8
0
 10
-2.04524
 20
4.98491
 30
0.0
 11
-2.10484
 21
5.22289
 31
0.0
  0
LINE
  5
144
  8
0
 10
-2.10484
 20
5.22289
 30
0.0
 11
-2.1875
 21
5.45389
 31
0.0
  0
LINE
  5
145
  8
0
 10
-2.1875
 20
5.45389
 30
0.0
 11
-2.29239
 21
5.67567
 31
0.0
  0
LINE
  5
146
  8
0
 10
-2.29239
 20
5.67567
 30
0.0
 11
-2.41852
 21
5.88611
 31
0.0
  0
LINE
  5
147
  8
0
 10
-2.41852
 20
5.88611
 30
0.0
 11
-2.56465
 21
6.08316
 31
0.0
  0
LINE
  5
148
  8
0
 10
-2.56465
 20
6.08316
 30
0.0
 11
-2.72942
 21
6.26495
 31
0.0
  0
LINE
  5
149
  8
0
 10
-2.72942
 20
6.26495
 30
0.0
 11
-2.91121
 21
6.42972
 31
0.0
  0
LINE
  5
14A
  8
0
 10
-2.91121
 20
6.42972
 30
0.0
 11
-3.10828
 21
6.57585
 31
0.0
  0
LINE
  5
14B
  8
0
 10
-3.10828
 20
6.57585
 30
0.0
 11
-3.3187
 21
6.702
 31
0.0
  0
LINE
  5
14C
  8
0
 10
-3.3187
 20
6.702
 30
0.0
 11
-3.54048
 21
6.80687
 31
0.0
  0
LINE
  5
14D
  8
0
 10
-3.54048
 20
6.80687
 30
0.0
 11
-3.77148
 21
6.88953
 31
0.0
  0
LINE
  5
14E
  8
0
 10
-3.77148
 20
6.88953
 30
0.0
 11
-4.00948
 21
6.94914
 31
0.0
  0
LINE
  5
14F
  8
0
 10
-4.00948
 20
6.94914
 30
0.0
 11
-4.25214
 21
6.98514
 31
0.0
  0
LINE
  5
150
  8
0
 10
-4.25214
 20
6.98514
 30
0.0
 11
-4.49719
 21
6.99718
 31
0.0
  0
LINE
  5
151
  8
0
 10
-4.49719
 20
6.99718
 30
0.0
 11
-4.74223
 21
6.98514
 31
0.0
  0
LINE
  5
152
  8
0
 10
-4.74223
 20
6.98514
 30
0.0
 11
-4.98491
 21
6.94914
 31
0.0
  0
LINE
  5
153
  8
0
 10
-4.98491
 20
6.94914
 30
0.0
 11
-5.2229
 21
6.88953
 31
0.0
  0
LINE
  5
154
  8
0
 10
-5.2229
 20
6.88953
 30
0.0
 11
-5.4539
 21
6.80687
 31
0.0
  0
LINE
  5
155
  8
0
 10
-5.4539
 20
6.80687
 30
0.0
 11
-5.67569
 21
6.702
 31
0.0
  0
LINE
  5
156
  8
0
 10
-5.67569
 20
6.702
 30
0.0
 11
-5.88611
 21
6.57585
 31
0.0
  0
LINE
  5
157
  8
0
 10
-5.88611
 20
6.57585
 30
0.0
 11
-6.08318
 21
6.42972
 31
0.0
  0
LINE
  5
158
  8
0
 10
-6.08318
 20
6.42972
 30
0.0
 11
-6.26495
 21
6.26495
 31
0.0
  0
LINE
  5
159
  8
0
 10
-6.26495
 20
6.26495
 30
0.0
 11
-6.42972
 21
6.08318
 31
0.0
  0
LINE
  5
15A
  8
0
 10
-6.42972
 20
6.08318
 30
0.0
 11
-6.57585
 21
5.88611
 31
0.0
  0
LINE
  5
15B
  8
0
 10
-6.57585
 20
5.88611
 30
0.0
 11
-6.702
 21
5.67569
 31
0.0
  0
LINE
  5
15C
  8
0
 10
-6.702
 20
5.67569
 30
0.0
 11
-6.80687
 21
5.4539
 31
0.0
  0
LINE
  5
15D
  8
0
 10
-6.80687
 20
5.4539
 30
0.0
 11
-6.88953
 21
5.2229
 31
0.0
  0
LINE
  5
15E
  8
0
 10
-6.88953
 20
5.2229
 30
0.0
 11
-6.94914
 21
4.98491
 31
0.0
  0
LINE
  5
15F
  8
0
 10
-6.94914
 20
4.98491
 30
0.0
 11
-6.98514
 21
4.74223
 31
0.0
  0
LINE
  5
160
  8
0
 10
-6.98514
 20
4.74223
 30
0.0
 11
-6.99718
 21
4.49719
 31
0.0
  0
LINE
  5
161
  8
0
 10
-6.99718
 20
4.49719
 30
0.0
 11
-6.98514
 21
4.25214
 31
0.0
  0
LINE
  5
162
  8
0
 10
-6.98514
 20
4.25214
 30
0.0
 11
-6.94914
 21
4.00948
 31
0.0
  0
LINE
  5
163
  8
0
 10
-6.94914
 20
4.00948
 30
0.0
 11
-6.88953
 21
3.77148
 31
0.0
  0
LINE
  5
164
  8
0
 10
-6.88953
 20
3.77148
 30
0.0
 11
-6.80687
 21
3.54048
 31
0.0
  0
LINE
  5
165
  8
0
 10
-6.80687
 20
3.54048
 30
0.0
 11
-6.702
 21
3.3187
 31
0.0
  0
LINE
  5
166
  8
0
 10
-6.702
 20
3.3187
 30
0.0
 11
-6.57585
 21
3.10828
 31
0.0
  0
LINE
  5
167
  8
0
 10
-6.57585
 20
3.10828
 30
0.0
 11
-6.42972
 21
2.91121
 31
0.0
  0
LINE
  5
168
  8
0
 10
-6.42972
 20
2.91121
 30
0.0
 11
-6.26495
 21
2.72942
 31
0.0
  0
LINE
  5
169
  8
0
 10
-6.26495
 20
2.72942
 30
0.0
 11
-6.08316
 21
2.56465
 31
0.0
  0
LINE
  5
16A
  8
0
 10
-6.08316
 20
2.56465
 30
0.0
 11
-5.88611
 21
2.41852
 31
0.0
  0
LINE
  5
16B
  8
0
 10
-5.88611
 20
2.41852
 30
0.0
 11
-5.67567
 21
2.29239
 31
0.0
  0
LINE
  5
16C
  8
0
 10
-5.67567
 20
2.29239
 30
0.0
 11
-5.45389
 21
2.1875
 31
0.0
  0
LINE
  5
16D
  8
0
 10
-5.45389
 20
2.1875
 30
0.0
 11
-5.22289
 21
2.10484
 31
0.0
  0
LINE
  5
16E
  8
0
 10
-5.22289
 20
2.10484
 30
0.0
 11
-4.98491
 21
2.04524
 31
0.0
  0
LINE
  5
16F
  8
0
 10
-4.98491
 20
2.04524
 30
0.0
 11
-4.74222
 21
2.00922
 31
0.0
  0
LINE
  5
170
  8
0
 10
-4.74222
 20
2.00922
 30
0.0
 11
-4.49718
 21
1.99719
 31
0.0
  0
LINE
  5
171
  8
0
 10
-4.49718
 20
1.99719
 30
0.0
 11
-4.25212
 21
2.00923
 31
0.0
  0
LINE
  5
172
  8
0
 10
-4.25212
 20
2.00923
 30
0.0
 11
-4.00945
 21
2.04523
 31
0.0
  0
LINE
  5
173
  8
0
 10
-4.00945
 20
2.04523
 30
0.0
 11
-3.77147
 21
2.10484
 31
0.0
  0
LINE
  5
174
  8
0
 10
-3.77147
 20
2.10484
 30
0.0
 11
-3.54047
 21
2.1875
 31
0.0
  0
LINE
  5
175
  8
0
 10
-3.54047
 20
2.1875
 30
0.0
 11
-3.41402
 21
2.2473
 31
0.0
  0
LINE
  5
176
  8
0
 10
-3.41402
 20
2.2473
 30
0.0
 11
-1.16672
 21
0.0
 31
0.0
  0
LINE
  5
177
  8
0
 10
-1.16672
 20
0.0
 30
0.0
 11
-3.41402
 21
-2.2473
 31
0.0
  0
LINE
  5
178
  8
0
 10
-3.41402
 20
-2.2473
 30
0.0
 11
-3.54047
 21
-2.1875
 31
0.0
  0
LINE
  5
179
  8
0
 10
-3.54047
 20
-2.1875
 30
0.0
 11
-3.77147
 21
-2.10484
 31
0.0
  0
LINE
  5
17A
  8
0
 10
-3.77147
 20
-2.10484
 30
0.0
 11
-4.00945
 21
-2.04523
 31
0.0
  0
LINE
  5
17B
  8
0
 10
-4.00945
 20
-2.04523
 30
0.0
 11
-4.25212
 21
-2.00923
 31
0.0
  0
LINE
  5
17C
  8
0
 10
-4.25212
 20
-2.00923
 30
0.0
 11
-4.49718
 21
-1.99719
 31
0.0
  0
LINE
  5
17D
  8
0
 10
-4.49718
 20
-1.99719
 30
0.0
 11
-4.74222
 21
-2.00922
 31
0.0
  0
LINE
  5
17E
  8
0
 10
-4.74222
 20
-2.00922
 30
0.0
 11
-4.98491
 21
-2.04524
 31
0.0
  0
LINE
  5
17F
  8
0
 10
-4.98491
 20
-2.04524
 30
0.0
 11
-5.22289
 21
-2.10484
 31
0.0
  0
LINE
  5
180
  8
0
 10
-5.22289
 20
-2.10484
 30
0.0
 11
-5.45389
 21
-2.1875
 31
0.0
  0
LINE
  5
181
  8
0
 10
-5.45389
 20
-2.1875
 30
0.0
 11
-5.67567
 21
-2.29239
 31
0.0
  0
LINE
  5
182
  8
0
 10
-5.67567
 20
-2.29239
 30
0.0
 11
-5.88611
 21
-2.41852
 31
0.0
  0
LINE
  5
183
  8
0
 10
-5.88611
 20
-2.41852
 30
0.0
 11
-6.08316
 21
-2.56465
 31
0.0
  0
LINE
  5
184
  8
0
 10
-6.08316
 20
-2.56465
 30
0.0
 11
-6.26495
 21
-2.72942
 31
0.0
  0
LINE
  5
185
  8
0
 10
-6.26495
 20
-2.72942
 30
0.0
 11
-6.42972
 21
-2.91121
 31
0.0
  0
LINE
  5
186
  8
0
 10
-6.42972
 20
-2.91121
 30
0.0
 11
-6.57585
 21
-3.10828
 31
0.0
  0
LINE
  5
187
  8
0
 10
-6.57585
 20
-3.10828
 30
0.0
 11
-6.702
 21
-3.3187
 31
0.0
  0
LINE
  5
188
  8
0
 10
-6.702
 20
-3.3187
 30
0.0
 11
-6.80687
 21
-3.54048
 31
0.0
  0
LINE
  5
189
  8
0
 10
-6.80687
 20
-3.54048
 30
0.0
 11
-6.88953
 21
-3.77148
 31
0.0
  0
LINE
  5
18A
  8
0
 10
-6.88953
 20
-3.77148
 30
0.0
 11
-6.94914
 21
-4.00948
 31
0.0
  0
LINE
  5
18B
  8
0
 10
-6.94914
 20
-4.00948
 30
0.0
 11
-6.98514
 21
-4.25214
 31
0.0
  0
LINE
  5
18C
  8
0
 10
-6.98514
 20
-4.25214
 30
0.0
 11
-6.99718
 21
-4.49719
 31
0.0
  0
LINE
  5
18D
  8
0
 10
-6.99718
 20
-4.49719
 30
0.0
 11
-6.98514
 21
-4.74223
 31
0.0
  0
LINE
  5
18E
  8
0
 10
-6.98514
 20
-4.74223
 30
0.0
 11
-6.94914
 21
-4.98491
 31
0.0
  0
LINE
  5
18F
  8
0
 10
-6.94914
 20
-4.98491
 30
0.0
 11
-6.88953
 21
-5.2229
 31
0.0
  0
LINE
  5
190
  8
0
 10
-6.88953
 20
-5.2229
 30
0.0
 11
-6.80687
 21
-5.4539
 31
0.0
  0
LINE
  5
191
  8
0
 10
-6.80687
 20
-5.4539
 30
0.0
 11
-6.702
 21
-5.67569
 31
0.0
  0
LINE
  5
192
  8
0
 10
-6.702
 20
-5.67569
 30
0.0
 11
-6.57585
 21
-5.88611
 31
0.0
  0
LINE
  5
193
  8
0
 10
-6.57585
 20
-5.88611
 30
0.0
 11
-6.42972
 21
-6.08318
 31
0.0
  0
LINE
  5
194
  8
0
 10
-6.42972
 20
-6.08318
 30
0.0
 11
-6.26495
 21
-6.26495
 31
0.0
  0
LINE
  5
195
  8
0
 10
-6.26495
 20
-6.26495
 30
0.0
 11
-6.08318
 21
-6.42972
 31
0.0
  0
LINE
  5
196
  8
0
 10
-6.08318
 20
-6.42972
 30
0.0
 11
-5.88611
 21
-6.57585
 31
0.0
  0
LINE
  5
197
  8
0
 10
-5.88611
 20
-6.57585
 30
0.0
 11
-5.67569
 21
-6.702
 31
0.0
  0
LINE
  5
198
  8
0
 10
-5.67569
 20
-6.702
 30
0.0
 11
-5.4539
 21
-6.80687
 31
0.0
  0
LINE
  5
199
  8
0
 10
-5.4539
 20
-6.80687
 30
0.0
 11
-5.2229
 21
-6.88953
 31
0.0
  0
LINE
  5
19A
  8
0
 10
-5.2229
 20
-6.88953
 30
0.0
 11
-4.98491
 21
-6.94914
 31
0.0
  0
LINE
  5
19B
  8
0
 10
-4.98491
 20
-6.94914
 30
0.0
 11
-4.74223
 21
-6.98514
 31
0.0
  0
LINE
  5
19C
  8
0
 10
-4.74223
 20
-6.98514
 30
0.0
 11
-4.49719
 21
-6.99718
 31
0.0
  0
LINE
  5
19D
  8
0
 10
-4.49719
 20
-6.99718
 30
0.0
 11
-4.25214
 21
-6.98514
 31
0.0
  0
LINE
  5
19E
  8
0
 10
-4.25214
 20
-6.98514
 30
0.0
 11
-4.00948
 21
-6.94914
 31
0.0
  0
LINE
  5
19F
  8
0
 10
-4.00948
 20
-6.94914
 30
0.0
 11
-3.77148
 21
-6.88953
 31
0.0
  0
LINE
  5
1A0
  8
0
 10
-3.77148
 20
-6.88953
 30
0.0
 11
-3.54048
 21
-6.80687
 31
0.0
  0
LINE
  5
1A1
  8
0
 10
-3.54048
 20
-6.80687
 30
0.0
 11
-3.3187
 21
-6.702
 31
0.0
  0
LINE
  5
1A2
  8
0
 10
-3.3187
 20
-6.702
 30
0.0
 11
-3.10828
 21
-6.57585
 31
0.0
  0
LINE
  5
1A3
  8
0
 10
-3.10828
 20
-6.57585
 30
0.0
 11
-2.91121
 21
-6.42972
 31
0.0
  0
LINE
  5
1A4
  8
0
 10
-2.91121
 20
-6.42972
 30
0.0
 11
-2.72942
 21
-6.26495
 31
0.0
  0
LINE
  5
1A5
  8
0
 10
-2.72942
 20
-6.26495
 30
0.0
 11
-2.56465
 21
-6.08316
 31
0.0
  0
LINE
  5
1A6
  8
0
 10
-2.56465
 20
-6.08316
 30
0.0
 11
-2.41852
 21
-5.88611
 31
0.0
  0
LINE
  5
1A7
  8
0
 10
-2.41852
 20
-5.88611
 30
0.0
 11
-2.29239
 21
-5.67567
 31
0.0
  0
LINE
  5
1A8
  8
0
 10
-2.29239
 20
-5.67567
 30
0.0
 11
-2.1875
 21
-5.45389
 31
0.0
  0
LINE
  5
1A9
  8
0
 10
-2.1875
 20
-5.45389
 30
0.0
 11
-2.10484
 21
-5.22289
 31
0.0
  0
LINE
  5
1AA
  8
0
 10
-2.10484
 20
-5.22289
 30
0.0
 11
-2.04524
 21
-4.98491
 31
0.0
  0
LINE
  5
1AB
  8
0
 10
-2.04524
 20
-4.98491
 30
0.0
 11
-2.00922
 21
-4.74222
 31
0.0
  0
LINE
  5
1AC
  8
0
 10
-2.00922
 20
-4.74222
 30
0.0
 11
-1.99719
 21
-4.49718
 31
0.0
  0
LINE
  5
1AD
  8
0
 10
-1.99719
 20
-4.49718
 30
0.0
 11
-2.00923
 21
-4.25212
 31
0.0
  0
LINE
  5
1AE
  8
0
 10
-2.00923
 20
-4.25212
 30
0.0
 11
-2.04523
 21
-4.00945
 31
0.0
  0
LINE
  5
1AF
  8
0
 10
-2.04523
 20
-4.00945
 30
0.0
 11
-2.10484
 21
-3.77147
 31
0.0
  0
LINE
  5
1B0
  8
0
 10
-2.10484
 20
-3.77147
 30
0.0
 11
-2.1875
 21
-3.54047
 31
0.0
  0
LINE
  5
1B1
  8
0
 10
-2.1875
 20
-3.54047
 30
0.0
 11
-2.2473
 21
-3.41402
 31
0.0
  0
LINE
  5
1B2
  8
0
 10
-2.2473
 20
-3.41402
 30
0.0
 11
0.0
 21
-1.16672
 31
0.0
  0
LINE
  5
1B3
  8
0
 10
0.0
 20
-1.16672
 30
0.0
 11
2.2473
 21
-3.41402
 31
0.0
  0
LINE
  5
1B4
  8
0
 10
2.2473
 20
-3.41402
 30
0.0
 11
2.1875
 21
-3.54047
 31
0.0
  0
LINE
  5
1B5
  8
0
 10
2.1875
 20
-3.54047
 30
0.0
 11
2.10484
 21
-3.77147
 31
0.0
  0
LINE
  5
1B6
  8
0
 10
2.10484
 20
-3.77147
 30
0.0
 11
2.04523
 21
-4.00945
 31
0.0
  0
LINE
  5
1B7
  8
0
 10
2.04523
 20
-4.00945
 30
0.0
 11
2.00923
 21
-4.25212
 31
0.0
  0
LINE
  5
1B8
  8
0
 10
2.00923
 20
-4.25212
 30
0.0
 11
1.99719
 21
-4.49718
 31
0.0
  0
LINE
  5
1B9
  8
0
 10
1.99719
 20
-4.49718
 30
0.0
 11
2.00922
 21
-4.74222
 31
0.0
  0
LINE
  5
1BA
  8
0
 10
2.00922
 20
-4.74222
 30
0.0
 11
2.04524
 21
-4.98491
 31
0.0
  0
LINE
  5
1BB
  8
0
 10
2.04524
 20
-4.98491
 30
0.0
 11
2.10484
 21
-5.22289
 31
0.0
  0
LINE
  5
1BC
  8
0
 10
2.10484
 20
-5.22289
 30
0.0
 11
2.1875
 21
-5.45389
 31
0.0
  0
LINE
  5
1BD
  8
0
 10
2.1875
 20
-5.45389
 30
0.0
 11
2.29239
 21
-5.67567
 31
0.0
  0
LINE
  5
1BE
  8
0
 10
2.29239
 20
-5.67567
 30
0.0
 11
2.41852
 21
-5.88611
 31
0.0
  0
LINE
  5
1BF
  8
0
 10
2.41852
 20
-5.88611
 30
0.0
 11
2.56465
 21
-6.08316
 31
0.0
  0
LINE
  5
1C0
  8
0
 10
2.56465
 20
-6.08316
 30
0.0
 11
2.72942
 21
-6.26495
 31
0.0
  0
LINE
  5
1C1
  8
0
 10
2.72942
 20
-6.26495
 30
0.0
 11
2.91121
 21
-6.42972
 31
0.0
  0
LINE
  5
1C2
  8
0
 10
2.91121
 20
-6.42972
 30
0.0
 11
3.10828
 21
-6.57585
 31
0.0
  0
LINE
  5
1C3
  8
0
 10
3.10828
 20
-6.57585
 30
0.0
 11
3.3187
 21
-6.702
 31
0.0
  0
LINE
  5
1C4
  8
0
 10
3.3187
 20
-6.702
 30
0.0
 11
3.54048
 21
-6.80687
 31
0.0
  0
LINE
  5
1C5
  8
0
 10
3.54048
 20
-6.80687
 30
0.0
 11
3.77148
 21
-6.88953
 31
0.0
  0
LINE
  5
1C6
  8
0
 10
3.77148
 20
-6.88953
 30
0.0
 11
4.00948
 21
-6.94914
 31
0.0
  0
LINE
  5
1C7
  8
0
 10
4.00948
 20
-6.94914
 30
0.0
 11
4.25214
 21
-6.98514
 31
0.0
  0
LINE
  5
1C8
  8
0
 10
4.25214
 20
-6.98514
 30
0.0
 11
4.49719
 21
-6.99718
 31
0.0
  0
LINE
  5
1C9
  8
0
 10
4.49719
 20
-6.99718
 30
0.0
 11
4.74223
 21
-6.98514
 31
0.0
  0
LINE
  5
1CA
  8
0
 10
4.74223
 20
-6.98514
 30
0.0
 11
4.98491
 21
-6.94914
 31
0.0
  0
LINE
  5
1CB
  8
0
 10
4.98491
 20
-6.94914
 30
0.0
 11
5.2229
 21
-6.88953
 31
0.0
  0
LINE
  5
1CC
  8
0
 10
5.2229
 20
-6.88953
 30
0.0
 11
5.4539
 21
-6.80687
 31
0.0
  0
LINE
  5
1CD
  8
0
 10
5.4539
 20
-6.80687
 30
0.0
 11
5.67569
 21
-6.702
 31
0.0
  0
LINE
  5
1CE
  8
0
 10
5.67569
 20
-6.702
 30
0.0
 11
5.88611
 21
-6.57585
 31
0.0
  0
LINE
  5
1CF
  8
0
 10
5.88611
 20
-6.57585
 30
0.0
 11
6.08318
 21
-6.42972
 31
0.0
  0
LINE
  5
1D0
  8
0
 10
6.08318
 20
-6.42972
 30
0.0
 11
6.26495
 21
-6.26495
 31
0.0
  0
LINE
  5
1D1
  8
0
 10
6.26495
 20
-6.26495
 30
0.0
 11
6.42972
 21
-6.08318
 31
0.0
  0
LINE
  5
1D2
  8
0
 10
6.42972
 20
-6.08318
 30
0.0
 11
6.57585
 21
-5.88611
 31
0.0
  0
LINE
  5
1D3
  8
0
 10
6.57585
 20
-5.88611
 30
0.0
 11
6.702
 21
-5.67569
 31
0.0
  0
LINE
  5
1D4
  8
0
 10
6.702
 20
-5.67569
 30
0.0
 11
6.80687
 21
-5.4539
 31
0.0
  0
LINE
  5
1D5
  8
0
 10
6.80687
 20
-5.4539
 30
0.0
 11
6.88953
 21
-5.2229
 31
0.0
  0
LINE
  5
1D6
  8
0
 10
6.88953
 20
-5.2229
 30
0.0
 11
6.94914
 21
-4.98491
 31
0.0
  0
LINE
  5
1D7
  8
0
 10
6.94914
 20
-4.98491
 30
0.0
 11
6.98514
 21
-4.74223
 31
0.0
  0
LINE
  5
1D8
  8
0
 10
6.98514
 20
-4.74223
 30
0.0
 11
6.99718
 21
-4.49719
 31
0.0
  0
LINE
  5
1D9
  8
0
 10
6.99718
 20
-4.49719
 30
0.0
 11
6.98514
 21
-4.25214
 31
0.0
  0
LINE
  5
1DA
  8
0
 10
6.98514
 20
-4.25214
 30
0.0
 11
6.94914
 21
-4.00948
 31
0.0
  0
LINE
  5
1DB
  8
0
 10
6.94914
 20
-4.00948
 30
0.0
 11
6.88953
 21
-3.77148
 31
0.0
  0
LINE
  5
1DC
  8
0
 10
6.88953
 20
-3.77148
 30
0.0
 11
6.80687
 21
-3.54048
 31
0.0
  0
LINE
  5
1DD
  8
0
 10
6.80687
 20
-3.54048
 30
0.0
 11
6.702
 21
-3.3187
 31
0.0
  0
LINE
  5
1DE
  8
0
 10
6.702
 20
-3.3187
 30
0.0
 11
6.57585
 21
-3.10828
 31
0.0
  0
LINE
  5
1DF
  8
0
 10
6.57585
 20
-3.10828
 30
0.0
 11
6.42972
 21
-2.91121
 31
0.0
  0
LINE
  5
1E0
  8
0
 10
6.42972
 20
-2.91121
 30
0.0
 11
6.26495
 21
-2.72942
 31
0.0
  0
LINE
  5
1E1
  8
0
 10
6.26495
 20
-2.72942
 30
0.0
 11
6.08316
 21
-2.56465
 31
0.0
  0
LINE
  5
1E2
  8
0
 10
6.08316
 20
-2.56465
 30
0.0
 11
5.88611
 21
-2.41852
 31
0.0
  0
LINE
  5
1E3
  8
0
 10
5.88611
 20
-2.41852
 30
0.0
 11
5.67567
 21
-2.29239
 31
0.0
  0
LINE
  5
1E4
  8
0
 10
5.67567
 20
-2.29239
 30
0.0
 11
5.45389
 21
-2.1875
 31
0.0
  0
LINE
  5
1E5
  8
0
 10
5.45389
 20
-2.1875
 30
0.0
 11
5.22289
 21
-2.10484
 31
0.0
  0
LINE
  5
1E6
  8
0
 10
5.22289
 20
-2.10484
 30
0.0
 11
4.98491
 21
-2.04524
 31
0.0
  0
LINE
  5
1E7
  8
0
 10
4.98491
 20
-2.04524
 30
0.0
 11
4.74222
 21
-2.00922
 31
0.0
  0
LINE
  5
1E8
  8
0
 10
4.74222
 20
-2.00922
 30
0.0
 11
4.49718
 21
-1.99719
 31
0.0
  0
LINE
  5
1E9
  8
0
 10
4.49718
 20
-1.99719
 30
0.0
 11
4.25212
 21
-2.00923
 31
0.0
  0
LINE
  5
1EA
  8
0
 10
4.25212
 20
-2.00923
 30
0.0
 11
4.00945
 21
-2.04523
 31
0.0
  0
LINE
  5
1EB
  8
0
 10
4.00945
 20
-2.04523
 30
0.0
 11
3.77147
 21
-2.10484
 31
0.0
  0
LINE
  5
1EC
  8
0
 10
3.77147
 20
-2.10484
 30
0.0
 11
3.54047
 21
-2.1875
 31
0.0
  0
LINE
  5
1ED
  8
0
 10
3.54047
 20
-2.1875
 30
0.0
 11
3.41402
 21
-2.2473
 31
0.0
  0
LINE
  5
1EE
  8
0
 10
3.41402
 20
-2.2473
 30
0.0
 11
1.16672
 21
0.0
 31
0.0
  0
LINE
  5
1EF
  8
0
 10
1.16672
 20
0.0
 30
0.0
 11
3.41402
 21
2.2473
 31
0.0
  0
LINE
  5
1F0
  8
0
 10
-1.45451
 20
2.59294
 30
0.0
 11
-1.44745
 21
2.60002
 31
0.0
  0
LINE
  5
1F1
  8
0
 10
-1.44745
 20
2.60002
 30
0.0
 11
-0.00708008
 21
1.15965
 31
0.0
  0
LINE
  5
1F2
  8
0
 10
-0.00708008
 20
1.15965
 30
0.0
 11
-0.0141449
 21
1.15257
 31
0.0
  0
LINE
  5
1F3
  8
0
 10
-0.0141449
 20
1.15257
 30
0.0
 11
-1.45451
 21
2.59294
 31
0.0
  0
LINE
  5
1F4
  8
0
 10
0.00708008
 20
1.15965
 30
0.0
 11
1.44745
 21
2.60002
 31
0.0
  0
LINE
  5
1F5
  8
0
 10
1.44745
 20
2.60002
 30
0.0
 11
1.45451
 21
2.59294
 31
0.0
  0
LINE
  5
1F6
  8
0
 10
1.45451
 20
2.59294
 30
0.0
 11
0.0141449
 21
1.15257
 31
0.0
  0
LINE
  5
1F7
  8
0
 10
0.0141449
 20
1.15257
 30
0.0
 11
0.00708008
 21
1.15965
 31
0.0
  0
LINE
  5
1F8
  8
0
 10
-1.46866
 20
2.5788
 30
0.0
 11
-1.46158
 21
2.58588
 31
0.0
  0
LINE
  5
1F9
  8
0
 10
-1.46158
 20
2.58588
 30
0.0
 11
-0.0212097
 21
1.14551
 31
0.0
  0
LINE
  5
1FA
  8
0
 10
-0.0212097
 20
1.14551
 30
0.0
 11
-0.0282898
 21
1.13843
 31
0.0
  0
LINE
  5
1FB
  8
0
 10
-0.0282898
 20
1.13843
 30
0.0
 11
-1.46866
 21
2.5788
 31
0.0
  0
LINE
  5
1FC
  8
0
 10
0.0212097
 20
1.14551
 30
0.0
 11
1.46158
 21
2.58588
 31
0.0
  0
LINE
  5
1FD
  8
0
 10
1.46158
 20
2.58588
 30
0.0
 11
1.46866
 21
2.5788
 31
0.0
  0
LINE
  5
1FE
  8
0
 10
1.46866
 20
2.5788
 30
0.0
 11
0.0282898
 21
1.13843
 31
0.0
  0
LINE
  5
1FF
  8
0
 10
0.0282898
 20
1.13843
 30
0.0
 11
0.0212097
 21
1.14551
 31
0.0
  0
LINE
  5
200
  8
0
 10
-1.48279
 20
2.56467
 30
0.0
 11
-1.47572
 21
2.57173
 31
0.0
  0
LINE
  5
201
  8
0
 10
-1.47572
 20
2.57173
 30
0.0
 11
-0.0353546
 21
1.13136
 31
0.0
  0
LINE
  5
202
  8
0
 10
-0.0353546
 20
1.13136
 30
0.0
 11
-0.0424194
 21
1.1243
 31
0.0
  0
LINE
  5
203
  8
0
 10
-0.0424194
 20
1.1243
 30
0.0
 11
-1.48279
 21
2.56467
 31
0.0
  0
LINE
  5
204
  8
0
 10
0.0353546
 20
1.13136
 30
0.0
 11
1.47572
 21
2.57173
 31
0.0
  0
LINE
  5
205
  8
0
 10
1.47572
 20
2.57173
 30
0.0
 11
1.48279
 21
2.56467
 31
0.0
  0
LINE
  5
206
  8
0
 10
1.48279
 20
2.56467
 30
0.0
 11
0.0424194
 21
1.1243
 31
0.0
  0
LINE
  5
207
  8
0
 10
0.0424194
 20
1.1243
 30
0.0
 11
0.0353546
 21
1.13136
 31
0.0
  0
LINE
  5
208
  8
0
 10
-1.49693
 20
2.55052
 30
0.0
 11
-1.48987
 21
2.55759
 31
0.0
  0
LINE
  5
209
  8
0
 10
-1.48987
 20
2.55759
 30
0.0
 11
-0.0494995
 21
1.11722
 31
0.0
  0
LINE
  5
20A
  8
0
 10
-0.0494995
 20
1.11722
 30
0.0
 11
-0.0565643
 21
1.11015
 31
0.0
  0
LINE
  5
20B
  8
0
 10
-0.0565643
 20
1.11015
 30
0.0
 11
-1.49693
 21
2.55052
 31
0.0
  0
LINE
  5
20C
  8
0
 10
0.0494995
 20
1.11722
 30
0.0
 11
1.48987
 21
2.55759
 31
0.0
  0
LINE
  5
20D
  8
0
 10
1.48987
 20
2.55759
 30
0.0
 11
1.49693
 21
2.55052
 31
0.0
  0
LINE
  5
20E
  8
0
 10
1.49693
 20
2.55052
 30
0.0
 11
0.0565643
 21
1.11015
 31
0.0
  0
LINE
  5
20F
  8
0
 10
0.0565643
 20
1.11015
 30
0.0
 11
0.0494995
 21
1.11722
 31
0.0
  0
LINE
  5
210
  8
0
 10
0.0636444
 20
1.10307
 30
0.0
 11
1.50401
 21
2.54344
 31
0.0
  0
LINE
  5
211
  8
0
 10
1.50401
 20
2.54344
 30
0.0
 11
1.51109
 21
2.53638
 31
0.0
  0
LINE
  5
212
  8
0
 10
1.51109
 20
2.53638
 30
0.0
 11
0.0707245
 21
1.09601
 31
0.0
  0
LINE
  5
213
  8
0
 10
0.0707245
 20
1.09601
 30
0.0
 11
0.0636444
 21
1.10307
 31
0.0
  0
LINE
  5
214
  8
0
 10
-1.51109
 20
2.53638
 30
0.0
 11
-1.50401
 21
2.54344
 31
0.0
  0
LINE
  5
215
  8
0
 10
-1.50401
 20
2.54344
 30
0.0
 11
-0.0636444
 21
1.10307
 31
0.0
  0
LINE
  5
216
  8
0
 10
-0.0636444
 20
1.10307
 30
0.0
 11
-0.0707245
 21
1.09601
 31
0.0
  0
LINE
  5
217
  8
0
 10
-0.0707245
 20
1.09601
 30
0.0
 11
-1.51109
 21
2.53638
 31
0.0
  0
LINE
  5
218
  8
0
 10
-1.52524
 20
2.52223
 30
0.0
 11
-1.51816
 21
2.52931
 31
0.0
  0
LINE
  5
219
  8
0
 10
-1.51816
 20
2.52931
 30
0.0
 11
-0.0777893
 21
1.08894
 31
0.0
  0
LINE
  5
21A
  8
0
 10
-0.0777893
 20
1.08894
 30
0.0
 11
-0.0848694
 21
1.08186
 31
0.0
  0
LINE
  5
21B
  8
0
 10
-0.0848694
 20
1.08186
 30
0.0
 11
-1.52524
 21
2.52223
 31
0.0
  0
LINE
  5
21C
  8
0
 10
0.0777893
 20
1.08894
 30
0.0
 11
1.51816
 21
2.52931
 31
0.0
  0
LINE
  5
21D
  8
0
 10
1.51816
 20
2.52931
 30
0.0
 11
1.52524
 21
2.52223
 31
0.0
  0
LINE
  5
21E
  8
0
 10
1.52524
 20
2.52223
 30
0.0
 11
0.0848694
 21
1.08186
 31
0.0
  0
LINE
  5
21F
  8
0
 10
0.0848694
 20
1.08186
 30
0.0
 11
0.0777893
 21
1.08894
 31
0.0
  0
LINE
  5
220
  8
0
 10
-1.53937
 20
2.5081
 30
0.0
 11
-1.5323
 21
2.51517
 31
0.0
  0
LINE
  5
221
  8
0
 10
-1.5323
 20
2.51517
 30
0.0
 11
-0.0919342
 21
1.0748
 31
0.0
  0
LINE
  5
222
  8
0
 10
-0.0919342
 20
1.0748
 30
0.0
 11
-0.098999
 21
1.06773
 31
0.0
  0
LINE
  5
223
  8
0
 10
-0.098999
 20
1.06773
 30
0.0
 11
-1.53937
 21
2.5081
 31
0.0
  0
LINE
  5
224
  8
0
 10
0.0919342
 20
1.0748
 30
0.0
 11
1.5323
 21
2.51517
 31
0.0
  0
LINE
  5
225
  8
0
 10
1.5323
 20
2.51517
 30
0.0
 11
1.53937
 21
2.5081
 31
0.0
  0
LINE
  5
226
  8
0
 10
1.53937
 20
2.5081
 30
0.0
 11
0.098999
 21
1.06773
 31
0.0
  0
LINE
  5
227
  8
0
 10
0.098999
 20
1.06773
 30
0.0
 11
0.0919342
 21
1.0748
 31
0.0
  0
LINE
  5
228
  8
0
 10
-1.55351
 20
2.49396
 30
0.0
 11
-1.54645
 21
2.50102
 31
0.0
  0
LINE
  5
229
  8
0
 10
-1.54645
 20
2.50102
 30
0.0
 11
-0.106079
 21
1.06065
 31
0.0
  0
LINE
  5
22A
  8
0
 10
-0.106079
 20
1.06065
 30
0.0
 11
-0.113144
 21
1.05359
 31
0.0
  0
LINE
  5
22B
  8
0
 10
-0.113144
 20
1.05359
 30
0.0
 11
-1.55351
 21
2.49396
 31
0.0
  0
LINE
  5
22C
  8
0
 10
0.106079
 20
1.06065
 30
0.0
 11
1.54645
 21
2.50102
 31
0.0
  0
LINE
  5
22D
  8
0
 10
1.54645
 20
2.50102
 30
0.0
 11
1.55351
 21
2.49396
 31
0.0
  0
LINE
  5
22E
  8
0
 10
1.55351
 20
2.49396
 30
0.0
 11
0.113144
 21
1.05359
 31
0.0
  0
LINE
  5
22F
  8
0
 10
0.113144
 20
1.05359
 30
0.0
 11
0.106079
 21
1.06065
 31
0.0
  0
LINE
  5
230
  8
0
 10
-1.56766
 20
2.47981
 30
0.0
 11
-1.56058
 21
2.48689
 31
0.0
  0
LINE
  5
231
  8
0
 10
-1.56058
 20
2.48689
 30
0.0
 11
-0.120209
 21
1.04652
 31
0.0
  0
LINE
  5
232
  8
0
 10
-0.120209
 20
1.04652
 30
0.0
 11
-0.127289
 21
1.03944
 31
0.0
  0
LINE
  5
233
  8
0
 10
-0.127289
 20
1.03944
 30
0.0
 11
-1.56766
 21
2.47981
 31
0.0
  0
LINE
  5
234
  8
0
 10
0.120209
 20
1.04652
 30
0.0
 11
1.56058
 21
2.48689
 31
0.0
  0
LINE
  5
235
  8
0
 10
1.56058
 20
2.48689
 30
0.0
 11
1.56766
 21
2.47981
 31
0.0
  0
LINE
  5
236
  8
0
 10
1.56766
 20
2.47981
 30
0.0
 11
0.127289
 21
1.03944
 31
0.0
  0
LINE
  5
237
  8
0
 10
0.127289
 20
1.03944
 30
0.0
 11
0.120209
 21
1.04652
 31
0.0
  0
LINE
  5
238
  8
0
 10
-1.58179
 20
2.46567
 30
0.0
 11
-1.57472
 21
2.47275
 31
0.0
  0
LINE
  5
239
  8
0
 10
-1.57472
 20
2.47275
 30
0.0
 11
-0.134354
 21
1.03238
 31
0.0
  0
LINE
  5
23A
  8
0
 10
-0.134354
 20
1.03238
 30
0.0
 11
-0.141418
 21
1.0253
 31
0.0
  0
LINE
  5
23B
  8
0
 10
-0.141418
 20
1.0253
 30
0.0
 11
-1.58179
 21
2.46567
 31
0.0
  0
LINE
  5
23C
  8
0
 10
0.134354
 20
1.03238
 30
0.0
 11
1.57472
 21
2.47275
 31
0.0
  0
LINE
  5
23D
  8
0
 10
1.57472
 20
2.47275
 30
0.0
 11
1.58179
 21
2.46567
 31
0.0
  0
LINE
  5
23E
  8
0
 10
1.58179
 20
2.46567
 30
0.0
 11
0.141418
 21
1.0253
 31
0.0
  0
LINE
  5
23F
  8
0
 10
0.141418
 20
1.0253
 30
0.0
 11
0.134354
 21
1.03238
 31
0.0
  0
LINE
  5
240
  8
0
 10
-1.59593
 20
2.45152
 30
0.0
 11
-1.58887
 21
2.4586
 31
0.0
  0
LINE
  5
241
  8
0
 10
-1.58887
 20
2.4586
 30
0.0
 11
-0.148499
 21
1.01823
 31
0.0
  0
LINE
  5
242
  8
0
 10
-0.148499
 20
1.01823
 30
0.0
 11
-0.155563
 21
1.01115
 31
0.0
  0
LINE
  5
243
  8
0
 10
-0.155563
 20
1.01115
 30
0.0
 11
-1.59593
 21
2.45152
 31
0.0
  0
LINE
  5
244
  8
0
 10
0.148499
 20
1.01823
 30
0.0
 11
1.58887
 21
2.4586
 31
0.0
  0
LINE
  5
245
  8
0
 10
1.58887
 20
2.4586
 30
0.0
 11
1.59593
 21
2.45152
 31
0.0
  0
LINE
  5
246
  8
0
 10
1.59593
 20
2.45152
 30
0.0
 11
0.155563
 21
1.01115
 31
0.0
  0
LINE
  5
247
  8
0
 10
0.155563
 20
1.01115
 30
0.0
 11
0.148499
 21
1.01823
 31
0.0
  0
LINE
  5
248
  8
0
 10
-1.61008
 20
2.43738
 30
0.0
 11
-1.60301
 21
2.44444
 31
0.0
  0
LINE
  5
249
  8
0
 10
-1.60301
 20
2.44444
 30
0.0
 11
-0.162643
 21
1.00407
 31
0.0
  0
LINE
  5
24A
  8
0
 10
-0.162643
 20
1.00407
 30
0.0
 11
-0.169708
 21
0.997009
 31
0.0
  0
LINE
  5
24B
  8
0
 10
-0.169708
 20
0.997009
 30
0.0
 11
-1.61008
 21
2.43738
 31
0.0
  0
LINE
  5
24C
  8
0
 10
0.162643
 20
1.00407
 30
0.0
 11
1.60301
 21
2.44444
 31
0.0
  0
LINE
  5
24D
  8
0
 10
1.60301
 20
2.44444
 30
0.0
 11
1.61008
 21
2.43738
 31
0.0
  0
LINE
  5
24E
  8
0
 10
1.61008
 20
2.43738
 30
0.0
 11
0.169708
 21
0.997009
 31
0.0
  0
LINE
  5
24F
  8
0
 10
0.169708
 20
0.997009
 30
0.0
 11
0.162643
 21
1.00407
 31
0.0
  0
LINE
  5
250
  8
0
 10
-1.62422
 20
2.42323
 30
0.0
 11
-1.61714
 21
2.43031
 31
0.0
  0
LINE
  5
251
  8
0
 10
-1.61714
 20
2.43031
 30
0.0
 11
-0.176773
 21
0.989944
 31
0.0
  0
LINE
  5
252
  8
0
 10
-0.176773
 20
0.989944
 30
0.0
 11
-0.183853
 21
0.982864
 31
0.0
  0
LINE
  5
253
  8
0
 10
-0.183853
 20
0.982864
 30
0.0
 11
-1.62422
 21
2.42323
 31
0.0
  0
LINE
  5
254
  8
0
 10
0.176773
 20
0.989944
 30
0.0
 11
1.61714
 21
2.43031
 31
0.0
  0
LINE
  5
255
  8
0
 10
1.61714
 20
2.43031
 30
0.0
 11
1.62422
 21
2.42323
 31
0.0
  0
LINE
  5
256
  8
0
 10
1.62422
 20
2.42323
 30
0.0
 11
0.183853
 21
0.982864
 31
0.0
  0
LINE
  5
257
  8
0
 10
0.183853
 20
0.982864
 30
0.0
 11
0.176773
 21
0.989944
 31
0.0
  0
LINE
  5
258
  8
0
 10
-1.63837
 20
2.4091
 30
0.0
 11
-1.63129
 21
2.41617
 31
0.0
  0
LINE
  5
259
  8
0
 10
-1.63129
 20
2.41617
 30
0.0
 11
-0.190918
 21
0.9758
 31
0.0
  0
LINE
  5
25A
  8
0
 10
-0.190918
 20
0.9758
 30
0.0
 11
-0.197998
 21
0.968735
 31
0.0
  0
LINE
  5
25B
  8
0
 10
-0.197998
 20
0.968735
 30
0.0
 11
-1.63837
 21
2.4091
 31
0.0
  0
LINE
  5
25C
  8
0
 10
0.190918
 20
0.9758
 30
0.0
 11
1.63129
 21
2.41617
 31
0.0
  0
LINE
  5
25D
  8
0
 10
1.63129
 20
2.41617
 30
0.0
 11
1.63837
 21
2.4091
 31
0.0
  0
LINE
  5
25E
  8
0
 10
1.63837
 20
2.4091
 30
0.0
 11
0.197998
 21
0.968735
 31
0.0
  0
LINE
  5
25F
  8
0
 10
0.197998
 20
0.968735
 30
0.0
 11
0.190918
 21
0.9758
 31
0.0
  0
LINE
  5
260
  8
0
 10
0.205063
 20
0.961655
 30
0.0
 11
1.64543
 21
2.40202
 31
0.0
  0
LINE
  5
261
  8
0
 10
1.64543
 20
2.40202
 30
0.0
 11
1.65251
 21
2.39496
 31
0.0
  0
LINE
  5
262
  8
0
 10
1.65251
 20
2.39496
 30
0.0
 11
0.212143
 21
0.95459
 31
0.0
  0
LINE
  5
263
  8
0
 10
0.212143
 20
0.95459
 30
0.0
 11
0.205063
 21
0.961655
 31
0.0
  0
LINE
  5
264
  8
0
 10
-1.65251
 20
2.39496
 30
0.0
 11
-1.64543
 21
2.40202
 31
0.0
  0
LINE
  5
265
  8
0
 10
-1.64543
 20
2.40202
 30
0.0
 11
-0.205063
 21
0.961655
 31
0.0
  0
LINE
  5
266
  8
0
 10
-0.205063
 20
0.961655
 30
0.0
 11
-0.212143
 21
0.95459
 31
0.0
  0
LINE
  5
267
  8
0
 10
-0.212143
 20
0.95459
 30
0.0
 11
-1.65251
 21
2.39496
 31
0.0
  0
LINE
  5
268
  8
0
 10
-1.66666
 20
2.38081
 30
0.0
 11
-1.65958
 21
2.38789
 31
0.0
  0
LINE
  5
269
  8
0
 10
-1.65958
 20
2.38789
 30
0.0
 11
-0.219208
 21
0.947525
 31
0.0
  0
LINE
  5
26A
  8
0
 10
-0.219208
 20
0.947525
 30
0.0
 11
-0.226288
 21
0.940445
 31
0.0
  0
LINE
  5
26B
  8
0
 10
-0.226288
 20
0.940445
 30
0.0
 11
-1.66666
 21
2.38081
 31
0.0
  0
LINE
  5
26C
  8
0
 10
0.219208
 20
0.947525
 30
0.0
 11
1.65958
 21
2.38789
 31
0.0
  0
LINE
  5
26D
  8
0
 10
1.65958
 20
2.38789
 30
0.0
 11
1.66666
 21
2.38081
 31
0.0
  0
LINE
  5
26E
  8
0
 10
1.66666
 20
2.38081
 30
0.0
 11
0.226288
 21
0.940445
 31
0.0
  0
LINE
  5
26F
  8
0
 10
0.226288
 20
0.940445
 30
0.0
 11
0.219208
 21
0.947525
 31
0.0
  0
LINE
  5
270
  8
0
 10
-1.6808
 20
2.36667
 30
0.0
 11
-1.67372
 21
2.37375
 31
0.0
  0
LINE
  5
271
  8
0
 10
-1.67372
 20
2.37375
 30
0.0
 11
-0.233353
 21
0.93338
 31
0.0
  0
LINE
  5
272
  8
0
 10
-0.233353
 20
0.93338
 30
0.0
 11
-0.240433
 21
0.9263
 31
0.0
  0
LINE
  5
273
  8
0
 10
-0.240433
 20
0.9263
 30
0.0
 11
-1.6808
 21
2.36667
 31
0.0
  0
LINE
  5
274
  8
0
 10
0.233353
 20
0.93338
 30
0.0
 11
1.67372
 21
2.37375
 31
0.0
  0
LINE
  5
275
  8
0
 10
1.67372
 20
2.37375
 30
0.0
 11
1.6808
 21
2.36667
 31
0.0
  0
LINE
  5
276
  8
0
 10
1.6808
 20
2.36667
 30
0.0
 11
0.240433
 21
0.9263
 31
0.0
  0
LINE
  5
277
  8
0
 10
0.240433
 20
0.9263
 30
0.0
 11
0.233353
 21
0.93338
 31
0.0
  0
LINE
  5
278
  8
0
 10
-1.69493
 20
2.35254
 30
0.0
 11
-1.68787
 21
2.3596
 31
0.0
  0
LINE
  5
279
  8
0
 10
-1.68787
 20
2.3596
 30
0.0
 11
-0.247498
 21
0.919235
 31
0.0
  0
LINE
  5
27A
  8
0
 10
-0.247498
 20
0.919235
 30
0.0
 11
-0.254562
 21
0.91217
 31
0.0
  0
LINE
  5
27B
  8
0
 10
-0.254562
 20
0.91217
 30
0.0
 11
-1.69493
 21
2.35254
 31
0.0
  0
LINE
  5
27C
  8
0
 10
0.247498
 20
0.919235
 30
0.0
 11
1.68787
 21
2.3596
 31
0.0
  0
LINE
  5
27D
  8
0
 10
1.68787
 20
2.3596
 30
0.0
 11
1.69493
 21
2.35254
 31
0.0
  0
LINE
  5
27E
  8
0
 10
1.69493
 20
2.35254
 30
0.0
 11
0.254562
 21
0.91217
 31
0.0
  0
LINE
  5
27F
  8
0
 10
0.254562
 20
0.91217
 30
0.0
 11
0.247498
 21
0.919235
 31
0.0
  0
LINE
  5
280
  8
0
 10
-1.70908
 20
2.33839
 30
0.0
 11
-1.70201
 21
2.34546
 31
0.0
  0
LINE
  5
281
  8
0
 10
-1.70201
 20
2.34546
 30
0.0
 11
-0.261642
 21
0.90509
 31
0.0
  0
LINE
  5
282
  8
0
 10
-0.261642
 20
0.90509
 30
0.0
 11
-0.268707
 21
0.898026
 31
0.0
  0
LINE
  5
283
  8
0
 10
-0.268707
 20
0.898026
 30
0.0
 11
-1.70908
 21
2.33839
 31
0.0
  0
LINE
  5
284
  8
0
 10
0.261642
 20
0.90509
 30
0.0
 11
1.70201
 21
2.34546
 31
0.0
  0
LINE
  5
285
  8
0
 10
1.70201
 20
2.34546
 30
0.0
 11
1.70908
 21
2.33839
 31
0.0
  0
LINE
  5
286
  8
0
 10
1.70908
 20
2.33839
 30
0.0
 11
0.268707
 21
0.898026
 31
0.0
  0
LINE
  5
287
  8
0
 10
0.268707
 20
0.898026
 30
0.0
 11
0.261642
 21
0.90509
 31
0.0
  0
LINE
  5
288
  8
0
 10
-1.72322
 20
2.32425
 30
0.0
 11
-1.71614
 21
2.33131
 31
0.0
  0
LINE
  5
289
  8
0
 10
-1.71614
 20
2.33131
 30
0.0
 11
-0.275772
 21
0.890945
 31
0.0
  0
LINE
  5
28A
  8
0
 10
-0.275772
 20
0.890945
 30
0.0
 11
-0.282852
 21
0.883881
 31
0.0
  0
LINE
  5
28B
  8
0
 10
-0.282852
 20
0.883881
 30
0.0
 11
-1.72322
 21
2.32425
 31
0.0
  0
LINE
  5
28C
  8
0
 10
0.275772
 20
0.890945
 30
0.0
 11
1.71614
 21
2.33131
 31
0.0
  0
LINE
  5
28D
  8
0
 10
1.71614
 20
2.33131
 30
0.0
 11
1.72322
 21
2.32425
 31
0.0
  0
LINE
  5
28E
  8
0
 10
1.72322
 20
2.32425
 30
0.0
 11
0.282852
 21
0.883881
 31
0.0
  0
LINE
  5
28F
  8
0
 10
0.282852
 20
0.883881
 30
0.0
 11
0.275772
 21
0.890945
 31
0.0
  0
LINE
  5
290
  8
0
 10
-1.73735
 20
2.3101
 30
0.0
 11
-1.73029
 21
2.31717
 31
0.0
  0
LINE
  5
291
  8
0
 10
-1.73029
 20
2.31717
 30
0.0
 11
-0.289917
 21
0.876801
 31
0.0
  0
LINE
  5
292
  8
0
 10
-0.289917
 20
0.876801
 30
0.0
 11
-0.296982
 21
0.869736
 31
0.0
  0
LINE
  5
293
  8
0
 10
-0.296982
 20
0.869736
 30
0.0
 11
-1.73735
 21
2.3101
 31
0.0
  0
LINE
  5
294
  8
0
 10
0.289917
 20
0.876801
 30
0.0
 11
1.73029
 21
2.31717
 31
0.0
  0
LINE
  5
295
  8
0
 10
1.73029
 20
2.31717
 30
0.0
 11
1.73735
 21
2.3101
 31
0.0
  0
LINE
  5
296
  8
0
 10
1.73735
 20
2.3101
 30
0.0
 11
0.296982
 21
0.869736
 31
0.0
  0
LINE
  5
297
  8
0
 10
0.296982
 20
0.869736
 30
0.0
 11
0.289917
 21
0.876801
 31
0.0
  0
LINE
  5
298
  8
0
 10
-1.7515
 20
2.29596
 30
0.0
 11
-1.74443
 21
2.30302
 31
0.0
  0
LINE
  5
299
  8
0
 10
-1.74443
 20
2.30302
 30
0.0
 11
-0.304062
 21
0.862656
 31
0.0
  0
LINE
  5
29A
  8
0
 10
-0.304062
 20
0.862656
 30
0.0
 11
-0.311127
 21
0.855591
 31
0.0
  0
LINE
  5
29B
  8
0
 10
-0.311127
 20
0.855591
 30
0.0
 11
-1.7515
 21
2.29596
 31
0.0
  0
LINE
  5
29C
  8
0
 10
0.304062
 20
0.862656
 30
0.0
 11
1.74443
 21
2.30302
 31
0.0
  0
LINE
  5
29D
  8
0
 10
1.74443
 20
2.30302
 30
0.0
 11
1.7515
 21
2.29596
 31
0.0
  0
LINE
  5
29E
  8
0
 10
1.7515
 20
2.29596
 30
0.0
 11
0.311127
 21
0.855591
 31
0.0
  0
LINE
  5
29F
  8
0
 10
0.311127
 20
0.855591
 30
0.0
 11
0.304062
 21
0.862656
 31
0.0
  0
LINE
  5
2A0
  8
0
 10
-1.76564
 20
2.28181
 30
0.0
 11
-1.75856
 21
2.28889
 31
0.0
  0
LINE
  5
2A1
  8
0
 10
-1.75856
 20
2.28889
 30
0.0
 11
-0.318192
 21
0.848526
 31
0.0
  0
LINE
  5
2A2
  8
0
 10
-0.318192
 20
0.848526
 30
0.0
 11
-0.325272
 21
0.841446
 31
0.0
  0
LINE
  5
2A3
  8
0
 10
-0.325272
 20
0.841446
 30
0.0
 11
-1.76564
 21
2.28181
 31
0.0
  0
LINE
  5
2A4
  8
0
 10
0.318192
 20
0.848526
 30
0.0
 11
1.75856
 21
2.28889
 31
0.0
  0
LINE
  5
2A5
  8
0
 10
1.75856
 20
2.28889
 30
0.0
 11
1.76564
 21
2.28181
 31
0.0
  0
LINE
  5
2A6
  8
0
 10
1.76564
 20
2.28181
 30
0.0
 11
0.325272
 21
0.841446
 31
0.0
  0
LINE
  5
2A7
  8
0
 10
0.325272
 20
0.841446
 30
0.0
 11
0.318192
 21
0.848526
 31
0.0
  0
LINE
  5
2A8
  8
0
 10
-1.77979
 20
2.26767
 30
0.0
 11
-1.77271
 21
2.27475
 31
0.0
  0
LINE
  5
2A9
  8
0
 10
-1.77271
 20
2.27475
 30
0.0
 11
-0.332336
 21
0.834381
 31
0.0
  0
LINE
  5
2AA
  8
0
 10
-0.332336
 20
0.834381
 30
0.0
 11
-0.339417
 21
0.827301
 31
0.0
  0
LINE
  5
2AB
  8
0
 10
-0.339417
 20
0.827301
 30
0.0
 11
-1.77979
 21
2.26767
 31
0.0
  0
LINE
  5
2AC
  8
0
 10
0.332336
 20
0.834381
 30
0.0
 11
1.77271
 21
2.27475
 31
0.0
  0
LINE
  5
2AD
  8
0
 10
1.77271
 20
2.27475
 30
0.0
 11
1.77979
 21
2.26767
 31
0.0
  0
LINE
  5
2AE
  8
0
 10
1.77979
 20
2.26767
 30
0.0
 11
0.339417
 21
0.827301
 31
0.0
  0
LINE
  5
2AF
  8
0
 10
0.339417
 20
0.827301
 30
0.0
 11
0.332336
 21
0.834381
 31
0.0
  0
LINE
  5
2B0
  8
0
 10
-1.79393
 20
2.25354
 30
0.0
 11
-1.78685
 21
2.2606
 31
0.0
  0
LINE
  5
2B1
  8
0
 10
-1.78685
 20
2.2606
 30
0.0
 11
-0.346481
 21
0.820236
 31
0.0
  0
LINE
  5
2B2
  8
0
 10
-0.346481
 20
0.820236
 30
0.0
 11
-0.353561
 21
0.813171
 31
0.0
  0
LINE
  5
2B3
  8
0
 10
-0.353561
 20
0.813171
 30
0.0
 11
-1.79393
 21
2.25354
 31
0.0
  0
LINE
  5
2B4
  8
0
 10
0.346481
 20
0.820236
 30
0.0
 11
1.78685
 21
2.2606
 31
0.0
  0
LINE
  5
2B5
  8
0
 10
1.78685
 20
2.2606
 30
0.0
 11
1.79393
 21
2.25354
 31
0.0
  0
LINE
  5
2B6
  8
0
 10
1.79393
 20
2.25354
 30
0.0
 11
0.353561
 21
0.813171
 31
0.0
  0
LINE
  5
2B7
  8
0
 10
0.353561
 20
0.813171
 30
0.0
 11
0.346481
 21
0.820236
 31
0.0
  0
LINE
  5
2B8
  8
0
 10
0.360626
 20
0.806091
 30
0.0
 11
1.80099
 21
2.24646
 31
0.0
  0
LINE
  5
2B9
  8
0
 10
1.80099
 20
2.24646
 30
0.0
 11
1.80807
 21
2.2394
 31
0.0
  0
LINE
  5
2BA
  8
0
 10
1.80807
 20
2.2394
 30
0.0
 11
0.367706
 21
0.799026
 31
0.0
  0
LINE
  5
2BB
  8
0
 10
0.367706
 20
0.799026
 30
0.0
 11
0.360626
 21
0.806091
 31
0.0
  0
LINE
  5
2BC
  8
0
 10
-1.80807
 20
2.2394
 30
0.0
 11
-1.80099
 21
2.24646
 31
0.0
  0
LINE
  5
2BD
  8
0
 10
-1.80099
 20
2.24646
 30
0.0
 11
-0.360626
 21
0.806091
 31
0.0
  0
LINE
  5
2BE
  8
0
 10
-0.360626
 20
0.806091
 30
0.0
 11
-0.367706
 21
0.799026
 31
0.0
  0
LINE
  5
2BF
  8
0
 10
-0.367706
 20
0.799026
 30
0.0
 11
-1.80807
 21
2.2394
 31
0.0
  0
LINE
  5
2C0
  8
0
 10
-1.82222
 20
2.22525
 30
0.0
 11
-1.81514
 21
2.23233
 31
0.0
  0
LINE
  5
2C1
  8
0
 10
-1.81514
 20
2.23233
 30
0.0
 11
-0.374771
 21
0.791962
 31
0.0
  0
LINE
  5
2C2
  8
0
 10
-0.374771
 20
0.791962
 30
0.0
 11
-0.381851
 21
0.784882
 31
0.0
  0
LINE
  5
2C3
  8
0
 10
-0.381851
 20
0.784882
 30
0.0
 11
-1.82222
 21
2.22525
 31
0.0
  0
LINE
  5
2C4
  8
0
 10
0.374771
 20
0.791962
 30
0.0
 11
1.81514
 21
2.23233
 31
0.0
  0
LINE
  5
2C5
  8
0
 10
1.81514
 20
2.23233
 30
0.0
 11
1.82222
 21
2.22525
 31
0.0
  0
LINE
  5
2C6
  8
0
 10
1.82222
 20
2.22525
 30
0.0
 11
0.381851
 21
0.784882
 31
0.0
  0
LINE
  5
2C7
  8
0
 10
0.381851
 20
0.784882
 30
0.0
 11
0.374771
 21
0.791962
 31
0.0
  0
LINE
  5
2C8
  8
0
 10
-1.83635
 20
2.21112
 30
0.0
 11
-1.82928
 21
2.21819
 31
0.0
  0
LINE
  5
2C9
  8
0
 10
-1.82928
 20
2.21819
 30
0.0
 11
-0.388916
 21
0.777817
 31
0.0
  0
LINE
  5
2CA
  8
0
 10
-0.388916
 20
0.777817
 30
0.0
 11
-0.395981
 21
0.770752
 31
0.0
  0
LINE
  5
2CB
  8
0
 10
-0.395981
 20
0.770752
 30
0.0
 11
-1.83635
 21
2.21112
 31
0.0
  0
LINE
  5
2CC
  8
0
 10
0.388916
 20
0.777817
 30
0.0
 11
1.82928
 21
2.21819
 31
0.0
  0
LINE
  5
2CD
  8
0
 10
1.82928
 20
2.21819
 30
0.0
 11
1.83635
 21
2.21112
 31
0.0
  0
LINE
  5
2CE
  8
0
 10
1.83635
 20
2.21112
 30
0.0
 11
0.395981
 21
0.770752
 31
0.0
  0
LINE
  5
2CF
  8
0
 10
0.395981
 20
0.770752
 30
0.0
 11
0.388916
 21
0.777817
 31
0.0
  0
LINE
  5
2D0
  8
0
 10
-1.85049
 20
2.19698
 30
0.0
 11
-1.84343
 21
2.20404
 31
0.0
  0
LINE
  5
2D1
  8
0
 10
-1.84343
 20
2.20404
 30
0.0
 11
-0.403061
 21
0.763672
 31
0.0
  0
LINE
  5
2D2
  8
0
 10
-0.403061
 20
0.763672
 30
0.0
 11
-0.410126
 21
0.756607
 31
0.0
  0
LINE
  5
2D3
  8
0
 10
-0.410126
 20
0.756607
 30
0.0
 11
-1.85049
 21
2.19698
 31
0.0
  0
LINE
  5
2D4
  8
0
 10
0.403061
 20
0.763672
 30
0.0
 11
1.84343
 21
2.20404
 31
0.0
  0
LINE
  5
2D5
  8
0
 10
1.84343
 20
2.20404
 30
0.0
 11
1.85049
 21
2.19698
 31
0.0
  0
LINE
  5
2D6
  8
0
 10
1.85049
 20
2.19698
 30
0.0
 11
0.410126
 21
0.756607
 31
0.0
  0
LINE
  5
2D7
  8
0
 10
0.410126
 20
0.756607
 30
0.0
 11
0.403061
 21
0.763672
 31
0.0
  0
LINE
  5
2D8
  8
0
 10
-1.86464
 20
2.18283
 30
0.0
 11
-1.85757
 21
2.1899
 31
0.0
  0
LINE
  5
2D9
  8
0
 10
-1.85757
 20
2.1899
 30
0.0
 11
-0.417206
 21
0.749527
 31
0.0
  0
LINE
  5
2DA
  8
0
 10
-0.417206
 20
0.749527
 30
0.0
 11
-0.424271
 21
0.742462
 31
0.0
  0
LINE
  5
2DB
  8
0
 10
-0.424271
 20
0.742462
 30
0.0
 11
-1.86464
 21
2.18283
 31
0.0
  0
LINE
  5
2DC
  8
0
 10
0.417206
 20
0.749527
 30
0.0
 11
1.85757
 21
2.1899
 31
0.0
  0
LINE
  5
2DD
  8
0
 10
1.85757
 20
2.1899
 30
0.0
 11
1.86464
 21
2.18283
 31
0.0
  0
LINE
  5
2DE
  8
0
 10
1.86464
 20
2.18283
 30
0.0
 11
0.424271
 21
0.742462
 31
0.0
  0
LINE
  5
2DF
  8
0
 10
0.424271
 20
0.742462
 30
0.0
 11
0.417206
 21
0.749527
 31
0.0
  0
LINE
  5
2E0
  8
0
 10
0.431335
 20
0.735382
 30
0.0
 11
1.8717
 21
2.17575
 31
0.0
  0
LINE
  5
2E1
  8
0
 10
1.8717
 20
2.17575
 30
0.0
 11
1.87878
 21
2.16869
 31
0.0
  0
LINE
  5
2E2
  8
0
 10
1.87878
 20
2.16869
 30
0.0
 11
0.438416
 21
0.728317
 31
0.0
  0
LINE
  5
2E3
  8
0
 10
0.438416
 20
0.728317
 30
0.0
 11
0.431335
 21
0.735382
 31
0.0
  0
LINE
  5
2E4
  8
0
 10
-1.87878
 20
2.16869
 30
0.0
 11
-1.8717
 21
2.17575
 31
0.0
  0
LINE
  5
2E5
  8
0
 10
-1.8717
 20
2.17575
 30
0.0
 11
-0.431335
 21
0.735382
 31
0.0
  0
LINE
  5
2E6
  8
0
 10
-0.431335
 20
0.735382
 30
0.0
 11
-0.438416
 21
0.728317
 31
0.0
  0
LINE
  5
2E7
  8
0
 10
-0.438416
 20
0.728317
 30
0.0
 11
-1.87878
 21
2.16869
 31
0.0
  0
LINE
  5
2E8
  8
0
 10
0.44548
 20
0.721237
 30
0.0
 11
1.88585
 21
2.16161
 31
0.0
  0
LINE
  5
2E9
  8
0
 10
1.88585
 20
2.16161
 30
0.0
 11
1.89291
 21
2.15454
 31
0.0
  0
LINE
  5
2EA
  8
0
 10
1.89291
 20
2.15454
 30
0.0
 11
0.452545
 21
0.714172
 31
0.0
  0
LINE
  5
2EB
  8
0
 10
0.452545
 20
0.714172
 30
0.0
 11
0.44548
 21
0.721237
 31
0.0
  0
LINE
  5
2EC
  8
0
 10
-1.89291
 20
2.15454
 30
0.0
 11
-1.88585
 21
2.16161
 31
0.0
  0
LINE
  5
2ED
  8
0
 10
-1.88585
 20
2.16161
 30
0.0
 11
-0.44548
 21
0.721237
 31
0.0
  0
LINE
  5
2EE
  8
0
 10
-0.44548
 20
0.721237
 30
0.0
 11
-0.452545
 21
0.714172
 31
0.0
  0
LINE
  5
2EF
  8
0
 10
-0.452545
 20
0.714172
 30
0.0
 11
-1.89291
 21
2.15454
 31
0.0
  0
LINE
  5
2F0
  8
0
 10
-1.90706
 20
2.1404
 30
0.0
 11
-1.89999
 21
2.14746
 31
0.0
  0
LINE
  5
2F1
  8
0
 10
-1.89999
 20
2.14746
 30
0.0
 11
-0.459625
 21
0.707092
 31
0.0
  0
LINE
  5
2F2
  8
0
 10
-0.459625
 20
0.707092
 30
0.0
 11
-0.46669
 21
0.700027
 31
0.0
  0
LINE
  5
2F3
  8
0
 10
-0.46669
 20
0.700027
 30
0.0
 11
-1.90706
 21
2.1404
 31
0.0
  0
LINE
  5
2F4
  8
0
 10
0.459625
 20
0.707092
 30
0.0
 11
1.89999
 21
2.14746
 31
0.0
  0
LINE
  5
2F5
  8
0
 10
1.89999
 20
2.14746
 30
0.0
 11
1.90706
 21
2.1404
 31
0.0
  0
LINE
  5
2F6
  8
0
 10
1.90706
 20
2.1404
 30
0.0
 11
0.46669
 21
0.700027
 31
0.0
  0
LINE
  5
2F7
  8
0
 10
0.46669
 20
0.700027
 30
0.0
 11
0.459625
 21
0.707092
 31
0.0
  0
LINE
  5
2F8
  8
0
 10
-1.9212
 20
2.12625
 30
0.0
 11
-1.91412
 21
2.13333
 31
0.0
  0
LINE
  5
2F9
  8
0
 10
-1.91412
 20
2.13333
 30
0.0
 11
-0.473755
 21
0.692963
 31
0.0
  0
LINE
  5
2FA
  8
0
 10
-0.473755
 20
0.692963
 30
0.0
 11
-0.480835
 21
0.685883
 31
0.0
  0
LINE
  5
2FB
  8
0
 10
-0.480835
 20
0.685883
 30
0.0
 11
-1.9212
 21
2.12625
 31
0.0
  0
LINE
  5
2FC
  8
0
 10
0.473755
 20
0.692963
 30
0.0
 11
1.91412
 21
2.13333
 31
0.0
  0
LINE
  5
2FD
  8
0
 10
1.91412
 20
2.13333
 30
0.0
 11
1.9212
 21
2.12625
 31
0.0
  0
LINE
  5
2FE
  8
0
 10
1.9212
 20
2.12625
 30
0.0
 11
0.480835
 21
0.685883
 31
0.0
  0
LINE
  5
2FF
  8
0
 10
0.480835
 20
0.685883
 30
0.0
 11
0.473755
 21
0.692963
 31
0.0
  0
LINE
  5
300
  8
0
 10
-1.93535
 20
2.11212
 30
0.0
 11
-1.92828
 21
2.11919
 31
0.0
  0
LINE
  5
301
  8
0
 10
-1.92828
 20
2.11919
 30
0.0
 11
-0.487915
 21
0.678818
 31
0.0
  0
LINE
  5
302
  8
0
 10
-0.487915
 20
0.678818
 30
0.0
 11
-0.49498
 21
0.671753
 31
0.0
  0
LINE
  5
303
  8
0
 10
-0.49498
 20
0.671753
 30
0.0
 11
-1.93535
 21
2.11212
 31
0.0
  0
LINE
  5
304
  8
0
 10
0.487915
 20
0.678818
 30
0.0
 11
1.92828
 21
2.11919
 31
0.0
  0
LINE
  5
305
  8
0
 10
1.92828
 20
2.11919
 30
0.0
 11
1.93535
 21
2.11212
 31
0.0
  0
LINE
  5
306
  8
0
 10
1.93535
 20
2.11212
 30
0.0
 11
0.49498
 21
0.671753
 31
0.0
  0
LINE
  5
307
  8
0
 10
0.49498
 20
0.671753
 30
0.0
 11
0.487915
 21
0.678818
 31
0.0
  0
LINE
  5
308
  8
0
 10
-1.94949
 20
2.09798
 30
0.0
 11
-1.94243
 21
2.10504
 31
0.0
  0
LINE
  5
309
  8
0
 10
-1.94243
 20
2.10504
 30
0.0
 11
-0.50206
 21
0.664673
 31
0.0
  0
LINE
  5
30A
  8
0
 10
-0.50206
 20
0.664673
 30
0.0
 11
-0.509125
 21
0.657608
 31
0.0
  0
LINE
  5
30B
  8
0
 10
-0.509125
 20
0.657608
 30
0.0
 11
-1.94949
 21
2.09798
 31
0.0
  0
LINE
  5
30C
  8
0
 10
0.50206
 20
0.664673
 30
0.0
 11
1.94243
 21
2.10504
 31
0.0
  0
LINE
  5
30D
  8
0
 10
1.94243
 20
2.10504
 30
0.0
 11
1.94949
 21
2.09798
 31
0.0
  0
LINE
  5
30E
  8
0
 10
1.94949
 20
2.09798
 30
0.0
 11
0.509125
 21
0.657608
 31
0.0
  0
LINE
  5
30F
  8
0
 10
0.509125
 20
0.657608
 30
0.0
 11
0.50206
 21
0.664673
 31
0.0
  0
LINE
  5
310
  8
0
 10
-1.96364
 20
2.08383
 30
0.0
 11
-1.95657
 21
2.0909
 31
0.0
  0
LINE
  5
311
  8
0
 10
-1.95657
 20
2.0909
 30
0.0
 11
-0.516205
 21
0.650528
 31
0.0
  0
LINE
  5
312
  8
0
 10
-0.516205
 20
0.650528
 30
0.0
 11
-0.52327
 21
0.643463
 31
0.0
  0
LINE
  5
313
  8
0
 10
-0.52327
 20
0.643463
 30
0.0
 11
-1.96364
 21
2.08383
 31
0.0
  0
LINE
  5
314
  8
0
 10
0.516205
 20
0.650528
 30
0.0
 11
1.95657
 21
2.0909
 31
0.0
  0
LINE
  5
315
  8
0
 10
1.95657
 20
2.0909
 30
0.0
 11
1.96364
 21
2.08383
 31
0.0
  0
LINE
  5
316
  8
0
 10
1.96364
 20
2.08383
 30
0.0
 11
0.52327
 21
0.643463
 31
0.0
  0
LINE
  5
317
  8
0
 10
0.52327
 20
0.643463
 30
0.0
 11
0.516205
 21
0.650528
 31
0.0
  0
LINE
  5
318
  8
0
 10
-1.97778
 20
2.06969
 30
0.0
 11
-1.9707
 21
2.07677
 31
0.0
  0
LINE
  5
319
  8
0
 10
-1.9707
 20
2.07677
 30
0.0
 11
-0.530334
 21
0.636398
 31
0.0
  0
LINE
  5
31A
  8
0
 10
-0.530334
 20
0.636398
 30
0.0
 11
-0.537415
 21
0.629318
 31
0.0
  0
LINE
  5
31B
  8
0
 10
-0.537415
 20
0.629318
 30
0.0
 11
-1.97778
 21
2.06969
 31
0.0
  0
LINE
  5
31C
  8
0
 10
0.530334
 20
0.636398
 30
0.0
 11
1.9707
 21
2.07677
 31
0.0
  0
LINE
  5
31D
  8
0
 10
1.9707
 20
2.07677
 30
0.0
 11
1.97778
 21
2.06969
 31
0.0
  0
LINE
  5
31E
  8
0
 10
1.97778
 20
2.06969
 30
0.0
 11
0.537415
 21
0.629318
 31
0.0
  0
LINE
  5
31F
  8
0
 10
0.537415
 20
0.629318
 30
0.0
 11
0.530334
 21
0.636398
 31
0.0
  0
LINE
  5
320
  8
0
 10
-1.99191
 20
2.05556
 30
0.0
 11
-1.98485
 21
2.06262
 31
0.0
  0
LINE
  5
321
  8
0
 10
-1.98485
 20
2.06262
 30
0.0
 11
-0.544479
 21
0.622253
 31
0.0
  0
LINE
  5
322
  8
0
 10
-0.544479
 20
0.622253
 30
0.0
 11
-0.551544
 21
0.615189
 31
0.0
  0
LINE
  5
323
  8
0
 10
-0.551544
 20
0.615189
 30
0.0
 11
-1.99191
 21
2.05556
 31
0.0
  0
LINE
  5
324
  8
0
 10
0.544479
 20
0.622253
 30
0.0
 11
1.98485
 21
2.06262
 31
0.0
  0
LINE
  5
325
  8
0
 10
1.98485
 20
2.06262
 30
0.0
 11
1.99191
 21
2.05556
 31
0.0
  0
LINE
  5
326
  8
0
 10
1.99191
 20
2.05556
 30
0.0
 11
0.551544
 21
0.615189
 31
0.0
  0
LINE
  5
327
  8
0
 10
0.551544
 20
0.615189
 30
0.0
 11
0.544479
 21
0.622253
 31
0.0
  0
LINE
  5
328
  8
0
 10
-2.00606
 20
2.04141
 30
0.0
 11
-1.99899
 21
2.04848
 31
0.0
  0
LINE
  5
329
  8
0
 10
-1.99899
 20
2.04848
 30
0.0
 11
-0.558624
 21
0.608109
 31
0.0
  0
LINE
  5
32A
  8
0
 10
-0.558624
 20
0.608109
 30
0.0
 11
-0.565689
 21
0.601044
 31
0.0
  0
LINE
  5
32B
  8
0
 10
-0.565689
 20
0.601044
 30
0.0
 11
-2.00606
 21
2.04141
 31
0.0
  0
LINE
  5
32C
  8
0
 10
0.558624
 20
0.608109
 30
0.0
 11
1.99899
 21
2.04848
 31
0.0
  0
LINE
  5
32D
  8
0
 10
1.99899
 20
2.04848
 30
0.0
 11
2.00606
 21
2.04141
 31
0.0
  0
LINE
  5
32E
  8
0
 10
2.00606
 20
2.04141
 30
0.0
 11
0.565689
 21
0.601044
 31
0.0
  0
LINE
  5
32F
  8
0
 10
0.565689
 20
0.601044
 30
0.0
 11
0.558624
 21
0.608109
 31
0.0
  0
LINE
  5
330
  8
0
 10
-2.0202
 20
2.02727
 30
0.0
 11
-2.01312
 21
2.03433
 31
0.0
  0
LINE
  5
331
  8
0
 10
-2.01312
 20
2.03433
 30
0.0
 11
-0.572754
 21
0.593964
 31
0.0
  0
LINE
  5
332
  8
0
 10
-0.572754
 20
0.593964
 30
0.0
 11
-0.579834
 21
0.586899
 31
0.0
  0
LINE
  5
333
  8
0
 10
-0.579834
 20
0.586899
 30
0.0
 11
-2.0202
 21
2.02727
 31
0.0
  0
LINE
  5
334
  8
0
 10
0.572754
 20
0.593964
 30
0.0
 11
2.01312
 21
2.03433
 31
0.0
  0
LINE
  5
335
  8
0
 10
2.01312
 20
2.03433
 30
0.0
 11
2.0202
 21
2.02727
 31
0.0
  0
LINE
  5
336
  8
0
 10
2.0202
 20
2.02727
 30
0.0
 11
0.579834
 21
0.586899
 31
0.0
  0
LINE
  5
337
  8
0
 10
0.579834
 20
0.586899
 30
0.0
 11
0.572754
 21
0.593964
 31
0.0
  0
LINE
  5
338
  8
0
 10
-2.03433
 20
2.01312
 30
0.0
 11
-2.02727
 21
2.0202
 31
0.0
  0
LINE
  5
339
  8
0
 10
-2.02727
 20
2.0202
 30
0.0
 11
-0.586899
 21
0.579834
 31
0.0
  0
LINE
  5
33A
  8
0
 10
-0.586899
 20
0.579834
 30
0.0
 11
-0.593964
 21
0.572754
 31
0.0
  0
LINE
  5
33B
  8
0
 10
-0.593964
 20
0.572754
 30
0.0
 11
-2.03433
 21
2.01312
 31
0.0
  0
LINE
  5
33C
  8
0
 10
0.586899
 20
0.579834
 30
0.0
 11
2.02727
 21
2.0202
 31
0.0
  0
LINE
  5
33D
  8
0
 10
2.02727
 20
2.0202
 30
0.0
 11
2.03433
 21
2.01312
 31
0.0
  0
LINE
  5
33E
  8
0
 10
2.03433
 20
2.01312
 30
0.0
 11
0.593964
 21
0.572754
 31
0.0
  0
LINE
  5
33F
  8
0
 10
0.593964
 20
0.572754
 30
0.0
 11
0.586899
 21
0.579834
 31
0.0
  0
LINE
  5
340
  8
0
 10
-2.04848
 20
1.99899
 30
0.0
 11
-2.04141
 21
2.00606
 31
0.0
  0
LINE
  5
341
  8
0
 10
-2.04141
 20
2.00606
 30
0.0
 11
-0.601044
 21
0.565689
 31
0.0
  0
LINE
  5
342
  8
0
 10
-0.601044
 20
0.565689
 30
0.0
 11
-0.608109
 21
0.558624
 31
0.0
  0
LINE
  5
343
  8
0
 10
-0.608109
 20
0.558624
 30
0.0
 11
-2.04848
 21
1.99899
 31
0.0
  0
LINE
  5
344
  8
0
 10
0.601044
 20
0.565689
 30
0.0
 11
2.04141
 21
2.00606
 31
0.0
  0
LINE
  5
345
  8
0
 10
2.04141
 20
2.00606
 30
0.0
 11
2.04848
 21
1.99899
 31
0.0
  0
LINE
  5
346
  8
0
 10
2.04848
 20
1.99899
 30
0.0
 11
0.608109
 21
0.558624
 31
0.0
  0
LINE
  5
347
  8
0
 10
0.608109
 20
0.558624
 30
0.0
 11
0.601044
 21
0.565689
 31
0.0
  0
LINE
  5
348
  8
0
 10
-2.06262
 20
1.98485
 30
0.0
 11
-2.05556
 21
1.99191
 31
0.0
  0
LINE
  5
349
  8
0
 10
-2.05556
 20
1.99191
 30
0.0
 11
-0.615189
 21
0.551544
 31
0.0
  0
LINE
  5
34A
  8
0
 10
-0.615189
 20
0.551544
 30
0.0
 11
-0.622253
 21
0.544479
 31
0.0
  0
LINE
  5
34B
  8
0
 10
-0.622253
 20
0.544479
 30
0.0
 11
-2.06262
 21
1.98485
 31
0.0
  0
LINE
  5
34C
  8
0
 10
0.615189
 20
0.551544
 30
0.0
 11
2.05556
 21
1.99191
 31
0.0
  0
LINE
  5
34D
  8
0
 10
2.05556
 20
1.99191
 30
0.0
 11
2.06262
 21
1.98485
 31
0.0
  0
LINE
  5
34E
  8
0
 10
2.06262
 20
1.98485
 30
0.0
 11
0.622253
 21
0.544479
 31
0.0
  0
LINE
  5
34F
  8
0
 10
0.622253
 20
0.544479
 30
0.0
 11
0.615189
 21
0.551544
 31
0.0
  0
LINE
  5
350
  8
0
 10
-2.07677
 20
1.9707
 30
0.0
 11
-2.06969
 21
1.97778
 31
0.0
  0
LINE
  5
351
  8
0
 10
-2.06969
 20
1.97778
 30
0.0
 11
-0.629318
 21
0.537415
 31
0.0
  0
LINE
  5
352
  8
0
 10
-0.629318
 20
0.537415
 30
0.0
 11
-0.636398
 21
0.530334
 31
0.0
  0
LINE
  5
353
  8
0
 10
-0.636398
 20
0.530334
 30
0.0
 11
-2.07677
 21
1.9707
 31
0.0
  0
LINE
  5
354
  8
0
 10
0.629318
 20
0.537415
 30
0.0
 11
2.06969
 21
1.97778
 31
0.0
  0
LINE
  5
355
  8
0
 10
2.06969
 20
1.97778
 30
0.0
 11
2.07677
 21
1.9707
 31
0.0
  0
LINE
  5
356
  8
0
 10
2.07677
 20
1.9707
 30
0.0
 11
0.636398
 21
0.530334
 31
0.0
  0
LINE
  5
357
  8
0
 10
0.636398
 20
0.530334
 30
0.0
 11
0.629318
 21
0.537415
 31
0.0
  0
LINE
  5
358
  8
0
 10
-2.0909
 20
1.95657
 30
0.0
 11
-2.08383
 21
1.96364
 31
0.0
  0
LINE
  5
359
  8
0
 10
-2.08383
 20
1.96364
 30
0.0
 11
-0.643463
 21
0.52327
 31
0.0
  0
LINE
  5
35A
  8
0
 10
-0.643463
 20
0.52327
 30
0.0
 11
-0.650528
 21
0.516205
 31
0.0
  0
LINE
  5
35B
  8
0
 10
-0.650528
 20
0.516205
 30
0.0
 11
-2.0909
 21
1.95657
 31
0.0
  0
LINE
  5
35C
  8
0
 10
0.643463
 20
0.52327
 30
0.0
 11
2.08383
 21
1.96364
 31
0.0
  0
LINE
  5
35D
  8
0
 10
2.08383
 20
1.96364
 30
0.0
 11
2.0909
 21
1.95657
 31
0.0
  0
LINE
  5
35E
  8
0
 10
2.0909
 20
1.95657
 30
0.0
 11
0.650528
 21
0.516205
 31
0.0
  0
LINE
  5
35F
  8
0
 10
0.650528
 20
0.516205
 30
0.0
 11
0.643463
 21
0.52327
 31
0.0
  0
LINE
  5
360
  8
0
 10
-2.10504
 20
1.94243
 30
0.0
 11
-2.09798
 21
1.94949
 31
0.0
  0
LINE
  5
361
  8
0
 10
-2.09798
 20
1.94949
 30
0.0
 11
-0.657608
 21
0.509125
 31
0.0
  0
LINE
  5
362
  8
0
 10
-0.657608
 20
0.509125
 30
0.0
 11
-0.664673
 21
0.50206
 31
0.0
  0
LINE
  5
363
  8
0
 10
-0.664673
 20
0.50206
 30
0.0
 11
-2.10504
 21
1.94243
 31
0.0
  0
LINE
  5
364
  8
0
 10
0.657608
 20
0.509125
 30
0.0
 11
2.09798
 21
1.94949
 31
0.0
  0
LINE
  5
365
  8
0
 10
2.09798
 20
1.94949
 30
0.0
 11
2.10504
 21
1.94243
 31
0.0
  0
LINE
  5
366
  8
0
 10
2.10504
 20
1.94243
 30
0.0
 11
0.664673
 21
0.50206
 31
0.0
  0
LINE
  5
367
  8
0
 10
0.664673
 20
0.50206
 30
0.0
 11
0.657608
 21
0.509125
 31
0.0
  0
LINE
  5
368
  8
0
 10
-2.11919
 20
1.92828
 30
0.0
 11
-2.11212
 21
1.93535
 31
0.0
  0
LINE
  5
369
  8
0
 10
-2.11212
 20
1.93535
 30
0.0
 11
-0.671753
 21
0.49498
 31
0.0
  0
LINE
  5
36A
  8
0
 10
-0.671753
 20
0.49498
 30
0.0
 11
-0.678818
 21
0.487915
 31
0.0
  0
LINE
  5
36B
  8
0
 10
-0.678818
 20
0.487915
 30
0.0
 11
-2.11919
 21
1.92828
 31
0.0
  0
LINE
  5
36C
  8
0
 10
0.671753
 20
0.49498
 30
0.0
 11
2.11212
 21
1.93535
 31
0.0
  0
LINE
  5
36D
  8
0
 10
2.11212
 20
1.93535
 30
0.0
 11
2.11919
 21
1.92828
 31
0.0
  0
LINE
  5
36E
  8
0
 10
2.11919
 20
1.92828
 30
0.0
 11
0.678818
 21
0.487915
 31
0.0
  0
LINE
  5
36F
  8
0
 10
0.678818
 20
0.487915
 30
0.0
 11
0.671753
 21
0.49498
 31
0.0
  0
LINE
  5
370
  8
0
 10
0.685883
 20
0.480835
 30
0.0
 11
2.12625
 21
1.9212
 31
0.0
  0
LINE
  5
371
  8
0
 10
2.12625
 20
1.9212
 30
0.0
 11
2.13333
 21
1.91412
 31
0.0
  0
LINE
  5
372
  8
0
 10
2.13333
 20
1.91412
 30
0.0
 11
0.692963
 21
0.473755
 31
0.0
  0
LINE
  5
373
  8
0
 10
0.692963
 20
0.473755
 30
0.0
 11
0.685883
 21
0.480835
 31
0.0
  0
LINE
  5
374
  8
0
 10
-2.13333
 20
1.91412
 30
0.0
 11
-2.12625
 21
1.9212
 31
0.0
  0
LINE
  5
375
  8
0
 10
-2.12625
 20
1.9212
 30
0.0
 11
-0.685883
 21
0.480835
 31
0.0
  0
LINE
  5
376
  8
0
 10
-0.685883
 20
0.480835
 30
0.0
 11
-0.692963
 21
0.473755
 31
0.0
  0
LINE
  5
377
  8
0
 10
-0.692963
 20
0.473755
 30
0.0
 11
-2.13333
 21
1.91412
 31
0.0
  0
LINE
  5
378
  8
0
 10
0.700027
 20
0.46669
 30
0.0
 11
2.1404
 21
1.90706
 31
0.0
  0
LINE
  5
379
  8
0
 10
2.1404
 20
1.90706
 30
0.0
 11
2.14746
 21
1.89999
 31
0.0
  0
LINE
  5
37A
  8
0
 10
2.14746
 20
1.89999
 30
0.0
 11
0.707092
 21
0.459625
 31
0.0
  0
LINE
  5
37B
  8
0
 10
0.707092
 20
0.459625
 30
0.0
 11
0.700027
 21
0.46669
 31
0.0
  0
LINE
  5
37C
  8
0
 10
-2.14746
 20
1.89999
 30
0.0
 11
-2.1404
 21
1.90706
 31
0.0
  0
LINE
  5
37D
  8
0
 10
-2.1404
 20
1.90706
 30
0.0
 11
-0.700027
 21
0.46669
 31
0.0
  0
LINE
  5
37E
  8
0
 10
-0.700027
 20
0.46669
 30
0.0
 11
-0.707092
 21
0.459625
 31
0.0
  0
LINE
  5
37F
  8
0
 10
-0.707092
 20
0.459625
 30
0.0
 11
-2.14746
 21
1.89999
 31
0.0
  0
LINE
  5
380
  8
0
 10
-2.16161
 20
1.88585
 30
0.0
 11
-2.15454
 21
1.89291
 31
0.0
  0
LINE
  5
381
  8
0
 10
-2.15454
 20
1.89291
 30
0.0
 11
-0.714172
 21
0.452545
 31
0.0
  0
LINE
  5
382
  8
0
 10
-0.714172
 20
0.452545
 30
0.0
 11
-0.721237
 21
0.44548
 31
0.0
  0
LINE
  5
383
  8
0
 10
-0.721237
 20
0.44548
 30
0.0
 11
-2.16161
 21
1.88585
 31
0.0
  0
LINE
  5
384
  8
0
 10
0.714172
 20
0.452545
 30
0.0
 11
2.15454
 21
1.89291
 31
0.0
  0
LINE
  5
385
  8
0
 10
2.15454
 20
1.89291
 30
0.0
 11
2.16161
 21
1.88585
 31
0.0
  0
LINE
  5
386
  8
0
 10
2.16161
 20
1.88585
 30
0.0
 11
0.721237
 21
0.44548
 31
0.0
  0
LINE
  5
387
  8
0
 10
0.721237
 20
0.44548
 30
0.0
 11
0.714172
 21
0.452545
 31
0.0
  0
LINE
  5
388
  8
0
 10
-2.17575
 20
1.8717
 30
0.0
 11
-2.16869
 21
1.87878
 31
0.0
  0
LINE
  5
389
  8
0
 10
-2.16869
 20
1.87878
 30
0.0
 11
-0.728317
 21
0.438416
 31
0.0
  0
LINE
  5
38A
  8
0
 10
-0.728317
 20
0.438416
 30
0.0
 11
-0.735382
 21
0.431335
 31
0.0
  0
LINE
  5
38B
  8
0
 10
-0.735382
 20
0.431335
 30
0.0
 11
-2.17575
 21
1.8717
 31
0.0
  0
LINE
  5
38C
  8
0
 10
0.728317
 20
0.438416
 30
0.0
 11
2.16869
 21
1.87878
 31
0.0
  0
LINE
  5
38D
  8
0
 10
2.16869
 20
1.87878
 30
0.0
 11
2.17575
 21
1.8717
 31
0.0
  0
LINE
  5
38E
  8
0
 10
2.17575
 20
1.8717
 30
0.0
 11
0.735382
 21
0.431335
 31
0.0
  0
LINE
  5
38F
  8
0
 10
0.735382
 20
0.431335
 30
0.0
 11
0.728317
 21
0.438416
 31
0.0
  0
LINE
  5
390
  8
0
 10
-2.1899
 20
1.85757
 30
0.0
 11
-2.18283
 21
1.86464
 31
0.0
  0
LINE
  5
391
  8
0
 10
-2.18283
 20
1.86464
 30
0.0
 11
-0.742462
 21
0.424271
 31
0.0
  0
LINE
  5
392
  8
0
 10
-0.742462
 20
0.424271
 30
0.0
 11
-0.749527
 21
0.417206
 31
0.0
  0
LINE
  5
393
  8
0
 10
-0.749527
 20
0.417206
 30
0.0
 11
-2.1899
 21
1.85757
 31
0.0
  0
LINE
  5
394
  8
0
 10
0.742462
 20
0.424271
 30
0.0
 11
2.18283
 21
1.86464
 31
0.0
  0
LINE
  5
395
  8
0
 10
2.18283
 20
1.86464
 30
0.0
 11
2.1899
 21
1.85757
 31
0.0
  0
LINE
  5
396
  8
0
 10
2.1899
 20
1.85757
 30
0.0
 11
0.749527
 21
0.417206
 31
0.0
  0
LINE
  5
397
  8
0
 10
0.749527
 20
0.417206
 30
0.0
 11
0.742462
 21
0.424271
 31
0.0
  0
LINE
  5
398
  8
0
 10
-2.20404
 20
1.84343
 30
0.0
 11
-2.19698
 21
1.85049
 31
0.0
  0
LINE
  5
399
  8
0
 10
-2.19698
 20
1.85049
 30
0.0
 11
-0.756607
 21
0.410126
 31
0.0
  0
LINE
  5
39A
  8
0
 10
-0.756607
 20
0.410126
 30
0.0
 11
-0.763672
 21
0.403061
 31
0.0
  0
LINE
  5
39B
  8
0
 10
-0.763672
 20
0.403061
 30
0.0
 11
-2.20404
 21
1.84343
 31
0.0
  0
LINE
  5
39C
  8
0
 10
0.756607
 20
0.410126
 30
0.0
 11
2.19698
 21
1.85049
 31
0.0
  0
LINE
  5
39D
  8
0
 10
2.19698
 20
1.85049
 30
0.0
 11
2.20404
 21
1.84343
 31
0.0
  0
LINE
  5
39E
  8
0
 10
2.20404
 20
1.84343
 30
0.0
 11
0.763672
 21
0.403061
 31
0.0
  0
LINE
  5
39F
  8
0
 10
0.763672
 20
0.403061
 30
0.0
 11
0.756607
 21
0.410126
 31
0.0
  0
LINE
  5
3A0
  8
0
 10
-2.21819
 20
1.82928
 30
0.0
 11
-2.21112
 21
1.83635
 31
0.0
  0
LINE
  5
3A1
  8
0
 10
-2.21112
 20
1.83635
 30
0.0
 11
-0.770752
 21
0.395981
 31
0.0
  0
LINE
  5
3A2
  8
0
 10
-0.770752
 20
0.395981
 30
0.0
 11
-0.777817
 21
0.388916
 31
0.0
  0
LINE
  5
3A3
  8
0
 10
-0.777817
 20
0.388916
 30
0.0
 11
-2.21819
 21
1.82928
 31
0.0
  0
LINE
  5
3A4
  8
0
 10
0.770752
 20
0.395981
 30
0.0
 11
2.21112
 21
1.83635
 31
0.0
  0
LINE
  5
3A5
  8
0
 10
2.21112
 20
1.83635
 30
0.0
 11
2.21819
 21
1.82928
 31
0.0
  0
LINE
  5
3A6
  8
0
 10
2.21819
 20
1.82928
 30
0.0
 11
0.777817
 21
0.388916
 31
0.0
  0
LINE
  5
3A7
  8
0
 10
0.777817
 20
0.388916
 30
0.0
 11
0.770752
 21
0.395981
 31
0.0
  0
LINE
  5
3A8
  8
0
 10
-2.23233
 20
1.81514
 30
0.0
 11
-2.22525
 21
1.82222
 31
0.0
  0
LINE
  5
3A9
  8
0
 10
-2.22525
 20
1.82222
 30
0.0
 11
-0.784882
 21
0.381851
 31
0.0
  0
LINE
  5
3AA
  8
0
 10
-0.784882
 20
0.381851
 30
0.0
 11
-0.791962
 21
0.374771
 31
0.0
  0
LINE
  5
3AB
  8
0
 10
-0.791962
 20
0.374771
 30
0.0
 11
-2.23233
 21
1.81514
 31
0.0
  0
LINE
  5
3AC
  8
0
 10
0.784882
 20
0.381851
 30
0.0
 11
2.22525
 21
1.82222
 31
0.0
  0
LINE
  5
3AD
  8
0
 10
2.22525
 20
1.82222
 30
0.0
 11
2.23233
 21
1.81514
 31
0.0
  0
LINE
  5
3AE
  8
0
 10
2.23233
 20
1.81514
 30
0.0
 11
0.791962
 21
0.374771
 31
0.0
  0
LINE
  5
3AF
  8
0
 10
0.791962
 20
0.374771
 30
0.0
 11
0.784882
 21
0.381851
 31
0.0
  0
LINE
  5
3B0
  8
0
 10
-2.24646
 20
1.80099
 30
0.0
 11
-2.2394
 21
1.80807
 31
0.0
  0
LINE
  5
3B1
  8
0
 10
-2.2394
 20
1.80807
 30
0.0
 11
-0.799026
 21
0.367706
 31
0.0
  0
LINE
  5
3B2
  8
0
 10
-0.799026
 20
0.367706
 30
0.0
 11
-0.806091
 21
0.360626
 31
0.0
  0
LINE
  5
3B3
  8
0
 10
-0.806091
 20
0.360626
 30
0.0
 11
-2.24646
 21
1.80099
 31
0.0
  0
LINE
  5
3B4
  8
0
 10
0.799026
 20
0.367706
 30
0.0
 11
2.2394
 21
1.80807
 31
0.0
  0
LINE
  5
3B5
  8
0
 10
2.2394
 20
1.80807
 30
0.0
 11
2.24646
 21
1.80099
 31
0.0
  0
LINE
  5
3B6
  8
0
 10
2.24646
 20
1.80099
 30
0.0
 11
0.806091
 21
0.360626
 31
0.0
  0
LINE
  5
3B7
  8
0
 10
0.806091
 20
0.360626
 30
0.0
 11
0.799026
 21
0.367706
 31
0.0
  0
LINE
  5
3B8
  8
0
 10
-2.2606
 20
1.78685
 30
0.0
 11
-2.25354
 21
1.79393
 31
0.0
  0
LINE
  5
3B9
  8
0
 10
-2.25354
 20
1.79393
 30
0.0
 11
-0.813171
 21
0.353561
 31
0.0
  0
LINE
  5
3BA
  8
0
 10
-0.813171
 20
0.353561
 30
0.0
 11
-0.820236
 21
0.346481
 31
0.0
  0
LINE
  5
3BB
  8
0
 10
-0.820236
 20
0.346481
 30
0.0
 11
-2.2606
 21
1.78685
 31
0.0
  0
LINE
  5
3BC
  8
0
 10
0.813171
 20
0.353561
 30
0.0
 11
2.25354
 21
1.79393
 31
0.0
  0
LINE
  5
3BD
  8
0
 10
2.25354
 20
1.79393
 30
0.0
 11
2.2606
 21
1.78685
 31
0.0
  0
LINE
  5
3BE
  8
0
 10
2.2606
 20
1.78685
 30
0.0
 11
0.820236
 21
0.346481
 31
0.0
  0
LINE
  5
3BF
  8
0
 10
0.820236
 20
0.346481
 30
0.0
 11
0.813171
 21
0.353561
 31
0.0
  0
LINE
  5
3C0
  8
0
 10
-2.27475
 20
1.77271
 30
0.0
 11
-2.26767
 21
1.77979
 31
0.0
  0
LINE
  5
3C1
  8
0
 10
-2.26767
 20
1.77979
 30
0.0
 11
-0.827301
 21
0.339417
 31
0.0
  0
LINE
  5
3C2
  8
0
 10
-0.827301
 20
0.339417
 30
0.0
 11
-0.834381
 21
0.332336
 31
0.0
  0
LINE
  5
3C3
  8
0
 10
-0.834381
 20
0.332336
 30
0.0
 11
-2.27475
 21
1.77271
 31
0.0
  0
LINE
  5
3C4
  8
0
 10
0.827301
 20
0.339417
 30
0.0
 11
2.26767
 21
1.77979
 31
0.0
  0
LINE
  5
3C5
  8
0
 10
2.26767
 20
1.77979
 30
0.0
 11
2.27475
 21
1.77271
 31
0.0
  0
LINE
  5
3C6
  8
0
 10
2.27475
 20
1.77271
 30
0.0
 11
0.834381
 21
0.332336
 31
0.0
  0
LINE
  5
3C7
  8
0
 10
0.834381
 20
0.332336
 30
0.0
 11
0.827301
 21
0.339417
 31
0.0
  0
LINE
  5
3C8
  8
0
 10
-2.28889
 20
1.75856
 30
0.0
 11
-2.28181
 21
1.76564
 31
0.0
  0
LINE
  5
3C9
  8
0
 10
-2.28181
 20
1.76564
 30
0.0
 11
-0.841446
 21
0.325272
 31
0.0
  0
LINE
  5
3CA
  8
0
 10
-0.841446
 20
0.325272
 30
0.0
 11
-0.848526
 21
0.318192
 31
0.0
  0
LINE
  5
3CB
  8
0
 10
-0.848526
 20
0.318192
 30
0.0
 11
-2.28889
 21
1.75856
 31
0.0
  0
LINE
  5
3CC
  8
0
 10
0.841446
 20
0.325272
 30
0.0
 11
2.28181
 21
1.76564
 31
0.0
  0
LINE
  5
3CD
  8
0
 10
2.28181
 20
1.76564
 30
0.0
 11
2.28889
 21
1.75856
 31
0.0
  0
LINE
  5
3CE
  8
0
 10
2.28889
 20
1.75856
 30
0.0
 11
0.848526
 21
0.318192
 31
0.0
  0
LINE
  5
3CF
  8
0
 10
0.848526
 20
0.318192
 30
0.0
 11
0.841446
 21
0.325272
 31
0.0
  0
LINE
  5
3D0
  8
0
 10
0.855591
 20
0.311127
 30
0.0
 11
2.29596
 21
1.7515
 31
0.0
  0
LINE
  5
3D1
  8
0
 10
2.29596
 20
1.7515
 30
0.0
 11
2.30302
 21
1.74443
 31
0.0
  0
LINE
  5
3D2
  8
0
 10
2.30302
 20
1.74443
 30
0.0
 11
0.862656
 21
0.304062
 31
0.0
  0
LINE
  5
3D3
  8
0
 10
0.862656
 20
0.304062
 30
0.0
 11
0.855591
 21
0.311127
 31
0.0
  0
LINE
  5
3D4
  8
0
 10
-2.30302
 20
1.74443
 30
0.0
 11
-2.29596
 21
1.7515
 31
0.0
  0
LINE
  5
3D5
  8
0
 10
-2.29596
 20
1.7515
 30
0.0
 11
-0.855591
 21
0.311127
 31
0.0
  0
LINE
  5
3D6
  8
0
 10
-0.855591
 20
0.311127
 30
0.0
 11
-0.862656
 21
0.304062
 31
0.0
  0
LINE
  5
3D7
  8
0
 10
-0.862656
 20
0.304062
 30
0.0
 11
-2.30302
 21
1.74443
 31
0.0
  0
LINE
  5
3D8
  8
0
 10
0.869736
 20
0.296982
 30
0.0
 11
2.3101
 21
1.73735
 31
0.0
  0
LINE
  5
3D9
  8
0
 10
2.3101
 20
1.73735
 30
0.0
 11
2.31717
 21
1.73029
 31
0.0
  0
LINE
  5
3DA
  8
0
 10
2.31717
 20
1.73029
 30
0.0
 11
0.876801
 21
0.289917
 31
0.0
  0
LINE
  5
3DB
  8
0
 10
0.876801
 20
0.289917
 30
0.0
 11
0.869736
 21
0.296982
 31
0.0
  0
LINE
  5
3DC
  8
0
 10
-2.31717
 20
1.73029
 30
0.0
 11
-2.3101
 21
1.73735
 31
0.0
  0
LINE
  5
3DD
  8
0
 10
-2.3101
 20
1.73735
 30
0.0
 11
-0.869736
 21
0.296982
 31
0.0
  0
LINE
  5
3DE
  8
0
 10
-0.869736
 20
0.296982
 30
0.0
 11
-0.876801
 21
0.289917
 31
0.0
  0
LINE
  5
3DF
  8
0
 10
-0.876801
 20
0.289917
 30
0.0
 11
-2.31717
 21
1.73029
 31
0.0
  0
LINE
  5
3E0
  8
0
 10
-2.33131
 20
1.71614
 30
0.0
 11
-2.32425
 21
1.72322
 31
0.0
  0
LINE
  5
3E1
  8
0
 10
-2.32425
 20
1.72322
 30
0.0
 11
-0.883881
 21
0.282852
 31
0.0
  0
LINE
  5
3E2
  8
0
 10
-0.883881
 20
0.282852
 30
0.0
 11
-0.890945
 21
0.275772
 31
0.0
  0
LINE
  5
3E3
  8
0
 10
-0.890945
 20
0.275772
 30
0.0
 11
-2.33131
 21
1.71614
 31
0.0
  0
LINE
  5
3E4
  8
0
 10
0.883881
 20
0.282852
 30
0.0
 11
2.32425
 21
1.72322
 31
0.0
  0
LINE
  5
3E5
  8
0
 10
2.32425
 20
1.72322
 30
0.0
 11
2.33131
 21
1.71614
 31
0.0
  0
LINE
  5
3E6
  8
0
 10
2.33131
 20
1.71614
 30
0.0
 11
0.890945
 21
0.275772
 31
0.0
  0
LINE
  5
3E7
  8
0
 10
0.890945
 20
0.275772
 30
0.0
 11
0.883881
 21
0.282852
 31
0.0
  0
LINE
  5
3E8
  8
0
 10
-2.34546
 20
1.70201
 30
0.0
 11
-2.33839
 21
1.70908
 31
0.0
  0
LINE
  5
3E9
  8
0
 10
-2.33839
 20
1.70908
 30
0.0
 11
-0.898026
 21
0.268707
 31
0.0
  0
LINE
  5
3EA
  8
0
 10
-0.898026
 20
0.268707
 30
0.0
 11
-0.90509
 21
0.261642
 31
0.0
  0
LINE
  5
3EB
  8
0
 10
-0.90509
 20
0.261642
 30
0.0
 11
-2.34546
 21
1.70201
 31
0.0
  0
LINE
  5
3EC
  8
0
 10
0.898026
 20
0.268707
 30
0.0
 11
2.33839
 21
1.70908
 31
0.0
  0
LINE
  5
3ED
  8
0
 10
2.33839
 20
1.70908
 30
0.0
 11
2.34546
 21
1.70201
 31
0.0
  0
LINE
  5
3EE
  8
0
 10
2.34546
 20
1.70201
 30
0.0
 11
0.90509
 21
0.261642
 31
0.0
  0
LINE
  5
3EF
  8
0
 10
0.90509
 20
0.261642
 30
0.0
 11
0.898026
 21
0.268707
 31
0.0
  0
LINE
  5
3F0
  8
0
 10
-2.3596
 20
1.68787
 30
0.0
 11
-2.35254
 21
1.69493
 31
0.0
  0
LINE
  5
3F1
  8
0
 10
-2.35254
 20
1.69493
 30
0.0
 11
-0.91217
 21
0.254562
 31
0.0
  0
LINE
  5
3F2
  8
0
 10
-0.91217
 20
0.254562
 30
0.0
 11
-0.919235
 21
0.247498
 31
0.0
  0
LINE
  5
3F3
  8
0
 10
-0.919235
 20
0.247498
 30
0.0
 11
-2.3596
 21
1.68787
 31
0.0
  0
LINE
  5
3F4
  8
0
 10
0.91217
 20
0.254562
 30
0.0
 11
2.35254
 21
1.69493
 31
0.0
  0
LINE
  5
3F5
  8
0
 10
2.35254
 20
1.69493
 30
0.0
 11
2.3596
 21
1.68787
 31
0.0
  0
LINE
  5
3F6
  8
0
 10
2.3596
 20
1.68787
 30
0.0
 11
0.919235
 21
0.247498
 31
0.0
  0
LINE
  5
3F7
  8
0
 10
0.919235
 20
0.247498
 30
0.0
 11
0.91217
 21
0.254562
 31
0.0
  0
LINE
  5
3F8
  8
0
 10
-2.37375
 20
1.67372
 30
0.0
 11
-2.36667
 21
1.6808
 31
0.0
  0
LINE
  5
3F9
  8
0
 10
-2.36667
 20
1.6808
 30
0.0
 11
-0.9263
 21
0.240433
 31
0.0
  0
LINE
  5
3FA
  8
0
 10
-0.9263
 20
0.240433
 30
0.0
 11
-0.93338
 21
0.233353
 31
0.0
  0
LINE
  5
3FB
  8
0
 10
-0.93338
 20
0.233353
 30
0.0
 11
-2.37375
 21
1.67372
 31
0.0
  0
LINE
  5
3FC
  8
0
 10
0.9263
 20
0.240433
 30
0.0
 11
2.36667
 21
1.6808
 31
0.0
  0
LINE
  5
3FD
  8
0
 10
2.36667
 20
1.6808
 30
0.0
 11
2.37375
 21
1.67372
 31
0.0
  0
LINE
  5
3FE
  8
0
 10
2.37375
 20
1.67372
 30
0.0
 11
0.93338
 21
0.233353
 31
0.0
  0
LINE
  5
3FF
  8
0
 10
0.93338
 20
0.233353
 30
0.0
 11
0.9263
 21
0.240433
 31
0.0
  0
LINE
  5
400
  8
0
 10
-2.38789
 20
1.65958
 30
0.0
 11
-2.38081
 21
1.66666
 31
0.0
  0
LINE
  5
401
  8
0
 10
-2.38081
 20
1.66666
 30
0.0
 11
-0.940445
 21
0.226288
 31
0.0
  0
LINE
  5
402
  8
0
 10
-0.940445
 20
0.226288
 30
0.0
 11
-0.947525
 21
0.219208
 31
0.0
  0
LINE
  5
403
  8
0
 10
-0.947525
 20
0.219208
 30
0.0
 11
-2.38789
 21
1.65958
 31
0.0
  0
LINE
  5
404
  8
0
 10
0.940445
 20
0.226288
 30
0.0
 11
2.38081
 21
1.66666
 31
0.0
  0
LINE
  5
405
  8
0
 10
2.38081
 20
1.66666
 30
0.0
 11
2.38789
 21
1.65958
 31
0.0
  0
LINE
  5
406
  8
0
 10
2.38789
 20
1.65958
 30
0.0
 11
0.947525
 21
0.219208
 31
0.0
  0
LINE
  5
407
  8
0
 10
0.947525
 20
0.219208
 30
0.0
 11
0.940445
 21
0.226288
 31
0.0
  0
LINE
  5
408
  8
0
 10
-2.40202
 20
1.64543
 30
0.0
 11
-2.39496
 21
1.65251
 31
0.0
  0
LINE
  5
409
  8
0
 10
-2.39496
 20
1.65251
 30
0.0
 11
-0.95459
 21
0.212143
 31
0.0
  0
LINE
  5
40A
  8
0
 10
-0.95459
 20
0.212143
 30
0.0
 11
-0.961655
 21
0.205063
 31
0.0
  0
LINE
  5
40B
  8
0
 10
-0.961655
 20
0.205063
 30
0.0
 11
-2.40202
 21
1.64543
 31
0.0
  0
LINE
  5
40C
  8
0
 10
0.95459
 20
0.212143
 30
0.0
 11
2.39496
 21
1.65251
 31
0.0
  0
LINE
  5
40D
  8
0
 10
2.39496
 20
1.65251
 30
0.0
 11
2.40202
 21
1.64543
 31
0.0
  0
LINE
  5
40E
  8
0
 10
2.40202
 20
1.64543
 30
0.0
 11
0.961655
 21
0.205063
 31
0.0
  0
LINE
  5
40F
  8
0
 10
0.961655
 20
0.205063
 30
0.0
 11
0.95459
 21
0.212143
 31
0.0
  0
LINE
  5
410
  8
0
 10
-2.41617
 20
1.63129
 30
0.0
 11
-2.4091
 21
1.63837
 31
0.0
  0
LINE
  5
411
  8
0
 10
-2.4091
 20
1.63837
 30
0.0
 11
-0.968735
 21
0.197998
 31
0.0
  0
LINE
  5
412
  8
0
 10
-0.968735
 20
0.197998
 30
0.0
 11
-0.9758
 21
0.190918
 31
0.0
  0
LINE
  5
413
  8
0
 10
-0.9758
 20
0.190918
 30
0.0
 11
-2.41617
 21
1.63129
 31
0.0
  0
LINE
  5
414
  8
0
 10
0.968735
 20
0.197998
 30
0.0
 11
2.4091
 21
1.63837
 31
0.0
  0
LINE
  5
415
  8
0
 10
2.4091
 20
1.63837
 30
0.0
 11
2.41617
 21
1.63129
 31
0.0
  0
LINE
  5
416
  8
0
 10
2.41617
 20
1.63129
 30
0.0
 11
0.9758
 21
0.190918
 31
0.0
  0
LINE
  5
417
  8
0
 10
0.9758
 20
0.190918
 30
0.0
 11
0.968735
 21
0.197998
 31
0.0
  0
LINE
  5
418
  8
0
 10
-2.43031
 20
1.61714
 30
0.0
 11
-2.42323
 21
1.62422
 31
0.0
  0
LINE
  5
419
  8
0
 10
-2.42323
 20
1.62422
 30
0.0
 11
-0.982864
 21
0.183853
 31
0.0
  0
LINE
  5
41A
  8
0
 10
-0.982864
 20
0.183853
 30
0.0
 11
-0.989944
 21
0.176773
 31
0.0
  0
LINE
  5
41B
  8
0
 10
-0.989944
 20
0.176773
 30
0.0
 11
-2.43031
 21
1.61714
 31
0.0
  0
LINE
  5
41C
  8
0
 10
0.982864
 20
0.183853
 30
0.0
 11
2.42323
 21
1.62422
 31
0.0
  0
LINE
  5
41D
  8
0
 10
2.42323
 20
1.62422
 30
0.0
 11
2.43031
 21
1.61714
 31
0.0
  0
LINE
  5
41E
  8
0
 10
2.43031
 20
1.61714
 30
0.0
 11
0.989944
 21
0.176773
 31
0.0
  0
LINE
  5
41F
  8
0
 10
0.989944
 20
0.176773
 30
0.0
 11
0.982864
 21
0.183853
 31
0.0
  0
LINE
  5
420
  8
0
 10
0.997009
 20
0.169708
 30
0.0
 11
2.43738
 21
1.61008
 31
0.0
  0
LINE
  5
421
  8
0
 10
2.43738
 20
1.61008
 30
0.0
 11
2.44444
 21
1.60301
 31
0.0
  0
LINE
  5
422
  8
0
 10
2.44444
 20
1.60301
 30
0.0
 11
1.00407
 21
0.162643
 31
0.0
  0
LINE
  5
423
  8
0
 10
1.00407
 20
0.162643
 30
0.0
 11
0.997009
 21
0.169708
 31
0.0
  0
LINE
  5
424
  8
0
 10
-2.44444
 20
1.60301
 30
0.0
 11
-2.43738
 21
1.61008
 31
0.0
  0
LINE
  5
425
  8
0
 10
-2.43738
 20
1.61008
 30
0.0
 11
-0.997009
 21
0.169708
 31
0.0
  0
LINE
  5
426
  8
0
 10
-0.997009
 20
0.169708
 30
0.0
 11
-1.00407
 21
0.162643
 31
0.0
  0
LINE
  5
427
  8
0
 10
-1.00407
 20
0.162643
 30
0.0
 11
-2.44444
 21
1.60301
 31
0.0
  0
LINE
  5
428
  8
0
 10
-2.4586
 20
1.58887
 30
0.0
 11
-2.45152
 21
1.59593
 31
0.0
  0
LINE
  5
429
  8
0
 10
-2.45152
 20
1.59593
 30
0.0
 11
-1.01115
 21
0.155563
 31
0.0
  0
LINE
  5
42A
  8
0
 10
-1.01115
 20
0.155563
 30
0.0
 11
-1.01823
 21
0.148499
 31
0.0
  0
LINE
  5
42B
  8
0
 10
-1.01823
 20
0.148499
 30
0.0
 11
-2.4586
 21
1.58887
 31
0.0
  0
LINE
  5
42C
  8
0
 10
1.01115
 20
0.155563
 30
0.0
 11
2.45152
 21
1.59593
 31
0.0
  0
LINE
  5
42D
  8
0
 10
2.45152
 20
1.59593
 30
0.0
 11
2.4586
 21
1.58887
 31
0.0
  0
LINE
  5
42E
  8
0
 10
2.4586
 20
1.58887
 30
0.0
 11
1.01823
 21
0.148499
 31
0.0
  0
LINE
  5
42F
  8
0
 10
1.01823
 20
0.148499
 30
0.0
 11
1.01115
 21
0.155563
 31
0.0
  0
LINE
  5
430
  8
0
 10
1.0253
 20
0.141418
 30
0.0
 11
2.46567
 21
1.58179
 31
0.0
  0
LINE
  5
431
  8
0
 10
2.46567
 20
1.58179
 30
0.0
 11
2.47275
 21
1.57472
 31
0.0
  0
LINE
  5
432
  8
0
 10
2.47275
 20
1.57472
 30
0.0
 11
1.03238
 21
0.134354
 31
0.0
  0
LINE
  5
433
  8
0
 10
1.03238
 20
0.134354
 30
0.0
 11
1.0253
 21
0.141418
 31
0.0
  0
LINE
  5
434
  8
0
 10
-2.47275
 20
1.57472
 30
0.0
 11
-2.46567
 21
1.58179
 31
0.0
  0
LINE
  5
435
  8
0
 10
-2.46567
 20
1.58179
 30
0.0
 11
-1.0253
 21
0.141418
 31
0.0
  0
LINE
  5
436
  8
0
 10
-1.0253
 20
0.141418
 30
0.0
 11
-1.03238
 21
0.134354
 31
0.0
  0
LINE
  5
437
  8
0
 10
-1.03238
 20
0.134354
 30
0.0
 11
-2.47275
 21
1.57472
 31
0.0
  0
LINE
  5
438
  8
0
 10
-2.48689
 20
1.56058
 30
0.0
 11
-2.47981
 21
1.56766
 31
0.0
  0
LINE
  5
439
  8
0
 10
-2.47981
 20
1.56766
 30
0.0
 11
-1.03944
 21
0.127289
 31
0.0
  0
LINE
  5
43A
  8
0
 10
-1.03944
 20
0.127289
 30
0.0
 11
-1.04652
 21
0.120209
 31
0.0
  0
LINE
  5
43B
  8
0
 10
-1.04652
 20
0.120209
 30
0.0
 11
-2.48689
 21
1.56058
 31
0.0
  0
LINE
  5
43C
  8
0
 10
1.03944
 20
0.127289
 30
0.0
 11
2.47981
 21
1.56766
 31
0.0
  0
LINE
  5
43D
  8
0
 10
2.47981
 20
1.56766
 30
0.0
 11
2.48689
 21
1.56058
 31
0.0
  0
LINE
  5
43E
  8
0
 10
2.48689
 20
1.56058
 30
0.0
 11
1.04652
 21
0.120209
 31
0.0
  0
LINE
  5
43F
  8
0
 10
1.04652
 20
0.120209
 30
0.0
 11
1.03944
 21
0.127289
 31
0.0
  0
LINE
  5
440
  8
0
 10
-2.50102
 20
1.54645
 30
0.0
 11
-2.49396
 21
1.55351
 31
0.0
  0
LINE
  5
441
  8
0
 10
-2.49396
 20
1.55351
 30
0.0
 11
-1.05359
 21
0.113144
 31
0.0
  0
LINE
  5
442
  8
0
 10
-1.05359
 20
0.113144
 30
0.0
 11
-1.06065
 21
0.106079
 31
0.0
  0
LINE
  5
443
  8
0
 10
-1.06065
 20
0.106079
 30
0.0
 11
-2.50102
 21
1.54645
 31
0.0
  0
LINE
  5
444
  8
0
 10
1.05359
 20
0.113144
 30
0.0
 11
2.49396
 21
1.55351
 31
0.0
  0
LINE
  5
445
  8
0
 10
2.49396
 20
1.55351
 30
0.0
 11
2.50102
 21
1.54645
 31
0.0
  0
LINE
  5
446
  8
0
 10
2.50102
 20
1.54645
 30
0.0
 11
1.06065
 21
0.106079
 31
0.0
  0
LINE
  5
447
  8
0
 10
1.06065
 20
0.106079
 30
0.0
 11
1.05359
 21
0.113144
 31
0.0
  0
LINE
  5
448
  8
0
 10
-2.51517
 20
1.5323
 30
0.0
 11
-2.5081
 21
1.53937
 31
0.0
  0
LINE
  5
449
  8
0
 10
-2.5081
 20
1.53937
 30
0.0
 11
-1.06773
 21
0.098999
 31
0.0
  0
LINE
  5
44A
  8
0
 10
-1.06773
 20
0.098999
 30
0.0
 11
-1.0748
 21
0.0919342
 31
0.0
  0
LINE
  5
44B
  8
0
 10
-1.0748
 20
0.0919342
 30
0.0
 11
-2.51517
 21
1.5323
 31
0.0
  0
LINE
  5
44C
  8
0
 10
1.06773
 20
0.098999
 30
0.0
 11
2.5081
 21
1.53937
 31
0.0
  0
LINE
  5
44D
  8
0
 10
2.5081
 20
1.53937
 30
0.0
 11
2.51517
 21
1.5323
 31
0.0
  0
LINE
  5
44E
  8
0
 10
2.51517
 20
1.5323
 30
0.0
 11
1.0748
 21
0.0919342
 31
0.0
  0
LINE
  5
44F
  8
0
 10
1.0748
 20
0.0919342
 30
0.0
 11
1.06773
 21
0.098999
 31
0.0
  0
LINE
  5
450
  8
0
 10
-2.52931
 20
1.51816
 30
0.0
 11
-2.52223
 21
1.52524
 31
0.0
  0
LINE
  5
451
  8
0
 10
-2.52223
 20
1.52524
 30
0.0
 11
-1.08186
 21
0.0848694
 31
0.0
  0
LINE
  5
452
  8
0
 10
-1.08186
 20
0.0848694
 30
0.0
 11
-1.08894
 21
0.0777893
 31
0.0
  0
LINE
  5
453
  8
0
 10
-1.08894
 20
0.0777893
 30
0.0
 11
-2.52931
 21
1.51816
 31
0.0
  0
LINE
  5
454
  8
0
 10
1.08186
 20
0.0848694
 30
0.0
 11
2.52223
 21
1.52524
 31
0.0
  0
LINE
  5
455
  8
0
 10
2.52223
 20
1.52524
 30
0.0
 11
2.52931
 21
1.51816
 31
0.0
  0
LINE
  5
456
  8
0
 10
2.52931
 20
1.51816
 30
0.0
 11
1.08894
 21
0.0777893
 31
0.0
  0
LINE
  5
457
  8
0
 10
1.08894
 20
0.0777893
 30
0.0
 11
1.08186
 21
0.0848694
 31
0.0
  0
LINE
  5
458
  8
0
 10
-2.54344
 20
1.50401
 30
0.0
 11
-2.53638
 21
1.51109
 31
0.0
  0
LINE
  5
459
  8
0
 10
-2.53638
 20
1.51109
 30
0.0
 11
-1.09601
 21
0.0707245
 31
0.0
  0
LINE
  5
45A
  8
0
 10
-1.09601
 20
0.0707245
 30
0.0
 11
-1.10307
 21
0.0636444
 31
0.0
  0
LINE
  5
45B
  8
0
 10
-1.10307
 20
0.0636444
 30
0.0
 11
-2.54344
 21
1.50401
 31
0.0
  0
LINE
  5
45C
  8
0
 10
1.09601
 20
0.0707245
 30
0.0
 11
2.53638
 21
1.51109
 31
0.0
  0
LINE
  5
45D
  8
0
 10
2.53638
 20
1.51109
 30
0.0
 11
2.54344
 21
1.50401
 31
0.0
  0
LINE
  5
45E
  8
0
 10
2.54344
 20
1.50401
 30
0.0
 11
1.10307
 21
0.0636444
 31
0.0
  0
LINE
  5
45F
  8
0
 10
1.10307
 20
0.0636444
 30
0.0
 11
1.09601
 21
0.0707245
 31
0.0
  0
LINE
  5
460
  8
0
 10
-2.55759
 20
1.48987
 30
0.0
 11
-2.55052
 21
1.49693
 31
0.0
  0
LINE
  5
461
  8
0
 10
-2.55052
 20
1.49693
 30
0.0
 11
-1.11015
 21
0.0565643
 31
0.0
  0
LINE
  5
462
  8
0
 10
-1.11015
 20
0.0565643
 30
0.0
 11
-1.11722
 21
0.0494995
 31
0.0
  0
LINE
  5
463
  8
0
 10
-1.11722
 20
0.0494995
 30
0.0
 11
-2.55759
 21
1.48987
 31
0.0
  0
LINE
  5
464
  8
0
 10
1.11015
 20
0.0565643
 30
0.0
 11
2.55052
 21
1.49693
 31
0.0
  0
LINE
  5
465
  8
0
 10
2.55052
 20
1.49693
 30
0.0
 11
2.55759
 21
1.48987
 31
0.0
  0
LINE
  5
466
  8
0
 10
2.55759
 20
1.48987
 30
0.0
 11
1.11722
 21
0.0494995
 31
0.0
  0
LINE
  5
467
  8
0
 10
1.11722
 20
0.0494995
 30
0.0
 11
1.11015
 21
0.0565643
 31
0.0
  0
LINE
  5
468
  8
0
 10
1.1243
 20
0.0424194
 30
0.0
 11
2.56467
 21
1.48279
 31
0.0
  0
LINE
  5
469
  8
0
 10
2.56467
 20
1.48279
 30
0.0
 11
2.57173
 21
1.47572
 31
0.0
  0
LINE
  5
46A
  8
0
 10
2.57173
 20
1.47572
 30
0.0
 11
1.13136
 21
0.0353546
 31
0.0
  0
LINE
  5
46B
  8
0
 10
1.13136
 20
0.0353546
 30
0.0
 11
1.1243
 21
0.0424194
 31
0.0
  0
LINE
  5
46C
  8
0
 10
-2.57173
 20
1.47572
 30
0.0
 11
-2.56467
 21
1.48279
 31
0.0
  0
LINE
  5
46D
  8
0
 10
-2.56467
 20
1.48279
 30
0.0
 11
-1.1243
 21
0.0424194
 31
0.0
  0
LINE
  5
46E
  8
0
 10
-1.1243
 20
0.0424194
 30
0.0
 11
-1.13136
 21
0.0353546
 31
0.0
  0
LINE
  5
46F
  8
0
 10
-1.13136
 20
0.0353546
 30
0.0
 11
-2.57173
 21
1.47572
 31
0.0
  0
LINE
  5
470
  8
0
 10
1.13843
 20
0.0282898
 30
0.0
 11
2.5788
 21
1.46866
 31
0.0
  0
LINE
  5
471
  8
0
 10
2.5788
 20
1.46866
 30
0.0
 11
2.58588
 21
1.46158
 31
0.0
  0
LINE
  5
472
  8
0
 10
2.58588
 20
1.46158
 30
0.0
 11
1.14551
 21
0.0212097
 31
0.0
  0
LINE
  5
473
  8
0
 10
1.14551
 20
0.0212097
 30
0.0
 11
1.13843
 21
0.0282898
 31
0.0
  0
LINE
  5
474
  8
0
 10
-2.58588
 20
1.46158
 30
0.0
 11
-2.5788
 21
1.46866
 31
0.0
  0
LINE
  5
475
  8
0
 10
-2.5788
 20
1.46866
 30
0.0
 11
-1.13843
 21
0.0282898
 31
0.0
  0
LINE
  5
476
  8
0
 10
-1.13843
 20
0.0282898
 30
0.0
 11
-1.14551
 21
0.0212097
 31
0.0
  0
LINE
  5
477
  8
0
 10
-1.14551
 20
0.0212097
 30
0.0
 11
-2.58588
 21
1.46158
 31
0.0
  0
LINE
  5
478
  8
0
 10
-2.60002
 20
1.44745
 30
0.0
 11
-2.59294
 21
1.45451
 31
0.0
  0
LINE
  5
479
  8
0
 10
-2.59294
 20
1.45451
 30
0.0
 11
-1.15257
 21
0.0141449
 31
0.0
  0
LINE
  5
47A
  8
0
 10
-1.15257
 20
0.0141449
 30
0.0
 11
-1.15965
 21
0.00708008
 31
0.0
  0
LINE
  5
47B
  8
0
 10
-1.15965
 20
0.00708008
 30
0.0
 11
-2.60002
 21
1.44745
 31
0.0
  0
LINE
  5
47C
  8
0
 10
1.15257
 20
0.0141449
 30
0.0
 11
2.59294
 21
1.45451
 31
0.0
  0
LINE
  5
47D
  8
0
 10
2.59294
 20
1.45451
 30
0.0
 11
2.60002
 21
1.44745
 31
0.0
  0
LINE
  5
47E
  8
0
 10
2.60002
 20
1.44745
 30
0.0
 11
1.15965
 21
0.00708008
 31
0.0
  0
LINE
  5
47F
  8
0
 10
1.15965
 20
0.00708008
 30
0.0
 11
1.15257
 21
0.0141449
 31
0.0
  0
LINE
  5
480
  8
0
 10
-2.60002
 20
-1.44745
 30
0.0
 11
-1.15965
 21
-0.00708008
 31
0.0
  0
LINE
  5
481
  8
0
 10
-1.15965
 20
-0.00708008
 30
0.0
 11
-1.15257
 21
-0.0141449
 31
0.0
  0
LINE
  5
482
  8
0
 10
-1.15257
 20
-0.0141449
 30
0.0
 11
-2.59294
 21
-1.45451
 31
0.0
  0
LINE
  5
483
  8
0
 10
-2.59294
 20
-1.45451
 30
0.0
 11
-2.60002
 21
-1.44745
 31
0.0
  0
LINE
  5
484
  8
0
 10
1.15257
 20
-0.0141449
 30
0.0
 11
1.15965
 21
-0.00708008
 31
0.0
  0
LINE
  5
485
  8
0
 10
1.15965
 20
-0.00708008
 30
0.0
 11
2.60002
 21
-1.44745
 31
0.0
  0
LINE
  5
486
  8
0
 10
2.60002
 20
-1.44745
 30
0.0
 11
2.59294
 21
-1.45451
 31
0.0
  0
LINE
  5
487
  8
0
 10
2.59294
 20
-1.45451
 30
0.0
 11
1.15257
 21
-0.0141449
 31
0.0
  0
LINE
  5
488
  8
0
 10
-2.58588
 20
-1.46158
 30
0.0
 11
-1.14551
 21
-0.0212097
 31
0.0
  0
LINE
  5
489
  8
0
 10
-1.14551
 20
-0.0212097
 30
0.0
 11
-1.13843
 21
-0.0282898
 31
0.0
  0
LINE
  5
48A
  8
0
 10
-1.13843
 20
-0.0282898
 30
0.0
 11
-2.5788
 21
-1.46866
 31
0.0
  0
LINE
  5
48B
  8
0
 10
-2.5788
 20
-1.46866
 30
0.0
 11
-2.58588
 21
-1.46158
 31
0.0
  0
LINE
  5
48C
  8
0
 10
1.13843
 20
-0.0282898
 30
0.0
 11
1.14551
 21
-0.0212097
 31
0.0
  0
LINE
  5
48D
  8
0
 10
1.14551
 20
-0.0212097
 30
0.0
 11
2.58588
 21
-1.46158
 31
0.0
  0
LINE
  5
48E
  8
0
 10
2.58588
 20
-1.46158
 30
0.0
 11
2.5788
 21
-1.46866
 31
0.0
  0
LINE
  5
48F
  8
0
 10
2.5788
 20
-1.46866
 30
0.0
 11
1.13843
 21
-0.0282898
 31
0.0
  0
LINE
  5
490
  8
0
 10
-2.57173
 20
-1.47572
 30
0.0
 11
-1.13136
 21
-0.0353546
 31
0.0
  0
LINE
  5
491
  8
0
 10
-1.13136
 20
-0.0353546
 30
0.0
 11
-1.1243
 21
-0.0424194
 31
0.0
  0
LINE
  5
492
  8
0
 10
-1.1243
 20
-0.0424194
 30
0.0
 11
-2.56467
 21
-1.48279
 31
0.0
  0
LINE
  5
493
  8
0
 10
-2.56467
 20
-1.48279
 30
0.0
 11
-2.57173
 21
-1.47572
 31
0.0
  0
LINE
  5
494
  8
0
 10
1.1243
 20
-0.0424194
 30
0.0
 11
1.13136
 21
-0.0353546
 31
0.0
  0
LINE
  5
495
  8
0
 10
1.13136
 20
-0.0353546
 30
0.0
 11
2.57173
 21
-1.47572
 31
0.0
  0
LINE
  5
496
  8
0
 10
2.57173
 20
-1.47572
 30
0.0
 11
2.56467
 21
-1.48279
 31
0.0
  0
LINE
  5
497
  8
0
 10
2.56467
 20
-1.48279
 30
0.0
 11
1.1243
 21
-0.0424194
 31
0.0
  0
LINE
  5
498
  8
0
 10
-2.55759
 20
-1.48987
 30
0.0
 11
-1.11722
 21
-0.0494995
 31
0.0
  0
LINE
  5
499
  8
0
 10
-1.11722
 20
-0.0494995
 30
0.0
 11
-1.11015
 21
-0.0565643
 31
0.0
  0
LINE
  5
49A
  8
0
 10
-1.11015
 20
-0.0565643
 30
0.0
 11
-2.55052
 21
-1.49693
 31
0.0
  0
LINE
  5
49B
  8
0
 10
-2.55052
 20
-1.49693
 30
0.0
 11
-2.55759
 21
-1.48987
 31
0.0
  0
LINE
  5
49C
  8
0
 10
1.11015
 20
-0.0565643
 30
0.0
 11
1.11722
 21
-0.0494995
 31
0.0
  0
LINE
  5
49D
  8
0
 10
1.11722
 20
-0.0494995
 30
0.0
 11
2.55759
 21
-1.48987
 31
0.0
  0
LINE
  5
49E
  8
0
 10
2.55759
 20
-1.48987
 30
0.0
 11
2.55052
 21
-1.49693
 31
0.0
  0
LINE
  5
49F
  8
0
 10
2.55052
 20
-1.49693
 30
0.0
 11
1.11015
 21
-0.0565643
 31
0.0
  0
LINE
  5
4A0
  8
0
 10
-2.54344
 20
-1.50401
 30
0.0
 11
-1.10307
 21
-0.0636444
 31
0.0
  0
LINE
  5
4A1
  8
0
 10
-1.10307
 20
-0.0636444
 30
0.0
 11
-1.09601
 21
-0.0707245
 31
0.0
  0
LINE
  5
4A2
  8
0
 10
-1.09601
 20
-0.0707245
 30
0.0
 11
-2.53638
 21
-1.51109
 31
0.0
  0
LINE
  5
4A3
  8
0
 10
-2.53638
 20
-1.51109
 30
0.0
 11
-2.54344
 21
-1.50401
 31
0.0
  0
LINE
  5
4A4
  8
0
 10
1.09601
 20
-0.0707245
 30
0.0
 11
1.10307
 21
-0.0636444
 31
0.0
  0
LINE
  5
4A5
  8
0
 10
1.10307
 20
-0.0636444
 30
0.0
 11
2.54344
 21
-1.50401
 31
0.0
  0
LINE
  5
4A6
  8
0
 10
2.54344
 20
-1.50401
 30
0.0
 11
2.53638
 21
-1.51109
 31
0.0
  0
LINE
  5
4A7
  8
0
 10
2.53638
 20
-1.51109
 30
0.0
 11
1.09601
 21
-0.0707245
 31
0.0
  0
LINE
  5
4A8
  8
0
 10
-2.52931
 20
-1.51816
 30
0.0
 11
-1.08894
 21
-0.0777893
 31
0.0
  0
LINE
  5
4A9
  8
0
 10
-1.08894
 20
-0.0777893
 30
0.0
 11
-1.08186
 21
-0.0848694
 31
0.0
  0
LINE
  5
4AA
  8
0
 10
-1.08186
 20
-0.0848694
 30
0.0
 11
-2.52223
 21
-1.52524
 31
0.0
  0
LINE
  5
4AB
  8
0
 10
-2.52223
 20
-1.52524
 30
0.0
 11
-2.52931
 21
-1.51816
 31
0.0
  0
LINE
  5
4AC
  8
0
 10
1.08186
 20
-0.0848694
 30
0.0
 11
1.08894
 21
-0.0777893
 31
0.0
  0
LINE
  5
4AD
  8
0
 10
1.08894
 20
-0.0777893
 30
0.0
 11
2.52931
 21
-1.51816
 31
0.0
  0
LINE
  5
4AE
  8
0
 10
2.52931
 20
-1.51816
 30
0.0
 11
2.52223
 21
-1.52524
 31
0.0
  0
LINE
  5
4AF
  8
0
 10
2.52223
 20
-1.52524
 30
0.0
 11
1.08186
 21
-0.0848694
 31
0.0
  0
LINE
  5
4B0
  8
0
 10
-2.51517
 20
-1.5323
 30
0.0
 11
-1.0748
 21
-0.0919342
 31
0.0
  0
LINE
  5
4B1
  8
0
 10
-1.0748
 20
-0.0919342
 30
0.0
 11
-1.06773
 21
-0.098999
 31
0.0
  0
LINE
  5
4B2
  8
0
 10
-1.06773
 20
-0.098999
 30
0.0
 11
-2.5081
 21
-1.53937
 31
0.0
  0
LINE
  5
4B3
  8
0
 10
-2.5081
 20
-1.53937
 30
0.0
 11
-2.51517
 21
-1.5323
 31
0.0
  0
LINE
  5
4B4
  8
0
 10
1.06773
 20
-0.098999
 30
0.0
 11
1.0748
 21
-0.0919342
 31
0.0
  0
LINE
  5
4B5
  8
0
 10
1.0748
 20
-0.0919342
 30
0.0
 11
2.51517
 21
-1.5323
 31
0.0
  0
LINE
  5
4B6
  8
0
 10
2.51517
 20
-1.5323
 30
0.0
 11
2.5081
 21
-1.53937
 31
0.0
  0
LINE
  5
4B7
  8
0
 10
2.5081
 20
-1.53937
 30
0.0
 11
1.06773
 21
-0.098999
 31
0.0
  0
LINE
  5
4B8
  8
0
 10
-2.50102
 20
-1.54645
 30
0.0
 11
-1.06065
 21
-0.106079
 31
0.0
  0
LINE
  5
4B9
  8
0
 10
-1.06065
 20
-0.106079
 30
0.0
 11
-1.05359
 21
-0.113144
 31
0.0
  0
LINE
  5
4BA
  8
0
 10
-1.05359
 20
-0.113144
 30
0.0
 11
-2.49396
 21
-1.55351
 31
0.0
  0
LINE
  5
4BB
  8
0
 10
-2.49396
 20
-1.55351
 30
0.0
 11
-2.50102
 21
-1.54645
 31
0.0
  0
LINE
  5
4BC
  8
0
 10
1.05359
 20
-0.113144
 30
0.0
 11
1.06065
 21
-0.106079
 31
0.0
  0
LINE
  5
4BD
  8
0
 10
1.06065
 20
-0.106079
 30
0.0
 11
2.50102
 21
-1.54645
 31
0.0
  0
LINE
  5
4BE
  8
0
 10
2.50102
 20
-1.54645
 30
0.0
 11
2.49396
 21
-1.55351
 31
0.0
  0
LINE
  5
4BF
  8
0
 10
2.49396
 20
-1.55351
 30
0.0
 11
1.05359
 21
-0.113144
 31
0.0
  0
LINE
  5
4C0
  8
0
 10
-2.48689
 20
-1.56058
 30
0.0
 11
-1.04652
 21
-0.120209
 31
0.0
  0
LINE
  5
4C1
  8
0
 10
-1.04652
 20
-0.120209
 30
0.0
 11
-1.03944
 21
-0.127289
 31
0.0
  0
LINE
  5
4C2
  8
0
 10
-1.03944
 20
-0.127289
 30
0.0
 11
-2.47981
 21
-1.56766
 31
0.0
  0
LINE
  5
4C3
  8
0
 10
-2.47981
 20
-1.56766
 30
0.0
 11
-2.48689
 21
-1.56058
 31
0.0
  0
LINE
  5
4C4
  8
0
 10
1.03944
 20
-0.127289
 30
0.0
 11
1.04652
 21
-0.120209
 31
0.0
  0
LINE
  5
4C5
  8
0
 10
1.04652
 20
-0.120209
 30
0.0
 11
2.48689
 21
-1.56058
 31
0.0
  0
LINE
  5
4C6
  8
0
 10
2.48689
 20
-1.56058
 30
0.0
 11
2.47981
 21
-1.56766
 31
0.0
  0
LINE
  5
4C7
  8
0
 10
2.47981
 20
-1.56766
 30
0.0
 11
1.03944
 21
-0.127289
 31
0.0
  0
LINE
  5
4C8
  8
0
 10
-2.47275
 20
-1.57472
 30
0.0
 11
-1.03238
 21
-0.134354
 31
0.0
  0
LINE
  5
4C9
  8
0
 10
-1.03238
 20
-0.134354
 30
0.0
 11
-1.0253
 21
-0.141418
 31
0.0
  0
LINE
  5
4CA
  8
0
 10
-1.0253
 20
-0.141418
 30
0.0
 11
-2.46567
 21
-1.58179
 31
0.0
  0
LINE
  5
4CB
  8
0
 10
-2.46567
 20
-1.58179
 30
0.0
 11
-2.47275
 21
-1.57472
 31
0.0
  0
LINE
  5
4CC
  8
0
 10
1.0253
 20
-0.141418
 30
0.0
 11
1.03238
 21
-0.134354
 31
0.0
  0
LINE
  5
4CD
  8
0
 10
1.03238
 20
-0.134354
 30
0.0
 11
2.47275
 21
-1.57472
 31
0.0
  0
LINE
  5
4CE
  8
0
 10
2.47275
 20
-1.57472
 30
0.0
 11
2.46567
 21
-1.58179
 31
0.0
  0
LINE
  5
4CF
  8
0
 10
2.46567
 20
-1.58179
 30
0.0
 11
1.0253
 21
-0.141418
 31
0.0
  0
LINE
  5
4D0
  8
0
 10
-2.4586
 20
-1.58887
 30
0.0
 11
-1.01823
 21
-0.148499
 31
0.0
  0
LINE
  5
4D1
  8
0
 10
-1.01823
 20
-0.148499
 30
0.0
 11
-1.01115
 21
-0.155563
 31
0.0
  0
LINE
  5
4D2
  8
0
 10
-1.01115
 20
-0.155563
 30
0.0
 11
-2.45152
 21
-1.59593
 31
0.0
  0
LINE
  5
4D3
  8
0
 10
-2.45152
 20
-1.59593
 30
0.0
 11
-2.4586
 21
-1.58887
 31
0.0
  0
LINE
  5
4D4
  8
0
 10
1.01115
 20
-0.155563
 30
0.0
 11
1.01823
 21
-0.148499
 31
0.0
  0
LINE
  5
4D5
  8
0
 10
1.01823
 20
-0.148499
 30
0.0
 11
2.4586
 21
-1.58887
 31
0.0
  0
LINE
  5
4D6
  8
0
 10
2.4586
 20
-1.58887
 30
0.0
 11
2.45152
 21
-1.59593
 31
0.0
  0
LINE
  5
4D7
  8
0
 10
2.45152
 20
-1.59593
 30
0.0
 11
1.01115
 21
-0.155563
 31
0.0
  0
LINE
  5
4D8
  8
0
 10
-2.44444
 20
-1.60301
 30
0.0
 11
-1.00407
 21
-0.162643
 31
0.0
  0
LINE
  5
4D9
  8
0
 10
-1.00407
 20
-0.162643
 30
0.0
 11
-0.997009
 21
-0.169708
 31
0.0
  0
LINE
  5
4DA
  8
0
 10
-0.997009
 20
-0.169708
 30
0.0
 11
-2.43738
 21
-1.61008
 31
0.0
  0
LINE
  5
4DB
  8
0
 10
-2.43738
 20
-1.61008
 30
0.0
 11
-2.44444
 21
-1.60301
 31
0.0
  0
LINE
  5
4DC
  8
0
 10
0.997009
 20
-0.169708
 30
0.0
 11
1.00407
 21
-0.162643
 31
0.0
  0
LINE
  5
4DD
  8
0
 10
1.00407
 20
-0.162643
 30
0.0
 11
2.44444
 21
-1.60301
 31
0.0
  0
LINE
  5
4DE
  8
0
 10
2.44444
 20
-1.60301
 30
0.0
 11
2.43738
 21
-1.61008
 31
0.0
  0
LINE
  5
4DF
  8
0
 10
2.43738
 20
-1.61008
 30
0.0
 11
0.997009
 21
-0.169708
 31
0.0
  0
LINE
  5
4E0
  8
0
 10
0.982864
 20
-0.183853
 30
0.0
 11
0.989944
 21
-0.176773
 31
0.0
  0
LINE
  5
4E1
  8
0
 10
0.989944
 20
-0.176773
 30
0.0
 11
2.43031
 21
-1.61714
 31
0.0
  0
LINE
  5
4E2
  8
0
 10
2.43031
 20
-1.61714
 30
0.0
 11
2.42323
 21
-1.62422
 31
0.0
  0
LINE
  5
4E3
  8
0
 10
2.42323
 20
-1.62422
 30
0.0
 11
0.982864
 21
-0.183853
 31
0.0
  0
LINE
  5
4E4
  8
0
 10
-2.43031
 20
-1.61714
 30
0.0
 11
-0.989944
 21
-0.176773
 31
0.0
  0
LINE
  5
4E5
  8
0
 10
-0.989944
 20
-0.176773
 30
0.0
 11
-0.982864
 21
-0.183853
 31
0.0
  0
LINE
  5
4E6
  8
0
 10
-0.982864
 20
-0.183853
 30
0.0
 11
-2.42323
 21
-1.62422
 31
0.0
  0
LINE
  5
4E7
  8
0
 10
-2.42323
 20
-1.62422
 30
0.0
 11
-2.43031
 21
-1.61714
 31
0.0
  0
LINE
  5
4E8
  8
0
 10
-2.41617
 20
-1.63129
 30
0.0
 11
-0.9758
 21
-0.190918
 31
0.0
  0
LINE
  5
4E9
  8
0
 10
-0.9758
 20
-0.190918
 30
0.0
 11
-0.968735
 21
-0.197998
 31
0.0
  0
LINE
  5
4EA
  8
0
 10
-0.968735
 20
-0.197998
 30
0.0
 11
-2.4091
 21
-1.63837
 31
0.0
  0
LINE
  5
4EB
  8
0
 10
-2.4091
 20
-1.63837
 30
0.0
 11
-2.41617
 21
-1.63129
 31
0.0
  0
LINE
  5
4EC
  8
0
 10
0.968735
 20
-0.197998
 30
0.0
 11
0.9758
 21
-0.190918
 31
0.0
  0
LINE
  5
4ED
  8
0
 10
0.9758
 20
-0.190918
 30
0.0
 11
2.41617
 21
-1.63129
 31
0.0
  0
LINE
  5
4EE
  8
0
 10
2.41617
 20
-1.63129
 30
0.0
 11
2.4091
 21
-1.63837
 31
0.0
  0
LINE
  5
4EF
  8
0
 10
2.4091
 20
-1.63837
 30
0.0
 11
0.968735
 21
-0.197998
 31
0.0
  0
LINE
  5
4F0
  8
0
 10
-2.40202
 20
-1.64543
 30
0.0
 11
-0.961655
 21
-0.205063
 31
0.0
  0
LINE
  5
4F1
  8
0
 10
-0.961655
 20
-0.205063
 30
0.0
 11
-0.95459
 21
-0.212143
 31
0.0
  0
LINE
  5
4F2
  8
0
 10
-0.95459
 20
-0.212143
 30
0.0
 11
-2.39496
 21
-1.65251
 31
0.0
  0
LINE
  5
4F3
  8
0
 10
-2.39496
 20
-1.65251
 30
0.0
 11
-2.40202
 21
-1.64543
 31
0.0
  0
LINE
  5
4F4
  8
0
 10
0.95459
 20
-0.212143
 30
0.0
 11
0.961655
 21
-0.205063
 31
0.0
  0
LINE
  5
4F5
  8
0
 10
0.961655
 20
-0.205063
 30
0.0
 11
2.40202
 21
-1.64543
 31
0.0
  0
LINE
  5
4F6
  8
0
 10
2.40202
 20
-1.64543
 30
0.0
 11
2.39496
 21
-1.65251
 31
0.0
  0
LINE
  5
4F7
  8
0
 10
2.39496
 20
-1.65251
 30
0.0
 11
0.95459
 21
-0.212143
 31
0.0
  0
LINE
  5
4F8
  8
0
 10
-2.38789
 20
-1.65958
 30
0.0
 11
-0.947525
 21
-0.219208
 31
0.0
  0
LINE
  5
4F9
  8
0
 10
-0.947525
 20
-0.219208
 30
0.0
 11
-0.940445
 21
-0.226288
 31
0.0
  0
LINE
  5
4FA
  8
0
 10
-0.940445
 20
-0.226288
 30
0.0
 11
-2.38081
 21
-1.66666
 31
0.0
  0
LINE
  5
4FB
  8
0
 10
-2.38081
 20
-1.66666
 30
0.0
 11
-2.38789
 21
-1.65958
 31
0.0
  0
LINE
  5
4FC
  8
0
 10
0.940445
 20
-0.226288
 30
0.0
 11
0.947525
 21
-0.219208
 31
0.0
  0
LINE
  5
4FD
  8
0
 10
0.947525
 20
-0.219208
 30
0.0
 11
2.38789
 21
-1.65958
 31
0.0
  0
LINE
  5
4FE
  8
0
 10
2.38789
 20
-1.65958
 30
0.0
 11
2.38081
 21
-1.66666
 31
0.0
  0
LINE
  5
4FF
  8
0
 10
2.38081
 20
-1.66666
 30
0.0
 11
0.940445
 21
-0.226288
 31
0.0
  0
LINE
  5
500
  8
0
 10
-2.37375
 20
-1.67372
 30
0.0
 11
-0.93338
 21
-0.233353
 31
0.0
  0
LINE
  5
501
  8
0
 10
-0.93338
 20
-0.233353
 30
0.0
 11
-0.9263
 21
-0.240433
 31
0.0
  0
LINE
  5
502
  8
0
 10
-0.9263
 20
-0.240433
 30
0.0
 11
-2.36667
 21
-1.6808
 31
0.0
  0
LINE
  5
503
  8
0
 10
-2.36667
 20
-1.6808
 30
0.0
 11
-2.37375
 21
-1.67372
 31
0.0
  0
LINE
  5
504
  8
0
 10
0.9263
 20
-0.240433
 30
0.0
 11
0.93338
 21
-0.233353
 31
0.0
  0
LINE
  5
505
  8
0
 10
0.93338
 20
-0.233353
 30
0.0
 11
2.37375
 21
-1.67372
 31
0.0
  0
LINE
  5
506
  8
0
 10
2.37375
 20
-1.67372
 30
0.0
 11
2.36667
 21
-1.6808
 31
0.0
  0
LINE
  5
507
  8
0
 10
2.36667
 20
-1.6808
 30
0.0
 11
0.9263
 21
-0.240433
 31
0.0
  0
LINE
  5
508
  8
0
 10
-2.3596
 20
-1.68787
 30
0.0
 11
-0.919235
 21
-0.247498
 31
0.0
  0
LINE
  5
509
  8
0
 10
-0.919235
 20
-0.247498
 30
0.0
 11
-0.91217
 21
-0.254562
 31
0.0
  0
LINE
  5
50A
  8
0
 10
-0.91217
 20
-0.254562
 30
0.0
 11
-2.35254
 21
-1.69493
 31
0.0
  0
LINE
  5
50B
  8
0
 10
-2.35254
 20
-1.69493
 30
0.0
 11
-2.3596
 21
-1.68787
 31
0.0
  0
LINE
  5
50C
  8
0
 10
0.91217
 20
-0.254562
 30
0.0
 11
0.919235
 21
-0.247498
 31
0.0
  0
LINE
  5
50D
  8
0
 10
0.919235
 20
-0.247498
 30
0.0
 11
2.3596
 21
-1.68787
 31
0.0
  0
LINE
  5
50E
  8
0
 10
2.3596
 20
-1.68787
 30
0.0
 11
2.35254
 21
-1.69493
 31
0.0
  0
LINE
  5
50F
  8
0
 10
2.35254
 20
-1.69493
 30
0.0
 11
0.91217
 21
-0.254562
 31
0.0
  0
LINE
  5
510
  8
0
 10
-2.34546
 20
-1.70201
 30
0.0
 11
-0.90509
 21
-0.261642
 31
0.0
  0
LINE
  5
511
  8
0
 10
-0.90509
 20
-0.261642
 30
0.0
 11
-0.898026
 21
-0.268707
 31
0.0
  0
LINE
  5
512
  8
0
 10
-0.898026
 20
-0.268707
 30
0.0
 11
-2.33839
 21
-1.70908
 31
0.0
  0
LINE
  5
513
  8
0
 10
-2.33839
 20
-1.70908
 30
0.0
 11
-2.34546
 21
-1.70201
 31
0.0
  0
LINE
  5
514
  8
0
 10
0.898026
 20
-0.268707
 30
0.0
 11
0.90509
 21
-0.261642
 31
0.0
  0
LINE
  5
515
  8
0
 10
0.90509
 20
-0.261642
 30
0.0
 11
2.34546
 21
-1.70201
 31
0.0
  0
LINE
  5
516
  8
0
 10
2.34546
 20
-1.70201
 30
0.0
 11
2.33839
 21
-1.70908
 31
0.0
  0
LINE
  5
517
  8
0
 10
2.33839
 20
-1.70908
 30
0.0
 11
0.898026
 21
-0.268707
 31
0.0
  0
LINE
  5
518
  8
0
 10
-2.33131
 20
-1.71614
 30
0.0
 11
-0.890945
 21
-0.275772
 31
0.0
  0
LINE
  5
519
  8
0
 10
-0.890945
 20
-0.275772
 30
0.0
 11
-0.883881
 21
-0.282852
 31
0.0
  0
LINE
  5
51A
  8
0
 10
-0.883881
 20
-0.282852
 30
0.0
 11
-2.32425
 21
-1.72322
 31
0.0
  0
LINE
  5
51B
  8
0
 10
-2.32425
 20
-1.72322
 30
0.0
 11
-2.33131
 21
-1.71614
 31
0.0
  0
LINE
  5
51C
  8
0
 10
0.883881
 20
-0.282852
 30
0.0
 11
0.890945
 21
-0.275772
 31
0.0
  0
LINE
  5
51D
  8
0
 10
0.890945
 20
-0.275772
 30
0.0
 11
2.33131
 21
-1.71614
 31
0.0
  0
LINE
  5
51E
  8
0
 10
2.33131
 20
-1.71614
 30
0.0
 11
2.32425
 21
-1.72322
 31
0.0
  0
LINE
  5
51F
  8
0
 10
2.32425
 20
-1.72322
 30
0.0
 11
0.883881
 21
-0.282852
 31
0.0
  0
LINE
  5
520
  8
0
 10
-2.31717
 20
-1.73029
 30
0.0
 11
-0.876801
 21
-0.289917
 31
0.0
  0
LINE
  5
521
  8
0
 10
-0.876801
 20
-0.289917
 30
0.0
 11
-0.869736
 21
-0.296982
 31
0.0
  0
LINE
  5
522
  8
0
 10
-0.869736
 20
-0.296982
 30
0.0
 11
-2.3101
 21
-1.73735
 31
0.0
  0
LINE
  5
523
  8
0
 10
-2.3101
 20
-1.73735
 30
0.0
 11
-2.31717
 21
-1.73029
 31
0.0
  0
LINE
  5
524
  8
0
 10
0.869736
 20
-0.296982
 30
0.0
 11
0.876801
 21
-0.289917
 31
0.0
  0
LINE
  5
525
  8
0
 10
0.876801
 20
-0.289917
 30
0.0
 11
2.31717
 21
-1.73029
 31
0.0
  0
LINE
  5
526
  8
0
 10
2.31717
 20
-1.73029
 30
0.0
 11
2.3101
 21
-1.73735
 31
0.0
  0
LINE
  5
527
  8
0
 10
2.3101
 20
-1.73735
 30
0.0
 11
0.869736
 21
-0.296982
 31
0.0
  0
LINE
  5
528
  8
0
 10
-2.30302
 20
-1.74443
 30
0.0
 11
-0.862656
 21
-0.304062
 31
0.0
  0
LINE
  5
529
  8
0
 10
-0.862656
 20
-0.304062
 30
0.0
 11
-0.855591
 21
-0.311127
 31
0.0
  0
LINE
  5
52A
  8
0
 10
-0.855591
 20
-0.311127
 30
0.0
 11
-2.29596
 21
-1.7515
 31
0.0
  0
LINE
  5
52B
  8
0
 10
-2.29596
 20
-1.7515
 30
0.0
 11
-2.30302
 21
-1.74443
 31
0.0
  0
LINE
  5
52C
  8
0
 10
0.855591
 20
-0.311127
 30
0.0
 11
0.862656
 21
-0.304062
 31
0.0
  0
LINE
  5
52D
  8
0
 10
0.862656
 20
-0.304062
 30
0.0
 11
2.30302
 21
-1.74443
 31
0.0
  0
LINE
  5
52E
  8
0
 10
2.30302
 20
-1.74443
 30
0.0
 11
2.29596
 21
-1.7515
 31
0.0
  0
LINE
  5
52F
  8
0
 10
2.29596
 20
-1.7515
 30
0.0
 11
0.855591
 21
-0.311127
 31
0.0
  0
LINE
  5
530
  8
0
 10
-2.28889
 20
-1.75856
 30
0.0
 11
-0.848526
 21
-0.318192
 31
0.0
  0
LINE
  5
531
  8
0
 10
-0.848526
 20
-0.318192
 30
0.0
 11
-0.841446
 21
-0.325272
 31
0.0
  0
LINE
  5
532
  8
0
 10
-0.841446
 20
-0.325272
 30
0.0
 11
-2.28181
 21
-1.76564
 31
0.0
  0
LINE
  5
533
  8
0
 10
-2.28181
 20
-1.76564
 30
0.0
 11
-2.28889
 21
-1.75856
 31
0.0
  0
LINE
  5
534
  8
0
 10
0.841446
 20
-0.325272
 30
0.0
 11
0.848526
 21
-0.318192
 31
0.0
  0
LINE
  5
535
  8
0
 10
0.848526
 20
-0.318192
 30
0.0
 11
2.28889
 21
-1.75856
 31
0.0
  0
LINE
  5
536
  8
0
 10
2.28889
 20
-1.75856
 30
0.0
 11
2.28181
 21
-1.76564
 31
0.0
  0
LINE
  5
537
  8
0
 10
2.28181
 20
-1.76564
 30
0.0
 11
0.841446
 21
-0.325272
 31
0.0
  0
LINE
  5
538
  8
0
 10
-2.27475
 20
-1.77271
 30
0.0
 11
-0.834381
 21
-0.332336
 31
0.0
  0
LINE
  5
539
  8
0
 10
-0.834381
 20
-0.332336
 30
0.0
 11
-0.827301
 21
-0.339417
 31
0.0
  0
LINE
  5
53A
  8
0
 10
-0.827301
 20
-0.339417
 30
0.0
 11
-2.26767
 21
-1.77979
 31
0.0
  0
LINE
  5
53B
  8
0
 10
-2.26767
 20
-1.77979
 30
0.0
 11
-2.27475
 21
-1.77271
 31
0.0
  0
LINE
  5
53C
  8
0
 10
0.827301
 20
-0.339417
 30
0.0
 11
0.834381
 21
-0.332336
 31
0.0
  0
LINE
  5
53D
  8
0
 10
0.834381
 20
-0.332336
 30
0.0
 11
2.27475
 21
-1.77271
 31
0.0
  0
LINE
  5
53E
  8
0
 10
2.27475
 20
-1.77271
 30
0.0
 11
2.26767
 21
-1.77979
 31
0.0
  0
LINE
  5
53F
  8
0
 10
2.26767
 20
-1.77979
 30
0.0
 11
0.827301
 21
-0.339417
 31
0.0
  0
LINE
  5
540
  8
0
 10
-2.2606
 20
-1.78685
 30
0.0
 11
-0.820236
 21
-0.346481
 31
0.0
  0
LINE
  5
541
  8
0
 10
-0.820236
 20
-0.346481
 30
0.0
 11
-0.813171
 21
-0.353561
 31
0.0
  0
LINE
  5
542
  8
0
 10
-0.813171
 20
-0.353561
 30
0.0
 11
-2.25354
 21
-1.79393
 31
0.0
  0
LINE
  5
543
  8
0
 10
-2.25354
 20
-1.79393
 30
0.0
 11
-2.2606
 21
-1.78685
 31
0.0
  0
LINE
  5
544
  8
0
 10
0.813171
 20
-0.353561
 30
0.0
 11
0.820236
 21
-0.346481
 31
0.0
  0
LINE
  5
545
  8
0
 10
0.820236
 20
-0.346481
 30
0.0
 11
2.2606
 21
-1.78685
 31
0.0
  0
LINE
  5
546
  8
0
 10
2.2606
 20
-1.78685
 30
0.0
 11
2.25354
 21
-1.79393
 31
0.0
  0
LINE
  5
547
  8
0
 10
2.25354
 20
-1.79393
 30
0.0
 11
0.813171
 21
-0.353561
 31
0.0
  0
LINE
  5
548
  8
0
 10
-2.24646
 20
-1.80099
 30
0.0
 11
-0.806091
 21
-0.360626
 31
0.0
  0
LINE
  5
549
  8
0
 10
-0.806091
 20
-0.360626
 30
0.0
 11
-0.799026
 21
-0.367706
 31
0.0
  0
LINE
  5
54A
  8
0
 10
-0.799026
 20
-0.367706
 30
0.0
 11
-2.2394
 21
-1.80807
 31
0.0
  0
LINE
  5
54B
  8
0
 10
-2.2394
 20
-1.80807
 30
0.0
 11
-2.24646
 21
-1.80099
 31
0.0
  0
LINE
  5
54C
  8
0
 10
0.799026
 20
-0.367706
 30
0.0
 11
0.806091
 21
-0.360626
 31
0.0
  0
LINE
  5
54D
  8
0
 10
0.806091
 20
-0.360626
 30
0.0
 11
2.24646
 21
-1.80099
 31
0.0
  0
LINE
  5
54E
  8
0
 10
2.24646
 20
-1.80099
 30
0.0
 11
2.2394
 21
-1.80807
 31
0.0
  0
LINE
  5
54F
  8
0
 10
2.2394
 20
-1.80807
 30
0.0
 11
0.799026
 21
-0.367706
 31
0.0
  0
LINE
  5
550
  8
0
 10
-2.23233
 20
-1.81514
 30
0.0
 11
-0.791962
 21
-0.374771
 31
0.0
  0
LINE
  5
551
  8
0
 10
-0.791962
 20
-0.374771
 30
0.0
 11
-0.784882
 21
-0.381851
 31
0.0
  0
LINE
  5
552
  8
0
 10
-0.784882
 20
-0.381851
 30
0.0
 11
-2.22525
 21
-1.82222
 31
0.0
  0
LINE
  5
553
  8
0
 10
-2.22525
 20
-1.82222
 30
0.0
 11
-2.23233
 21
-1.81514
 31
0.0
  0
LINE
  5
554
  8
0
 10
0.784882
 20
-0.381851
 30
0.0
 11
0.791962
 21
-0.374771
 31
0.0
  0
LINE
  5
555
  8
0
 10
0.791962
 20
-0.374771
 30
0.0
 11
2.23233
 21
-1.81514
 31
0.0
  0
LINE
  5
556
  8
0
 10
2.23233
 20
-1.81514
 30
0.0
 11
2.22525
 21
-1.82222
 31
0.0
  0
LINE
  5
557
  8
0
 10
2.22525
 20
-1.82222
 30
0.0
 11
0.784882
 21
-0.381851
 31
0.0
  0
LINE
  5
558
  8
0
 10
-2.21819
 20
-1.82928
 30
0.0
 11
-0.777817
 21
-0.388916
 31
0.0
  0
LINE
  5
559
  8
0
 10
-0.777817
 20
-0.388916
 30
0.0
 11
-0.770752
 21
-0.395981
 31
0.0
  0
LINE
  5
55A
  8
0
 10
-0.770752
 20
-0.395981
 30
0.0
 11
-2.21112
 21
-1.83635
 31
0.0
  0
LINE
  5
55B
  8
0
 10
-2.21112
 20
-1.83635
 30
0.0
 11
-2.21819
 21
-1.82928
 31
0.0
  0
LINE
  5
55C
  8
0
 10
0.770752
 20
-0.395981
 30
0.0
 11
0.777817
 21
-0.388916
 31
0.0
  0
LINE
  5
55D
  8
0
 10
0.777817
 20
-0.388916
 30
0.0
 11
2.21819
 21
-1.82928
 31
0.0
  0
LINE
  5
55E
  8
0
 10
2.21819
 20
-1.82928
 30
0.0
 11
2.21112
 21
-1.83635
 31
0.0
  0
LINE
  5
55F
  8
0
 10
2.21112
 20
-1.83635
 30
0.0
 11
0.770752
 21
-0.395981
 31
0.0
  0
LINE
  5
560
  8
0
 10
-2.20404
 20
-1.84343
 30
0.0
 11
-0.763672
 21
-0.403061
 31
0.0
  0
LINE
  5
561
  8
0
 10
-0.763672
 20
-0.403061
 30
0.0
 11
-0.756607
 21
-0.410126
 31
0.0
  0
LINE
  5
562
  8
0
 10
-0.756607
 20
-0.410126
 30
0.0
 11
-2.19698
 21
-1.85049
 31
0.0
  0
LINE
  5
563
  8
0
 10
-2.19698
 20
-1.85049
 30
0.0
 11
-2.20404
 21
-1.84343
 31
0.0
  0
LINE
  5
564
  8
0
 10
0.756607
 20
-0.410126
 30
0.0
 11
0.763672
 21
-0.403061
 31
0.0
  0
LINE
  5
565
  8
0
 10
0.763672
 20
-0.403061
 30
0.0
 11
2.20404
 21
-1.84343
 31
0.0
  0
LINE
  5
566
  8
0
 10
2.20404
 20
-1.84343
 30
0.0
 11
2.19698
 21
-1.85049
 31
0.0
  0
LINE
  5
567
  8
0
 10
2.19698
 20
-1.85049
 30
0.0
 11
0.756607
 21
-0.410126
 31
0.0
  0
LINE
  5
568
  8
0
 10
-2.1899
 20
-1.85757
 30
0.0
 11
-0.749527
 21
-0.417206
 31
0.0
  0
LINE
  5
569
  8
0
 10
-0.749527
 20
-0.417206
 30
0.0
 11
-0.742462
 21
-0.424271
 31
0.0
  0
LINE
  5
56A
  8
0
 10
-0.742462
 20
-0.424271
 30
0.0
 11
-2.18283
 21
-1.86464
 31
0.0
  0
LINE
  5
56B
  8
0
 10
-2.18283
 20
-1.86464
 30
0.0
 11
-2.1899
 21
-1.85757
 31
0.0
  0
LINE
  5
56C
  8
0
 10
0.742462
 20
-0.424271
 30
0.0
 11
0.749527
 21
-0.417206
 31
0.0
  0
LINE
  5
56D
  8
0
 10
0.749527
 20
-0.417206
 30
0.0
 11
2.1899
 21
-1.85757
 31
0.0
  0
LINE
  5
56E
  8
0
 10
2.1899
 20
-1.85757
 30
0.0
 11
2.18283
 21
-1.86464
 31
0.0
  0
LINE
  5
56F
  8
0
 10
2.18283
 20
-1.86464
 30
0.0
 11
0.742462
 21
-0.424271
 31
0.0
  0
LINE
  5
570
  8
0
 10
-2.17575
 20
-1.8717
 30
0.0
 11
-0.735382
 21
-0.431335
 31
0.0
  0
LINE
  5
571
  8
0
 10
-0.735382
 20
-0.431335
 30
0.0
 11
-0.728317
 21
-0.438416
 31
0.0
  0
LINE
  5
572
  8
0
 10
-0.728317
 20
-0.438416
 30
0.0
 11
-2.16869
 21
-1.87878
 31
0.0
  0
LINE
  5
573
  8
0
 10
-2.16869
 20
-1.87878
 30
0.0
 11
-2.17575
 21
-1.8717
 31
0.0
  0
LINE
  5
574
  8
0
 10
0.728317
 20
-0.438416
 30
0.0
 11
0.735382
 21
-0.431335
 31
0.0
  0
LINE
  5
575
  8
0
 10
0.735382
 20
-0.431335
 30
0.0
 11
2.17575
 21
-1.8717
 31
0.0
  0
LINE
  5
576
  8
0
 10
2.17575
 20
-1.8717
 30
0.0
 11
2.16869
 21
-1.87878
 31
0.0
  0
LINE
  5
577
  8
0
 10
2.16869
 20
-1.87878
 30
0.0
 11
0.728317
 21
-0.438416
 31
0.0
  0
LINE
  5
578
  8
0
 10
0.714172
 20
-0.452545
 30
0.0
 11
0.721237
 21
-0.44548
 31
0.0
  0
LINE
  5
579
  8
0
 10
0.721237
 20
-0.44548
 30
0.0
 11
2.16161
 21
-1.88585
 31
0.0
  0
LINE
  5
57A
  8
0
 10
2.16161
 20
-1.88585
 30
0.0
 11
2.15454
 21
-1.89291
 31
0.0
  0
LINE
  5
57B
  8
0
 10
2.15454
 20
-1.89291
 30
0.0
 11
0.714172
 21
-0.452545
 31
0.0
  0
LINE
  5
57C
  8
0
 10
-2.16161
 20
-1.88585
 30
0.0
 11
-0.721237
 21
-0.44548
 31
0.0
  0
LINE
  5
57D
  8
0
 10
-0.721237
 20
-0.44548
 30
0.0
 11
-0.714172
 21
-0.452545
 31
0.0
  0
LINE
  5
57E
  8
0
 10
-0.714172
 20
-0.452545
 30
0.0
 11
-2.15454
 21
-1.89291
 31
0.0
  0
LINE
  5
57F
  8
0
 10
-2.15454
 20
-1.89291
 30
0.0
 11
-2.16161
 21
-1.88585
 31
0.0
  0
LINE
  5
580
  8
0
 10
0.700027
 20
-0.46669
 30
0.0
 11
0.707092
 21
-0.459625
 31
0.0
  0
LINE
  5
581
  8
0
 10
0.707092
 20
-0.459625
 30
0.0
 11
2.14746
 21
-1.89999
 31
0.0
  0
LINE
  5
582
  8
0
 10
2.14746
 20
-1.89999
 30
0.0
 11
2.1404
 21
-1.90706
 31
0.0
  0
LINE
  5
583
  8
0
 10
2.1404
 20
-1.90706
 30
0.0
 11
0.700027
 21
-0.46669
 31
0.0
  0
LINE
  5
584
  8
0
 10
-2.14746
 20
-1.89999
 30
0.0
 11
-0.707092
 21
-0.459625
 31
0.0
  0
LINE
  5
585
  8
0
 10
-0.707092
 20
-0.459625
 30
0.0
 11
-0.700027
 21
-0.46669
 31
0.0
  0
LINE
  5
586
  8
0
 10
-0.700027
 20
-0.46669
 30
0.0
 11
-2.1404
 21
-1.90706
 31
0.0
  0
LINE
  5
587
  8
0
 10
-2.1404
 20
-1.90706
 30
0.0
 11
-2.14746
 21
-1.89999
 31
0.0
  0
LINE
  5
588
  8
0
 10
-2.13333
 20
-1.91412
 30
0.0
 11
-0.692963
 21
-0.473755
 31
0.0
  0
LINE
  5
589
  8
0
 10
-0.692963
 20
-0.473755
 30
0.0
 11
-0.685883
 21
-0.480835
 31
0.0
  0
LINE
  5
58A
  8
0
 10
-0.685883
 20
-0.480835
 30
0.0
 11
-2.12625
 21
-1.9212
 31
0.0
  0
LINE
  5
58B
  8
0
 10
-2.12625
 20
-1.9212
 30
0.0
 11
-2.13333
 21
-1.91412
 31
0.0
  0
LINE
  5
58C
  8
0
 10
0.685883
 20
-0.480835
 30
0.0
 11
0.692963
 21
-0.473755
 31
0.0
  0
LINE
  5
58D
  8
0
 10
0.692963
 20
-0.473755
 30
0.0
 11
2.13333
 21
-1.91412
 31
0.0
  0
LINE
  5
58E
  8
0
 10
2.13333
 20
-1.91412
 30
0.0
 11
2.12625
 21
-1.9212
 31
0.0
  0
LINE
  5
58F
  8
0
 10
2.12625
 20
-1.9212
 30
0.0
 11
0.685883
 21
-0.480835
 31
0.0
  0
LINE
  5
590
  8
0
 10
-2.11919
 20
-1.92828
 30
0.0
 11
-0.678818
 21
-0.487915
 31
0.0
  0
LINE
  5
591
  8
0
 10
-0.678818
 20
-0.487915
 30
0.0
 11
-0.671753
 21
-0.49498
 31
0.0
  0
LINE
  5
592
  8
0
 10
-0.671753
 20
-0.49498
 30
0.0
 11
-2.11212
 21
-1.93535
 31
0.0
  0
LINE
  5
593
  8
0
 10
-2.11212
 20
-1.93535
 30
0.0
 11
-2.11919
 21
-1.92828
 31
0.0
  0
LINE
  5
594
  8
0
 10
0.671753
 20
-0.49498
 30
0.0
 11
0.678818
 21
-0.487915
 31
0.0
  0
LINE
  5
595
  8
0
 10
0.678818
 20
-0.487915
 30
0.0
 11
2.11919
 21
-1.92828
 31
0.0
  0
LINE
  5
596
  8
0
 10
2.11919
 20
-1.92828
 30
0.0
 11
2.11212
 21
-1.93535
 31
0.0
  0
LINE
  5
597
  8
0
 10
2.11212
 20
-1.93535
 30
0.0
 11
0.671753
 21
-0.49498
 31
0.0
  0
LINE
  5
598
  8
0
 10
-2.10504
 20
-1.94243
 30
0.0
 11
-0.664673
 21
-0.50206
 31
0.0
  0
LINE
  5
599
  8
0
 10
-0.664673
 20
-0.50206
 30
0.0
 11
-0.657608
 21
-0.509125
 31
0.0
  0
LINE
  5
59A
  8
0
 10
-0.657608
 20
-0.509125
 30
0.0
 11
-2.09798
 21
-1.94949
 31
0.0
  0
LINE
  5
59B
  8
0
 10
-2.09798
 20
-1.94949
 30
0.0
 11
-2.10504
 21
-1.94243
 31
0.0
  0
LINE
  5
59C
  8
0
 10
0.657608
 20
-0.509125
 30
0.0
 11
0.664673
 21
-0.50206
 31
0.0
  0
LINE
  5
59D
  8
0
 10
0.664673
 20
-0.50206
 30
0.0
 11
2.10504
 21
-1.94243
 31
0.0
  0
LINE
  5
59E
  8
0
 10
2.10504
 20
-1.94243
 30
0.0
 11
2.09798
 21
-1.94949
 31
0.0
  0
LINE
  5
59F
  8
0
 10
2.09798
 20
-1.94949
 30
0.0
 11
0.657608
 21
-0.509125
 31
0.0
  0
LINE
  5
5A0
  8
0
 10
-2.0909
 20
-1.95657
 30
0.0
 11
-0.650528
 21
-0.516205
 31
0.0
  0
LINE
  5
5A1
  8
0
 10
-0.650528
 20
-0.516205
 30
0.0
 11
-0.643463
 21
-0.52327
 31
0.0
  0
LINE
  5
5A2
  8
0
 10
-0.643463
 20
-0.52327
 30
0.0
 11
-2.08383
 21
-1.96364
 31
0.0
  0
LINE
  5
5A3
  8
0
 10
-2.08383
 20
-1.96364
 30
0.0
 11
-2.0909
 21
-1.95657
 31
0.0
  0
LINE
  5
5A4
  8
0
 10
0.643463
 20
-0.52327
 30
0.0
 11
0.650528
 21
-0.516205
 31
0.0
  0
LINE
  5
5A5
  8
0
 10
0.650528
 20
-0.516205
 30
0.0
 11
2.0909
 21
-1.95657
 31
0.0
  0
LINE
  5
5A6
  8
0
 10
2.0909
 20
-1.95657
 30
0.0
 11
2.08383
 21
-1.96364
 31
0.0
  0
LINE
  5
5A7
  8
0
 10
2.08383
 20
-1.96364
 30
0.0
 11
0.643463
 21
-0.52327
 31
0.0
  0
LINE
  5
5A8
  8
0
 10
-2.07677
 20
-1.9707
 30
0.0
 11
-0.636398
 21
-0.530334
 31
0.0
  0
LINE
  5
5A9
  8
0
 10
-0.636398
 20
-0.530334
 30
0.0
 11
-0.629318
 21
-0.537415
 31
0.0
  0
LINE
  5
5AA
  8
0
 10
-0.629318
 20
-0.537415
 30
0.0
 11
-2.06969
 21
-1.97778
 31
0.0
  0
LINE
  5
5AB
  8
0
 10
-2.06969
 20
-1.97778
 30
0.0
 11
-2.07677
 21
-1.9707
 31
0.0
  0
LINE
  5
5AC
  8
0
 10
0.629318
 20
-0.537415
 30
0.0
 11
0.636398
 21
-0.530334
 31
0.0
  0
LINE
  5
5AD
  8
0
 10
0.636398
 20
-0.530334
 30
0.0
 11
2.07677
 21
-1.9707
 31
0.0
  0
LINE
  5
5AE
  8
0
 10
2.07677
 20
-1.9707
 30
0.0
 11
2.06969
 21
-1.97778
 31
0.0
  0
LINE
  5
5AF
  8
0
 10
2.06969
 20
-1.97778
 30
0.0
 11
0.629318
 21
-0.537415
 31
0.0
  0
LINE
  5
5B0
  8
0
 10
-2.06262
 20
-1.98485
 30
0.0
 11
-0.622253
 21
-0.544479
 31
0.0
  0
LINE
  5
5B1
  8
0
 10
-0.622253
 20
-0.544479
 30
0.0
 11
-0.615189
 21
-0.551544
 31
0.0
  0
LINE
  5
5B2
  8
0
 10
-0.615189
 20
-0.551544
 30
0.0
 11
-2.05556
 21
-1.99191
 31
0.0
  0
LINE
  5
5B3
  8
0
 10
-2.05556
 20
-1.99191
 30
0.0
 11
-2.06262
 21
-1.98485
 31
0.0
  0
LINE
  5
5B4
  8
0
 10
0.615189
 20
-0.551544
 30
0.0
 11
0.622253
 21
-0.544479
 31
0.0
  0
LINE
  5
5B5
  8
0
 10
0.622253
 20
-0.544479
 30
0.0
 11
2.06262
 21
-1.98485
 31
0.0
  0
LINE
  5
5B6
  8
0
 10
2.06262
 20
-1.98485
 30
0.0
 11
2.05556
 21
-1.99191
 31
0.0
  0
LINE
  5
5B7
  8
0
 10
2.05556
 20
-1.99191
 30
0.0
 11
0.615189
 21
-0.551544
 31
0.0
  0
LINE
  5
5B8
  8
0
 10
-2.04848
 20
-1.99899
 30
0.0
 11
-0.608109
 21
-0.558624
 31
0.0
  0
LINE
  5
5B9
  8
0
 10
-0.608109
 20
-0.558624
 30
0.0
 11
-0.601044
 21
-0.565689
 31
0.0
  0
LINE
  5
5BA
  8
0
 10
-0.601044
 20
-0.565689
 30
0.0
 11
-2.04141
 21
-2.00606
 31
0.0
  0
LINE
  5
5BB
  8
0
 10
-2.04141
 20
-2.00606
 30
0.0
 11
-2.04848
 21
-1.99899
 31
0.0
  0
LINE
  5
5BC
  8
0
 10
0.601044
 20
-0.565689
 30
0.0
 11
0.608109
 21
-0.558624
 31
0.0
  0
LINE
  5
5BD
  8
0
 10
0.608109
 20
-0.558624
 30
0.0
 11
2.04848
 21
-1.99899
 31
0.0
  0
LINE
  5
5BE
  8
0
 10
2.04848
 20
-1.99899
 30
0.0
 11
2.04141
 21
-2.00606
 31
0.0
  0
LINE
  5
5BF
  8
0
 10
2.04141
 20
-2.00606
 30
0.0
 11
0.601044
 21
-0.565689
 31
0.0
  0
LINE
  5
5C0
  8
0
 10
-2.03433
 20
-2.01312
 30
0.0
 11
-0.593964
 21
-0.572754
 31
0.0
  0
LINE
  5
5C1
  8
0
 10
-0.593964
 20
-0.572754
 30
0.0
 11
-0.586899
 21
-0.579834
 31
0.0
  0
LINE
  5
5C2
  8
0
 10
-0.586899
 20
-0.579834
 30
0.0
 11
-2.02727
 21
-2.0202
 31
0.0
  0
LINE
  5
5C3
  8
0
 10
-2.02727
 20
-2.0202
 30
0.0
 11
-2.03433
 21
-2.01312
 31
0.0
  0
LINE
  5
5C4
  8
0
 10
0.586899
 20
-0.579834
 30
0.0
 11
0.593964
 21
-0.572754
 31
0.0
  0
LINE
  5
5C5
  8
0
 10
0.593964
 20
-0.572754
 30
0.0
 11
2.03433
 21
-2.01312
 31
0.0
  0
LINE
  5
5C6
  8
0
 10
2.03433
 20
-2.01312
 30
0.0
 11
2.02727
 21
-2.0202
 31
0.0
  0
LINE
  5
5C7
  8
0
 10
2.02727
 20
-2.0202
 30
0.0
 11
0.586899
 21
-0.579834
 31
0.0
  0
LINE
  5
5C8
  8
0
 10
-2.0202
 20
-2.02727
 30
0.0
 11
-0.579834
 21
-0.586899
 31
0.0
  0
LINE
  5
5C9
  8
0
 10
-0.579834
 20
-0.586899
 30
0.0
 11
-0.572754
 21
-0.593964
 31
0.0
  0
LINE
  5
5CA
  8
0
 10
-0.572754
 20
-0.593964
 30
0.0
 11
-2.01312
 21
-2.03433
 31
0.0
  0
LINE
  5
5CB
  8
0
 10
-2.01312
 20
-2.03433
 30
0.0
 11
-2.0202
 21
-2.02727
 31
0.0
  0
LINE
  5
5CC
  8
0
 10
0.572754
 20
-0.593964
 30
0.0
 11
0.579834
 21
-0.586899
 31
0.0
  0
LINE
  5
5CD
  8
0
 10
0.579834
 20
-0.586899
 30
0.0
 11
2.0202
 21
-2.02727
 31
0.0
  0
LINE
  5
5CE
  8
0
 10
2.0202
 20
-2.02727
 30
0.0
 11
2.01312
 21
-2.03433
 31
0.0
  0
LINE
  5
5CF
  8
0
 10
2.01312
 20
-2.03433
 30
0.0
 11
0.572754
 21
-0.593964
 31
0.0
  0
LINE
  5
5D0
  8
0
 10
-2.00606
 20
-2.04141
 30
0.0
 11
-0.565689
 21
-0.601044
 31
0.0
  0
LINE
  5
5D1
  8
0
 10
-0.565689
 20
-0.601044
 30
0.0
 11
-0.558624
 21
-0.608109
 31
0.0
  0
LINE
  5
5D2
  8
0
 10
-0.558624
 20
-0.608109
 30
0.0
 11
-1.99899
 21
-2.04848
 31
0.0
  0
LINE
  5
5D3
  8
0
 10
-1.99899
 20
-2.04848
 30
0.0
 11
-2.00606
 21
-2.04141
 31
0.0
  0
LINE
  5
5D4
  8
0
 10
0.558624
 20
-0.608109
 30
0.0
 11
0.565689
 21
-0.601044
 31
0.0
  0
LINE
  5
5D5
  8
0
 10
0.565689
 20
-0.601044
 30
0.0
 11
2.00606
 21
-2.04141
 31
0.0
  0
LINE
  5
5D6
  8
0
 10
2.00606
 20
-2.04141
 30
0.0
 11
1.99899
 21
-2.04848
 31
0.0
  0
LINE
  5
5D7
  8
0
 10
1.99899
 20
-2.04848
 30
0.0
 11
0.558624
 21
-0.608109
 31
0.0
  0
LINE
  5
5D8
  8
0
 10
-1.99191
 20
-2.05556
 30
0.0
 11
-0.551544
 21
-0.615189
 31
0.0
  0
LINE
  5
5D9
  8
0
 10
-0.551544
 20
-0.615189
 30
0.0
 11
-0.544479
 21
-0.622253
 31
0.0
  0
LINE
  5
5DA
  8
0
 10
-0.544479
 20
-0.622253
 30
0.0
 11
-1.98485
 21
-2.06262
 31
0.0
  0
LINE
  5
5DB
  8
0
 10
-1.98485
 20
-2.06262
 30
0.0
 11
-1.99191
 21
-2.05556
 31
0.0
  0
LINE
  5
5DC
  8
0
 10
0.544479
 20
-0.622253
 30
0.0
 11
0.551544
 21
-0.615189
 31
0.0
  0
LINE
  5
5DD
  8
0
 10
0.551544
 20
-0.615189
 30
0.0
 11
1.99191
 21
-2.05556
 31
0.0
  0
LINE
  5
5DE
  8
0
 10
1.99191
 20
-2.05556
 30
0.0
 11
1.98485
 21
-2.06262
 31
0.0
  0
LINE
  5
5DF
  8
0
 10
1.98485
 20
-2.06262
 30
0.0
 11
0.544479
 21
-0.622253
 31
0.0
  0
LINE
  5
5E0
  8
0
 10
-1.97778
 20
-2.06969
 30
0.0
 11
-0.537415
 21
-0.629318
 31
0.0
  0
LINE
  5
5E1
  8
0
 10
-0.537415
 20
-0.629318
 30
0.0
 11
-0.530334
 21
-0.636398
 31
0.0
  0
LINE
  5
5E2
  8
0
 10
-0.530334
 20
-0.636398
 30
0.0
 11
-1.9707
 21
-2.07677
 31
0.0
  0
LINE
  5
5E3
  8
0
 10
-1.9707
 20
-2.07677
 30
0.0
 11
-1.97778
 21
-2.06969
 31
0.0
  0
LINE
  5
5E4
  8
0
 10
0.530334
 20
-0.636398
 30
0.0
 11
0.537415
 21
-0.629318
 31
0.0
  0
LINE
  5
5E5
  8
0
 10
0.537415
 20
-0.629318
 30
0.0
 11
1.97778
 21
-2.06969
 31
0.0
  0
LINE
  5
5E6
  8
0
 10
1.97778
 20
-2.06969
 30
0.0
 11
1.9707
 21
-2.07677
 31
0.0
  0
LINE
  5
5E7
  8
0
 10
1.9707
 20
-2.07677
 30
0.0
 11
0.530334
 21
-0.636398
 31
0.0
  0
LINE
  5
5E8
  8
0
 10
-1.96364
 20
-2.08383
 30
0.0
 11
-0.52327
 21
-0.643463
 31
0.0
  0
LINE
  5
5E9
  8
0
 10
-0.52327
 20
-0.643463
 30
0.0
 11
-0.516205
 21
-0.650528
 31
0.0
  0
LINE
  5
5EA
  8
0
 10
-0.516205
 20
-0.650528
 30
0.0
 11
-1.95657
 21
-2.0909
 31
0.0
  0
LINE
  5
5EB
  8
0
 10
-1.95657
 20
-2.0909
 30
0.0
 11
-1.96364
 21
-2.08383
 31
0.0
  0
LINE
  5
5EC
  8
0
 10
0.516205
 20
-0.650528
 30
0.0
 11
0.52327
 21
-0.643463
 31
0.0
  0
LINE
  5
5ED
  8
0
 10
0.52327
 20
-0.643463
 30
0.0
 11
1.96364
 21
-2.08383
 31
0.0
  0
LINE
  5
5EE
  8
0
 10
1.96364
 20
-2.08383
 30
0.0
 11
1.95657
 21
-2.0909
 31
0.0
  0
LINE
  5
5EF
  8
0
 10
1.95657
 20
-2.0909
 30
0.0
 11
0.516205
 21
-0.650528
 31
0.0
  0
LINE
  5
5F0
  8
0
 10
-1.94949
 20
-2.09798
 30
0.0
 11
-0.509125
 21
-0.657608
 31
0.0
  0
LINE
  5
5F1
  8
0
 10
-0.509125
 20
-0.657608
 30
0.0
 11
-0.50206
 21
-0.664673
 31
0.0
  0
LINE
  5
5F2
  8
0
 10
-0.50206
 20
-0.664673
 30
0.0
 11
-1.94243
 21
-2.10504
 31
0.0
  0
LINE
  5
5F3
  8
0
 10
-1.94243
 20
-2.10504
 30
0.0
 11
-1.94949
 21
-2.09798
 31
0.0
  0
LINE
  5
5F4
  8
0
 10
0.50206
 20
-0.664673
 30
0.0
 11
0.509125
 21
-0.657608
 31
0.0
  0
LINE
  5
5F5
  8
0
 10
0.509125
 20
-0.657608
 30
0.0
 11
1.94949
 21
-2.09798
 31
0.0
  0
LINE
  5
5F6
  8
0
 10
1.94949
 20
-2.09798
 30
0.0
 11
1.94243
 21
-2.10504
 31
0.0
  0
LINE
  5
5F7
  8
0
 10
1.94243
 20
-2.10504
 30
0.0
 11
0.50206
 21
-0.664673
 31
0.0
  0
LINE
  5
5F8
  8
0
 10
-1.93535
 20
-2.11212
 30
0.0
 11
-0.49498
 21
-0.671753
 31
0.0
  0
LINE
  5
5F9
  8
0
 10
-0.49498
 20
-0.671753
 30
0.0
 11
-0.487915
 21
-0.678818
 31
0.0
  0
LINE
  5
5FA
  8
0
 10
-0.487915
 20
-0.678818
 30
0.0
 11
-1.92828
 21
-2.11919
 31
0.0
  0
LINE
  5
5FB
  8
0
 10
-1.92828
 20
-2.11919
 30
0.0
 11
-1.93535
 21
-2.11212
 31
0.0
  0
LINE
  5
5FC
  8
0
 10
0.487915
 20
-0.678818
 30
0.0
 11
0.49498
 21
-0.671753
 31
0.0
  0
LINE
  5
5FD
  8
0
 10
0.49498
 20
-0.671753
 30
0.0
 11
1.93535
 21
-2.11212
 31
0.0
  0
LINE
  5
5FE
  8
0
 10
1.93535
 20
-2.11212
 30
0.0
 11
1.92828
 21
-2.11919
 31
0.0
  0
LINE
  5
5FF
  8
0
 10
1.92828
 20
-2.11919
 30
0.0
 11
0.487915
 21
-0.678818
 31
0.0
  0
LINE
  5
600
  8
0
 10
0.473755
 20
-0.692963
 30
0.0
 11
0.480835
 21
-0.685883
 31
0.0
  0
LINE
  5
601
  8
0
 10
0.480835
 20
-0.685883
 30
0.0
 11
1.9212
 21
-2.12625
 31
0.0
  0
LINE
  5
602
  8
0
 10
1.9212
 20
-2.12625
 30
0.0
 11
1.91412
 21
-2.13333
 31
0.0
  0
LINE
  5
603
  8
0
 10
1.91412
 20
-2.13333
 30
0.0
 11
0.473755
 21
-0.692963
 31
0.0
  0
LINE
  5
604
  8
0
 10
-1.9212
 20
-2.12625
 30
0.0
 11
-0.480835
 21
-0.685883
 31
0.0
  0
LINE
  5
605
  8
0
 10
-0.480835
 20
-0.685883
 30
0.0
 11
-0.473755
 21
-0.692963
 31
0.0
  0
LINE
  5
606
  8
0
 10
-0.473755
 20
-0.692963
 30
0.0
 11
-1.91412
 21
-2.13333
 31
0.0
  0
LINE
  5
607
  8
0
 10
-1.91412
 20
-2.13333
 30
0.0
 11
-1.9212
 21
-2.12625
 31
0.0
  0
LINE
  5
608
  8
0
 10
-1.90706
 20
-2.1404
 30
0.0
 11
-0.46669
 21
-0.700027
 31
0.0
  0
LINE
  5
609
  8
0
 10
-0.46669
 20
-0.700027
 30
0.0
 11
-0.459625
 21
-0.707092
 31
0.0
  0
LINE
  5
60A
  8
0
 10
-0.459625
 20
-0.707092
 30
0.0
 11
-1.89999
 21
-2.14746
 31
0.0
  0
LINE
  5
60B
  8
0
 10
-1.89999
 20
-2.14746
 30
0.0
 11
-1.90706
 21
-2.1404
 31
0.0
  0
LINE
  5
60C
  8
0
 10
0.459625
 20
-0.707092
 30
0.0
 11
0.46669
 21
-0.700027
 31
0.0
  0
LINE
  5
60D
  8
0
 10
0.46669
 20
-0.700027
 30
0.0
 11
1.90706
 21
-2.1404
 31
0.0
  0
LINE
  5
60E
  8
0
 10
1.90706
 20
-2.1404
 30
0.0
 11
1.89999
 21
-2.14746
 31
0.0
  0
LINE
  5
60F
  8
0
 10
1.89999
 20
-2.14746
 30
0.0
 11
0.459625
 21
-0.707092
 31
0.0
  0
LINE
  5
610
  8
0
 10
0.44548
 20
-0.721237
 30
0.0
 11
0.452545
 21
-0.714172
 31
0.0
  0
LINE
  5
611
  8
0
 10
0.452545
 20
-0.714172
 30
0.0
 11
1.89291
 21
-2.15454
 31
0.0
  0
LINE
  5
612
  8
0
 10
1.89291
 20
-2.15454
 30
0.0
 11
1.88585
 21
-2.16161
 31
0.0
  0
LINE
  5
613
  8
0
 10
1.88585
 20
-2.16161
 30
0.0
 11
0.44548
 21
-0.721237
 31
0.0
  0
LINE
  5
614
  8
0
 10
-1.89291
 20
-2.15454
 30
0.0
 11
-0.452545
 21
-0.714172
 31
0.0
  0
LINE
  5
615
  8
0
 10
-0.452545
 20
-0.714172
 30
0.0
 11
-0.44548
 21
-0.721237
 31
0.0
  0
LINE
  5
616
  8
0
 10
-0.44548
 20
-0.721237
 30
0.0
 11
-1.88585
 21
-2.16161
 31
0.0
  0
LINE
  5
617
  8
0
 10
-1.88585
 20
-2.16161
 30
0.0
 11
-1.89291
 21
-2.15454
 31
0.0
  0
LINE
  5
618
  8
0
 10
-1.87878
 20
-2.16869
 30
0.0
 11
-0.438416
 21
-0.728317
 31
0.0
  0
LINE
  5
619
  8
0
 10
-0.438416
 20
-0.728317
 30
0.0
 11
-0.431335
 21
-0.735382
 31
0.0
  0
LINE
  5
61A
  8
0
 10
-0.431335
 20
-0.735382
 30
0.0
 11
-1.8717
 21
-2.17575
 31
0.0
  0
LINE
  5
61B
  8
0
 10
-1.8717
 20
-2.17575
 30
0.0
 11
-1.87878
 21
-2.16869
 31
0.0
  0
LINE
  5
61C
  8
0
 10
0.431335
 20
-0.735382
 30
0.0
 11
0.438416
 21
-0.728317
 31
0.0
  0
LINE
  5
61D
  8
0
 10
0.438416
 20
-0.728317
 30
0.0
 11
1.87878
 21
-2.16869
 31
0.0
  0
LINE
  5
61E
  8
0
 10
1.87878
 20
-2.16869
 30
0.0
 11
1.8717
 21
-2.17575
 31
0.0
  0
LINE
  5
61F
  8
0
 10
1.8717
 20
-2.17575
 30
0.0
 11
0.431335
 21
-0.735382
 31
0.0
  0
LINE
  5
620
  8
0
 10
-1.86464
 20
-2.18283
 30
0.0
 11
-0.424271
 21
-0.742462
 31
0.0
  0
LINE
  5
621
  8
0
 10
-0.424271
 20
-0.742462
 30
0.0
 11
-0.417206
 21
-0.749527
 31
0.0
  0
LINE
  5
622
  8
0
 10
-0.417206
 20
-0.749527
 30
0.0
 11
-1.85757
 21
-2.1899
 31
0.0
  0
LINE
  5
623
  8
0
 10
-1.85757
 20
-2.1899
 30
0.0
 11
-1.86464
 21
-2.18283
 31
0.0
  0
LINE
  5
624
  8
0
 10
0.417206
 20
-0.749527
 30
0.0
 11
0.424271
 21
-0.742462
 31
0.0
  0
LINE
  5
625
  8
0
 10
0.424271
 20
-0.742462
 30
0.0
 11
1.86464
 21
-2.18283
 31
0.0
  0
LINE
  5
626
  8
0
 10
1.86464
 20
-2.18283
 30
0.0
 11
1.85757
 21
-2.1899
 31
0.0
  0
LINE
  5
627
  8
0
 10
1.85757
 20
-2.1899
 30
0.0
 11
0.417206
 21
-0.749527
 31
0.0
  0
LINE
  5
628
  8
0
 10
-1.85049
 20
-2.19698
 30
0.0
 11
-0.410126
 21
-0.756607
 31
0.0
  0
LINE
  5
629
  8
0
 10
-0.410126
 20
-0.756607
 30
0.0
 11
-0.403061
 21
-0.763672
 31
0.0
  0
LINE
  5
62A
  8
0
 10
-0.403061
 20
-0.763672
 30
0.0
 11
-1.84343
 21
-2.20404
 31
0.0
  0
LINE
  5
62B
  8
0
 10
-1.84343
 20
-2.20404
 30
0.0
 11
-1.85049
 21
-2.19698
 31
0.0
  0
LINE
  5
62C
  8
0
 10
0.403061
 20
-0.763672
 30
0.0
 11
0.410126
 21
-0.756607
 31
0.0
  0
LINE
  5
62D
  8
0
 10
0.410126
 20
-0.756607
 30
0.0
 11
1.85049
 21
-2.19698
 31
0.0
  0
LINE
  5
62E
  8
0
 10
1.85049
 20
-2.19698
 30
0.0
 11
1.84343
 21
-2.20404
 31
0.0
  0
LINE
  5
62F
  8
0
 10
1.84343
 20
-2.20404
 30
0.0
 11
0.403061
 21
-0.763672
 31
0.0
  0
LINE
  5
630
  8
0
 10
-1.83635
 20
-2.21112
 30
0.0
 11
-0.395981
 21
-0.770752
 31
0.0
  0
LINE
  5
631
  8
0
 10
-0.395981
 20
-0.770752
 30
0.0
 11
-0.388916
 21
-0.777817
 31
0.0
  0
LINE
  5
632
  8
0
 10
-0.388916
 20
-0.777817
 30
0.0
 11
-1.82928
 21
-2.21819
 31
0.0
  0
LINE
  5
633
  8
0
 10
-1.82928
 20
-2.21819
 30
0.0
 11
-1.83635
 21
-2.21112
 31
0.0
  0
LINE
  5
634
  8
0
 10
0.388916
 20
-0.777817
 30
0.0
 11
0.395981
 21
-0.770752
 31
0.0
  0
LINE
  5
635
  8
0
 10
0.395981
 20
-0.770752
 30
0.0
 11
1.83635
 21
-2.21112
 31
0.0
  0
LINE
  5
636
  8
0
 10
1.83635
 20
-2.21112
 30
0.0
 11
1.82928
 21
-2.21819
 31
0.0
  0
LINE
  5
637
  8
0
 10
1.82928
 20
-2.21819
 30
0.0
 11
0.388916
 21
-0.777817
 31
0.0
  0
LINE
  5
638
  8
0
 10
-1.82222
 20
-2.22525
 30
0.0
 11
-0.381851
 21
-0.784882
 31
0.0
  0
LINE
  5
639
  8
0
 10
-0.381851
 20
-0.784882
 30
0.0
 11
-0.374771
 21
-0.791962
 31
0.0
  0
LINE
  5
63A
  8
0
 10
-0.374771
 20
-0.791962
 30
0.0
 11
-1.81514
 21
-2.23233
 31
0.0
  0
LINE
  5
63B
  8
0
 10
-1.81514
 20
-2.23233
 30
0.0
 11
-1.82222
 21
-2.22525
 31
0.0
  0
LINE
  5
63C
  8
0
 10
0.374771
 20
-0.791962
 30
0.0
 11
0.381851
 21
-0.784882
 31
0.0
  0
LINE
  5
63D
  8
0
 10
0.381851
 20
-0.784882
 30
0.0
 11
1.82222
 21
-2.22525
 31
0.0
  0
LINE
  5
63E
  8
0
 10
1.82222
 20
-2.22525
 30
0.0
 11
1.81514
 21
-2.23233
 31
0.0
  0
LINE
  5
63F
  8
0
 10
1.81514
 20
-2.23233
 30
0.0
 11
0.374771
 21
-0.791962
 31
0.0
  0
LINE
  5
640
  8
0
 10
-1.80807
 20
-2.2394
 30
0.0
 11
-0.367706
 21
-0.799026
 31
0.0
  0
LINE
  5
641
  8
0
 10
-0.367706
 20
-0.799026
 30
0.0
 11
-0.360626
 21
-0.806091
 31
0.0
  0
LINE
  5
642
  8
0
 10
-0.360626
 20
-0.806091
 30
0.0
 11
-1.80099
 21
-2.24646
 31
0.0
  0
LINE
  5
643
  8
0
 10
-1.80099
 20
-2.24646
 30
0.0
 11
-1.80807
 21
-2.2394
 31
0.0
  0
LINE
  5
644
  8
0
 10
0.360626
 20
-0.806091
 30
0.0
 11
0.367706
 21
-0.799026
 31
0.0
  0
LINE
  5
645
  8
0
 10
0.367706
 20
-0.799026
 30
0.0
 11
1.80807
 21
-2.2394
 31
0.0
  0
LINE
  5
646
  8
0
 10
1.80807
 20
-2.2394
 30
0.0
 11
1.80099
 21
-2.24646
 31
0.0
  0
LINE
  5
647
  8
0
 10
1.80099
 20
-2.24646
 30
0.0
 11
0.360626
 21
-0.806091
 31
0.0
  0
LINE
  5
648
  8
0
 10
-1.79393
 20
-2.25354
 30
0.0
 11
-0.353561
 21
-0.813171
 31
0.0
  0
LINE
  5
649
  8
0
 10
-0.353561
 20
-0.813171
 30
0.0
 11
-0.346481
 21
-0.820236
 31
0.0
  0
LINE
  5
64A
  8
0
 10
-0.346481
 20
-0.820236
 30
0.0
 11
-1.78685
 21
-2.2606
 31
0.0
  0
LINE
  5
64B
  8
0
 10
-1.78685
 20
-2.2606
 30
0.0
 11
-1.79393
 21
-2.25354
 31
0.0
  0
LINE
  5
64C
  8
0
 10
0.346481
 20
-0.820236
 30
0.0
 11
0.353561
 21
-0.813171
 31
0.0
  0
LINE
  5
64D
  8
0
 10
0.353561
 20
-0.813171
 30
0.0
 11
1.79393
 21
-2.25354
 31
0.0
  0
LINE
  5
64E
  8
0
 10
1.79393
 20
-2.25354
 30
0.0
 11
1.78685
 21
-2.2606
 31
0.0
  0
LINE
  5
64F
  8
0
 10
1.78685
 20
-2.2606
 30
0.0
 11
0.346481
 21
-0.820236
 31
0.0
  0
LINE
  5
650
  8
0
 10
0.332336
 20
-0.834381
 30
0.0
 11
0.339417
 21
-0.827301
 31
0.0
  0
LINE
  5
651
  8
0
 10
0.339417
 20
-0.827301
 30
0.0
 11
1.77979
 21
-2.26767
 31
0.0
  0
LINE
  5
652
  8
0
 10
1.77979
 20
-2.26767
 30
0.0
 11
1.77271
 21
-2.27475
 31
0.0
  0
LINE
  5
653
  8
0
 10
1.77271
 20
-2.27475
 30
0.0
 11
0.332336
 21
-0.834381
 31
0.0
  0
LINE
  5
654
  8
0
 10
-1.77979
 20
-2.26767
 30
0.0
 11
-0.339417
 21
-0.827301
 31
0.0
  0
LINE
  5
655
  8
0
 10
-0.339417
 20
-0.827301
 30
0.0
 11
-0.332336
 21
-0.834381
 31
0.0
  0
LINE
  5
656
  8
0
 10
-0.332336
 20
-0.834381
 30
0.0
 11
-1.77271
 21
-2.27475
 31
0.0
  0
LINE
  5
657
  8
0
 10
-1.77271
 20
-2.27475
 30
0.0
 11
-1.77979
 21
-2.26767
 31
0.0
  0
LINE
  5
658
  8
0
 10
0.318192
 20
-0.848526
 30
0.0
 11
0.325272
 21
-0.841446
 31
0.0
  0
LINE
  5
659
  8
0
 10
0.325272
 20
-0.841446
 30
0.0
 11
1.76564
 21
-2.28181
 31
0.0
  0
LINE
  5
65A
  8
0
 10
1.76564
 20
-2.28181
 30
0.0
 11
1.75856
 21
-2.28889
 31
0.0
  0
LINE
  5
65B
  8
0
 10
1.75856
 20
-2.28889
 30
0.0
 11
0.318192
 21
-0.848526
 31
0.0
  0
LINE
  5
65C
  8
0
 10
-1.76564
 20
-2.28181
 30
0.0
 11
-0.325272
 21
-0.841446
 31
0.0
  0
LINE
  5
65D
  8
0
 10
-0.325272
 20
-0.841446
 30
0.0
 11
-0.318192
 21
-0.848526
 31
0.0
  0
LINE
  5
65E
  8
0
 10
-0.318192
 20
-0.848526
 30
0.0
 11
-1.75856
 21
-2.28889
 31
0.0
  0
LINE
  5
65F
  8
0
 10
-1.75856
 20
-2.28889
 30
0.0
 11
-1.76564
 21
-2.28181
 31
0.0
  0
LINE
  5
660
  8
0
 10
-1.7515
 20
-2.29596
 30
0.0
 11
-0.311127
 21
-0.855591
 31
0.0
  0
LINE
  5
661
  8
0
 10
-0.311127
 20
-0.855591
 30
0.0
 11
-0.304062
 21
-0.862656
 31
0.0
  0
LINE
  5
662
  8
0
 10
-0.304062
 20
-0.862656
 30
0.0
 11
-1.74443
 21
-2.30302
 31
0.0
  0
LINE
  5
663
  8
0
 10
-1.74443
 20
-2.30302
 30
0.0
 11
-1.7515
 21
-2.29596
 31
0.0
  0
LINE
  5
664
  8
0
 10
0.304062
 20
-0.862656
 30
0.0
 11
0.311127
 21
-0.855591
 31
0.0
  0
LINE
  5
665
  8
0
 10
0.311127
 20
-0.855591
 30
0.0
 11
1.7515
 21
-2.29596
 31
0.0
  0
LINE
  5
666
  8
0
 10
1.7515
 20
-2.29596
 30
0.0
 11
1.74443
 21
-2.30302
 31
0.0
  0
LINE
  5
667
  8
0
 10
1.74443
 20
-2.30302
 30
0.0
 11
0.304062
 21
-0.862656
 31
0.0
  0
LINE
  5
668
  8
0
 10
-1.73735
 20
-2.3101
 30
0.0
 11
-0.296982
 21
-0.869736
 31
0.0
  0
LINE
  5
669
  8
0
 10
-0.296982
 20
-0.869736
 30
0.0
 11
-0.289917
 21
-0.876801
 31
0.0
  0
LINE
  5
66A
  8
0
 10
-0.289917
 20
-0.876801
 30
0.0
 11
-1.73029
 21
-2.31717
 31
0.0
  0
LINE
  5
66B
  8
0
 10
-1.73029
 20
-2.31717
 30
0.0
 11
-1.73735
 21
-2.3101
 31
0.0
  0
LINE
  5
66C
  8
0
 10
0.289917
 20
-0.876801
 30
0.0
 11
0.296982
 21
-0.869736
 31
0.0
  0
LINE
  5
66D
  8
0
 10
0.296982
 20
-0.869736
 30
0.0
 11
1.73735
 21
-2.3101
 31
0.0
  0
LINE
  5
66E
  8
0
 10
1.73735
 20
-2.3101
 30
0.0
 11
1.73029
 21
-2.31717
 31
0.0
  0
LINE
  5
66F
  8
0
 10
1.73029
 20
-2.31717
 30
0.0
 11
0.289917
 21
-0.876801
 31
0.0
  0
LINE
  5
670
  8
0
 10
-1.72322
 20
-2.32425
 30
0.0
 11
-0.282852
 21
-0.883881
 31
0.0
  0
LINE
  5
671
  8
0
 10
-0.282852
 20
-0.883881
 30
0.0
 11
-0.275772
 21
-0.890945
 31
0.0
  0
LINE
  5
672
  8
0
 10
-0.275772
 20
-0.890945
 30
0.0
 11
-1.71614
 21
-2.33131
 31
0.0
  0
LINE
  5
673
  8
0
 10
-1.71614
 20
-2.33131
 30
0.0
 11
-1.72322
 21
-2.32425
 31
0.0
  0
LINE
  5
674
  8
0
 10
0.275772
 20
-0.890945
 30
0.0
 11
0.282852
 21
-0.883881
 31
0.0
  0
LINE
  5
675
  8
0
 10
0.282852
 20
-0.883881
 30
0.0
 11
1.72322
 21
-2.32425
 31
0.0
  0
LINE
  5
676
  8
0
 10
1.72322
 20
-2.32425
 30
0.0
 11
1.71614
 21
-2.33131
 31
0.0
  0
LINE
  5
677
  8
0
 10
1.71614
 20
-2.33131
 30
0.0
 11
0.275772
 21
-0.890945
 31
0.0
  0
LINE
  5
678
  8
0
 10
-1.70908
 20
-2.33839
 30
0.0
 11
-0.268707
 21
-0.898026
 31
0.0
  0
LINE
  5
679
  8
0
 10
-0.268707
 20
-0.898026
 30
0.0
 11
-0.261642
 21
-0.90509
 31
0.0
  0
LINE
  5
67A
  8
0
 10
-0.261642
 20
-0.90509
 30
0.0
 11
-1.70201
 21
-2.34546
 31
0.0
  0
LINE
  5
67B
  8
0
 10
-1.70201
 20
-2.34546
 30
0.0
 11
-1.70908
 21
-2.33839
 31
0.0
  0
LINE
  5
67C
  8
0
 10
0.261642
 20
-0.90509
 30
0.0
 11
0.268707
 21
-0.898026
 31
0.0
  0
LINE
  5
67D
  8
0
 10
0.268707
 20
-0.898026
 30
0.0
 11
1.70908
 21
-2.33839
 31
0.0
  0
LINE
  5
67E
  8
0
 10
1.70908
 20
-2.33839
 30
0.0
 11
1.70201
 21
-2.34546
 31
0.0
  0
LINE
  5
67F
  8
0
 10
1.70201
 20
-2.34546
 30
0.0
 11
0.261642
 21
-0.90509
 31
0.0
  0
LINE
  5
680
  8
0
 10
-1.69493
 20
-2.35254
 30
0.0
 11
-0.254562
 21
-0.91217
 31
0.0
  0
LINE
  5
681
  8
0
 10
-0.254562
 20
-0.91217
 30
0.0
 11
-0.247498
 21
-0.919235
 31
0.0
  0
LINE
  5
682
  8
0
 10
-0.247498
 20
-0.919235
 30
0.0
 11
-1.68787
 21
-2.3596
 31
0.0
  0
LINE
  5
683
  8
0
 10
-1.68787
 20
-2.3596
 30
0.0
 11
-1.69493
 21
-2.35254
 31
0.0
  0
LINE
  5
684
  8
0
 10
0.247498
 20
-0.919235
 30
0.0
 11
0.254562
 21
-0.91217
 31
0.0
  0
LINE
  5
685
  8
0
 10
0.254562
 20
-0.91217
 30
0.0
 11
1.69493
 21
-2.35254
 31
0.0
  0
LINE
  5
686
  8
0
 10
1.69493
 20
-2.35254
 30
0.0
 11
1.68787
 21
-2.3596
 31
0.0
  0
LINE
  5
687
  8
0
 10
1.68787
 20
-2.3596
 30
0.0
 11
0.247498
 21
-0.919235
 31
0.0
  0
LINE
  5
688
  8
0
 10
-1.6808
 20
-2.36667
 30
0.0
 11
-0.240433
 21
-0.9263
 31
0.0
  0
LINE
  5
689
  8
0
 10
-0.240433
 20
-0.9263
 30
0.0
 11
-0.233353
 21
-0.93338
 31
0.0
  0
LINE
  5
68A
  8
0
 10
-0.233353
 20
-0.93338
 30
0.0
 11
-1.67372
 21
-2.37375
 31
0.0
  0
LINE
  5
68B
  8
0
 10
-1.67372
 20
-2.37375
 30
0.0
 11
-1.6808
 21
-2.36667
 31
0.0
  0
LINE
  5
68C
  8
0
 10
0.233353
 20
-0.93338
 30
0.0
 11
0.240433
 21
-0.9263
 31
0.0
  0
LINE
  5
68D
  8
0
 10
0.240433
 20
-0.9263
 30
0.0
 11
1.6808
 21
-2.36667
 31
0.0
  0
LINE
  5
68E
  8
0
 10
1.6808
 20
-2.36667
 30
0.0
 11
1.67372
 21
-2.37375
 31
0.0
  0
LINE
  5
68F
  8
0
 10
1.67372
 20
-2.37375
 30
0.0
 11
0.233353
 21
-0.93338
 31
0.0
  0
LINE
  5
690
  8
0
 10
-1.66666
 20
-2.38081
 30
0.0
 11
-0.226288
 21
-0.940445
 31
0.0
  0
LINE
  5
691
  8
0
 10
-0.226288
 20
-0.940445
 30
0.0
 11
-0.219208
 21
-0.947525
 31
0.0
  0
LINE
  5
692
  8
0
 10
-0.219208
 20
-0.947525
 30
0.0
 11
-1.65958
 21
-2.38789
 31
0.0
  0
LINE
  5
693
  8
0
 10
-1.65958
 20
-2.38789
 30
0.0
 11
-1.66666
 21
-2.38081
 31
0.0
  0
LINE
  5
694
  8
0
 10
0.219208
 20
-0.947525
 30
0.0
 11
0.226288
 21
-0.940445
 31
0.0
  0
LINE
  5
695
  8
0
 10
0.226288
 20
-0.940445
 30
0.0
 11
1.66666
 21
-2.38081
 31
0.0
  0
LINE
  5
696
  8
0
 10
1.66666
 20
-2.38081
 30
0.0
 11
1.65958
 21
-2.38789
 31
0.0
  0
LINE
  5
697
  8
0
 10
1.65958
 20
-2.38789
 30
0.0
 11
0.219208
 21
-0.947525
 31
0.0
  0
LINE
  5
698
  8
0
 10
-1.65251
 20
-2.39496
 30
0.0
 11
-0.212143
 21
-0.95459
 31
0.0
  0
LINE
  5
699
  8
0
 10
-0.212143
 20
-0.95459
 30
0.0
 11
-0.205063
 21
-0.961655
 31
0.0
  0
LINE
  5
69A
  8
0
 10
-0.205063
 20
-0.961655
 30
0.0
 11
-1.64543
 21
-2.40202
 31
0.0
  0
LINE
  5
69B
  8
0
 10
-1.64543
 20
-2.40202
 30
0.0
 11
-1.65251
 21
-2.39496
 31
0.0
  0
LINE
  5
69C
  8
0
 10
0.205063
 20
-0.961655
 30
0.0
 11
0.212143
 21
-0.95459
 31
0.0
  0
LINE
  5
69D
  8
0
 10
0.212143
 20
-0.95459
 30
0.0
 11
1.65251
 21
-2.39496
 31
0.0
  0
LINE
  5
69E
  8
0
 10
1.65251
 20
-2.39496
 30
0.0
 11
1.64543
 21
-2.40202
 31
0.0
  0
LINE
  5
69F
  8
0
 10
1.64543
 20
-2.40202
 30
0.0
 11
0.205063
 21
-0.961655
 31
0.0
  0
LINE
  5
6A0
  8
0
 10
-1.63837
 20
-2.4091
 30
0.0
 11
-0.197998
 21
-0.968735
 31
0.0
  0
LINE
  5
6A1
  8
0
 10
-0.197998
 20
-0.968735
 30
0.0
 11
-0.190918
 21
-0.9758
 31
0.0
  0
LINE
  5
6A2
  8
0
 10
-0.190918
 20
-0.9758
 30
0.0
 11
-1.63129
 21
-2.41617
 31
0.0
  0
LINE
  5
6A3
  8
0
 10
-1.63129
 20
-2.41617
 30
0.0
 11
-1.63837
 21
-2.4091
 31
0.0
  0
LINE
  5
6A4
  8
0
 10
0.190918
 20
-0.9758
 30
0.0
 11
0.197998
 21
-0.968735
 31
0.0
  0
LINE
  5
6A5
  8
0
 10
0.197998
 20
-0.968735
 30
0.0
 11
1.63837
 21
-2.4091
 31
0.0
  0
LINE
  5
6A6
  8
0
 10
1.63837
 20
-2.4091
 30
0.0
 11
1.63129
 21
-2.41617
 31
0.0
  0
LINE
  5
6A7
  8
0
 10
1.63129
 20
-2.41617
 30
0.0
 11
0.190918
 21
-0.9758
 31
0.0
  0
LINE
  5
6A8
  8
0
 10
-1.62422
 20
-2.42323
 30
0.0
 11
-0.183853
 21
-0.982864
 31
0.0
  0
LINE
  5
6A9
  8
0
 10
-0.183853
 20
-0.982864
 30
0.0
 11
-0.176773
 21
-0.989944
 31
0.0
  0
LINE
  5
6AA
  8
0
 10
-0.176773
 20
-0.989944
 30
0.0
 11
-1.61714
 21
-2.43031
 31
0.0
  0
LINE
  5
6AB
  8
0
 10
-1.61714
 20
-2.43031
 30
0.0
 11
-1.62422
 21
-2.42323
 31
0.0
  0
LINE
  5
6AC
  8
0
 10
0.176773
 20
-0.989944
 30
0.0
 11
0.183853
 21
-0.982864
 31
0.0
  0
LINE
  5
6AD
  8
0
 10
0.183853
 20
-0.982864
 30
0.0
 11
1.62422
 21
-2.42323
 31
0.0
  0
LINE
  5
6AE
  8
0
 10
1.62422
 20
-2.42323
 30
0.0
 11
1.61714
 21
-2.43031
 31
0.0
  0
LINE
  5
6AF
  8
0
 10
1.61714
 20
-2.43031
 30
0.0
 11
0.176773
 21
-0.989944
 31
0.0
  0
LINE
  5
6B0
  8
0
 10
-1.61008
 20
-2.43738
 30
0.0
 11
-0.169708
 21
-0.997009
 31
0.0
  0
LINE
  5
6B1
  8
0
 10
-0.169708
 20
-0.997009
 30
0.0
 11
-0.162643
 21
-1.00407
 31
0.0
  0
LINE
  5
6B2
  8
0
 10
-0.162643
 20
-1.00407
 30
0.0
 11
-1.60301
 21
-2.44444
 31
0.0
  0
LINE
  5
6B3
  8
0
 10
-1.60301
 20
-2.44444
 30
0.0
 11
-1.61008
 21
-2.43738
 31
0.0
  0
LINE
  5
6B4
  8
0
 10
0.162643
 20
-1.00407
 30
0.0
 11
0.169708
 21
-0.997009
 31
0.0
  0
LINE
  5
6B5
  8
0
 10
0.169708
 20
-0.997009
 30
0.0
 11
1.61008
 21
-2.43738
 31
0.0
  0
LINE
  5
6B6
  8
0
 10
1.61008
 20
-2.43738
 30
0.0
 11
1.60301
 21
-2.44444
 31
0.0
  0
LINE
  5
6B7
  8
0
 10
1.60301
 20
-2.44444
 30
0.0
 11
0.162643
 21
-1.00407
 31
0.0
  0
LINE
  5
6B8
  8
0
 10
-1.59593
 20
-2.45152
 30
0.0
 11
-0.155563
 21
-1.01115
 31
0.0
  0
LINE
  5
6B9
  8
0
 10
-0.155563
 20
-1.01115
 30
0.0
 11
-0.148499
 21
-1.01823
 31
0.0
  0
LINE
  5
6BA
  8
0
 10
-0.148499
 20
-1.01823
 30
0.0
 11
-1.58887
 21
-2.4586
 31
0.0
  0
LINE
  5
6BB
  8
0
 10
-1.58887
 20
-2.4586
 30
0.0
 11
-1.59593
 21
-2.45152
 31
0.0
  0
LINE
  5
6BC
  8
0
 10
0.148499
 20
-1.01823
 30
0.0
 11
0.155563
 21
-1.01115
 31
0.0
  0
LINE
  5
6BD
  8
0
 10
0.155563
 20
-1.01115
 30
0.0
 11
1.59593
 21
-2.45152
 31
0.0
  0
LINE
  5
6BE
  8
0
 10
1.59593
 20
-2.45152
 30
0.0
 11
1.58887
 21
-2.4586
 31
0.0
  0
LINE
  5
6BF
  8
0
 10
1.58887
 20
-2.4586
 30
0.0
 11
0.148499
 21
-1.01823
 31
0.0
  0
LINE
  5
6C0
  8
0
 10
-1.58179
 20
-2.46567
 30
0.0
 11
-0.141418
 21
-1.0253
 31
0.0
  0
LINE
  5
6C1
  8
0
 10
-0.141418
 20
-1.0253
 30
0.0
 11
-0.134354
 21
-1.03238
 31
0.0
  0
LINE
  5
6C2
  8
0
 10
-0.134354
 20
-1.03238
 30
0.0
 11
-1.57472
 21
-2.47275
 31
0.0
  0
LINE
  5
6C3
  8
0
 10
-1.57472
 20
-2.47275
 30
0.0
 11
-1.58179
 21
-2.46567
 31
0.0
  0
LINE
  5
6C4
  8
0
 10
0.134354
 20
-1.03238
 30
0.0
 11
0.141418
 21
-1.0253
 31
0.0
  0
LINE
  5
6C5
  8
0
 10
0.141418
 20
-1.0253
 30
0.0
 11
1.58179
 21
-2.46567
 31
0.0
  0
LINE
  5
6C6
  8
0
 10
1.58179
 20
-2.46567
 30
0.0
 11
1.57472
 21
-2.47275
 31
0.0
  0
LINE
  5
6C7
  8
0
 10
1.57472
 20
-2.47275
 30
0.0
 11
0.134354
 21
-1.03238
 31
0.0
  0
LINE
  5
6C8
  8
0
 10
-1.56766
 20
-2.47981
 30
0.0
 11
-0.127289
 21
-1.03944
 31
0.0
  0
LINE
  5
6C9
  8
0
 10
-0.127289
 20
-1.03944
 30
0.0
 11
-0.120209
 21
-1.04652
 31
0.0
  0
LINE
  5
6CA
  8
0
 10
-0.120209
 20
-1.04652
 30
0.0
 11
-1.56058
 21
-2.48689
 31
0.0
  0
LINE
  5
6CB
  8
0
 10
-1.56058
 20
-2.48689
 30
0.0
 11
-1.56766
 21
-2.47981
 31
0.0
  0
LINE
  5
6CC
  8
0
 10
0.120209
 20
-1.04652
 30
0.0
 11
0.127289
 21
-1.03944
 31
0.0
  0
LINE
  5
6CD
  8
0
 10
0.127289
 20
-1.03944
 30
0.0
 11
1.56766
 21
-2.47981
 31
0.0
  0
LINE
  5
6CE
  8
0
 10
1.56766
 20
-2.47981
 30
0.0
 11
1.56058
 21
-2.48689
 31
0.0
  0
LINE
  5
6CF
  8
0
 10
1.56058
 20
-2.48689
 30
0.0
 11
0.120209
 21
-1.04652
 31
0.0
  0
LINE
  5
6D0
  8
0
 10
-1.55351
 20
-2.49396
 30
0.0
 11
-0.113144
 21
-1.05359
 31
0.0
  0
LINE
  5
6D1
  8
0
 10
-0.113144
 20
-1.05359
 30
0.0
 11
-0.106079
 21
-1.06065
 31
0.0
  0
LINE
  5
6D2
  8
0
 10
-0.106079
 20
-1.06065
 30
0.0
 11
-1.54645
 21
-2.50102
 31
0.0
  0
LINE
  5
6D3
  8
0
 10
-1.54645
 20
-2.50102
 30
0.0
 11
-1.55351
 21
-2.49396
 31
0.0
  0
LINE
  5
6D4
  8
0
 10
0.106079
 20
-1.06065
 30
0.0
 11
0.113144
 21
-1.05359
 31
0.0
  0
LINE
  5
6D5
  8
0
 10
0.113144
 20
-1.05359
 30
0.0
 11
1.55351
 21
-2.49396
 31
0.0
  0
LINE
  5
6D6
  8
0
 10
1.55351
 20
-2.49396
 30
0.0
 11
1.54645
 21
-2.50102
 31
0.0
  0
LINE
  5
6D7
  8
0
 10
1.54645
 20
-2.50102
 30
0.0
 11
0.106079
 21
-1.06065
 31
0.0
  0
LINE
  5
6D8
  8
0
 10
-1.53937
 20
-2.5081
 30
0.0
 11
-0.098999
 21
-1.06773
 31
0.0
  0
LINE
  5
6D9
  8
0
 10
-0.098999
 20
-1.06773
 30
0.0
 11
-0.0919342
 21
-1.0748
 31
0.0
  0
LINE
  5
6DA
  8
0
 10
-0.0919342
 20
-1.0748
 30
0.0
 11
-1.5323
 21
-2.51517
 31
0.0
  0
LINE
  5
6DB
  8
0
 10
-1.5323
 20
-2.51517
 30
0.0
 11
-1.53937
 21
-2.5081
 31
0.0
  0
LINE
  5
6DC
  8
0
 10
0.0919342
 20
-1.0748
 30
0.0
 11
0.098999
 21
-1.06773
 31
0.0
  0
LINE
  5
6DD
  8
0
 10
0.098999
 20
-1.06773
 30
0.0
 11
1.53937
 21
-2.5081
 31
0.0
  0
LINE
  5
6DE
  8
0
 10
1.53937
 20
-2.5081
 30
0.0
 11
1.5323
 21
-2.51517
 31
0.0
  0
LINE
  5
6DF
  8
0
 10
1.5323
 20
-2.51517
 30
0.0
 11
0.0919342
 21
-1.0748
 31
0.0
  0
LINE
  5
6E0
  8
0
 10
-1.52524
 20
-2.52223
 30
0.0
 11
-0.0848694
 21
-1.08186
 31
0.0
  0
LINE
  5
6E1
  8
0
 10
-0.0848694
 20
-1.08186
 30
0.0
 11
-0.0777893
 21
-1.08894
 31
0.0
  0
LINE
  5
6E2
  8
0
 10
-0.0777893
 20
-1.08894
 30
0.0
 11
-1.51816
 21
-2.52931
 31
0.0
  0
LINE
  5
6E3
  8
0
 10
-1.51816
 20
-2.52931
 30
0.0
 11
-1.52524
 21
-2.52223
 31
0.0
  0
LINE
  5
6E4
  8
0
 10
0.0777893
 20
-1.08894
 30
0.0
 11
0.0848694
 21
-1.08186
 31
0.0
  0
LINE
  5
6E5
  8
0
 10
0.0848694
 20
-1.08186
 30
0.0
 11
1.52524
 21
-2.52223
 31
0.0
  0
LINE
  5
6E6
  8
0
 10
1.52524
 20
-2.52223
 30
0.0
 11
1.51816
 21
-2.52931
 31
0.0
  0
LINE
  5
6E7
  8
0
 10
1.51816
 20
-2.52931
 30
0.0
 11
0.0777893
 21
-1.08894
 31
0.0
  0
LINE
  5
6E8
  8
0
 10
-1.51109
 20
-2.53638
 30
0.0
 11
-0.0707245
 21
-1.09601
 31
0.0
  0
LINE
  5
6E9
  8
0
 10
-0.0707245
 20
-1.09601
 30
0.0
 11
-0.0636444
 21
-1.10307
 31
0.0
  0
LINE
  5
6EA
  8
0
 10
-0.0636444
 20
-1.10307
 30
0.0
 11
-1.50401
 21
-2.54344
 31
0.0
  0
LINE
  5
6EB
  8
0
 10
-1.50401
 20
-2.54344
 30
0.0
 11
-1.51109
 21
-2.53638
 31
0.0
  0
LINE
  5
6EC
  8
0
 10
0.0636444
 20
-1.10307
 30
0.0
 11
0.0707245
 21
-1.09601
 31
0.0
  0
LINE
  5
6ED
  8
0
 10
0.0707245
 20
-1.09601
 30
0.0
 11
1.51109
 21
-2.53638
 31
0.0
  0
LINE
  5
6EE
  8
0
 10
1.51109
 20
-2.53638
 30
0.0
 11
1.50401
 21
-2.54344
 31
0.0
  0
LINE
  5
6EF
  8
0
 10
1.50401
 20
-2.54344
 30
0.0
 11
0.0636444
 21
-1.10307
 31
0.0
  0
LINE
  5
6F0
  8
0
 10
-1.49693
 20
-2.55052
 30
0.0
 11
-0.0565643
 21
-1.11015
 31
0.0
  0
LINE
  5
6F1
  8
0
 10
-0.0565643
 20
-1.11015
 30
0.0
 11
-0.0494995
 21
-1.11722
 31
0.0
  0
LINE
  5
6F2
  8
0
 10
-0.0494995
 20
-1.11722
 30
0.0
 11
-1.48987
 21
-2.55759
 31
0.0
  0
LINE
  5
6F3
  8
0
 10
-1.48987
 20
-2.55759
 30
0.0
 11
-1.49693
 21
-2.55052
 31
0.0
  0
LINE
  5
6F4
  8
0
 10
0.0494995
 20
-1.11722
 30
0.0
 11
0.0565643
 21
-1.11015
 31
0.0
  0
LINE
  5
6F5
  8
0
 10
0.0565643
 20
-1.11015
 30
0.0
 11
1.49693
 21
-2.55052
 31
0.0
  0
LINE
  5
6F6
  8
0
 10
1.49693
 20
-2.55052
 30
0.0
 11
1.48987
 21
-2.55759
 31
0.0
  0
LINE
  5
6F7
  8
0
 10
1.48987
 20
-2.55759
 30
0.0
 11
0.0494995
 21
-1.11722
 31
0.0
  0
LINE
  5
6F8
  8
0
 10
-1.48279
 20
-2.56467
 30
0.0
 11
-0.0424194
 21
-1.1243
 31
0.0
  0
LINE
  5
6F9
  8
0
 10
-0.0424194
 20
-1.1243
 30
0.0
 11
-0.0353546
 21
-1.13136
 31
0.0
  0
LINE
  5
6FA
  8
0
 10
-0.0353546
 20
-1.13136
 30
0.0
 11
-1.47572
 21
-2.57173
 31
0.0
  0
LINE
  5
6FB
  8
0
 10
-1.47572
 20
-2.57173
 30
0.0
 11
-1.48279
 21
-2.56467
 31
0.0
  0
LINE
  5
6FC
  8
0
 10
0.0353546
 20
-1.13136
 30
0.0
 11
0.0424194
 21
-1.1243
 31
0.0
  0
LINE
  5
6FD
  8
0
 10
0.0424194
 20
-1.1243
 30
0.0
 11
1.48279
 21
-2.56467
 31
0.0
  0
LINE
  5
6FE
  8
0
 10
1.48279
 20
-2.56467
 30
0.0
 11
1.47572
 21
-2.57173
 31
0.0
  0
LINE
  5
6FF
  8
0
 10
1.47572
 20
-2.57173
 30
0.0
 11
0.0353546
 21
-1.13136
 31
0.0
  0
LINE
  5
700
  8
0
 10
-1.46866
 20
-2.5788
 30
0.0
 11
-0.0282898
 21
-1.13843
 31
0.0
  0
LINE
  5
701
  8
0
 10
-0.0282898
 20
-1.13843
 30
0.0
 11
-0.0212097
 21
-1.14551
 31
0.0
  0
LINE
  5
702
  8
0
 10
-0.0212097
 20
-1.14551
 30
0.0
 11
-1.46158
 21
-2.58588
 31
0.0
  0
LINE
  5
703
  8
0
 10
-1.46158
 20
-2.58588
 30
0.0
 11
-1.46866
 21
-2.5788
 31
0.0
  0
LINE
  5
704
  8
0
 10
0.0212097
 20
-1.14551
 30
0.0
 11
0.0282898
 21
-1.13843
 31
0.0
  0
LINE
  5
705
  8
0
 10
0.0282898
 20
-1.13843
 30
0.0
 11
1.46866
 21
-2.5788
 31
0.0
  0
LINE
  5
706
  8
0
 10
1.46866
 20
-2.5788
 30
0.0
 11
1.46158
 21
-2.58588
 31
0.0
  0
LINE
  5
707
  8
0
 10
1.46158
 20
-2.58588
 30
0.0
 11
0.0212097
 21
-1.14551
 31
0.0
  0
LINE
  5
708
  8
0
 10
0.00708008
 20
-1.15965
 30
0.0
 11
0.0141449
 21
-1.15257
 31
0.0
  0
LINE
  5
709
  8
0
 10
0.0141449
 20
-1.15257
 30
0.0
 11
1.45451
 21
-2.59294
 31
0.0
  0
LINE
  5
70A
  8
0
 10
1.45451
 20
-2.59294
 30
0.0
 11
1.44745
 21
-2.60002
 31
0.0
  0
LINE
  5
70B
  8
0
 10
1.44745
 20
-2.60002
 30
0.0
 11
0.00708008
 21
-1.15965
 31
0.0
  0
LINE
  5
70C
  8
0
 10
-1.45451
 20
-2.59294
 30
0.0
 11
-0.0141449
 21
-1.15257
 31
0.0
  0
LINE
  5
70D
  8
0
 10
-0.0141449
 20
-1.15257
 30
0.0
 11
-0.00708008
 21
-1.15965
 31
0.0
  0
LINE
  5
70E
  8
0
 10
-0.00708008
 20
-1.15965
 30
0.0
 11
-1.44745
 21
-2.60002
 31
0.0
  0
LINE
  5
70F
  8
0
 10
-1.44745
 20
-2.60002
 30
0.0
 11
-1.45451
 21
-2.59294
 31
0.0
  0
ENDSEC
  0
EOF
