  0
SECTION
  2
HEADER
  9
$ACADVER
  1
AC1009
  9
$DWGCODEPAGE
  3
ANSI_1252
  9
$INSBASE
 10
0.0
 20
0.0
 30
0.0
  9
$EXTMIN
 10
1e+20
 20
1e+20
 30
1e+20
  9
$EXTMAX
 10
-1e+20
 20
-1e+20
 30
-1e+20
  9
$LIMMIN
 10
0.0
 20
0.0
  9
$LIMMAX
 10
420.0
 20
297.0
  9
$ORTHOMODE
 70
0
  9
$REGENMODE
 70
1
  9
$FILLMODE
 70
1
  9
$DRAGMODE
 70
2
  9
$QTEXTMODE
 70
0
  9
$MIRRTEXT
 70
1
  9
$OSMODE
 70
20583
  9
$LTSCALE
 40
1.0
  9
$ATTMODE
 70
1
  9
$TEXTSIZE
 40
2.5
  9
$TRACEWID
 40
1.0
  9
$TEXTSTYLE
  7
Standard
  9
$CLAYER
  8
0
  9
$CELTYPE
  6
ByLayer
  9
$CECOLOR
 62
256
  9
$DIMSCALE
 40
1.0
  9
$DIMASZ
 40
2.5
  9
$DIMEXO
 40
0.625
  9
$DIMDLI
 40
3.75
  9
$DIMRND
 40
0.0
  9
$DIMDLE
 40
0.0
  9
$DIMEXE
 40
1.25
  9
$DIMTP
 40
0.0
  9
$DIMTM
 40
0.0
  9
$DIMTXT
 40
2.5
  9
$DIMCEN
 40
2.5
  9
$DIMTSZ
 40
0.0
  9
$DIMTOL
 70
0
  9
$DIMLIM
 70
0
  9
$DIMTIH
 70
0
  9
$DIMTOH
 70
0
  9
$DIMSE1
 70
0
  9
$DIMSE2
 70
0
  9
$DIMTAD
 70
1
  9
$DIMZIN
 70
8
  9
$DIMBLK
  1

  9
$DIMASO
 70
1
  9
$DIMSHO
 70
1
  9
$DIMPOST
  1

  9
$DIMAPOST
  1

  9
$DIMALT
 70
0
  9
$DIMALTD
 70
3
  9
$DIMALTF
 40
0.03937007874
  9
$DIMLFAC
 40
1.0
  9
$DIMTOFL
 70
1
  9
$DIMTVP
 40
0.0
  9
$DIMTIX
 70
0
  9
$DIMSOXD
 70
0
  9
$DIMSAH
 70
0
  9
$DIMBLK1
  1

  9
$DIMBLK2
  1

  9
$DIMSTYLE
  2
ISO-25
  9
$DIMCLRD
 70
0
  9
$DIMCLRE
 70
0
  9
$DIMCLRT
 70
0
  9
$DIMTFAC
 40
1.0
  9
$DIMGAP
 40
0.625
  9
$COORDS
 70
1
  9
$ATTDIA
 70
0
  9
$ATTREQ
 70
1
  9
$HANDLING
 70
1
  9
$LUNITS
 70
2
  9
$LUPREC
 70
4
  9
$SKETCHINC
 40
1.0
  9
$FILLETRAD
 40
10.0
  9
$AUNITS
 70
0
  9
$AUPREC
 70
2
  9
$MENU
  1
.
  9
$ELEVATION
 40
0.0
  9
$PELEVATION
 40
0.0
  9
$THICKNESS
 40
0.0
  9
$LIMCHECK
 70
0
  9
$CHAMFERA
 40
0.0
  9
$CHAMFERB
 40
0.0
  9
$SKPOLY
 70
0
  9
$TDCREATE
 40
2461228.8621180556
  9
$TDUPDATE
 40
2461228.8621180556
  9
$TDINDWG
 40
0.0
  9
$TDUSRTIMER
 40
0.0
  9
$USRTIMER
 70
1
  9
$ANGBASE
 50
0.0
  9
$ANGDIR
 70
0
  9
$PDMODE
 70
0
  9
$PDSIZE
 40
0.0
  9
$PLINEWID
 40
0.0
  9
$SPLFRAME
 70
0
  9
$SPLINETYPE
 70
6
  9
$SPLINESEGS
 70
8
  9
$HANDSEED
  5
23B
  9
$SURFTAB1
 70
6
  9
$SURFTAB2
 70
6
  9
$SURFTYPE
 70
6
  9
$SURFU
 70
6
  9
$SURFV
 70
6
  9
$UCSNAME
  2

  9
$UCSORG
 10
0.0
 20
0.0
 30
0.0
  9
$UCSXDIR
 10
1.0
 20
0.0
 30
0.0
  9
$UCSYDIR
 10
0.0
 20
1.0
 30
0.0
  9
$PUCSNAME
  2

  9
$PUCSORG
 10
0.0
 20
0.0
 30
0.0
  9
$PUCSXDIR
 10
1.0
 20
0.0
 30
0.0
  9
$PUCSYDIR
 10
0.0
 20
1.0
 30
0.0
  9
$USERI1
 70
0
  9
$USERI2
 70
0
  9
$USERI3
 70
0
  9
$USERI4
 70
0
  9
$USERI5
 70
0
  9
$USERR1
 40
0.0
  9
$USERR2
 40
0.0
  9
$USERR3
 40
0.0
  9
$USERR4
 40
0.0
  9
$USERR5
 40
0.0
  9
$WORLDVIEW
 70
1
  9
$SHADEDGE
 70
3
  9
$SHADEDIF
 70
70
  9
$TILEMODE
 70
1
  9
$MAXACTVP
 70
64
  9
$PLIMCHECK
 70
0
  9
$PEXTMIN
 10
1e+20
 20
1e+20
 30
1e+20
  9
$PEXTMAX
 10
-1e+20
 20
-1e+20
 30
-1e+20
  9
$PLIMMIN
 10
0.0
 20
0.0
  9
$PLIMMAX
 10
420.0
 20
297.0
  9
$UNITMODE
 70
0
  9
$VISRETAIN
 70
1
  9
$PLINEGEN
 70
0
  9
$PSLTSCALE
 70
1
  0
ENDSEC
  0
SECTION
  2
TABLES
  0
TABLE
  2
VPORT
 70
1
  0
VPORT
  5
22F
  2
*Active
 70
0
 10
0.0
 20
0.0
 11
1.0
 21
1.0
 12
0.0
 22
0.0
 13
0.0
 23
0.0
 14
0.5
 24
0.5
 15
0.5
 25
0.5
 16
0.0
 26
0.0
 36
1.0
 17
0.0
 27
0.0
 37
0.0
 40
1000.0
 41
1.34
 42
50.0
 43
0.0
 44
0.0
 50
0.0
 51
0.0
 71
0
 72
1000
 73
1
 74
3
 75
0
 76
0
 77
0
 78
0
  0
ENDTAB
  0
TABLE
  2
LTYPE
 70
3
  0
LTYPE
  5
230
  2
ByBlock
 70
0
  3

 72
65
 73
0
 40
0.0
  0
LTYPE
  5
231
  2
ByLayer
 70
0
  3

 72
65
 73
0
 40
0.0
  0
LTYPE
  5
232
  2
Continuous
 70
0
  3

 72
65
 73
0
 40
0.0
  0
ENDTAB
  0
TABLE
  2
LAYER
 70
2
  0
LAYER
  5
233
  2
0
 70
0
 62
7
  6
Continuous
  0
LAYER
  5
234
  2
Defpoints
 70
0
 62
7
  6
Continuous
  0
ENDTAB
  0
TABLE
  2
STYLE
 70
1
  0
STYLE
  5
235
  2
Standard
 70
0
 40
0.0
 41
1.0
 50
0.0
 71
0
 42
2.5
  3
txt
  4

  0
ENDTAB
  0
TABLE
  2
VIEW
 70
0
  0
ENDTAB
  0
TABLE
  2
UCS
 70
0
  0
ENDTAB
  0
TABLE
  2
APPID
 70
3
  0
APPID
  5
236
  2
ACAD
 70
0
  0
APPID
  5
239
  2
HATCHBACKGROUNDCOLOR
 70
0
  0
APPID
  5
23A
  2
EZDXF
 70
0
  0
ENDTAB
  0
TABLE
  2
DIMSTYLE
 70
1
  0
DIMSTYLE
105
237
  2
Standard
 70
0
  3

  4

  5

  6

  7

 40
1.0
 41
2.5
 42
0.625
 43
3.75
 44
1.25
 45
0.0
 46
0.0
 47
0.0
 48
0.0
140
2.5
141
2.5
142
0.0
143
0.03937007874
144
1.0
145
0.0
146
1.0
147
0.625
 71
0
 72
0
 73
0
 74
0
 75
0
 76
0
 77
1
 78
8
170
0
171
3
172
1
173
0
174
0
175
0
176
0
177
0
178
0
  0
ENDTAB
  0
ENDSEC
  0
SECTION
  2
BLOCKS
  0
BLOCK
  5
210
  8
0
  2
$Model_Space
 70
0
 10
0.0
 20
0.0
 30
0.0
  3
$Model_Space
  1

1001
EZDXF
1000
WRITTEN_BY_EZDXF
1000
1.4.3 @ 2026-07-07T00:41:27.906696+00:00
  0
ENDBLK
  5
211
  8
0
  0
BLOCK
  5
212
  8
0
  2
$Paper_Space
 70
0
 10
0.0
 20
0.0
 30
0.0
  3
$Paper_Space
  1

  0
ENDBLK
  5
213
  8
0
  0
ENDSEC
  0
SECTION
  2
ENTITIES
  0
LINE
  5
100
  8
0
 10
4.74223
 20
-6.98514
 30
0.0
 11
4.98491
 21
-6.94914
 31
0.0
  0
LINE
  5
101
  8
0
 10
4.98491
 20
-6.94914
 30
0.0
 11
5.2229
 21
-6.88953
 31
0.0
  0
LINE
  5
102
  8
0
 10
5.2229
 20
-6.88953
 30
0.0
 11
5.4539
 21
-6.80687
 31
0.0
  0
LINE
  5
103
  8
0
 10
5.4539
 20
-6.80687
 30
0.0
 11
5.67569
 21
-6.702
 31
0.0
  0
LINE
  5
104
  8
0
 10
5.67569
 20
-6.702
 30
0.0
 11
5.88611
 21
-6.57585
 31
0.0
  0
LINE
  5
105
  8
0
 10
5.88611
 20
-6.57585
 30
0.0
 11
6.08318
 21
-6.42972
 31
0.0
  0
LINE
  5
106
  8
0
 10
6.08318
 20
-6.42972
 30
0.0
 11
6.26495
 21
-6.26495
 31
0.0
  0
LINE
  5
107
  8
0
 10
6.26495
 20
-6.26495
 30
0.0
 11
6.42972
 21
-6.08318
 31
0.0
  0
LINE
  5
108
  8
0
 10
6.42972
 20
-6.08318
 30
0.0
 11
6.57585
 21
-5.88611
 31
0.0
  0
LINE
  5
109
  8
0
 10
6.57585
 20
-5.88611
 30
0.0
 11
6.702
 21
-5.67569
 31
0.0
  0
LINE
  5
10A
  8
0
 10
6.702
 20
-5.67569
 30
0.0
 11
6.80687
 21
-5.4539
 31
0.0
  0
LINE
  5
10B
  8
0
 10
6.80687
 20
-5.4539
 30
0.0
 11
6.88953
 21
-5.2229
 31
0.0
  0
LINE
  5
10C
  8
0
 10
6.88953
 20
-5.2229
 30
0.0
 11
6.94914
 21
-4.98491
 31
0.0
  0
LINE
  5
10D
  8
0
 10
6.94914
 20
-4.98491
 30
0.0
 11
6.98514
 21
-4.74223
 31
0.0
  0
LINE
  5
10E
  8
0
 10
6.98514
 20
-4.74223
 30
0.0
 11
6.99718
 21
-4.49719
 31
0.0
  0
LINE
  5
10F
  8
0
 10
6.99718
 20
-4.49719
 30
0.0
 11
6.98514
 21
-4.25214
 31
0.0
  0
LINE
  5
110
  8
0
 10
6.98514
 20
-4.25214
 30
0.0
 11
6.94914
 21
-4.00948
 31
0.0
  0
LINE
  5
111
  8
0
 10
6.94914
 20
-4.00948
 30
0.0
 11
6.88953
 21
-3.77148
 31
0.0
  0
LINE
  5
112
  8
0
 10
6.88953
 20
-3.77148
 30
0.0
 11
6.80687
 21
-3.54048
 31
0.0
  0
LINE
  5
113
  8
0
 10
6.80687
 20
-3.54048
 30
0.0
 11
6.702
 21
-3.3187
 31
0.0
  0
LINE
  5
114
  8
0
 10
6.702
 20
-3.3187
 30
0.0
 11
6.57585
 21
-3.10828
 31
0.0
  0
LINE
  5
115
  8
0
 10
6.57585
 20
-3.10828
 30
0.0
 11
6.42972
 21
-2.91121
 31
0.0
  0
LINE
  5
116
  8
0
 10
6.42972
 20
-2.91121
 30
0.0
 11
6.26495
 21
-2.72942
 31
0.0
  0
LINE
  5
117
  8
0
 10
6.26495
 20
-2.72942
 30
0.0
 11
6.08316
 21
-2.56465
 31
0.0
  0
LINE
  5
118
  8
0
 10
6.08316
 20
-2.56465
 30
0.0
 11
5.88611
 21
-2.41852
 31
0.0
  0
LINE
  5
119
  8
0
 10
5.88611
 20
-2.41852
 30
0.0
 11
5.67567
 21
-2.29239
 31
0.0
  0
LINE
  5
11A
  8
0
 10
5.67567
 20
-2.29239
 30
0.0
 11
5.45389
 21
-2.1875
 31
0.0
  0
LINE
  5
11B
  8
0
 10
5.45389
 20
-2.1875
 30
0.0
 11
5.22289
 21
-2.10484
 31
0.0
  0
LINE
  5
11C
  8
0
 10
5.22289
 20
-2.10484
 30
0.0
 11
4.98491
 21
-2.04524
 31
0.0
  0
LINE
  5
11D
  8
0
 10
4.98491
 20
-2.04524
 30
0.0
 11
4.74222
 21
-2.00922
 31
0.0
  0
LINE
  5
11E
  8
0
 10
4.74222
 20
-2.00922
 30
0.0
 11
4.49718
 21
-1.99719
 31
0.0
  0
LINE
  5
11F
  8
0
 10
4.49718
 20
-1.99719
 30
0.0
 11
4.25212
 21
-2.00923
 31
0.0
  0
LINE
  5
120
  8
0
 10
4.25212
 20
-2.00923
 30
0.0
 11
4.00945
 21
-2.04523
 31
0.0
  0
LINE
  5
121
  8
0
 10
4.00945
 20
-2.04523
 30
0.0
 11
3.77147
 21
-2.10484
 31
0.0
  0
LINE
  5
122
  8
0
 10
3.77147
 20
-2.10484
 30
0.0
 11
3.54047
 21
-2.1875
 31
0.0
  0
LINE
  5
123
  8
0
 10
3.54047
 20
-2.1875
 30
0.0
 11
3.3187
 21
-2.29239
 31
0.0
  0
LINE
  5
124
  8
0
 10
3.3187
 20
-2.29239
 30
0.0
 11
3.10826
 21
-2.41852
 31
0.0
  0
LINE
  5
125
  8
0
 10
3.10826
 20
-2.41852
 30
0.0
 11
2.91119
 21
-2.56465
 31
0.0
  0
LINE
  5
126
  8
0
 10
2.91119
 20
-2.56465
 30
0.0
 11
2.76649
 21
-2.6958
 31
0.0
  0
LINE
  5
127
  8
0
 10
2.76649
 20
-2.6958
 30
0.0
 11
-2.6958
 21
2.76649
 31
0.0
  0
LINE
  5
128
  8
0
 10
-2.6958
 20
2.76649
 30
0.0
 11
-2.56465
 21
2.91119
 31
0.0
  0
LINE
  5
129
  8
0
 10
-2.56465
 20
2.91119
 30
0.0
 11
-2.41852
 21
3.10826
 31
0.0
  0
LINE
  5
12A
  8
0
 10
-2.41852
 20
3.10826
 30
0.0
 11
-2.29239
 21
3.3187
 31
0.0
  0
LINE
  5
12B
  8
0
 10
-2.29239
 20
3.3187
 30
0.0
 11
-2.1875
 21
3.54047
 31
0.0
  0
LINE
  5
12C
  8
0
 10
-2.1875
 20
3.54047
 30
0.0
 11
-2.10484
 21
3.77147
 31
0.0
  0
LINE
  5
12D
  8
0
 10
-2.10484
 20
3.77147
 30
0.0
 11
-2.04523
 21
4.00945
 31
0.0
  0
LINE
  5
12E
  8
0
 10
-2.04523
 20
4.00945
 30
0.0
 11
-2.00923
 21
4.25212
 31
0.0
  0
LINE
  5
12F
  8
0
 10
-2.00923
 20
4.25212
 30
0.0
 11
-1.99719
 21
4.49718
 31
0.0
  0
LINE
  5
130
  8
0
 10
-1.99719
 20
4.49718
 30
0.0
 11
-2.00922
 21
4.74222
 31
0.0
  0
LINE
  5
131
  8
0
 10
-2.00922
 20
4.74222
 30
0.0
 11
-2.04524
 21
4.98491
 31
0.0
  0
LINE
  5
132
  8
0
 10
-2.04524
 20
4.98491
 30
0.0
 11
-2.10484
 21
5.22289
 31
0.0
  0
LINE
  5
133
  8
0
 10
-2.10484
 20
5.22289
 30
0.0
 11
-2.1875
 21
5.45389
 31
0.0
  0
LINE
  5
134
  8
0
 10
-2.1875
 20
5.45389
 30
0.0
 11
-2.29239
 21
5.67567
 31
0.0
  0
LINE
  5
135
  8
0
 10
-2.29239
 20
5.67567
 30
0.0
 11
-2.41852
 21
5.88611
 31
0.0
  0
LINE
  5
136
  8
0
 10
-2.41852
 20
5.88611
 30
0.0
 11
-2.56465
 21
6.08316
 31
0.0
  0
LINE
  5
137
  8
0
 10
-2.56465
 20
6.08316
 30
0.0
 11
-2.72942
 21
6.26495
 31
0.0
  0
LINE
  5
138
  8
0
 10
-2.72942
 20
6.26495
 30
0.0
 11
-2.91121
 21
6.42972
 31
0.0
  0
LINE
  5
139
  8
0
 10
-2.91121
 20
6.42972
 30
0.0
 11
-3.10828
 21
6.57585
 31
0.0
  0
LINE
  5
13A
  8
0
 10
-3.10828
 20
6.57585
 30
0.0
 11
-3.3187
 21
6.702
 31
0.0
  0
LINE
  5
13B
  8
0
 10
-3.3187
 20
6.702
 30
0.0
 11
-3.54048
 21
6.80687
 31
0.0
  0
LINE
  5
13C
  8
0
 10
-3.54048
 20
6.80687
 30
0.0
 11
-3.77148
 21
6.88953
 31
0.0
  0
LINE
  5
13D
  8
0
 10
-3.77148
 20
6.88953
 30
0.0
 11
-4.00948
 21
6.94914
 31
0.0
  0
LINE
  5
13E
  8
0
 10
-4.00948
 20
6.94914
 30
0.0
 11
-4.25214
 21
6.98514
 31
0.0
  0
LINE
  5
13F
  8
0
 10
-4.25214
 20
6.98514
 30
0.0
 11
-4.49719
 21
6.99718
 31
0.0
  0
LINE
  5
140
  8
0
 10
-4.49719
 20
6.99718
 30
0.0
 11
-4.74223
 21
6.98514
 31
0.0
  0
LINE
  5
141
  8
0
 10
-4.74223
 20
6.98514
 30
0.0
 11
-4.98491
 21
6.94914
 31
0.0
  0
LINE
  5
142
  8
0
 10
-4.98491
 20
6.94914
 30
0.0
 11
-5.2229
 21
6.88953
 31
0.0
  0
LINE
  5
143
  8
0
 10
-5.2229
 20
6.88953
 30
0.0
 11
-5.4539
 21
6.80687
 31
0.0
  0
LINE
  5
144
  8
0
 10
-5.4539
 20
6.80687
 30
0.0
 11
-5.67569
 21
6.702
 31
0.0
  0
LINE
  5
145
  8
0
 10
-5.67569
 20
6.702
 30
0.0
 11
-5.88611
 21
6.57585
 31
0.0
  0
LINE
  5
146
  8
0
 10
-5.88611
 20
6.57585
 30
0.0
 11
-6.08318
 21
6.42972
 31
0.0
  0
LINE
  5
147
  8
0
 10
-6.08318
 20
6.42972
 30
0.0
 11
-6.26495
 21
6.26495
 31
0.0
  0
LINE
  5
148
  8
0
 10
-6.26495
 20
6.26495
 30
0.0
 11
-6.42972
 21
6.08318
 31
0.0
  0
LINE
  5
149
  8
0
 10
-6.42972
 20
6.08318
 30
0.0
 11
-6.57585
 21
5.88611
 31
0.0
  0
LINE
  5
14A
  8
0
 10
-6.57585
 20
5.88611
 30
0.0
 11
-6.702
 21
5.67569
 31
0.0
  0
LINE
  5
14B
  8
0
 10
-6.702
 20
5.67569
 30
0.0
 11
-6.80687
 21
5.4539
 31
0.0
  0
LINE
  5
14C
  8
0
 10
-6.80687
 20
5.4539
 30
0.0
 11
-6.88953
 21
5.2229
 31
0.0
  0
LINE
  5
14D
  8
0
 10
-6.88953
 20
5.2229
 30
0.0
 11
-6.94914
 21
4.98491
 31
0.0
  0
LINE
  5
14E
  8
0
 10
-6.94914
 20
4.98491
 30
0.0
 11
-6.98514
 21
4.74223
 31
0.0
  0
LINE
  5
14F
  8
0
 10
-6.98514
 20
4.74223
 30
0.0
 11
-6.99718
 21
4.49719
 31
0.0
  0
LINE
  5
150
  8
0
 10
-6.99718
 20
4.49719
 30
0.0
 11
-6.98514
 21
4.25214
 31
0.0
  0
LINE
  5
151
  8
0
 10
-6.98514
 20
4.25214
 30
0.0
 11
-6.94914
 21
4.00948
 31
0.0
  0
LINE
  5
152
  8
0
 10
-6.94914
 20
4.00948
 30
0.0
 11
-6.88953
 21
3.77148
 31
0.0
  0
LINE
  5
153
  8
0
 10
-6.88953
 20
3.77148
 30
0.0
 11
-6.80687
 21
3.54048
 31
0.0
  0
LINE
  5
154
  8
0
 10
-6.80687
 20
3.54048
 30
0.0
 11
-6.702
 21
3.3187
 31
0.0
  0
LINE
  5
155
  8
0
 10
-6.702
 20
3.3187
 30
0.0
 11
-6.57585
 21
3.10828
 31
0.0
  0
LINE
  5
156
  8
0
 10
-6.57585
 20
3.10828
 30
0.0
 11
-6.42972
 21
2.91121
 31
0.0
  0
LINE
  5
157
  8
0
 10
-6.42972
 20
2.91121
 30
0.0
 11
-6.26495
 21
2.72942
 31
0.0
  0
LINE
  5
158
  8
0
 10
-6.26495
 20
2.72942
 30
0.0
 11
-6.08316
 21
2.56465
 31
0.0
  0
LINE
  5
159
  8
0
 10
-6.08316
 20
2.56465
 30
0.0
 11
-5.88611
 21
2.41852
 31
0.0
  0
LINE
  5
15A
  8
0
 10
-5.88611
 20
2.41852
 30
0.0
 11
-5.67567
 21
2.29239
 31
0.0
  0
LINE
  5
15B
  8
0
 10
-5.67567
 20
2.29239
 30
0.0
 11
-5.45389
 21
2.1875
 31
0.0
  0
LINE
  5
15C
  8
0
 10
-5.45389
 20
2.1875
 30
0.0
 11
-5.22289
 21
2.10484
 31
0.0
  0
LINE
  5
15D
  8
0
 10
-5.22289
 20
2.10484
 30
0.0
 11
-4.98491
 21
2.04524
 31
0.0
  0
LINE
  5
15E
  8
0
 10
-4.98491
 20
2.04524
 30
0.0
 11
-4.74222
 21
2.00922
 31
0.0
  0
LINE
  5
15F
  8
0
 10
-4.74222
 20
2.00922
 30
0.0
 11
-4.49718
 21
1.99719
 31
0.0
  0
LINE
  5
160
  8
0
 10
-4.49718
 20
1.99719
 30
0.0
 11
-4.25212
 21
2.00923
 31
0.0
  0
LINE
  5
161
  8
0
 10
-4.25212
 20
2.00923
 30
0.0
 11
-4.00945
 21
2.04523
 31
0.0
  0
LINE
  5
162
  8
0
 10
-4.00945
 20
2.04523
 30
0.0
 11
-3.77147
 21
2.10484
 31
0.0
  0
LINE
  5
163
  8
0
 10
-3.77147
 20
2.10484
 30
0.0
 11
-3.54047
 21
2.1875
 31
0.0
  0
LINE
  5
164
  8
0
 10
-3.54047
 20
2.1875
 30
0.0
 11
-3.3187
 21
2.29239
 31
0.0
  0
LINE
  5
165
  8
0
 10
-3.3187
 20
2.29239
 30
0.0
 11
-3.10826
 21
2.41852
 31
0.0
  0
LINE
  5
166
  8
0
 10
-3.10826
 20
2.41852
 30
0.0
 11
-2.91119
 21
2.56465
 31
0.0
  0
LINE
  5
167
  8
0
 10
-2.91119
 20
2.56465
 30
0.0
 11
-2.76649
 21
2.6958
 31
0.0
  0
LINE
  5
168
  8
0
 10
-2.76649
 20
2.6958
 30
0.0
 11
2.6958
 21
-2.76649
 31
0.0
  0
LINE
  5
169
  8
0
 10
2.6958
 20
-2.76649
 30
0.0
 11
2.56465
 21
-2.91119
 31
0.0
  0
LINE
  5
16A
  8
0
 10
2.56465
 20
-2.91119
 30
0.0
 11
2.41852
 21
-3.10826
 31
0.0
  0
LINE
  5
16B
  8
0
 10
2.41852
 20
-3.10826
 30
0.0
 11
2.29239
 21
-3.3187
 31
0.0
  0
LINE
  5
16C
  8
0
 10
2.29239
 20
-3.3187
 30
0.0
 11
2.1875
 21
-3.54047
 31
0.0
  0
LINE
  5
16D
  8
0
 10
2.1875
 20
-3.54047
 30
0.0
 11
2.10484
 21
-3.77147
 31
0.0
  0
LINE
  5
16E
  8
0
 10
2.10484
 20
-3.77147
 30
0.0
 11
2.04523
 21
-4.00945
 31
0.0
  0
LINE
  5
16F
  8
0
 10
2.04523
 20
-4.00945
 30
0.0
 11
2.00923
 21
-4.25212
 31
0.0
  0
LINE
  5
170
  8
0
 10
2.00923
 20
-4.25212
 30
0.0
 11
1.99719
 21
-4.49718
 31
0.0
  0
LINE
  5
171
  8
0
 10
1.99719
 20
-4.49718
 30
0.0
 11
2.00922
 21
-4.74222
 31
0.0
  0
LINE
  5
172
  8
0
 10
2.00922
 20
-4.74222
 30
0.0
 11
2.04524
 21
-4.98491
 31
0.0
  0
LINE
  5
173
  8
0
 10
2.04524
 20
-4.98491
 30
0.0
 11
2.10484
 21
-5.22289
 31
0.0
  0
LINE
  5
174
  8
0
 10
2.10484
 20
-5.22289
 30
0.0
 11
2.1875
 21
-5.45389
 31
0.0
  0
LINE
  5
175
  8
0
 10
2.1875
 20
-5.45389
 30
0.0
 11
2.29239
 21
-5.67567
 31
0.0
  0
LINE
  5
176
  8
0
 10
2.29239
 20
-5.67567
 30
0.0
 11
2.41852
 21
-5.88611
 31
0.0
  0
LINE
  5
177
  8
0
 10
2.41852
 20
-5.88611
 30
0.0
 11
2.56465
 21
-6.08316
 31
0.0
  0
LINE
  5
178
  8
0
 10
2.56465
 20
-6.08316
 30
0.0
 11
2.72942
 21
-6.26495
 31
0.0
  0
LINE
  5
179
  8
0
 10
2.72942
 20
-6.26495
 30
0.0
 11
2.91121
 21
-6.42972
 31
0.0
  0
LINE
  5
17A
  8
0
 10
2.91121
 20
-6.42972
 30
0.0
 11
3.10828
 21
-6.57585
 31
0.0
  0
LINE
  5
17B
  8
0
 10
3.10828
 20
-6.57585
 30
0.0
 11
3.3187
 21
-6.702
 31
0.0
  0
LINE
  5
17C
  8
0
 10
3.3187
 20
-6.702
 30
0.0
 11
3.54048
 21
-6.80687
 31
0.0
  0
LINE
  5
17D
  8
0
 10
3.54048
 20
-6.80687
 30
0.0
 11
3.77148
 21
-6.88953
 31
0.0
  0
LINE
  5
17E
  8
0
 10
3.77148
 20
-6.88953
 30
0.0
 11
4.00948
 21
-6.94914
 31
0.0
  0
LINE
  5
17F
  8
0
 10
4.00948
 20
-6.94914
 30
0.0
 11
4.25214
 21
-6.98514
 31
0.0
  0
LINE
  5
180
  8
0
 10
4.25214
 20
-6.98514
 30
0.0
 11
4.49719
 21
-6.99718
 31
0.0
  0
LINE
  5
181
  8
0
 10
4.49719
 20
-6.99718
 30
0.0
 11
4.74223
 21
-6.98514
 31
0.0
  0
LINE
  5
182
  8
0
 10
-5.91141
 20
4.49719
 30
0.0
 11
-4.49719
 21
5.91141
 31
0.0
  0
LINE
  5
183
  8
0
 10
-4.49719
 20
5.91141
 30
0.0
 11
-3.08298
 21
4.49719
 31
0.0
  0
LINE
  5
184
  8
0
 10
-3.08298
 20
4.49719
 30
0.0
 11
-4.49719
 21
3.08298
 31
0.0
  0
LINE
  5
185
  8
0
 10
-4.49719
 20
3.08298
 30
0.0
 11
-5.91141
 21
4.49719
 31
0.0
  0
LINE
  5
186
  8
0
 10
3.08298
 20
-4.49719
 30
0.0
 11
4.49719
 21
-3.08298
 31
0.0
  0
LINE
  5
187
  8
0
 10
4.49719
 20
-3.08298
 30
0.0
 11
5.91141
 21
-4.49719
 31
0.0
  0
LINE
  5
188
  8
0
 10
5.91141
 20
-4.49719
 30
0.0
 11
4.49719
 21
-5.91141
 31
0.0
  0
LINE
  5
189
  8
0
 10
4.49719
 20
-5.91141
 30
0.0
 11
3.08298
 21
-4.49719
 31
0.0
  0
LINE
  5
18A
  8
0
 10
3.84669
 20
2.086
 30
0.0
 11
4.00945
 21
2.04523
 31
0.0
  0
LINE
  5
18B
  8
0
 10
4.00945
 20
2.04523
 30
0.0
 11
4.25212
 21
2.00923
 31
0.0
  0
LINE
  5
18C
  8
0
 10
4.25212
 20
2.00923
 30
0.0
 11
4.49718
 21
1.99719
 31
0.0
  0
LINE
  5
18D
  8
0
 10
4.49718
 20
1.99719
 30
0.0
 11
4.74222
 21
2.00922
 31
0.0
  0
LINE
  5
18E
  8
0
 10
4.74222
 20
2.00922
 30
0.0
 11
4.98491
 21
2.04524
 31
0.0
  0
LINE
  5
18F
  8
0
 10
4.98491
 20
2.04524
 30
0.0
 11
5.22289
 21
2.10484
 31
0.0
  0
LINE
  5
190
  8
0
 10
5.22289
 20
2.10484
 30
0.0
 11
5.45389
 21
2.1875
 31
0.0
  0
LINE
  5
191
  8
0
 10
5.45389
 20
2.1875
 30
0.0
 11
5.67567
 21
2.29239
 31
0.0
  0
LINE
  5
192
  8
0
 10
5.67567
 20
2.29239
 30
0.0
 11
5.88611
 21
2.41852
 31
0.0
  0
LINE
  5
193
  8
0
 10
5.88611
 20
2.41852
 30
0.0
 11
6.08316
 21
2.56465
 31
0.0
  0
LINE
  5
194
  8
0
 10
6.08316
 20
2.56465
 30
0.0
 11
6.26495
 21
2.72942
 31
0.0
  0
LINE
  5
195
  8
0
 10
6.26495
 20
2.72942
 30
0.0
 11
6.42972
 21
2.91121
 31
0.0
  0
LINE
  5
196
  8
0
 10
6.42972
 20
2.91121
 30
0.0
 11
6.57585
 21
3.10828
 31
0.0
  0
LINE
  5
197
  8
0
 10
6.57585
 20
3.10828
 30
0.0
 11
6.702
 21
3.3187
 31
0.0
  0
LINE
  5
198
  8
0
 10
6.702
 20
3.3187
 30
0.0
 11
6.80687
 21
3.54048
 31
0.0
  0
LINE
  5
199
  8
0
 10
6.80687
 20
3.54048
 30
0.0
 11
6.88953
 21
3.77148
 31
0.0
  0
LINE
  5
19A
  8
0
 10
6.88953
 20
3.77148
 30
0.0
 11
6.94914
 21
4.00948
 31
0.0
  0
LINE
  5
19B
  8
0
 10
6.94914
 20
4.00948
 30
0.0
 11
6.98514
 21
4.25214
 31
0.0
  0
LINE
  5
19C
  8
0
 10
6.98514
 20
4.25214
 30
0.0
 11
6.99718
 21
4.49719
 31
0.0
  0
LINE
  5
19D
  8
0
 10
6.99718
 20
4.49719
 30
0.0
 11
6.98514
 21
4.74223
 31
0.0
  0
LINE
  5
19E
  8
0
 10
6.98514
 20
4.74223
 30
0.0
 11
6.94914
 21
4.98491
 31
0.0
  0
LINE
  5
19F
  8
0
 10
6.94914
 20
4.98491
 30
0.0
 11
6.88953
 21
5.2229
 31
0.0
  0
LINE
  5
1A0
  8
0
 10
6.88953
 20
5.2229
 30
0.0
 11
6.80687
 21
5.4539
 31
0.0
  0
LINE
  5
1A1
  8
0
 10
6.80687
 20
5.4539
 30
0.0
 11
6.702
 21
5.67569
 31
0.0
  0
LINE
  5
1A2
  8
0
 10
6.702
 20
5.67569
 30
0.0
 11
6.57585
 21
5.88611
 31
0.0
  0
LINE
  5
1A3
  8
0
 10
6.57585
 20
5.88611
 30
0.0
 11
6.42972
 21
6.08318
 31
0.0
  0
LINE
  5
1A4
  8
0
 10
6.42972
 20
6.08318
 30
0.0
 11
6.26495
 21
6.26495
 31
0.0
  0
LINE
  5
1A5
  8
0
 10
6.26495
 20
6.26495
 30
0.0
 11
6.08318
 21
6.42972
 31
0.0
  0
LINE
  5
1A6
  8
0
 10
6.08318
 20
6.42972
 30
0.0
 11
5.88611
 21
6.57585
 31
0.0
  0
LINE
  5
1A7
  8
0
 10
5.88611
 20
6.57585
 30
0.0
 11
5.67569
 21
6.702
 31
0.0
  0
LINE
  5
1A8
  8
0
 10
5.67569
 20
6.702
 30
0.0
 11
5.4539
 21
6.80687
 31
0.0
  0
LINE
  5
1A9
  8
0
 10
5.4539
 20
6.80687
 30
0.0
 11
5.2229
 21
6.88953
 31
0.0
  0
LINE
  5
1AA
  8
0
 10
5.2229
 20
6.88953
 30
0.0
 11
4.98491
 21
6.94914
 31
0.0
  0
LINE
  5
1AB
  8
0
 10
4.98491
 20
6.94914
 30
0.0
 11
4.74223
 21
6.98514
 31
0.0
  0
LINE
  5
1AC
  8
0
 10
4.74223
 20
6.98514
 30
0.0
 11
4.49719
 21
6.99718
 31
0.0
  0
LINE
  5
1AD
  8
0
 10
4.49719
 20
6.99718
 30
0.0
 11
4.25214
 21
6.98514
 31
0.0
  0
LINE
  5
1AE
  8
0
 10
4.25214
 20
6.98514
 30
0.0
 11
4.00948
 21
6.94914
 31
0.0
  0
LINE
  5
1AF
  8
0
 10
4.00948
 20
6.94914
 30
0.0
 11
3.77148
 21
6.88953
 31
0.0
  0
LINE
  5
1B0
  8
0
 10
3.77148
 20
6.88953
 30
0.0
 11
3.54048
 21
6.80687
 31
0.0
  0
LINE
  5
1B1
  8
0
 10
3.54048
 20
6.80687
 30
0.0
 11
3.3187
 21
6.702
 31
0.0
  0
LINE
  5
1B2
  8
0
 10
3.3187
 20
6.702
 30
0.0
 11
3.10828
 21
6.57585
 31
0.0
  0
LINE
  5
1B3
  8
0
 10
3.10828
 20
6.57585
 30
0.0
 11
2.91121
 21
6.42972
 31
0.0
  0
LINE
  5
1B4
  8
0
 10
2.91121
 20
6.42972
 30
0.0
 11
2.72942
 21
6.26495
 31
0.0
  0
LINE
  5
1B5
  8
0
 10
2.72942
 20
6.26495
 30
0.0
 11
2.56465
 21
6.08316
 31
0.0
  0
LINE
  5
1B6
  8
0
 10
2.56465
 20
6.08316
 30
0.0
 11
2.41852
 21
5.88611
 31
0.0
  0
LINE
  5
1B7
  8
0
 10
2.41852
 20
5.88611
 30
0.0
 11
2.29239
 21
5.67567
 31
0.0
  0
LINE
  5
1B8
  8
0
 10
2.29239
 20
5.67567
 30
0.0
 11
2.1875
 21
5.45389
 31
0.0
  0
LINE
  5
1B9
  8
0
 10
2.1875
 20
5.45389
 30
0.0
 11
2.10484
 21
5.22289
 31
0.0
  0
LINE
  5
1BA
  8
0
 10
2.10484
 20
5.22289
 30
0.0
 11
2.04524
 21
4.98491
 31
0.0
  0
LINE
  5
1BB
  8
0
 10
2.04524
 20
4.98491
 30
0.0
 11
2.00922
 21
4.74222
 31
0.0
  0
LINE
  5
1BC
  8
0
 10
2.00922
 20
4.74222
 30
0.0
 11
1.99719
 21
4.49718
 31
0.0
  0
LINE
  5
1BD
  8
0
 10
1.99719
 20
4.49718
 30
0.0
 11
2.00923
 21
4.25212
 31
0.0
  0
LINE
  5
1BE
  8
0
 10
2.00923
 20
4.25212
 30
0.0
 11
2.04523
 21
4.00945
 31
0.0
  0
LINE
  5
1BF
  8
0
 10
2.04523
 20
4.00945
 30
0.0
 11
2.086
 21
3.84669
 31
0.0
  0
LINE
  5
1C0
  8
0
 10
2.086
 20
3.84669
 30
0.0
 11
0.48436
 21
2.24504
 31
0.0
  0
LINE
  5
1C1
  8
0
 10
0.48436
 20
2.24504
 30
0.0
 11
2.24504
 21
0.48436
 31
0.0
  0
LINE
  5
1C2
  8
0
 10
2.24504
 20
0.48436
 30
0.0
 11
3.84669
 21
2.086
 31
0.0
  0
LINE
  5
1C3
  8
0
 10
3.08298
 20
4.49719
 30
0.0
 11
4.49719
 21
5.91141
 31
0.0
  0
LINE
  5
1C4
  8
0
 10
4.49719
 20
5.91141
 30
0.0
 11
5.91141
 21
4.49719
 31
0.0
  0
LINE
  5
1C5
  8
0
 10
5.91141
 20
4.49719
 30
0.0
 11
4.49719
 21
3.08298
 31
0.0
  0
LINE
  5
1C6
  8
0
 10
4.49719
 20
3.08298
 30
0.0
 11
3.08298
 21
4.49719
 31
0.0
  0
LINE
  5
1C7
  8
0
 10
-4.25214
 20
-6.98514
 30
0.0
 11
-4.00948
 21
-6.94914
 31
0.0
  0
LINE
  5
1C8
  8
0
 10
-4.00948
 20
-6.94914
 30
0.0
 11
-3.77148
 21
-6.88953
 31
0.0
  0
LINE
  5
1C9
  8
0
 10
-3.77148
 20
-6.88953
 30
0.0
 11
-3.54048
 21
-6.80687
 31
0.0
  0
LINE
  5
1CA
  8
0
 10
-3.54048
 20
-6.80687
 30
0.0
 11
-3.3187
 21
-6.702
 31
0.0
  0
LINE
  5
1CB
  8
0
 10
-3.3187
 20
-6.702
 30
0.0
 11
-3.10828
 21
-6.57585
 31
0.0
  0
LINE
  5
1CC
  8
0
 10
-3.10828
 20
-6.57585
 30
0.0
 11
-2.91121
 21
-6.42972
 31
0.0
  0
LINE
  5
1CD
  8
0
 10
-2.91121
 20
-6.42972
 30
0.0
 11
-2.72942
 21
-6.26495
 31
0.0
  0
LINE
  5
1CE
  8
0
 10
-2.72942
 20
-6.26495
 30
0.0
 11
-2.56465
 21
-6.08316
 31
0.0
  0
LINE
  5
1CF
  8
0
 10
-2.56465
 20
-6.08316
 30
0.0
 11
-2.41852
 21
-5.88611
 31
0.0
  0
LINE
  5
1D0
  8
0
 10
-2.41852
 20
-5.88611
 30
0.0
 11
-2.29239
 21
-5.67567
 31
0.0
  0
LINE
  5
1D1
  8
0
 10
-2.29239
 20
-5.67567
 30
0.0
 11
-2.1875
 21
-5.45389
 31
0.0
  0
LINE
  5
1D2
  8
0
 10
-2.1875
 20
-5.45389
 30
0.0
 11
-2.10484
 21
-5.22289
 31
0.0
  0
LINE
  5
1D3
  8
0
 10
-2.10484
 20
-5.22289
 30
0.0
 11
-2.04524
 21
-4.98491
 31
0.0
  0
LINE
  5
1D4
  8
0
 10
-2.04524
 20
-4.98491
 30
0.0
 11
-2.00922
 21
-4.74222
 31
0.0
  0
LINE
  5
1D5
  8
0
 10
-2.00922
 20
-4.74222
 30
0.0
 11
-1.99719
 21
-4.49718
 31
0.0
  0
LINE
  5
1D6
  8
0
 10
-1.99719
 20
-4.49718
 30
0.0
 11
-2.00923
 21
-4.25212
 31
0.0
  0
LINE
  5
1D7
  8
0
 10
-2.00923
 20
-4.25212
 30
0.0
 11
-2.04523
 21
-4.00945
 31
0.0
  0
LINE
  5
1D8
  8
0
 10
-2.04523
 20
-4.00945
 30
0.0
 11
-2.086
 21
-3.84669
 31
0.0
  0
LINE
  5
1D9
  8
0
 10
-2.086
 20
-3.84669
 30
0.0
 11
-0.48436
 21
-2.24504
 31
0.0
  0
LINE
  5
1DA
  8
0
 10
-0.48436
 20
-2.24504
 30
0.0
 11
-2.24504
 21
-0.48436
 31
0.0
  0
LINE
  5
1DB
  8
0
 10
-2.24504
 20
-0.48436
 30
0.0
 11
-3.84669
 21
-2.086
 31
0.0
  0
LINE
  5
1DC
  8
0
 10
-3.84669
 20
-2.086
 30
0.0
 11
-4.00945
 21
-2.04523
 31
0.0
  0
LINE
  5
1DD
  8
0
 10
-4.00945
 20
-2.04523
 30
0.0
 11
-4.25212
 21
-2.00923
 31
0.0
  0
LINE
  5
1DE
  8
0
 10
-4.25212
 20
-2.00923
 30
0.0
 11
-4.49718
 21
-1.99719
 31
0.0
  0
LINE
  5
1DF
  8
0
 10
-4.49718
 20
-1.99719
 30
0.0
 11
-4.74222
 21
-2.00922
 31
0.0
  0
LINE
  5
1E0
  8
0
 10
-4.74222
 20
-2.00922
 30
0.0
 11
-4.98491
 21
-2.04524
 31
0.0
  0
LINE
  5
1E1
  8
0
 10
-4.98491
 20
-2.04524
 30
0.0
 11
-5.22289
 21
-2.10484
 31
0.0
  0
LINE
  5
1E2
  8
0
 10
-5.22289
 20
-2.10484
 30
0.0
 11
-5.45389
 21
-2.1875
 31
0.0
  0
LINE
  5
1E3
  8
0
 10
-5.45389
 20
-2.1875
 30
0.0
 11
-5.67567
 21
-2.29239
 31
0.0
  0
LINE
  5
1E4
  8
0
 10
-5.67567
 20
-2.29239
 30
0.0
 11
-5.88611
 21
-2.41852
 31
0.0
  0
LINE
  5
1E5
  8
0
 10
-5.88611
 20
-2.41852
 30
0.0
 11
-6.08316
 21
-2.56465
 31
0.0
  0
LINE
  5
1E6
  8
0
 10
-6.08316
 20
-2.56465
 30
0.0
 11
-6.26495
 21
-2.72942
 31
0.0
  0
LINE
  5
1E7
  8
0
 10
-6.26495
 20
-2.72942
 30
0.0
 11
-6.42972
 21
-2.91121
 31
0.0
  0
LINE
  5
1E8
  8
0
 10
-6.42972
 20
-2.91121
 30
0.0
 11
-6.57585
 21
-3.10828
 31
0.0
  0
LINE
  5
1E9
  8
0
 10
-6.57585
 20
-3.10828
 30
0.0
 11
-6.702
 21
-3.3187
 31
0.0
  0
LINE
  5
1EA
  8
0
 10
-6.702
 20
-3.3187
 30
0.0
 11
-6.80687
 21
-3.54048
 31
0.0
  0
LINE
  5
1EB
  8
0
 10
-6.80687
 20
-3.54048
 30
0.0
 11
-6.88953
 21
-3.77148
 31
0.0
  0
LINE
  5
1EC
  8
0
 10
-6.88953
 20
-3.77148
 30
0.0
 11
-6.94914
 21
-4.00948
 31
0.0
  0
LINE
  5
1ED
  8
0
 10
-6.94914
 20
-4.00948
 30
0.0
 11
-6.98514
 21
-4.25214
 31
0.0
  0
LINE
  5
1EE
  8
0
 10
-6.98514
 20
-4.25214
 30
0.0
 11
-6.99718
 21
-4.49719
 31
0.0
  0
LINE
  5
1EF
  8
0
 10
-6.99718
 20
-4.49719
 30
0.0
 11
-6.98514
 21
-4.74223
 31
0.0
  0
LINE
  5
1F0
  8
0
 10
-6.98514
 20
-4.74223
 30
0.0
 11
-6.94914
 21
-4.98491
 31
0.0
  0
LINE
  5
1F1
  8
0
 10
-6.94914
 20
-4.98491
 30
0.0
 11
-6.88953
 21
-5.2229
 31
0.0
  0
LINE
  5
1F2
  8
0
 10
-6.88953
 20
-5.2229
 30
0.0
 11
-6.80687
 21
-5.4539
 31
0.0
  0
LINE
  5
1F3
  8
0
 10
-6.80687
 20
-5.4539
 30
0.0
 11
-6.702
 21
-5.67569
 31
0.0
  0
LINE
  5
1F4
  8
0
 10
-6.702
 20
-5.67569
 30
0.0
 11
-6.57585
 21
-5.88611
 31
0.0
  0
LINE
  5
1F5
  8
0
 10
-6.57585
 20
-5.88611
 30
0.0
 11
-6.42972
 21
-6.08318
 31
0.0
  0
LINE
  5
1F6
  8
0
 10
-6.42972
 20
-6.08318
 30
0.0
 11
-6.26495
 21
-6.26495
 31
0.0
  0
LINE
  5
1F7
  8
0
 10
-6.26495
 20
-6.26495
 30
0.0
 11
-6.08318
 21
-6.42972
 31
0.0
  0
LINE
  5
1F8
  8
0
 10
-6.08318
 20
-6.42972
 30
0.0
 11
-5.88611
 21
-6.57585
 31
0.0
  0
LINE
  5
1F9
  8
0
 10
-5.88611
 20
-6.57585
 30
0.0
 11
-5.67569
 21
-6.702
 31
0.0
  0
LINE
  5
1FA
  8
0
 10
-5.67569
 20
-6.702
 30
0.0
 11
-5.4539
 21
-6.80687
 31
0.0
  0
LINE
  5
1FB
  8
0
 10
-5.4539
 20
-6.80687
 30
0.0
 11
-5.2229
 21
-6.88953
 31
0.0
  0
LINE
  5
1FC
  8
0
 10
-5.2229
 20
-6.88953
 30
0.0
 11
-4.98491
 21
-6.94914
 31
0.0
  0
LINE
  5
1FD
  8
0
 10
-4.98491
 20
-6.94914
 30
0.0
 11
-4.74223
 21
-6.98514
 31
0.0
  0
LINE
  5
1FE
  8
0
 10
-4.74223
 20
-6.98514
 30
0.0
 11
-4.49719
 21
-6.99718
 31
0.0
  0
LINE
  5
1FF
  8
0
 10
-4.49719
 20
-6.99718
 30
0.0
 11
-4.25214
 21
-6.98514
 31
0.0
  0
LINE
  5
200
  8
0
 10
-5.91141
 20
-4.49719
 30
0.0
 11
-4.49719
 21
-3.08298
 31
0.0
  0
LINE
  5
201
  8
0
 10
-4.49719
 20
-3.08298
 30
0.0
 11
-3.08298
 21
-4.49719
 31
0.0
  0
LINE
  5
202
  8
0
 10
-3.08298
 20
-4.49719
 30
0.0
 11
-4.49719
 21
-5.91141
 31
0.0
  0
LINE
  5
203
  8
0
 10
-4.49719
 20
-5.91141
 30
0.0
 11
-5.91141
 21
-4.49719
 31
0.0
  0
ENDSEC
  0
EOF
