  0
SECTION
  2
HEADER
  9
$ACADVER
  1
AC1009
  9
$DWGCODEPAGE
  3
ANSI_1252
  9
$INSBASE
 10
0.0
 20
0.0
 30
0.0
  9
$EXTMIN
 10
1e+20
 20
1e+20
 30
1e+20
  9
$EXTMAX
 10
-1e+20
 20
-1e+20
 30
-1e+20
  9
$LIMMIN
 10
0.0
 20
0.0
  9
$LIMMAX
 10
420.0
 20
297.0
  9
$ORTHOMODE
 70
0
  9
$REGENMODE
 70
1
  9
$FILLMODE
 70
1
  9
$DRAGMODE
 70
2
  9
$QTEXTMODE
 70
0
  9
$MIRRTEXT
 70
1
  9
$OSMODE
 70
20583
  9
$LTSCALE
 40
1.0
  9
$ATTMODE
 70
1
  9
$TEXTSIZE
 40
2.5
  9
$TRACEWID
 40
1.0
  9
$TEXTSTYLE
  7
Standard
  9
$CLAYER
  8
0
  9
$CELTYPE
  6
ByLayer
  9
$CECOLOR
 62
256
  9
$DIMSCALE
 40
1.0
  9
$DIMASZ
 40
2.5
  9
$DIMEXO
 40
0.625
  9
$DIMDLI
 40
3.75
  9
$DIMRND
 40
0.0
  9
$DIMDLE
 40
0.0
  9
$DIMEXE
 40
1.25
  9
$DIMTP
 40
0.0
  9
$DIMTM
 40
0.0
  9
$DIMTXT
 40
2.5
  9
$DIMCEN
 40
2.5
  9
$DIMTSZ
 40
0.0
  9
$DIMTOL
 70
0
  9
$DIMLIM
 70
0
  9
$DIMTIH
 70
0
  9
$DIMTOH
 70
0
  9
$DIMSE1
 70
0
  9
$DIMSE2
 70
0
  9
$DIMTAD
 70
1
  9
$DIMZIN
 70
8
  9
$DIMBLK
  1

  9
$DIMASO
 70
1
  9
$DIMSHO
 70
1
  9
$DIMPOST
  1

  9
$DIMAPOST
  1

  9
$DIMALT
 70
0
  9
$DIMALTD
 70
3
  9
$DIMALTF
 40
0.03937007874
  9
$DIMLFAC
 40
1.0
  9
$DIMTOFL
 70
1
  9
$DIMTVP
 40
0.0
  9
$DIMTIX
 70
0
  9
$DIMSOXD
 70
0
  9
$DIMSAH
 70
0
  9
$DIMBLK1
  1

  9
$DIMBLK2
  1

  9
$DIMSTYLE
  2
ISO-25
  9
$DIMCLRD
 70
0
  9
$DIMCLRE
 70
0
  9
$DIMCLRT
 70
0
  9
$DIMTFAC
 40
1.0
  9
$DIMGAP
 40
0.625
  9
$COORDS
 70
1
  9
$ATTDIA
 70
0
  9
$ATTREQ
 70
1
  9
$HANDLING
 70
1
  9
$LUNITS
 70
2
  9
$LUPREC
 70
4
  9
$SKETCHINC
 40
1.0
  9
$FILLETRAD
 40
10.0
  9
$AUNITS
 70
0
  9
$AUPREC
 70
2
  9
$MENU
  1
.
  9
$ELEVATION
 40
0.0
  9
$PELEVATION
 40
0.0
  9
$THICKNESS
 40
0.0
  9
$LIMCHECK
 70
0
  9
$CHAMFERA
 40
0.0
  9
$CHAMFERB
 40
0.0
  9
$SKPOLY
 70
0
  9
$TDCREATE
 40
2461228.8621296296
  9
$TDUPDATE
 40
2461228.8621296296
  9
$TDINDWG
 40
0.0
  9
$TDUSRTIMER
 40
0.0
  9
$USRTIMER
 70
1
  9
$ANGBASE
 50
0.0
  9
$ANGDIR
 70
0
  9
$PDMODE
 70
0
  9
$PDSIZE
 40
0.0
  9
$PLINEWID
 40
0.0
  9
$SPLFRAME
 70
0
  9
$SPLINETYPE
 70
6
  9
$SPLINESEGS
 70
8
  9
$HANDSEED
  5
60B
  9
$SURFTAB1
 70
6
  9
$SURFTAB2
 70
6
  9
$SURFTYPE
 70
6
  9
$SURFU
 70
6
  9
$SURFV
 70
6
  9
$UCSNAME
  2

  9
$UCSORG
 10
0.0
 20
0.0
 30
0.0
  9
$UCSXDIR
 10
1.0
 20
0.0
 30
0.0
  9
$UCSYDIR
 10
0.0
 20
1.0
 30
0.0
  9
$PUCSNAME
  2

  9
$PUCSORG
 10
0.0
 20
0.0
 30
0.0
  9
$PUCSXDIR
 10
1.0
 20
0.0
 30
0.0
  9
$PUCSYDIR
 10
0.0
 20
1.0
 30
0.0
  9
$USERI1
 70
0
  9
$USERI2
 70
0
  9
$USERI3
 70
0
  9
$USERI4
 70
0
  9
$USERI5
 70
0
  9
$USERR1
 40
0.0
  9
$USERR2
 40
0.0
  9
$USERR3
 40
0.0
  9
$USERR4
 40
0.0
  9
$USERR5
 40
0.0
  9
$WORLDVIEW
 70
1
  9
$SHADEDGE
 70
3
  9
$SHADEDIF
 70
70
  9
$TILEMODE
 70
1
  9
$MAXACTVP
 70
64
  9
$PLIMCHECK
 70
0
  9
$PEXTMIN
 10
1e+20
 20
1e+20
 30
1e+20
  9
$PEXTMAX
 10
-1e+20
 20
-1e+20
 30
-1e+20
  9
$PLIMMIN
 10
0.0
 20
0.0
  9
$PLIMMAX
 10
420.0
 20
297.0
  9
$UNITMODE
 70
0
  9
$VISRETAIN
 70
1
  9
$PLINEGEN
 70
0
  9
$PSLTSCALE
 70
1
  0
ENDSEC
  0
SECTION
  2
TABLES
  0
TABLE
  2
VPORT
 70
1
  0
VPORT
  5
5FF
  2
*Active
 70
0
 10
0.0
 20
0.0
 11
1.0
 21
1.0
 12
0.0
 22
0.0
 13
0.0
 23
0.0
 14
0.5
 24
0.5
 15
0.5
 25
0.5
 16
0.0
 26
0.0
 36
1.0
 17
0.0
 27
0.0
 37
0.0
 40
1000.0
 41
1.34
 42
50.0
 43
0.0
 44
0.0
 50
0.0
 51
0.0
 71
0
 72
1000
 73
1
 74
3
 75
0
 76
0
 77
0
 78
0
  0
ENDTAB
  0
TABLE
  2
LTYPE
 70
3
  0
LTYPE
  5
600
  2
ByBlock
 70
0
  3

 72
65
 73
0
 40
0.0
  0
LTYPE
  5
601
  2
ByLayer
 70
0
  3

 72
65
 73
0
 40
0.0
  0
LTYPE
  5
602
  2
Continuous
 70
0
  3

 72
65
 73
0
 40
0.0
  0
ENDTAB
  0
TABLE
  2
LAYER
 70
2
  0
LAYER
  5
603
  2
0
 70
0
 62
7
  6
Continuous
  0
LAYER
  5
604
  2
Defpoints
 70
0
 62
7
  6
Continuous
  0
ENDTAB
  0
TABLE
  2
STYLE
 70
1
  0
STYLE
  5
605
  2
Standard
 70
0
 40
0.0
 41
1.0
 50
0.0
 71
0
 42
2.5
  3
txt
  4

  0
ENDTAB
  0
TABLE
  2
VIEW
 70
0
  0
ENDTAB
  0
TABLE
  2
UCS
 70
0
  0
ENDTAB
  0
TABLE
  2
APPID
 70
3
  0
APPID
  5
606
  2
ACAD
 70
0
  0
APPID
  5
609
  2
HATCHBACKGROUNDCOLOR
 70
0
  0
APPID
  5
60A
  2
EZDXF
 70
0
  0
ENDTAB
  0
TABLE
  2
DIMSTYLE
 70
1
  0
DIMSTYLE
105
607
  2
Standard
 70
0
  3

  4

  5

  6

  7

 40
1.0
 41
2.5
 42
0.625
 43
3.75
 44
1.25
 45
0.0
 46
0.0
 47
0.0
 48
0.0
140
2.5
141
2.5
142
0.0
143
0.03937007874
144
1.0
145
0.0
146
1.0
147
0.625
 71
0
 72
0
 73
0
 74
0
 75
0
 76
0
 77
1
 78
8
170
0
171
3
172
1
173
0
174
0
175
0
176
0
177
0
178
0
  0
ENDTAB
  0
ENDSEC
  0
SECTION
  2
BLOCKS
  0
BLOCK
  5
5E0
  8
0
  2
$Model_Space
 70
0
 10
0.0
 20
0.0
 30
0.0
  3
$Model_Space
  1

1001
EZDXF
1000
WRITTEN_BY_EZDXF
1000
1.4.3 @ 2026-07-07T00:41:28.029518+00:00
  0
ENDBLK
  5
5E1
  8
0
  0
BLOCK
  5
5E2
  8
0
  2
$Paper_Space
 70
0
 10
0.0
 20
0.0
 30
0.0
  3
$Paper_Space
  1

  0
ENDBLK
  5
5E3
  8
0
  0
ENDSEC
  0
SECTION
  2
ENTITIES
  0
LINE
  5
100
  8
0
 10
-4.25212
 20
-2.00923
 30
0.0
 11
-4.49718
 21
-1.99719
 31
0.0
  0
LINE
  5
101
  8
0
 10
-4.49718
 20
-1.99719
 30
0.0
 11
-4.74222
 21
-2.00922
 31
0.0
  0
LINE
  5
102
  8
0
 10
-4.74222
 20
-2.00922
 30
0.0
 11
-4.98491
 21
-2.04524
 31
0.0
  0
LINE
  5
103
  8
0
 10
-4.98491
 20
-2.04524
 30
0.0
 11
-5.22289
 21
-2.10484
 31
0.0
  0
LINE
  5
104
  8
0
 10
-5.22289
 20
-2.10484
 30
0.0
 11
-5.45389
 21
-2.1875
 31
0.0
  0
LINE
  5
105
  8
0
 10
-5.45389
 20
-2.1875
 30
0.0
 11
-5.67567
 21
-2.29239
 31
0.0
  0
LINE
  5
106
  8
0
 10
-5.67567
 20
-2.29239
 30
0.0
 11
-5.88611
 21
-2.41852
 31
0.0
  0
LINE
  5
107
  8
0
 10
-5.88611
 20
-2.41852
 30
0.0
 11
-6.08316
 21
-2.56465
 31
0.0
  0
LINE
  5
108
  8
0
 10
-6.08316
 20
-2.56465
 30
0.0
 11
-6.26495
 21
-2.72942
 31
0.0
  0
LINE
  5
109
  8
0
 10
-6.26495
 20
-2.72942
 30
0.0
 11
-6.42972
 21
-2.91121
 31
0.0
  0
LINE
  5
10A
  8
0
 10
-6.42972
 20
-2.91121
 30
0.0
 11
-6.57585
 21
-3.10828
 31
0.0
  0
LINE
  5
10B
  8
0
 10
-6.57585
 20
-3.10828
 30
0.0
 11
-6.702
 21
-3.3187
 31
0.0
  0
LINE
  5
10C
  8
0
 10
-6.702
 20
-3.3187
 30
0.0
 11
-6.80687
 21
-3.54048
 31
0.0
  0
LINE
  5
10D
  8
0
 10
-6.80687
 20
-3.54048
 30
0.0
 11
-6.88953
 21
-3.77148
 31
0.0
  0
LINE
  5
10E
  8
0
 10
-6.88953
 20
-3.77148
 30
0.0
 11
-6.94914
 21
-4.00948
 31
0.0
  0
LINE
  5
10F
  8
0
 10
-6.94914
 20
-4.00948
 30
0.0
 11
-6.98514
 21
-4.25214
 31
0.0
  0
LINE
  5
110
  8
0
 10
-6.98514
 20
-4.25214
 30
0.0
 11
-6.99718
 21
-4.49719
 31
0.0
  0
LINE
  5
111
  8
0
 10
-6.99718
 20
-4.49719
 30
0.0
 11
-6.98514
 21
-4.74223
 31
0.0
  0
LINE
  5
112
  8
0
 10
-6.98514
 20
-4.74223
 30
0.0
 11
-6.94914
 21
-4.98491
 31
0.0
  0
LINE
  5
113
  8
0
 10
-6.94914
 20
-4.98491
 30
0.0
 11
-6.88953
 21
-5.2229
 31
0.0
  0
LINE
  5
114
  8
0
 10
-6.88953
 20
-5.2229
 30
0.0
 11
-6.80687
 21
-5.4539
 31
0.0
  0
LINE
  5
115
  8
0
 10
-6.80687
 20
-5.4539
 30
0.0
 11
-6.702
 21
-5.67569
 31
0.0
  0
LINE
  5
116
  8
0
 10
-6.702
 20
-5.67569
 30
0.0
 11
-6.57585
 21
-5.88611
 31
0.0
  0
LINE
  5
117
  8
0
 10
-6.57585
 20
-5.88611
 30
0.0
 11
-6.42972
 21
-6.08318
 31
0.0
  0
LINE
  5
118
  8
0
 10
-6.42972
 20
-6.08318
 30
0.0
 11
-6.26495
 21
-6.26495
 31
0.0
  0
LINE
  5
119
  8
0
 10
-6.26495
 20
-6.26495
 30
0.0
 11
-6.08318
 21
-6.42972
 31
0.0
  0
LINE
  5
11A
  8
0
 10
-6.08318
 20
-6.42972
 30
0.0
 11
-5.88611
 21
-6.57585
 31
0.0
  0
LINE
  5
11B
  8
0
 10
-5.88611
 20
-6.57585
 30
0.0
 11
-5.67569
 21
-6.702
 31
0.0
  0
LINE
  5
11C
  8
0
 10
-5.67569
 20
-6.702
 30
0.0
 11
-5.4539
 21
-6.80687
 31
0.0
  0
LINE
  5
11D
  8
0
 10
-5.4539
 20
-6.80687
 30
0.0
 11
-5.2229
 21
-6.88953
 31
0.0
  0
LINE
  5
11E
  8
0
 10
-5.2229
 20
-6.88953
 30
0.0
 11
-4.98491
 21
-6.94914
 31
0.0
  0
LINE
  5
11F
  8
0
 10
-4.98491
 20
-6.94914
 30
0.0
 11
-4.74223
 21
-6.98514
 31
0.0
  0
LINE
  5
120
  8
0
 10
-4.74223
 20
-6.98514
 30
0.0
 11
-4.49719
 21
-6.99718
 31
0.0
  0
LINE
  5
121
  8
0
 10
-4.49719
 20
-6.99718
 30
0.0
 11
-4.25214
 21
-6.98514
 31
0.0
  0
LINE
  5
122
  8
0
 10
-4.25214
 20
-6.98514
 30
0.0
 11
-4.00948
 21
-6.94914
 31
0.0
  0
LINE
  5
123
  8
0
 10
-4.00948
 20
-6.94914
 30
0.0
 11
-3.77148
 21
-6.88953
 31
0.0
  0
LINE
  5
124
  8
0
 10
-3.77148
 20
-6.88953
 30
0.0
 11
-3.54048
 21
-6.80687
 31
0.0
  0
LINE
  5
125
  8
0
 10
-3.54048
 20
-6.80687
 30
0.0
 11
-3.3187
 21
-6.702
 31
0.0
  0
LINE
  5
126
  8
0
 10
-3.3187
 20
-6.702
 30
0.0
 11
-3.10828
 21
-6.57585
 31
0.0
  0
LINE
  5
127
  8
0
 10
-3.10828
 20
-6.57585
 30
0.0
 11
-2.91121
 21
-6.42972
 31
0.0
  0
LINE
  5
128
  8
0
 10
-2.91121
 20
-6.42972
 30
0.0
 11
-2.72942
 21
-6.26495
 31
0.0
  0
LINE
  5
129
  8
0
 10
-2.72942
 20
-6.26495
 30
0.0
 11
-2.56465
 21
-6.08316
 31
0.0
  0
LINE
  5
12A
  8
0
 10
-2.56465
 20
-6.08316
 30
0.0
 11
-2.41852
 21
-5.88611
 31
0.0
  0
LINE
  5
12B
  8
0
 10
-2.41852
 20
-5.88611
 30
0.0
 11
-2.29239
 21
-5.67567
 31
0.0
  0
LINE
  5
12C
  8
0
 10
-2.29239
 20
-5.67567
 30
0.0
 11
-2.1875
 21
-5.45389
 31
0.0
  0
LINE
  5
12D
  8
0
 10
-2.1875
 20
-5.45389
 30
0.0
 11
-2.10484
 21
-5.22289
 31
0.0
  0
LINE
  5
12E
  8
0
 10
-2.10484
 20
-5.22289
 30
0.0
 11
-2.04524
 21
-4.98491
 31
0.0
  0
LINE
  5
12F
  8
0
 10
-2.04524
 20
-4.98491
 30
0.0
 11
-2.00922
 21
-4.74222
 31
0.0
  0
LINE
  5
130
  8
0
 10
-2.00922
 20
-4.74222
 30
0.0
 11
-1.99719
 21
-4.49718
 31
0.0
  0
LINE
  5
131
  8
0
 10
-1.99719
 20
-4.49718
 30
0.0
 11
-2.00923
 21
-4.25212
 31
0.0
  0
LINE
  5
132
  8
0
 10
-2.00923
 20
-4.25212
 30
0.0
 11
-2.04523
 21
-4.00945
 31
0.0
  0
LINE
  5
133
  8
0
 10
-2.04523
 20
-4.00945
 30
0.0
 11
-2.086
 21
-3.84669
 31
0.0
  0
LINE
  5
134
  8
0
 10
-2.086
 20
-3.84669
 30
0.0
 11
0.844986
 21
-0.91568
 31
0.0
  0
LINE
  5
135
  8
0
 10
0.844986
 20
-0.91568
 30
0.0
 11
2.6958
 21
-2.76649
 31
0.0
  0
LINE
  5
136
  8
0
 10
2.6958
 20
-2.76649
 30
0.0
 11
2.56465
 21
-2.91119
 31
0.0
  0
LINE
  5
137
  8
0
 10
2.56465
 20
-2.91119
 30
0.0
 11
2.41852
 21
-3.10826
 31
0.0
  0
LINE
  5
138
  8
0
 10
2.41852
 20
-3.10826
 30
0.0
 11
2.29239
 21
-3.3187
 31
0.0
  0
LINE
  5
139
  8
0
 10
2.29239
 20
-3.3187
 30
0.0
 11
2.1875
 21
-3.54047
 31
0.0
  0
LINE
  5
13A
  8
0
 10
2.1875
 20
-3.54047
 30
0.0
 11
2.10484
 21
-3.77147
 31
0.0
  0
LINE
  5
13B
  8
0
 10
2.10484
 20
-3.77147
 30
0.0
 11
2.04523
 21
-4.00945
 31
0.0
  0
LINE
  5
13C
  8
0
 10
2.04523
 20
-4.00945
 30
0.0
 11
2.00923
 21
-4.25212
 31
0.0
  0
LINE
  5
13D
  8
0
 10
2.00923
 20
-4.25212
 30
0.0
 11
1.99719
 21
-4.49718
 31
0.0
  0
LINE
  5
13E
  8
0
 10
1.99719
 20
-4.49718
 30
0.0
 11
2.00922
 21
-4.74222
 31
0.0
  0
LINE
  5
13F
  8
0
 10
2.00922
 20
-4.74222
 30
0.0
 11
2.04524
 21
-4.98491
 31
0.0
  0
LINE
  5
140
  8
0
 10
2.04524
 20
-4.98491
 30
0.0
 11
2.10484
 21
-5.22289
 31
0.0
  0
LINE
  5
141
  8
0
 10
2.10484
 20
-5.22289
 30
0.0
 11
2.1875
 21
-5.45389
 31
0.0
  0
LINE
  5
142
  8
0
 10
2.1875
 20
-5.45389
 30
0.0
 11
2.29239
 21
-5.67567
 31
0.0
  0
LINE
  5
143
  8
0
 10
2.29239
 20
-5.67567
 30
0.0
 11
2.41852
 21
-5.88611
 31
0.0
  0
LINE
  5
144
  8
0
 10
2.41852
 20
-5.88611
 30
0.0
 11
2.56465
 21
-6.08316
 31
0.0
  0
LINE
  5
145
  8
0
 10
2.56465
 20
-6.08316
 30
0.0
 11
2.72942
 21
-6.26495
 31
0.0
  0
LINE
  5
146
  8
0
 10
2.72942
 20
-6.26495
 30
0.0
 11
2.91121
 21
-6.42972
 31
0.0
  0
LINE
  5
147
  8
0
 10
2.91121
 20
-6.42972
 30
0.0
 11
3.10828
 21
-6.57585
 31
0.0
  0
LINE
  5
148
  8
0
 10
3.10828
 20
-6.57585
 30
0.0
 11
3.3187
 21
-6.702
 31
0.0
  0
LINE
  5
149
  8
0
 10
3.3187
 20
-6.702
 30
0.0
 11
3.54048
 21
-6.80687
 31
0.0
  0
LINE
  5
14A
  8
0
 10
3.54048
 20
-6.80687
 30
0.0
 11
3.77148
 21
-6.88953
 31
0.0
  0
LINE
  5
14B
  8
0
 10
3.77148
 20
-6.88953
 30
0.0
 11
4.00948
 21
-6.94914
 31
0.0
  0
LINE
  5
14C
  8
0
 10
4.00948
 20
-6.94914
 30
0.0
 11
4.25214
 21
-6.98514
 31
0.0
  0
LINE
  5
14D
  8
0
 10
4.25214
 20
-6.98514
 30
0.0
 11
4.49719
 21
-6.99718
 31
0.0
  0
LINE
  5
14E
  8
0
 10
4.49719
 20
-6.99718
 30
0.0
 11
4.74223
 21
-6.98514
 31
0.0
  0
LINE
  5
14F
  8
0
 10
4.74223
 20
-6.98514
 30
0.0
 11
4.98491
 21
-6.94914
 31
0.0
  0
LINE
  5
150
  8
0
 10
4.98491
 20
-6.94914
 30
0.0
 11
5.2229
 21
-6.88953
 31
0.0
  0
LINE
  5
151
  8
0
 10
5.2229
 20
-6.88953
 30
0.0
 11
5.4539
 21
-6.80687
 31
0.0
  0
LINE
  5
152
  8
0
 10
5.4539
 20
-6.80687
 30
0.0
 11
5.67569
 21
-6.702
 31
0.0
  0
LINE
  5
153
  8
0
 10
5.67569
 20
-6.702
 30
0.0
 11
5.88611
 21
-6.57585
 31
0.0
  0
LINE
  5
154
  8
0
 10
5.88611
 20
-6.57585
 30
0.0
 11
6.08318
 21
-6.42972
 31
0.0
  0
LINE
  5
155
  8
0
 10
6.08318
 20
-6.42972
 30
0.0
 11
6.26495
 21
-6.26495
 31
0.0
  0
LINE
  5
156
  8
0
 10
6.26495
 20
-6.26495
 30
0.0
 11
6.42972
 21
-6.08318
 31
0.0
  0
LINE
  5
157
  8
0
 10
6.42972
 20
-6.08318
 30
0.0
 11
6.57585
 21
-5.88611
 31
0.0
  0
LINE
  5
158
  8
0
 10
6.57585
 20
-5.88611
 30
0.0
 11
6.702
 21
-5.67569
 31
0.0
  0
LINE
  5
159
  8
0
 10
6.702
 20
-5.67569
 30
0.0
 11
6.80687
 21
-5.4539
 31
0.0
  0
LINE
  5
15A
  8
0
 10
6.80687
 20
-5.4539
 30
0.0
 11
6.88953
 21
-5.2229
 31
0.0
  0
LINE
  5
15B
  8
0
 10
6.88953
 20
-5.2229
 30
0.0
 11
6.94914
 21
-4.98491
 31
0.0
  0
LINE
  5
15C
  8
0
 10
6.94914
 20
-4.98491
 30
0.0
 11
6.98514
 21
-4.74223
 31
0.0
  0
LINE
  5
15D
  8
0
 10
6.98514
 20
-4.74223
 30
0.0
 11
6.99718
 21
-4.49719
 31
0.0
  0
LINE
  5
15E
  8
0
 10
6.99718
 20
-4.49719
 30
0.0
 11
6.98514
 21
-4.25214
 31
0.0
  0
LINE
  5
15F
  8
0
 10
6.98514
 20
-4.25214
 30
0.0
 11
6.94914
 21
-4.00948
 31
0.0
  0
LINE
  5
160
  8
0
 10
6.94914
 20
-4.00948
 30
0.0
 11
6.88953
 21
-3.77148
 31
0.0
  0
LINE
  5
161
  8
0
 10
6.88953
 20
-3.77148
 30
0.0
 11
6.80687
 21
-3.54048
 31
0.0
  0
LINE
  5
162
  8
0
 10
6.80687
 20
-3.54048
 30
0.0
 11
6.702
 21
-3.3187
 31
0.0
  0
LINE
  5
163
  8
0
 10
6.702
 20
-3.3187
 30
0.0
 11
6.57585
 21
-3.10828
 31
0.0
  0
LINE
  5
164
  8
0
 10
6.57585
 20
-3.10828
 30
0.0
 11
6.42972
 21
-2.91121
 31
0.0
  0
LINE
  5
165
  8
0
 10
6.42972
 20
-2.91121
 30
0.0
 11
6.26495
 21
-2.72942
 31
0.0
  0
LINE
  5
166
  8
0
 10
6.26495
 20
-2.72942
 30
0.0
 11
6.08316
 21
-2.56465
 31
0.0
  0
LINE
  5
167
  8
0
 10
6.08316
 20
-2.56465
 30
0.0
 11
5.88611
 21
-2.41852
 31
0.0
  0
LINE
  5
168
  8
0
 10
5.88611
 20
-2.41852
 30
0.0
 11
5.67567
 21
-2.29239
 31
0.0
  0
LINE
  5
169
  8
0
 10
5.67567
 20
-2.29239
 30
0.0
 11
5.45389
 21
-2.1875
 31
0.0
  0
LINE
  5
16A
  8
0
 10
5.45389
 20
-2.1875
 30
0.0
 11
5.22289
 21
-2.10484
 31
0.0
  0
LINE
  5
16B
  8
0
 10
5.22289
 20
-2.10484
 30
0.0
 11
4.98491
 21
-2.04524
 31
0.0
  0
LINE
  5
16C
  8
0
 10
4.98491
 20
-2.04524
 30
0.0
 11
4.74222
 21
-2.00922
 31
0.0
  0
LINE
  5
16D
  8
0
 10
4.74222
 20
-2.00922
 30
0.0
 11
4.49718
 21
-1.99719
 31
0.0
  0
LINE
  5
16E
  8
0
 10
4.49718
 20
-1.99719
 30
0.0
 11
4.25212
 21
-2.00923
 31
0.0
  0
LINE
  5
16F
  8
0
 10
4.25212
 20
-2.00923
 30
0.0
 11
4.00945
 21
-2.04523
 31
0.0
  0
LINE
  5
170
  8
0
 10
4.00945
 20
-2.04523
 30
0.0
 11
3.77147
 21
-2.10484
 31
0.0
  0
LINE
  5
171
  8
0
 10
3.77147
 20
-2.10484
 30
0.0
 11
3.54047
 21
-2.1875
 31
0.0
  0
LINE
  5
172
  8
0
 10
3.54047
 20
-2.1875
 30
0.0
 11
3.3187
 21
-2.29239
 31
0.0
  0
LINE
  5
173
  8
0
 10
3.3187
 20
-2.29239
 30
0.0
 11
3.10826
 21
-2.41852
 31
0.0
  0
LINE
  5
174
  8
0
 10
3.10826
 20
-2.41852
 30
0.0
 11
2.91119
 21
-2.56465
 31
0.0
  0
LINE
  5
175
  8
0
 10
2.91119
 20
-2.56465
 30
0.0
 11
2.76649
 21
-2.6958
 31
0.0
  0
LINE
  5
176
  8
0
 10
2.76649
 20
-2.6958
 30
0.0
 11
0.91568
 21
-0.844986
 31
0.0
  0
LINE
  5
177
  8
0
 10
0.91568
 20
-0.844986
 30
0.0
 11
3.84669
 21
2.086
 31
0.0
  0
LINE
  5
178
  8
0
 10
3.84669
 20
2.086
 30
0.0
 11
4.00945
 21
2.04523
 31
0.0
  0
LINE
  5
179
  8
0
 10
4.00945
 20
2.04523
 30
0.0
 11
4.25212
 21
2.00923
 31
0.0
  0
LINE
  5
17A
  8
0
 10
4.25212
 20
2.00923
 30
0.0
 11
4.49718
 21
1.99719
 31
0.0
  0
LINE
  5
17B
  8
0
 10
4.49718
 20
1.99719
 30
0.0
 11
4.74222
 21
2.00922
 31
0.0
  0
LINE
  5
17C
  8
0
 10
4.74222
 20
2.00922
 30
0.0
 11
4.98491
 21
2.04524
 31
0.0
  0
LINE
  5
17D
  8
0
 10
4.98491
 20
2.04524
 30
0.0
 11
5.22289
 21
2.10484
 31
0.0
  0
LINE
  5
17E
  8
0
 10
5.22289
 20
2.10484
 30
0.0
 11
5.45389
 21
2.1875
 31
0.0
  0
LINE
  5
17F
  8
0
 10
5.45389
 20
2.1875
 30
0.0
 11
5.67567
 21
2.29239
 31
0.0
  0
LINE
  5
180
  8
0
 10
5.67567
 20
2.29239
 30
0.0
 11
5.88611
 21
2.41852
 31
0.0
  0
LINE
  5
181
  8
0
 10
5.88611
 20
2.41852
 30
0.0
 11
6.08316
 21
2.56465
 31
0.0
  0
LINE
  5
182
  8
0
 10
6.08316
 20
2.56465
 30
0.0
 11
6.26495
 21
2.72942
 31
0.0
  0
LINE
  5
183
  8
0
 10
6.26495
 20
2.72942
 30
0.0
 11
6.42972
 21
2.91121
 31
0.0
  0
LINE
  5
184
  8
0
 10
6.42972
 20
2.91121
 30
0.0
 11
6.57585
 21
3.10828
 31
0.0
  0
LINE
  5
185
  8
0
 10
6.57585
 20
3.10828
 30
0.0
 11
6.702
 21
3.3187
 31
0.0
  0
LINE
  5
186
  8
0
 10
6.702
 20
3.3187
 30
0.0
 11
6.80687
 21
3.54048
 31
0.0
  0
LINE
  5
187
  8
0
 10
6.80687
 20
3.54048
 30
0.0
 11
6.88953
 21
3.77148
 31
0.0
  0
LINE
  5
188
  8
0
 10
6.88953
 20
3.77148
 30
0.0
 11
6.94914
 21
4.00948
 31
0.0
  0
LINE
  5
189
  8
0
 10
6.94914
 20
4.00948
 30
0.0
 11
6.98514
 21
4.25214
 31
0.0
  0
LINE
  5
18A
  8
0
 10
6.98514
 20
4.25214
 30
0.0
 11
6.99718
 21
4.49719
 31
0.0
  0
LINE
  5
18B
  8
0
 10
6.99718
 20
4.49719
 30
0.0
 11
6.98514
 21
4.74223
 31
0.0
  0
LINE
  5
18C
  8
0
 10
6.98514
 20
4.74223
 30
0.0
 11
6.94914
 21
4.98491
 31
0.0
  0
LINE
  5
18D
  8
0
 10
6.94914
 20
4.98491
 30
0.0
 11
6.88953
 21
5.2229
 31
0.0
  0
LINE
  5
18E
  8
0
 10
6.88953
 20
5.2229
 30
0.0
 11
6.80687
 21
5.4539
 31
0.0
  0
LINE
  5
18F
  8
0
 10
6.80687
 20
5.4539
 30
0.0
 11
6.702
 21
5.67569
 31
0.0
  0
LINE
  5
190
  8
0
 10
6.702
 20
5.67569
 30
0.0
 11
6.57585
 21
5.88611
 31
0.0
  0
LINE
  5
191
  8
0
 10
6.57585
 20
5.88611
 30
0.0
 11
6.42972
 21
6.08318
 31
0.0
  0
LINE
  5
192
  8
0
 10
6.42972
 20
6.08318
 30
0.0
 11
6.26495
 21
6.26495
 31
0.0
  0
LINE
  5
193
  8
0
 10
6.26495
 20
6.26495
 30
0.0
 11
6.08318
 21
6.42972
 31
0.0
  0
LINE
  5
194
  8
0
 10
6.08318
 20
6.42972
 30
0.0
 11
5.88611
 21
6.57585
 31
0.0
  0
LINE
  5
195
  8
0
 10
5.88611
 20
6.57585
 30
0.0
 11
5.67569
 21
6.702
 31
0.0
  0
LINE
  5
196
  8
0
 10
5.67569
 20
6.702
 30
0.0
 11
5.4539
 21
6.80687
 31
0.0
  0
LINE
  5
197
  8
0
 10
5.4539
 20
6.80687
 30
0.0
 11
5.2229
 21
6.88953
 31
0.0
  0
LINE
  5
198
  8
0
 10
5.2229
 20
6.88953
 30
0.0
 11
4.98491
 21
6.94914
 31
0.0
  0
LINE
  5
199
  8
0
 10
4.98491
 20
6.94914
 30
0.0
 11
4.74223
 21
6.98514
 31
0.0
  0
LINE
  5
19A
  8
0
 10
4.74223
 20
6.98514
 30
0.0
 11
4.49719
 21
6.99718
 31
0.0
  0
LINE
  5
19B
  8
0
 10
4.49719
 20
6.99718
 30
0.0
 11
4.25214
 21
6.98514
 31
0.0
  0
LINE
  5
19C
  8
0
 10
4.25214
 20
6.98514
 30
0.0
 11
4.00948
 21
6.94914
 31
0.0
  0
LINE
  5
19D
  8
0
 10
4.00948
 20
6.94914
 30
0.0
 11
3.77148
 21
6.88953
 31
0.0
  0
LINE
  5
19E
  8
0
 10
3.77148
 20
6.88953
 30
0.0
 11
3.54048
 21
6.80687
 31
0.0
  0
LINE
  5
19F
  8
0
 10
3.54048
 20
6.80687
 30
0.0
 11
3.3187
 21
6.702
 31
0.0
  0
LINE
  5
1A0
  8
0
 10
3.3187
 20
6.702
 30
0.0
 11
3.10828
 21
6.57585
 31
0.0
  0
LINE
  5
1A1
  8
0
 10
3.10828
 20
6.57585
 30
0.0
 11
2.91121
 21
6.42972
 31
0.0
  0
LINE
  5
1A2
  8
0
 10
2.91121
 20
6.42972
 30
0.0
 11
2.72942
 21
6.26495
 31
0.0
  0
LINE
  5
1A3
  8
0
 10
2.72942
 20
6.26495
 30
0.0
 11
2.56465
 21
6.08316
 31
0.0
  0
LINE
  5
1A4
  8
0
 10
2.56465
 20
6.08316
 30
0.0
 11
2.41852
 21
5.88611
 31
0.0
  0
LINE
  5
1A5
  8
0
 10
2.41852
 20
5.88611
 30
0.0
 11
2.29239
 21
5.67567
 31
0.0
  0
LINE
  5
1A6
  8
0
 10
2.29239
 20
5.67567
 30
0.0
 11
2.1875
 21
5.45389
 31
0.0
  0
LINE
  5
1A7
  8
0
 10
2.1875
 20
5.45389
 30
0.0
 11
2.10484
 21
5.22289
 31
0.0
  0
LINE
  5
1A8
  8
0
 10
2.10484
 20
5.22289
 30
0.0
 11
2.04524
 21
4.98491
 31
0.0
  0
LINE
  5
1A9
  8
0
 10
2.04524
 20
4.98491
 30
0.0
 11
2.00922
 21
4.74222
 31
0.0
  0
LINE
  5
1AA
  8
0
 10
2.00922
 20
4.74222
 30
0.0
 11
1.99719
 21
4.49718
 31
0.0
  0
LINE
  5
1AB
  8
0
 10
1.99719
 20
4.49718
 30
0.0
 11
2.00923
 21
4.25212
 31
0.0
  0
LINE
  5
1AC
  8
0
 10
2.00923
 20
4.25212
 30
0.0
 11
2.04523
 21
4.00945
 31
0.0
  0
LINE
  5
1AD
  8
0
 10
2.04523
 20
4.00945
 30
0.0
 11
2.086
 21
3.84669
 31
0.0
  0
LINE
  5
1AE
  8
0
 10
2.086
 20
3.84669
 30
0.0
 11
-0.844986
 21
0.91568
 31
0.0
  0
LINE
  5
1AF
  8
0
 10
-0.844986
 20
0.91568
 30
0.0
 11
-2.6958
 21
2.76649
 31
0.0
  0
LINE
  5
1B0
  8
0
 10
-2.6958
 20
2.76649
 30
0.0
 11
-2.56465
 21
2.91119
 31
0.0
  0
LINE
  5
1B1
  8
0
 10
-2.56465
 20
2.91119
 30
0.0
 11
-2.41852
 21
3.10826
 31
0.0
  0
LINE
  5
1B2
  8
0
 10
-2.41852
 20
3.10826
 30
0.0
 11
-2.29239
 21
3.3187
 31
0.0
  0
LINE
  5
1B3
  8
0
 10
-2.29239
 20
3.3187
 30
0.0
 11
-2.1875
 21
3.54047
 31
0.0
  0
LINE
  5
1B4
  8
0
 10
-2.1875
 20
3.54047
 30
0.0
 11
-2.10484
 21
3.77147
 31
0.0
  0
LINE
  5
1B5
  8
0
 10
-2.10484
 20
3.77147
 30
0.0
 11
-2.04523
 21
4.00945
 31
0.0
  0
LINE
  5
1B6
  8
0
 10
-2.04523
 20
4.00945
 30
0.0
 11
-2.00923
 21
4.25212
 31
0.0
  0
LINE
  5
1B7
  8
0
 10
-2.00923
 20
4.25212
 30
0.0
 11
-1.99719
 21
4.49718
 31
0.0
  0
LINE
  5
1B8
  8
0
 10
-1.99719
 20
4.49718
 30
0.0
 11
-2.00922
 21
4.74222
 31
0.0
  0
LINE
  5
1B9
  8
0
 10
-2.00922
 20
4.74222
 30
0.0
 11
-2.04524
 21
4.98491
 31
0.0
  0
LINE
  5
1BA
  8
0
 10
-2.04524
 20
4.98491
 30
0.0
 11
-2.10484
 21
5.22289
 31
0.0
  0
LINE
  5
1BB
  8
0
 10
-2.10484
 20
5.22289
 30
0.0
 11
-2.1875
 21
5.45389
 31
0.0
  0
LINE
  5
1BC
  8
0
 10
-2.1875
 20
5.45389
 30
0.0
 11
-2.29239
 21
5.67567
 31
0.0
  0
LINE
  5
1BD
  8
0
 10
-2.29239
 20
5.67567
 30
0.0
 11
-2.41852
 21
5.88611
 31
0.0
  0
LINE
  5
1BE
  8
0
 10
-2.41852
 20
5.88611
 30
0.0
 11
-2.56465
 21
6.08316
 31
0.0
  0
LINE
  5
1BF
  8
0
 10
-2.56465
 20
6.08316
 30
0.0
 11
-2.72942
 21
6.26495
 31
0.0
  0
LINE
  5
1C0
  8
0
 10
-2.72942
 20
6.26495
 30
0.0
 11
-2.91121
 21
6.42972
 31
0.0
  0
LINE
  5
1C1
  8
0
 10
-2.91121
 20
6.42972
 30
0.0
 11
-3.10828
 21
6.57585
 31
0.0
  0
LINE
  5
1C2
  8
0
 10
-3.10828
 20
6.57585
 30
0.0
 11
-3.3187
 21
6.702
 31
0.0
  0
LINE
  5
1C3
  8
0
 10
-3.3187
 20
6.702
 30
0.0
 11
-3.54048
 21
6.80687
 31
0.0
  0
LINE
  5
1C4
  8
0
 10
-3.54048
 20
6.80687
 30
0.0
 11
-3.77148
 21
6.88953
 31
0.0
  0
LINE
  5
1C5
  8
0
 10
-3.77148
 20
6.88953
 30
0.0
 11
-4.00948
 21
6.94914
 31
0.0
  0
LINE
  5
1C6
  8
0
 10
-4.00948
 20
6.94914
 30
0.0
 11
-4.25214
 21
6.98514
 31
0.0
  0
LINE
  5
1C7
  8
0
 10
-4.25214
 20
6.98514
 30
0.0
 11
-4.49719
 21
6.99718
 31
0.0
  0
LINE
  5
1C8
  8
0
 10
-4.49719
 20
6.99718
 30
0.0
 11
-4.74223
 21
6.98514
 31
0.0
  0
LINE
  5
1C9
  8
0
 10
-4.74223
 20
6.98514
 30
0.0
 11
-4.98491
 21
6.94914
 31
0.0
  0
LINE
  5
1CA
  8
0
 10
-4.98491
 20
6.94914
 30
0.0
 11
-5.2229
 21
6.88953
 31
0.0
  0
LINE
  5
1CB
  8
0
 10
-5.2229
 20
6.88953
 30
0.0
 11
-5.4539
 21
6.80687
 31
0.0
  0
LINE
  5
1CC
  8
0
 10
-5.4539
 20
6.80687
 30
0.0
 11
-5.67569
 21
6.702
 31
0.0
  0
LINE
  5
1CD
  8
0
 10
-5.67569
 20
6.702
 30
0.0
 11
-5.88611
 21
6.57585
 31
0.0
  0
LINE
  5
1CE
  8
0
 10
-5.88611
 20
6.57585
 30
0.0
 11
-6.08318
 21
6.42972
 31
0.0
  0
LINE
  5
1CF
  8
0
 10
-6.08318
 20
6.42972
 30
0.0
 11
-6.26495
 21
6.26495
 31
0.0
  0
LINE
  5
1D0
  8
0
 10
-6.26495
 20
6.26495
 30
0.0
 11
-6.42972
 21
6.08318
 31
0.0
  0
LINE
  5
1D1
  8
0
 10
-6.42972
 20
6.08318
 30
0.0
 11
-6.57585
 21
5.88611
 31
0.0
  0
LINE
  5
1D2
  8
0
 10
-6.57585
 20
5.88611
 30
0.0
 11
-6.702
 21
5.67569
 31
0.0
  0
LINE
  5
1D3
  8
0
 10
-6.702
 20
5.67569
 30
0.0
 11
-6.80687
 21
5.4539
 31
0.0
  0
LINE
  5
1D4
  8
0
 10
-6.80687
 20
5.4539
 30
0.0
 11
-6.88953
 21
5.2229
 31
0.0
  0
LINE
  5
1D5
  8
0
 10
-6.88953
 20
5.2229
 30
0.0
 11
-6.94914
 21
4.98491
 31
0.0
  0
LINE
  5
1D6
  8
0
 10
-6.94914
 20
4.98491
 30
0.0
 11
-6.98514
 21
4.74223
 31
0.0
  0
LINE
  5
1D7
  8
0
 10
-6.98514
 20
4.74223
 30
0.0
 11
-6.99718
 21
4.49719
 31
0.0
  0
LINE
  5
1D8
  8
0
 10
-6.99718
 20
4.49719
 30
0.0
 11
-6.98514
 21
4.25214
 31
0.0
  0
LINE
  5
1D9
  8
0
 10
-6.98514
 20
4.25214
 30
0.0
 11
-6.94914
 21
4.00948
 31
0.0
  0
LINE
  5
1DA
  8
0
 10
-6.94914
 20
4.00948
 30
0.0
 11
-6.88953
 21
3.77148
 31
0.0
  0
LINE
  5
1DB
  8
0
 10
-6.88953
 20
3.77148
 30
0.0
 11
-6.80687
 21
3.54048
 31
0.0
  0
LINE
  5
1DC
  8
0
 10
-6.80687
 20
3.54048
 30
0.0
 11
-6.702
 21
3.3187
 31
0.0
  0
LINE
  5
1DD
  8
0
 10
-6.702
 20
3.3187
 30
0.0
 11
-6.57585
 21
3.10828
 31
0.0
  0
LINE
  5
1DE
  8
0
 10
-6.57585
 20
3.10828
 30
0.0
 11
-6.42972
 21
2.91121
 31
0.0
  0
LINE
  5
1DF
  8
0
 10
-6.42972
 20
2.91121
 30
0.0
 11
-6.26495
 21
2.72942
 31
0.0
  0
LINE
  5
1E0
  8
0
 10
-6.26495
 20
2.72942
 30
0.0
 11
-6.08316
 21
2.56465
 31
0.0
  0
LINE
  5
1E1
  8
0
 10
-6.08316
 20
2.56465
 30
0.0
 11
-5.88611
 21
2.41852
 31
0.0
  0
LINE
  5
1E2
  8
0
 10
-5.88611
 20
2.41852
 30
0.0
 11
-5.67567
 21
2.29239
 31
0.0
  0
LINE
  5
1E3
  8
0
 10
-5.67567
 20
2.29239
 30
0.0
 11
-5.45389
 21
2.1875
 31
0.0
  0
LINE
  5
1E4
  8
0
 10
-5.45389
 20
2.1875
 30
0.0
 11
-5.22289
 21
2.10484
 31
0.0
  0
LINE
  5
1E5
  8
0
 10
-5.22289
 20
2.10484
 30
0.0
 11
-4.98491
 21
2.04524
 31
0.0
  0
LINE
  5
1E6
  8
0
 10
-4.98491
 20
2.04524
 30
0.0
 11
-4.74222
 21
2.00922
 31
0.0
  0
LINE
  5
1E7
  8
0
 10
-4.74222
 20
2.00922
 30
0.0
 11
-4.49718
 21
1.99719
 31
0.0
  0
LINE
  5
1E8
  8
0
 10
-4.49718
 20
1.99719
 30
0.0
 11
-4.25212
 21
2.00923
 31
0.0
  0
LINE
  5
1E9
  8
0
 10
-4.25212
 20
2.00923
 30
0.0
 11
-4.00945
 21
2.04523
 31
0.0
  0
LINE
  5
1EA
  8
0
 10
-4.00945
 20
2.04523
 30
0.0
 11
-3.77147
 21
2.10484
 31
0.0
  0
LINE
  5
1EB
  8
0
 10
-3.77147
 20
2.10484
 30
0.0
 11
-3.54047
 21
2.1875
 31
0.0
  0
LINE
  5
1EC
  8
0
 10
-3.54047
 20
2.1875
 30
0.0
 11
-3.3187
 21
2.29239
 31
0.0
  0
LINE
  5
1ED
  8
0
 10
-3.3187
 20
2.29239
 30
0.0
 11
-3.10826
 21
2.41852
 31
0.0
  0
LINE
  5
1EE
  8
0
 10
-3.10826
 20
2.41852
 30
0.0
 11
-2.91119
 21
2.56465
 31
0.0
  0
LINE
  5
1EF
  8
0
 10
-2.91119
 20
2.56465
 30
0.0
 11
-2.76649
 21
2.6958
 31
0.0
  0
LINE
  5
1F0
  8
0
 10
-2.76649
 20
2.6958
 30
0.0
 11
-0.91568
 21
0.844986
 31
0.0
  0
LINE
  5
1F1
  8
0
 10
-0.91568
 20
0.844986
 30
0.0
 11
-3.84669
 21
-2.086
 31
0.0
  0
LINE
  5
1F2
  8
0
 10
-3.84669
 20
-2.086
 30
0.0
 11
-4.00945
 21
-2.04523
 31
0.0
  0
LINE
  5
1F3
  8
0
 10
-4.00945
 20
-2.04523
 30
0.0
 11
-4.25212
 21
-2.00923
 31
0.0
  0
LINE
  5
1F4
  8
0
 10
-0.837906
 20
0.9086
 30
0.0
 11
0.49144
 21
2.23796
 31
0.0
  0
LINE
  5
1F5
  8
0
 10
0.49144
 20
2.23796
 30
0.0
 11
0.498505
 21
2.2309
 31
0.0
  0
LINE
  5
1F6
  8
0
 10
0.498505
 20
2.2309
 30
0.0
 11
-0.830841
 21
0.901535
 31
0.0
  0
LINE
  5
1F7
  8
0
 10
-0.830841
 20
0.901535
 30
0.0
 11
-0.837906
 21
0.9086
 31
0.0
  0
LINE
  5
1F8
  8
0
 10
-0.823776
 20
0.89447
 30
0.0
 11
0.505569
 21
2.22383
 31
0.0
  0
LINE
  5
1F9
  8
0
 10
0.505569
 20
2.22383
 30
0.0
 11
0.51265
 21
2.21675
 31
0.0
  0
LINE
  5
1FA
  8
0
 10
0.51265
 20
2.21675
 30
0.0
 11
-0.816696
 21
0.88739
 31
0.0
  0
LINE
  5
1FB
  8
0
 10
-0.816696
 20
0.88739
 30
0.0
 11
-0.823776
 21
0.89447
 31
0.0
  0
LINE
  5
1FC
  8
0
 10
-0.809631
 20
0.880325
 30
0.0
 11
0.519714
 21
2.20969
 31
0.0
  0
LINE
  5
1FD
  8
0
 10
0.519714
 20
2.20969
 30
0.0
 11
0.526779
 21
2.20262
 31
0.0
  0
LINE
  5
1FE
  8
0
 10
0.526779
 20
2.20262
 30
0.0
 11
-0.802567
 21
0.87326
 31
0.0
  0
LINE
  5
1FF
  8
0
 10
-0.802567
 20
0.87326
 30
0.0
 11
-0.809631
 21
0.880325
 31
0.0
  0
LINE
  5
200
  8
0
 10
-0.795486
 20
0.86618
 30
0.0
 11
0.533859
 21
2.19554
 31
0.0
  0
LINE
  5
201
  8
0
 10
0.533859
 20
2.19554
 30
0.0
 11
0.540924
 21
2.18848
 31
0.0
  0
LINE
  5
202
  8
0
 10
0.540924
 20
2.18848
 30
0.0
 11
-0.788422
 21
0.859116
 31
0.0
  0
LINE
  5
203
  8
0
 10
-0.788422
 20
0.859116
 30
0.0
 11
-0.795486
 21
0.86618
 31
0.0
  0
LINE
  5
204
  8
0
 10
-0.781357
 20
0.852051
 30
0.0
 11
0.547989
 21
2.18141
 31
0.0
  0
LINE
  5
205
  8
0
 10
0.547989
 20
2.18141
 30
0.0
 11
0.555069
 21
2.17433
 31
0.0
  0
LINE
  5
206
  8
0
 10
0.555069
 20
2.17433
 30
0.0
 11
-0.774277
 21
0.844971
 31
0.0
  0
LINE
  5
207
  8
0
 10
-0.774277
 20
0.844971
 30
0.0
 11
-0.781357
 21
0.852051
 31
0.0
  0
LINE
  5
208
  8
0
 10
-0.767212
 20
0.837906
 30
0.0
 11
0.562134
 21
2.16727
 31
0.0
  0
LINE
  5
209
  8
0
 10
0.562134
 20
2.16727
 30
0.0
 11
0.569214
 21
2.1602
 31
0.0
  0
LINE
  5
20A
  8
0
 10
0.569214
 20
2.1602
 30
0.0
 11
-0.760147
 21
0.830841
 31
0.0
  0
LINE
  5
20B
  8
0
 10
-0.760147
 20
0.830841
 30
0.0
 11
-0.767212
 21
0.837906
 31
0.0
  0
LINE
  5
20C
  8
0
 10
-0.753067
 20
0.823761
 30
0.0
 11
0.576279
 21
2.15312
 31
0.0
  0
LINE
  5
20D
  8
0
 10
0.576279
 20
2.15312
 30
0.0
 11
0.583359
 21
2.14606
 31
0.0
  0
LINE
  5
20E
  8
0
 10
0.583359
 20
2.14606
 30
0.0
 11
-0.746002
 21
0.816696
 31
0.0
  0
LINE
  5
20F
  8
0
 10
-0.746002
 20
0.816696
 30
0.0
 11
-0.753067
 21
0.823761
 31
0.0
  0
LINE
  5
210
  8
0
 10
-0.738922
 20
0.809616
 30
0.0
 11
0.590439
 21
2.13898
 31
0.0
  0
LINE
  5
211
  8
0
 10
0.590439
 20
2.13898
 30
0.0
 11
0.597504
 21
2.13191
 31
0.0
  0
LINE
  5
212
  8
0
 10
0.597504
 20
2.13191
 30
0.0
 11
-0.731857
 21
0.802551
 31
0.0
  0
LINE
  5
213
  8
0
 10
-0.731857
 20
0.802551
 30
0.0
 11
-0.738922
 21
0.809616
 31
0.0
  0
LINE
  5
214
  8
0
 10
-0.724777
 20
0.795471
 30
0.0
 11
0.604568
 21
2.12483
 31
0.0
  0
LINE
  5
215
  8
0
 10
0.604568
 20
2.12483
 30
0.0
 11
0.611649
 21
2.11775
 31
0.0
  0
LINE
  5
216
  8
0
 10
0.611649
 20
2.11775
 30
0.0
 11
-0.717712
 21
0.788406
 31
0.0
  0
LINE
  5
217
  8
0
 10
-0.717712
 20
0.788406
 30
0.0
 11
-0.724777
 21
0.795471
 31
0.0
  0
LINE
  5
218
  8
0
 10
-0.710632
 20
0.781326
 30
0.0
 11
0.618713
 21
2.11069
 31
0.0
  0
LINE
  5
219
  8
0
 10
0.618713
 20
2.11069
 30
0.0
 11
0.625778
 21
2.10362
 31
0.0
  0
LINE
  5
21A
  8
0
 10
0.625778
 20
2.10362
 30
0.0
 11
-0.703568
 21
0.774261
 31
0.0
  0
LINE
  5
21B
  8
0
 10
-0.703568
 20
0.774261
 30
0.0
 11
-0.710632
 21
0.781326
 31
0.0
  0
LINE
  5
21C
  8
0
 10
-0.696487
 20
0.767181
 30
0.0
 11
0.632858
 21
2.09654
 31
0.0
  0
LINE
  5
21D
  8
0
 10
0.632858
 20
2.09654
 30
0.0
 11
0.639923
 21
2.08948
 31
0.0
  0
LINE
  5
21E
  8
0
 10
0.639923
 20
2.08948
 30
0.0
 11
-0.689423
 21
0.760117
 31
0.0
  0
LINE
  5
21F
  8
0
 10
-0.689423
 20
0.760117
 30
0.0
 11
-0.696487
 21
0.767181
 31
0.0
  0
LINE
  5
220
  8
0
 10
-0.682358
 20
0.753052
 30
0.0
 11
0.646988
 21
2.08241
 31
0.0
  0
LINE
  5
221
  8
0
 10
0.646988
 20
2.08241
 30
0.0
 11
0.654068
 21
2.07533
 31
0.0
  0
LINE
  5
222
  8
0
 10
0.654068
 20
2.07533
 30
0.0
 11
-0.675278
 21
0.745972
 31
0.0
  0
LINE
  5
223
  8
0
 10
-0.675278
 20
0.745972
 30
0.0
 11
-0.682358
 21
0.753052
 31
0.0
  0
LINE
  5
224
  8
0
 10
-0.668213
 20
0.738907
 30
0.0
 11
0.661133
 21
2.06827
 31
0.0
  0
LINE
  5
225
  8
0
 10
0.661133
 20
2.06827
 30
0.0
 11
0.668213
 21
2.06119
 31
0.0
  0
LINE
  5
226
  8
0
 10
0.668213
 20
2.06119
 30
0.0
 11
-0.661133
 21
0.731827
 31
0.0
  0
LINE
  5
227
  8
0
 10
-0.661133
 20
0.731827
 30
0.0
 11
-0.668213
 21
0.738907
 31
0.0
  0
LINE
  5
228
  8
0
 10
-0.654068
 20
0.724762
 30
0.0
 11
0.675278
 21
2.05412
 31
0.0
  0
LINE
  5
229
  8
0
 10
0.675278
 20
2.05412
 30
0.0
 11
0.682343
 21
2.04706
 31
0.0
  0
LINE
  5
22A
  8
0
 10
0.682343
 20
2.04706
 30
0.0
 11
-0.647003
 21
0.717697
 31
0.0
  0
LINE
  5
22B
  8
0
 10
-0.647003
 20
0.717697
 30
0.0
 11
-0.654068
 21
0.724762
 31
0.0
  0
LINE
  5
22C
  8
0
 10
-0.639923
 20
0.710617
 30
0.0
 11
0.689423
 21
2.03998
 31
0.0
  0
LINE
  5
22D
  8
0
 10
0.689423
 20
2.03998
 30
0.0
 11
0.696487
 21
2.03291
 31
0.0
  0
LINE
  5
22E
  8
0
 10
0.696487
 20
2.03291
 30
0.0
 11
-0.632858
 21
0.703552
 31
0.0
  0
LINE
  5
22F
  8
0
 10
-0.632858
 20
0.703552
 30
0.0
 11
-0.639923
 21
0.710617
 31
0.0
  0
LINE
  5
230
  8
0
 10
-0.625793
 20
0.696487
 30
0.0
 11
0.703568
 21
2.02585
 31
0.0
  0
LINE
  5
231
  8
0
 10
0.703568
 20
2.02585
 30
0.0
 11
0.710632
 21
2.01877
 31
0.0
  0
LINE
  5
232
  8
0
 10
0.710632
 20
2.01877
 30
0.0
 11
-0.618713
 21
0.689407
 31
0.0
  0
LINE
  5
233
  8
0
 10
-0.618713
 20
0.689407
 30
0.0
 11
-0.625793
 21
0.696487
 31
0.0
  0
LINE
  5
234
  8
0
 10
-0.611649
 20
0.682343
 30
0.0
 11
0.717712
 21
2.0117
 31
0.0
  0
LINE
  5
235
  8
0
 10
0.717712
 20
2.0117
 30
0.0
 11
0.724777
 21
2.00462
 31
0.0
  0
LINE
  5
236
  8
0
 10
0.724777
 20
2.00462
 30
0.0
 11
-0.604584
 21
0.675278
 31
0.0
  0
LINE
  5
237
  8
0
 10
-0.604584
 20
0.675278
 30
0.0
 11
-0.611649
 21
0.682343
 31
0.0
  0
LINE
  5
238
  8
0
 10
-0.597504
 20
0.668198
 30
0.0
 11
0.731857
 21
1.99756
 31
0.0
  0
LINE
  5
239
  8
0
 10
0.731857
 20
1.99756
 30
0.0
 11
0.738922
 21
1.99048
 31
0.0
  0
LINE
  5
23A
  8
0
 10
0.738922
 20
1.99048
 30
0.0
 11
-0.590439
 21
0.661133
 31
0.0
  0
LINE
  5
23B
  8
0
 10
-0.590439
 20
0.661133
 30
0.0
 11
-0.597504
 21
0.668198
 31
0.0
  0
LINE
  5
23C
  8
0
 10
-0.583359
 20
0.654053
 30
0.0
 11
0.745987
 21
1.98341
 31
0.0
  0
LINE
  5
23D
  8
0
 10
0.745987
 20
1.98341
 30
0.0
 11
0.753067
 21
1.97633
 31
0.0
  0
LINE
  5
23E
  8
0
 10
0.753067
 20
1.97633
 30
0.0
 11
-0.576279
 21
0.646973
 31
0.0
  0
LINE
  5
23F
  8
0
 10
-0.576279
 20
0.646973
 30
0.0
 11
-0.583359
 21
0.654053
 31
0.0
  0
LINE
  5
240
  8
0
 10
-0.569214
 20
0.639908
 30
0.0
 11
0.760132
 21
1.96927
 31
0.0
  0
LINE
  5
241
  8
0
 10
0.760132
 20
1.96927
 30
0.0
 11
0.767212
 21
1.96219
 31
0.0
  0
LINE
  5
242
  8
0
 10
0.767212
 20
1.96219
 30
0.0
 11
-0.562134
 21
0.632828
 31
0.0
  0
LINE
  5
243
  8
0
 10
-0.562134
 20
0.632828
 30
0.0
 11
-0.569214
 21
0.639908
 31
0.0
  0
LINE
  5
244
  8
0
 10
-0.555069
 20
0.625763
 30
0.0
 11
0.774277
 21
1.95512
 31
0.0
  0
LINE
  5
245
  8
0
 10
0.774277
 20
1.95512
 30
0.0
 11
0.781342
 21
1.94806
 31
0.0
  0
LINE
  5
246
  8
0
 10
0.781342
 20
1.94806
 30
0.0
 11
-0.548004
 21
0.618698
 31
0.0
  0
LINE
  5
247
  8
0
 10
-0.548004
 20
0.618698
 30
0.0
 11
-0.555069
 21
0.625763
 31
0.0
  0
LINE
  5
248
  8
0
 10
-0.540924
 20
0.611618
 30
0.0
 11
0.788422
 21
1.94098
 31
0.0
  0
LINE
  5
249
  8
0
 10
0.788422
 20
1.94098
 30
0.0
 11
0.795486
 21
1.93391
 31
0.0
  0
LINE
  5
24A
  8
0
 10
0.795486
 20
1.93391
 30
0.0
 11
-0.533859
 21
0.604553
 31
0.0
  0
LINE
  5
24B
  8
0
 10
-0.533859
 20
0.604553
 30
0.0
 11
-0.540924
 21
0.611618
 31
0.0
  0
LINE
  5
24C
  8
0
 10
-0.526794
 20
0.597488
 30
0.0
 11
0.802551
 21
1.92685
 31
0.0
  0
LINE
  5
24D
  8
0
 10
0.802551
 20
1.92685
 30
0.0
 11
0.809631
 21
1.91977
 31
0.0
  0
LINE
  5
24E
  8
0
 10
0.809631
 20
1.91977
 30
0.0
 11
-0.519714
 21
0.590408
 31
0.0
  0
LINE
  5
24F
  8
0
 10
-0.519714
 20
0.590408
 30
0.0
 11
-0.526794
 21
0.597488
 31
0.0
  0
LINE
  5
250
  8
0
 10
-0.51265
 20
0.583344
 30
0.0
 11
0.816696
 21
1.9127
 31
0.0
  0
LINE
  5
251
  8
0
 10
0.816696
 20
1.9127
 30
0.0
 11
0.823761
 21
1.90564
 31
0.0
  0
LINE
  5
252
  8
0
 10
0.823761
 20
1.90564
 30
0.0
 11
-0.505585
 21
0.576279
 31
0.0
  0
LINE
  5
253
  8
0
 10
-0.505585
 20
0.576279
 30
0.0
 11
-0.51265
 21
0.583344
 31
0.0
  0
LINE
  5
254
  8
0
 10
-0.498505
 20
0.569199
 30
0.0
 11
0.830841
 21
1.89856
 31
0.0
  0
LINE
  5
255
  8
0
 10
0.830841
 20
1.89856
 30
0.0
 11
0.837906
 21
1.89149
 31
0.0
  0
LINE
  5
256
  8
0
 10
0.837906
 20
1.89149
 30
0.0
 11
-0.49144
 21
0.562134
 31
0.0
  0
LINE
  5
257
  8
0
 10
-0.49144
 20
0.562134
 30
0.0
 11
-0.498505
 21
0.569199
 31
0.0
  0
LINE
  5
258
  8
0
 10
-0.48436
 20
0.555054
 30
0.0
 11
0.844986
 21
1.88441
 31
0.0
  0
LINE
  5
259
  8
0
 10
0.844986
 20
1.88441
 30
0.0
 11
0.852051
 21
1.87735
 31
0.0
  0
LINE
  5
25A
  8
0
 10
0.852051
 20
1.87735
 30
0.0
 11
-0.477295
 21
0.547989
 31
0.0
  0
LINE
  5
25B
  8
0
 10
-0.477295
 20
0.547989
 30
0.0
 11
-0.48436
 21
0.555054
 31
0.0
  0
LINE
  5
25C
  8
0
 10
-0.47023
 20
0.540924
 30
0.0
 11
0.859131
 21
1.87029
 31
0.0
  0
LINE
  5
25D
  8
0
 10
0.859131
 20
1.87029
 30
0.0
 11
0.866196
 21
1.8632
 31
0.0
  0
LINE
  5
25E
  8
0
 10
0.866196
 20
1.8632
 30
0.0
 11
-0.46315
 21
0.533844
 31
0.0
  0
LINE
  5
25F
  8
0
 10
-0.46315
 20
0.533844
 30
0.0
 11
-0.47023
 21
0.540924
 31
0.0
  0
LINE
  5
260
  8
0
 10
-0.456085
 20
0.526779
 30
0.0
 11
0.873276
 21
1.85614
 31
0.0
  0
LINE
  5
261
  8
0
 10
0.873276
 20
1.85614
 30
0.0
 11
0.880341
 21
1.84906
 31
0.0
  0
LINE
  5
262
  8
0
 10
0.880341
 20
1.84906
 30
0.0
 11
-0.449005
 21
0.519699
 31
0.0
  0
LINE
  5
263
  8
0
 10
-0.449005
 20
0.519699
 30
0.0
 11
-0.456085
 21
0.526779
 31
0.0
  0
LINE
  5
264
  8
0
 10
-0.44194
 20
0.512634
 30
0.0
 11
0.887421
 21
1.842
 31
0.0
  0
LINE
  5
265
  8
0
 10
0.887421
 20
1.842
 30
0.0
 11
0.894485
 21
1.83492
 31
0.0
  0
LINE
  5
266
  8
0
 10
0.894485
 20
1.83492
 30
0.0
 11
-0.43486
 21
0.505554
 31
0.0
  0
LINE
  5
267
  8
0
 10
-0.43486
 20
0.505554
 30
0.0
 11
-0.44194
 21
0.512634
 31
0.0
  0
LINE
  5
268
  8
0
 10
-0.427795
 20
0.498489
 30
0.0
 11
0.90155
 21
1.82785
 31
0.0
  0
LINE
  5
269
  8
0
 10
0.90155
 20
1.82785
 30
0.0
 11
0.90863
 21
1.82077
 31
0.0
  0
LINE
  5
26A
  8
0
 10
0.90863
 20
1.82077
 30
0.0
 11
-0.420715
 21
0.491409
 31
0.0
  0
LINE
  5
26B
  8
0
 10
-0.420715
 20
0.491409
 30
0.0
 11
-0.427795
 21
0.498489
 31
0.0
  0
LINE
  5
26C
  8
0
 10
-0.413651
 20
0.484344
 30
0.0
 11
0.915695
 21
1.81371
 31
0.0
  0
LINE
  5
26D
  8
0
 10
0.915695
 20
1.81371
 30
0.0
 11
0.92276
 21
1.80664
 31
0.0
  0
LINE
  5
26E
  8
0
 10
0.92276
 20
1.80664
 30
0.0
 11
-0.406586
 21
0.47728
 31
0.0
  0
LINE
  5
26F
  8
0
 10
-0.406586
 20
0.47728
 30
0.0
 11
-0.413651
 21
0.484344
 31
0.0
  0
LINE
  5
270
  8
0
 10
-0.399506
 20
0.4702
 30
0.0
 11
0.92984
 21
1.79956
 31
0.0
  0
LINE
  5
271
  8
0
 10
0.92984
 20
1.79956
 30
0.0
 11
0.936905
 21
1.7925
 31
0.0
  0
LINE
  5
272
  8
0
 10
0.936905
 20
1.7925
 30
0.0
 11
-0.392441
 21
0.463135
 31
0.0
  0
LINE
  5
273
  8
0
 10
-0.392441
 20
0.463135
 30
0.0
 11
-0.399506
 21
0.4702
 31
0.0
  0
LINE
  5
274
  8
0
 10
-0.385361
 20
0.456055
 30
0.0
 11
0.943985
 21
1.78542
 31
0.0
  0
LINE
  5
275
  8
0
 10
0.943985
 20
1.78542
 30
0.0
 11
0.95105
 21
1.77835
 31
0.0
  0
LINE
  5
276
  8
0
 10
0.95105
 20
1.77835
 30
0.0
 11
-0.378296
 21
0.44899
 31
0.0
  0
LINE
  5
277
  8
0
 10
-0.378296
 20
0.44899
 30
0.0
 11
-0.385361
 21
0.456055
 31
0.0
  0
LINE
  5
278
  8
0
 10
-0.371231
 20
0.441925
 30
0.0
 11
0.958115
 21
1.77129
 31
0.0
  0
LINE
  5
279
  8
0
 10
0.958115
 20
1.77129
 30
0.0
 11
0.965195
 21
1.76421
 31
0.0
  0
LINE
  5
27A
  8
0
 10
0.965195
 20
1.76421
 30
0.0
 11
-0.364151
 21
0.434845
 31
0.0
  0
LINE
  5
27B
  8
0
 10
-0.364151
 20
0.434845
 30
0.0
 11
-0.371231
 21
0.441925
 31
0.0
  0
LINE
  5
27C
  8
0
 10
-0.357086
 20
0.42778
 30
0.0
 11
0.97226
 21
1.75714
 31
0.0
  0
LINE
  5
27D
  8
0
 10
0.97226
 20
1.75714
 30
0.0
 11
0.979324
 21
1.75008
 31
0.0
  0
LINE
  5
27E
  8
0
 10
0.979324
 20
1.75008
 30
0.0
 11
-0.350021
 21
0.420715
 31
0.0
  0
LINE
  5
27F
  8
0
 10
-0.350021
 20
0.420715
 30
0.0
 11
-0.357086
 21
0.42778
 31
0.0
  0
LINE
  5
280
  8
0
 10
-0.342941
 20
0.413635
 30
0.0
 11
0.986404
 21
1.743
 31
0.0
  0
LINE
  5
281
  8
0
 10
0.986404
 20
1.743
 30
0.0
 11
0.993469
 21
1.73593
 31
0.0
  0
LINE
  5
282
  8
0
 10
0.993469
 20
1.73593
 30
0.0
 11
-0.335876
 21
0.40657
 31
0.0
  0
LINE
  5
283
  8
0
 10
-0.335876
 20
0.40657
 30
0.0
 11
-0.342941
 21
0.413635
 31
0.0
  0
LINE
  5
284
  8
0
 10
-0.328812
 20
0.399506
 30
0.0
 11
1.00055
 21
1.72887
 31
0.0
  0
LINE
  5
285
  8
0
 10
1.00055
 20
1.72887
 30
0.0
 11
1.00761
 21
1.72179
 31
0.0
  0
LINE
  5
286
  8
0
 10
1.00761
 20
1.72179
 30
0.0
 11
-0.321732
 21
0.392426
 31
0.0
  0
LINE
  5
287
  8
0
 10
-0.321732
 20
0.392426
 30
0.0
 11
-0.328812
 21
0.399506
 31
0.0
  0
LINE
  5
288
  8
0
 10
-0.314667
 20
0.385361
 30
0.0
 11
1.01469
 21
1.71472
 31
0.0
  0
LINE
  5
289
  8
0
 10
1.01469
 20
1.71472
 30
0.0
 11
1.02177
 21
1.70764
 31
0.0
  0
LINE
  5
28A
  8
0
 10
1.02177
 20
1.70764
 30
0.0
 11
-0.307587
 21
0.378281
 31
0.0
  0
LINE
  5
28B
  8
0
 10
-0.307587
 20
0.378281
 30
0.0
 11
-0.314667
 21
0.385361
 31
0.0
  0
LINE
  5
28C
  8
0
 10
-0.300522
 20
0.371216
 30
0.0
 11
1.02884
 21
1.70058
 31
0.0
  0
LINE
  5
28D
  8
0
 10
1.02884
 20
1.70058
 30
0.0
 11
1.0359
 21
1.6935
 31
0.0
  0
LINE
  5
28E
  8
0
 10
1.0359
 20
1.6935
 30
0.0
 11
-0.293442
 21
0.364136
 31
0.0
  0
LINE
  5
28F
  8
0
 10
-0.293442
 20
0.364136
 30
0.0
 11
-0.300522
 21
0.371216
 31
0.0
  0
LINE
  5
290
  8
0
 10
-0.286377
 20
0.357071
 30
0.0
 11
1.04298
 21
1.68642
 31
0.0
  0
LINE
  5
291
  8
0
 10
1.04298
 20
1.68642
 30
0.0
 11
1.05005
 21
1.67935
 31
0.0
  0
LINE
  5
292
  8
0
 10
1.05005
 20
1.67935
 30
0.0
 11
-0.279297
 21
0.349991
 31
0.0
  0
LINE
  5
293
  8
0
 10
-0.279297
 20
0.349991
 30
0.0
 11
-0.286377
 21
0.357071
 31
0.0
  0
LINE
  5
294
  8
0
 10
-0.272232
 20
0.342926
 30
0.0
 11
1.05711
 21
1.67229
 31
0.0
  0
LINE
  5
295
  8
0
 10
1.05711
 20
1.67229
 30
0.0
 11
1.06419
 21
1.66521
 31
0.0
  0
LINE
  5
296
  8
0
 10
1.06419
 20
1.66521
 30
0.0
 11
-0.265152
 21
0.335846
 31
0.0
  0
LINE
  5
297
  8
0
 10
-0.265152
 20
0.335846
 30
0.0
 11
-0.272232
 21
0.342926
 31
0.0
  0
LINE
  5
298
  8
0
 10
-0.258087
 20
0.328781
 30
0.0
 11
1.07126
 21
1.65814
 31
0.0
  0
LINE
  5
299
  8
0
 10
1.07126
 20
1.65814
 30
0.0
 11
1.07832
 21
1.65108
 31
0.0
  0
LINE
  5
29A
  8
0
 10
1.07832
 20
1.65108
 30
0.0
 11
-0.251022
 21
0.321716
 31
0.0
  0
LINE
  5
29B
  8
0
 10
-0.251022
 20
0.321716
 30
0.0
 11
-0.258087
 21
0.328781
 31
0.0
  0
LINE
  5
29C
  8
0
 10
-0.243942
 20
0.314636
 30
0.0
 11
1.0854
 21
1.644
 31
0.0
  0
LINE
  5
29D
  8
0
 10
1.0854
 20
1.644
 30
0.0
 11
1.09247
 21
1.63693
 31
0.0
  0
LINE
  5
29E
  8
0
 10
1.09247
 20
1.63693
 30
0.0
 11
-0.236877
 21
0.307571
 31
0.0
  0
LINE
  5
29F
  8
0
 10
-0.236877
 20
0.307571
 30
0.0
 11
-0.243942
 21
0.314636
 31
0.0
  0
LINE
  5
2A0
  8
0
 10
-0.229813
 20
0.300507
 30
0.0
 11
1.09953
 21
1.62987
 31
0.0
  0
LINE
  5
2A1
  8
0
 10
1.09953
 20
1.62987
 30
0.0
 11
1.10661
 21
1.62279
 31
0.0
  0
LINE
  5
2A2
  8
0
 10
1.10661
 20
1.62279
 30
0.0
 11
-0.222733
 21
0.293427
 31
0.0
  0
LINE
  5
2A3
  8
0
 10
-0.222733
 20
0.293427
 30
0.0
 11
-0.229813
 21
0.300507
 31
0.0
  0
LINE
  5
2A4
  8
0
 10
-0.215668
 20
0.286362
 30
0.0
 11
1.11368
 21
1.61572
 31
0.0
  0
LINE
  5
2A5
  8
0
 10
1.11368
 20
1.61572
 30
0.0
 11
1.12076
 21
1.60864
 31
0.0
  0
LINE
  5
2A6
  8
0
 10
1.12076
 20
1.60864
 30
0.0
 11
-0.208588
 21
0.279282
 31
0.0
  0
LINE
  5
2A7
  8
0
 10
-0.208588
 20
0.279282
 30
0.0
 11
-0.215668
 21
0.286362
 31
0.0
  0
LINE
  5
2A8
  8
0
 10
-0.201523
 20
0.272217
 30
0.0
 11
1.12782
 21
1.60158
 31
0.0
  0
LINE
  5
2A9
  8
0
 10
1.12782
 20
1.60158
 30
0.0
 11
1.1349
 21
1.59451
 31
0.0
  0
LINE
  5
2AA
  8
0
 10
1.1349
 20
1.59451
 30
0.0
 11
-0.194458
 21
0.265152
 31
0.0
  0
LINE
  5
2AB
  8
0
 10
-0.194458
 20
0.265152
 30
0.0
 11
-0.201523
 21
0.272217
 31
0.0
  0
LINE
  5
2AC
  8
0
 10
-0.187378
 20
0.258072
 30
0.0
 11
1.14197
 21
1.58743
 31
0.0
  0
LINE
  5
2AD
  8
0
 10
1.14197
 20
1.58743
 30
0.0
 11
1.14905
 21
1.58037
 31
0.0
  0
LINE
  5
2AE
  8
0
 10
1.14905
 20
1.58037
 30
0.0
 11
-0.180313
 21
0.251007
 31
0.0
  0
LINE
  5
2AF
  8
0
 10
-0.180313
 20
0.251007
 30
0.0
 11
-0.187378
 21
0.258072
 31
0.0
  0
LINE
  5
2B0
  8
0
 10
-0.173248
 20
0.243942
 30
0.0
 11
1.15611
 21
1.57329
 31
0.0
  0
LINE
  5
2B1
  8
0
 10
1.15611
 20
1.57329
 30
0.0
 11
1.16319
 21
1.56622
 31
0.0
  0
LINE
  5
2B2
  8
0
 10
1.16319
 20
1.56622
 30
0.0
 11
-0.166168
 21
0.236862
 31
0.0
  0
LINE
  5
2B3
  8
0
 10
-0.166168
 20
0.236862
 30
0.0
 11
-0.173248
 21
0.243942
 31
0.0
  0
LINE
  5
2B4
  8
0
 10
-0.159088
 20
0.229782
 30
0.0
 11
1.17026
 21
1.55914
 31
0.0
  0
LINE
  5
2B5
  8
0
 10
1.17026
 20
1.55914
 30
0.0
 11
1.17732
 21
1.55208
 31
0.0
  0
LINE
  5
2B6
  8
0
 10
1.17732
 20
1.55208
 30
0.0
 11
-0.152023
 21
0.222717
 31
0.0
  0
LINE
  5
2B7
  8
0
 10
-0.152023
 20
0.222717
 30
0.0
 11
-0.159088
 21
0.229782
 31
0.0
  0
LINE
  5
2B8
  8
0
 10
-0.144943
 20
0.215637
 30
0.0
 11
1.1844
 21
1.545
 31
0.0
  0
LINE
  5
2B9
  8
0
 10
1.1844
 20
1.545
 30
0.0
 11
1.19147
 21
1.53793
 31
0.0
  0
LINE
  5
2BA
  8
0
 10
1.19147
 20
1.53793
 30
0.0
 11
-0.137878
 21
0.208572
 31
0.0
  0
LINE
  5
2BB
  8
0
 10
-0.137878
 20
0.208572
 30
0.0
 11
-0.144943
 21
0.215637
 31
0.0
  0
LINE
  5
2BC
  8
0
 10
-0.130798
 20
0.201492
 30
0.0
 11
1.19855
 21
1.53085
 31
0.0
  0
LINE
  5
2BD
  8
0
 10
1.19855
 20
1.53085
 30
0.0
 11
1.20561
 21
1.52379
 31
0.0
  0
LINE
  5
2BE
  8
0
 10
1.20561
 20
1.52379
 30
0.0
 11
-0.123734
 21
0.194427
 31
0.0
  0
LINE
  5
2BF
  8
0
 10
-0.123734
 20
0.194427
 30
0.0
 11
-0.130798
 21
0.201492
 31
0.0
  0
LINE
  5
2C0
  8
0
 10
-0.116669
 20
0.187363
 30
0.0
 11
1.21268
 21
1.51672
 31
0.0
  0
LINE
  5
2C1
  8
0
 10
1.21268
 20
1.51672
 30
0.0
 11
1.21976
 21
1.50964
 31
0.0
  0
LINE
  5
2C2
  8
0
 10
1.21976
 20
1.50964
 30
0.0
 11
-0.109589
 21
0.180283
 31
0.0
  0
LINE
  5
2C3
  8
0
 10
-0.109589
 20
0.180283
 30
0.0
 11
-0.116669
 21
0.187363
 31
0.0
  0
LINE
  5
2C4
  8
0
 10
-0.102524
 20
0.173218
 30
0.0
 11
1.22682
 21
1.50258
 31
0.0
  0
LINE
  5
2C5
  8
0
 10
1.22682
 20
1.50258
 30
0.0
 11
1.23389
 21
1.49551
 31
0.0
  0
LINE
  5
2C6
  8
0
 10
1.23389
 20
1.49551
 30
0.0
 11
-0.095459
 21
0.166153
 31
0.0
  0
LINE
  5
2C7
  8
0
 10
-0.095459
 20
0.166153
 30
0.0
 11
-0.102524
 21
0.173218
 31
0.0
  0
LINE
  5
2C8
  8
0
 10
-0.0883789
 20
0.159073
 30
0.0
 11
1.24097
 21
1.48843
 31
0.0
  0
LINE
  5
2C9
  8
0
 10
1.24097
 20
1.48843
 30
0.0
 11
1.24803
 21
1.48137
 31
0.0
  0
LINE
  5
2CA
  8
0
 10
1.24803
 20
1.48137
 30
0.0
 11
-0.0813141
 21
0.152008
 31
0.0
  0
LINE
  5
2CB
  8
0
 10
-0.0813141
 20
0.152008
 30
0.0
 11
-0.0883789
 21
0.159073
 31
0.0
  0
LINE
  5
2CC
  8
0
 10
-0.0742493
 20
0.144943
 30
0.0
 11
1.2551
 21
1.4743
 31
0.0
  0
LINE
  5
2CD
  8
0
 10
1.2551
 20
1.4743
 30
0.0
 11
1.26218
 21
1.46722
 31
0.0
  0
LINE
  5
2CE
  8
0
 10
1.26218
 20
1.46722
 30
0.0
 11
-0.0671692
 21
0.137863
 31
0.0
  0
LINE
  5
2CF
  8
0
 10
-0.0671692
 20
0.137863
 30
0.0
 11
-0.0742493
 21
0.144943
 31
0.0
  0
LINE
  5
2D0
  8
0
 10
-0.0601044
 20
0.130798
 30
0.0
 11
1.26924
 21
1.46016
 31
0.0
  0
LINE
  5
2D1
  8
0
 10
1.26924
 20
1.46016
 30
0.0
 11
1.27632
 21
1.45309
 31
0.0
  0
LINE
  5
2D2
  8
0
 10
1.27632
 20
1.45309
 30
0.0
 11
-0.0530396
 21
0.123734
 31
0.0
  0
LINE
  5
2D3
  8
0
 10
-0.0530396
 20
0.123734
 30
0.0
 11
-0.0601044
 21
0.130798
 31
0.0
  0
LINE
  5
2D4
  8
0
 10
-0.0459595
 20
0.116653
 30
0.0
 11
1.28339
 21
1.44601
 31
0.0
  0
LINE
  5
2D5
  8
0
 10
1.28339
 20
1.44601
 30
0.0
 11
1.29047
 21
1.43895
 31
0.0
  0
LINE
  5
2D6
  8
0
 10
1.29047
 20
1.43895
 30
0.0
 11
-0.0388947
 21
0.109589
 31
0.0
  0
LINE
  5
2D7
  8
0
 10
-0.0388947
 20
0.109589
 30
0.0
 11
-0.0459595
 21
0.116653
 31
0.0
  0
LINE
  5
2D8
  8
0
 10
-0.0318146
 20
0.102509
 30
0.0
 11
1.29753
 21
1.43187
 31
0.0
  0
LINE
  5
2D9
  8
0
 10
1.29753
 20
1.43187
 30
0.0
 11
1.30461
 21
1.4248
 31
0.0
  0
LINE
  5
2DA
  8
0
 10
1.30461
 20
1.4248
 30
0.0
 11
-0.0247498
 21
0.0954437
 31
0.0
  0
LINE
  5
2DB
  8
0
 10
-0.0247498
 20
0.0954437
 30
0.0
 11
-0.0318146
 21
0.102509
 31
0.0
  0
LINE
  5
2DC
  8
0
 10
-0.0176697
 20
0.0883636
 30
0.0
 11
1.31168
 21
1.41772
 31
0.0
  0
LINE
  5
2DD
  8
0
 10
1.31168
 20
1.41772
 30
0.0
 11
1.31876
 21
1.41066
 31
0.0
  0
LINE
  5
2DE
  8
0
 10
1.31876
 20
1.41066
 30
0.0
 11
-0.0106049
 21
0.0812988
 31
0.0
  0
LINE
  5
2DF
  8
0
 10
-0.0106049
 20
0.0812988
 30
0.0
 11
-0.0176697
 21
0.0883636
 31
0.0
  0
LINE
  5
2E0
  8
0
 10
-0.00352478
 20
0.0742188
 30
0.0
 11
1.32582
 21
1.40358
 31
0.0
  0
LINE
  5
2E1
  8
0
 10
1.32582
 20
1.40358
 30
0.0
 11
1.33289
 21
1.39651
 31
0.0
  0
LINE
  5
2E2
  8
0
 10
1.33289
 20
1.39651
 30
0.0
 11
0.00354004
 21
0.0671692
 31
0.0
  0
LINE
  5
2E3
  8
0
 10
0.00354004
 20
0.0671692
 30
0.0
 11
-0.00352478
 21
0.0742188
 31
0.0
  0
LINE
  5
2E4
  8
0
 10
0.0106049
 20
0.0600891
 30
0.0
 11
1.33997
 21
1.38943
 31
0.0
  0
LINE
  5
2E5
  8
0
 10
1.33997
 20
1.38943
 30
0.0
 11
1.34703
 21
1.38237
 31
0.0
  0
LINE
  5
2E6
  8
0
 10
1.34703
 20
1.38237
 30
0.0
 11
0.0176849
 21
0.0530243
 31
0.0
  0
LINE
  5
2E7
  8
0
 10
0.0176849
 20
0.0530243
 30
0.0
 11
0.0106049
 21
0.0600891
 31
0.0
  0
LINE
  5
2E8
  8
0
 10
0.0247498
 20
0.0459595
 30
0.0
 11
1.3541
 21
1.37531
 31
0.0
  0
LINE
  5
2E9
  8
0
 10
1.3541
 20
1.37531
 30
0.0
 11
1.36118
 21
1.36823
 31
0.0
  0
LINE
  5
2EA
  8
0
 10
1.36118
 20
1.36823
 30
0.0
 11
0.0318298
 21
0.0388794
 31
0.0
  0
LINE
  5
2EB
  8
0
 10
0.0318298
 20
0.0388794
 30
0.0
 11
0.0247498
 21
0.0459595
 31
0.0
  0
LINE
  5
2EC
  8
0
 10
0.0388794
 20
0.0318298
 30
0.0
 11
1.36823
 21
1.36118
 31
0.0
  0
LINE
  5
2ED
  8
0
 10
1.36823
 20
1.36118
 30
0.0
 11
1.37531
 21
1.3541
 31
0.0
  0
LINE
  5
2EE
  8
0
 10
1.37531
 20
1.3541
 30
0.0
 11
0.0459595
 21
0.0247498
 31
0.0
  0
LINE
  5
2EF
  8
0
 10
0.0459595
 20
0.0247498
 30
0.0
 11
0.0388794
 21
0.0318298
 31
0.0
  0
LINE
  5
2F0
  8
0
 10
0.0530243
 20
0.0176849
 30
0.0
 11
1.38237
 21
1.34703
 31
0.0
  0
LINE
  5
2F1
  8
0
 10
1.38237
 20
1.34703
 30
0.0
 11
1.38943
 21
1.33997
 31
0.0
  0
LINE
  5
2F2
  8
0
 10
1.38943
 20
1.33997
 30
0.0
 11
0.0600891
 21
0.0106049
 31
0.0
  0
LINE
  5
2F3
  8
0
 10
0.0600891
 20
0.0106049
 30
0.0
 11
0.0530243
 21
0.0176849
 31
0.0
  0
LINE
  5
2F4
  8
0
 10
0.0671692
 20
0.00354004
 30
0.0
 11
1.39651
 21
1.33289
 31
0.0
  0
LINE
  5
2F5
  8
0
 10
1.39651
 20
1.33289
 30
0.0
 11
1.40358
 21
1.32582
 31
0.0
  0
LINE
  5
2F6
  8
0
 10
1.40358
 20
1.32582
 30
0.0
 11
0.0742188
 21
-0.00352478
 31
0.0
  0
LINE
  5
2F7
  8
0
 10
0.0742188
 20
-0.00352478
 30
0.0
 11
0.0671692
 21
0.00354004
 31
0.0
  0
LINE
  5
2F8
  8
0
 10
0.0812988
 20
-0.0106049
 30
0.0
 11
1.41066
 21
1.31876
 31
0.0
  0
LINE
  5
2F9
  8
0
 10
1.41066
 20
1.31876
 30
0.0
 11
1.41772
 21
1.31168
 31
0.0
  0
LINE
  5
2FA
  8
0
 10
1.41772
 20
1.31168
 30
0.0
 11
0.0883636
 21
-0.0176697
 31
0.0
  0
LINE
  5
2FB
  8
0
 10
0.0883636
 20
-0.0176697
 30
0.0
 11
0.0812988
 21
-0.0106049
 31
0.0
  0
LINE
  5
2FC
  8
0
 10
0.0954437
 20
-0.0247498
 30
0.0
 11
1.4248
 21
1.30461
 31
0.0
  0
LINE
  5
2FD
  8
0
 10
1.4248
 20
1.30461
 30
0.0
 11
1.43187
 21
1.29753
 31
0.0
  0
LINE
  5
2FE
  8
0
 10
1.43187
 20
1.29753
 30
0.0
 11
0.102509
 21
-0.0318146
 31
0.0
  0
LINE
  5
2FF
  8
0
 10
0.102509
 20
-0.0318146
 30
0.0
 11
0.0954437
 21
-0.0247498
 31
0.0
  0
LINE
  5
300
  8
0
 10
0.109589
 20
-0.0388947
 30
0.0
 11
1.43895
 21
1.29047
 31
0.0
  0
LINE
  5
301
  8
0
 10
1.43895
 20
1.29047
 30
0.0
 11
1.44601
 21
1.28339
 31
0.0
  0
LINE
  5
302
  8
0
 10
1.44601
 20
1.28339
 30
0.0
 11
0.116653
 21
-0.0459595
 31
0.0
  0
LINE
  5
303
  8
0
 10
0.116653
 20
-0.0459595
 30
0.0
 11
0.109589
 21
-0.0388947
 31
0.0
  0
LINE
  5
304
  8
0
 10
0.123734
 20
-0.0530396
 30
0.0
 11
1.45309
 21
1.27632
 31
0.0
  0
LINE
  5
305
  8
0
 10
1.45309
 20
1.27632
 30
0.0
 11
1.46016
 21
1.26924
 31
0.0
  0
LINE
  5
306
  8
0
 10
1.46016
 20
1.26924
 30
0.0
 11
0.130798
 21
-0.0601044
 31
0.0
  0
LINE
  5
307
  8
0
 10
0.130798
 20
-0.0601044
 30
0.0
 11
0.123734
 21
-0.0530396
 31
0.0
  0
LINE
  5
308
  8
0
 10
0.137863
 20
-0.0671692
 30
0.0
 11
1.46722
 21
1.26218
 31
0.0
  0
LINE
  5
309
  8
0
 10
1.46722
 20
1.26218
 30
0.0
 11
1.4743
 21
1.2551
 31
0.0
  0
LINE
  5
30A
  8
0
 10
1.4743
 20
1.2551
 30
0.0
 11
0.144943
 21
-0.0742493
 31
0.0
  0
LINE
  5
30B
  8
0
 10
0.144943
 20
-0.0742493
 30
0.0
 11
0.137863
 21
-0.0671692
 31
0.0
  0
LINE
  5
30C
  8
0
 10
0.152008
 20
-0.0813141
 30
0.0
 11
1.48137
 21
1.24803
 31
0.0
  0
LINE
  5
30D
  8
0
 10
1.48137
 20
1.24803
 30
0.0
 11
1.48843
 21
1.24097
 31
0.0
  0
LINE
  5
30E
  8
0
 10
1.48843
 20
1.24097
 30
0.0
 11
0.159073
 21
-0.0883789
 31
0.0
  0
LINE
  5
30F
  8
0
 10
0.159073
 20
-0.0883789
 30
0.0
 11
0.152008
 21
-0.0813141
 31
0.0
  0
LINE
  5
310
  8
0
 10
0.166153
 20
-0.095459
 30
0.0
 11
1.49551
 21
1.23389
 31
0.0
  0
LINE
  5
311
  8
0
 10
1.49551
 20
1.23389
 30
0.0
 11
1.50258
 21
1.22682
 31
0.0
  0
LINE
  5
312
  8
0
 10
1.50258
 20
1.22682
 30
0.0
 11
0.173218
 21
-0.102524
 31
0.0
  0
LINE
  5
313
  8
0
 10
0.173218
 20
-0.102524
 30
0.0
 11
0.166153
 21
-0.095459
 31
0.0
  0
LINE
  5
314
  8
0
 10
0.180283
 20
-0.109589
 30
0.0
 11
1.50964
 21
1.21976
 31
0.0
  0
LINE
  5
315
  8
0
 10
1.50964
 20
1.21976
 30
0.0
 11
1.51672
 21
1.21268
 31
0.0
  0
LINE
  5
316
  8
0
 10
1.51672
 20
1.21268
 30
0.0
 11
0.187363
 21
-0.116669
 31
0.0
  0
LINE
  5
317
  8
0
 10
0.187363
 20
-0.116669
 30
0.0
 11
0.180283
 21
-0.109589
 31
0.0
  0
LINE
  5
318
  8
0
 10
0.194427
 20
-0.123734
 30
0.0
 11
1.52379
 21
1.20561
 31
0.0
  0
LINE
  5
319
  8
0
 10
1.52379
 20
1.20561
 30
0.0
 11
1.53085
 21
1.19855
 31
0.0
  0
LINE
  5
31A
  8
0
 10
1.53085
 20
1.19855
 30
0.0
 11
0.201492
 21
-0.130798
 31
0.0
  0
LINE
  5
31B
  8
0
 10
0.201492
 20
-0.130798
 30
0.0
 11
0.194427
 21
-0.123734
 31
0.0
  0
LINE
  5
31C
  8
0
 10
0.208572
 20
-0.137878
 30
0.0
 11
1.53793
 21
1.19147
 31
0.0
  0
LINE
  5
31D
  8
0
 10
1.53793
 20
1.19147
 30
0.0
 11
1.545
 21
1.1844
 31
0.0
  0
LINE
  5
31E
  8
0
 10
1.545
 20
1.1844
 30
0.0
 11
0.215637
 21
-0.144943
 31
0.0
  0
LINE
  5
31F
  8
0
 10
0.215637
 20
-0.144943
 30
0.0
 11
0.208572
 21
-0.137878
 31
0.0
  0
LINE
  5
320
  8
0
 10
0.222717
 20
-0.152023
 30
0.0
 11
1.55208
 21
1.17732
 31
0.0
  0
LINE
  5
321
  8
0
 10
1.55208
 20
1.17732
 30
0.0
 11
1.55914
 21
1.17026
 31
0.0
  0
LINE
  5
322
  8
0
 10
1.55914
 20
1.17026
 30
0.0
 11
0.229782
 21
-0.159088
 31
0.0
  0
LINE
  5
323
  8
0
 10
0.229782
 20
-0.159088
 30
0.0
 11
0.222717
 21
-0.152023
 31
0.0
  0
LINE
  5
324
  8
0
 10
0.236862
 20
-0.166168
 30
0.0
 11
1.56622
 21
1.16319
 31
0.0
  0
LINE
  5
325
  8
0
 10
1.56622
 20
1.16319
 30
0.0
 11
1.57329
 21
1.15611
 31
0.0
  0
LINE
  5
326
  8
0
 10
1.57329
 20
1.15611
 30
0.0
 11
0.243942
 21
-0.173248
 31
0.0
  0
LINE
  5
327
  8
0
 10
0.243942
 20
-0.173248
 30
0.0
 11
0.236862
 21
-0.166168
 31
0.0
  0
LINE
  5
328
  8
0
 10
0.251007
 20
-0.180313
 30
0.0
 11
1.58037
 21
1.14905
 31
0.0
  0
LINE
  5
329
  8
0
 10
1.58037
 20
1.14905
 30
0.0
 11
1.58743
 21
1.14197
 31
0.0
  0
LINE
  5
32A
  8
0
 10
1.58743
 20
1.14197
 30
0.0
 11
0.258072
 21
-0.187378
 31
0.0
  0
LINE
  5
32B
  8
0
 10
0.258072
 20
-0.187378
 30
0.0
 11
0.251007
 21
-0.180313
 31
0.0
  0
LINE
  5
32C
  8
0
 10
0.265152
 20
-0.194458
 30
0.0
 11
1.59451
 21
1.1349
 31
0.0
  0
LINE
  5
32D
  8
0
 10
1.59451
 20
1.1349
 30
0.0
 11
1.60158
 21
1.12782
 31
0.0
  0
LINE
  5
32E
  8
0
 10
1.60158
 20
1.12782
 30
0.0
 11
0.272217
 21
-0.201523
 31
0.0
  0
LINE
  5
32F
  8
0
 10
0.272217
 20
-0.201523
 30
0.0
 11
0.265152
 21
-0.194458
 31
0.0
  0
LINE
  5
330
  8
0
 10
0.279282
 20
-0.208588
 30
0.0
 11
1.60864
 21
1.12076
 31
0.0
  0
LINE
  5
331
  8
0
 10
1.60864
 20
1.12076
 30
0.0
 11
1.61572
 21
1.11368
 31
0.0
  0
LINE
  5
332
  8
0
 10
1.61572
 20
1.11368
 30
0.0
 11
0.286362
 21
-0.215668
 31
0.0
  0
LINE
  5
333
  8
0
 10
0.286362
 20
-0.215668
 30
0.0
 11
0.279282
 21
-0.208588
 31
0.0
  0
LINE
  5
334
  8
0
 10
0.293427
 20
-0.222733
 30
0.0
 11
1.62279
 21
1.10661
 31
0.0
  0
LINE
  5
335
  8
0
 10
1.62279
 20
1.10661
 30
0.0
 11
1.62987
 21
1.09953
 31
0.0
  0
LINE
  5
336
  8
0
 10
1.62987
 20
1.09953
 30
0.0
 11
0.300507
 21
-0.229813
 31
0.0
  0
LINE
  5
337
  8
0
 10
0.300507
 20
-0.229813
 30
0.0
 11
0.293427
 21
-0.222733
 31
0.0
  0
LINE
  5
338
  8
0
 10
0.307571
 20
-0.236877
 30
0.0
 11
1.63693
 21
1.09247
 31
0.0
  0
LINE
  5
339
  8
0
 10
1.63693
 20
1.09247
 30
0.0
 11
1.644
 21
1.0854
 31
0.0
  0
LINE
  5
33A
  8
0
 10
1.644
 20
1.0854
 30
0.0
 11
0.314636
 21
-0.243942
 31
0.0
  0
LINE
  5
33B
  8
0
 10
0.314636
 20
-0.243942
 30
0.0
 11
0.307571
 21
-0.236877
 31
0.0
  0
LINE
  5
33C
  8
0
 10
0.321716
 20
-0.251022
 30
0.0
 11
1.65108
 21
1.07832
 31
0.0
  0
LINE
  5
33D
  8
0
 10
1.65108
 20
1.07832
 30
0.0
 11
1.65814
 21
1.07126
 31
0.0
  0
LINE
  5
33E
  8
0
 10
1.65814
 20
1.07126
 30
0.0
 11
0.328781
 21
-0.258087
 31
0.0
  0
LINE
  5
33F
  8
0
 10
0.328781
 20
-0.258087
 30
0.0
 11
0.321716
 21
-0.251022
 31
0.0
  0
LINE
  5
340
  8
0
 10
0.335846
 20
-0.265152
 30
0.0
 11
1.66521
 21
1.06419
 31
0.0
  0
LINE
  5
341
  8
0
 10
1.66521
 20
1.06419
 30
0.0
 11
1.67229
 21
1.05711
 31
0.0
  0
LINE
  5
342
  8
0
 10
1.67229
 20
1.05711
 30
0.0
 11
0.342926
 21
-0.272232
 31
0.0
  0
LINE
  5
343
  8
0
 10
0.342926
 20
-0.272232
 30
0.0
 11
0.335846
 21
-0.265152
 31
0.0
  0
LINE
  5
344
  8
0
 10
0.349991
 20
-0.279297
 30
0.0
 11
1.67935
 21
1.05005
 31
0.0
  0
LINE
  5
345
  8
0
 10
1.67935
 20
1.05005
 30
0.0
 11
1.68642
 21
1.04298
 31
0.0
  0
LINE
  5
346
  8
0
 10
1.68642
 20
1.04298
 30
0.0
 11
0.357071
 21
-0.286377
 31
0.0
  0
LINE
  5
347
  8
0
 10
0.357071
 20
-0.286377
 30
0.0
 11
0.349991
 21
-0.279297
 31
0.0
  0
LINE
  5
348
  8
0
 10
0.364136
 20
-0.293442
 30
0.0
 11
1.6935
 21
1.0359
 31
0.0
  0
LINE
  5
349
  8
0
 10
1.6935
 20
1.0359
 30
0.0
 11
1.70058
 21
1.02884
 31
0.0
  0
LINE
  5
34A
  8
0
 10
1.70058
 20
1.02884
 30
0.0
 11
0.371216
 21
-0.300522
 31
0.0
  0
LINE
  5
34B
  8
0
 10
0.371216
 20
-0.300522
 30
0.0
 11
0.364136
 21
-0.293442
 31
0.0
  0
LINE
  5
34C
  8
0
 10
0.378281
 20
-0.307587
 30
0.0
 11
1.70764
 21
1.02177
 31
0.0
  0
LINE
  5
34D
  8
0
 10
1.70764
 20
1.02177
 30
0.0
 11
1.71472
 21
1.01469
 31
0.0
  0
LINE
  5
34E
  8
0
 10
1.71472
 20
1.01469
 30
0.0
 11
0.385361
 21
-0.314667
 31
0.0
  0
LINE
  5
34F
  8
0
 10
0.385361
 20
-0.314667
 30
0.0
 11
0.378281
 21
-0.307587
 31
0.0
  0
LINE
  5
350
  8
0
 10
0.392426
 20
-0.321732
 30
0.0
 11
1.72179
 21
1.00761
 31
0.0
  0
LINE
  5
351
  8
0
 10
1.72179
 20
1.00761
 30
0.0
 11
1.72887
 21
1.00055
 31
0.0
  0
LINE
  5
352
  8
0
 10
1.72887
 20
1.00055
 30
0.0
 11
0.399506
 21
-0.328812
 31
0.0
  0
LINE
  5
353
  8
0
 10
0.399506
 20
-0.328812
 30
0.0
 11
0.392426
 21
-0.321732
 31
0.0
  0
LINE
  5
354
  8
0
 10
0.40657
 20
-0.335876
 30
0.0
 11
1.73593
 21
0.993469
 31
0.0
  0
LINE
  5
355
  8
0
 10
1.73593
 20
0.993469
 30
0.0
 11
1.743
 21
0.986404
 31
0.0
  0
LINE
  5
356
  8
0
 10
1.743
 20
0.986404
 30
0.0
 11
0.413635
 21
-0.342941
 31
0.0
  0
LINE
  5
357
  8
0
 10
0.413635
 20
-0.342941
 30
0.0
 11
0.40657
 21
-0.335876
 31
0.0
  0
LINE
  5
358
  8
0
 10
0.420715
 20
-0.350021
 30
0.0
 11
1.75008
 21
0.979324
 31
0.0
  0
LINE
  5
359
  8
0
 10
1.75008
 20
0.979324
 30
0.0
 11
1.75714
 21
0.97226
 31
0.0
  0
LINE
  5
35A
  8
0
 10
1.75714
 20
0.97226
 30
0.0
 11
0.42778
 21
-0.357086
 31
0.0
  0
LINE
  5
35B
  8
0
 10
0.42778
 20
-0.357086
 30
0.0
 11
0.420715
 21
-0.350021
 31
0.0
  0
LINE
  5
35C
  8
0
 10
0.434845
 20
-0.364151
 30
0.0
 11
1.76421
 21
0.965195
 31
0.0
  0
LINE
  5
35D
  8
0
 10
1.76421
 20
0.965195
 30
0.0
 11
1.77129
 21
0.958115
 31
0.0
  0
LINE
  5
35E
  8
0
 10
1.77129
 20
0.958115
 30
0.0
 11
0.441925
 21
-0.371231
 31
0.0
  0
LINE
  5
35F
  8
0
 10
0.441925
 20
-0.371231
 30
0.0
 11
0.434845
 21
-0.364151
 31
0.0
  0
LINE
  5
360
  8
0
 10
0.44899
 20
-0.378296
 30
0.0
 11
1.77835
 21
0.95105
 31
0.0
  0
LINE
  5
361
  8
0
 10
1.77835
 20
0.95105
 30
0.0
 11
1.78542
 21
0.943985
 31
0.0
  0
LINE
  5
362
  8
0
 10
1.78542
 20
0.943985
 30
0.0
 11
0.456055
 21
-0.385361
 31
0.0
  0
LINE
  5
363
  8
0
 10
0.456055
 20
-0.385361
 30
0.0
 11
0.44899
 21
-0.378296
 31
0.0
  0
LINE
  5
364
  8
0
 10
0.463135
 20
-0.392441
 30
0.0
 11
1.7925
 21
0.936905
 31
0.0
  0
LINE
  5
365
  8
0
 10
1.7925
 20
0.936905
 30
0.0
 11
1.79956
 21
0.92984
 31
0.0
  0
LINE
  5
366
  8
0
 10
1.79956
 20
0.92984
 30
0.0
 11
0.4702
 21
-0.399506
 31
0.0
  0
LINE
  5
367
  8
0
 10
0.4702
 20
-0.399506
 30
0.0
 11
0.463135
 21
-0.392441
 31
0.0
  0
LINE
  5
368
  8
0
 10
0.47728
 20
-0.406586
 30
0.0
 11
1.80664
 21
0.92276
 31
0.0
  0
LINE
  5
369
  8
0
 10
1.80664
 20
0.92276
 30
0.0
 11
1.81371
 21
0.915695
 31
0.0
  0
LINE
  5
36A
  8
0
 10
1.81371
 20
0.915695
 30
0.0
 11
0.484344
 21
-0.413651
 31
0.0
  0
LINE
  5
36B
  8
0
 10
0.484344
 20
-0.413651
 30
0.0
 11
0.47728
 21
-0.406586
 31
0.0
  0
LINE
  5
36C
  8
0
 10
0.491409
 20
-0.420715
 30
0.0
 11
1.82077
 21
0.90863
 31
0.0
  0
LINE
  5
36D
  8
0
 10
1.82077
 20
0.90863
 30
0.0
 11
1.82785
 21
0.90155
 31
0.0
  0
LINE
  5
36E
  8
0
 10
1.82785
 20
0.90155
 30
0.0
 11
0.498489
 21
-0.427795
 31
0.0
  0
LINE
  5
36F
  8
0
 10
0.498489
 20
-0.427795
 30
0.0
 11
0.491409
 21
-0.420715
 31
0.0
  0
LINE
  5
370
  8
0
 10
0.505554
 20
-0.43486
 30
0.0
 11
1.83492
 21
0.894485
 31
0.0
  0
LINE
  5
371
  8
0
 10
1.83492
 20
0.894485
 30
0.0
 11
1.842
 21
0.887421
 31
0.0
  0
LINE
  5
372
  8
0
 10
1.842
 20
0.887421
 30
0.0
 11
0.512634
 21
-0.44194
 31
0.0
  0
LINE
  5
373
  8
0
 10
0.512634
 20
-0.44194
 30
0.0
 11
0.505554
 21
-0.43486
 31
0.0
  0
LINE
  5
374
  8
0
 10
0.519699
 20
-0.449005
 30
0.0
 11
1.84906
 21
0.880341
 31
0.0
  0
LINE
  5
375
  8
0
 10
1.84906
 20
0.880341
 30
0.0
 11
1.85614
 21
0.873276
 31
0.0
  0
LINE
  5
376
  8
0
 10
1.85614
 20
0.873276
 30
0.0
 11
0.526779
 21
-0.456085
 31
0.0
  0
LINE
  5
377
  8
0
 10
0.526779
 20
-0.456085
 30
0.0
 11
0.519699
 21
-0.449005
 31
0.0
  0
LINE
  5
378
  8
0
 10
0.533844
 20
-0.46315
 30
0.0
 11
1.8632
 21
0.866196
 31
0.0
  0
LINE
  5
379
  8
0
 10
1.8632
 20
0.866196
 30
0.0
 11
1.87029
 21
0.859131
 31
0.0
  0
LINE
  5
37A
  8
0
 10
1.87029
 20
0.859131
 30
0.0
 11
0.540924
 21
-0.47023
 31
0.0
  0
LINE
  5
37B
  8
0
 10
0.540924
 20
-0.47023
 30
0.0
 11
0.533844
 21
-0.46315
 31
0.0
  0
LINE
  5
37C
  8
0
 10
0.547989
 20
-0.477295
 30
0.0
 11
1.87735
 21
0.852051
 31
0.0
  0
LINE
  5
37D
  8
0
 10
1.87735
 20
0.852051
 30
0.0
 11
1.88441
 21
0.844986
 31
0.0
  0
LINE
  5
37E
  8
0
 10
1.88441
 20
0.844986
 30
0.0
 11
0.555054
 21
-0.48436
 31
0.0
  0
LINE
  5
37F
  8
0
 10
0.555054
 20
-0.48436
 30
0.0
 11
0.547989
 21
-0.477295
 31
0.0
  0
LINE
  5
380
  8
0
 10
-2.23796
 20
-0.49144
 30
0.0
 11
-0.9086
 21
0.837906
 31
0.0
  0
LINE
  5
381
  8
0
 10
-0.9086
 20
0.837906
 30
0.0
 11
-0.901535
 21
0.830841
 31
0.0
  0
LINE
  5
382
  8
0
 10
-0.901535
 20
0.830841
 30
0.0
 11
-2.2309
 21
-0.498505
 31
0.0
  0
LINE
  5
383
  8
0
 10
-2.2309
 20
-0.498505
 30
0.0
 11
-2.23796
 21
-0.49144
 31
0.0
  0
LINE
  5
384
  8
0
 10
0.562134
 20
-0.49144
 30
0.0
 11
1.89149
 21
0.837906
 31
0.0
  0
LINE
  5
385
  8
0
 10
1.89149
 20
0.837906
 30
0.0
 11
1.89856
 21
0.830841
 31
0.0
  0
LINE
  5
386
  8
0
 10
1.89856
 20
0.830841
 30
0.0
 11
0.569199
 21
-0.498505
 31
0.0
  0
LINE
  5
387
  8
0
 10
0.569199
 20
-0.498505
 30
0.0
 11
0.562134
 21
-0.49144
 31
0.0
  0
LINE
  5
388
  8
0
 10
-2.22383
 20
-0.505569
 30
0.0
 11
-0.89447
 21
0.823776
 31
0.0
  0
LINE
  5
389
  8
0
 10
-0.89447
 20
0.823776
 30
0.0
 11
-0.88739
 21
0.816696
 31
0.0
  0
LINE
  5
38A
  8
0
 10
-0.88739
 20
0.816696
 30
0.0
 11
-2.21675
 21
-0.51265
 31
0.0
  0
LINE
  5
38B
  8
0
 10
-2.21675
 20
-0.51265
 30
0.0
 11
-2.22383
 21
-0.505569
 31
0.0
  0
LINE
  5
38C
  8
0
 10
0.576279
 20
-0.505585
 30
0.0
 11
1.90564
 21
0.823761
 31
0.0
  0
LINE
  5
38D
  8
0
 10
1.90564
 20
0.823761
 30
0.0
 11
1.9127
 21
0.816696
 31
0.0
  0
LINE
  5
38E
  8
0
 10
1.9127
 20
0.816696
 30
0.0
 11
0.583344
 21
-0.51265
 31
0.0
  0
LINE
  5
38F
  8
0
 10
0.583344
 20
-0.51265
 30
0.0
 11
0.576279
 21
-0.505585
 31
0.0
  0
LINE
  5
390
  8
0
 10
-2.20969
 20
-0.519714
 30
0.0
 11
-0.880325
 21
0.809631
 31
0.0
  0
LINE
  5
391
  8
0
 10
-0.880325
 20
0.809631
 30
0.0
 11
-0.87326
 21
0.802567
 31
0.0
  0
LINE
  5
392
  8
0
 10
-0.87326
 20
0.802567
 30
0.0
 11
-2.20262
 21
-0.526779
 31
0.0
  0
LINE
  5
393
  8
0
 10
-2.20262
 20
-0.526779
 30
0.0
 11
-2.20969
 21
-0.519714
 31
0.0
  0
LINE
  5
394
  8
0
 10
0.590408
 20
-0.519714
 30
0.0
 11
1.91977
 21
0.809631
 31
0.0
  0
LINE
  5
395
  8
0
 10
1.91977
 20
0.809631
 30
0.0
 11
1.92685
 21
0.802551
 31
0.0
  0
LINE
  5
396
  8
0
 10
1.92685
 20
0.802551
 30
0.0
 11
0.597488
 21
-0.526794
 31
0.0
  0
LINE
  5
397
  8
0
 10
0.597488
 20
-0.526794
 30
0.0
 11
0.590408
 21
-0.519714
 31
0.0
  0
LINE
  5
398
  8
0
 10
-2.19554
 20
-0.533859
 30
0.0
 11
-0.86618
 21
0.795486
 31
0.0
  0
LINE
  5
399
  8
0
 10
-0.86618
 20
0.795486
 30
0.0
 11
-0.859116
 21
0.788422
 31
0.0
  0
LINE
  5
39A
  8
0
 10
-0.859116
 20
0.788422
 30
0.0
 11
-2.18848
 21
-0.540924
 31
0.0
  0
LINE
  5
39B
  8
0
 10
-2.18848
 20
-0.540924
 30
0.0
 11
-2.19554
 21
-0.533859
 31
0.0
  0
LINE
  5
39C
  8
0
 10
0.604553
 20
-0.533859
 30
0.0
 11
1.93391
 21
0.795486
 31
0.0
  0
LINE
  5
39D
  8
0
 10
1.93391
 20
0.795486
 30
0.0
 11
1.94098
 21
0.788422
 31
0.0
  0
LINE
  5
39E
  8
0
 10
1.94098
 20
0.788422
 30
0.0
 11
0.611618
 21
-0.540924
 31
0.0
  0
LINE
  5
39F
  8
0
 10
0.611618
 20
-0.540924
 30
0.0
 11
0.604553
 21
-0.533859
 31
0.0
  0
LINE
  5
3A0
  8
0
 10
-2.18141
 20
-0.547989
 30
0.0
 11
-0.852051
 21
0.781357
 31
0.0
  0
LINE
  5
3A1
  8
0
 10
-0.852051
 20
0.781357
 30
0.0
 11
-0.844971
 21
0.774277
 31
0.0
  0
LINE
  5
3A2
  8
0
 10
-0.844971
 20
0.774277
 30
0.0
 11
-2.17433
 21
-0.555069
 31
0.0
  0
LINE
  5
3A3
  8
0
 10
-2.17433
 20
-0.555069
 30
0.0
 11
-2.18141
 21
-0.547989
 31
0.0
  0
LINE
  5
3A4
  8
0
 10
0.618698
 20
-0.548004
 30
0.0
 11
1.94806
 21
0.781342
 31
0.0
  0
LINE
  5
3A5
  8
0
 10
1.94806
 20
0.781342
 30
0.0
 11
1.95512
 21
0.774277
 31
0.0
  0
LINE
  5
3A6
  8
0
 10
1.95512
 20
0.774277
 30
0.0
 11
0.625763
 21
-0.555069
 31
0.0
  0
LINE
  5
3A7
  8
0
 10
0.625763
 20
-0.555069
 30
0.0
 11
0.618698
 21
-0.548004
 31
0.0
  0
LINE
  5
3A8
  8
0
 10
-2.16727
 20
-0.562134
 30
0.0
 11
-0.837906
 21
0.767212
 31
0.0
  0
LINE
  5
3A9
  8
0
 10
-0.837906
 20
0.767212
 30
0.0
 11
-0.830841
 21
0.760147
 31
0.0
  0
LINE
  5
3AA
  8
0
 10
-0.830841
 20
0.760147
 30
0.0
 11
-2.1602
 21
-0.569214
 31
0.0
  0
LINE
  5
3AB
  8
0
 10
-2.1602
 20
-0.569214
 30
0.0
 11
-2.16727
 21
-0.562134
 31
0.0
  0
LINE
  5
3AC
  8
0
 10
0.632828
 20
-0.562134
 30
0.0
 11
1.96219
 21
0.767212
 31
0.0
  0
LINE
  5
3AD
  8
0
 10
1.96219
 20
0.767212
 30
0.0
 11
1.96927
 21
0.760132
 31
0.0
  0
LINE
  5
3AE
  8
0
 10
1.96927
 20
0.760132
 30
0.0
 11
0.639908
 21
-0.569214
 31
0.0
  0
LINE
  5
3AF
  8
0
 10
0.639908
 20
-0.569214
 30
0.0
 11
0.632828
 21
-0.562134
 31
0.0
  0
LINE
  5
3B0
  8
0
 10
-2.15312
 20
-0.576279
 30
0.0
 11
-0.823761
 21
0.753067
 31
0.0
  0
LINE
  5
3B1
  8
0
 10
-0.823761
 20
0.753067
 30
0.0
 11
-0.816696
 21
0.746002
 31
0.0
  0
LINE
  5
3B2
  8
0
 10
-0.816696
 20
0.746002
 30
0.0
 11
-2.14606
 21
-0.583359
 31
0.0
  0
LINE
  5
3B3
  8
0
 10
-2.14606
 20
-0.583359
 30
0.0
 11
-2.15312
 21
-0.576279
 31
0.0
  0
LINE
  5
3B4
  8
0
 10
0.646973
 20
-0.576279
 30
0.0
 11
1.97633
 21
0.753067
 31
0.0
  0
LINE
  5
3B5
  8
0
 10
1.97633
 20
0.753067
 30
0.0
 11
1.98341
 21
0.745987
 31
0.0
  0
LINE
  5
3B6
  8
0
 10
1.98341
 20
0.745987
 30
0.0
 11
0.654053
 21
-0.583359
 31
0.0
  0
LINE
  5
3B7
  8
0
 10
0.654053
 20
-0.583359
 30
0.0
 11
0.646973
 21
-0.576279
 31
0.0
  0
LINE
  5
3B8
  8
0
 10
-2.13898
 20
-0.590439
 30
0.0
 11
-0.809616
 21
0.738922
 31
0.0
  0
LINE
  5
3B9
  8
0
 10
-0.809616
 20
0.738922
 30
0.0
 11
-0.802551
 21
0.731857
 31
0.0
  0
LINE
  5
3BA
  8
0
 10
-0.802551
 20
0.731857
 30
0.0
 11
-2.13191
 21
-0.597504
 31
0.0
  0
LINE
  5
3BB
  8
0
 10
-2.13191
 20
-0.597504
 30
0.0
 11
-2.13898
 21
-0.590439
 31
0.0
  0
LINE
  5
3BC
  8
0
 10
0.661133
 20
-0.590439
 30
0.0
 11
1.99048
 21
0.738922
 31
0.0
  0
LINE
  5
3BD
  8
0
 10
1.99048
 20
0.738922
 30
0.0
 11
1.99756
 21
0.731857
 31
0.0
  0
LINE
  5
3BE
  8
0
 10
1.99756
 20
0.731857
 30
0.0
 11
0.668198
 21
-0.597504
 31
0.0
  0
LINE
  5
3BF
  8
0
 10
0.668198
 20
-0.597504
 30
0.0
 11
0.661133
 21
-0.590439
 31
0.0
  0
LINE
  5
3C0
  8
0
 10
-2.12483
 20
-0.604568
 30
0.0
 11
-0.795471
 21
0.724777
 31
0.0
  0
LINE
  5
3C1
  8
0
 10
-0.795471
 20
0.724777
 30
0.0
 11
-0.788406
 21
0.717712
 31
0.0
  0
LINE
  5
3C2
  8
0
 10
-0.788406
 20
0.717712
 30
0.0
 11
-2.11775
 21
-0.611649
 31
0.0
  0
LINE
  5
3C3
  8
0
 10
-2.11775
 20
-0.611649
 30
0.0
 11
-2.12483
 21
-0.604568
 31
0.0
  0
LINE
  5
3C4
  8
0
 10
0.675278
 20
-0.604584
 30
0.0
 11
2.00462
 21
0.724777
 31
0.0
  0
LINE
  5
3C5
  8
0
 10
2.00462
 20
0.724777
 30
0.0
 11
2.0117
 21
0.717712
 31
0.0
  0
LINE
  5
3C6
  8
0
 10
2.0117
 20
0.717712
 30
0.0
 11
0.682343
 21
-0.611649
 31
0.0
  0
LINE
  5
3C7
  8
0
 10
0.682343
 20
-0.611649
 30
0.0
 11
0.675278
 21
-0.604584
 31
0.0
  0
LINE
  5
3C8
  8
0
 10
-2.11069
 20
-0.618713
 30
0.0
 11
-0.781326
 21
0.710632
 31
0.0
  0
LINE
  5
3C9
  8
0
 10
-0.781326
 20
0.710632
 30
0.0
 11
-0.774261
 21
0.703568
 31
0.0
  0
LINE
  5
3CA
  8
0
 10
-0.774261
 20
0.703568
 30
0.0
 11
-2.10362
 21
-0.625778
 31
0.0
  0
LINE
  5
3CB
  8
0
 10
-2.10362
 20
-0.625778
 30
0.0
 11
-2.11069
 21
-0.618713
 31
0.0
  0
LINE
  5
3CC
  8
0
 10
0.689407
 20
-0.618713
 30
0.0
 11
2.01877
 21
0.710632
 31
0.0
  0
LINE
  5
3CD
  8
0
 10
2.01877
 20
0.710632
 30
0.0
 11
2.02585
 21
0.703568
 31
0.0
  0
LINE
  5
3CE
  8
0
 10
2.02585
 20
0.703568
 30
0.0
 11
0.696487
 21
-0.625793
 31
0.0
  0
LINE
  5
3CF
  8
0
 10
0.696487
 20
-0.625793
 30
0.0
 11
0.689407
 21
-0.618713
 31
0.0
  0
LINE
  5
3D0
  8
0
 10
-2.09654
 20
-0.632858
 30
0.0
 11
-0.767181
 21
0.696487
 31
0.0
  0
LINE
  5
3D1
  8
0
 10
-0.767181
 20
0.696487
 30
0.0
 11
-0.760117
 21
0.689423
 31
0.0
  0
LINE
  5
3D2
  8
0
 10
-0.760117
 20
0.689423
 30
0.0
 11
-2.08948
 21
-0.639923
 31
0.0
  0
LINE
  5
3D3
  8
0
 10
-2.08948
 20
-0.639923
 30
0.0
 11
-2.09654
 21
-0.632858
 31
0.0
  0
LINE
  5
3D4
  8
0
 10
0.703552
 20
-0.632858
 30
0.0
 11
2.03291
 21
0.696487
 31
0.0
  0
LINE
  5
3D5
  8
0
 10
2.03291
 20
0.696487
 30
0.0
 11
2.03998
 21
0.689423
 31
0.0
  0
LINE
  5
3D6
  8
0
 10
2.03998
 20
0.689423
 30
0.0
 11
0.710617
 21
-0.639923
 31
0.0
  0
LINE
  5
3D7
  8
0
 10
0.710617
 20
-0.639923
 30
0.0
 11
0.703552
 21
-0.632858
 31
0.0
  0
LINE
  5
3D8
  8
0
 10
-2.08241
 20
-0.646988
 30
0.0
 11
-0.753052
 21
0.682358
 31
0.0
  0
LINE
  5
3D9
  8
0
 10
-0.753052
 20
0.682358
 30
0.0
 11
-0.745972
 21
0.675278
 31
0.0
  0
LINE
  5
3DA
  8
0
 10
-0.745972
 20
0.675278
 30
0.0
 11
-2.07533
 21
-0.654068
 31
0.0
  0
LINE
  5
3DB
  8
0
 10
-2.07533
 20
-0.654068
 30
0.0
 11
-2.08241
 21
-0.646988
 31
0.0
  0
LINE
  5
3DC
  8
0
 10
0.717697
 20
-0.647003
 30
0.0
 11
2.04706
 21
0.682343
 31
0.0
  0
LINE
  5
3DD
  8
0
 10
2.04706
 20
0.682343
 30
0.0
 11
2.05412
 21
0.675278
 31
0.0
  0
LINE
  5
3DE
  8
0
 10
2.05412
 20
0.675278
 30
0.0
 11
0.724762
 21
-0.654068
 31
0.0
  0
LINE
  5
3DF
  8
0
 10
0.724762
 20
-0.654068
 30
0.0
 11
0.717697
 21
-0.647003
 31
0.0
  0
LINE
  5
3E0
  8
0
 10
0.731827
 20
-0.661133
 30
0.0
 11
2.06119
 21
0.668213
 31
0.0
  0
LINE
  5
3E1
  8
0
 10
2.06119
 20
0.668213
 30
0.0
 11
2.06827
 21
0.661133
 31
0.0
  0
LINE
  5
3E2
  8
0
 10
2.06827
 20
0.661133
 30
0.0
 11
0.738907
 21
-0.668213
 31
0.0
  0
LINE
  5
3E3
  8
0
 10
0.738907
 20
-0.668213
 30
0.0
 11
0.731827
 21
-0.661133
 31
0.0
  0
LINE
  5
3E4
  8
0
 10
-2.06827
 20
-0.661133
 30
0.0
 11
-0.738907
 21
0.668213
 31
0.0
  0
LINE
  5
3E5
  8
0
 10
-0.738907
 20
0.668213
 30
0.0
 11
-0.731827
 21
0.661133
 31
0.0
  0
LINE
  5
3E6
  8
0
 10
-0.731827
 20
0.661133
 30
0.0
 11
-2.06119
 21
-0.668213
 31
0.0
  0
LINE
  5
3E7
  8
0
 10
-2.06119
 20
-0.668213
 30
0.0
 11
-2.06827
 21
-0.661133
 31
0.0
  0
LINE
  5
3E8
  8
0
 10
-2.05412
 20
-0.675278
 30
0.0
 11
-0.724762
 21
0.654068
 31
0.0
  0
LINE
  5
3E9
  8
0
 10
-0.724762
 20
0.654068
 30
0.0
 11
-0.717697
 21
0.647003
 31
0.0
  0
LINE
  5
3EA
  8
0
 10
-0.717697
 20
0.647003
 30
0.0
 11
-2.04706
 21
-0.682343
 31
0.0
  0
LINE
  5
3EB
  8
0
 10
-2.04706
 20
-0.682343
 30
0.0
 11
-2.05412
 21
-0.675278
 31
0.0
  0
LINE
  5
3EC
  8
0
 10
0.745972
 20
-0.675278
 30
0.0
 11
2.07533
 21
0.654068
 31
0.0
  0
LINE
  5
3ED
  8
0
 10
2.07533
 20
0.654068
 30
0.0
 11
2.08241
 21
0.646988
 31
0.0
  0
LINE
  5
3EE
  8
0
 10
2.08241
 20
0.646988
 30
0.0
 11
0.753052
 21
-0.682358
 31
0.0
  0
LINE
  5
3EF
  8
0
 10
0.753052
 20
-0.682358
 30
0.0
 11
0.745972
 21
-0.675278
 31
0.0
  0
LINE
  5
3F0
  8
0
 10
-2.03998
 20
-0.689423
 30
0.0
 11
-0.710617
 21
0.639923
 31
0.0
  0
LINE
  5
3F1
  8
0
 10
-0.710617
 20
0.639923
 30
0.0
 11
-0.703552
 21
0.632858
 31
0.0
  0
LINE
  5
3F2
  8
0
 10
-0.703552
 20
0.632858
 30
0.0
 11
-2.03291
 21
-0.696487
 31
0.0
  0
LINE
  5
3F3
  8
0
 10
-2.03291
 20
-0.696487
 30
0.0
 11
-2.03998
 21
-0.689423
 31
0.0
  0
LINE
  5
3F4
  8
0
 10
0.760117
 20
-0.689423
 30
0.0
 11
2.08948
 21
0.639923
 31
0.0
  0
LINE
  5
3F5
  8
0
 10
2.08948
 20
0.639923
 30
0.0
 11
2.09654
 21
0.632858
 31
0.0
  0
LINE
  5
3F6
  8
0
 10
2.09654
 20
0.632858
 30
0.0
 11
0.767181
 21
-0.696487
 31
0.0
  0
LINE
  5
3F7
  8
0
 10
0.767181
 20
-0.696487
 30
0.0
 11
0.760117
 21
-0.689423
 31
0.0
  0
LINE
  5
3F8
  8
0
 10
-2.02585
 20
-0.703568
 30
0.0
 11
-0.696487
 21
0.625793
 31
0.0
  0
LINE
  5
3F9
  8
0
 10
-0.696487
 20
0.625793
 30
0.0
 11
-0.689407
 21
0.618713
 31
0.0
  0
LINE
  5
3FA
  8
0
 10
-0.689407
 20
0.618713
 30
0.0
 11
-2.01877
 21
-0.710632
 31
0.0
  0
LINE
  5
3FB
  8
0
 10
-2.01877
 20
-0.710632
 30
0.0
 11
-2.02585
 21
-0.703568
 31
0.0
  0
LINE
  5
3FC
  8
0
 10
0.774261
 20
-0.703568
 30
0.0
 11
2.10362
 21
0.625778
 31
0.0
  0
LINE
  5
3FD
  8
0
 10
2.10362
 20
0.625778
 30
0.0
 11
2.11069
 21
0.618713
 31
0.0
  0
LINE
  5
3FE
  8
0
 10
2.11069
 20
0.618713
 30
0.0
 11
0.781326
 21
-0.710632
 31
0.0
  0
LINE
  5
3FF
  8
0
 10
0.781326
 20
-0.710632
 30
0.0
 11
0.774261
 21
-0.703568
 31
0.0
  0
LINE
  5
400
  8
0
 10
-2.0117
 20
-0.717712
 30
0.0
 11
-0.682343
 21
0.611649
 31
0.0
  0
LINE
  5
401
  8
0
 10
-0.682343
 20
0.611649
 30
0.0
 11
-0.675278
 21
0.604584
 31
0.0
  0
LINE
  5
402
  8
0
 10
-0.675278
 20
0.604584
 30
0.0
 11
-2.00462
 21
-0.724777
 31
0.0
  0
LINE
  5
403
  8
0
 10
-2.00462
 20
-0.724777
 30
0.0
 11
-2.0117
 21
-0.717712
 31
0.0
  0
LINE
  5
404
  8
0
 10
0.788406
 20
-0.717712
 30
0.0
 11
2.11775
 21
0.611649
 31
0.0
  0
LINE
  5
405
  8
0
 10
2.11775
 20
0.611649
 30
0.0
 11
2.12483
 21
0.604568
 31
0.0
  0
LINE
  5
406
  8
0
 10
2.12483
 20
0.604568
 30
0.0
 11
0.795471
 21
-0.724777
 31
0.0
  0
LINE
  5
407
  8
0
 10
0.795471
 20
-0.724777
 30
0.0
 11
0.788406
 21
-0.717712
 31
0.0
  0
LINE
  5
408
  8
0
 10
-1.99756
 20
-0.731857
 30
0.0
 11
-0.668198
 21
0.597504
 31
0.0
  0
LINE
  5
409
  8
0
 10
-0.668198
 20
0.597504
 30
0.0
 11
-0.661133
 21
0.590439
 31
0.0
  0
LINE
  5
40A
  8
0
 10
-0.661133
 20
0.590439
 30
0.0
 11
-1.99048
 21
-0.738922
 31
0.0
  0
LINE
  5
40B
  8
0
 10
-1.99048
 20
-0.738922
 30
0.0
 11
-1.99756
 21
-0.731857
 31
0.0
  0
LINE
  5
40C
  8
0
 10
0.802551
 20
-0.731857
 30
0.0
 11
2.13191
 21
0.597504
 31
0.0
  0
LINE
  5
40D
  8
0
 10
2.13191
 20
0.597504
 30
0.0
 11
2.13898
 21
0.590439
 31
0.0
  0
LINE
  5
40E
  8
0
 10
2.13898
 20
0.590439
 30
0.0
 11
0.809616
 21
-0.738922
 31
0.0
  0
LINE
  5
40F
  8
0
 10
0.809616
 20
-0.738922
 30
0.0
 11
0.802551
 21
-0.731857
 31
0.0
  0
LINE
  5
410
  8
0
 10
-1.98341
 20
-0.745987
 30
0.0
 11
-0.654053
 21
0.583359
 31
0.0
  0
LINE
  5
411
  8
0
 10
-0.654053
 20
0.583359
 30
0.0
 11
-0.646973
 21
0.576279
 31
0.0
  0
LINE
  5
412
  8
0
 10
-0.646973
 20
0.576279
 30
0.0
 11
-1.97633
 21
-0.753067
 31
0.0
  0
LINE
  5
413
  8
0
 10
-1.97633
 20
-0.753067
 30
0.0
 11
-1.98341
 21
-0.745987
 31
0.0
  0
LINE
  5
414
  8
0
 10
0.816696
 20
-0.746002
 30
0.0
 11
2.14606
 21
0.583359
 31
0.0
  0
LINE
  5
415
  8
0
 10
2.14606
 20
0.583359
 30
0.0
 11
2.15312
 21
0.576279
 31
0.0
  0
LINE
  5
416
  8
0
 10
2.15312
 20
0.576279
 30
0.0
 11
0.823761
 21
-0.753067
 31
0.0
  0
LINE
  5
417
  8
0
 10
0.823761
 20
-0.753067
 30
0.0
 11
0.816696
 21
-0.746002
 31
0.0
  0
LINE
  5
418
  8
0
 10
-1.96927
 20
-0.760132
 30
0.0
 11
-0.639908
 21
0.569214
 31
0.0
  0
LINE
  5
419
  8
0
 10
-0.639908
 20
0.569214
 30
0.0
 11
-0.632828
 21
0.562134
 31
0.0
  0
LINE
  5
41A
  8
0
 10
-0.632828
 20
0.562134
 30
0.0
 11
-1.96219
 21
-0.767212
 31
0.0
  0
LINE
  5
41B
  8
0
 10
-1.96219
 20
-0.767212
 30
0.0
 11
-1.96927
 21
-0.760132
 31
0.0
  0
LINE
  5
41C
  8
0
 10
0.830841
 20
-0.760147
 30
0.0
 11
2.1602
 21
0.569214
 31
0.0
  0
LINE
  5
41D
  8
0
 10
2.1602
 20
0.569214
 30
0.0
 11
2.16727
 21
0.562134
 31
0.0
  0
LINE
  5
41E
  8
0
 10
2.16727
 20
0.562134
 30
0.0
 11
0.837906
 21
-0.767212
 31
0.0
  0
LINE
  5
41F
  8
0
 10
0.837906
 20
-0.767212
 30
0.0
 11
0.830841
 21
-0.760147
 31
0.0
  0
LINE
  5
420
  8
0
 10
-1.95512
 20
-0.774277
 30
0.0
 11
-0.625763
 21
0.555069
 31
0.0
  0
LINE
  5
421
  8
0
 10
-0.625763
 20
0.555069
 30
0.0
 11
-0.618698
 21
0.548004
 31
0.0
  0
LINE
  5
422
  8
0
 10
-0.618698
 20
0.548004
 30
0.0
 11
-1.94806
 21
-0.781342
 31
0.0
  0
LINE
  5
423
  8
0
 10
-1.94806
 20
-0.781342
 30
0.0
 11
-1.95512
 21
-0.774277
 31
0.0
  0
LINE
  5
424
  8
0
 10
0.844971
 20
-0.774277
 30
0.0
 11
2.17433
 21
0.555069
 31
0.0
  0
LINE
  5
425
  8
0
 10
2.17433
 20
0.555069
 30
0.0
 11
2.18141
 21
0.547989
 31
0.0
  0
LINE
  5
426
  8
0
 10
2.18141
 20
0.547989
 30
0.0
 11
0.852051
 21
-0.781357
 31
0.0
  0
LINE
  5
427
  8
0
 10
0.852051
 20
-0.781357
 30
0.0
 11
0.844971
 21
-0.774277
 31
0.0
  0
LINE
  5
428
  8
0
 10
-1.94098
 20
-0.788422
 30
0.0
 11
-0.611618
 21
0.540924
 31
0.0
  0
LINE
  5
429
  8
0
 10
-0.611618
 20
0.540924
 30
0.0
 11
-0.604553
 21
0.533859
 31
0.0
  0
LINE
  5
42A
  8
0
 10
-0.604553
 20
0.533859
 30
0.0
 11
-1.93391
 21
-0.795486
 31
0.0
  0
LINE
  5
42B
  8
0
 10
-1.93391
 20
-0.795486
 30
0.0
 11
-1.94098
 21
-0.788422
 31
0.0
  0
LINE
  5
42C
  8
0
 10
0.859116
 20
-0.788422
 30
0.0
 11
2.18848
 21
0.540924
 31
0.0
  0
LINE
  5
42D
  8
0
 10
2.18848
 20
0.540924
 30
0.0
 11
2.19554
 21
0.533859
 31
0.0
  0
LINE
  5
42E
  8
0
 10
2.19554
 20
0.533859
 30
0.0
 11
0.86618
 21
-0.795486
 31
0.0
  0
LINE
  5
42F
  8
0
 10
0.86618
 20
-0.795486
 30
0.0
 11
0.859116
 21
-0.788422
 31
0.0
  0
LINE
  5
430
  8
0
 10
-1.92685
 20
-0.802551
 30
0.0
 11
-0.597488
 21
0.526794
 31
0.0
  0
LINE
  5
431
  8
0
 10
-0.597488
 20
0.526794
 30
0.0
 11
-0.590408
 21
0.519714
 31
0.0
  0
LINE
  5
432
  8
0
 10
-0.590408
 20
0.519714
 30
0.0
 11
-1.91977
 21
-0.809631
 31
0.0
  0
LINE
  5
433
  8
0
 10
-1.91977
 20
-0.809631
 30
0.0
 11
-1.92685
 21
-0.802551
 31
0.0
  0
LINE
  5
434
  8
0
 10
0.87326
 20
-0.802567
 30
0.0
 11
2.20262
 21
0.526779
 31
0.0
  0
LINE
  5
435
  8
0
 10
2.20262
 20
0.526779
 30
0.0
 11
2.20969
 21
0.519714
 31
0.0
  0
LINE
  5
436
  8
0
 10
2.20969
 20
0.519714
 30
0.0
 11
0.880325
 21
-0.809631
 31
0.0
  0
LINE
  5
437
  8
0
 10
0.880325
 20
-0.809631
 30
0.0
 11
0.87326
 21
-0.802567
 31
0.0
  0
LINE
  5
438
  8
0
 10
-1.9127
 20
-0.816696
 30
0.0
 11
-0.583344
 21
0.51265
 31
0.0
  0
LINE
  5
439
  8
0
 10
-0.583344
 20
0.51265
 30
0.0
 11
-0.576279
 21
0.505585
 31
0.0
  0
LINE
  5
43A
  8
0
 10
-0.576279
 20
0.505585
 30
0.0
 11
-1.90564
 21
-0.823761
 31
0.0
  0
LINE
  5
43B
  8
0
 10
-1.90564
 20
-0.823761
 30
0.0
 11
-1.9127
 21
-0.816696
 31
0.0
  0
LINE
  5
43C
  8
0
 10
0.88739
 20
-0.816696
 30
0.0
 11
2.21675
 21
0.51265
 31
0.0
  0
LINE
  5
43D
  8
0
 10
2.21675
 20
0.51265
 30
0.0
 11
2.22383
 21
0.505569
 31
0.0
  0
LINE
  5
43E
  8
0
 10
2.22383
 20
0.505569
 30
0.0
 11
0.89447
 21
-0.823776
 31
0.0
  0
LINE
  5
43F
  8
0
 10
0.89447
 20
-0.823776
 30
0.0
 11
0.88739
 21
-0.816696
 31
0.0
  0
LINE
  5
440
  8
0
 10
0.901535
 20
-0.830841
 30
0.0
 11
2.2309
 21
0.498505
 31
0.0
  0
LINE
  5
441
  8
0
 10
2.2309
 20
0.498505
 30
0.0
 11
2.23796
 21
0.49144
 31
0.0
  0
LINE
  5
442
  8
0
 10
2.23796
 20
0.49144
 30
0.0
 11
0.9086
 21
-0.837906
 31
0.0
  0
LINE
  5
443
  8
0
 10
0.9086
 20
-0.837906
 30
0.0
 11
0.901535
 21
-0.830841
 31
0.0
  0
LINE
  5
444
  8
0
 10
-1.89856
 20
-0.830841
 30
0.0
 11
-0.569199
 21
0.498505
 31
0.0
  0
LINE
  5
445
  8
0
 10
-0.569199
 20
0.498505
 30
0.0
 11
-0.562134
 21
0.49144
 31
0.0
  0
LINE
  5
446
  8
0
 10
-0.562134
 20
0.49144
 30
0.0
 11
-1.89149
 21
-0.837906
 31
0.0
  0
LINE
  5
447
  8
0
 10
-1.89149
 20
-0.837906
 30
0.0
 11
-1.89856
 21
-0.830841
 31
0.0
  0
LINE
  5
448
  8
0
 10
-1.88441
 20
-0.844986
 30
0.0
 11
-0.555054
 21
0.48436
 31
0.0
  0
LINE
  5
449
  8
0
 10
-0.555054
 20
0.48436
 30
0.0
 11
-0.547989
 21
0.477295
 31
0.0
  0
LINE
  5
44A
  8
0
 10
-0.547989
 20
0.477295
 30
0.0
 11
-1.87735
 21
-0.852051
 31
0.0
  0
LINE
  5
44B
  8
0
 10
-1.87735
 20
-0.852051
 30
0.0
 11
-1.88441
 21
-0.844986
 31
0.0
  0
LINE
  5
44C
  8
0
 10
-1.87029
 20
-0.859131
 30
0.0
 11
-0.540924
 21
0.47023
 31
0.0
  0
LINE
  5
44D
  8
0
 10
-0.540924
 20
0.47023
 30
0.0
 11
-0.533844
 21
0.46315
 31
0.0
  0
LINE
  5
44E
  8
0
 10
-0.533844
 20
0.46315
 30
0.0
 11
-1.8632
 21
-0.866196
 31
0.0
  0
LINE
  5
44F
  8
0
 10
-1.8632
 20
-0.866196
 30
0.0
 11
-1.87029
 21
-0.859131
 31
0.0
  0
LINE
  5
450
  8
0
 10
-1.85614
 20
-0.873276
 30
0.0
 11
-0.526779
 21
0.456085
 31
0.0
  0
LINE
  5
451
  8
0
 10
-0.526779
 20
0.456085
 30
0.0
 11
-0.519699
 21
0.449005
 31
0.0
  0
LINE
  5
452
  8
0
 10
-0.519699
 20
0.449005
 30
0.0
 11
-1.84906
 21
-0.880341
 31
0.0
  0
LINE
  5
453
  8
0
 10
-1.84906
 20
-0.880341
 30
0.0
 11
-1.85614
 21
-0.873276
 31
0.0
  0
LINE
  5
454
  8
0
 10
-1.842
 20
-0.887421
 30
0.0
 11
-0.512634
 21
0.44194
 31
0.0
  0
LINE
  5
455
  8
0
 10
-0.512634
 20
0.44194
 30
0.0
 11
-0.505554
 21
0.43486
 31
0.0
  0
LINE
  5
456
  8
0
 10
-0.505554
 20
0.43486
 30
0.0
 11
-1.83492
 21
-0.894485
 31
0.0
  0
LINE
  5
457
  8
0
 10
-1.83492
 20
-0.894485
 30
0.0
 11
-1.842
 21
-0.887421
 31
0.0
  0
LINE
  5
458
  8
0
 10
-1.82785
 20
-0.90155
 30
0.0
 11
-0.498489
 21
0.427795
 31
0.0
  0
LINE
  5
459
  8
0
 10
-0.498489
 20
0.427795
 30
0.0
 11
-0.491409
 21
0.420715
 31
0.0
  0
LINE
  5
45A
  8
0
 10
-0.491409
 20
0.420715
 30
0.0
 11
-1.82077
 21
-0.90863
 31
0.0
  0
LINE
  5
45B
  8
0
 10
-1.82077
 20
-0.90863
 30
0.0
 11
-1.82785
 21
-0.90155
 31
0.0
  0
LINE
  5
45C
  8
0
 10
-1.81371
 20
-0.915695
 30
0.0
 11
-0.484344
 21
0.413651
 31
0.0
  0
LINE
  5
45D
  8
0
 10
-0.484344
 20
0.413651
 30
0.0
 11
-0.47728
 21
0.406586
 31
0.0
  0
LINE
  5
45E
  8
0
 10
-0.47728
 20
0.406586
 30
0.0
 11
-1.80664
 21
-0.92276
 31
0.0
  0
LINE
  5
45F
  8
0
 10
-1.80664
 20
-0.92276
 30
0.0
 11
-1.81371
 21
-0.915695
 31
0.0
  0
LINE
  5
460
  8
0
 10
-1.79956
 20
-0.92984
 30
0.0
 11
-0.4702
 21
0.399506
 31
0.0
  0
LINE
  5
461
  8
0
 10
-0.4702
 20
0.399506
 30
0.0
 11
-0.463135
 21
0.392441
 31
0.0
  0
LINE
  5
462
  8
0
 10
-0.463135
 20
0.392441
 30
0.0
 11
-1.7925
 21
-0.936905
 31
0.0
  0
LINE
  5
463
  8
0
 10
-1.7925
 20
-0.936905
 30
0.0
 11
-1.79956
 21
-0.92984
 31
0.0
  0
LINE
  5
464
  8
0
 10
-1.78542
 20
-0.943985
 30
0.0
 11
-0.456055
 21
0.385361
 31
0.0
  0
LINE
  5
465
  8
0
 10
-0.456055
 20
0.385361
 30
0.0
 11
-0.44899
 21
0.378296
 31
0.0
  0
LINE
  5
466
  8
0
 10
-0.44899
 20
0.378296
 30
0.0
 11
-1.77835
 21
-0.95105
 31
0.0
  0
LINE
  5
467
  8
0
 10
-1.77835
 20
-0.95105
 30
0.0
 11
-1.78542
 21
-0.943985
 31
0.0
  0
LINE
  5
468
  8
0
 10
-1.77129
 20
-0.958115
 30
0.0
 11
-0.441925
 21
0.371231
 31
0.0
  0
LINE
  5
469
  8
0
 10
-0.441925
 20
0.371231
 30
0.0
 11
-0.434845
 21
0.364151
 31
0.0
  0
LINE
  5
46A
  8
0
 10
-0.434845
 20
0.364151
 30
0.0
 11
-1.76421
 21
-0.965195
 31
0.0
  0
LINE
  5
46B
  8
0
 10
-1.76421
 20
-0.965195
 30
0.0
 11
-1.77129
 21
-0.958115
 31
0.0
  0
LINE
  5
46C
  8
0
 10
-1.75714
 20
-0.97226
 30
0.0
 11
-0.42778
 21
0.357086
 31
0.0
  0
LINE
  5
46D
  8
0
 10
-0.42778
 20
0.357086
 30
0.0
 11
-0.420715
 21
0.350021
 31
0.0
  0
LINE
  5
46E
  8
0
 10
-0.420715
 20
0.350021
 30
0.0
 11
-1.75008
 21
-0.979324
 31
0.0
  0
LINE
  5
46F
  8
0
 10
-1.75008
 20
-0.979324
 30
0.0
 11
-1.75714
 21
-0.97226
 31
0.0
  0
LINE
  5
470
  8
0
 10
-1.743
 20
-0.986404
 30
0.0
 11
-0.413635
 21
0.342941
 31
0.0
  0
LINE
  5
471
  8
0
 10
-0.413635
 20
0.342941
 30
0.0
 11
-0.40657
 21
0.335876
 31
0.0
  0
LINE
  5
472
  8
0
 10
-0.40657
 20
0.335876
 30
0.0
 11
-1.73593
 21
-0.993469
 31
0.0
  0
LINE
  5
473
  8
0
 10
-1.73593
 20
-0.993469
 30
0.0
 11
-1.743
 21
-0.986404
 31
0.0
  0
LINE
  5
474
  8
0
 10
-1.72887
 20
-1.00055
 30
0.0
 11
-0.399506
 21
0.328812
 31
0.0
  0
LINE
  5
475
  8
0
 10
-0.399506
 20
0.328812
 30
0.0
 11
-0.392426
 21
0.321732
 31
0.0
  0
LINE
  5
476
  8
0
 10
-0.392426
 20
0.321732
 30
0.0
 11
-1.72179
 21
-1.00761
 31
0.0
  0
LINE
  5
477
  8
0
 10
-1.72179
 20
-1.00761
 30
0.0
 11
-1.72887
 21
-1.00055
 31
0.0
  0
LINE
  5
478
  8
0
 10
-1.71472
 20
-1.01469
 30
0.0
 11
-0.385361
 21
0.314667
 31
0.0
  0
LINE
  5
479
  8
0
 10
-0.385361
 20
0.314667
 30
0.0
 11
-0.378281
 21
0.307587
 31
0.0
  0
LINE
  5
47A
  8
0
 10
-0.378281
 20
0.307587
 30
0.0
 11
-1.70764
 21
-1.02177
 31
0.0
  0
LINE
  5
47B
  8
0
 10
-1.70764
 20
-1.02177
 30
0.0
 11
-1.71472
 21
-1.01469
 31
0.0
  0
LINE
  5
47C
  8
0
 10
-1.70058
 20
-1.02884
 30
0.0
 11
-0.371216
 21
0.300522
 31
0.0
  0
LINE
  5
47D
  8
0
 10
-0.371216
 20
0.300522
 30
0.0
 11
-0.364136
 21
0.293442
 31
0.0
  0
LINE
  5
47E
  8
0
 10
-0.364136
 20
0.293442
 30
0.0
 11
-1.6935
 21
-1.0359
 31
0.0
  0
LINE
  5
47F
  8
0
 10
-1.6935
 20
-1.0359
 30
0.0
 11
-1.70058
 21
-1.02884
 31
0.0
  0
LINE
  5
480
  8
0
 10
-1.68642
 20
-1.04298
 30
0.0
 11
-0.357071
 21
0.286377
 31
0.0
  0
LINE
  5
481
  8
0
 10
-0.357071
 20
0.286377
 30
0.0
 11
-0.349991
 21
0.279297
 31
0.0
  0
LINE
  5
482
  8
0
 10
-0.349991
 20
0.279297
 30
0.0
 11
-1.67935
 21
-1.05005
 31
0.0
  0
LINE
  5
483
  8
0
 10
-1.67935
 20
-1.05005
 30
0.0
 11
-1.68642
 21
-1.04298
 31
0.0
  0
LINE
  5
484
  8
0
 10
-1.67229
 20
-1.05711
 30
0.0
 11
-0.342926
 21
0.272232
 31
0.0
  0
LINE
  5
485
  8
0
 10
-0.342926
 20
0.272232
 30
0.0
 11
-0.335846
 21
0.265152
 31
0.0
  0
LINE
  5
486
  8
0
 10
-0.335846
 20
0.265152
 30
0.0
 11
-1.66521
 21
-1.06419
 31
0.0
  0
LINE
  5
487
  8
0
 10
-1.66521
 20
-1.06419
 30
0.0
 11
-1.67229
 21
-1.05711
 31
0.0
  0
LINE
  5
488
  8
0
 10
-1.65814
 20
-1.07126
 30
0.0
 11
-0.328781
 21
0.258087
 31
0.0
  0
LINE
  5
489
  8
0
 10
-0.328781
 20
0.258087
 30
0.0
 11
-0.321716
 21
0.251022
 31
0.0
  0
LINE
  5
48A
  8
0
 10
-0.321716
 20
0.251022
 30
0.0
 11
-1.65108
 21
-1.07832
 31
0.0
  0
LINE
  5
48B
  8
0
 10
-1.65108
 20
-1.07832
 30
0.0
 11
-1.65814
 21
-1.07126
 31
0.0
  0
LINE
  5
48C
  8
0
 10
-1.644
 20
-1.0854
 30
0.0
 11
-0.314636
 21
0.243942
 31
0.0
  0
LINE
  5
48D
  8
0
 10
-0.314636
 20
0.243942
 30
0.0
 11
-0.307571
 21
0.236877
 31
0.0
  0
LINE
  5
48E
  8
0
 10
-0.307571
 20
0.236877
 30
0.0
 11
-1.63693
 21
-1.09247
 31
0.0
  0
LINE
  5
48F
  8
0
 10
-1.63693
 20
-1.09247
 30
0.0
 11
-1.644
 21
-1.0854
 31
0.0
  0
LINE
  5
490
  8
0
 10
-1.62987
 20
-1.09953
 30
0.0
 11
-0.300507
 21
0.229813
 31
0.0
  0
LINE
  5
491
  8
0
 10
-0.300507
 20
0.229813
 30
0.0
 11
-0.293427
 21
0.222733
 31
0.0
  0
LINE
  5
492
  8
0
 10
-0.293427
 20
0.222733
 30
0.0
 11
-1.62279
 21
-1.10661
 31
0.0
  0
LINE
  5
493
  8
0
 10
-1.62279
 20
-1.10661
 30
0.0
 11
-1.62987
 21
-1.09953
 31
0.0
  0
LINE
  5
494
  8
0
 10
-1.61572
 20
-1.11368
 30
0.0
 11
-0.286362
 21
0.215668
 31
0.0
  0
LINE
  5
495
  8
0
 10
-0.286362
 20
0.215668
 30
0.0
 11
-0.279282
 21
0.208588
 31
0.0
  0
LINE
  5
496
  8
0
 10
-0.279282
 20
0.208588
 30
0.0
 11
-1.60864
 21
-1.12076
 31
0.0
  0
LINE
  5
497
  8
0
 10
-1.60864
 20
-1.12076
 30
0.0
 11
-1.61572
 21
-1.11368
 31
0.0
  0
LINE
  5
498
  8
0
 10
-1.60158
 20
-1.12782
 30
0.0
 11
-0.272217
 21
0.201523
 31
0.0
  0
LINE
  5
499
  8
0
 10
-0.272217
 20
0.201523
 30
0.0
 11
-0.265152
 21
0.194458
 31
0.0
  0
LINE
  5
49A
  8
0
 10
-0.265152
 20
0.194458
 30
0.0
 11
-1.59451
 21
-1.1349
 31
0.0
  0
LINE
  5
49B
  8
0
 10
-1.59451
 20
-1.1349
 30
0.0
 11
-1.60158
 21
-1.12782
 31
0.0
  0
LINE
  5
49C
  8
0
 10
-1.58743
 20
-1.14197
 30
0.0
 11
-0.258072
 21
0.187378
 31
0.0
  0
LINE
  5
49D
  8
0
 10
-0.258072
 20
0.187378
 30
0.0
 11
-0.251007
 21
0.180313
 31
0.0
  0
LINE
  5
49E
  8
0
 10
-0.251007
 20
0.180313
 30
0.0
 11
-1.58037
 21
-1.14905
 31
0.0
  0
LINE
  5
49F
  8
0
 10
-1.58037
 20
-1.14905
 30
0.0
 11
-1.58743
 21
-1.14197
 31
0.0
  0
LINE
  5
4A0
  8
0
 10
-1.57329
 20
-1.15611
 30
0.0
 11
-0.243942
 21
0.173248
 31
0.0
  0
LINE
  5
4A1
  8
0
 10
-0.243942
 20
0.173248
 30
0.0
 11
-0.236862
 21
0.166168
 31
0.0
  0
LINE
  5
4A2
  8
0
 10
-0.236862
 20
0.166168
 30
0.0
 11
-1.56622
 21
-1.16319
 31
0.0
  0
LINE
  5
4A3
  8
0
 10
-1.56622
 20
-1.16319
 30
0.0
 11
-1.57329
 21
-1.15611
 31
0.0
  0
LINE
  5
4A4
  8
0
 10
-1.55914
 20
-1.17026
 30
0.0
 11
-0.229782
 21
0.159088
 31
0.0
  0
LINE
  5
4A5
  8
0
 10
-0.229782
 20
0.159088
 30
0.0
 11
-0.222717
 21
0.152023
 31
0.0
  0
LINE
  5
4A6
  8
0
 10
-0.222717
 20
0.152023
 30
0.0
 11
-1.55208
 21
-1.17732
 31
0.0
  0
LINE
  5
4A7
  8
0
 10
-1.55208
 20
-1.17732
 30
0.0
 11
-1.55914
 21
-1.17026
 31
0.0
  0
LINE
  5
4A8
  8
0
 10
-1.545
 20
-1.1844
 30
0.0
 11
-0.215637
 21
0.144943
 31
0.0
  0
LINE
  5
4A9
  8
0
 10
-0.215637
 20
0.144943
 30
0.0
 11
-0.208572
 21
0.137878
 31
0.0
  0
LINE
  5
4AA
  8
0
 10
-0.208572
 20
0.137878
 30
0.0
 11
-1.53793
 21
-1.19147
 31
0.0
  0
LINE
  5
4AB
  8
0
 10
-1.53793
 20
-1.19147
 30
0.0
 11
-1.545
 21
-1.1844
 31
0.0
  0
LINE
  5
4AC
  8
0
 10
-1.53085
 20
-1.19855
 30
0.0
 11
-0.201492
 21
0.130798
 31
0.0
  0
LINE
  5
4AD
  8
0
 10
-0.201492
 20
0.130798
 30
0.0
 11
-0.194427
 21
0.123734
 31
0.0
  0
LINE
  5
4AE
  8
0
 10
-0.194427
 20
0.123734
 30
0.0
 11
-1.52379
 21
-1.20561
 31
0.0
  0
LINE
  5
4AF
  8
0
 10
-1.52379
 20
-1.20561
 30
0.0
 11
-1.53085
 21
-1.19855
 31
0.0
  0
LINE
  5
4B0
  8
0
 10
-1.51672
 20
-1.21268
 30
0.0
 11
-0.187363
 21
0.116669
 31
0.0
  0
LINE
  5
4B1
  8
0
 10
-0.187363
 20
0.116669
 30
0.0
 11
-0.180283
 21
0.109589
 31
0.0
  0
LINE
  5
4B2
  8
0
 10
-0.180283
 20
0.109589
 30
0.0
 11
-1.50964
 21
-1.21976
 31
0.0
  0
LINE
  5
4B3
  8
0
 10
-1.50964
 20
-1.21976
 30
0.0
 11
-1.51672
 21
-1.21268
 31
0.0
  0
LINE
  5
4B4
  8
0
 10
-1.50258
 20
-1.22682
 30
0.0
 11
-0.173218
 21
0.102524
 31
0.0
  0
LINE
  5
4B5
  8
0
 10
-0.173218
 20
0.102524
 30
0.0
 11
-0.166153
 21
0.095459
 31
0.0
  0
LINE
  5
4B6
  8
0
 10
-0.166153
 20
0.095459
 30
0.0
 11
-1.49551
 21
-1.23389
 31
0.0
  0
LINE
  5
4B7
  8
0
 10
-1.49551
 20
-1.23389
 30
0.0
 11
-1.50258
 21
-1.22682
 31
0.0
  0
LINE
  5
4B8
  8
0
 10
-1.48843
 20
-1.24097
 30
0.0
 11
-0.159073
 21
0.0883789
 31
0.0
  0
LINE
  5
4B9
  8
0
 10
-0.159073
 20
0.0883789
 30
0.0
 11
-0.152008
 21
0.0813141
 31
0.0
  0
LINE
  5
4BA
  8
0
 10
-0.152008
 20
0.0813141
 30
0.0
 11
-1.48137
 21
-1.24803
 31
0.0
  0
LINE
  5
4BB
  8
0
 10
-1.48137
 20
-1.24803
 30
0.0
 11
-1.48843
 21
-1.24097
 31
0.0
  0
LINE
  5
4BC
  8
0
 10
-1.4743
 20
-1.2551
 30
0.0
 11
-0.144943
 21
0.0742493
 31
0.0
  0
LINE
  5
4BD
  8
0
 10
-0.144943
 20
0.0742493
 30
0.0
 11
-0.137863
 21
0.0671692
 31
0.0
  0
LINE
  5
4BE
  8
0
 10
-0.137863
 20
0.0671692
 30
0.0
 11
-1.46722
 21
-1.26218
 31
0.0
  0
LINE
  5
4BF
  8
0
 10
-1.46722
 20
-1.26218
 30
0.0
 11
-1.4743
 21
-1.2551
 31
0.0
  0
LINE
  5
4C0
  8
0
 10
-1.46016
 20
-1.26924
 30
0.0
 11
-0.130798
 21
0.0601044
 31
0.0
  0
LINE
  5
4C1
  8
0
 10
-0.130798
 20
0.0601044
 30
0.0
 11
-0.123734
 21
0.0530396
 31
0.0
  0
LINE
  5
4C2
  8
0
 10
-0.123734
 20
0.0530396
 30
0.0
 11
-1.45309
 21
-1.27632
 31
0.0
  0
LINE
  5
4C3
  8
0
 10
-1.45309
 20
-1.27632
 30
0.0
 11
-1.46016
 21
-1.26924
 31
0.0
  0
LINE
  5
4C4
  8
0
 10
-1.44601
 20
-1.28339
 30
0.0
 11
-0.116653
 21
0.0459595
 31
0.0
  0
LINE
  5
4C5
  8
0
 10
-0.116653
 20
0.0459595
 30
0.0
 11
-0.109589
 21
0.0388947
 31
0.0
  0
LINE
  5
4C6
  8
0
 10
-0.109589
 20
0.0388947
 30
0.0
 11
-1.43895
 21
-1.29047
 31
0.0
  0
LINE
  5
4C7
  8
0
 10
-1.43895
 20
-1.29047
 30
0.0
 11
-1.44601
 21
-1.28339
 31
0.0
  0
LINE
  5
4C8
  8
0
 10
-1.43187
 20
-1.29753
 30
0.0
 11
-0.102509
 21
0.0318146
 31
0.0
  0
LINE
  5
4C9
  8
0
 10
-0.102509
 20
0.0318146
 30
0.0
 11
-0.0954437
 21
0.0247498
 31
0.0
  0
LINE
  5
4CA
  8
0
 10
-0.0954437
 20
0.0247498
 30
0.0
 11
-1.4248
 21
-1.30461
 31
0.0
  0
LINE
  5
4CB
  8
0
 10
-1.4248
 20
-1.30461
 30
0.0
 11
-1.43187
 21
-1.29753
 31
0.0
  0
LINE
  5
4CC
  8
0
 10
-1.41772
 20
-1.31168
 30
0.0
 11
-0.0883636
 21
0.0176697
 31
0.0
  0
LINE
  5
4CD
  8
0
 10
-0.0883636
 20
0.0176697
 30
0.0
 11
-0.0812988
 21
0.0106049
 31
0.0
  0
LINE
  5
4CE
  8
0
 10
-0.0812988
 20
0.0106049
 30
0.0
 11
-1.41066
 21
-1.31876
 31
0.0
  0
LINE
  5
4CF
  8
0
 10
-1.41066
 20
-1.31876
 30
0.0
 11
-1.41772
 21
-1.31168
 31
0.0
  0
LINE
  5
4D0
  8
0
 10
-1.40358
 20
-1.32582
 30
0.0
 11
-0.0742188
 21
0.00352478
 31
0.0
  0
LINE
  5
4D1
  8
0
 10
-0.0742188
 20
0.00352478
 30
0.0
 11
-0.0671692
 21
-0.00354004
 31
0.0
  0
LINE
  5
4D2
  8
0
 10
-0.0671692
 20
-0.00354004
 30
0.0
 11
-1.39651
 21
-1.33289
 31
0.0
  0
LINE
  5
4D3
  8
0
 10
-1.39651
 20
-1.33289
 30
0.0
 11
-1.40358
 21
-1.32582
 31
0.0
  0
LINE
  5
4D4
  8
0
 10
-1.38943
 20
-1.33997
 30
0.0
 11
-0.0600891
 21
-0.0106049
 31
0.0
  0
LINE
  5
4D5
  8
0
 10
-0.0600891
 20
-0.0106049
 30
0.0
 11
-0.0530243
 21
-0.0176849
 31
0.0
  0
LINE
  5
4D6
  8
0
 10
-0.0530243
 20
-0.0176849
 30
0.0
 11
-1.38237
 21
-1.34703
 31
0.0
  0
LINE
  5
4D7
  8
0
 10
-1.38237
 20
-1.34703
 30
0.0
 11
-1.38943
 21
-1.33997
 31
0.0
  0
LINE
  5
4D8
  8
0
 10
-1.37531
 20
-1.3541
 30
0.0
 11
-0.0459595
 21
-0.0247498
 31
0.0
  0
LINE
  5
4D9
  8
0
 10
-0.0459595
 20
-0.0247498
 30
0.0
 11
-0.0388794
 21
-0.0318298
 31
0.0
  0
LINE
  5
4DA
  8
0
 10
-0.0388794
 20
-0.0318298
 30
0.0
 11
-1.36823
 21
-1.36118
 31
0.0
  0
LINE
  5
4DB
  8
0
 10
-1.36823
 20
-1.36118
 30
0.0
 11
-1.37531
 21
-1.3541
 31
0.0
  0
LINE
  5
4DC
  8
0
 10
-1.36118
 20
-1.36823
 30
0.0
 11
-0.0318298
 21
-0.0388794
 31
0.0
  0
LINE
  5
4DD
  8
0
 10
-0.0318298
 20
-0.0388794
 30
0.0
 11
-0.0247498
 21
-0.0459595
 31
0.0
  0
LINE
  5
4DE
  8
0
 10
-0.0247498
 20
-0.0459595
 30
0.0
 11
-1.3541
 21
-1.37531
 31
0.0
  0
LINE
  5
4DF
  8
0
 10
-1.3541
 20
-1.37531
 30
0.0
 11
-1.36118
 21
-1.36823
 31
0.0
  0
LINE
  5
4E0
  8
0
 10
-1.34703
 20
-1.38237
 30
0.0
 11
-0.0176849
 21
-0.0530243
 31
0.0
  0
LINE
  5
4E1
  8
0
 10
-0.0176849
 20
-0.0530243
 30
0.0
 11
-0.0106049
 21
-0.0600891
 31
0.0
  0
LINE
  5
4E2
  8
0
 10
-0.0106049
 20
-0.0600891
 30
0.0
 11
-1.33997
 21
-1.38943
 31
0.0
  0
LINE
  5
4E3
  8
0
 10
-1.33997
 20
-1.38943
 30
0.0
 11
-1.34703
 21
-1.38237
 31
0.0
  0
LINE
  5
4E4
  8
0
 10
-1.33289
 20
-1.39651
 30
0.0
 11
-0.00354004
 21
-0.0671692
 31
0.0
  0
LINE
  5
4E5
  8
0
 10
-0.00354004
 20
-0.0671692
 30
0.0
 11
0.00352478
 21
-0.0742188
 31
0.0
  0
LINE
  5
4E6
  8
0
 10
0.00352478
 20
-0.0742188
 30
0.0
 11
-1.32582
 21
-1.40358
 31
0.0
  0
LINE
  5
4E7
  8
0
 10
-1.32582
 20
-1.40358
 30
0.0
 11
-1.33289
 21
-1.39651
 31
0.0
  0
LINE
  5
4E8
  8
0
 10
-1.31876
 20
-1.41066
 30
0.0
 11
0.0106049
 21
-0.0812988
 31
0.0
  0
LINE
  5
4E9
  8
0
 10
0.0106049
 20
-0.0812988
 30
0.0
 11
0.0176697
 21
-0.0883636
 31
0.0
  0
LINE
  5
4EA
  8
0
 10
0.0176697
 20
-0.0883636
 30
0.0
 11
-1.31168
 21
-1.41772
 31
0.0
  0
LINE
  5
4EB
  8
0
 10
-1.31168
 20
-1.41772
 30
0.0
 11
-1.31876
 21
-1.41066
 31
0.0
  0
LINE
  5
4EC
  8
0
 10
-1.30461
 20
-1.4248
 30
0.0
 11
0.0247498
 21
-0.0954437
 31
0.0
  0
LINE
  5
4ED
  8
0
 10
0.0247498
 20
-0.0954437
 30
0.0
 11
0.0318146
 21
-0.102509
 31
0.0
  0
LINE
  5
4EE
  8
0
 10
0.0318146
 20
-0.102509
 30
0.0
 11
-1.29753
 21
-1.43187
 31
0.0
  0
LINE
  5
4EF
  8
0
 10
-1.29753
 20
-1.43187
 30
0.0
 11
-1.30461
 21
-1.4248
 31
0.0
  0
LINE
  5
4F0
  8
0
 10
-1.29047
 20
-1.43895
 30
0.0
 11
0.0388947
 21
-0.109589
 31
0.0
  0
LINE
  5
4F1
  8
0
 10
0.0388947
 20
-0.109589
 30
0.0
 11
0.0459595
 21
-0.116653
 31
0.0
  0
LINE
  5
4F2
  8
0
 10
0.0459595
 20
-0.116653
 30
0.0
 11
-1.28339
 21
-1.44601
 31
0.0
  0
LINE
  5
4F3
  8
0
 10
-1.28339
 20
-1.44601
 30
0.0
 11
-1.29047
 21
-1.43895
 31
0.0
  0
LINE
  5
4F4
  8
0
 10
-1.27632
 20
-1.45309
 30
0.0
 11
0.0530396
 21
-0.123734
 31
0.0
  0
LINE
  5
4F5
  8
0
 10
0.0530396
 20
-0.123734
 30
0.0
 11
0.0601044
 21
-0.130798
 31
0.0
  0
LINE
  5
4F6
  8
0
 10
0.0601044
 20
-0.130798
 30
0.0
 11
-1.26924
 21
-1.46016
 31
0.0
  0
LINE
  5
4F7
  8
0
 10
-1.26924
 20
-1.46016
 30
0.0
 11
-1.27632
 21
-1.45309
 31
0.0
  0
LINE
  5
4F8
  8
0
 10
-1.26218
 20
-1.46722
 30
0.0
 11
0.0671692
 21
-0.137863
 31
0.0
  0
LINE
  5
4F9
  8
0
 10
0.0671692
 20
-0.137863
 30
0.0
 11
0.0742493
 21
-0.144943
 31
0.0
  0
LINE
  5
4FA
  8
0
 10
0.0742493
 20
-0.144943
 30
0.0
 11
-1.2551
 21
-1.4743
 31
0.0
  0
LINE
  5
4FB
  8
0
 10
-1.2551
 20
-1.4743
 30
0.0
 11
-1.26218
 21
-1.46722
 31
0.0
  0
LINE
  5
4FC
  8
0
 10
-1.24803
 20
-1.48137
 30
0.0
 11
0.0813141
 21
-0.152008
 31
0.0
  0
LINE
  5
4FD
  8
0
 10
0.0813141
 20
-0.152008
 30
0.0
 11
0.0883789
 21
-0.159073
 31
0.0
  0
LINE
  5
4FE
  8
0
 10
0.0883789
 20
-0.159073
 30
0.0
 11
-1.24097
 21
-1.48843
 31
0.0
  0
LINE
  5
4FF
  8
0
 10
-1.24097
 20
-1.48843
 30
0.0
 11
-1.24803
 21
-1.48137
 31
0.0
  0
LINE
  5
500
  8
0
 10
-1.23389
 20
-1.49551
 30
0.0
 11
0.095459
 21
-0.166153
 31
0.0
  0
LINE
  5
501
  8
0
 10
0.095459
 20
-0.166153
 30
0.0
 11
0.102524
 21
-0.173218
 31
0.0
  0
LINE
  5
502
  8
0
 10
0.102524
 20
-0.173218
 30
0.0
 11
-1.22682
 21
-1.50258
 31
0.0
  0
LINE
  5
503
  8
0
 10
-1.22682
 20
-1.50258
 30
0.0
 11
-1.23389
 21
-1.49551
 31
0.0
  0
LINE
  5
504
  8
0
 10
-1.21976
 20
-1.50964
 30
0.0
 11
0.109589
 21
-0.180283
 31
0.0
  0
LINE
  5
505
  8
0
 10
0.109589
 20
-0.180283
 30
0.0
 11
0.116669
 21
-0.187363
 31
0.0
  0
LINE
  5
506
  8
0
 10
0.116669
 20
-0.187363
 30
0.0
 11
-1.21268
 21
-1.51672
 31
0.0
  0
LINE
  5
507
  8
0
 10
-1.21268
 20
-1.51672
 30
0.0
 11
-1.21976
 21
-1.50964
 31
0.0
  0
LINE
  5
508
  8
0
 10
-1.20561
 20
-1.52379
 30
0.0
 11
0.123734
 21
-0.194427
 31
0.0
  0
LINE
  5
509
  8
0
 10
0.123734
 20
-0.194427
 30
0.0
 11
0.130798
 21
-0.201492
 31
0.0
  0
LINE
  5
50A
  8
0
 10
0.130798
 20
-0.201492
 30
0.0
 11
-1.19855
 21
-1.53085
 31
0.0
  0
LINE
  5
50B
  8
0
 10
-1.19855
 20
-1.53085
 30
0.0
 11
-1.20561
 21
-1.52379
 31
0.0
  0
LINE
  5
50C
  8
0
 10
-1.19147
 20
-1.53793
 30
0.0
 11
0.137878
 21
-0.208572
 31
0.0
  0
LINE
  5
50D
  8
0
 10
0.137878
 20
-0.208572
 30
0.0
 11
0.144943
 21
-0.215637
 31
0.0
  0
LINE
  5
50E
  8
0
 10
0.144943
 20
-0.215637
 30
0.0
 11
-1.1844
 21
-1.545
 31
0.0
  0
LINE
  5
50F
  8
0
 10
-1.1844
 20
-1.545
 30
0.0
 11
-1.19147
 21
-1.53793
 31
0.0
  0
LINE
  5
510
  8
0
 10
-1.17732
 20
-1.55208
 30
0.0
 11
0.152023
 21
-0.222717
 31
0.0
  0
LINE
  5
511
  8
0
 10
0.152023
 20
-0.222717
 30
0.0
 11
0.159088
 21
-0.229782
 31
0.0
  0
LINE
  5
512
  8
0
 10
0.159088
 20
-0.229782
 30
0.0
 11
-1.17026
 21
-1.55914
 31
0.0
  0
LINE
  5
513
  8
0
 10
-1.17026
 20
-1.55914
 30
0.0
 11
-1.17732
 21
-1.55208
 31
0.0
  0
LINE
  5
514
  8
0
 10
-1.16319
 20
-1.56622
 30
0.0
 11
0.166168
 21
-0.236862
 31
0.0
  0
LINE
  5
515
  8
0
 10
0.166168
 20
-0.236862
 30
0.0
 11
0.173248
 21
-0.243942
 31
0.0
  0
LINE
  5
516
  8
0
 10
0.173248
 20
-0.243942
 30
0.0
 11
-1.15611
 21
-1.57329
 31
0.0
  0
LINE
  5
517
  8
0
 10
-1.15611
 20
-1.57329
 30
0.0
 11
-1.16319
 21
-1.56622
 31
0.0
  0
LINE
  5
518
  8
0
 10
-1.14905
 20
-1.58037
 30
0.0
 11
0.180313
 21
-0.251007
 31
0.0
  0
LINE
  5
519
  8
0
 10
0.180313
 20
-0.251007
 30
0.0
 11
0.187378
 21
-0.258072
 31
0.0
  0
LINE
  5
51A
  8
0
 10
0.187378
 20
-0.258072
 30
0.0
 11
-1.14197
 21
-1.58743
 31
0.0
  0
LINE
  5
51B
  8
0
 10
-1.14197
 20
-1.58743
 30
0.0
 11
-1.14905
 21
-1.58037
 31
0.0
  0
LINE
  5
51C
  8
0
 10
-1.1349
 20
-1.59451
 30
0.0
 11
0.194458
 21
-0.265152
 31
0.0
  0
LINE
  5
51D
  8
0
 10
0.194458
 20
-0.265152
 30
0.0
 11
0.201523
 21
-0.272217
 31
0.0
  0
LINE
  5
51E
  8
0
 10
0.201523
 20
-0.272217
 30
0.0
 11
-1.12782
 21
-1.60158
 31
0.0
  0
LINE
  5
51F
  8
0
 10
-1.12782
 20
-1.60158
 30
0.0
 11
-1.1349
 21
-1.59451
 31
0.0
  0
LINE
  5
520
  8
0
 10
-1.12076
 20
-1.60864
 30
0.0
 11
0.208588
 21
-0.279282
 31
0.0
  0
LINE
  5
521
  8
0
 10
0.208588
 20
-0.279282
 30
0.0
 11
0.215668
 21
-0.286362
 31
0.0
  0
LINE
  5
522
  8
0
 10
0.215668
 20
-0.286362
 30
0.0
 11
-1.11368
 21
-1.61572
 31
0.0
  0
LINE
  5
523
  8
0
 10
-1.11368
 20
-1.61572
 30
0.0
 11
-1.12076
 21
-1.60864
 31
0.0
  0
LINE
  5
524
  8
0
 10
-1.10661
 20
-1.62279
 30
0.0
 11
0.222733
 21
-0.293427
 31
0.0
  0
LINE
  5
525
  8
0
 10
0.222733
 20
-0.293427
 30
0.0
 11
0.229813
 21
-0.300507
 31
0.0
  0
LINE
  5
526
  8
0
 10
0.229813
 20
-0.300507
 30
0.0
 11
-1.09953
 21
-1.62987
 31
0.0
  0
LINE
  5
527
  8
0
 10
-1.09953
 20
-1.62987
 30
0.0
 11
-1.10661
 21
-1.62279
 31
0.0
  0
LINE
  5
528
  8
0
 10
-1.09247
 20
-1.63693
 30
0.0
 11
0.236877
 21
-0.307571
 31
0.0
  0
LINE
  5
529
  8
0
 10
0.236877
 20
-0.307571
 30
0.0
 11
0.243942
 21
-0.314636
 31
0.0
  0
LINE
  5
52A
  8
0
 10
0.243942
 20
-0.314636
 30
0.0
 11
-1.0854
 21
-1.644
 31
0.0
  0
LINE
  5
52B
  8
0
 10
-1.0854
 20
-1.644
 30
0.0
 11
-1.09247
 21
-1.63693
 31
0.0
  0
LINE
  5
52C
  8
0
 10
-1.07832
 20
-1.65108
 30
0.0
 11
0.251022
 21
-0.321716
 31
0.0
  0
LINE
  5
52D
  8
0
 10
0.251022
 20
-0.321716
 30
0.0
 11
0.258087
 21
-0.328781
 31
0.0
  0
LINE
  5
52E
  8
0
 10
0.258087
 20
-0.328781
 30
0.0
 11
-1.07126
 21
-1.65814
 31
0.0
  0
LINE
  5
52F
  8
0
 10
-1.07126
 20
-1.65814
 30
0.0
 11
-1.07832
 21
-1.65108
 31
0.0
  0
LINE
  5
530
  8
0
 10
-1.06419
 20
-1.66521
 30
0.0
 11
0.265152
 21
-0.335846
 31
0.0
  0
LINE
  5
531
  8
0
 10
0.265152
 20
-0.335846
 30
0.0
 11
0.272232
 21
-0.342926
 31
0.0
  0
LINE
  5
532
  8
0
 10
0.272232
 20
-0.342926
 30
0.0
 11
-1.05711
 21
-1.67229
 31
0.0
  0
LINE
  5
533
  8
0
 10
-1.05711
 20
-1.67229
 30
0.0
 11
-1.06419
 21
-1.66521
 31
0.0
  0
LINE
  5
534
  8
0
 10
-1.05005
 20
-1.67935
 30
0.0
 11
0.279297
 21
-0.349991
 31
0.0
  0
LINE
  5
535
  8
0
 10
0.279297
 20
-0.349991
 30
0.0
 11
0.286377
 21
-0.357071
 31
0.0
  0
LINE
  5
536
  8
0
 10
0.286377
 20
-0.357071
 30
0.0
 11
-1.04298
 21
-1.68642
 31
0.0
  0
LINE
  5
537
  8
0
 10
-1.04298
 20
-1.68642
 30
0.0
 11
-1.05005
 21
-1.67935
 31
0.0
  0
LINE
  5
538
  8
0
 10
-1.0359
 20
-1.6935
 30
0.0
 11
0.293442
 21
-0.364136
 31
0.0
  0
LINE
  5
539
  8
0
 10
0.293442
 20
-0.364136
 30
0.0
 11
0.300522
 21
-0.371216
 31
0.0
  0
LINE
  5
53A
  8
0
 10
0.300522
 20
-0.371216
 30
0.0
 11
-1.02884
 21
-1.70058
 31
0.0
  0
LINE
  5
53B
  8
0
 10
-1.02884
 20
-1.70058
 30
0.0
 11
-1.0359
 21
-1.6935
 31
0.0
  0
LINE
  5
53C
  8
0
 10
-1.02177
 20
-1.70764
 30
0.0
 11
0.307587
 21
-0.378281
 31
0.0
  0
LINE
  5
53D
  8
0
 10
0.307587
 20
-0.378281
 30
0.0
 11
0.314667
 21
-0.385361
 31
0.0
  0
LINE
  5
53E
  8
0
 10
0.314667
 20
-0.385361
 30
0.0
 11
-1.01469
 21
-1.71472
 31
0.0
  0
LINE
  5
53F
  8
0
 10
-1.01469
 20
-1.71472
 30
0.0
 11
-1.02177
 21
-1.70764
 31
0.0
  0
LINE
  5
540
  8
0
 10
-1.00761
 20
-1.72179
 30
0.0
 11
0.321732
 21
-0.392426
 31
0.0
  0
LINE
  5
541
  8
0
 10
0.321732
 20
-0.392426
 30
0.0
 11
0.328812
 21
-0.399506
 31
0.0
  0
LINE
  5
542
  8
0
 10
0.328812
 20
-0.399506
 30
0.0
 11
-1.00055
 21
-1.72887
 31
0.0
  0
LINE
  5
543
  8
0
 10
-1.00055
 20
-1.72887
 30
0.0
 11
-1.00761
 21
-1.72179
 31
0.0
  0
LINE
  5
544
  8
0
 10
-0.993469
 20
-1.73593
 30
0.0
 11
0.335876
 21
-0.40657
 31
0.0
  0
LINE
  5
545
  8
0
 10
0.335876
 20
-0.40657
 30
0.0
 11
0.342941
 21
-0.413635
 31
0.0
  0
LINE
  5
546
  8
0
 10
0.342941
 20
-0.413635
 30
0.0
 11
-0.986404
 21
-1.743
 31
0.0
  0
LINE
  5
547
  8
0
 10
-0.986404
 20
-1.743
 30
0.0
 11
-0.993469
 21
-1.73593
 31
0.0
  0
LINE
  5
548
  8
0
 10
-0.979324
 20
-1.75008
 30
0.0
 11
0.350021
 21
-0.420715
 31
0.0
  0
LINE
  5
549
  8
0
 10
0.350021
 20
-0.420715
 30
0.0
 11
0.357086
 21
-0.42778
 31
0.0
  0
LINE
  5
54A
  8
0
 10
0.357086
 20
-0.42778
 30
0.0
 11
-0.97226
 21
-1.75714
 31
0.0
  0
LINE
  5
54B
  8
0
 10
-0.97226
 20
-1.75714
 30
0.0
 11
-0.979324
 21
-1.75008
 31
0.0
  0
LINE
  5
54C
  8
0
 10
-0.965195
 20
-1.76421
 30
0.0
 11
0.364151
 21
-0.434845
 31
0.0
  0
LINE
  5
54D
  8
0
 10
0.364151
 20
-0.434845
 30
0.0
 11
0.371231
 21
-0.441925
 31
0.0
  0
LINE
  5
54E
  8
0
 10
0.371231
 20
-0.441925
 30
0.0
 11
-0.958115
 21
-1.77129
 31
0.0
  0
LINE
  5
54F
  8
0
 10
-0.958115
 20
-1.77129
 30
0.0
 11
-0.965195
 21
-1.76421
 31
0.0
  0
LINE
  5
550
  8
0
 10
-0.95105
 20
-1.77835
 30
0.0
 11
0.378296
 21
-0.44899
 31
0.0
  0
LINE
  5
551
  8
0
 10
0.378296
 20
-0.44899
 30
0.0
 11
0.385361
 21
-0.456055
 31
0.0
  0
LINE
  5
552
  8
0
 10
0.385361
 20
-0.456055
 30
0.0
 11
-0.943985
 21
-1.78542
 31
0.0
  0
LINE
  5
553
  8
0
 10
-0.943985
 20
-1.78542
 30
0.0
 11
-0.95105
 21
-1.77835
 31
0.0
  0
LINE
  5
554
  8
0
 10
-0.936905
 20
-1.7925
 30
0.0
 11
0.392441
 21
-0.463135
 31
0.0
  0
LINE
  5
555
  8
0
 10
0.392441
 20
-0.463135
 30
0.0
 11
0.399506
 21
-0.4702
 31
0.0
  0
LINE
  5
556
  8
0
 10
0.399506
 20
-0.4702
 30
0.0
 11
-0.92984
 21
-1.79956
 31
0.0
  0
LINE
  5
557
  8
0
 10
-0.92984
 20
-1.79956
 30
0.0
 11
-0.936905
 21
-1.7925
 31
0.0
  0
LINE
  5
558
  8
0
 10
-0.92276
 20
-1.80664
 30
0.0
 11
0.406586
 21
-0.47728
 31
0.0
  0
LINE
  5
559
  8
0
 10
0.406586
 20
-0.47728
 30
0.0
 11
0.413651
 21
-0.484344
 31
0.0
  0
LINE
  5
55A
  8
0
 10
0.413651
 20
-0.484344
 30
0.0
 11
-0.915695
 21
-1.81371
 31
0.0
  0
LINE
  5
55B
  8
0
 10
-0.915695
 20
-1.81371
 30
0.0
 11
-0.92276
 21
-1.80664
 31
0.0
  0
LINE
  5
55C
  8
0
 10
-0.90863
 20
-1.82077
 30
0.0
 11
0.420715
 21
-0.491409
 31
0.0
  0
LINE
  5
55D
  8
0
 10
0.420715
 20
-0.491409
 30
0.0
 11
0.427795
 21
-0.498489
 31
0.0
  0
LINE
  5
55E
  8
0
 10
0.427795
 20
-0.498489
 30
0.0
 11
-0.90155
 21
-1.82785
 31
0.0
  0
LINE
  5
55F
  8
0
 10
-0.90155
 20
-1.82785
 30
0.0
 11
-0.90863
 21
-1.82077
 31
0.0
  0
LINE
  5
560
  8
0
 10
-0.894485
 20
-1.83492
 30
0.0
 11
0.43486
 21
-0.505554
 31
0.0
  0
LINE
  5
561
  8
0
 10
0.43486
 20
-0.505554
 30
0.0
 11
0.44194
 21
-0.512634
 31
0.0
  0
LINE
  5
562
  8
0
 10
0.44194
 20
-0.512634
 30
0.0
 11
-0.887421
 21
-1.842
 31
0.0
  0
LINE
  5
563
  8
0
 10
-0.887421
 20
-1.842
 30
0.0
 11
-0.894485
 21
-1.83492
 31
0.0
  0
LINE
  5
564
  8
0
 10
-0.880341
 20
-1.84906
 30
0.0
 11
0.449005
 21
-0.519699
 31
0.0
  0
LINE
  5
565
  8
0
 10
0.449005
 20
-0.519699
 30
0.0
 11
0.456085
 21
-0.526779
 31
0.0
  0
LINE
  5
566
  8
0
 10
0.456085
 20
-0.526779
 30
0.0
 11
-0.873276
 21
-1.85614
 31
0.0
  0
LINE
  5
567
  8
0
 10
-0.873276
 20
-1.85614
 30
0.0
 11
-0.880341
 21
-1.84906
 31
0.0
  0
LINE
  5
568
  8
0
 10
-0.866196
 20
-1.8632
 30
0.0
 11
0.46315
 21
-0.533844
 31
0.0
  0
LINE
  5
569
  8
0
 10
0.46315
 20
-0.533844
 30
0.0
 11
0.47023
 21
-0.540924
 31
0.0
  0
LINE
  5
56A
  8
0
 10
0.47023
 20
-0.540924
 30
0.0
 11
-0.859131
 21
-1.87029
 31
0.0
  0
LINE
  5
56B
  8
0
 10
-0.859131
 20
-1.87029
 30
0.0
 11
-0.866196
 21
-1.8632
 31
0.0
  0
LINE
  5
56C
  8
0
 10
-0.852051
 20
-1.87735
 30
0.0
 11
0.477295
 21
-0.547989
 31
0.0
  0
LINE
  5
56D
  8
0
 10
0.477295
 20
-0.547989
 30
0.0
 11
0.48436
 21
-0.555054
 31
0.0
  0
LINE
  5
56E
  8
0
 10
0.48436
 20
-0.555054
 30
0.0
 11
-0.844986
 21
-1.88441
 31
0.0
  0
LINE
  5
56F
  8
0
 10
-0.844986
 20
-1.88441
 30
0.0
 11
-0.852051
 21
-1.87735
 31
0.0
  0
LINE
  5
570
  8
0
 10
-0.837906
 20
-1.89149
 30
0.0
 11
0.49144
 21
-0.562134
 31
0.0
  0
LINE
  5
571
  8
0
 10
0.49144
 20
-0.562134
 30
0.0
 11
0.498505
 21
-0.569199
 31
0.0
  0
LINE
  5
572
  8
0
 10
0.498505
 20
-0.569199
 30
0.0
 11
-0.830841
 21
-1.89856
 31
0.0
  0
LINE
  5
573
  8
0
 10
-0.830841
 20
-1.89856
 30
0.0
 11
-0.837906
 21
-1.89149
 31
0.0
  0
LINE
  5
574
  8
0
 10
-0.823761
 20
-1.90564
 30
0.0
 11
0.505585
 21
-0.576279
 31
0.0
  0
LINE
  5
575
  8
0
 10
0.505585
 20
-0.576279
 30
0.0
 11
0.51265
 21
-0.583344
 31
0.0
  0
LINE
  5
576
  8
0
 10
0.51265
 20
-0.583344
 30
0.0
 11
-0.816696
 21
-1.9127
 31
0.0
  0
LINE
  5
577
  8
0
 10
-0.816696
 20
-1.9127
 30
0.0
 11
-0.823761
 21
-1.90564
 31
0.0
  0
LINE
  5
578
  8
0
 10
-0.809631
 20
-1.91977
 30
0.0
 11
0.519714
 21
-0.590408
 31
0.0
  0
LINE
  5
579
  8
0
 10
0.519714
 20
-0.590408
 30
0.0
 11
0.526794
 21
-0.597488
 31
0.0
  0
LINE
  5
57A
  8
0
 10
0.526794
 20
-0.597488
 30
0.0
 11
-0.802551
 21
-1.92685
 31
0.0
  0
LINE
  5
57B
  8
0
 10
-0.802551
 20
-1.92685
 30
0.0
 11
-0.809631
 21
-1.91977
 31
0.0
  0
LINE
  5
57C
  8
0
 10
-0.795486
 20
-1.93391
 30
0.0
 11
0.533859
 21
-0.604553
 31
0.0
  0
LINE
  5
57D
  8
0
 10
0.533859
 20
-0.604553
 30
0.0
 11
0.540924
 21
-0.611618
 31
0.0
  0
LINE
  5
57E
  8
0
 10
0.540924
 20
-0.611618
 30
0.0
 11
-0.788422
 21
-1.94098
 31
0.0
  0
LINE
  5
57F
  8
0
 10
-0.788422
 20
-1.94098
 30
0.0
 11
-0.795486
 21
-1.93391
 31
0.0
  0
LINE
  5
580
  8
0
 10
-0.781342
 20
-1.94806
 30
0.0
 11
0.548004
 21
-0.618698
 31
0.0
  0
LINE
  5
581
  8
0
 10
0.548004
 20
-0.618698
 30
0.0
 11
0.555069
 21
-0.625763
 31
0.0
  0
LINE
  5
582
  8
0
 10
0.555069
 20
-0.625763
 30
0.0
 11
-0.774277
 21
-1.95512
 31
0.0
  0
LINE
  5
583
  8
0
 10
-0.774277
 20
-1.95512
 30
0.0
 11
-0.781342
 21
-1.94806
 31
0.0
  0
LINE
  5
584
  8
0
 10
-0.767212
 20
-1.96219
 30
0.0
 11
0.562134
 21
-0.632828
 31
0.0
  0
LINE
  5
585
  8
0
 10
0.562134
 20
-0.632828
 30
0.0
 11
0.569214
 21
-0.639908
 31
0.0
  0
LINE
  5
586
  8
0
 10
0.569214
 20
-0.639908
 30
0.0
 11
-0.760132
 21
-1.96927
 31
0.0
  0
LINE
  5
587
  8
0
 10
-0.760132
 20
-1.96927
 30
0.0
 11
-0.767212
 21
-1.96219
 31
0.0
  0
LINE
  5
588
  8
0
 10
-0.753067
 20
-1.97633
 30
0.0
 11
0.576279
 21
-0.646973
 31
0.0
  0
LINE
  5
589
  8
0
 10
0.576279
 20
-0.646973
 30
0.0
 11
0.583359
 21
-0.654053
 31
0.0
  0
LINE
  5
58A
  8
0
 10
0.583359
 20
-0.654053
 30
0.0
 11
-0.745987
 21
-1.98341
 31
0.0
  0
LINE
  5
58B
  8
0
 10
-0.745987
 20
-1.98341
 30
0.0
 11
-0.753067
 21
-1.97633
 31
0.0
  0
LINE
  5
58C
  8
0
 10
-0.738922
 20
-1.99048
 30
0.0
 11
0.590439
 21
-0.661133
 31
0.0
  0
LINE
  5
58D
  8
0
 10
0.590439
 20
-0.661133
 30
0.0
 11
0.597504
 21
-0.668198
 31
0.0
  0
LINE
  5
58E
  8
0
 10
0.597504
 20
-0.668198
 30
0.0
 11
-0.731857
 21
-1.99756
 31
0.0
  0
LINE
  5
58F
  8
0
 10
-0.731857
 20
-1.99756
 30
0.0
 11
-0.738922
 21
-1.99048
 31
0.0
  0
LINE
  5
590
  8
0
 10
-0.724777
 20
-2.00462
 30
0.0
 11
0.604584
 21
-0.675278
 31
0.0
  0
LINE
  5
591
  8
0
 10
0.604584
 20
-0.675278
 30
0.0
 11
0.611649
 21
-0.682343
 31
0.0
  0
LINE
  5
592
  8
0
 10
0.611649
 20
-0.682343
 30
0.0
 11
-0.717712
 21
-2.0117
 31
0.0
  0
LINE
  5
593
  8
0
 10
-0.717712
 20
-2.0117
 30
0.0
 11
-0.724777
 21
-2.00462
 31
0.0
  0
LINE
  5
594
  8
0
 10
-0.710632
 20
-2.01877
 30
0.0
 11
0.618713
 21
-0.689407
 31
0.0
  0
LINE
  5
595
  8
0
 10
0.618713
 20
-0.689407
 30
0.0
 11
0.625793
 21
-0.696487
 31
0.0
  0
LINE
  5
596
  8
0
 10
0.625793
 20
-0.696487
 30
0.0
 11
-0.703568
 21
-2.02585
 31
0.0
  0
LINE
  5
597
  8
0
 10
-0.703568
 20
-2.02585
 30
0.0
 11
-0.710632
 21
-2.01877
 31
0.0
  0
LINE
  5
598
  8
0
 10
-0.696487
 20
-2.03291
 30
0.0
 11
0.632858
 21
-0.703552
 31
0.0
  0
LINE
  5
599
  8
0
 10
0.632858
 20
-0.703552
 30
0.0
 11
0.639923
 21
-0.710617
 31
0.0
  0
LINE
  5
59A
  8
0
 10
0.639923
 20
-0.710617
 30
0.0
 11
-0.689423
 21
-2.03998
 31
0.0
  0
LINE
  5
59B
  8
0
 10
-0.689423
 20
-2.03998
 30
0.0
 11
-0.696487
 21
-2.03291
 31
0.0
  0
LINE
  5
59C
  8
0
 10
-0.682343
 20
-2.04706
 30
0.0
 11
0.647003
 21
-0.717697
 31
0.0
  0
LINE
  5
59D
  8
0
 10
0.647003
 20
-0.717697
 30
0.0
 11
0.654068
 21
-0.724762
 31
0.0
  0
LINE
  5
59E
  8
0
 10
0.654068
 20
-0.724762
 30
0.0
 11
-0.675278
 21
-2.05412
 31
0.0
  0
LINE
  5
59F
  8
0
 10
-0.675278
 20
-2.05412
 30
0.0
 11
-0.682343
 21
-2.04706
 31
0.0
  0
LINE
  5
5A0
  8
0
 10
-0.668213
 20
-2.06119
 30
0.0
 11
0.661133
 21
-0.731827
 31
0.0
  0
LINE
  5
5A1
  8
0
 10
0.661133
 20
-0.731827
 30
0.0
 11
0.668213
 21
-0.738907
 31
0.0
  0
LINE
  5
5A2
  8
0
 10
0.668213
 20
-0.738907
 30
0.0
 11
-0.661133
 21
-2.06827
 31
0.0
  0
LINE
  5
5A3
  8
0
 10
-0.661133
 20
-2.06827
 30
0.0
 11
-0.668213
 21
-2.06119
 31
0.0
  0
LINE
  5
5A4
  8
0
 10
-0.654068
 20
-2.07533
 30
0.0
 11
0.675278
 21
-0.745972
 31
0.0
  0
LINE
  5
5A5
  8
0
 10
0.675278
 20
-0.745972
 30
0.0
 11
0.682358
 21
-0.753052
 31
0.0
  0
LINE
  5
5A6
  8
0
 10
0.682358
 20
-0.753052
 30
0.0
 11
-0.646988
 21
-2.08241
 31
0.0
  0
LINE
  5
5A7
  8
0
 10
-0.646988
 20
-2.08241
 30
0.0
 11
-0.654068
 21
-2.07533
 31
0.0
  0
LINE
  5
5A8
  8
0
 10
-0.639923
 20
-2.08948
 30
0.0
 11
0.689423
 21
-0.760117
 31
0.0
  0
LINE
  5
5A9
  8
0
 10
0.689423
 20
-0.760117
 30
0.0
 11
0.696487
 21
-0.767181
 31
0.0
  0
LINE
  5
5AA
  8
0
 10
0.696487
 20
-0.767181
 30
0.0
 11
-0.632858
 21
-2.09654
 31
0.0
  0
LINE
  5
5AB
  8
0
 10
-0.632858
 20
-2.09654
 30
0.0
 11
-0.639923
 21
-2.08948
 31
0.0
  0
LINE
  5
5AC
  8
0
 10
0.703568
 20
-0.774261
 30
0.0
 11
0.710632
 21
-0.781326
 31
0.0
  0
LINE
  5
5AD
  8
0
 10
0.710632
 20
-0.781326
 30
0.0
 11
-0.618713
 21
-2.11069
 31
0.0
  0
LINE
  5
5AE
  8
0
 10
-0.618713
 20
-2.11069
 30
0.0
 11
-0.625778
 21
-2.10362
 31
0.0
  0
LINE
  5
5AF
  8
0
 10
-0.625778
 20
-2.10362
 30
0.0
 11
0.703568
 21
-0.774261
 31
0.0
  0
LINE
  5
5B0
  8
0
 10
-0.611649
 20
-2.11775
 30
0.0
 11
0.717712
 21
-0.788406
 31
0.0
  0
LINE
  5
5B1
  8
0
 10
0.717712
 20
-0.788406
 30
0.0
 11
0.724777
 21
-0.795471
 31
0.0
  0
LINE
  5
5B2
  8
0
 10
0.724777
 20
-0.795471
 30
0.0
 11
-0.604568
 21
-2.12483
 31
0.0
  0
LINE
  5
5B3
  8
0
 10
-0.604568
 20
-2.12483
 30
0.0
 11
-0.611649
 21
-2.11775
 31
0.0
  0
LINE
  5
5B4
  8
0
 10
-0.597504
 20
-2.13191
 30
0.0
 11
0.731857
 21
-0.802551
 31
0.0
  0
LINE
  5
5B5
  8
0
 10
0.731857
 20
-0.802551
 30
0.0
 11
0.738922
 21
-0.809616
 31
0.0
  0
LINE
  5
5B6
  8
0
 10
0.738922
 20
-0.809616
 30
0.0
 11
-0.590439
 21
-2.13898
 31
0.0
  0
LINE
  5
5B7
  8
0
 10
-0.590439
 20
-2.13898
 30
0.0
 11
-0.597504
 21
-2.13191
 31
0.0
  0
LINE
  5
5B8
  8
0
 10
-0.583359
 20
-2.14606
 30
0.0
 11
0.746002
 21
-0.816696
 31
0.0
  0
LINE
  5
5B9
  8
0
 10
0.746002
 20
-0.816696
 30
0.0
 11
0.753067
 21
-0.823761
 31
0.0
  0
LINE
  5
5BA
  8
0
 10
0.753067
 20
-0.823761
 30
0.0
 11
-0.576279
 21
-2.15312
 31
0.0
  0
LINE
  5
5BB
  8
0
 10
-0.576279
 20
-2.15312
 30
0.0
 11
-0.583359
 21
-2.14606
 31
0.0
  0
LINE
  5
5BC
  8
0
 10
-0.569214
 20
-2.1602
 30
0.0
 11
0.760147
 21
-0.830841
 31
0.0
  0
LINE
  5
5BD
  8
0
 10
0.760147
 20
-0.830841
 30
0.0
 11
0.767212
 21
-0.837906
 31
0.0
  0
LINE
  5
5BE
  8
0
 10
0.767212
 20
-0.837906
 30
0.0
 11
-0.562134
 21
-2.16727
 31
0.0
  0
LINE
  5
5BF
  8
0
 10
-0.562134
 20
-2.16727
 30
0.0
 11
-0.569214
 21
-2.1602
 31
0.0
  0
LINE
  5
5C0
  8
0
 10
-0.555069
 20
-2.17433
 30
0.0
 11
0.774277
 21
-0.844971
 31
0.0
  0
LINE
  5
5C1
  8
0
 10
0.774277
 20
-0.844971
 30
0.0
 11
0.781357
 21
-0.852051
 31
0.0
  0
LINE
  5
5C2
  8
0
 10
0.781357
 20
-0.852051
 30
0.0
 11
-0.547989
 21
-2.18141
 31
0.0
  0
LINE
  5
5C3
  8
0
 10
-0.547989
 20
-2.18141
 30
0.0
 11
-0.555069
 21
-2.17433
 31
0.0
  0
LINE
  5
5C4
  8
0
 10
-0.540924
 20
-2.18848
 30
0.0
 11
0.788422
 21
-0.859116
 31
0.0
  0
LINE
  5
5C5
  8
0
 10
0.788422
 20
-0.859116
 30
0.0
 11
0.795486
 21
-0.86618
 31
0.0
  0
LINE
  5
5C6
  8
0
 10
0.795486
 20
-0.86618
 30
0.0
 11
-0.533859
 21
-2.19554
 31
0.0
  0
LINE
  5
5C7
  8
0
 10
-0.533859
 20
-2.19554
 30
0.0
 11
-0.540924
 21
-2.18848
 31
0.0
  0
LINE
  5
5C8
  8
0
 10
-0.526779
 20
-2.20262
 30
0.0
 11
0.802567
 21
-0.87326
 31
0.0
  0
LINE
  5
5C9
  8
0
 10
0.802567
 20
-0.87326
 30
0.0
 11
0.809631
 21
-0.880325
 31
0.0
  0
LINE
  5
5CA
  8
0
 10
0.809631
 20
-0.880325
 30
0.0
 11
-0.519714
 21
-2.20969
 31
0.0
  0
LINE
  5
5CB
  8
0
 10
-0.519714
 20
-2.20969
 30
0.0
 11
-0.526779
 21
-2.20262
 31
0.0
  0
LINE
  5
5CC
  8
0
 10
-0.51265
 20
-2.21675
 30
0.0
 11
0.816696
 21
-0.88739
 31
0.0
  0
LINE
  5
5CD
  8
0
 10
0.816696
 20
-0.88739
 30
0.0
 11
0.823776
 21
-0.89447
 31
0.0
  0
LINE
  5
5CE
  8
0
 10
0.823776
 20
-0.89447
 30
0.0
 11
-0.505569
 21
-2.22383
 31
0.0
  0
LINE
  5
5CF
  8
0
 10
-0.505569
 20
-2.22383
 30
0.0
 11
-0.51265
 21
-2.21675
 31
0.0
  0
LINE
  5
5D0
  8
0
 10
-0.498505
 20
-2.2309
 30
0.0
 11
0.830841
 21
-0.901535
 31
0.0
  0
LINE
  5
5D1
  8
0
 10
0.830841
 20
-0.901535
 30
0.0
 11
0.837906
 21
-0.9086
 31
0.0
  0
LINE
  5
5D2
  8
0
 10
0.837906
 20
-0.9086
 30
0.0
 11
-0.49144
 21
-2.23796
 31
0.0
  0
LINE
  5
5D3
  8
0
 10
-0.49144
 20
-2.23796
 30
0.0
 11
-0.498505
 21
-2.2309
 31
0.0
  0
ENDSEC
  0
EOF
