  0
SECTION
  2
HEADER
  9
$ACADVER
  1
AC1009
  9
$DWGCODEPAGE
  3
ANSI_1252
  9
$INSBASE
 10
0.0
 20
0.0
 30
0.0
  9
$EXTMIN
 10
1e+20
 20
1e+20
 30
1e+20
  9
$EXTMAX
 10
-1e+20
 20
-1e+20
 30
-1e+20
  9
$LIMMIN
 10
0.0
 20
0.0
  9
$LIMMAX
 10
420.0
 20
297.0
  9
$ORTHOMODE
 70
0
  9
$REGENMODE
 70
1
  9
$FILLMODE
 70
1
  9
$DRAGMODE
 70
2
  9
$QTEXTMODE
 70
0
  9
$MIRRTEXT
 70
1
  9
$OSMODE
 70
20583
  9
$LTSCALE
 40
1.0
  9
$ATTMODE
 70
1
  9
$TEXTSIZE
 40
2.5
  9
$TRACEWID
 40
1.0
  9
$TEXTSTYLE
  7
Standard
  9
$CLAYER
  8
0
  9
$CELTYPE
  6
ByLayer
  9
$CECOLOR
 62
256
  9
$DIMSCALE
 40
1.0
  9
$DIMASZ
 40
2.5
  9
$DIMEXO
 40
0.625
  9
$DIMDLI
 40
3.75
  9
$DIMRND
 40
0.0
  9
$DIMDLE
 40
0.0
  9
$DIMEXE
 40
1.25
  9
$DIMTP
 40
0.0
  9
$DIMTM
 40
0.0
  9
$DIMTXT
 40
2.5
  9
$DIMCEN
 40
2.5
  9
$DIMTSZ
 40
0.0
  9
$DIMTOL
 70
0
  9
$DIMLIM
 70
0
  9
$DIMTIH
 70
0
  9
$DIMTOH
 70
0
  9
$DIMSE1
 70
0
  9
$DIMSE2
 70
0
  9
$DIMTAD
 70
1
  9
$DIMZIN
 70
8
  9
$DIMBLK
  1

  9
$DIMASO
 70
1
  9
$DIMSHO
 70
1
  9
$DIMPOST
  1

  9
$DIMAPOST
  1

  9
$DIMALT
 70
0
  9
$DIMALTD
 70
3
  9
$DIMALTF
 40
0.03937007874
  9
$DIMLFAC
 40
1.0
  9
$DIMTOFL
 70
1
  9
$DIMTVP
 40
0.0
  9
$DIMTIX
 70
0
  9
$DIMSOXD
 70
0
  9
$DIMSAH
 70
0
  9
$DIMBLK1
  1

  9
$DIMBLK2
  1

  9
$DIMSTYLE
  2
ISO-25
  9
$DIMCLRD
 70
0
  9
$DIMCLRE
 70
0
  9
$DIMCLRT
 70
0
  9
$DIMTFAC
 40
1.0
  9
$DIMGAP
 40
0.625
  9
$COORDS
 70
1
  9
$ATTDIA
 70
0
  9
$ATTREQ
 70
1
  9
$HANDLING
 70
1
  9
$LUNITS
 70
2
  9
$LUPREC
 70
4
  9
$SKETCHINC
 40
1.0
  9
$FILLETRAD
 40
10.0
  9
$AUNITS
 70
0
  9
$AUPREC
 70
2
  9
$MENU
  1
.
  9
$ELEVATION
 40
0.0
  9
$PELEVATION
 40
0.0
  9
$THICKNESS
 40
0.0
  9
$LIMCHECK
 70
0
  9
$CHAMFERA
 40
0.0
  9
$CHAMFERB
 40
0.0
  9
$SKPOLY
 70
0
  9
$TDCREATE
 40
2461215.538425926
  9
$TDUPDATE
 40
2461215.538425926
  9
$TDINDWG
 40
0.0
  9
$TDUSRTIMER
 40
0.0
  9
$USRTIMER
 70
1
  9
$ANGBASE
 50
0.0
  9
$ANGDIR
 70
0
  9
$PDMODE
 70
0
  9
$PDSIZE
 40
0.0
  9
$PLINEWID
 40
0.0
  9
$SPLFRAME
 70
0
  9
$SPLINETYPE
 70
6
  9
$SPLINESEGS
 70
8
  9
$HANDSEED
  5
78B
  9
$SURFTAB1
 70
6
  9
$SURFTAB2
 70
6
  9
$SURFTYPE
 70
6
  9
$SURFU
 70
6
  9
$SURFV
 70
6
  9
$UCSNAME
  2

  9
$UCSORG
 10
0.0
 20
0.0
 30
0.0
  9
$UCSXDIR
 10
1.0
 20
0.0
 30
0.0
  9
$UCSYDIR
 10
0.0
 20
1.0
 30
0.0
  9
$PUCSNAME
  2

  9
$PUCSORG
 10
0.0
 20
0.0
 30
0.0
  9
$PUCSXDIR
 10
1.0
 20
0.0
 30
0.0
  9
$PUCSYDIR
 10
0.0
 20
1.0
 30
0.0
  9
$USERI1
 70
0
  9
$USERI2
 70
0
  9
$USERI3
 70
0
  9
$USERI4
 70
0
  9
$USERI5
 70
0
  9
$USERR1
 40
0.0
  9
$USERR2
 40
0.0
  9
$USERR3
 40
0.0
  9
$USERR4
 40
0.0
  9
$USERR5
 40
0.0
  9
$WORLDVIEW
 70
1
  9
$SHADEDGE
 70
3
  9
$SHADEDIF
 70
70
  9
$TILEMODE
 70
1
  9
$MAXACTVP
 70
64
  9
$PLIMCHECK
 70
0
  9
$PEXTMIN
 10
1e+20
 20
1e+20
 30
1e+20
  9
$PEXTMAX
 10
-1e+20
 20
-1e+20
 30
-1e+20
  9
$PLIMMIN
 10
0.0
 20
0.0
  9
$PLIMMAX
 10
420.0
 20
297.0
  9
$UNITMODE
 70
0
  9
$VISRETAIN
 70
1
  9
$PLINEGEN
 70
0
  9
$PSLTSCALE
 70
1
  0
ENDSEC
  0
SECTION
  2
TABLES
  0
TABLE
  2
VPORT
 70
1
  0
VPORT
  5
77F
  2
*Active
 70
0
 10
0.0
 20
0.0
 11
1.0
 21
1.0
 12
0.0
 22
0.0
 13
0.0
 23
0.0
 14
0.5
 24
0.5
 15
0.5
 25
0.5
 16
0.0
 26
0.0
 36
1.0
 17
0.0
 27
0.0
 37
0.0
 40
1000.0
 41
1.34
 42
50.0
 43
0.0
 44
0.0
 50
0.0
 51
0.0
 71
0
 72
1000
 73
1
 74
3
 75
0
 76
0
 77
0
 78
0
  0
ENDTAB
  0
TABLE
  2
LTYPE
 70
3
  0
LTYPE
  5
780
  2
ByBlock
 70
0
  3

 72
65
 73
0
 40
0.0
  0
LTYPE
  5
781
  2
ByLayer
 70
0
  3

 72
65
 73
0
 40
0.0
  0
LTYPE
  5
782
  2
Continuous
 70
0
  3

 72
65
 73
0
 40
0.0
  0
ENDTAB
  0
TABLE
  2
LAYER
 70
2
  0
LAYER
  5
783
  2
0
 70
0
 62
7
  6
Continuous
  0
LAYER
  5
784
  2
Defpoints
 70
0
 62
7
  6
Continuous
  0
ENDTAB
  0
TABLE
  2
STYLE
 70
1
  0
STYLE
  5
785
  2
Standard
 70
0
 40
0.0
 41
1.0
 50
0.0
 71
0
 42
2.5
  3
txt
  4

  0
ENDTAB
  0
TABLE
  2
VIEW
 70
0
  0
ENDTAB
  0
TABLE
  2
UCS
 70
0
  0
ENDTAB
  0
TABLE
  2
APPID
 70
3
  0
APPID
  5
786
  2
ACAD
 70
0
  0
APPID
  5
789
  2
HATCHBACKGROUNDCOLOR
 70
0
  0
APPID
  5
78A
  2
EZDXF
 70
0
  0
ENDTAB
  0
TABLE
  2
DIMSTYLE
 70
1
  0
DIMSTYLE
105
787
  2
Standard
 70
0
  3

  4

  5

  6

  7

 40
1.0
 41
2.5
 42
0.625
 43
3.75
 44
1.25
 45
0.0
 46
0.0
 47
0.0
 48
0.0
140
2.5
141
2.5
142
0.0
143
0.03937007874
144
1.0
145
0.0
146
1.0
147
0.625
 71
0
 72
0
 73
0
 74
0
 75
0
 76
0
 77
1
 78
8
170
0
171
3
172
1
173
0
174
0
175
0
176
0
177
0
178
0
  0
ENDTAB
  0
ENDSEC
  0
SECTION
  2
BLOCKS
  0
BLOCK
  5
760
  8
0
  2
$Model_Space
 70
0
 10
0.0
 20
0.0
 30
0.0
  3
$Model_Space
  1

1001
EZDXF
1000
WRITTEN_BY_EZDXF
1000
1.4.3 @ 2026-06-23T16:55:20.153273+00:00
  0
ENDBLK
  5
761
  8
0
  0
BLOCK
  5
762
  8
0
  2
$Paper_Space
 70
0
 10
0.0
 20
0.0
 30
0.0
  3
$Paper_Space
  1

  0
ENDBLK
  5
763
  8
0
  0
ENDSEC
  0
SECTION
  2
ENTITIES
  0
LINE
  5
100
  8
0
 10
7.17954
 20
-6.69854
 30
0.0
 11
7.38239
 21
-6.42503
 31
0.0
  0
LINE
  5
101
  8
0
 10
7.38239
 20
-6.42503
 30
0.0
 11
7.55745
 21
-6.13295
 31
0.0
  0
LINE
  5
102
  8
0
 10
7.55745
 20
-6.13295
 30
0.0
 11
7.70306
 21
-5.82511
 31
0.0
  0
LINE
  5
103
  8
0
 10
7.70306
 20
-5.82511
 30
0.0
 11
7.81777
 21
-5.50448
 31
0.0
  0
LINE
  5
104
  8
0
 10
7.81777
 20
-5.50448
 30
0.0
 11
7.90052
 21
-5.17416
 31
0.0
  0
LINE
  5
105
  8
0
 10
7.90052
 20
-5.17416
 30
0.0
 11
7.95048
 21
-4.83732
 31
0.0
  0
LINE
  5
106
  8
0
 10
7.95048
 20
-4.83732
 30
0.0
 11
7.9672
 21
-4.4972
 31
0.0
  0
LINE
  5
107
  8
0
 10
7.9672
 20
-4.4972
 30
0.0
 11
7.95048
 21
-4.15708
 31
0.0
  0
LINE
  5
108
  8
0
 10
7.95048
 20
-4.15708
 30
0.0
 11
7.90052
 21
-3.82024
 31
0.0
  0
LINE
  5
109
  8
0
 10
7.90052
 20
-3.82024
 30
0.0
 11
7.81777
 21
-3.48992
 31
0.0
  0
LINE
  5
10A
  8
0
 10
7.81777
 20
-3.48992
 30
0.0
 11
7.70305
 21
-3.16928
 31
0.0
  0
LINE
  5
10B
  8
0
 10
7.70305
 20
-3.16928
 30
0.0
 11
7.55745
 21
-2.86145
 31
0.0
  0
LINE
  5
10C
  8
0
 10
7.55745
 20
-2.86145
 30
0.0
 11
7.38239
 21
-2.56937
 31
0.0
  0
LINE
  5
10D
  8
0
 10
7.38239
 20
-2.56937
 30
0.0
 11
7.17954
 21
-2.29586
 31
0.0
  0
LINE
  5
10E
  8
0
 10
7.17954
 20
-2.29586
 30
0.0
 11
6.95084
 21
-2.04354
 31
0.0
  0
LINE
  5
10F
  8
0
 10
6.95084
 20
-2.04354
 30
0.0
 11
6.69852
 21
-1.81485
 31
0.0
  0
LINE
  5
110
  8
0
 10
6.69852
 20
-1.81485
 30
0.0
 11
6.42502
 21
-1.612
 31
0.0
  0
LINE
  5
111
  8
0
 10
6.42502
 20
-1.612
 30
0.0
 11
6.13293
 21
-1.43694
 31
0.0
  0
LINE
  5
112
  8
0
 10
6.13293
 20
-1.43694
 30
0.0
 11
5.8251
 21
-1.29133
 31
0.0
  0
LINE
  5
113
  8
0
 10
5.8251
 20
-1.29133
 30
0.0
 11
5.50447
 21
-1.17662
 31
0.0
  0
LINE
  5
114
  8
0
 10
5.50447
 20
-1.17662
 30
0.0
 11
5.17415
 21
-1.09387
 31
0.0
  0
LINE
  5
115
  8
0
 10
5.17415
 20
-1.09387
 30
0.0
 11
4.83731
 21
-1.0439
 31
0.0
  0
LINE
  5
116
  8
0
 10
4.83731
 20
-1.0439
 30
0.0
 11
4.49719
 21
-1.02719
 31
0.0
  0
LINE
  5
117
  8
0
 10
4.49719
 20
-1.02719
 30
0.0
 11
4.15707
 21
-1.0439
 31
0.0
  0
LINE
  5
118
  8
0
 10
4.15707
 20
-1.0439
 30
0.0
 11
3.82023
 21
-1.09387
 31
0.0
  0
LINE
  5
119
  8
0
 10
3.82023
 20
-1.09387
 30
0.0
 11
3.4899
 21
-1.17662
 31
0.0
  0
LINE
  5
11A
  8
0
 10
3.4899
 20
-1.17662
 30
0.0
 11
3.16928
 21
-1.29133
 31
0.0
  0
LINE
  5
11B
  8
0
 10
3.16928
 20
-1.29133
 30
0.0
 11
2.86144
 21
-1.43694
 31
0.0
  0
LINE
  5
11C
  8
0
 10
2.86144
 20
-1.43694
 30
0.0
 11
2.56936
 21
-1.612
 31
0.0
  0
LINE
  5
11D
  8
0
 10
2.56936
 20
-1.612
 30
0.0
 11
2.29585
 21
-1.81485
 31
0.0
  0
LINE
  5
11E
  8
0
 10
2.29585
 20
-1.81485
 30
0.0
 11
2.08062
 21
-2.00993
 31
0.0
  0
LINE
  5
11F
  8
0
 10
2.08062
 20
-2.00993
 30
0.0
 11
1.2551
 21
-1.18441
 31
0.0
  0
LINE
  5
120
  8
0
 10
1.2551
 20
-1.18441
 30
0.0
 11
3.59084
 21
1.15134
 31
0.0
  0
LINE
  5
121
  8
0
 10
3.59084
 20
1.15134
 30
0.0
 11
3.82023
 21
1.09387
 31
0.0
  0
LINE
  5
122
  8
0
 10
3.82023
 20
1.09387
 30
0.0
 11
4.15707
 21
1.0439
 31
0.0
  0
LINE
  5
123
  8
0
 10
4.15707
 20
1.0439
 30
0.0
 11
4.49719
 21
1.02719
 31
0.0
  0
LINE
  5
124
  8
0
 10
4.49719
 20
1.02719
 30
0.0
 11
4.83731
 21
1.0439
 31
0.0
  0
LINE
  5
125
  8
0
 10
4.83731
 20
1.0439
 30
0.0
 11
5.17415
 21
1.09387
 31
0.0
  0
LINE
  5
126
  8
0
 10
5.17415
 20
1.09387
 30
0.0
 11
5.50447
 21
1.17662
 31
0.0
  0
LINE
  5
127
  8
0
 10
5.50447
 20
1.17662
 30
0.0
 11
5.8251
 21
1.29133
 31
0.0
  0
LINE
  5
128
  8
0
 10
5.8251
 20
1.29133
 30
0.0
 11
6.13293
 21
1.43694
 31
0.0
  0
LINE
  5
129
  8
0
 10
6.13293
 20
1.43694
 30
0.0
 11
6.42502
 21
1.612
 31
0.0
  0
LINE
  5
12A
  8
0
 10
6.42502
 20
1.612
 30
0.0
 11
6.69852
 21
1.81485
 31
0.0
  0
LINE
  5
12B
  8
0
 10
6.69852
 20
1.81485
 30
0.0
 11
6.95084
 21
2.04354
 31
0.0
  0
LINE
  5
12C
  8
0
 10
6.95084
 20
2.04354
 30
0.0
 11
7.17954
 21
2.29586
 31
0.0
  0
LINE
  5
12D
  8
0
 10
7.17954
 20
2.29586
 30
0.0
 11
7.38239
 21
2.56937
 31
0.0
  0
LINE
  5
12E
  8
0
 10
7.38239
 20
2.56937
 30
0.0
 11
7.55745
 21
2.86145
 31
0.0
  0
LINE
  5
12F
  8
0
 10
7.55745
 20
2.86145
 30
0.0
 11
7.70305
 21
3.16928
 31
0.0
  0
LINE
  5
130
  8
0
 10
7.70305
 20
3.16928
 30
0.0
 11
7.81777
 21
3.48992
 31
0.0
  0
LINE
  5
131
  8
0
 10
7.81777
 20
3.48992
 30
0.0
 11
7.90052
 21
3.82024
 31
0.0
  0
LINE
  5
132
  8
0
 10
7.90052
 20
3.82024
 30
0.0
 11
7.95048
 21
4.15708
 31
0.0
  0
LINE
  5
133
  8
0
 10
7.95048
 20
4.15708
 30
0.0
 11
7.9672
 21
4.4972
 31
0.0
  0
LINE
  5
134
  8
0
 10
7.9672
 20
4.4972
 30
0.0
 11
7.95048
 21
4.83732
 31
0.0
  0
LINE
  5
135
  8
0
 10
7.95048
 20
4.83732
 30
0.0
 11
7.90052
 21
5.17416
 31
0.0
  0
LINE
  5
136
  8
0
 10
7.90052
 20
5.17416
 30
0.0
 11
7.81777
 21
5.50448
 31
0.0
  0
LINE
  5
137
  8
0
 10
7.81777
 20
5.50448
 30
0.0
 11
7.70306
 21
5.82511
 31
0.0
  0
LINE
  5
138
  8
0
 10
7.70306
 20
5.82511
 30
0.0
 11
7.55745
 21
6.13295
 31
0.0
  0
LINE
  5
139
  8
0
 10
7.55745
 20
6.13295
 30
0.0
 11
7.38239
 21
6.42503
 31
0.0
  0
LINE
  5
13A
  8
0
 10
7.38239
 20
6.42503
 30
0.0
 11
7.17954
 21
6.69854
 31
0.0
  0
LINE
  5
13B
  8
0
 10
7.17954
 20
6.69854
 30
0.0
 11
6.95085
 21
6.95085
 31
0.0
  0
LINE
  5
13C
  8
0
 10
6.95085
 20
6.95085
 30
0.0
 11
6.69854
 21
7.17954
 31
0.0
  0
LINE
  5
13D
  8
0
 10
6.69854
 20
7.17954
 30
0.0
 11
6.42503
 21
7.38239
 31
0.0
  0
LINE
  5
13E
  8
0
 10
6.42503
 20
7.38239
 30
0.0
 11
6.13295
 21
7.55745
 31
0.0
  0
LINE
  5
13F
  8
0
 10
6.13295
 20
7.55745
 30
0.0
 11
5.82511
 21
7.70306
 31
0.0
  0
LINE
  5
140
  8
0
 10
5.82511
 20
7.70306
 30
0.0
 11
5.50448
 21
7.81777
 31
0.0
  0
LINE
  5
141
  8
0
 10
5.50448
 20
7.81777
 30
0.0
 11
5.17416
 21
7.90052
 31
0.0
  0
LINE
  5
142
  8
0
 10
5.17416
 20
7.90052
 30
0.0
 11
4.83732
 21
7.95048
 31
0.0
  0
LINE
  5
143
  8
0
 10
4.83732
 20
7.95048
 30
0.0
 11
4.4972
 21
7.9672
 31
0.0
  0
LINE
  5
144
  8
0
 10
4.4972
 20
7.9672
 30
0.0
 11
4.15708
 21
7.95048
 31
0.0
  0
LINE
  5
145
  8
0
 10
4.15708
 20
7.95048
 30
0.0
 11
3.82024
 21
7.90052
 31
0.0
  0
LINE
  5
146
  8
0
 10
3.82024
 20
7.90052
 30
0.0
 11
3.48992
 21
7.81777
 31
0.0
  0
LINE
  5
147
  8
0
 10
3.48992
 20
7.81777
 30
0.0
 11
3.16928
 21
7.70305
 31
0.0
  0
LINE
  5
148
  8
0
 10
3.16928
 20
7.70305
 30
0.0
 11
2.86145
 21
7.55745
 31
0.0
  0
LINE
  5
149
  8
0
 10
2.86145
 20
7.55745
 30
0.0
 11
2.56937
 21
7.38239
 31
0.0
  0
LINE
  5
14A
  8
0
 10
2.56937
 20
7.38239
 30
0.0
 11
2.29586
 21
7.17954
 31
0.0
  0
LINE
  5
14B
  8
0
 10
2.29586
 20
7.17954
 30
0.0
 11
2.04354
 21
6.95084
 31
0.0
  0
LINE
  5
14C
  8
0
 10
2.04354
 20
6.95084
 30
0.0
 11
1.81485
 21
6.69852
 31
0.0
  0
LINE
  5
14D
  8
0
 10
1.81485
 20
6.69852
 30
0.0
 11
1.612
 21
6.42502
 31
0.0
  0
LINE
  5
14E
  8
0
 10
1.612
 20
6.42502
 30
0.0
 11
1.43694
 21
6.13293
 31
0.0
  0
LINE
  5
14F
  8
0
 10
1.43694
 20
6.13293
 30
0.0
 11
1.29133
 21
5.8251
 31
0.0
  0
LINE
  5
150
  8
0
 10
1.29133
 20
5.8251
 30
0.0
 11
1.17662
 21
5.50447
 31
0.0
  0
LINE
  5
151
  8
0
 10
1.17662
 20
5.50447
 30
0.0
 11
1.09387
 21
5.17415
 31
0.0
  0
LINE
  5
152
  8
0
 10
1.09387
 20
5.17415
 30
0.0
 11
1.0439
 21
4.83731
 31
0.0
  0
LINE
  5
153
  8
0
 10
1.0439
 20
4.83731
 30
0.0
 11
1.02719
 21
4.49719
 31
0.0
  0
LINE
  5
154
  8
0
 10
1.02719
 20
4.49719
 30
0.0
 11
1.0439
 21
4.15707
 31
0.0
  0
LINE
  5
155
  8
0
 10
1.0439
 20
4.15707
 30
0.0
 11
1.09387
 21
3.82023
 31
0.0
  0
LINE
  5
156
  8
0
 10
1.09387
 20
3.82023
 30
0.0
 11
1.15134
 21
3.59084
 31
0.0
  0
LINE
  5
157
  8
0
 10
1.15134
 20
3.59084
 30
0.0
 11
-1.18441
 21
1.2551
 31
0.0
  0
LINE
  5
158
  8
0
 10
-1.18441
 20
1.2551
 30
0.0
 11
-2.00993
 21
2.08062
 31
0.0
  0
LINE
  5
159
  8
0
 10
-2.00993
 20
2.08062
 30
0.0
 11
-1.81485
 21
2.29585
 31
0.0
  0
LINE
  5
15A
  8
0
 10
-1.81485
 20
2.29585
 30
0.0
 11
-1.612
 21
2.56936
 31
0.0
  0
LINE
  5
15B
  8
0
 10
-1.612
 20
2.56936
 30
0.0
 11
-1.43694
 21
2.86144
 31
0.0
  0
LINE
  5
15C
  8
0
 10
-1.43694
 20
2.86144
 30
0.0
 11
-1.29133
 21
3.16928
 31
0.0
  0
LINE
  5
15D
  8
0
 10
-1.29133
 20
3.16928
 30
0.0
 11
-1.17662
 21
3.4899
 31
0.0
  0
LINE
  5
15E
  8
0
 10
-1.17662
 20
3.4899
 30
0.0
 11
-1.09387
 21
3.82023
 31
0.0
  0
LINE
  5
15F
  8
0
 10
-1.09387
 20
3.82023
 30
0.0
 11
-1.0439
 21
4.15707
 31
0.0
  0
LINE
  5
160
  8
0
 10
-1.0439
 20
4.15707
 30
0.0
 11
-1.02719
 21
4.49719
 31
0.0
  0
LINE
  5
161
  8
0
 10
-1.02719
 20
4.49719
 30
0.0
 11
-1.0439
 21
4.83731
 31
0.0
  0
LINE
  5
162
  8
0
 10
-1.0439
 20
4.83731
 30
0.0
 11
-1.09387
 21
5.17415
 31
0.0
  0
LINE
  5
163
  8
0
 10
-1.09387
 20
5.17415
 30
0.0
 11
-1.17662
 21
5.50447
 31
0.0
  0
LINE
  5
164
  8
0
 10
-1.17662
 20
5.50447
 30
0.0
 11
-1.29133
 21
5.8251
 31
0.0
  0
LINE
  5
165
  8
0
 10
-1.29133
 20
5.8251
 30
0.0
 11
-1.43694
 21
6.13293
 31
0.0
  0
LINE
  5
166
  8
0
 10
-1.43694
 20
6.13293
 30
0.0
 11
-1.612
 21
6.42502
 31
0.0
  0
LINE
  5
167
  8
0
 10
-1.612
 20
6.42502
 30
0.0
 11
-1.81485
 21
6.69852
 31
0.0
  0
LINE
  5
168
  8
0
 10
-1.81485
 20
6.69852
 30
0.0
 11
-2.04354
 21
6.95084
 31
0.0
  0
LINE
  5
169
  8
0
 10
-2.04354
 20
6.95084
 30
0.0
 11
-2.29586
 21
7.17954
 31
0.0
  0
LINE
  5
16A
  8
0
 10
-2.29586
 20
7.17954
 30
0.0
 11
-2.56937
 21
7.38239
 31
0.0
  0
LINE
  5
16B
  8
0
 10
-2.56937
 20
7.38239
 30
0.0
 11
-2.86145
 21
7.55745
 31
0.0
  0
LINE
  5
16C
  8
0
 10
-2.86145
 20
7.55745
 30
0.0
 11
-3.16928
 21
7.70305
 31
0.0
  0
LINE
  5
16D
  8
0
 10
-3.16928
 20
7.70305
 30
0.0
 11
-3.48992
 21
7.81777
 31
0.0
  0
LINE
  5
16E
  8
0
 10
-3.48992
 20
7.81777
 30
0.0
 11
-3.82024
 21
7.90052
 31
0.0
  0
LINE
  5
16F
  8
0
 10
-3.82024
 20
7.90052
 30
0.0
 11
-4.15708
 21
7.95048
 31
0.0
  0
LINE
  5
170
  8
0
 10
-4.15708
 20
7.95048
 30
0.0
 11
-4.4972
 21
7.9672
 31
0.0
  0
LINE
  5
171
  8
0
 10
-4.4972
 20
7.9672
 30
0.0
 11
-4.83732
 21
7.95048
 31
0.0
  0
LINE
  5
172
  8
0
 10
-4.83732
 20
7.95048
 30
0.0
 11
-5.17416
 21
7.90052
 31
0.0
  0
LINE
  5
173
  8
0
 10
-5.17416
 20
7.90052
 30
0.0
 11
-5.50448
 21
7.81777
 31
0.0
  0
LINE
  5
174
  8
0
 10
-5.50448
 20
7.81777
 30
0.0
 11
-5.82511
 21
7.70306
 31
0.0
  0
LINE
  5
175
  8
0
 10
-5.82511
 20
7.70306
 30
0.0
 11
-6.13295
 21
7.55745
 31
0.0
  0
LINE
  5
176
  8
0
 10
-6.13295
 20
7.55745
 30
0.0
 11
-6.42503
 21
7.38239
 31
0.0
  0
LINE
  5
177
  8
0
 10
-6.42503
 20
7.38239
 30
0.0
 11
-6.69854
 21
7.17954
 31
0.0
  0
LINE
  5
178
  8
0
 10
-6.69854
 20
7.17954
 30
0.0
 11
-6.95085
 21
6.95085
 31
0.0
  0
LINE
  5
179
  8
0
 10
-6.95085
 20
6.95085
 30
0.0
 11
-7.17954
 21
6.69854
 31
0.0
  0
LINE
  5
17A
  8
0
 10
-7.17954
 20
6.69854
 30
0.0
 11
-7.38239
 21
6.42503
 31
0.0
  0
LINE
  5
17B
  8
0
 10
-7.38239
 20
6.42503
 30
0.0
 11
-7.55745
 21
6.13295
 31
0.0
  0
LINE
  5
17C
  8
0
 10
-7.55745
 20
6.13295
 30
0.0
 11
-7.70306
 21
5.82511
 31
0.0
  0
LINE
  5
17D
  8
0
 10
-7.70306
 20
5.82511
 30
0.0
 11
-7.81777
 21
5.50448
 31
0.0
  0
LINE
  5
17E
  8
0
 10
-7.81777
 20
5.50448
 30
0.0
 11
-7.90052
 21
5.17416
 31
0.0
  0
LINE
  5
17F
  8
0
 10
-7.90052
 20
5.17416
 30
0.0
 11
-7.95048
 21
4.83732
 31
0.0
  0
LINE
  5
180
  8
0
 10
-7.95048
 20
4.83732
 30
0.0
 11
-7.9672
 21
4.4972
 31
0.0
  0
LINE
  5
181
  8
0
 10
-7.9672
 20
4.4972
 30
0.0
 11
-7.95048
 21
4.15708
 31
0.0
  0
LINE
  5
182
  8
0
 10
-7.95048
 20
4.15708
 30
0.0
 11
-7.90052
 21
3.82024
 31
0.0
  0
LINE
  5
183
  8
0
 10
-7.90052
 20
3.82024
 30
0.0
 11
-7.81777
 21
3.48992
 31
0.0
  0
LINE
  5
184
  8
0
 10
-7.81777
 20
3.48992
 30
0.0
 11
-7.70305
 21
3.16928
 31
0.0
  0
LINE
  5
185
  8
0
 10
-7.70305
 20
3.16928
 30
0.0
 11
-7.55745
 21
2.86145
 31
0.0
  0
LINE
  5
186
  8
0
 10
-7.55745
 20
2.86145
 30
0.0
 11
-7.38239
 21
2.56937
 31
0.0
  0
LINE
  5
187
  8
0
 10
-7.38239
 20
2.56937
 30
0.0
 11
-7.17954
 21
2.29586
 31
0.0
  0
LINE
  5
188
  8
0
 10
-7.17954
 20
2.29586
 30
0.0
 11
-6.95084
 21
2.04354
 31
0.0
  0
LINE
  5
189
  8
0
 10
-6.95084
 20
2.04354
 30
0.0
 11
-6.69852
 21
1.81485
 31
0.0
  0
LINE
  5
18A
  8
0
 10
-6.69852
 20
1.81485
 30
0.0
 11
-6.42502
 21
1.612
 31
0.0
  0
LINE
  5
18B
  8
0
 10
-6.42502
 20
1.612
 30
0.0
 11
-6.13293
 21
1.43694
 31
0.0
  0
LINE
  5
18C
  8
0
 10
-6.13293
 20
1.43694
 30
0.0
 11
-5.8251
 21
1.29133
 31
0.0
  0
LINE
  5
18D
  8
0
 10
-5.8251
 20
1.29133
 30
0.0
 11
-5.50447
 21
1.17662
 31
0.0
  0
LINE
  5
18E
  8
0
 10
-5.50447
 20
1.17662
 30
0.0
 11
-5.17415
 21
1.09387
 31
0.0
  0
LINE
  5
18F
  8
0
 10
-5.17415
 20
1.09387
 30
0.0
 11
-4.83731
 21
1.0439
 31
0.0
  0
LINE
  5
190
  8
0
 10
-4.83731
 20
1.0439
 30
0.0
 11
-4.49719
 21
1.02719
 31
0.0
  0
LINE
  5
191
  8
0
 10
-4.49719
 20
1.02719
 30
0.0
 11
-4.15707
 21
1.0439
 31
0.0
  0
LINE
  5
192
  8
0
 10
-4.15707
 20
1.0439
 30
0.0
 11
-3.82023
 21
1.09387
 31
0.0
  0
LINE
  5
193
  8
0
 10
-3.82023
 20
1.09387
 30
0.0
 11
-3.4899
 21
1.17662
 31
0.0
  0
LINE
  5
194
  8
0
 10
-3.4899
 20
1.17662
 30
0.0
 11
-3.16928
 21
1.29133
 31
0.0
  0
LINE
  5
195
  8
0
 10
-3.16928
 20
1.29133
 30
0.0
 11
-2.86144
 21
1.43694
 31
0.0
  0
LINE
  5
196
  8
0
 10
-2.86144
 20
1.43694
 30
0.0
 11
-2.56936
 21
1.612
 31
0.0
  0
LINE
  5
197
  8
0
 10
-2.56936
 20
1.612
 30
0.0
 11
-2.29585
 21
1.81485
 31
0.0
  0
LINE
  5
198
  8
0
 10
-2.29585
 20
1.81485
 30
0.0
 11
-2.08062
 21
2.00993
 31
0.0
  0
LINE
  5
199
  8
0
 10
-2.08062
 20
2.00993
 30
0.0
 11
-1.2551
 21
1.18441
 31
0.0
  0
LINE
  5
19A
  8
0
 10
-1.2551
 20
1.18441
 30
0.0
 11
-3.59084
 21
-1.15134
 31
0.0
  0
LINE
  5
19B
  8
0
 10
-3.59084
 20
-1.15134
 30
0.0
 11
-3.82023
 21
-1.09387
 31
0.0
  0
LINE
  5
19C
  8
0
 10
-3.82023
 20
-1.09387
 30
0.0
 11
-4.15707
 21
-1.0439
 31
0.0
  0
LINE
  5
19D
  8
0
 10
-4.15707
 20
-1.0439
 30
0.0
 11
-4.49719
 21
-1.02719
 31
0.0
  0
LINE
  5
19E
  8
0
 10
-4.49719
 20
-1.02719
 30
0.0
 11
-4.83731
 21
-1.0439
 31
0.0
  0
LINE
  5
19F
  8
0
 10
-4.83731
 20
-1.0439
 30
0.0
 11
-5.17415
 21
-1.09387
 31
0.0
  0
LINE
  5
1A0
  8
0
 10
-5.17415
 20
-1.09387
 30
0.0
 11
-5.50447
 21
-1.17662
 31
0.0
  0
LINE
  5
1A1
  8
0
 10
-5.50447
 20
-1.17662
 30
0.0
 11
-5.8251
 21
-1.29133
 31
0.0
  0
LINE
  5
1A2
  8
0
 10
-5.8251
 20
-1.29133
 30
0.0
 11
-6.13293
 21
-1.43694
 31
0.0
  0
LINE
  5
1A3
  8
0
 10
-6.13293
 20
-1.43694
 30
0.0
 11
-6.42502
 21
-1.612
 31
0.0
  0
LINE
  5
1A4
  8
0
 10
-6.42502
 20
-1.612
 30
0.0
 11
-6.69852
 21
-1.81485
 31
0.0
  0
LINE
  5
1A5
  8
0
 10
-6.69852
 20
-1.81485
 30
0.0
 11
-6.95084
 21
-2.04354
 31
0.0
  0
LINE
  5
1A6
  8
0
 10
-6.95084
 20
-2.04354
 30
0.0
 11
-7.17954
 21
-2.29586
 31
0.0
  0
LINE
  5
1A7
  8
0
 10
-7.17954
 20
-2.29586
 30
0.0
 11
-7.38239
 21
-2.56937
 31
0.0
  0
LINE
  5
1A8
  8
0
 10
-7.38239
 20
-2.56937
 30
0.0
 11
-7.55745
 21
-2.86145
 31
0.0
  0
LINE
  5
1A9
  8
0
 10
-7.55745
 20
-2.86145
 30
0.0
 11
-7.70305
 21
-3.16928
 31
0.0
  0
LINE
  5
1AA
  8
0
 10
-7.70305
 20
-3.16928
 30
0.0
 11
-7.81777
 21
-3.48992
 31
0.0
  0
LINE
  5
1AB
  8
0
 10
-7.81777
 20
-3.48992
 30
0.0
 11
-7.90052
 21
-3.82024
 31
0.0
  0
LINE
  5
1AC
  8
0
 10
-7.90052
 20
-3.82024
 30
0.0
 11
-7.95048
 21
-4.15708
 31
0.0
  0
LINE
  5
1AD
  8
0
 10
-7.95048
 20
-4.15708
 30
0.0
 11
-7.9672
 21
-4.4972
 31
0.0
  0
LINE
  5
1AE
  8
0
 10
-7.9672
 20
-4.4972
 30
0.0
 11
-7.95048
 21
-4.83732
 31
0.0
  0
LINE
  5
1AF
  8
0
 10
-7.95048
 20
-4.83732
 30
0.0
 11
-7.90052
 21
-5.17416
 31
0.0
  0
LINE
  5
1B0
  8
0
 10
-7.90052
 20
-5.17416
 30
0.0
 11
-7.81777
 21
-5.50448
 31
0.0
  0
LINE
  5
1B1
  8
0
 10
-7.81777
 20
-5.50448
 30
0.0
 11
-7.70306
 21
-5.82511
 31
0.0
  0
LINE
  5
1B2
  8
0
 10
-7.70306
 20
-5.82511
 30
0.0
 11
-7.55745
 21
-6.13295
 31
0.0
  0
LINE
  5
1B3
  8
0
 10
-7.55745
 20
-6.13295
 30
0.0
 11
-7.38239
 21
-6.42503
 31
0.0
  0
LINE
  5
1B4
  8
0
 10
-7.38239
 20
-6.42503
 30
0.0
 11
-7.17954
 21
-6.69854
 31
0.0
  0
LINE
  5
1B5
  8
0
 10
-7.17954
 20
-6.69854
 30
0.0
 11
-6.95085
 21
-6.95085
 31
0.0
  0
LINE
  5
1B6
  8
0
 10
-6.95085
 20
-6.95085
 30
0.0
 11
-6.69854
 21
-7.17954
 31
0.0
  0
LINE
  5
1B7
  8
0
 10
-6.69854
 20
-7.17954
 30
0.0
 11
-6.42503
 21
-7.38239
 31
0.0
  0
LINE
  5
1B8
  8
0
 10
-6.42503
 20
-7.38239
 30
0.0
 11
-6.13295
 21
-7.55745
 31
0.0
  0
LINE
  5
1B9
  8
0
 10
-6.13295
 20
-7.55745
 30
0.0
 11
-5.82511
 21
-7.70306
 31
0.0
  0
LINE
  5
1BA
  8
0
 10
-5.82511
 20
-7.70306
 30
0.0
 11
-5.50448
 21
-7.81777
 31
0.0
  0
LINE
  5
1BB
  8
0
 10
-5.50448
 20
-7.81777
 30
0.0
 11
-5.17416
 21
-7.90052
 31
0.0
  0
LINE
  5
1BC
  8
0
 10
-5.17416
 20
-7.90052
 30
0.0
 11
-4.83732
 21
-7.95048
 31
0.0
  0
LINE
  5
1BD
  8
0
 10
-4.83732
 20
-7.95048
 30
0.0
 11
-4.4972
 21
-7.9672
 31
0.0
  0
LINE
  5
1BE
  8
0
 10
-4.4972
 20
-7.9672
 30
0.0
 11
-4.15708
 21
-7.95048
 31
0.0
  0
LINE
  5
1BF
  8
0
 10
-4.15708
 20
-7.95048
 30
0.0
 11
-3.82024
 21
-7.90052
 31
0.0
  0
LINE
  5
1C0
  8
0
 10
-3.82024
 20
-7.90052
 30
0.0
 11
-3.48992
 21
-7.81777
 31
0.0
  0
LINE
  5
1C1
  8
0
 10
-3.48992
 20
-7.81777
 30
0.0
 11
-3.16928
 21
-7.70305
 31
0.0
  0
LINE
  5
1C2
  8
0
 10
-3.16928
 20
-7.70305
 30
0.0
 11
-2.86145
 21
-7.55745
 31
0.0
  0
LINE
  5
1C3
  8
0
 10
-2.86145
 20
-7.55745
 30
0.0
 11
-2.56937
 21
-7.38239
 31
0.0
  0
LINE
  5
1C4
  8
0
 10
-2.56937
 20
-7.38239
 30
0.0
 11
-2.29586
 21
-7.17954
 31
0.0
  0
LINE
  5
1C5
  8
0
 10
-2.29586
 20
-7.17954
 30
0.0
 11
-2.04354
 21
-6.95084
 31
0.0
  0
LINE
  5
1C6
  8
0
 10
-2.04354
 20
-6.95084
 30
0.0
 11
-1.81485
 21
-6.69852
 31
0.0
  0
LINE
  5
1C7
  8
0
 10
-1.81485
 20
-6.69852
 30
0.0
 11
-1.612
 21
-6.42502
 31
0.0
  0
LINE
  5
1C8
  8
0
 10
-1.612
 20
-6.42502
 30
0.0
 11
-1.43694
 21
-6.13293
 31
0.0
  0
LINE
  5
1C9
  8
0
 10
-1.43694
 20
-6.13293
 30
0.0
 11
-1.29133
 21
-5.8251
 31
0.0
  0
LINE
  5
1CA
  8
0
 10
-1.29133
 20
-5.8251
 30
0.0
 11
-1.17662
 21
-5.50447
 31
0.0
  0
LINE
  5
1CB
  8
0
 10
-1.17662
 20
-5.50447
 30
0.0
 11
-1.09387
 21
-5.17415
 31
0.0
  0
LINE
  5
1CC
  8
0
 10
-1.09387
 20
-5.17415
 30
0.0
 11
-1.0439
 21
-4.83731
 31
0.0
  0
LINE
  5
1CD
  8
0
 10
-1.0439
 20
-4.83731
 30
0.0
 11
-1.02719
 21
-4.49719
 31
0.0
  0
LINE
  5
1CE
  8
0
 10
-1.02719
 20
-4.49719
 30
0.0
 11
-1.0439
 21
-4.15707
 31
0.0
  0
LINE
  5
1CF
  8
0
 10
-1.0439
 20
-4.15707
 30
0.0
 11
-1.09387
 21
-3.82023
 31
0.0
  0
LINE
  5
1D0
  8
0
 10
-1.09387
 20
-3.82023
 30
0.0
 11
-1.15134
 21
-3.59084
 31
0.0
  0
LINE
  5
1D1
  8
0
 10
-1.15134
 20
-3.59084
 30
0.0
 11
1.18441
 21
-1.2551
 31
0.0
  0
LINE
  5
1D2
  8
0
 10
1.18441
 20
-1.2551
 30
0.0
 11
2.00993
 21
-2.08062
 31
0.0
  0
LINE
  5
1D3
  8
0
 10
2.00993
 20
-2.08062
 30
0.0
 11
1.81485
 21
-2.29585
 31
0.0
  0
LINE
  5
1D4
  8
0
 10
1.81485
 20
-2.29585
 30
0.0
 11
1.612
 21
-2.56936
 31
0.0
  0
LINE
  5
1D5
  8
0
 10
1.612
 20
-2.56936
 30
0.0
 11
1.43694
 21
-2.86144
 31
0.0
  0
LINE
  5
1D6
  8
0
 10
1.43694
 20
-2.86144
 30
0.0
 11
1.29133
 21
-3.16928
 31
0.0
  0
LINE
  5
1D7
  8
0
 10
1.29133
 20
-3.16928
 30
0.0
 11
1.17662
 21
-3.4899
 31
0.0
  0
LINE
  5
1D8
  8
0
 10
1.17662
 20
-3.4899
 30
0.0
 11
1.09387
 21
-3.82023
 31
0.0
  0
LINE
  5
1D9
  8
0
 10
1.09387
 20
-3.82023
 30
0.0
 11
1.0439
 21
-4.15707
 31
0.0
  0
LINE
  5
1DA
  8
0
 10
1.0439
 20
-4.15707
 30
0.0
 11
1.02719
 21
-4.49719
 31
0.0
  0
LINE
  5
1DB
  8
0
 10
1.02719
 20
-4.49719
 30
0.0
 11
1.0439
 21
-4.83731
 31
0.0
  0
LINE
  5
1DC
  8
0
 10
1.0439
 20
-4.83731
 30
0.0
 11
1.09387
 21
-5.17415
 31
0.0
  0
LINE
  5
1DD
  8
0
 10
1.09387
 20
-5.17415
 30
0.0
 11
1.17662
 21
-5.50447
 31
0.0
  0
LINE
  5
1DE
  8
0
 10
1.17662
 20
-5.50447
 30
0.0
 11
1.29133
 21
-5.8251
 31
0.0
  0
LINE
  5
1DF
  8
0
 10
1.29133
 20
-5.8251
 30
0.0
 11
1.43694
 21
-6.13293
 31
0.0
  0
LINE
  5
1E0
  8
0
 10
1.43694
 20
-6.13293
 30
0.0
 11
1.612
 21
-6.42502
 31
0.0
  0
LINE
  5
1E1
  8
0
 10
1.612
 20
-6.42502
 30
0.0
 11
1.81485
 21
-6.69852
 31
0.0
  0
LINE
  5
1E2
  8
0
 10
1.81485
 20
-6.69852
 30
0.0
 11
2.04354
 21
-6.95084
 31
0.0
  0
LINE
  5
1E3
  8
0
 10
2.04354
 20
-6.95084
 30
0.0
 11
2.29586
 21
-7.17954
 31
0.0
  0
LINE
  5
1E4
  8
0
 10
2.29586
 20
-7.17954
 30
0.0
 11
2.56937
 21
-7.38239
 31
0.0
  0
LINE
  5
1E5
  8
0
 10
2.56937
 20
-7.38239
 30
0.0
 11
2.86145
 21
-7.55745
 31
0.0
  0
LINE
  5
1E6
  8
0
 10
2.86145
 20
-7.55745
 30
0.0
 11
3.16928
 21
-7.70305
 31
0.0
  0
LINE
  5
1E7
  8
0
 10
3.16928
 20
-7.70305
 30
0.0
 11
3.48992
 21
-7.81777
 31
0.0
  0
LINE
  5
1E8
  8
0
 10
3.48992
 20
-7.81777
 30
0.0
 11
3.82024
 21
-7.90052
 31
0.0
  0
LINE
  5
1E9
  8
0
 10
3.82024
 20
-7.90052
 30
0.0
 11
4.15708
 21
-7.95048
 31
0.0
  0
LINE
  5
1EA
  8
0
 10
4.15708
 20
-7.95048
 30
0.0
 11
4.4972
 21
-7.9672
 31
0.0
  0
LINE
  5
1EB
  8
0
 10
4.4972
 20
-7.9672
 30
0.0
 11
4.83732
 21
-7.95048
 31
0.0
  0
LINE
  5
1EC
  8
0
 10
4.83732
 20
-7.95048
 30
0.0
 11
5.17416
 21
-7.90052
 31
0.0
  0
LINE
  5
1ED
  8
0
 10
5.17416
 20
-7.90052
 30
0.0
 11
5.50448
 21
-7.81777
 31
0.0
  0
LINE
  5
1EE
  8
0
 10
5.50448
 20
-7.81777
 30
0.0
 11
5.82511
 21
-7.70306
 31
0.0
  0
LINE
  5
1EF
  8
0
 10
5.82511
 20
-7.70306
 30
0.0
 11
6.13295
 21
-7.55745
 31
0.0
  0
LINE
  5
1F0
  8
0
 10
6.13295
 20
-7.55745
 30
0.0
 11
6.42503
 21
-7.38239
 31
0.0
  0
LINE
  5
1F1
  8
0
 10
6.42503
 20
-7.38239
 30
0.0
 11
6.69854
 21
-7.17954
 31
0.0
  0
LINE
  5
1F2
  8
0
 10
6.69854
 20
-7.17954
 30
0.0
 11
6.95085
 21
-6.95085
 31
0.0
  0
LINE
  5
1F3
  8
0
 10
6.95085
 20
-6.95085
 30
0.0
 11
7.17954
 21
-6.69854
 31
0.0
  0
LINE
  5
1F4
  8
0
 10
-2.22737
 20
0.183844
 30
0.0
 11
-2.23445
 21
0.190922
 31
0.0
  0
LINE
  5
1F5
  8
0
 10
-2.23445
 20
0.190922
 30
0.0
 11
-1.24803
 21
1.17734
 31
0.0
  0
LINE
  5
1F6
  8
0
 10
-1.24803
 20
1.17734
 30
0.0
 11
-1.24095
 21
1.17026
 31
0.0
  0
LINE
  5
1F7
  8
0
 10
-1.24095
 20
1.17026
 30
0.0
 11
-2.22737
 21
0.183844
 31
0.0
  0
LINE
  5
1F8
  8
0
 10
-1.17026
 20
1.24095
 30
0.0
 11
-1.17734
 21
1.24803
 31
0.0
  0
LINE
  5
1F9
  8
0
 10
-1.17734
 20
1.24803
 30
0.0
 11
-0.190922
 21
2.23445
 31
0.0
  0
LINE
  5
1FA
  8
0
 10
-0.190922
 20
2.23445
 30
0.0
 11
-0.183844
 21
2.22737
 31
0.0
  0
LINE
  5
1FB
  8
0
 10
-0.183844
 20
2.22737
 30
0.0
 11
-1.17026
 21
1.24095
 31
0.0
  0
LINE
  5
1FC
  8
0
 10
-2.21324
 20
0.16971
 30
0.0
 11
-2.2203
 21
0.176777
 31
0.0
  0
LINE
  5
1FD
  8
0
 10
-2.2203
 20
0.176777
 30
0.0
 11
-1.23389
 21
1.16319
 31
0.0
  0
LINE
  5
1FE
  8
0
 10
-1.23389
 20
1.16319
 30
0.0
 11
-1.22682
 21
1.15613
 31
0.0
  0
LINE
  5
1FF
  8
0
 10
-1.22682
 20
1.15613
 30
0.0
 11
-2.21324
 21
0.16971
 31
0.0
  0
LINE
  5
200
  8
0
 10
-1.15613
 20
1.22682
 30
0.0
 11
-1.16319
 21
1.23389
 31
0.0
  0
LINE
  5
201
  8
0
 10
-1.16319
 20
1.23389
 30
0.0
 11
-0.176777
 21
2.2203
 31
0.0
  0
LINE
  5
202
  8
0
 10
-0.176777
 20
2.2203
 30
0.0
 11
-0.16971
 21
2.21324
 31
0.0
  0
LINE
  5
203
  8
0
 10
-0.16971
 20
2.21324
 30
0.0
 11
-1.15613
 21
1.22682
 31
0.0
  0
LINE
  5
204
  8
0
 10
-2.19909
 20
0.155564
 30
0.0
 11
-2.20616
 21
0.162632
 31
0.0
  0
LINE
  5
205
  8
0
 10
-2.20616
 20
0.162632
 30
0.0
 11
-1.21974
 21
1.14905
 31
0.0
  0
LINE
  5
206
  8
0
 10
-1.21974
 20
1.14905
 30
0.0
 11
-1.21267
 21
1.14198
 31
0.0
  0
LINE
  5
207
  8
0
 10
-1.21267
 20
1.14198
 30
0.0
 11
-2.19909
 21
0.155564
 31
0.0
  0
LINE
  5
208
  8
0
 10
-1.14198
 20
1.21267
 30
0.0
 11
-1.14905
 21
1.21974
 31
0.0
  0
LINE
  5
209
  8
0
 10
-1.14905
 20
1.21974
 30
0.0
 11
-0.162632
 21
2.20616
 31
0.0
  0
LINE
  5
20A
  8
0
 10
-0.162632
 20
2.20616
 30
0.0
 11
-0.155564
 21
2.19909
 31
0.0
  0
LINE
  5
20B
  8
0
 10
-0.155564
 20
2.19909
 30
0.0
 11
-1.14198
 21
1.21267
 31
0.0
  0
LINE
  5
20C
  8
0
 10
-2.18495
 20
0.141419
 30
0.0
 11
-2.19202
 21
0.148497
 31
0.0
  0
LINE
  5
20D
  8
0
 10
-2.19202
 20
0.148497
 30
0.0
 11
-1.20561
 21
1.13491
 31
0.0
  0
LINE
  5
20E
  8
0
 10
-1.20561
 20
1.13491
 30
0.0
 11
-1.19853
 21
1.12784
 31
0.0
  0
LINE
  5
20F
  8
0
 10
-1.19853
 20
1.12784
 30
0.0
 11
-2.18495
 21
0.141419
 31
0.0
  0
LINE
  5
210
  8
0
 10
-1.12784
 20
1.19853
 30
0.0
 11
-1.13491
 21
1.20561
 31
0.0
  0
LINE
  5
211
  8
0
 10
-1.13491
 20
1.20561
 30
0.0
 11
-0.148497
 21
2.19202
 31
0.0
  0
LINE
  5
212
  8
0
 10
-0.148497
 20
2.19202
 30
0.0
 11
-0.141419
 21
2.18495
 31
0.0
  0
LINE
  5
213
  8
0
 10
-0.141419
 20
2.18495
 30
0.0
 11
-1.12784
 21
1.19853
 31
0.0
  0
LINE
  5
214
  8
0
 10
-2.17081
 20
0.127285
 30
0.0
 11
-2.17788
 21
0.134352
 31
0.0
  0
LINE
  5
215
  8
0
 10
-2.17788
 20
0.134352
 30
0.0
 11
-1.19146
 21
1.12077
 31
0.0
  0
LINE
  5
216
  8
0
 10
-1.19146
 20
1.12077
 30
0.0
 11
-1.1844
 21
1.1137
 31
0.0
  0
LINE
  5
217
  8
0
 10
-1.1844
 20
1.1137
 30
0.0
 11
-2.17081
 21
0.127285
 31
0.0
  0
LINE
  5
218
  8
0
 10
-1.1137
 20
1.1844
 30
0.0
 11
-1.12077
 21
1.19146
 31
0.0
  0
LINE
  5
219
  8
0
 10
-1.12077
 20
1.19146
 30
0.0
 11
-0.134352
 21
2.17788
 31
0.0
  0
LINE
  5
21A
  8
0
 10
-0.134352
 20
2.17788
 30
0.0
 11
-0.127285
 21
2.17081
 31
0.0
  0
LINE
  5
21B
  8
0
 10
-0.127285
 20
2.17081
 30
0.0
 11
-1.1137
 21
1.1844
 31
0.0
  0
LINE
  5
21C
  8
0
 10
-2.15667
 20
0.11314
 30
0.0
 11
-2.16373
 21
0.120207
 31
0.0
  0
LINE
  5
21D
  8
0
 10
-2.16373
 20
0.120207
 30
0.0
 11
-1.17732
 21
1.10662
 31
0.0
  0
LINE
  5
21E
  8
0
 10
-1.17732
 20
1.10662
 30
0.0
 11
-1.17025
 21
1.09956
 31
0.0
  0
LINE
  5
21F
  8
0
 10
-1.17025
 20
1.09956
 30
0.0
 11
-2.15667
 21
0.11314
 31
0.0
  0
LINE
  5
220
  8
0
 10
-1.09956
 20
1.17025
 30
0.0
 11
-1.10662
 21
1.17732
 31
0.0
  0
LINE
  5
221
  8
0
 10
-1.10662
 20
1.17732
 30
0.0
 11
-0.120207
 21
2.16373
 31
0.0
  0
LINE
  5
222
  8
0
 10
-0.120207
 20
2.16373
 30
0.0
 11
-0.11314
 21
2.15667
 31
0.0
  0
LINE
  5
223
  8
0
 10
-0.11314
 20
2.15667
 30
0.0
 11
-1.09956
 21
1.17025
 31
0.0
  0
LINE
  5
224
  8
0
 10
-2.14252
 20
0.0989945
 30
0.0
 11
-2.14959
 21
0.106062
 31
0.0
  0
LINE
  5
225
  8
0
 10
-2.14959
 20
0.106062
 30
0.0
 11
-1.16317
 21
1.09248
 31
0.0
  0
LINE
  5
226
  8
0
 10
-1.16317
 20
1.09248
 30
0.0
 11
-1.1561
 21
1.08541
 31
0.0
  0
LINE
  5
227
  8
0
 10
-1.1561
 20
1.08541
 30
0.0
 11
-2.14252
 21
0.0989945
 31
0.0
  0
LINE
  5
228
  8
0
 10
-1.08541
 20
1.1561
 30
0.0
 11
-1.09248
 21
1.16317
 31
0.0
  0
LINE
  5
229
  8
0
 10
-1.09248
 20
1.16317
 30
0.0
 11
-0.106062
 21
2.14959
 31
0.0
  0
LINE
  5
22A
  8
0
 10
-0.106062
 20
2.14959
 30
0.0
 11
-0.0989945
 21
2.14252
 31
0.0
  0
LINE
  5
22B
  8
0
 10
-0.0989945
 20
2.14252
 30
0.0
 11
-1.08541
 21
1.1561
 31
0.0
  0
LINE
  5
22C
  8
0
 10
-2.12838
 20
0.0848494
 30
0.0
 11
-2.13545
 21
0.0919273
 31
0.0
  0
LINE
  5
22D
  8
0
 10
-2.13545
 20
0.0919273
 30
0.0
 11
-1.14904
 21
1.07834
 31
0.0
  0
LINE
  5
22E
  8
0
 10
-1.14904
 20
1.07834
 30
0.0
 11
-1.14196
 21
1.07127
 31
0.0
  0
LINE
  5
22F
  8
0
 10
-1.14196
 20
1.07127
 30
0.0
 11
-2.12838
 21
0.0848494
 31
0.0
  0
LINE
  5
230
  8
0
 10
-1.07127
 20
1.14196
 30
0.0
 11
-1.07834
 21
1.14904
 31
0.0
  0
LINE
  5
231
  8
0
 10
-1.07834
 20
1.14904
 30
0.0
 11
-0.0919273
 21
2.13545
 31
0.0
  0
LINE
  5
232
  8
0
 10
-0.0919273
 20
2.13545
 30
0.0
 11
-0.0848494
 21
2.12838
 31
0.0
  0
LINE
  5
233
  8
0
 10
-0.0848494
 20
2.12838
 30
0.0
 11
-1.07127
 21
1.14196
 31
0.0
  0
LINE
  5
234
  8
0
 10
-2.11424
 20
0.070715
 30
0.0
 11
-2.12131
 21
0.0777822
 31
0.0
  0
LINE
  5
235
  8
0
 10
-2.12131
 20
0.0777822
 30
0.0
 11
-1.13489
 21
1.0642
 31
0.0
  0
LINE
  5
236
  8
0
 10
-1.13489
 20
1.0642
 30
0.0
 11
-1.12783
 21
1.05713
 31
0.0
  0
LINE
  5
237
  8
0
 10
-1.12783
 20
1.05713
 30
0.0
 11
-2.11424
 21
0.070715
 31
0.0
  0
LINE
  5
238
  8
0
 10
-1.05713
 20
1.12783
 30
0.0
 11
-1.0642
 21
1.13489
 31
0.0
  0
LINE
  5
239
  8
0
 10
-1.0642
 20
1.13489
 30
0.0
 11
-0.0777822
 21
2.12131
 31
0.0
  0
LINE
  5
23A
  8
0
 10
-0.0777822
 20
2.12131
 30
0.0
 11
-0.070715
 21
2.11424
 31
0.0
  0
LINE
  5
23B
  8
0
 10
-0.070715
 20
2.11424
 30
0.0
 11
-1.05713
 21
1.12783
 31
0.0
  0
LINE
  5
23C
  8
0
 10
-2.1001
 20
0.0565698
 30
0.0
 11
-2.10716
 21
0.063637
 31
0.0
  0
LINE
  5
23D
  8
0
 10
-2.10716
 20
0.063637
 30
0.0
 11
-1.12075
 21
1.05005
 31
0.0
  0
LINE
  5
23E
  8
0
 10
-1.12075
 20
1.05005
 30
0.0
 11
-1.11368
 21
1.04299
 31
0.0
  0
LINE
  5
23F
  8
0
 10
-1.11368
 20
1.04299
 30
0.0
 11
-2.1001
 21
0.0565698
 31
0.0
  0
LINE
  5
240
  8
0
 10
-1.04299
 20
1.11368
 30
0.0
 11
-1.05005
 21
1.12075
 31
0.0
  0
LINE
  5
241
  8
0
 10
-1.05005
 20
1.12075
 30
0.0
 11
-0.063637
 21
2.10716
 31
0.0
  0
LINE
  5
242
  8
0
 10
-0.063637
 20
2.10716
 30
0.0
 11
-0.0565698
 21
2.1001
 31
0.0
  0
LINE
  5
243
  8
0
 10
-0.0565698
 20
2.1001
 30
0.0
 11
-1.04299
 21
1.11368
 31
0.0
  0
LINE
  5
244
  8
0
 10
-2.08595
 20
0.0424247
 30
0.0
 11
-2.09303
 21
0.0495027
 31
0.0
  0
LINE
  5
245
  8
0
 10
-2.09303
 20
0.0495027
 30
0.0
 11
-1.10661
 21
1.03592
 31
0.0
  0
LINE
  5
246
  8
0
 10
-1.10661
 20
1.03592
 30
0.0
 11
-1.09954
 21
1.02884
 31
0.0
  0
LINE
  5
247
  8
0
 10
-1.09954
 20
1.02884
 30
0.0
 11
-2.08595
 21
0.0424247
 31
0.0
  0
LINE
  5
248
  8
0
 10
-1.02884
 20
1.09954
 30
0.0
 11
-1.03592
 21
1.10661
 31
0.0
  0
LINE
  5
249
  8
0
 10
-1.03592
 20
1.10661
 30
0.0
 11
-0.0495027
 21
2.09303
 31
0.0
  0
LINE
  5
24A
  8
0
 10
-0.0495027
 20
2.09303
 30
0.0
 11
-0.0424247
 21
2.08595
 31
0.0
  0
LINE
  5
24B
  8
0
 10
-0.0424247
 20
2.08595
 30
0.0
 11
-1.02884
 21
1.09954
 31
0.0
  0
LINE
  5
24C
  8
0
 10
-2.07181
 20
0.0282795
 30
0.0
 11
-2.07888
 21
0.0353575
 31
0.0
  0
LINE
  5
24D
  8
0
 10
-2.07888
 20
0.0353575
 30
0.0
 11
-1.09247
 21
1.02177
 31
0.0
  0
LINE
  5
24E
  8
0
 10
-1.09247
 20
1.02177
 30
0.0
 11
-1.08539
 21
1.0147
 31
0.0
  0
LINE
  5
24F
  8
0
 10
-1.08539
 20
1.0147
 30
0.0
 11
-2.07181
 21
0.0282795
 31
0.0
  0
LINE
  5
250
  8
0
 10
-1.0147
 20
1.08539
 30
0.0
 11
-1.02177
 21
1.09247
 31
0.0
  0
LINE
  5
251
  8
0
 10
-1.02177
 20
1.09247
 30
0.0
 11
-0.0353575
 21
2.07888
 31
0.0
  0
LINE
  5
252
  8
0
 10
-0.0353575
 20
2.07888
 30
0.0
 11
-0.0282795
 21
2.07181
 31
0.0
  0
LINE
  5
253
  8
0
 10
-0.0282795
 20
2.07181
 30
0.0
 11
-1.0147
 21
1.08539
 31
0.0
  0
LINE
  5
254
  8
0
 10
-2.05767
 20
0.0141452
 30
0.0
 11
-2.06474
 21
0.0212123
 31
0.0
  0
LINE
  5
255
  8
0
 10
-2.06474
 20
0.0212123
 30
0.0
 11
-1.07832
 21
1.00763
 31
0.0
  0
LINE
  5
256
  8
0
 10
-1.07832
 20
1.00763
 30
0.0
 11
-1.07126
 21
1.00056
 31
0.0
  0
LINE
  5
257
  8
0
 10
-1.07126
 20
1.00056
 30
0.0
 11
-2.05767
 21
0.0141452
 31
0.0
  0
LINE
  5
258
  8
0
 10
-1.00056
 20
1.07126
 30
0.0
 11
-1.00763
 21
1.07832
 31
0.0
  0
LINE
  5
259
  8
0
 10
-1.00763
 20
1.07832
 30
0.0
 11
-0.0212123
 21
2.06474
 31
0.0
  0
LINE
  5
25A
  8
0
 10
-0.0212123
 20
2.06474
 30
0.0
 11
-0.0141452
 21
2.05767
 31
0.0
  0
LINE
  5
25B
  8
0
 10
-0.0141452
 20
2.05767
 30
0.0
 11
-1.00056
 21
1.07126
 31
0.0
  0
LINE
  5
25C
  8
0
 10
-2.04353
 20
0.0
 30
0.0
 11
-2.05059
 21
0.00706718
 31
0.0
  0
LINE
  5
25D
  8
0
 10
-2.05059
 20
0.00706718
 30
0.0
 11
-1.06418
 21
0.993484
 31
0.0
  0
LINE
  5
25E
  8
0
 10
-1.06418
 20
0.993484
 30
0.0
 11
-1.05711
 21
0.986417
 31
0.0
  0
LINE
  5
25F
  8
0
 10
-1.05711
 20
0.986417
 30
0.0
 11
-2.04353
 21
0.0
 31
0.0
  0
LINE
  5
260
  8
0
 10
-0.986417
 20
1.05711
 30
0.0
 11
-0.993484
 21
1.06418
 31
0.0
  0
LINE
  5
261
  8
0
 10
-0.993484
 20
1.06418
 30
0.0
 11
-0.00706718
 21
2.05059
 31
0.0
  0
LINE
  5
262
  8
0
 10
-0.00706718
 20
2.05059
 30
0.0
 11
0.0
 21
2.04353
 31
0.0
  0
LINE
  5
263
  8
0
 10
0.0
 20
2.04353
 30
0.0
 11
-0.986417
 21
1.05711
 31
0.0
  0
LINE
  5
264
  8
0
 10
-2.02938
 20
-0.0141452
 30
0.0
 11
-2.03646
 21
-0.00706718
 31
0.0
  0
LINE
  5
265
  8
0
 10
-2.03646
 20
-0.00706718
 30
0.0
 11
-1.05004
 21
0.97935
 31
0.0
  0
LINE
  5
266
  8
0
 10
-1.05004
 20
0.97935
 30
0.0
 11
-1.04297
 21
0.972272
 31
0.0
  0
LINE
  5
267
  8
0
 10
-1.04297
 20
0.972272
 30
0.0
 11
-2.02938
 21
-0.0141452
 31
0.0
  0
LINE
  5
268
  8
0
 10
-0.972272
 20
1.04297
 30
0.0
 11
-0.97935
 21
1.05004
 31
0.0
  0
LINE
  5
269
  8
0
 10
-0.97935
 20
1.05004
 30
0.0
 11
0.00706718
 21
2.03646
 31
0.0
  0
LINE
  5
26A
  8
0
 10
0.00706718
 20
2.03646
 30
0.0
 11
0.0141452
 21
2.02938
 31
0.0
  0
LINE
  5
26B
  8
0
 10
0.0141452
 20
2.02938
 30
0.0
 11
-0.972272
 21
1.04297
 31
0.0
  0
LINE
  5
26C
  8
0
 10
-2.01525
 20
-0.0282795
 30
0.0
 11
-2.02232
 21
-0.0212123
 31
0.0
  0
LINE
  5
26D
  8
0
 10
-2.02232
 20
-0.0212123
 30
0.0
 11
-1.0359
 21
0.965205
 31
0.0
  0
LINE
  5
26E
  8
0
 10
-1.0359
 20
0.965205
 30
0.0
 11
-1.02883
 21
0.958137
 31
0.0
  0
LINE
  5
26F
  8
0
 10
-1.02883
 20
0.958137
 30
0.0
 11
-2.01525
 21
-0.0282795
 31
0.0
  0
LINE
  5
270
  8
0
 10
-0.958137
 20
1.02883
 30
0.0
 11
-0.965205
 21
1.0359
 31
0.0
  0
LINE
  5
271
  8
0
 10
-0.965205
 20
1.0359
 30
0.0
 11
0.0212123
 21
2.02232
 31
0.0
  0
LINE
  5
272
  8
0
 10
0.0212123
 20
2.02232
 30
0.0
 11
0.0282795
 21
2.01525
 31
0.0
  0
LINE
  5
273
  8
0
 10
0.0282795
 20
2.01525
 30
0.0
 11
-0.958137
 21
1.02883
 31
0.0
  0
LINE
  5
274
  8
0
 10
-2.0011
 20
-0.0424247
 30
0.0
 11
-2.00817
 21
-0.0353575
 31
0.0
  0
LINE
  5
275
  8
0
 10
-2.00817
 20
-0.0353575
 30
0.0
 11
-1.02175
 21
0.951059
 31
0.0
  0
LINE
  5
276
  8
0
 10
-1.02175
 20
0.951059
 30
0.0
 11
-1.01469
 21
0.943992
 31
0.0
  0
LINE
  5
277
  8
0
 10
-1.01469
 20
0.943992
 30
0.0
 11
-2.0011
 21
-0.0424247
 31
0.0
  0
LINE
  5
278
  8
0
 10
-0.943992
 20
1.01469
 30
0.0
 11
-0.951059
 21
1.02175
 31
0.0
  0
LINE
  5
279
  8
0
 10
-0.951059
 20
1.02175
 30
0.0
 11
0.0353575
 21
2.00817
 31
0.0
  0
LINE
  5
27A
  8
0
 10
0.0353575
 20
2.00817
 30
0.0
 11
0.0424247
 21
2.0011
 31
0.0
  0
LINE
  5
27B
  8
0
 10
0.0424247
 20
2.0011
 30
0.0
 11
-0.943992
 21
1.01469
 31
0.0
  0
LINE
  5
27C
  8
0
 10
-1.98696
 20
-0.0565698
 30
0.0
 11
-1.99404
 21
-0.0494919
 31
0.0
  0
LINE
  5
27D
  8
0
 10
-1.99404
 20
-0.0494919
 30
0.0
 11
-1.00762
 21
0.936925
 31
0.0
  0
LINE
  5
27E
  8
0
 10
-1.00762
 20
0.936925
 30
0.0
 11
-1.00054
 21
0.929847
 31
0.0
  0
LINE
  5
27F
  8
0
 10
-1.00054
 20
0.929847
 30
0.0
 11
-1.98696
 21
-0.0565698
 31
0.0
  0
LINE
  5
280
  8
0
 10
-0.929847
 20
1.00054
 30
0.0
 11
-0.936925
 21
1.00762
 31
0.0
  0
LINE
  5
281
  8
0
 10
-0.936925
 20
1.00762
 30
0.0
 11
0.0494919
 21
1.99404
 31
0.0
  0
LINE
  5
282
  8
0
 10
0.0494919
 20
1.99404
 30
0.0
 11
0.0565698
 21
1.98696
 31
0.0
  0
LINE
  5
283
  8
0
 10
0.0565698
 20
1.98696
 30
0.0
 11
-0.929847
 21
1.00054
 31
0.0
  0
LINE
  5
284
  8
0
 10
-1.97281
 20
-0.070715
 30
0.0
 11
-1.97989
 21
-0.063637
 31
0.0
  0
LINE
  5
285
  8
0
 10
-1.97989
 20
-0.063637
 30
0.0
 11
-0.993473
 21
0.92278
 31
0.0
  0
LINE
  5
286
  8
0
 10
-0.993473
 20
0.92278
 30
0.0
 11
-0.986395
 21
0.915702
 31
0.0
  0
LINE
  5
287
  8
0
 10
-0.986395
 20
0.915702
 30
0.0
 11
-1.97281
 21
-0.070715
 31
0.0
  0
LINE
  5
288
  8
0
 10
-0.915702
 20
0.986395
 30
0.0
 11
-0.92278
 21
0.993473
 31
0.0
  0
LINE
  5
289
  8
0
 10
-0.92278
 20
0.993473
 30
0.0
 11
0.063637
 21
1.97989
 31
0.0
  0
LINE
  5
28A
  8
0
 10
0.063637
 20
1.97989
 30
0.0
 11
0.070715
 21
1.97281
 31
0.0
  0
LINE
  5
28B
  8
0
 10
0.070715
 20
1.97281
 30
0.0
 11
-0.915702
 21
0.986395
 31
0.0
  0
LINE
  5
28C
  8
0
 10
-1.95868
 20
-0.0848494
 30
0.0
 11
-1.96575
 21
-0.0777822
 31
0.0
  0
LINE
  5
28D
  8
0
 10
-1.96575
 20
-0.0777822
 30
0.0
 11
-0.979328
 21
0.908635
 31
0.0
  0
LINE
  5
28E
  8
0
 10
-0.979328
 20
0.908635
 30
0.0
 11
-0.972261
 21
0.901568
 31
0.0
  0
LINE
  5
28F
  8
0
 10
-0.972261
 20
0.901568
 30
0.0
 11
-1.95868
 21
-0.0848494
 31
0.0
  0
LINE
  5
290
  8
0
 10
-0.901568
 20
0.972261
 30
0.0
 11
-0.908635
 21
0.979328
 31
0.0
  0
LINE
  5
291
  8
0
 10
-0.908635
 20
0.979328
 30
0.0
 11
0.0777822
 21
1.96575
 31
0.0
  0
LINE
  5
292
  8
0
 10
0.0777822
 20
1.96575
 30
0.0
 11
0.0848494
 21
1.95868
 31
0.0
  0
LINE
  5
293
  8
0
 10
0.0848494
 20
1.95868
 30
0.0
 11
-0.901568
 21
0.972261
 31
0.0
  0
LINE
  5
294
  8
0
 10
-1.94453
 20
-0.0989945
 30
0.0
 11
-1.9516
 21
-0.0919273
 31
0.0
  0
LINE
  5
295
  8
0
 10
-1.9516
 20
-0.0919273
 30
0.0
 11
-0.965183
 21
0.89449
 31
0.0
  0
LINE
  5
296
  8
0
 10
-0.965183
 20
0.89449
 30
0.0
 11
-0.958116
 21
0.887422
 31
0.0
  0
LINE
  5
297
  8
0
 10
-0.958116
 20
0.887422
 30
0.0
 11
-1.94453
 21
-0.0989945
 31
0.0
  0
LINE
  5
298
  8
0
 10
-0.887422
 20
0.958116
 30
0.0
 11
-0.89449
 21
0.965183
 31
0.0
  0
LINE
  5
299
  8
0
 10
-0.89449
 20
0.965183
 30
0.0
 11
0.0919273
 21
1.9516
 31
0.0
  0
LINE
  5
29A
  8
0
 10
0.0919273
 20
1.9516
 30
0.0
 11
0.0989945
 21
1.94453
 31
0.0
  0
LINE
  5
29B
  8
0
 10
0.0989945
 20
1.94453
 30
0.0
 11
-0.887422
 21
0.958116
 31
0.0
  0
LINE
  5
29C
  8
0
 10
-1.93039
 20
-0.11314
 30
0.0
 11
-1.93747
 21
-0.106062
 31
0.0
  0
LINE
  5
29D
  8
0
 10
-1.93747
 20
-0.106062
 30
0.0
 11
-0.951049
 21
0.880355
 31
0.0
  0
LINE
  5
29E
  8
0
 10
-0.951049
 20
0.880355
 30
0.0
 11
-0.943971
 21
0.873277
 31
0.0
  0
LINE
  5
29F
  8
0
 10
-0.943971
 20
0.873277
 30
0.0
 11
-1.93039
 21
-0.11314
 31
0.0
  0
LINE
  5
2A0
  8
0
 10
-0.873277
 20
0.943971
 30
0.0
 11
-0.880355
 21
0.951049
 31
0.0
  0
LINE
  5
2A1
  8
0
 10
-0.880355
 20
0.951049
 30
0.0
 11
0.106062
 21
1.93747
 31
0.0
  0
LINE
  5
2A2
  8
0
 10
0.106062
 20
1.93747
 30
0.0
 11
0.11314
 21
1.93039
 31
0.0
  0
LINE
  5
2A3
  8
0
 10
0.11314
 20
1.93039
 30
0.0
 11
-0.873277
 21
0.943971
 31
0.0
  0
LINE
  5
2A4
  8
0
 10
-1.91625
 20
-0.127274
 30
0.0
 11
-1.92332
 21
-0.120207
 31
0.0
  0
LINE
  5
2A5
  8
0
 10
-1.92332
 20
-0.120207
 30
0.0
 11
-0.936904
 21
0.86621
 31
0.0
  0
LINE
  5
2A6
  8
0
 10
-0.936904
 20
0.86621
 30
0.0
 11
-0.929836
 21
0.859143
 31
0.0
  0
LINE
  5
2A7
  8
0
 10
-0.929836
 20
0.859143
 30
0.0
 11
-1.91625
 21
-0.127274
 31
0.0
  0
LINE
  5
2A8
  8
0
 10
-0.859143
 20
0.929836
 30
0.0
 11
-0.86621
 21
0.936904
 31
0.0
  0
LINE
  5
2A9
  8
0
 10
-0.86621
 20
0.936904
 30
0.0
 11
0.120207
 21
1.92332
 31
0.0
  0
LINE
  5
2AA
  8
0
 10
0.120207
 20
1.92332
 30
0.0
 11
0.127274
 21
1.91625
 31
0.0
  0
LINE
  5
2AB
  8
0
 10
0.127274
 20
1.91625
 30
0.0
 11
-0.859143
 21
0.929836
 31
0.0
  0
LINE
  5
2AC
  8
0
 10
-1.90211
 20
-0.141419
 30
0.0
 11
-1.90918
 21
-0.134352
 31
0.0
  0
LINE
  5
2AD
  8
0
 10
-1.90918
 20
-0.134352
 30
0.0
 11
-0.922758
 21
0.852065
 31
0.0
  0
LINE
  5
2AE
  8
0
 10
-0.922758
 20
0.852065
 30
0.0
 11
-0.915691
 21
0.844998
 31
0.0
  0
LINE
  5
2AF
  8
0
 10
-0.915691
 20
0.844998
 30
0.0
 11
-1.90211
 21
-0.141419
 31
0.0
  0
LINE
  5
2B0
  8
0
 10
-0.844998
 20
0.915691
 30
0.0
 11
-0.852065
 21
0.922758
 31
0.0
  0
LINE
  5
2B1
  8
0
 10
-0.852065
 20
0.922758
 30
0.0
 11
0.134352
 21
1.90918
 31
0.0
  0
LINE
  5
2B2
  8
0
 10
0.134352
 20
1.90918
 30
0.0
 11
0.141419
 21
1.90211
 31
0.0
  0
LINE
  5
2B3
  8
0
 10
0.141419
 20
1.90211
 30
0.0
 11
-0.844998
 21
0.915691
 31
0.0
  0
LINE
  5
2B4
  8
0
 10
-1.88796
 20
-0.155564
 30
0.0
 11
-1.89503
 21
-0.148497
 31
0.0
  0
LINE
  5
2B5
  8
0
 10
-1.89503
 20
-0.148497
 30
0.0
 11
-0.908613
 21
0.83792
 31
0.0
  0
LINE
  5
2B6
  8
0
 10
-0.908613
 20
0.83792
 30
0.0
 11
-0.901546
 21
0.830853
 31
0.0
  0
LINE
  5
2B7
  8
0
 10
-0.901546
 20
0.830853
 30
0.0
 11
-1.88796
 21
-0.155564
 31
0.0
  0
LINE
  5
2B8
  8
0
 10
-0.830853
 20
0.901546
 30
0.0
 11
-0.83792
 21
0.908613
 31
0.0
  0
LINE
  5
2B9
  8
0
 10
-0.83792
 20
0.908613
 30
0.0
 11
0.148497
 21
1.89503
 31
0.0
  0
LINE
  5
2BA
  8
0
 10
0.148497
 20
1.89503
 30
0.0
 11
0.155564
 21
1.88796
 31
0.0
  0
LINE
  5
2BB
  8
0
 10
0.155564
 20
1.88796
 30
0.0
 11
-0.830853
 21
0.901546
 31
0.0
  0
LINE
  5
2BC
  8
0
 10
-1.87382
 20
-0.16971
 30
0.0
 11
-1.8809
 21
-0.162632
 31
0.0
  0
LINE
  5
2BD
  8
0
 10
-1.8809
 20
-0.162632
 30
0.0
 11
-0.894479
 21
0.823785
 31
0.0
  0
LINE
  5
2BE
  8
0
 10
-0.894479
 20
0.823785
 30
0.0
 11
-0.887401
 21
0.816707
 31
0.0
  0
LINE
  5
2BF
  8
0
 10
-0.887401
 20
0.816707
 30
0.0
 11
-1.87382
 21
-0.16971
 31
0.0
  0
LINE
  5
2C0
  8
0
 10
-0.816707
 20
0.887401
 30
0.0
 11
-0.823785
 21
0.894479
 31
0.0
  0
LINE
  5
2C1
  8
0
 10
-0.823785
 20
0.894479
 30
0.0
 11
0.162632
 21
1.8809
 31
0.0
  0
LINE
  5
2C2
  8
0
 10
0.162632
 20
1.8809
 30
0.0
 11
0.16971
 21
1.87382
 31
0.0
  0
LINE
  5
2C3
  8
0
 10
0.16971
 20
1.87382
 30
0.0
 11
-0.816707
 21
0.887401
 31
0.0
  0
LINE
  5
2C4
  8
0
 10
-1.85968
 20
-0.183844
 30
0.0
 11
-1.86675
 21
-0.176777
 31
0.0
  0
LINE
  5
2C5
  8
0
 10
-1.86675
 20
-0.176777
 30
0.0
 11
-0.880334
 21
0.80964
 31
0.0
  0
LINE
  5
2C6
  8
0
 10
-0.880334
 20
0.80964
 30
0.0
 11
-0.873267
 21
0.802573
 31
0.0
  0
LINE
  5
2C7
  8
0
 10
-0.873267
 20
0.802573
 30
0.0
 11
-1.85968
 21
-0.183844
 31
0.0
  0
LINE
  5
2C8
  8
0
 10
-0.802573
 20
0.873267
 30
0.0
 11
-0.80964
 21
0.880334
 31
0.0
  0
LINE
  5
2C9
  8
0
 10
-0.80964
 20
0.880334
 30
0.0
 11
0.176777
 21
1.86675
 31
0.0
  0
LINE
  5
2CA
  8
0
 10
0.176777
 20
1.86675
 30
0.0
 11
0.183844
 21
1.85968
 31
0.0
  0
LINE
  5
2CB
  8
0
 10
0.183844
 20
1.85968
 30
0.0
 11
-0.802573
 21
0.873267
 31
0.0
  0
LINE
  5
2CC
  8
0
 10
-1.84554
 20
-0.197989
 30
0.0
 11
-1.85261
 21
-0.190922
 31
0.0
  0
LINE
  5
2CD
  8
0
 10
-1.85261
 20
-0.190922
 30
0.0
 11
-0.866189
 21
0.795495
 31
0.0
  0
LINE
  5
2CE
  8
0
 10
-0.866189
 20
0.795495
 30
0.0
 11
-0.859121
 21
0.788428
 31
0.0
  0
LINE
  5
2CF
  8
0
 10
-0.859121
 20
0.788428
 30
0.0
 11
-1.84554
 21
-0.197989
 31
0.0
  0
LINE
  5
2D0
  8
0
 10
-0.788428
 20
0.859121
 30
0.0
 11
-0.795495
 21
0.866189
 31
0.0
  0
LINE
  5
2D1
  8
0
 10
-0.795495
 20
0.866189
 30
0.0
 11
0.190922
 21
1.85261
 31
0.0
  0
LINE
  5
2D2
  8
0
 10
0.190922
 20
1.85261
 30
0.0
 11
0.197989
 21
1.84554
 31
0.0
  0
LINE
  5
2D3
  8
0
 10
0.197989
 20
1.84554
 30
0.0
 11
-0.788428
 21
0.859121
 31
0.0
  0
LINE
  5
2D4
  8
0
 10
-1.83139
 20
-0.212134
 30
0.0
 11
-1.83847
 21
-0.205056
 31
0.0
  0
LINE
  5
2D5
  8
0
 10
-1.83847
 20
-0.205056
 30
0.0
 11
-0.852054
 21
0.781361
 31
0.0
  0
LINE
  5
2D6
  8
0
 10
-0.852054
 20
0.781361
 30
0.0
 11
-0.844976
 21
0.774283
 31
0.0
  0
LINE
  5
2D7
  8
0
 10
-0.844976
 20
0.774283
 30
0.0
 11
-1.83139
 21
-0.212134
 31
0.0
  0
LINE
  5
2D8
  8
0
 10
-0.774283
 20
0.844976
 30
0.0
 11
-0.781361
 21
0.852054
 31
0.0
  0
LINE
  5
2D9
  8
0
 10
-0.781361
 20
0.852054
 30
0.0
 11
0.205056
 21
1.83847
 31
0.0
  0
LINE
  5
2DA
  8
0
 10
0.205056
 20
1.83847
 30
0.0
 11
0.212134
 21
1.83139
 31
0.0
  0
LINE
  5
2DB
  8
0
 10
0.212134
 20
1.83139
 30
0.0
 11
-0.774283
 21
0.844976
 31
0.0
  0
LINE
  5
2DC
  8
0
 10
-1.81726
 20
-0.226269
 30
0.0
 11
-1.82433
 21
-0.219201
 31
0.0
  0
LINE
  5
2DD
  8
0
 10
-1.82433
 20
-0.219201
 30
0.0
 11
-0.837909
 21
0.767216
 31
0.0
  0
LINE
  5
2DE
  8
0
 10
-0.837909
 20
0.767216
 30
0.0
 11
-0.830842
 21
0.760148
 31
0.0
  0
LINE
  5
2DF
  8
0
 10
-0.830842
 20
0.760148
 30
0.0
 11
-1.81726
 21
-0.226269
 31
0.0
  0
LINE
  5
2E0
  8
0
 10
-0.760148
 20
0.830842
 30
0.0
 11
-0.767216
 21
0.837909
 31
0.0
  0
LINE
  5
2E1
  8
0
 10
-0.767216
 20
0.837909
 30
0.0
 11
0.219201
 21
1.82433
 31
0.0
  0
LINE
  5
2E2
  8
0
 10
0.219201
 20
1.82433
 30
0.0
 11
0.226269
 21
1.81726
 31
0.0
  0
LINE
  5
2E3
  8
0
 10
0.226269
 20
1.81726
 30
0.0
 11
-0.760148
 21
0.830842
 31
0.0
  0
LINE
  5
2E4
  8
0
 10
-1.80311
 20
-0.240414
 30
0.0
 11
-1.81018
 21
-0.233347
 31
0.0
  0
LINE
  5
2E5
  8
0
 10
-1.81018
 20
-0.233347
 30
0.0
 11
-0.823764
 21
0.75307
 31
0.0
  0
LINE
  5
2E6
  8
0
 10
-0.823764
 20
0.75307
 30
0.0
 11
-0.816697
 21
0.746003
 31
0.0
  0
LINE
  5
2E7
  8
0
 10
-0.816697
 20
0.746003
 30
0.0
 11
-1.80311
 21
-0.240414
 31
0.0
  0
LINE
  5
2E8
  8
0
 10
-0.746003
 20
0.816697
 30
0.0
 11
-0.75307
 21
0.823764
 31
0.0
  0
LINE
  5
2E9
  8
0
 10
-0.75307
 20
0.823764
 30
0.0
 11
0.233347
 21
1.81018
 31
0.0
  0
LINE
  5
2EA
  8
0
 10
0.233347
 20
1.81018
 30
0.0
 11
0.240414
 21
1.80311
 31
0.0
  0
LINE
  5
2EB
  8
0
 10
0.240414
 20
1.80311
 30
0.0
 11
-0.746003
 21
0.816697
 31
0.0
  0
LINE
  5
2EC
  8
0
 10
-1.78897
 20
-0.254559
 30
0.0
 11
-1.79604
 21
-0.247492
 31
0.0
  0
LINE
  5
2ED
  8
0
 10
-1.79604
 20
-0.247492
 30
0.0
 11
-0.809619
 21
0.738925
 31
0.0
  0
LINE
  5
2EE
  8
0
 10
-0.809619
 20
0.738925
 30
0.0
 11
-0.802552
 21
0.731858
 31
0.0
  0
LINE
  5
2EF
  8
0
 10
-0.802552
 20
0.731858
 30
0.0
 11
-1.78897
 21
-0.254559
 31
0.0
  0
LINE
  5
2F0
  8
0
 10
-0.731858
 20
0.802552
 30
0.0
 11
-0.738925
 21
0.809619
 31
0.0
  0
LINE
  5
2F1
  8
0
 10
-0.738925
 20
0.809619
 30
0.0
 11
0.247492
 21
1.79604
 31
0.0
  0
LINE
  5
2F2
  8
0
 10
0.247492
 20
1.79604
 30
0.0
 11
0.254559
 21
1.78897
 31
0.0
  0
LINE
  5
2F3
  8
0
 10
0.254559
 20
1.78897
 30
0.0
 11
-0.731858
 21
0.802552
 31
0.0
  0
LINE
  5
2F4
  8
0
 10
-1.77482
 20
-0.268704
 30
0.0
 11
-1.7819
 21
-0.261626
 31
0.0
  0
LINE
  5
2F5
  8
0
 10
-1.7819
 20
-0.261626
 30
0.0
 11
-0.795484
 21
0.724791
 31
0.0
  0
LINE
  5
2F6
  8
0
 10
-0.795484
 20
0.724791
 30
0.0
 11
-0.788406
 21
0.717713
 31
0.0
  0
LINE
  5
2F7
  8
0
 10
-0.788406
 20
0.717713
 30
0.0
 11
-1.77482
 21
-0.268704
 31
0.0
  0
LINE
  5
2F8
  8
0
 10
-0.717713
 20
0.788406
 30
0.0
 11
-0.724791
 21
0.795484
 31
0.0
  0
LINE
  5
2F9
  8
0
 10
-0.724791
 20
0.795484
 30
0.0
 11
0.261626
 21
1.7819
 31
0.0
  0
LINE
  5
2FA
  8
0
 10
0.261626
 20
1.7819
 30
0.0
 11
0.268704
 21
1.77482
 31
0.0
  0
LINE
  5
2FB
  8
0
 10
0.268704
 20
1.77482
 30
0.0
 11
-0.717713
 21
0.788406
 31
0.0
  0
LINE
  5
2FC
  8
0
 10
-1.76069
 20
-0.282838
 30
0.0
 11
-1.76776
 21
-0.275771
 31
0.0
  0
LINE
  5
2FD
  8
0
 10
-1.76776
 20
-0.275771
 30
0.0
 11
-0.781339
 21
0.710646
 31
0.0
  0
LINE
  5
2FE
  8
0
 10
-0.781339
 20
0.710646
 30
0.0
 11
-0.774272
 21
0.703579
 31
0.0
  0
LINE
  5
2FF
  8
0
 10
-0.774272
 20
0.703579
 30
0.0
 11
-1.76069
 21
-0.282838
 31
0.0
  0
LINE
  5
300
  8
0
 10
-0.703579
 20
0.774272
 30
0.0
 11
-0.710646
 21
0.781339
 31
0.0
  0
LINE
  5
301
  8
0
 10
-0.710646
 20
0.781339
 30
0.0
 11
0.275771
 21
1.76776
 31
0.0
  0
LINE
  5
302
  8
0
 10
0.275771
 20
1.76776
 30
0.0
 11
0.282838
 21
1.76069
 31
0.0
  0
LINE
  5
303
  8
0
 10
0.282838
 20
1.76069
 30
0.0
 11
-0.703579
 21
0.774272
 31
0.0
  0
LINE
  5
304
  8
0
 10
-1.74654
 20
-0.296984
 30
0.0
 11
-1.75361
 21
-0.289916
 31
0.0
  0
LINE
  5
305
  8
0
 10
-1.75361
 20
-0.289916
 30
0.0
 11
-0.767194
 21
0.696501
 31
0.0
  0
LINE
  5
306
  8
0
 10
-0.767194
 20
0.696501
 30
0.0
 11
-0.760127
 21
0.689433
 31
0.0
  0
LINE
  5
307
  8
0
 10
-0.760127
 20
0.689433
 30
0.0
 11
-1.74654
 21
-0.296984
 31
0.0
  0
LINE
  5
308
  8
0
 10
-0.689433
 20
0.760127
 30
0.0
 11
-0.696501
 21
0.767194
 31
0.0
  0
LINE
  5
309
  8
0
 10
-0.696501
 20
0.767194
 30
0.0
 11
0.289916
 21
1.75361
 31
0.0
  0
LINE
  5
30A
  8
0
 10
0.289916
 20
1.75361
 30
0.0
 11
0.296984
 21
1.74654
 31
0.0
  0
LINE
  5
30B
  8
0
 10
0.296984
 20
1.74654
 30
0.0
 11
-0.689433
 21
0.760127
 31
0.0
  0
LINE
  5
30C
  8
0
 10
-1.7324
 20
-0.311129
 30
0.0
 11
-1.73948
 21
-0.304051
 31
0.0
  0
LINE
  5
30D
  8
0
 10
-1.73948
 20
-0.304051
 30
0.0
 11
-0.75306
 21
0.682366
 31
0.0
  0
LINE
  5
30E
  8
0
 10
-0.75306
 20
0.682366
 30
0.0
 11
-0.745982
 21
0.675288
 31
0.0
  0
LINE
  5
30F
  8
0
 10
-0.745982
 20
0.675288
 30
0.0
 11
-1.7324
 21
-0.311129
 31
0.0
  0
LINE
  5
310
  8
0
 10
-0.675288
 20
0.745982
 30
0.0
 11
-0.682366
 21
0.75306
 31
0.0
  0
LINE
  5
311
  8
0
 10
-0.682366
 20
0.75306
 30
0.0
 11
0.304051
 21
1.73948
 31
0.0
  0
LINE
  5
312
  8
0
 10
0.304051
 20
1.73948
 30
0.0
 11
0.311129
 21
1.7324
 31
0.0
  0
LINE
  5
313
  8
0
 10
0.311129
 20
1.7324
 30
0.0
 11
-0.675288
 21
0.745982
 31
0.0
  0
LINE
  5
314
  8
0
 10
-1.71825
 20
-0.325274
 30
0.0
 11
-1.72533
 21
-0.318196
 31
0.0
  0
LINE
  5
315
  8
0
 10
-1.72533
 20
-0.318196
 30
0.0
 11
-0.738915
 21
0.668221
 31
0.0
  0
LINE
  5
316
  8
0
 10
-0.738915
 20
0.668221
 30
0.0
 11
-0.731837
 21
0.661143
 31
0.0
  0
LINE
  5
317
  8
0
 10
-0.731837
 20
0.661143
 30
0.0
 11
-1.71825
 21
-0.325274
 31
0.0
  0
LINE
  5
318
  8
0
 10
-0.661143
 20
0.731837
 30
0.0
 11
-0.668221
 21
0.738915
 31
0.0
  0
LINE
  5
319
  8
0
 10
-0.668221
 20
0.738915
 30
0.0
 11
0.318196
 21
1.72533
 31
0.0
  0
LINE
  5
31A
  8
0
 10
0.318196
 20
1.72533
 30
0.0
 11
0.325274
 21
1.71825
 31
0.0
  0
LINE
  5
31B
  8
0
 10
0.325274
 20
1.71825
 30
0.0
 11
-0.661143
 21
0.731837
 31
0.0
  0
LINE
  5
31C
  8
0
 10
-1.70412
 20
-0.339408
 30
0.0
 11
-1.71119
 21
-0.332341
 31
0.0
  0
LINE
  5
31D
  8
0
 10
-1.71119
 20
-0.332341
 30
0.0
 11
-0.724769
 21
0.654076
 31
0.0
  0
LINE
  5
31E
  8
0
 10
-0.724769
 20
0.654076
 30
0.0
 11
-0.717702
 21
0.647009
 31
0.0
  0
LINE
  5
31F
  8
0
 10
-0.717702
 20
0.647009
 30
0.0
 11
-1.70412
 21
-0.339408
 31
0.0
  0
LINE
  5
320
  8
0
 10
-0.647009
 20
0.717702
 30
0.0
 11
-0.654076
 21
0.724769
 31
0.0
  0
LINE
  5
321
  8
0
 10
-0.654076
 20
0.724769
 30
0.0
 11
0.332341
 21
1.71119
 31
0.0
  0
LINE
  5
322
  8
0
 10
0.332341
 20
1.71119
 30
0.0
 11
0.339408
 21
1.70412
 31
0.0
  0
LINE
  5
323
  8
0
 10
0.339408
 20
1.70412
 30
0.0
 11
-0.647009
 21
0.717702
 31
0.0
  0
LINE
  5
324
  8
0
 10
-1.68997
 20
-0.353553
 30
0.0
 11
-1.69704
 21
-0.346486
 31
0.0
  0
LINE
  5
325
  8
0
 10
-1.69704
 20
-0.346486
 30
0.0
 11
-0.710624
 21
0.639931
 31
0.0
  0
LINE
  5
326
  8
0
 10
-0.710624
 20
0.639931
 30
0.0
 11
-0.703557
 21
0.632864
 31
0.0
  0
LINE
  5
327
  8
0
 10
-0.703557
 20
0.632864
 30
0.0
 11
-1.68997
 21
-0.353553
 31
0.0
  0
LINE
  5
328
  8
0
 10
-0.632864
 20
0.703557
 30
0.0
 11
-0.639931
 21
0.710624
 31
0.0
  0
LINE
  5
329
  8
0
 10
-0.639931
 20
0.710624
 30
0.0
 11
0.346486
 21
1.69704
 31
0.0
  0
LINE
  5
32A
  8
0
 10
0.346486
 20
1.69704
 30
0.0
 11
0.353553
 21
1.68997
 31
0.0
  0
LINE
  5
32B
  8
0
 10
0.353553
 20
1.68997
 30
0.0
 11
-0.632864
 21
0.703557
 31
0.0
  0
LINE
  5
32C
  8
0
 10
-1.67583
 20
-0.367699
 30
0.0
 11
-1.68291
 21
-0.360621
 31
0.0
  0
LINE
  5
32D
  8
0
 10
-1.68291
 20
-0.360621
 30
0.0
 11
-0.69649
 21
0.625796
 31
0.0
  0
LINE
  5
32E
  8
0
 10
-0.69649
 20
0.625796
 30
0.0
 11
-0.689412
 21
0.618718
 31
0.0
  0
LINE
  5
32F
  8
0
 10
-0.689412
 20
0.618718
 30
0.0
 11
-1.67583
 21
-0.367699
 31
0.0
  0
LINE
  5
330
  8
0
 10
-0.618718
 20
0.689412
 30
0.0
 11
-0.625796
 21
0.69649
 31
0.0
  0
LINE
  5
331
  8
0
 10
-0.625796
 20
0.69649
 30
0.0
 11
0.360621
 21
1.68291
 31
0.0
  0
LINE
  5
332
  8
0
 10
0.360621
 20
1.68291
 30
0.0
 11
0.367699
 21
1.67583
 31
0.0
  0
LINE
  5
333
  8
0
 10
0.367699
 20
1.67583
 30
0.0
 11
-0.618718
 21
0.689412
 31
0.0
  0
LINE
  5
334
  8
0
 10
-1.66169
 20
-0.381833
 30
0.0
 11
-1.66876
 21
-0.374766
 31
0.0
  0
LINE
  5
335
  8
0
 10
-1.66876
 20
-0.374766
 30
0.0
 11
-0.682345
 21
0.611651
 31
0.0
  0
LINE
  5
336
  8
0
 10
-0.682345
 20
0.611651
 30
0.0
 11
-0.675277
 21
0.604584
 31
0.0
  0
LINE
  5
337
  8
0
 10
-0.675277
 20
0.604584
 30
0.0
 11
-1.66169
 21
-0.381833
 31
0.0
  0
LINE
  5
338
  8
0
 10
-0.604584
 20
0.675277
 30
0.0
 11
-0.611651
 21
0.682345
 31
0.0
  0
LINE
  5
339
  8
0
 10
-0.611651
 20
0.682345
 30
0.0
 11
0.374766
 21
1.66876
 31
0.0
  0
LINE
  5
33A
  8
0
 10
0.374766
 20
1.66876
 30
0.0
 11
0.381833
 21
1.66169
 31
0.0
  0
LINE
  5
33B
  8
0
 10
0.381833
 20
1.66169
 30
0.0
 11
-0.604584
 21
0.675277
 31
0.0
  0
LINE
  5
33C
  8
0
 10
-1.64755
 20
-0.395978
 30
0.0
 11
-1.65462
 21
-0.388911
 31
0.0
  0
LINE
  5
33D
  8
0
 10
-1.65462
 20
-0.388911
 30
0.0
 11
-0.6682
 21
0.597506
 31
0.0
  0
LINE
  5
33E
  8
0
 10
-0.6682
 20
0.597506
 30
0.0
 11
-0.661132
 21
0.590439
 31
0.0
  0
LINE
  5
33F
  8
0
 10
-0.661132
 20
0.590439
 30
0.0
 11
-1.64755
 21
-0.395978
 31
0.0
  0
LINE
  5
340
  8
0
 10
-0.590439
 20
0.661132
 30
0.0
 11
-0.597506
 21
0.6682
 31
0.0
  0
LINE
  5
341
  8
0
 10
-0.597506
 20
0.6682
 30
0.0
 11
0.388911
 21
1.65462
 31
0.0
  0
LINE
  5
342
  8
0
 10
0.388911
 20
1.65462
 30
0.0
 11
0.395978
 21
1.64755
 31
0.0
  0
LINE
  5
343
  8
0
 10
0.395978
 20
1.64755
 30
0.0
 11
-0.590439
 21
0.661132
 31
0.0
  0
LINE
  5
344
  8
0
 10
-1.6334
 20
-0.410123
 30
0.0
 11
-1.64048
 21
-0.403045
 31
0.0
  0
LINE
  5
345
  8
0
 10
-1.64048
 20
-0.403045
 30
0.0
 11
-0.654065
 21
0.583372
 31
0.0
  0
LINE
  5
346
  8
0
 10
-0.654065
 20
0.583372
 30
0.0
 11
-0.646987
 21
0.576294
 31
0.0
  0
LINE
  5
347
  8
0
 10
-0.646987
 20
0.576294
 30
0.0
 11
-1.6334
 21
-0.410123
 31
0.0
  0
LINE
  5
348
  8
0
 10
-0.576294
 20
0.646987
 30
0.0
 11
-0.583372
 21
0.654065
 31
0.0
  0
LINE
  5
349
  8
0
 10
-0.583372
 20
0.654065
 30
0.0
 11
0.403045
 21
1.64048
 31
0.0
  0
LINE
  5
34A
  8
0
 10
0.403045
 20
1.64048
 30
0.0
 11
0.410123
 21
1.6334
 31
0.0
  0
LINE
  5
34B
  8
0
 10
0.410123
 20
1.6334
 30
0.0
 11
-0.576294
 21
0.646987
 31
0.0
  0
LINE
  5
34C
  8
0
 10
-1.61926
 20
-0.424268
 30
0.0
 11
-1.62634
 21
-0.41719
 31
0.0
  0
LINE
  5
34D
  8
0
 10
-1.62634
 20
-0.41719
 30
0.0
 11
-0.63992
 21
0.569227
 31
0.0
  0
LINE
  5
34E
  8
0
 10
-0.63992
 20
0.569227
 30
0.0
 11
-0.632842
 21
0.562149
 31
0.0
  0
LINE
  5
34F
  8
0
 10
-0.632842
 20
0.562149
 30
0.0
 11
-1.61926
 21
-0.424268
 31
0.0
  0
LINE
  5
350
  8
0
 10
-0.562149
 20
0.632842
 30
0.0
 11
-0.569227
 21
0.63992
 31
0.0
  0
LINE
  5
351
  8
0
 10
-0.569227
 20
0.63992
 30
0.0
 11
0.41719
 21
1.62634
 31
0.0
  0
LINE
  5
352
  8
0
 10
0.41719
 20
1.62634
 30
0.0
 11
0.424268
 21
1.61926
 31
0.0
  0
LINE
  5
353
  8
0
 10
0.424268
 20
1.61926
 30
0.0
 11
-0.562149
 21
0.632842
 31
0.0
  0
LINE
  5
354
  8
0
 10
-1.60512
 20
-0.438403
 30
0.0
 11
-1.61219
 21
-0.431336
 31
0.0
  0
LINE
  5
355
  8
0
 10
-1.61219
 20
-0.431336
 30
0.0
 11
-0.625775
 21
0.555081
 31
0.0
  0
LINE
  5
356
  8
0
 10
-0.625775
 20
0.555081
 30
0.0
 11
-0.618708
 21
0.548014
 31
0.0
  0
LINE
  5
357
  8
0
 10
-0.618708
 20
0.548014
 30
0.0
 11
-1.60512
 21
-0.438403
 31
0.0
  0
LINE
  5
358
  8
0
 10
-0.548014
 20
0.618708
 30
0.0
 11
-0.555081
 21
0.625775
 31
0.0
  0
LINE
  5
359
  8
0
 10
-0.555081
 20
0.625775
 30
0.0
 11
0.431336
 21
1.61219
 31
0.0
  0
LINE
  5
35A
  8
0
 10
0.431336
 20
1.61219
 30
0.0
 11
0.438403
 21
1.60512
 31
0.0
  0
LINE
  5
35B
  8
0
 10
0.438403
 20
1.60512
 30
0.0
 11
-0.548014
 21
0.618708
 31
0.0
  0
LINE
  5
35C
  8
0
 10
-1.59098
 20
-0.452548
 30
0.0
 11
-1.59805
 21
-0.445481
 31
0.0
  0
LINE
  5
35D
  8
0
 10
-1.59805
 20
-0.445481
 30
0.0
 11
-0.61163
 21
0.540936
 31
0.0
  0
LINE
  5
35E
  8
0
 10
-0.61163
 20
0.540936
 30
0.0
 11
-0.604562
 21
0.533869
 31
0.0
  0
LINE
  5
35F
  8
0
 10
-0.604562
 20
0.533869
 30
0.0
 11
-1.59098
 21
-0.452548
 31
0.0
  0
LINE
  5
360
  8
0
 10
-0.533869
 20
0.604562
 30
0.0
 11
-0.540936
 21
0.61163
 31
0.0
  0
LINE
  5
361
  8
0
 10
-0.540936
 20
0.61163
 30
0.0
 11
0.445481
 21
1.59805
 31
0.0
  0
LINE
  5
362
  8
0
 10
0.445481
 20
1.59805
 30
0.0
 11
0.452548
 21
1.59098
 31
0.0
  0
LINE
  5
363
  8
0
 10
0.452548
 20
1.59098
 30
0.0
 11
-0.533869
 21
0.604562
 31
0.0
  0
LINE
  5
364
  8
0
 10
-1.57683
 20
-0.466693
 30
0.0
 11
-1.58391
 21
-0.459615
 31
0.0
  0
LINE
  5
365
  8
0
 10
-1.58391
 20
-0.459615
 30
0.0
 11
-0.597495
 21
0.526802
 31
0.0
  0
LINE
  5
366
  8
0
 10
-0.597495
 20
0.526802
 30
0.0
 11
-0.590417
 21
0.519724
 31
0.0
  0
LINE
  5
367
  8
0
 10
-0.590417
 20
0.519724
 30
0.0
 11
-1.57683
 21
-0.466693
 31
0.0
  0
LINE
  5
368
  8
0
 10
-0.519724
 20
0.590417
 30
0.0
 11
-0.526802
 21
0.597495
 31
0.0
  0
LINE
  5
369
  8
0
 10
-0.526802
 20
0.597495
 30
0.0
 11
0.459615
 21
1.58391
 31
0.0
  0
LINE
  5
36A
  8
0
 10
0.459615
 20
1.58391
 30
0.0
 11
0.466693
 21
1.57683
 31
0.0
  0
LINE
  5
36B
  8
0
 10
0.466693
 20
1.57683
 30
0.0
 11
-0.519724
 21
0.590417
 31
0.0
  0
LINE
  5
36C
  8
0
 10
-1.5627
 20
-0.480827
 30
0.0
 11
-1.56977
 21
-0.47376
 31
0.0
  0
LINE
  5
36D
  8
0
 10
-1.56977
 20
-0.47376
 30
0.0
 11
-0.58335
 21
0.512657
 31
0.0
  0
LINE
  5
36E
  8
0
 10
-0.58335
 20
0.512657
 30
0.0
 11
-0.576283
 21
0.50559
 31
0.0
  0
LINE
  5
36F
  8
0
 10
-0.576283
 20
0.50559
 30
0.0
 11
-1.5627
 21
-0.480827
 31
0.0
  0
LINE
  5
370
  8
0
 10
-0.50559
 20
0.576283
 30
0.0
 11
-0.512657
 21
0.58335
 31
0.0
  0
LINE
  5
371
  8
0
 10
-0.512657
 20
0.58335
 30
0.0
 11
0.47376
 21
1.56977
 31
0.0
  0
LINE
  5
372
  8
0
 10
0.47376
 20
1.56977
 30
0.0
 11
0.480827
 21
1.5627
 31
0.0
  0
LINE
  5
373
  8
0
 10
0.480827
 20
1.5627
 30
0.0
 11
-0.50559
 21
0.576283
 31
0.0
  0
LINE
  5
374
  8
0
 10
-1.54855
 20
-0.494973
 30
0.0
 11
-1.55562
 21
-0.487905
 31
0.0
  0
LINE
  5
375
  8
0
 10
-1.55562
 20
-0.487905
 30
0.0
 11
-0.569205
 21
0.498512
 31
0.0
  0
LINE
  5
376
  8
0
 10
-0.569205
 20
0.498512
 30
0.0
 11
-0.562138
 21
0.491444
 31
0.0
  0
LINE
  5
377
  8
0
 10
-0.562138
 20
0.491444
 30
0.0
 11
-1.54855
 21
-0.494973
 31
0.0
  0
LINE
  5
378
  8
0
 10
-0.491444
 20
0.562138
 30
0.0
 11
-0.498512
 21
0.569205
 31
0.0
  0
LINE
  5
379
  8
0
 10
-0.498512
 20
0.569205
 30
0.0
 11
0.487905
 21
1.55562
 31
0.0
  0
LINE
  5
37A
  8
0
 10
0.487905
 20
1.55562
 30
0.0
 11
0.494973
 21
1.54855
 31
0.0
  0
LINE
  5
37B
  8
0
 10
0.494973
 20
1.54855
 30
0.0
 11
-0.491444
 21
0.562138
 31
0.0
  0
LINE
  5
37C
  8
0
 10
-1.53441
 20
-0.509118
 30
0.0
 11
-1.54148
 21
-0.502051
 31
0.0
  0
LINE
  5
37D
  8
0
 10
-1.54148
 20
-0.502051
 30
0.0
 11
-0.55506
 21
0.484366
 31
0.0
  0
LINE
  5
37E
  8
0
 10
-0.55506
 20
0.484366
 30
0.0
 11
-0.547993
 21
0.477299
 31
0.0
  0
LINE
  5
37F
  8
0
 10
-0.547993
 20
0.477299
 30
0.0
 11
-1.53441
 21
-0.509118
 31
0.0
  0
LINE
  5
380
  8
0
 10
-0.477299
 20
0.547993
 30
0.0
 11
-0.484366
 21
0.55506
 31
0.0
  0
LINE
  5
381
  8
0
 10
-0.484366
 20
0.55506
 30
0.0
 11
0.502051
 21
1.54148
 31
0.0
  0
LINE
  5
382
  8
0
 10
0.502051
 20
1.54148
 30
0.0
 11
0.509118
 21
1.53441
 31
0.0
  0
LINE
  5
383
  8
0
 10
0.509118
 20
1.53441
 30
0.0
 11
-0.477299
 21
0.547993
 31
0.0
  0
LINE
  5
384
  8
0
 10
-1.52026
 20
-0.523263
 30
0.0
 11
-1.52734
 21
-0.516185
 31
0.0
  0
LINE
  5
385
  8
0
 10
-1.52734
 20
-0.516185
 30
0.0
 11
-0.540925
 21
0.470232
 31
0.0
  0
LINE
  5
386
  8
0
 10
-0.540925
 20
0.470232
 30
0.0
 11
-0.533847
 21
0.463154
 31
0.0
  0
LINE
  5
387
  8
0
 10
-0.533847
 20
0.463154
 30
0.0
 11
-1.52026
 21
-0.523263
 31
0.0
  0
LINE
  5
388
  8
0
 10
-0.463154
 20
0.533847
 30
0.0
 11
-0.470232
 21
0.540925
 31
0.0
  0
LINE
  5
389
  8
0
 10
-0.470232
 20
0.540925
 30
0.0
 11
0.516185
 21
1.52734
 31
0.0
  0
LINE
  5
38A
  8
0
 10
0.516185
 20
1.52734
 30
0.0
 11
0.523263
 21
1.52026
 31
0.0
  0
LINE
  5
38B
  8
0
 10
0.523263
 20
1.52026
 30
0.0
 11
-0.463154
 21
0.533847
 31
0.0
  0
LINE
  5
38C
  8
0
 10
-1.50613
 20
-0.537397
 30
0.0
 11
-1.5132
 21
-0.53033
 31
0.0
  0
LINE
  5
38D
  8
0
 10
-1.5132
 20
-0.53033
 30
0.0
 11
-0.52678
 21
0.456087
 31
0.0
  0
LINE
  5
38E
  8
0
 10
-0.52678
 20
0.456087
 30
0.0
 11
-0.519713
 21
0.44902
 31
0.0
  0
LINE
  5
38F
  8
0
 10
-0.519713
 20
0.44902
 30
0.0
 11
-1.50613
 21
-0.537397
 31
0.0
  0
LINE
  5
390
  8
0
 10
-0.44902
 20
0.519713
 30
0.0
 11
-0.456087
 21
0.52678
 31
0.0
  0
LINE
  5
391
  8
0
 10
-0.456087
 20
0.52678
 30
0.0
 11
0.53033
 21
1.5132
 31
0.0
  0
LINE
  5
392
  8
0
 10
0.53033
 20
1.5132
 30
0.0
 11
0.537397
 21
1.50613
 31
0.0
  0
LINE
  5
393
  8
0
 10
0.537397
 20
1.50613
 30
0.0
 11
-0.44902
 21
0.519713
 31
0.0
  0
LINE
  5
394
  8
0
 10
-1.49198
 20
-0.551542
 30
0.0
 11
-1.49905
 21
-0.544475
 31
0.0
  0
LINE
  5
395
  8
0
 10
-1.49905
 20
-0.544475
 30
0.0
 11
-0.512635
 21
0.441942
 31
0.0
  0
LINE
  5
396
  8
0
 10
-0.512635
 20
0.441942
 30
0.0
 11
-0.505568
 21
0.434875
 31
0.0
  0
LINE
  5
397
  8
0
 10
-0.505568
 20
0.434875
 30
0.0
 11
-1.49198
 21
-0.551542
 31
0.0
  0
LINE
  5
398
  8
0
 10
-0.434875
 20
0.505568
 30
0.0
 11
-0.441942
 21
0.512635
 31
0.0
  0
LINE
  5
399
  8
0
 10
-0.441942
 20
0.512635
 30
0.0
 11
0.544475
 21
1.49905
 31
0.0
  0
LINE
  5
39A
  8
0
 10
0.544475
 20
1.49905
 30
0.0
 11
0.551542
 21
1.49198
 31
0.0
  0
LINE
  5
39B
  8
0
 10
0.551542
 20
1.49198
 30
0.0
 11
-0.434875
 21
0.505568
 31
0.0
  0
LINE
  5
39C
  8
0
 10
-1.47784
 20
-0.565688
 30
0.0
 11
-1.48492
 21
-0.55861
 31
0.0
  0
LINE
  5
39D
  8
0
 10
-1.48492
 20
-0.55861
 30
0.0
 11
-0.498501
 21
0.427807
 31
0.0
  0
LINE
  5
39E
  8
0
 10
-0.498501
 20
0.427807
 30
0.0
 11
-0.491423
 21
0.420729
 31
0.0
  0
LINE
  5
39F
  8
0
 10
-0.491423
 20
0.420729
 30
0.0
 11
-1.47784
 21
-0.565688
 31
0.0
  0
LINE
  5
3A0
  8
0
 10
-0.420729
 20
0.491423
 30
0.0
 11
-0.427807
 21
0.498501
 31
0.0
  0
LINE
  5
3A1
  8
0
 10
-0.427807
 20
0.498501
 30
0.0
 11
0.55861
 21
1.48492
 31
0.0
  0
LINE
  5
3A2
  8
0
 10
0.55861
 20
1.48492
 30
0.0
 11
0.565688
 21
1.47784
 31
0.0
  0
LINE
  5
3A3
  8
0
 10
0.565688
 20
1.47784
 30
0.0
 11
-0.420729
 21
0.491423
 31
0.0
  0
LINE
  5
3A4
  8
0
 10
-1.46371
 20
-0.579822
 30
0.0
 11
-1.47077
 21
-0.572755
 31
0.0
  0
LINE
  5
3A5
  8
0
 10
-1.47077
 20
-0.572755
 30
0.0
 11
-0.484356
 21
0.413662
 31
0.0
  0
LINE
  5
3A6
  8
0
 10
-0.484356
 20
0.413662
 30
0.0
 11
-0.477288
 21
0.406595
 31
0.0
  0
LINE
  5
3A7
  8
0
 10
-0.477288
 20
0.406595
 30
0.0
 11
-1.46371
 21
-0.579822
 31
0.0
  0
LINE
  5
3A8
  8
0
 10
-0.406595
 20
0.477288
 30
0.0
 11
-0.413662
 21
0.484356
 31
0.0
  0
LINE
  5
3A9
  8
0
 10
-0.413662
 20
0.484356
 30
0.0
 11
0.572755
 21
1.47077
 31
0.0
  0
LINE
  5
3AA
  8
0
 10
0.572755
 20
1.47077
 30
0.0
 11
0.579822
 21
1.46371
 31
0.0
  0
LINE
  5
3AB
  8
0
 10
0.579822
 20
1.46371
 30
0.0
 11
-0.406595
 21
0.477288
 31
0.0
  0
LINE
  5
3AC
  8
0
 10
-1.44956
 20
-0.593967
 30
0.0
 11
-1.45663
 21
-0.5869
 31
0.0
  0
LINE
  5
3AD
  8
0
 10
-1.45663
 20
-0.5869
 30
0.0
 11
-0.47021
 21
0.399517
 31
0.0
  0
LINE
  5
3AE
  8
0
 10
-0.47021
 20
0.399517
 30
0.0
 11
-0.463143
 21
0.39245
 31
0.0
  0
LINE
  5
3AF
  8
0
 10
-0.463143
 20
0.39245
 30
0.0
 11
-1.44956
 21
-0.593967
 31
0.0
  0
LINE
  5
3B0
  8
0
 10
-0.39245
 20
0.463143
 30
0.0
 11
-0.399517
 21
0.47021
 31
0.0
  0
LINE
  5
3B1
  8
0
 10
-0.399517
 20
0.47021
 30
0.0
 11
0.5869
 21
1.45663
 31
0.0
  0
LINE
  5
3B2
  8
0
 10
0.5869
 20
1.45663
 30
0.0
 11
0.593967
 21
1.44956
 31
0.0
  0
LINE
  5
3B3
  8
0
 10
0.593967
 20
1.44956
 30
0.0
 11
-0.39245
 21
0.463143
 31
0.0
  0
LINE
  5
3B4
  8
0
 10
-1.43542
 20
-0.608112
 30
0.0
 11
-1.44248
 21
-0.601045
 31
0.0
  0
LINE
  5
3B5
  8
0
 10
-1.44248
 20
-0.601045
 30
0.0
 11
-0.456065
 21
0.385372
 31
0.0
  0
LINE
  5
3B6
  8
0
 10
-0.456065
 20
0.385372
 30
0.0
 11
-0.448998
 21
0.378305
 31
0.0
  0
LINE
  5
3B7
  8
0
 10
-0.448998
 20
0.378305
 30
0.0
 11
-1.43542
 21
-0.608112
 31
0.0
  0
LINE
  5
3B8
  8
0
 10
-0.378305
 20
0.448998
 30
0.0
 11
-0.385372
 21
0.456065
 31
0.0
  0
LINE
  5
3B9
  8
0
 10
-0.385372
 20
0.456065
 30
0.0
 11
0.601045
 21
1.44248
 31
0.0
  0
LINE
  5
3BA
  8
0
 10
0.601045
 20
1.44248
 30
0.0
 11
0.608112
 21
1.43542
 31
0.0
  0
LINE
  5
3BB
  8
0
 10
0.608112
 20
1.43542
 30
0.0
 11
-0.378305
 21
0.448998
 31
0.0
  0
LINE
  5
3BC
  8
0
 10
-1.42127
 20
-0.622257
 30
0.0
 11
-1.42835
 21
-0.615179
 31
0.0
  0
LINE
  5
3BD
  8
0
 10
-1.42835
 20
-0.615179
 30
0.0
 11
-0.441931
 21
0.371238
 31
0.0
  0
LINE
  5
3BE
  8
0
 10
-0.441931
 20
0.371238
 30
0.0
 11
-0.434853
 21
0.36416
 31
0.0
  0
LINE
  5
3BF
  8
0
 10
-0.434853
 20
0.36416
 30
0.0
 11
-1.42127
 21
-0.622257
 31
0.0
  0
LINE
  5
3C0
  8
0
 10
-0.36416
 20
0.434853
 30
0.0
 11
-0.371238
 21
0.441931
 31
0.0
  0
LINE
  5
3C1
  8
0
 10
-0.371238
 20
0.441931
 30
0.0
 11
0.615179
 21
1.42835
 31
0.0
  0
LINE
  5
3C2
  8
0
 10
0.615179
 20
1.42835
 30
0.0
 11
0.622257
 21
1.42127
 31
0.0
  0
LINE
  5
3C3
  8
0
 10
0.622257
 20
1.42127
 30
0.0
 11
-0.36416
 21
0.434853
 31
0.0
  0
LINE
  5
3C4
  8
0
 10
-1.40714
 20
-0.636392
 30
0.0
 11
-1.4142
 21
-0.629325
 31
0.0
  0
LINE
  5
3C5
  8
0
 10
-1.4142
 20
-0.629325
 30
0.0
 11
-0.427786
 21
0.357092
 31
0.0
  0
LINE
  5
3C6
  8
0
 10
-0.427786
 20
0.357092
 30
0.0
 11
-0.420719
 21
0.350025
 31
0.0
  0
LINE
  5
3C7
  8
0
 10
-0.420719
 20
0.350025
 30
0.0
 11
-1.40714
 21
-0.636392
 31
0.0
  0
LINE
  5
3C8
  8
0
 10
-0.350025
 20
0.420719
 30
0.0
 11
-0.357092
 21
0.427786
 31
0.0
  0
LINE
  5
3C9
  8
0
 10
-0.357092
 20
0.427786
 30
0.0
 11
0.629325
 21
1.4142
 31
0.0
  0
LINE
  5
3CA
  8
0
 10
0.629325
 20
1.4142
 30
0.0
 11
0.636392
 21
1.40714
 31
0.0
  0
LINE
  5
3CB
  8
0
 10
0.636392
 20
1.40714
 30
0.0
 11
-0.350025
 21
0.420719
 31
0.0
  0
LINE
  5
3CC
  8
0
 10
-1.39299
 20
-0.650537
 30
0.0
 11
-1.40006
 21
-0.64347
 31
0.0
  0
LINE
  5
3CD
  8
0
 10
-1.40006
 20
-0.64347
 30
0.0
 11
-0.413641
 21
0.342947
 31
0.0
  0
LINE
  5
3CE
  8
0
 10
-0.413641
 20
0.342947
 30
0.0
 11
-0.406573
 21
0.33588
 31
0.0
  0
LINE
  5
3CF
  8
0
 10
-0.406573
 20
0.33588
 30
0.0
 11
-1.39299
 21
-0.650537
 31
0.0
  0
LINE
  5
3D0
  8
0
 10
-0.33588
 20
0.406573
 30
0.0
 11
-0.342947
 21
0.413641
 31
0.0
  0
LINE
  5
3D1
  8
0
 10
-0.342947
 20
0.413641
 30
0.0
 11
0.64347
 21
1.40006
 31
0.0
  0
LINE
  5
3D2
  8
0
 10
0.64347
 20
1.40006
 30
0.0
 11
0.650537
 21
1.39299
 31
0.0
  0
LINE
  5
3D3
  8
0
 10
0.650537
 20
1.39299
 30
0.0
 11
-0.33588
 21
0.406573
 31
0.0
  0
LINE
  5
3D4
  8
0
 10
-1.37885
 20
-0.664682
 30
0.0
 11
-1.38592
 21
-0.657604
 31
0.0
  0
LINE
  5
3D5
  8
0
 10
-1.38592
 20
-0.657604
 30
0.0
 11
-0.399506
 21
0.328813
 31
0.0
  0
LINE
  5
3D6
  8
0
 10
-0.399506
 20
0.328813
 30
0.0
 11
-0.392428
 21
0.321735
 31
0.0
  0
LINE
  5
3D7
  8
0
 10
-0.392428
 20
0.321735
 30
0.0
 11
-1.37885
 21
-0.664682
 31
0.0
  0
LINE
  5
3D8
  8
0
 10
-0.321735
 20
0.392428
 30
0.0
 11
-0.328813
 21
0.399506
 31
0.0
  0
LINE
  5
3D9
  8
0
 10
-0.328813
 20
0.399506
 30
0.0
 11
0.657604
 21
1.38592
 31
0.0
  0
LINE
  5
3DA
  8
0
 10
0.657604
 20
1.38592
 30
0.0
 11
0.664682
 21
1.37885
 31
0.0
  0
LINE
  5
3DB
  8
0
 10
0.664682
 20
1.37885
 30
0.0
 11
-0.321735
 21
0.392428
 31
0.0
  0
LINE
  5
3DC
  8
0
 10
-1.3647
 20
-0.678827
 30
0.0
 11
-1.37178
 21
-0.671749
 31
0.0
  0
LINE
  5
3DD
  8
0
 10
-1.37178
 20
-0.671749
 30
0.0
 11
-0.385361
 21
0.314668
 31
0.0
  0
LINE
  5
3DE
  8
0
 10
-0.385361
 20
0.314668
 30
0.0
 11
-0.378283
 21
0.30759
 31
0.0
  0
LINE
  5
3DF
  8
0
 10
-0.378283
 20
0.30759
 30
0.0
 11
-1.3647
 21
-0.678827
 31
0.0
  0
LINE
  5
3E0
  8
0
 10
-0.30759
 20
0.378283
 30
0.0
 11
-0.314668
 21
0.385361
 31
0.0
  0
LINE
  5
3E1
  8
0
 10
-0.314668
 20
0.385361
 30
0.0
 11
0.671749
 21
1.37178
 31
0.0
  0
LINE
  5
3E2
  8
0
 10
0.671749
 20
1.37178
 30
0.0
 11
0.678827
 21
1.3647
 31
0.0
  0
LINE
  5
3E3
  8
0
 10
0.678827
 20
1.3647
 30
0.0
 11
-0.30759
 21
0.378283
 31
0.0
  0
LINE
  5
3E4
  8
0
 10
-1.35057
 20
-0.692962
 30
0.0
 11
-1.35763
 21
-0.685894
 31
0.0
  0
LINE
  5
3E5
  8
0
 10
-1.35763
 20
-0.685894
 30
0.0
 11
-0.371216
 21
0.300523
 31
0.0
  0
LINE
  5
3E6
  8
0
 10
-0.371216
 20
0.300523
 30
0.0
 11
-0.364149
 21
0.293455
 31
0.0
  0
LINE
  5
3E7
  8
0
 10
-0.364149
 20
0.293455
 30
0.0
 11
-1.35057
 21
-0.692962
 31
0.0
  0
LINE
  5
3E8
  8
0
 10
-0.293455
 20
0.364149
 30
0.0
 11
-0.300523
 21
0.371216
 31
0.0
  0
LINE
  5
3E9
  8
0
 10
-0.300523
 20
0.371216
 30
0.0
 11
0.685894
 21
1.35763
 31
0.0
  0
LINE
  5
3EA
  8
0
 10
0.685894
 20
1.35763
 30
0.0
 11
0.692962
 21
1.35057
 31
0.0
  0
LINE
  5
3EB
  8
0
 10
0.692962
 20
1.35057
 30
0.0
 11
-0.293455
 21
0.364149
 31
0.0
  0
LINE
  5
3EC
  8
0
 10
-1.33642
 20
-0.707107
 30
0.0
 11
-1.34349
 21
-0.70004
 31
0.0
  0
LINE
  5
3ED
  8
0
 10
-1.34349
 20
-0.70004
 30
0.0
 11
-0.357071
 21
0.286377
 31
0.0
  0
LINE
  5
3EE
  8
0
 10
-0.357071
 20
0.286377
 30
0.0
 11
-0.350004
 21
0.27931
 31
0.0
  0
LINE
  5
3EF
  8
0
 10
-0.350004
 20
0.27931
 30
0.0
 11
-1.33642
 21
-0.707107
 31
0.0
  0
LINE
  5
3F0
  8
0
 10
-0.27931
 20
0.350004
 30
0.0
 11
-0.286377
 21
0.357071
 31
0.0
  0
LINE
  5
3F1
  8
0
 10
-0.286377
 20
0.357071
 30
0.0
 11
0.70004
 21
1.34349
 31
0.0
  0
LINE
  5
3F2
  8
0
 10
0.70004
 20
1.34349
 30
0.0
 11
0.707107
 21
1.33642
 31
0.0
  0
LINE
  5
3F3
  8
0
 10
0.707107
 20
1.33642
 30
0.0
 11
-0.27931
 21
0.350004
 31
0.0
  0
LINE
  5
3F4
  8
0
 10
-1.32228
 20
-0.721252
 30
0.0
 11
-1.32935
 21
-0.714174
 31
0.0
  0
LINE
  5
3F5
  8
0
 10
-1.32935
 20
-0.714174
 30
0.0
 11
-0.342936
 21
0.272243
 31
0.0
  0
LINE
  5
3F6
  8
0
 10
-0.342936
 20
0.272243
 30
0.0
 11
-0.335858
 21
0.265165
 31
0.0
  0
LINE
  5
3F7
  8
0
 10
-0.335858
 20
0.265165
 30
0.0
 11
-1.32228
 21
-0.721252
 31
0.0
  0
LINE
  5
3F8
  8
0
 10
-0.265165
 20
0.335858
 30
0.0
 11
-0.272243
 21
0.342936
 31
0.0
  0
LINE
  5
3F9
  8
0
 10
-0.272243
 20
0.342936
 30
0.0
 11
0.714174
 21
1.32935
 31
0.0
  0
LINE
  5
3FA
  8
0
 10
0.714174
 20
1.32935
 30
0.0
 11
0.721252
 21
1.32228
 31
0.0
  0
LINE
  5
3FB
  8
0
 10
0.721252
 20
1.32228
 30
0.0
 11
-0.265165
 21
0.335858
 31
0.0
  0
LINE
  5
3FC
  8
0
 10
-1.30814
 20
-0.735386
 30
0.0
 11
-1.31521
 21
-0.728319
 31
0.0
  0
LINE
  5
3FD
  8
0
 10
-1.31521
 20
-0.728319
 30
0.0
 11
-0.328791
 21
0.258098
 31
0.0
  0
LINE
  5
3FE
  8
0
 10
-0.328791
 20
0.258098
 30
0.0
 11
-0.321724
 21
0.251031
 31
0.0
  0
LINE
  5
3FF
  8
0
 10
-0.321724
 20
0.251031
 30
0.0
 11
-1.30814
 21
-0.735386
 31
0.0
  0
LINE
  5
400
  8
0
 10
-0.251031
 20
0.321724
 30
0.0
 11
-0.258098
 21
0.328791
 31
0.0
  0
LINE
  5
401
  8
0
 10
-0.258098
 20
0.328791
 30
0.0
 11
0.728319
 21
1.31521
 31
0.0
  0
LINE
  5
402
  8
0
 10
0.728319
 20
1.31521
 30
0.0
 11
0.735386
 21
1.30814
 31
0.0
  0
LINE
  5
403
  8
0
 10
0.735386
 20
1.30814
 30
0.0
 11
-0.251031
 21
0.321724
 31
0.0
  0
LINE
  5
404
  8
0
 10
-1.294
 20
-0.749531
 30
0.0
 11
-1.30106
 21
-0.742464
 31
0.0
  0
LINE
  5
405
  8
0
 10
-1.30106
 20
-0.742464
 30
0.0
 11
-0.314646
 21
0.243953
 31
0.0
  0
LINE
  5
406
  8
0
 10
-0.314646
 20
0.243953
 30
0.0
 11
-0.307579
 21
0.236886
 31
0.0
  0
LINE
  5
407
  8
0
 10
-0.307579
 20
0.236886
 30
0.0
 11
-1.294
 21
-0.749531
 31
0.0
  0
LINE
  5
408
  8
0
 10
-0.236886
 20
0.307579
 30
0.0
 11
-0.243953
 21
0.314646
 31
0.0
  0
LINE
  5
409
  8
0
 10
-0.243953
 20
0.314646
 30
0.0
 11
0.742464
 21
1.30106
 31
0.0
  0
LINE
  5
40A
  8
0
 10
0.742464
 20
1.30106
 30
0.0
 11
0.749531
 21
1.294
 31
0.0
  0
LINE
  5
40B
  8
0
 10
0.749531
 20
1.294
 30
0.0
 11
-0.236886
 21
0.307579
 31
0.0
  0
LINE
  5
40C
  8
0
 10
-1.27985
 20
-0.763677
 30
0.0
 11
-1.28693
 21
-0.756599
 31
0.0
  0
LINE
  5
40D
  8
0
 10
-1.28693
 20
-0.756599
 30
0.0
 11
-0.300512
 21
0.229818
 31
0.0
  0
LINE
  5
40E
  8
0
 10
-0.300512
 20
0.229818
 30
0.0
 11
-0.293434
 21
0.22274
 31
0.0
  0
LINE
  5
40F
  8
0
 10
-0.293434
 20
0.22274
 30
0.0
 11
-1.27985
 21
-0.763677
 31
0.0
  0
LINE
  5
410
  8
0
 10
-0.22274
 20
0.293434
 30
0.0
 11
-0.229818
 21
0.300512
 31
0.0
  0
LINE
  5
411
  8
0
 10
-0.229818
 20
0.300512
 30
0.0
 11
0.756599
 21
1.28693
 31
0.0
  0
LINE
  5
412
  8
0
 10
0.756599
 20
1.28693
 30
0.0
 11
0.763677
 21
1.27985
 31
0.0
  0
LINE
  5
413
  8
0
 10
0.763677
 20
1.27985
 30
0.0
 11
-0.22274
 21
0.293434
 31
0.0
  0
LINE
  5
414
  8
0
 10
-1.26571
 20
-0.777822
 30
0.0
 11
-1.27278
 21
-0.770744
 31
0.0
  0
LINE
  5
415
  8
0
 10
-1.27278
 20
-0.770744
 30
0.0
 11
-0.286367
 21
0.215673
 31
0.0
  0
LINE
  5
416
  8
0
 10
-0.286367
 20
0.215673
 30
0.0
 11
-0.279289
 21
0.208595
 31
0.0
  0
LINE
  5
417
  8
0
 10
-0.279289
 20
0.208595
 30
0.0
 11
-1.26571
 21
-0.777822
 31
0.0
  0
LINE
  5
418
  8
0
 10
-0.208595
 20
0.279289
 30
0.0
 11
-0.215673
 21
0.286367
 31
0.0
  0
LINE
  5
419
  8
0
 10
-0.215673
 20
0.286367
 30
0.0
 11
0.770744
 21
1.27278
 31
0.0
  0
LINE
  5
41A
  8
0
 10
0.770744
 20
1.27278
 30
0.0
 11
0.777822
 21
1.26571
 31
0.0
  0
LINE
  5
41B
  8
0
 10
0.777822
 20
1.26571
 30
0.0
 11
-0.208595
 21
0.279289
 31
0.0
  0
LINE
  5
41C
  8
0
 10
-1.25157
 20
-0.791956
 30
0.0
 11
-1.25864
 21
-0.784889
 31
0.0
  0
LINE
  5
41D
  8
0
 10
-1.25864
 20
-0.784889
 30
0.0
 11
-0.272221
 21
0.201528
 31
0.0
  0
LINE
  5
41E
  8
0
 10
-0.272221
 20
0.201528
 30
0.0
 11
-0.265154
 21
0.194461
 31
0.0
  0
LINE
  5
41F
  8
0
 10
-0.265154
 20
0.194461
 30
0.0
 11
-1.25157
 21
-0.791956
 31
0.0
  0
LINE
  5
420
  8
0
 10
-0.194461
 20
0.265154
 30
0.0
 11
-0.201528
 21
0.272221
 31
0.0
  0
LINE
  5
421
  8
0
 10
-0.201528
 20
0.272221
 30
0.0
 11
0.784889
 21
1.25864
 31
0.0
  0
LINE
  5
422
  8
0
 10
0.784889
 20
1.25864
 30
0.0
 11
0.791956
 21
1.25157
 31
0.0
  0
LINE
  5
423
  8
0
 10
0.791956
 20
1.25157
 30
0.0
 11
-0.194461
 21
0.265154
 31
0.0
  0
LINE
  5
424
  8
0
 10
-1.23743
 20
-0.806101
 30
0.0
 11
-1.24449
 21
-0.799034
 31
0.0
  0
LINE
  5
425
  8
0
 10
-1.24449
 20
-0.799034
 30
0.0
 11
-0.258076
 21
0.187383
 31
0.0
  0
LINE
  5
426
  8
0
 10
-0.258076
 20
0.187383
 30
0.0
 11
-0.251009
 21
0.180316
 31
0.0
  0
LINE
  5
427
  8
0
 10
-0.251009
 20
0.180316
 30
0.0
 11
-1.23743
 21
-0.806101
 31
0.0
  0
LINE
  5
428
  8
0
 10
-0.180316
 20
0.251009
 30
0.0
 11
-0.187383
 21
0.258076
 31
0.0
  0
LINE
  5
429
  8
0
 10
-0.187383
 20
0.258076
 30
0.0
 11
0.799034
 21
1.24449
 31
0.0
  0
LINE
  5
42A
  8
0
 10
0.799034
 20
1.24449
 30
0.0
 11
0.806101
 21
1.23743
 31
0.0
  0
LINE
  5
42B
  8
0
 10
0.806101
 20
1.23743
 30
0.0
 11
-0.180316
 21
0.251009
 31
0.0
  0
LINE
  5
42C
  8
0
 10
-1.22328
 20
-0.820246
 30
0.0
 11
-1.23036
 21
-0.813168
 31
0.0
  0
LINE
  5
42D
  8
0
 10
-1.23036
 20
-0.813168
 30
0.0
 11
-0.243942
 21
0.173248
 31
0.0
  0
LINE
  5
42E
  8
0
 10
-0.243942
 20
0.173248
 30
0.0
 11
-0.236864
 21
0.166171
 31
0.0
  0
LINE
  5
42F
  8
0
 10
-0.236864
 20
0.166171
 30
0.0
 11
-1.22328
 21
-0.820246
 31
0.0
  0
LINE
  5
430
  8
0
 10
-0.166171
 20
0.236864
 30
0.0
 11
-0.173248
 21
0.243942
 31
0.0
  0
LINE
  5
431
  8
0
 10
-0.173248
 20
0.243942
 30
0.0
 11
0.813168
 21
1.23036
 31
0.0
  0
LINE
  5
432
  8
0
 10
0.813168
 20
1.23036
 30
0.0
 11
0.820246
 21
1.22328
 31
0.0
  0
LINE
  5
433
  8
0
 10
0.820246
 20
1.22328
 30
0.0
 11
-0.166171
 21
0.236864
 31
0.0
  0
LINE
  5
434
  8
0
 10
-1.20915
 20
-0.834381
 30
0.0
 11
-1.21621
 21
-0.827314
 31
0.0
  0
LINE
  5
435
  8
0
 10
-1.21621
 20
-0.827314
 30
0.0
 11
-0.229797
 21
0.159103
 31
0.0
  0
LINE
  5
436
  8
0
 10
-0.229797
 20
0.159103
 30
0.0
 11
-0.22273
 21
0.152036
 31
0.0
  0
LINE
  5
437
  8
0
 10
-0.22273
 20
0.152036
 30
0.0
 11
-1.20915
 21
-0.834381
 31
0.0
  0
LINE
  5
438
  8
0
 10
-0.152036
 20
0.22273
 30
0.0
 11
-0.159103
 21
0.229797
 31
0.0
  0
LINE
  5
439
  8
0
 10
-0.159103
 20
0.229797
 30
0.0
 11
0.827314
 21
1.21621
 31
0.0
  0
LINE
  5
43A
  8
0
 10
0.827314
 20
1.21621
 30
0.0
 11
0.834381
 21
1.20915
 31
0.0
  0
LINE
  5
43B
  8
0
 10
0.834381
 20
1.20915
 30
0.0
 11
-0.152036
 21
0.22273
 31
0.0
  0
LINE
  5
43C
  8
0
 10
-1.195
 20
-0.848526
 30
0.0
 11
-1.20207
 21
-0.841459
 31
0.0
  0
LINE
  5
43D
  8
0
 10
-1.20207
 20
-0.841459
 30
0.0
 11
-0.215652
 21
0.144958
 31
0.0
  0
LINE
  5
43E
  8
0
 10
-0.215652
 20
0.144958
 30
0.0
 11
-0.208584
 21
0.137891
 31
0.0
  0
LINE
  5
43F
  8
0
 10
-0.208584
 20
0.137891
 30
0.0
 11
-1.195
 21
-0.848526
 31
0.0
  0
LINE
  5
440
  8
0
 10
-0.137891
 20
0.208584
 30
0.0
 11
-0.144958
 21
0.215652
 31
0.0
  0
LINE
  5
441
  8
0
 10
-0.144958
 20
0.215652
 30
0.0
 11
0.841459
 21
1.20207
 31
0.0
  0
LINE
  5
442
  8
0
 10
0.841459
 20
1.20207
 30
0.0
 11
0.848526
 21
1.195
 31
0.0
  0
LINE
  5
443
  8
0
 10
0.848526
 20
1.195
 30
0.0
 11
-0.137891
 21
0.208584
 31
0.0
  0
LINE
  5
444
  8
0
 10
-1.18086
 20
-0.862671
 30
0.0
 11
-1.18792
 21
-0.855604
 31
0.0
  0
LINE
  5
445
  8
0
 10
-1.18792
 20
-0.855604
 30
0.0
 11
-0.201506
 21
0.130813
 31
0.0
  0
LINE
  5
446
  8
0
 10
-0.201506
 20
0.130813
 30
0.0
 11
-0.194439
 21
0.123746
 31
0.0
  0
LINE
  5
447
  8
0
 10
-0.194439
 20
0.123746
 30
0.0
 11
-1.18086
 21
-0.862671
 31
0.0
  0
LINE
  5
448
  8
0
 10
-0.123746
 20
0.194439
 30
0.0
 11
-0.130813
 21
0.201506
 31
0.0
  0
LINE
  5
449
  8
0
 10
-0.130813
 20
0.201506
 30
0.0
 11
0.855604
 21
1.18792
 31
0.0
  0
LINE
  5
44A
  8
0
 10
0.855604
 20
1.18792
 30
0.0
 11
0.862671
 21
1.18086
 31
0.0
  0
LINE
  5
44B
  8
0
 10
0.862671
 20
1.18086
 30
0.0
 11
-0.123746
 21
0.194439
 31
0.0
  0
LINE
  5
44C
  8
0
 10
-1.16671
 20
-0.876816
 30
0.0
 11
-1.17379
 21
-0.869738
 31
0.0
  0
LINE
  5
44D
  8
0
 10
-1.17379
 20
-0.869738
 30
0.0
 11
-0.187372
 21
0.116679
 31
0.0
  0
LINE
  5
44E
  8
0
 10
-0.187372
 20
0.116679
 30
0.0
 11
-0.180294
 21
0.109601
 31
0.0
  0
LINE
  5
44F
  8
0
 10
-0.180294
 20
0.109601
 30
0.0
 11
-1.16671
 21
-0.876816
 31
0.0
  0
LINE
  5
450
  8
0
 10
-0.109601
 20
0.180294
 30
0.0
 11
-0.116679
 21
0.187372
 31
0.0
  0
LINE
  5
451
  8
0
 10
-0.116679
 20
0.187372
 30
0.0
 11
0.869738
 21
1.17379
 31
0.0
  0
LINE
  5
452
  8
0
 10
0.869738
 20
1.17379
 30
0.0
 11
0.876816
 21
1.16671
 31
0.0
  0
LINE
  5
453
  8
0
 10
0.876816
 20
1.16671
 30
0.0
 11
-0.109601
 21
0.180294
 31
0.0
  0
LINE
  5
454
  8
0
 10
-1.15258
 20
-0.890951
 30
0.0
 11
-1.15964
 21
-0.883883
 31
0.0
  0
LINE
  5
455
  8
0
 10
-1.15964
 20
-0.883883
 30
0.0
 11
-0.173227
 21
0.102534
 31
0.0
  0
LINE
  5
456
  8
0
 10
-0.173227
 20
0.102534
 30
0.0
 11
-0.16616
 21
0.0954663
 31
0.0
  0
LINE
  5
457
  8
0
 10
-0.16616
 20
0.0954663
 30
0.0
 11
-1.15258
 21
-0.890951
 31
0.0
  0
LINE
  5
458
  8
0
 10
-0.0954663
 20
0.16616
 30
0.0
 11
-0.102534
 21
0.173227
 31
0.0
  0
LINE
  5
459
  8
0
 10
-0.102534
 20
0.173227
 30
0.0
 11
0.883883
 21
1.15964
 31
0.0
  0
LINE
  5
45A
  8
0
 10
0.883883
 20
1.15964
 30
0.0
 11
0.890951
 21
1.15258
 31
0.0
  0
LINE
  5
45B
  8
0
 10
0.890951
 20
1.15258
 30
0.0
 11
-0.0954663
 21
0.16616
 31
0.0
  0
LINE
  5
45C
  8
0
 10
-1.13843
 20
-0.905096
 30
0.0
 11
-1.1455
 21
-0.898029
 31
0.0
  0
LINE
  5
45D
  8
0
 10
-1.1455
 20
-0.898029
 30
0.0
 11
-0.159082
 21
0.0883883
 31
0.0
  0
LINE
  5
45E
  8
0
 10
-0.159082
 20
0.0883883
 30
0.0
 11
-0.152015
 21
0.0813212
 31
0.0
  0
LINE
  5
45F
  8
0
 10
-0.152015
 20
0.0813212
 30
0.0
 11
-1.13843
 21
-0.905096
 31
0.0
  0
LINE
  5
460
  8
0
 10
-0.0813212
 20
0.152015
 30
0.0
 11
-0.0883883
 21
0.159082
 31
0.0
  0
LINE
  5
461
  8
0
 10
-0.0883883
 20
0.159082
 30
0.0
 11
0.898029
 21
1.1455
 31
0.0
  0
LINE
  5
462
  8
0
 10
0.898029
 20
1.1455
 30
0.0
 11
0.905096
 21
1.13843
 31
0.0
  0
LINE
  5
463
  8
0
 10
0.905096
 20
1.13843
 30
0.0
 11
-0.0813212
 21
0.152015
 31
0.0
  0
LINE
  5
464
  8
0
 10
-1.12429
 20
-0.919241
 30
0.0
 11
-1.13136
 21
-0.912163
 31
0.0
  0
LINE
  5
465
  8
0
 10
-1.13136
 20
-0.912163
 30
0.0
 11
-0.144947
 21
0.074254
 31
0.0
  0
LINE
  5
466
  8
0
 10
-0.144947
 20
0.074254
 30
0.0
 11
-0.137869
 21
0.067176
 31
0.0
  0
LINE
  5
467
  8
0
 10
-0.137869
 20
0.067176
 30
0.0
 11
-1.12429
 21
-0.919241
 31
0.0
  0
LINE
  5
468
  8
0
 10
-0.067176
 20
0.137869
 30
0.0
 11
-0.074254
 21
0.144947
 31
0.0
  0
LINE
  5
469
  8
0
 10
-0.074254
 20
0.144947
 30
0.0
 11
0.912163
 21
1.13136
 31
0.0
  0
LINE
  5
46A
  8
0
 10
0.912163
 20
1.13136
 30
0.0
 11
0.919241
 21
1.12429
 31
0.0
  0
LINE
  5
46B
  8
0
 10
0.919241
 20
1.12429
 30
0.0
 11
-0.067176
 21
0.137869
 31
0.0
  0
LINE
  5
46C
  8
0
 10
-1.11015
 20
-0.933375
 30
0.0
 11
-1.11722
 21
-0.926308
 31
0.0
  0
LINE
  5
46D
  8
0
 10
-1.11722
 20
-0.926308
 30
0.0
 11
-0.130802
 21
0.0601088
 31
0.0
  0
LINE
  5
46E
  8
0
 10
-0.130802
 20
0.0601088
 30
0.0
 11
-0.123735
 21
0.0530416
 31
0.0
  0
LINE
  5
46F
  8
0
 10
-0.123735
 20
0.0530416
 30
0.0
 11
-1.11015
 21
-0.933375
 31
0.0
  0
LINE
  5
470
  8
0
 10
-0.0530416
 20
0.123735
 30
0.0
 11
-0.0601088
 21
0.130802
 31
0.0
  0
LINE
  5
471
  8
0
 10
-0.0601088
 20
0.130802
 30
0.0
 11
0.926308
 21
1.11722
 31
0.0
  0
LINE
  5
472
  8
0
 10
0.926308
 20
1.11722
 30
0.0
 11
0.933375
 21
1.11015
 31
0.0
  0
LINE
  5
473
  8
0
 10
0.933375
 20
1.11015
 30
0.0
 11
-0.0530416
 21
0.123735
 31
0.0
  0
LINE
  5
474
  8
0
 10
-1.09601
 20
-0.94752
 30
0.0
 11
-1.10307
 21
-0.940453
 31
0.0
  0
LINE
  5
475
  8
0
 10
-1.10307
 20
-0.940453
 30
0.0
 11
-0.116657
 21
0.0459637
 31
0.0
  0
LINE
  5
476
  8
0
 10
-0.116657
 20
0.0459637
 30
0.0
 11
-0.10959
 21
0.0388965
 31
0.0
  0
LINE
  5
477
  8
0
 10
-0.10959
 20
0.0388965
 30
0.0
 11
-1.09601
 21
-0.94752
 31
0.0
  0
LINE
  5
478
  8
0
 10
-0.0388965
 20
0.10959
 30
0.0
 11
-0.0459637
 21
0.116657
 31
0.0
  0
LINE
  5
479
  8
0
 10
-0.0459637
 20
0.116657
 30
0.0
 11
0.940453
 21
1.10307
 31
0.0
  0
LINE
  5
47A
  8
0
 10
0.940453
 20
1.10307
 30
0.0
 11
0.94752
 21
1.09601
 31
0.0
  0
LINE
  5
47B
  8
0
 10
0.94752
 20
1.09601
 30
0.0
 11
-0.0388965
 21
0.10959
 31
0.0
  0
LINE
  5
47C
  8
0
 10
-1.08186
 20
-0.961666
 30
0.0
 11
-1.08893
 21
-0.954598
 31
0.0
  0
LINE
  5
47D
  8
0
 10
-1.08893
 20
-0.954598
 30
0.0
 11
-0.102512
 21
0.0318185
 31
0.0
  0
LINE
  5
47E
  8
0
 10
-0.102512
 20
0.0318185
 30
0.0
 11
-0.0954447
 21
0.0247513
 31
0.0
  0
LINE
  5
47F
  8
0
 10
-0.0954447
 20
0.0247513
 30
0.0
 11
-1.08186
 21
-0.961666
 31
0.0
  0
LINE
  5
480
  8
0
 10
-0.0247513
 20
0.0954447
 30
0.0
 11
-0.0318185
 21
0.102512
 31
0.0
  0
LINE
  5
481
  8
0
 10
-0.0318185
 20
0.102512
 30
0.0
 11
0.954598
 21
1.08893
 31
0.0
  0
LINE
  5
482
  8
0
 10
0.954598
 20
1.08893
 30
0.0
 11
0.961666
 21
1.08186
 31
0.0
  0
LINE
  5
483
  8
0
 10
0.961666
 20
1.08186
 30
0.0
 11
-0.0247513
 21
0.0954447
 31
0.0
  0
LINE
  5
484
  8
0
 10
-1.06772
 20
-0.975811
 30
0.0
 11
-1.07479
 21
-0.968733
 31
0.0
  0
LINE
  5
485
  8
0
 10
-1.07479
 20
-0.968733
 30
0.0
 11
-0.0883776
 21
0.0176841
 31
0.0
  0
LINE
  5
486
  8
0
 10
-0.0883776
 20
0.0176841
 30
0.0
 11
-0.0812996
 21
0.0106062
 31
0.0
  0
LINE
  5
487
  8
0
 10
-0.0812996
 20
0.0106062
 30
0.0
 11
-1.06772
 21
-0.975811
 31
0.0
  0
LINE
  5
488
  8
0
 10
-0.0106062
 20
0.0812996
 30
0.0
 11
-0.0176841
 21
0.0883776
 31
0.0
  0
LINE
  5
489
  8
0
 10
-0.0176841
 20
0.0883776
 30
0.0
 11
0.968733
 21
1.07479
 31
0.0
  0
LINE
  5
48A
  8
0
 10
0.968733
 20
1.07479
 30
0.0
 11
0.975811
 21
1.06772
 31
0.0
  0
LINE
  5
48B
  8
0
 10
0.975811
 20
1.06772
 30
0.0
 11
-0.0106062
 21
0.0812996
 31
0.0
  0
LINE
  5
48C
  8
0
 10
-1.05358
 20
-0.989945
 30
0.0
 11
-1.06065
 21
-0.982878
 31
0.0
  0
LINE
  5
48D
  8
0
 10
-1.06065
 20
-0.982878
 30
0.0
 11
-0.0742324
 21
0.00353899
 31
0.0
  0
LINE
  5
48E
  8
0
 10
-0.0742324
 20
0.00353899
 30
0.0
 11
-0.0671652
 21
-0.0035282
 31
0.0
  0
LINE
  5
48F
  8
0
 10
-0.0671652
 20
-0.0035282
 30
0.0
 11
-1.05358
 21
-0.989945
 31
0.0
  0
LINE
  5
490
  8
0
 10
0.0035282
 20
0.0671652
 30
0.0
 11
-0.00353899
 21
0.0742324
 31
0.0
  0
LINE
  5
491
  8
0
 10
-0.00353899
 20
0.0742324
 30
0.0
 11
0.982878
 21
1.06065
 31
0.0
  0
LINE
  5
492
  8
0
 10
0.982878
 20
1.06065
 30
0.0
 11
0.989945
 21
1.05358
 31
0.0
  0
LINE
  5
493
  8
0
 10
0.989945
 20
1.05358
 30
0.0
 11
0.0035282
 21
0.0671652
 31
0.0
  0
LINE
  5
494
  8
0
 10
-1.03944
 20
-1.00409
 30
0.0
 11
-1.0465
 21
-0.997023
 31
0.0
  0
LINE
  5
495
  8
0
 10
-1.0465
 20
-0.997023
 30
0.0
 11
-0.0600872
 21
-0.0106062
 31
0.0
  0
LINE
  5
496
  8
0
 10
-0.0600872
 20
-0.0106062
 30
0.0
 11
-0.0530201
 21
-0.0176734
 31
0.0
  0
LINE
  5
497
  8
0
 10
-0.0530201
 20
-0.0176734
 30
0.0
 11
-1.03944
 21
-1.00409
 31
0.0
  0
LINE
  5
498
  8
0
 10
0.0176734
 20
0.0530201
 30
0.0
 11
0.0106062
 21
0.0600872
 31
0.0
  0
LINE
  5
499
  8
0
 10
0.0106062
 20
0.0600872
 30
0.0
 11
0.997023
 21
1.0465
 31
0.0
  0
LINE
  5
49A
  8
0
 10
0.997023
 20
1.0465
 30
0.0
 11
1.00409
 21
1.03944
 31
0.0
  0
LINE
  5
49B
  8
0
 10
1.00409
 20
1.03944
 30
0.0
 11
0.0176734
 21
0.0530201
 31
0.0
  0
LINE
  5
49C
  8
0
 10
-1.02529
 20
-1.01824
 30
0.0
 11
-1.03237
 21
-1.01116
 31
0.0
  0
LINE
  5
49D
  8
0
 10
-1.03237
 20
-1.01116
 30
0.0
 11
-0.0459529
 21
-0.0247405
 31
0.0
  0
LINE
  5
49E
  8
0
 10
-0.0459529
 20
-0.0247405
 30
0.0
 11
-0.0388749
 21
-0.0318185
 31
0.0
  0
LINE
  5
49F
  8
0
 10
-0.0388749
 20
-0.0318185
 30
0.0
 11
-1.02529
 21
-1.01824
 31
0.0
  0
LINE
  5
4A0
  8
0
 10
0.0318185
 20
0.0388749
 30
0.0
 11
0.0247405
 21
0.0459529
 31
0.0
  0
LINE
  5
4A1
  8
0
 10
0.0247405
 20
0.0459529
 30
0.0
 11
1.01116
 21
1.03237
 31
0.0
  0
LINE
  5
4A2
  8
0
 10
1.01116
 20
1.03237
 30
0.0
 11
1.01824
 21
1.02529
 31
0.0
  0
LINE
  5
4A3
  8
0
 10
1.01824
 20
1.02529
 30
0.0
 11
0.0318185
 21
0.0388749
 31
0.0
  0
LINE
  5
4A4
  8
0
 10
-1.01116
 20
-1.03237
 30
0.0
 11
-1.01824
 21
-1.02529
 31
0.0
  0
LINE
  5
4A5
  8
0
 10
-1.01824
 20
-1.02529
 30
0.0
 11
-0.0318185
 21
-0.0388749
 31
0.0
  0
LINE
  5
4A6
  8
0
 10
-0.0318185
 20
-0.0388749
 30
0.0
 11
-0.0247405
 21
-0.0459529
 31
0.0
  0
LINE
  5
4A7
  8
0
 10
-0.0247405
 20
-0.0459529
 30
0.0
 11
-1.01116
 21
-1.03237
 31
0.0
  0
LINE
  5
4A8
  8
0
 10
0.0459529
 20
0.0247405
 30
0.0
 11
0.0388749
 21
0.0318185
 31
0.0
  0
LINE
  5
4A9
  8
0
 10
0.0388749
 20
0.0318185
 30
0.0
 11
1.02529
 21
1.01824
 31
0.0
  0
LINE
  5
4AA
  8
0
 10
1.02529
 20
1.01824
 30
0.0
 11
1.03237
 21
1.01116
 31
0.0
  0
LINE
  5
4AB
  8
0
 10
1.03237
 20
1.01116
 30
0.0
 11
0.0459529
 21
0.0247405
 31
0.0
  0
LINE
  5
4AC
  8
0
 10
-0.997023
 20
-1.0465
 30
0.0
 11
-1.00409
 21
-1.03944
 31
0.0
  0
LINE
  5
4AD
  8
0
 10
-1.00409
 20
-1.03944
 30
0.0
 11
-0.0176734
 21
-0.0530201
 31
0.0
  0
LINE
  5
4AE
  8
0
 10
-0.0176734
 20
-0.0530201
 30
0.0
 11
-0.0106062
 21
-0.0600872
 31
0.0
  0
LINE
  5
4AF
  8
0
 10
-0.0106062
 20
-0.0600872
 30
0.0
 11
-0.997023
 21
-1.0465
 31
0.0
  0
LINE
  5
4B0
  8
0
 10
0.0600872
 20
0.0106062
 30
0.0
 11
0.0530201
 21
0.0176734
 31
0.0
  0
LINE
  5
4B1
  8
0
 10
0.0530201
 20
0.0176734
 30
0.0
 11
1.03944
 21
1.00409
 31
0.0
  0
LINE
  5
4B2
  8
0
 10
1.03944
 20
1.00409
 30
0.0
 11
1.0465
 21
0.997023
 31
0.0
  0
LINE
  5
4B3
  8
0
 10
1.0465
 20
0.997023
 30
0.0
 11
0.0600872
 21
0.0106062
 31
0.0
  0
LINE
  5
4B4
  8
0
 10
-0.982878
 20
-1.06065
 30
0.0
 11
-0.989945
 21
-1.05358
 31
0.0
  0
LINE
  5
4B5
  8
0
 10
-0.989945
 20
-1.05358
 30
0.0
 11
-0.0035282
 21
-0.0671652
 31
0.0
  0
LINE
  5
4B6
  8
0
 10
-0.0035282
 20
-0.0671652
 30
0.0
 11
0.00353899
 21
-0.0742324
 31
0.0
  0
LINE
  5
4B7
  8
0
 10
0.00353899
 20
-0.0742324
 30
0.0
 11
-0.982878
 21
-1.06065
 31
0.0
  0
LINE
  5
4B8
  8
0
 10
0.0742324
 20
-0.00353899
 30
0.0
 11
0.0671652
 21
0.0035282
 31
0.0
  0
LINE
  5
4B9
  8
0
 10
0.0671652
 20
0.0035282
 30
0.0
 11
1.05358
 21
0.989945
 31
0.0
  0
LINE
  5
4BA
  8
0
 10
1.05358
 20
0.989945
 30
0.0
 11
1.06065
 21
0.982878
 31
0.0
  0
LINE
  5
4BB
  8
0
 10
1.06065
 20
0.982878
 30
0.0
 11
0.0742324
 21
-0.00353899
 31
0.0
  0
LINE
  5
4BC
  8
0
 10
-0.968733
 20
-1.07479
 30
0.0
 11
-0.975811
 21
-1.06772
 31
0.0
  0
LINE
  5
4BD
  8
0
 10
-0.975811
 20
-1.06772
 30
0.0
 11
0.0106062
 21
-0.0812996
 31
0.0
  0
LINE
  5
4BE
  8
0
 10
0.0106062
 20
-0.0812996
 30
0.0
 11
0.0176841
 21
-0.0883776
 31
0.0
  0
LINE
  5
4BF
  8
0
 10
0.0176841
 20
-0.0883776
 30
0.0
 11
-0.968733
 21
-1.07479
 31
0.0
  0
LINE
  5
4C0
  8
0
 10
0.0883776
 20
-0.0176841
 30
0.0
 11
0.0812996
 21
-0.0106062
 31
0.0
  0
LINE
  5
4C1
  8
0
 10
0.0812996
 20
-0.0106062
 30
0.0
 11
1.06772
 21
0.975811
 31
0.0
  0
LINE
  5
4C2
  8
0
 10
1.06772
 20
0.975811
 30
0.0
 11
1.07479
 21
0.968733
 31
0.0
  0
LINE
  5
4C3
  8
0
 10
1.07479
 20
0.968733
 30
0.0
 11
0.0883776
 21
-0.0176841
 31
0.0
  0
LINE
  5
4C4
  8
0
 10
-0.954598
 20
-1.08893
 30
0.0
 11
-0.961666
 21
-1.08186
 31
0.0
  0
LINE
  5
4C5
  8
0
 10
-0.961666
 20
-1.08186
 30
0.0
 11
0.0247513
 21
-0.0954447
 31
0.0
  0
LINE
  5
4C6
  8
0
 10
0.0247513
 20
-0.0954447
 30
0.0
 11
0.0318185
 21
-0.102512
 31
0.0
  0
LINE
  5
4C7
  8
0
 10
0.0318185
 20
-0.102512
 30
0.0
 11
-0.954598
 21
-1.08893
 31
0.0
  0
LINE
  5
4C8
  8
0
 10
0.102512
 20
-0.0318185
 30
0.0
 11
0.0954447
 21
-0.0247513
 31
0.0
  0
LINE
  5
4C9
  8
0
 10
0.0954447
 20
-0.0247513
 30
0.0
 11
1.08186
 21
0.961666
 31
0.0
  0
LINE
  5
4CA
  8
0
 10
1.08186
 20
0.961666
 30
0.0
 11
1.08893
 21
0.954598
 31
0.0
  0
LINE
  5
4CB
  8
0
 10
1.08893
 20
0.954598
 30
0.0
 11
0.102512
 21
-0.0318185
 31
0.0
  0
LINE
  5
4CC
  8
0
 10
-0.940453
 20
-1.10307
 30
0.0
 11
-0.94752
 21
-1.09601
 31
0.0
  0
LINE
  5
4CD
  8
0
 10
-0.94752
 20
-1.09601
 30
0.0
 11
0.0388965
 21
-0.10959
 31
0.0
  0
LINE
  5
4CE
  8
0
 10
0.0388965
 20
-0.10959
 30
0.0
 11
0.0459637
 21
-0.116657
 31
0.0
  0
LINE
  5
4CF
  8
0
 10
0.0459637
 20
-0.116657
 30
0.0
 11
-0.940453
 21
-1.10307
 31
0.0
  0
LINE
  5
4D0
  8
0
 10
0.116657
 20
-0.0459637
 30
0.0
 11
0.10959
 21
-0.0388965
 31
0.0
  0
LINE
  5
4D1
  8
0
 10
0.10959
 20
-0.0388965
 30
0.0
 11
1.09601
 21
0.94752
 31
0.0
  0
LINE
  5
4D2
  8
0
 10
1.09601
 20
0.94752
 30
0.0
 11
1.10307
 21
0.940453
 31
0.0
  0
LINE
  5
4D3
  8
0
 10
1.10307
 20
0.940453
 30
0.0
 11
0.116657
 21
-0.0459637
 31
0.0
  0
LINE
  5
4D4
  8
0
 10
-0.926308
 20
-1.11722
 30
0.0
 11
-0.933375
 21
-1.11015
 31
0.0
  0
LINE
  5
4D5
  8
0
 10
-0.933375
 20
-1.11015
 30
0.0
 11
0.0530416
 21
-0.123735
 31
0.0
  0
LINE
  5
4D6
  8
0
 10
0.0530416
 20
-0.123735
 30
0.0
 11
0.0601088
 21
-0.130802
 31
0.0
  0
LINE
  5
4D7
  8
0
 10
0.0601088
 20
-0.130802
 30
0.0
 11
-0.926308
 21
-1.11722
 31
0.0
  0
LINE
  5
4D8
  8
0
 10
0.130802
 20
-0.0601088
 30
0.0
 11
0.123735
 21
-0.0530416
 31
0.0
  0
LINE
  5
4D9
  8
0
 10
0.123735
 20
-0.0530416
 30
0.0
 11
1.11015
 21
0.933375
 31
0.0
  0
LINE
  5
4DA
  8
0
 10
1.11015
 20
0.933375
 30
0.0
 11
1.11722
 21
0.926308
 31
0.0
  0
LINE
  5
4DB
  8
0
 10
1.11722
 20
0.926308
 30
0.0
 11
0.130802
 21
-0.0601088
 31
0.0
  0
LINE
  5
4DC
  8
0
 10
-0.912163
 20
-1.13136
 30
0.0
 11
-0.919241
 21
-1.12429
 31
0.0
  0
LINE
  5
4DD
  8
0
 10
-0.919241
 20
-1.12429
 30
0.0
 11
0.067176
 21
-0.137869
 31
0.0
  0
LINE
  5
4DE
  8
0
 10
0.067176
 20
-0.137869
 30
0.0
 11
0.074254
 21
-0.144947
 31
0.0
  0
LINE
  5
4DF
  8
0
 10
0.074254
 20
-0.144947
 30
0.0
 11
-0.912163
 21
-1.13136
 31
0.0
  0
LINE
  5
4E0
  8
0
 10
0.144947
 20
-0.074254
 30
0.0
 11
0.137869
 21
-0.067176
 31
0.0
  0
LINE
  5
4E1
  8
0
 10
0.137869
 20
-0.067176
 30
0.0
 11
1.12429
 21
0.919241
 31
0.0
  0
LINE
  5
4E2
  8
0
 10
1.12429
 20
0.919241
 30
0.0
 11
1.13136
 21
0.912163
 31
0.0
  0
LINE
  5
4E3
  8
0
 10
1.13136
 20
0.912163
 30
0.0
 11
0.144947
 21
-0.074254
 31
0.0
  0
LINE
  5
4E4
  8
0
 10
-0.898029
 20
-1.1455
 30
0.0
 11
-0.905096
 21
-1.13843
 31
0.0
  0
LINE
  5
4E5
  8
0
 10
-0.905096
 20
-1.13843
 30
0.0
 11
0.0813212
 21
-0.152015
 31
0.0
  0
LINE
  5
4E6
  8
0
 10
0.0813212
 20
-0.152015
 30
0.0
 11
0.0883883
 21
-0.159082
 31
0.0
  0
LINE
  5
4E7
  8
0
 10
0.0883883
 20
-0.159082
 30
0.0
 11
-0.898029
 21
-1.1455
 31
0.0
  0
LINE
  5
4E8
  8
0
 10
0.159082
 20
-0.0883883
 30
0.0
 11
0.152015
 21
-0.0813212
 31
0.0
  0
LINE
  5
4E9
  8
0
 10
0.152015
 20
-0.0813212
 30
0.0
 11
1.13843
 21
0.905096
 31
0.0
  0
LINE
  5
4EA
  8
0
 10
1.13843
 20
0.905096
 30
0.0
 11
1.1455
 21
0.898029
 31
0.0
  0
LINE
  5
4EB
  8
0
 10
1.1455
 20
0.898029
 30
0.0
 11
0.159082
 21
-0.0883883
 31
0.0
  0
LINE
  5
4EC
  8
0
 10
-0.883883
 20
-1.15964
 30
0.0
 11
-0.890951
 21
-1.15258
 31
0.0
  0
LINE
  5
4ED
  8
0
 10
-0.890951
 20
-1.15258
 30
0.0
 11
0.0954663
 21
-0.16616
 31
0.0
  0
LINE
  5
4EE
  8
0
 10
0.0954663
 20
-0.16616
 30
0.0
 11
0.102534
 21
-0.173227
 31
0.0
  0
LINE
  5
4EF
  8
0
 10
0.102534
 20
-0.173227
 30
0.0
 11
-0.883883
 21
-1.15964
 31
0.0
  0
LINE
  5
4F0
  8
0
 10
0.173227
 20
-0.102534
 30
0.0
 11
0.16616
 21
-0.0954663
 31
0.0
  0
LINE
  5
4F1
  8
0
 10
0.16616
 20
-0.0954663
 30
0.0
 11
1.15258
 21
0.890951
 31
0.0
  0
LINE
  5
4F2
  8
0
 10
1.15258
 20
0.890951
 30
0.0
 11
1.15964
 21
0.883883
 31
0.0
  0
LINE
  5
4F3
  8
0
 10
1.15964
 20
0.883883
 30
0.0
 11
0.173227
 21
-0.102534
 31
0.0
  0
LINE
  5
4F4
  8
0
 10
-0.869738
 20
-1.17379
 30
0.0
 11
-0.876816
 21
-1.16671
 31
0.0
  0
LINE
  5
4F5
  8
0
 10
-0.876816
 20
-1.16671
 30
0.0
 11
0.109601
 21
-0.180294
 31
0.0
  0
LINE
  5
4F6
  8
0
 10
0.109601
 20
-0.180294
 30
0.0
 11
0.116679
 21
-0.187372
 31
0.0
  0
LINE
  5
4F7
  8
0
 10
0.116679
 20
-0.187372
 30
0.0
 11
-0.869738
 21
-1.17379
 31
0.0
  0
LINE
  5
4F8
  8
0
 10
0.187372
 20
-0.116679
 30
0.0
 11
0.180294
 21
-0.109601
 31
0.0
  0
LINE
  5
4F9
  8
0
 10
0.180294
 20
-0.109601
 30
0.0
 11
1.16671
 21
0.876816
 31
0.0
  0
LINE
  5
4FA
  8
0
 10
1.16671
 20
0.876816
 30
0.0
 11
1.17379
 21
0.869738
 31
0.0
  0
LINE
  5
4FB
  8
0
 10
1.17379
 20
0.869738
 30
0.0
 11
0.187372
 21
-0.116679
 31
0.0
  0
LINE
  5
4FC
  8
0
 10
-0.855604
 20
-1.18792
 30
0.0
 11
-0.862671
 21
-1.18086
 31
0.0
  0
LINE
  5
4FD
  8
0
 10
-0.862671
 20
-1.18086
 30
0.0
 11
0.123746
 21
-0.194439
 31
0.0
  0
LINE
  5
4FE
  8
0
 10
0.123746
 20
-0.194439
 30
0.0
 11
0.130813
 21
-0.201506
 31
0.0
  0
LINE
  5
4FF
  8
0
 10
0.130813
 20
-0.201506
 30
0.0
 11
-0.855604
 21
-1.18792
 31
0.0
  0
LINE
  5
500
  8
0
 10
0.201506
 20
-0.130813
 30
0.0
 11
0.194439
 21
-0.123746
 31
0.0
  0
LINE
  5
501
  8
0
 10
0.194439
 20
-0.123746
 30
0.0
 11
1.18086
 21
0.862671
 31
0.0
  0
LINE
  5
502
  8
0
 10
1.18086
 20
0.862671
 30
0.0
 11
1.18792
 21
0.855604
 31
0.0
  0
LINE
  5
503
  8
0
 10
1.18792
 20
0.855604
 30
0.0
 11
0.201506
 21
-0.130813
 31
0.0
  0
LINE
  5
504
  8
0
 10
-0.841459
 20
-1.20207
 30
0.0
 11
-0.848526
 21
-1.195
 31
0.0
  0
LINE
  5
505
  8
0
 10
-0.848526
 20
-1.195
 30
0.0
 11
0.137891
 21
-0.208584
 31
0.0
  0
LINE
  5
506
  8
0
 10
0.137891
 20
-0.208584
 30
0.0
 11
0.144958
 21
-0.215652
 31
0.0
  0
LINE
  5
507
  8
0
 10
0.144958
 20
-0.215652
 30
0.0
 11
-0.841459
 21
-1.20207
 31
0.0
  0
LINE
  5
508
  8
0
 10
0.215652
 20
-0.144958
 30
0.0
 11
0.208584
 21
-0.137891
 31
0.0
  0
LINE
  5
509
  8
0
 10
0.208584
 20
-0.137891
 30
0.0
 11
1.195
 21
0.848526
 31
0.0
  0
LINE
  5
50A
  8
0
 10
1.195
 20
0.848526
 30
0.0
 11
1.20207
 21
0.841459
 31
0.0
  0
LINE
  5
50B
  8
0
 10
1.20207
 20
0.841459
 30
0.0
 11
0.215652
 21
-0.144958
 31
0.0
  0
LINE
  5
50C
  8
0
 10
-0.827314
 20
-1.21621
 30
0.0
 11
-0.834381
 21
-1.20915
 31
0.0
  0
LINE
  5
50D
  8
0
 10
-0.834381
 20
-1.20915
 30
0.0
 11
0.152036
 21
-0.22273
 31
0.0
  0
LINE
  5
50E
  8
0
 10
0.152036
 20
-0.22273
 30
0.0
 11
0.159103
 21
-0.229797
 31
0.0
  0
LINE
  5
50F
  8
0
 10
0.159103
 20
-0.229797
 30
0.0
 11
-0.827314
 21
-1.21621
 31
0.0
  0
LINE
  5
510
  8
0
 10
0.229797
 20
-0.159103
 30
0.0
 11
0.22273
 21
-0.152036
 31
0.0
  0
LINE
  5
511
  8
0
 10
0.22273
 20
-0.152036
 30
0.0
 11
1.20915
 21
0.834381
 31
0.0
  0
LINE
  5
512
  8
0
 10
1.20915
 20
0.834381
 30
0.0
 11
1.21621
 21
0.827314
 31
0.0
  0
LINE
  5
513
  8
0
 10
1.21621
 20
0.827314
 30
0.0
 11
0.229797
 21
-0.159103
 31
0.0
  0
LINE
  5
514
  8
0
 10
-0.813168
 20
-1.23036
 30
0.0
 11
-0.820246
 21
-1.22328
 31
0.0
  0
LINE
  5
515
  8
0
 10
-0.820246
 20
-1.22328
 30
0.0
 11
0.166171
 21
-0.236864
 31
0.0
  0
LINE
  5
516
  8
0
 10
0.166171
 20
-0.236864
 30
0.0
 11
0.173248
 21
-0.243942
 31
0.0
  0
LINE
  5
517
  8
0
 10
0.173248
 20
-0.243942
 30
0.0
 11
-0.813168
 21
-1.23036
 31
0.0
  0
LINE
  5
518
  8
0
 10
0.243942
 20
-0.173248
 30
0.0
 11
0.236864
 21
-0.166171
 31
0.0
  0
LINE
  5
519
  8
0
 10
0.236864
 20
-0.166171
 30
0.0
 11
1.22328
 21
0.820246
 31
0.0
  0
LINE
  5
51A
  8
0
 10
1.22328
 20
0.820246
 30
0.0
 11
1.23036
 21
0.813168
 31
0.0
  0
LINE
  5
51B
  8
0
 10
1.23036
 20
0.813168
 30
0.0
 11
0.243942
 21
-0.173248
 31
0.0
  0
LINE
  5
51C
  8
0
 10
-0.799034
 20
-1.24449
 30
0.0
 11
-0.806101
 21
-1.23743
 31
0.0
  0
LINE
  5
51D
  8
0
 10
-0.806101
 20
-1.23743
 30
0.0
 11
0.180316
 21
-0.251009
 31
0.0
  0
LINE
  5
51E
  8
0
 10
0.180316
 20
-0.251009
 30
0.0
 11
0.187383
 21
-0.258076
 31
0.0
  0
LINE
  5
51F
  8
0
 10
0.187383
 20
-0.258076
 30
0.0
 11
-0.799034
 21
-1.24449
 31
0.0
  0
LINE
  5
520
  8
0
 10
0.258076
 20
-0.187383
 30
0.0
 11
0.251009
 21
-0.180316
 31
0.0
  0
LINE
  5
521
  8
0
 10
0.251009
 20
-0.180316
 30
0.0
 11
1.23743
 21
0.806101
 31
0.0
  0
LINE
  5
522
  8
0
 10
1.23743
 20
0.806101
 30
0.0
 11
1.24449
 21
0.799034
 31
0.0
  0
LINE
  5
523
  8
0
 10
1.24449
 20
0.799034
 30
0.0
 11
0.258076
 21
-0.187383
 31
0.0
  0
LINE
  5
524
  8
0
 10
-0.784889
 20
-1.25864
 30
0.0
 11
-0.791956
 21
-1.25157
 31
0.0
  0
LINE
  5
525
  8
0
 10
-0.791956
 20
-1.25157
 30
0.0
 11
0.194461
 21
-0.265154
 31
0.0
  0
LINE
  5
526
  8
0
 10
0.194461
 20
-0.265154
 30
0.0
 11
0.201528
 21
-0.272221
 31
0.0
  0
LINE
  5
527
  8
0
 10
0.201528
 20
-0.272221
 30
0.0
 11
-0.784889
 21
-1.25864
 31
0.0
  0
LINE
  5
528
  8
0
 10
0.272221
 20
-0.201528
 30
0.0
 11
0.265154
 21
-0.194461
 31
0.0
  0
LINE
  5
529
  8
0
 10
0.265154
 20
-0.194461
 30
0.0
 11
1.25157
 21
0.791956
 31
0.0
  0
LINE
  5
52A
  8
0
 10
1.25157
 20
0.791956
 30
0.0
 11
1.25864
 21
0.784889
 31
0.0
  0
LINE
  5
52B
  8
0
 10
1.25864
 20
0.784889
 30
0.0
 11
0.272221
 21
-0.201528
 31
0.0
  0
LINE
  5
52C
  8
0
 10
-0.770744
 20
-1.27278
 30
0.0
 11
-0.777822
 21
-1.26571
 31
0.0
  0
LINE
  5
52D
  8
0
 10
-0.777822
 20
-1.26571
 30
0.0
 11
0.208595
 21
-0.279289
 31
0.0
  0
LINE
  5
52E
  8
0
 10
0.208595
 20
-0.279289
 30
0.0
 11
0.215673
 21
-0.286367
 31
0.0
  0
LINE
  5
52F
  8
0
 10
0.215673
 20
-0.286367
 30
0.0
 11
-0.770744
 21
-1.27278
 31
0.0
  0
LINE
  5
530
  8
0
 10
0.286367
 20
-0.215673
 30
0.0
 11
0.279289
 21
-0.208595
 31
0.0
  0
LINE
  5
531
  8
0
 10
0.279289
 20
-0.208595
 30
0.0
 11
1.26571
 21
0.777822
 31
0.0
  0
LINE
  5
532
  8
0
 10
1.26571
 20
0.777822
 30
0.0
 11
1.27278
 21
0.770744
 31
0.0
  0
LINE
  5
533
  8
0
 10
1.27278
 20
0.770744
 30
0.0
 11
0.286367
 21
-0.215673
 31
0.0
  0
LINE
  5
534
  8
0
 10
-0.756599
 20
-1.28693
 30
0.0
 11
-0.763677
 21
-1.27985
 31
0.0
  0
LINE
  5
535
  8
0
 10
-0.763677
 20
-1.27985
 30
0.0
 11
0.22274
 21
-0.293434
 31
0.0
  0
LINE
  5
536
  8
0
 10
0.22274
 20
-0.293434
 30
0.0
 11
0.229818
 21
-0.300512
 31
0.0
  0
LINE
  5
537
  8
0
 10
0.229818
 20
-0.300512
 30
0.0
 11
-0.756599
 21
-1.28693
 31
0.0
  0
LINE
  5
538
  8
0
 10
0.300512
 20
-0.229818
 30
0.0
 11
0.293434
 21
-0.22274
 31
0.0
  0
LINE
  5
539
  8
0
 10
0.293434
 20
-0.22274
 30
0.0
 11
1.27985
 21
0.763677
 31
0.0
  0
LINE
  5
53A
  8
0
 10
1.27985
 20
0.763677
 30
0.0
 11
1.28693
 21
0.756599
 31
0.0
  0
LINE
  5
53B
  8
0
 10
1.28693
 20
0.756599
 30
0.0
 11
0.300512
 21
-0.229818
 31
0.0
  0
LINE
  5
53C
  8
0
 10
-0.742464
 20
-1.30106
 30
0.0
 11
-0.749531
 21
-1.294
 31
0.0
  0
LINE
  5
53D
  8
0
 10
-0.749531
 20
-1.294
 30
0.0
 11
0.236886
 21
-0.307579
 31
0.0
  0
LINE
  5
53E
  8
0
 10
0.236886
 20
-0.307579
 30
0.0
 11
0.243953
 21
-0.314646
 31
0.0
  0
LINE
  5
53F
  8
0
 10
0.243953
 20
-0.314646
 30
0.0
 11
-0.742464
 21
-1.30106
 31
0.0
  0
LINE
  5
540
  8
0
 10
0.314646
 20
-0.243953
 30
0.0
 11
0.307579
 21
-0.236886
 31
0.0
  0
LINE
  5
541
  8
0
 10
0.307579
 20
-0.236886
 30
0.0
 11
1.294
 21
0.749531
 31
0.0
  0
LINE
  5
542
  8
0
 10
1.294
 20
0.749531
 30
0.0
 11
1.30106
 21
0.742464
 31
0.0
  0
LINE
  5
543
  8
0
 10
1.30106
 20
0.742464
 30
0.0
 11
0.314646
 21
-0.243953
 31
0.0
  0
LINE
  5
544
  8
0
 10
-0.728319
 20
-1.31521
 30
0.0
 11
-0.735386
 21
-1.30814
 31
0.0
  0
LINE
  5
545
  8
0
 10
-0.735386
 20
-1.30814
 30
0.0
 11
0.251031
 21
-0.321724
 31
0.0
  0
LINE
  5
546
  8
0
 10
0.251031
 20
-0.321724
 30
0.0
 11
0.258098
 21
-0.328791
 31
0.0
  0
LINE
  5
547
  8
0
 10
0.258098
 20
-0.328791
 30
0.0
 11
-0.728319
 21
-1.31521
 31
0.0
  0
LINE
  5
548
  8
0
 10
0.328791
 20
-0.258098
 30
0.0
 11
0.321724
 21
-0.251031
 31
0.0
  0
LINE
  5
549
  8
0
 10
0.321724
 20
-0.251031
 30
0.0
 11
1.30814
 21
0.735386
 31
0.0
  0
LINE
  5
54A
  8
0
 10
1.30814
 20
0.735386
 30
0.0
 11
1.31521
 21
0.728319
 31
0.0
  0
LINE
  5
54B
  8
0
 10
1.31521
 20
0.728319
 30
0.0
 11
0.328791
 21
-0.258098
 31
0.0
  0
LINE
  5
54C
  8
0
 10
-0.714174
 20
-1.32935
 30
0.0
 11
-0.721252
 21
-1.32228
 31
0.0
  0
LINE
  5
54D
  8
0
 10
-0.721252
 20
-1.32228
 30
0.0
 11
0.265165
 21
-0.335858
 31
0.0
  0
LINE
  5
54E
  8
0
 10
0.265165
 20
-0.335858
 30
0.0
 11
0.272243
 21
-0.342936
 31
0.0
  0
LINE
  5
54F
  8
0
 10
0.272243
 20
-0.342936
 30
0.0
 11
-0.714174
 21
-1.32935
 31
0.0
  0
LINE
  5
550
  8
0
 10
0.342936
 20
-0.272243
 30
0.0
 11
0.335858
 21
-0.265165
 31
0.0
  0
LINE
  5
551
  8
0
 10
0.335858
 20
-0.265165
 30
0.0
 11
1.32228
 21
0.721252
 31
0.0
  0
LINE
  5
552
  8
0
 10
1.32228
 20
0.721252
 30
0.0
 11
1.32935
 21
0.714174
 31
0.0
  0
LINE
  5
553
  8
0
 10
1.32935
 20
0.714174
 30
0.0
 11
0.342936
 21
-0.272243
 31
0.0
  0
LINE
  5
554
  8
0
 10
-0.70004
 20
-1.34349
 30
0.0
 11
-0.707107
 21
-1.33642
 31
0.0
  0
LINE
  5
555
  8
0
 10
-0.707107
 20
-1.33642
 30
0.0
 11
0.27931
 21
-0.350004
 31
0.0
  0
LINE
  5
556
  8
0
 10
0.27931
 20
-0.350004
 30
0.0
 11
0.286377
 21
-0.357071
 31
0.0
  0
LINE
  5
557
  8
0
 10
0.286377
 20
-0.357071
 30
0.0
 11
-0.70004
 21
-1.34349
 31
0.0
  0
LINE
  5
558
  8
0
 10
0.357071
 20
-0.286377
 30
0.0
 11
0.350004
 21
-0.27931
 31
0.0
  0
LINE
  5
559
  8
0
 10
0.350004
 20
-0.27931
 30
0.0
 11
1.33642
 21
0.707107
 31
0.0
  0
LINE
  5
55A
  8
0
 10
1.33642
 20
0.707107
 30
0.0
 11
1.34349
 21
0.70004
 31
0.0
  0
LINE
  5
55B
  8
0
 10
1.34349
 20
0.70004
 30
0.0
 11
0.357071
 21
-0.286377
 31
0.0
  0
LINE
  5
55C
  8
0
 10
-0.685894
 20
-1.35763
 30
0.0
 11
-0.692962
 21
-1.35057
 31
0.0
  0
LINE
  5
55D
  8
0
 10
-0.692962
 20
-1.35057
 30
0.0
 11
0.293455
 21
-0.364149
 31
0.0
  0
LINE
  5
55E
  8
0
 10
0.293455
 20
-0.364149
 30
0.0
 11
0.300523
 21
-0.371216
 31
0.0
  0
LINE
  5
55F
  8
0
 10
0.300523
 20
-0.371216
 30
0.0
 11
-0.685894
 21
-1.35763
 31
0.0
  0
LINE
  5
560
  8
0
 10
0.371216
 20
-0.300523
 30
0.0
 11
0.364149
 21
-0.293455
 31
0.0
  0
LINE
  5
561
  8
0
 10
0.364149
 20
-0.293455
 30
0.0
 11
1.35057
 21
0.692962
 31
0.0
  0
LINE
  5
562
  8
0
 10
1.35057
 20
0.692962
 30
0.0
 11
1.35763
 21
0.685894
 31
0.0
  0
LINE
  5
563
  8
0
 10
1.35763
 20
0.685894
 30
0.0
 11
0.371216
 21
-0.300523
 31
0.0
  0
LINE
  5
564
  8
0
 10
-0.671749
 20
-1.37178
 30
0.0
 11
-0.678827
 21
-1.3647
 31
0.0
  0
LINE
  5
565
  8
0
 10
-0.678827
 20
-1.3647
 30
0.0
 11
0.30759
 21
-0.378283
 31
0.0
  0
LINE
  5
566
  8
0
 10
0.30759
 20
-0.378283
 30
0.0
 11
0.314668
 21
-0.385361
 31
0.0
  0
LINE
  5
567
  8
0
 10
0.314668
 20
-0.385361
 30
0.0
 11
-0.671749
 21
-1.37178
 31
0.0
  0
LINE
  5
568
  8
0
 10
0.385361
 20
-0.314668
 30
0.0
 11
0.378283
 21
-0.30759
 31
0.0
  0
LINE
  5
569
  8
0
 10
0.378283
 20
-0.30759
 30
0.0
 11
1.3647
 21
0.678827
 31
0.0
  0
LINE
  5
56A
  8
0
 10
1.3647
 20
0.678827
 30
0.0
 11
1.37178
 21
0.671749
 31
0.0
  0
LINE
  5
56B
  8
0
 10
1.37178
 20
0.671749
 30
0.0
 11
0.385361
 21
-0.314668
 31
0.0
  0
LINE
  5
56C
  8
0
 10
-0.657604
 20
-1.38592
 30
0.0
 11
-0.664682
 21
-1.37885
 31
0.0
  0
LINE
  5
56D
  8
0
 10
-0.664682
 20
-1.37885
 30
0.0
 11
0.321735
 21
-0.392428
 31
0.0
  0
LINE
  5
56E
  8
0
 10
0.321735
 20
-0.392428
 30
0.0
 11
0.328813
 21
-0.399506
 31
0.0
  0
LINE
  5
56F
  8
0
 10
0.328813
 20
-0.399506
 30
0.0
 11
-0.657604
 21
-1.38592
 31
0.0
  0
LINE
  5
570
  8
0
 10
0.399506
 20
-0.328813
 30
0.0
 11
0.392428
 21
-0.321735
 31
0.0
  0
LINE
  5
571
  8
0
 10
0.392428
 20
-0.321735
 30
0.0
 11
1.37885
 21
0.664682
 31
0.0
  0
LINE
  5
572
  8
0
 10
1.37885
 20
0.664682
 30
0.0
 11
1.38592
 21
0.657604
 31
0.0
  0
LINE
  5
573
  8
0
 10
1.38592
 20
0.657604
 30
0.0
 11
0.399506
 21
-0.328813
 31
0.0
  0
LINE
  5
574
  8
0
 10
-0.64347
 20
-1.40006
 30
0.0
 11
-0.650537
 21
-1.39299
 31
0.0
  0
LINE
  5
575
  8
0
 10
-0.650537
 20
-1.39299
 30
0.0
 11
0.33588
 21
-0.406573
 31
0.0
  0
LINE
  5
576
  8
0
 10
0.33588
 20
-0.406573
 30
0.0
 11
0.342947
 21
-0.413641
 31
0.0
  0
LINE
  5
577
  8
0
 10
0.342947
 20
-0.413641
 30
0.0
 11
-0.64347
 21
-1.40006
 31
0.0
  0
LINE
  5
578
  8
0
 10
0.413641
 20
-0.342947
 30
0.0
 11
0.406573
 21
-0.33588
 31
0.0
  0
LINE
  5
579
  8
0
 10
0.406573
 20
-0.33588
 30
0.0
 11
1.39299
 21
0.650537
 31
0.0
  0
LINE
  5
57A
  8
0
 10
1.39299
 20
0.650537
 30
0.0
 11
1.40006
 21
0.64347
 31
0.0
  0
LINE
  5
57B
  8
0
 10
1.40006
 20
0.64347
 30
0.0
 11
0.413641
 21
-0.342947
 31
0.0
  0
LINE
  5
57C
  8
0
 10
-0.629325
 20
-1.4142
 30
0.0
 11
-0.636392
 21
-1.40714
 31
0.0
  0
LINE
  5
57D
  8
0
 10
-0.636392
 20
-1.40714
 30
0.0
 11
0.350025
 21
-0.420719
 31
0.0
  0
LINE
  5
57E
  8
0
 10
0.350025
 20
-0.420719
 30
0.0
 11
0.357092
 21
-0.427786
 31
0.0
  0
LINE
  5
57F
  8
0
 10
0.357092
 20
-0.427786
 30
0.0
 11
-0.629325
 21
-1.4142
 31
0.0
  0
LINE
  5
580
  8
0
 10
0.427786
 20
-0.357092
 30
0.0
 11
0.420719
 21
-0.350025
 31
0.0
  0
LINE
  5
581
  8
0
 10
0.420719
 20
-0.350025
 30
0.0
 11
1.40714
 21
0.636392
 31
0.0
  0
LINE
  5
582
  8
0
 10
1.40714
 20
0.636392
 30
0.0
 11
1.4142
 21
0.629325
 31
0.0
  0
LINE
  5
583
  8
0
 10
1.4142
 20
0.629325
 30
0.0
 11
0.427786
 21
-0.357092
 31
0.0
  0
LINE
  5
584
  8
0
 10
-0.615179
 20
-1.42835
 30
0.0
 11
-0.622257
 21
-1.42127
 31
0.0
  0
LINE
  5
585
  8
0
 10
-0.622257
 20
-1.42127
 30
0.0
 11
0.36416
 21
-0.434853
 31
0.0
  0
LINE
  5
586
  8
0
 10
0.36416
 20
-0.434853
 30
0.0
 11
0.371238
 21
-0.441931
 31
0.0
  0
LINE
  5
587
  8
0
 10
0.371238
 20
-0.441931
 30
0.0
 11
-0.615179
 21
-1.42835
 31
0.0
  0
LINE
  5
588
  8
0
 10
0.441931
 20
-0.371238
 30
0.0
 11
0.434853
 21
-0.36416
 31
0.0
  0
LINE
  5
589
  8
0
 10
0.434853
 20
-0.36416
 30
0.0
 11
1.42127
 21
0.622257
 31
0.0
  0
LINE
  5
58A
  8
0
 10
1.42127
 20
0.622257
 30
0.0
 11
1.42835
 21
0.615179
 31
0.0
  0
LINE
  5
58B
  8
0
 10
1.42835
 20
0.615179
 30
0.0
 11
0.441931
 21
-0.371238
 31
0.0
  0
LINE
  5
58C
  8
0
 10
-0.601045
 20
-1.44248
 30
0.0
 11
-0.608112
 21
-1.43542
 31
0.0
  0
LINE
  5
58D
  8
0
 10
-0.608112
 20
-1.43542
 30
0.0
 11
0.378305
 21
-0.448998
 31
0.0
  0
LINE
  5
58E
  8
0
 10
0.378305
 20
-0.448998
 30
0.0
 11
0.385372
 21
-0.456065
 31
0.0
  0
LINE
  5
58F
  8
0
 10
0.385372
 20
-0.456065
 30
0.0
 11
-0.601045
 21
-1.44248
 31
0.0
  0
LINE
  5
590
  8
0
 10
0.456065
 20
-0.385372
 30
0.0
 11
0.448998
 21
-0.378305
 31
0.0
  0
LINE
  5
591
  8
0
 10
0.448998
 20
-0.378305
 30
0.0
 11
1.43542
 21
0.608112
 31
0.0
  0
LINE
  5
592
  8
0
 10
1.43542
 20
0.608112
 30
0.0
 11
1.44248
 21
0.601045
 31
0.0
  0
LINE
  5
593
  8
0
 10
1.44248
 20
0.601045
 30
0.0
 11
0.456065
 21
-0.385372
 31
0.0
  0
LINE
  5
594
  8
0
 10
-0.5869
 20
-1.45663
 30
0.0
 11
-0.593967
 21
-1.44956
 31
0.0
  0
LINE
  5
595
  8
0
 10
-0.593967
 20
-1.44956
 30
0.0
 11
0.39245
 21
-0.463143
 31
0.0
  0
LINE
  5
596
  8
0
 10
0.39245
 20
-0.463143
 30
0.0
 11
0.399517
 21
-0.47021
 31
0.0
  0
LINE
  5
597
  8
0
 10
0.399517
 20
-0.47021
 30
0.0
 11
-0.5869
 21
-1.45663
 31
0.0
  0
LINE
  5
598
  8
0
 10
0.47021
 20
-0.399517
 30
0.0
 11
0.463143
 21
-0.39245
 31
0.0
  0
LINE
  5
599
  8
0
 10
0.463143
 20
-0.39245
 30
0.0
 11
1.44956
 21
0.593967
 31
0.0
  0
LINE
  5
59A
  8
0
 10
1.44956
 20
0.593967
 30
0.0
 11
1.45663
 21
0.5869
 31
0.0
  0
LINE
  5
59B
  8
0
 10
1.45663
 20
0.5869
 30
0.0
 11
0.47021
 21
-0.399517
 31
0.0
  0
LINE
  5
59C
  8
0
 10
-0.572755
 20
-1.47077
 30
0.0
 11
-0.579822
 21
-1.46371
 31
0.0
  0
LINE
  5
59D
  8
0
 10
-0.579822
 20
-1.46371
 30
0.0
 11
0.406595
 21
-0.477288
 31
0.0
  0
LINE
  5
59E
  8
0
 10
0.406595
 20
-0.477288
 30
0.0
 11
0.413662
 21
-0.484356
 31
0.0
  0
LINE
  5
59F
  8
0
 10
0.413662
 20
-0.484356
 30
0.0
 11
-0.572755
 21
-1.47077
 31
0.0
  0
LINE
  5
5A0
  8
0
 10
0.484356
 20
-0.413662
 30
0.0
 11
0.477288
 21
-0.406595
 31
0.0
  0
LINE
  5
5A1
  8
0
 10
0.477288
 20
-0.406595
 30
0.0
 11
1.46371
 21
0.579822
 31
0.0
  0
LINE
  5
5A2
  8
0
 10
1.46371
 20
0.579822
 30
0.0
 11
1.47077
 21
0.572755
 31
0.0
  0
LINE
  5
5A3
  8
0
 10
1.47077
 20
0.572755
 30
0.0
 11
0.484356
 21
-0.413662
 31
0.0
  0
LINE
  5
5A4
  8
0
 10
-0.55861
 20
-1.48492
 30
0.0
 11
-0.565688
 21
-1.47784
 31
0.0
  0
LINE
  5
5A5
  8
0
 10
-0.565688
 20
-1.47784
 30
0.0
 11
0.420729
 21
-0.491423
 31
0.0
  0
LINE
  5
5A6
  8
0
 10
0.420729
 20
-0.491423
 30
0.0
 11
0.427807
 21
-0.498501
 31
0.0
  0
LINE
  5
5A7
  8
0
 10
0.427807
 20
-0.498501
 30
0.0
 11
-0.55861
 21
-1.48492
 31
0.0
  0
LINE
  5
5A8
  8
0
 10
0.498501
 20
-0.427807
 30
0.0
 11
0.491423
 21
-0.420729
 31
0.0
  0
LINE
  5
5A9
  8
0
 10
0.491423
 20
-0.420729
 30
0.0
 11
1.47784
 21
0.565688
 31
0.0
  0
LINE
  5
5AA
  8
0
 10
1.47784
 20
0.565688
 30
0.0
 11
1.48492
 21
0.55861
 31
0.0
  0
LINE
  5
5AB
  8
0
 10
1.48492
 20
0.55861
 30
0.0
 11
0.498501
 21
-0.427807
 31
0.0
  0
LINE
  5
5AC
  8
0
 10
-0.544475
 20
-1.49905
 30
0.0
 11
-0.551542
 21
-1.49198
 31
0.0
  0
LINE
  5
5AD
  8
0
 10
-0.551542
 20
-1.49198
 30
0.0
 11
0.434875
 21
-0.505568
 31
0.0
  0
LINE
  5
5AE
  8
0
 10
0.434875
 20
-0.505568
 30
0.0
 11
0.441942
 21
-0.512635
 31
0.0
  0
LINE
  5
5AF
  8
0
 10
0.441942
 20
-0.512635
 30
0.0
 11
-0.544475
 21
-1.49905
 31
0.0
  0
LINE
  5
5B0
  8
0
 10
0.512635
 20
-0.441942
 30
0.0
 11
0.505568
 21
-0.434875
 31
0.0
  0
LINE
  5
5B1
  8
0
 10
0.505568
 20
-0.434875
 30
0.0
 11
1.49198
 21
0.551542
 31
0.0
  0
LINE
  5
5B2
  8
0
 10
1.49198
 20
0.551542
 30
0.0
 11
1.49905
 21
0.544475
 31
0.0
  0
LINE
  5
5B3
  8
0
 10
1.49905
 20
0.544475
 30
0.0
 11
0.512635
 21
-0.441942
 31
0.0
  0
LINE
  5
5B4
  8
0
 10
-0.53033
 20
-1.5132
 30
0.0
 11
-0.537397
 21
-1.50613
 31
0.0
  0
LINE
  5
5B5
  8
0
 10
-0.537397
 20
-1.50613
 30
0.0
 11
0.44902
 21
-0.519713
 31
0.0
  0
LINE
  5
5B6
  8
0
 10
0.44902
 20
-0.519713
 30
0.0
 11
0.456087
 21
-0.52678
 31
0.0
  0
LINE
  5
5B7
  8
0
 10
0.456087
 20
-0.52678
 30
0.0
 11
-0.53033
 21
-1.5132
 31
0.0
  0
LINE
  5
5B8
  8
0
 10
0.52678
 20
-0.456087
 30
0.0
 11
0.519713
 21
-0.44902
 31
0.0
  0
LINE
  5
5B9
  8
0
 10
0.519713
 20
-0.44902
 30
0.0
 11
1.50613
 21
0.537397
 31
0.0
  0
LINE
  5
5BA
  8
0
 10
1.50613
 20
0.537397
 30
0.0
 11
1.5132
 21
0.53033
 31
0.0
  0
LINE
  5
5BB
  8
0
 10
1.5132
 20
0.53033
 30
0.0
 11
0.52678
 21
-0.456087
 31
0.0
  0
LINE
  5
5BC
  8
0
 10
-0.516185
 20
-1.52734
 30
0.0
 11
-0.523263
 21
-1.52026
 31
0.0
  0
LINE
  5
5BD
  8
0
 10
-0.523263
 20
-1.52026
 30
0.0
 11
0.463154
 21
-0.533847
 31
0.0
  0
LINE
  5
5BE
  8
0
 10
0.463154
 20
-0.533847
 30
0.0
 11
0.470232
 21
-0.540925
 31
0.0
  0
LINE
  5
5BF
  8
0
 10
0.470232
 20
-0.540925
 30
0.0
 11
-0.516185
 21
-1.52734
 31
0.0
  0
LINE
  5
5C0
  8
0
 10
0.540925
 20
-0.470232
 30
0.0
 11
0.533847
 21
-0.463154
 31
0.0
  0
LINE
  5
5C1
  8
0
 10
0.533847
 20
-0.463154
 30
0.0
 11
1.52026
 21
0.523263
 31
0.0
  0
LINE
  5
5C2
  8
0
 10
1.52026
 20
0.523263
 30
0.0
 11
1.52734
 21
0.516185
 31
0.0
  0
LINE
  5
5C3
  8
0
 10
1.52734
 20
0.516185
 30
0.0
 11
0.540925
 21
-0.470232
 31
0.0
  0
LINE
  5
5C4
  8
0
 10
-0.502051
 20
-1.54148
 30
0.0
 11
-0.509118
 21
-1.53441
 31
0.0
  0
LINE
  5
5C5
  8
0
 10
-0.509118
 20
-1.53441
 30
0.0
 11
0.477299
 21
-0.547993
 31
0.0
  0
LINE
  5
5C6
  8
0
 10
0.477299
 20
-0.547993
 30
0.0
 11
0.484366
 21
-0.55506
 31
0.0
  0
LINE
  5
5C7
  8
0
 10
0.484366
 20
-0.55506
 30
0.0
 11
-0.502051
 21
-1.54148
 31
0.0
  0
LINE
  5
5C8
  8
0
 10
0.55506
 20
-0.484366
 30
0.0
 11
0.547993
 21
-0.477299
 31
0.0
  0
LINE
  5
5C9
  8
0
 10
0.547993
 20
-0.477299
 30
0.0
 11
1.53441
 21
0.509118
 31
0.0
  0
LINE
  5
5CA
  8
0
 10
1.53441
 20
0.509118
 30
0.0
 11
1.54148
 21
0.502051
 31
0.0
  0
LINE
  5
5CB
  8
0
 10
1.54148
 20
0.502051
 30
0.0
 11
0.55506
 21
-0.484366
 31
0.0
  0
LINE
  5
5CC
  8
0
 10
-0.487905
 20
-1.55562
 30
0.0
 11
-0.494973
 21
-1.54855
 31
0.0
  0
LINE
  5
5CD
  8
0
 10
-0.494973
 20
-1.54855
 30
0.0
 11
0.491444
 21
-0.562138
 31
0.0
  0
LINE
  5
5CE
  8
0
 10
0.491444
 20
-0.562138
 30
0.0
 11
0.498512
 21
-0.569205
 31
0.0
  0
LINE
  5
5CF
  8
0
 10
0.498512
 20
-0.569205
 30
0.0
 11
-0.487905
 21
-1.55562
 31
0.0
  0
LINE
  5
5D0
  8
0
 10
0.569205
 20
-0.498512
 30
0.0
 11
0.562138
 21
-0.491444
 31
0.0
  0
LINE
  5
5D1
  8
0
 10
0.562138
 20
-0.491444
 30
0.0
 11
1.54855
 21
0.494973
 31
0.0
  0
LINE
  5
5D2
  8
0
 10
1.54855
 20
0.494973
 30
0.0
 11
1.55562
 21
0.487905
 31
0.0
  0
LINE
  5
5D3
  8
0
 10
1.55562
 20
0.487905
 30
0.0
 11
0.569205
 21
-0.498512
 31
0.0
  0
LINE
  5
5D4
  8
0
 10
-0.47376
 20
-1.56977
 30
0.0
 11
-0.480827
 21
-1.5627
 31
0.0
  0
LINE
  5
5D5
  8
0
 10
-0.480827
 20
-1.5627
 30
0.0
 11
0.50559
 21
-0.576283
 31
0.0
  0
LINE
  5
5D6
  8
0
 10
0.50559
 20
-0.576283
 30
0.0
 11
0.512657
 21
-0.58335
 31
0.0
  0
LINE
  5
5D7
  8
0
 10
0.512657
 20
-0.58335
 30
0.0
 11
-0.47376
 21
-1.56977
 31
0.0
  0
LINE
  5
5D8
  8
0
 10
0.58335
 20
-0.512657
 30
0.0
 11
0.576283
 21
-0.50559
 31
0.0
  0
LINE
  5
5D9
  8
0
 10
0.576283
 20
-0.50559
 30
0.0
 11
1.5627
 21
0.480827
 31
0.0
  0
LINE
  5
5DA
  8
0
 10
1.5627
 20
0.480827
 30
0.0
 11
1.56977
 21
0.47376
 31
0.0
  0
LINE
  5
5DB
  8
0
 10
1.56977
 20
0.47376
 30
0.0
 11
0.58335
 21
-0.512657
 31
0.0
  0
LINE
  5
5DC
  8
0
 10
-0.459615
 20
-1.58391
 30
0.0
 11
-0.466693
 21
-1.57683
 31
0.0
  0
LINE
  5
5DD
  8
0
 10
-0.466693
 20
-1.57683
 30
0.0
 11
0.519724
 21
-0.590417
 31
0.0
  0
LINE
  5
5DE
  8
0
 10
0.519724
 20
-0.590417
 30
0.0
 11
0.526802
 21
-0.597495
 31
0.0
  0
LINE
  5
5DF
  8
0
 10
0.526802
 20
-0.597495
 30
0.0
 11
-0.459615
 21
-1.58391
 31
0.0
  0
LINE
  5
5E0
  8
0
 10
0.597495
 20
-0.526802
 30
0.0
 11
0.590417
 21
-0.519724
 31
0.0
  0
LINE
  5
5E1
  8
0
 10
0.590417
 20
-0.519724
 30
0.0
 11
1.57683
 21
0.466693
 31
0.0
  0
LINE
  5
5E2
  8
0
 10
1.57683
 20
0.466693
 30
0.0
 11
1.58391
 21
0.459615
 31
0.0
  0
LINE
  5
5E3
  8
0
 10
1.58391
 20
0.459615
 30
0.0
 11
0.597495
 21
-0.526802
 31
0.0
  0
LINE
  5
5E4
  8
0
 10
-0.445481
 20
-1.59805
 30
0.0
 11
-0.452548
 21
-1.59098
 31
0.0
  0
LINE
  5
5E5
  8
0
 10
-0.452548
 20
-1.59098
 30
0.0
 11
0.533869
 21
-0.604562
 31
0.0
  0
LINE
  5
5E6
  8
0
 10
0.533869
 20
-0.604562
 30
0.0
 11
0.540936
 21
-0.61163
 31
0.0
  0
LINE
  5
5E7
  8
0
 10
0.540936
 20
-0.61163
 30
0.0
 11
-0.445481
 21
-1.59805
 31
0.0
  0
LINE
  5
5E8
  8
0
 10
0.61163
 20
-0.540936
 30
0.0
 11
0.604562
 21
-0.533869
 31
0.0
  0
LINE
  5
5E9
  8
0
 10
0.604562
 20
-0.533869
 30
0.0
 11
1.59098
 21
0.452548
 31
0.0
  0
LINE
  5
5EA
  8
0
 10
1.59098
 20
0.452548
 30
0.0
 11
1.59805
 21
0.445481
 31
0.0
  0
LINE
  5
5EB
  8
0
 10
1.59805
 20
0.445481
 30
0.0
 11
0.61163
 21
-0.540936
 31
0.0
  0
LINE
  5
5EC
  8
0
 10
-0.431336
 20
-1.61219
 30
0.0
 11
-0.438403
 21
-1.60512
 31
0.0
  0
LINE
  5
5ED
  8
0
 10
-0.438403
 20
-1.60512
 30
0.0
 11
0.548014
 21
-0.618708
 31
0.0
  0
LINE
  5
5EE
  8
0
 10
0.548014
 20
-0.618708
 30
0.0
 11
0.555081
 21
-0.625775
 31
0.0
  0
LINE
  5
5EF
  8
0
 10
0.555081
 20
-0.625775
 30
0.0
 11
-0.431336
 21
-1.61219
 31
0.0
  0
LINE
  5
5F0
  8
0
 10
0.625775
 20
-0.555081
 30
0.0
 11
0.618708
 21
-0.548014
 31
0.0
  0
LINE
  5
5F1
  8
0
 10
0.618708
 20
-0.548014
 30
0.0
 11
1.60512
 21
0.438403
 31
0.0
  0
LINE
  5
5F2
  8
0
 10
1.60512
 20
0.438403
 30
0.0
 11
1.61219
 21
0.431336
 31
0.0
  0
LINE
  5
5F3
  8
0
 10
1.61219
 20
0.431336
 30
0.0
 11
0.625775
 21
-0.555081
 31
0.0
  0
LINE
  5
5F4
  8
0
 10
-0.41719
 20
-1.62634
 30
0.0
 11
-0.424268
 21
-1.61926
 31
0.0
  0
LINE
  5
5F5
  8
0
 10
-0.424268
 20
-1.61926
 30
0.0
 11
0.562149
 21
-0.632842
 31
0.0
  0
LINE
  5
5F6
  8
0
 10
0.562149
 20
-0.632842
 30
0.0
 11
0.569227
 21
-0.63992
 31
0.0
  0
LINE
  5
5F7
  8
0
 10
0.569227
 20
-0.63992
 30
0.0
 11
-0.41719
 21
-1.62634
 31
0.0
  0
LINE
  5
5F8
  8
0
 10
0.63992
 20
-0.569227
 30
0.0
 11
0.632842
 21
-0.562149
 31
0.0
  0
LINE
  5
5F9
  8
0
 10
0.632842
 20
-0.562149
 30
0.0
 11
1.61926
 21
0.424268
 31
0.0
  0
LINE
  5
5FA
  8
0
 10
1.61926
 20
0.424268
 30
0.0
 11
1.62634
 21
0.41719
 31
0.0
  0
LINE
  5
5FB
  8
0
 10
1.62634
 20
0.41719
 30
0.0
 11
0.63992
 21
-0.569227
 31
0.0
  0
LINE
  5
5FC
  8
0
 10
-0.403045
 20
-1.64048
 30
0.0
 11
-0.410123
 21
-1.6334
 31
0.0
  0
LINE
  5
5FD
  8
0
 10
-0.410123
 20
-1.6334
 30
0.0
 11
0.576294
 21
-0.646987
 31
0.0
  0
LINE
  5
5FE
  8
0
 10
0.576294
 20
-0.646987
 30
0.0
 11
0.583372
 21
-0.654065
 31
0.0
  0
LINE
  5
5FF
  8
0
 10
0.583372
 20
-0.654065
 30
0.0
 11
-0.403045
 21
-1.64048
 31
0.0
  0
LINE
  5
600
  8
0
 10
0.654065
 20
-0.583372
 30
0.0
 11
0.646987
 21
-0.576294
 31
0.0
  0
LINE
  5
601
  8
0
 10
0.646987
 20
-0.576294
 30
0.0
 11
1.6334
 21
0.410123
 31
0.0
  0
LINE
  5
602
  8
0
 10
1.6334
 20
0.410123
 30
0.0
 11
1.64048
 21
0.403045
 31
0.0
  0
LINE
  5
603
  8
0
 10
1.64048
 20
0.403045
 30
0.0
 11
0.654065
 21
-0.583372
 31
0.0
  0
LINE
  5
604
  8
0
 10
-0.388911
 20
-1.65462
 30
0.0
 11
-0.395978
 21
-1.64755
 31
0.0
  0
LINE
  5
605
  8
0
 10
-0.395978
 20
-1.64755
 30
0.0
 11
0.590439
 21
-0.661132
 31
0.0
  0
LINE
  5
606
  8
0
 10
0.590439
 20
-0.661132
 30
0.0
 11
0.597506
 21
-0.6682
 31
0.0
  0
LINE
  5
607
  8
0
 10
0.597506
 20
-0.6682
 30
0.0
 11
-0.388911
 21
-1.65462
 31
0.0
  0
LINE
  5
608
  8
0
 10
0.6682
 20
-0.597506
 30
0.0
 11
0.661132
 21
-0.590439
 31
0.0
  0
LINE
  5
609
  8
0
 10
0.661132
 20
-0.590439
 30
0.0
 11
1.64755
 21
0.395978
 31
0.0
  0
LINE
  5
60A
  8
0
 10
1.64755
 20
0.395978
 30
0.0
 11
1.65462
 21
0.388911
 31
0.0
  0
LINE
  5
60B
  8
0
 10
1.65462
 20
0.388911
 30
0.0
 11
0.6682
 21
-0.597506
 31
0.0
  0
LINE
  5
60C
  8
0
 10
-0.374766
 20
-1.66876
 30
0.0
 11
-0.381833
 21
-1.66169
 31
0.0
  0
LINE
  5
60D
  8
0
 10
-0.381833
 20
-1.66169
 30
0.0
 11
0.604584
 21
-0.675277
 31
0.0
  0
LINE
  5
60E
  8
0
 10
0.604584
 20
-0.675277
 30
0.0
 11
0.611651
 21
-0.682345
 31
0.0
  0
LINE
  5
60F
  8
0
 10
0.611651
 20
-0.682345
 30
0.0
 11
-0.374766
 21
-1.66876
 31
0.0
  0
LINE
  5
610
  8
0
 10
0.682345
 20
-0.611651
 30
0.0
 11
0.675277
 21
-0.604584
 31
0.0
  0
LINE
  5
611
  8
0
 10
0.675277
 20
-0.604584
 30
0.0
 11
1.66169
 21
0.381833
 31
0.0
  0
LINE
  5
612
  8
0
 10
1.66169
 20
0.381833
 30
0.0
 11
1.66876
 21
0.374766
 31
0.0
  0
LINE
  5
613
  8
0
 10
1.66876
 20
0.374766
 30
0.0
 11
0.682345
 21
-0.611651
 31
0.0
  0
LINE
  5
614
  8
0
 10
-0.360621
 20
-1.68291
 30
0.0
 11
-0.367699
 21
-1.67583
 31
0.0
  0
LINE
  5
615
  8
0
 10
-0.367699
 20
-1.67583
 30
0.0
 11
0.618718
 21
-0.689412
 31
0.0
  0
LINE
  5
616
  8
0
 10
0.618718
 20
-0.689412
 30
0.0
 11
0.625796
 21
-0.69649
 31
0.0
  0
LINE
  5
617
  8
0
 10
0.625796
 20
-0.69649
 30
0.0
 11
-0.360621
 21
-1.68291
 31
0.0
  0
LINE
  5
618
  8
0
 10
0.69649
 20
-0.625796
 30
0.0
 11
0.689412
 21
-0.618718
 31
0.0
  0
LINE
  5
619
  8
0
 10
0.689412
 20
-0.618718
 30
0.0
 11
1.67583
 21
0.367699
 31
0.0
  0
LINE
  5
61A
  8
0
 10
1.67583
 20
0.367699
 30
0.0
 11
1.68291
 21
0.360621
 31
0.0
  0
LINE
  5
61B
  8
0
 10
1.68291
 20
0.360621
 30
0.0
 11
0.69649
 21
-0.625796
 31
0.0
  0
LINE
  5
61C
  8
0
 10
-0.346486
 20
-1.69704
 30
0.0
 11
-0.353553
 21
-1.68997
 31
0.0
  0
LINE
  5
61D
  8
0
 10
-0.353553
 20
-1.68997
 30
0.0
 11
0.632864
 21
-0.703557
 31
0.0
  0
LINE
  5
61E
  8
0
 10
0.632864
 20
-0.703557
 30
0.0
 11
0.639931
 21
-0.710624
 31
0.0
  0
LINE
  5
61F
  8
0
 10
0.639931
 20
-0.710624
 30
0.0
 11
-0.346486
 21
-1.69704
 31
0.0
  0
LINE
  5
620
  8
0
 10
0.710624
 20
-0.639931
 30
0.0
 11
0.703557
 21
-0.632864
 31
0.0
  0
LINE
  5
621
  8
0
 10
0.703557
 20
-0.632864
 30
0.0
 11
1.68997
 21
0.353553
 31
0.0
  0
LINE
  5
622
  8
0
 10
1.68997
 20
0.353553
 30
0.0
 11
1.69704
 21
0.346486
 31
0.0
  0
LINE
  5
623
  8
0
 10
1.69704
 20
0.346486
 30
0.0
 11
0.710624
 21
-0.639931
 31
0.0
  0
LINE
  5
624
  8
0
 10
-0.332341
 20
-1.71119
 30
0.0
 11
-0.339408
 21
-1.70412
 31
0.0
  0
LINE
  5
625
  8
0
 10
-0.339408
 20
-1.70412
 30
0.0
 11
0.647009
 21
-0.717702
 31
0.0
  0
LINE
  5
626
  8
0
 10
0.647009
 20
-0.717702
 30
0.0
 11
0.654076
 21
-0.724769
 31
0.0
  0
LINE
  5
627
  8
0
 10
0.654076
 20
-0.724769
 30
0.0
 11
-0.332341
 21
-1.71119
 31
0.0
  0
LINE
  5
628
  8
0
 10
0.724769
 20
-0.654076
 30
0.0
 11
0.717702
 21
-0.647009
 31
0.0
  0
LINE
  5
629
  8
0
 10
0.717702
 20
-0.647009
 30
0.0
 11
1.70412
 21
0.339408
 31
0.0
  0
LINE
  5
62A
  8
0
 10
1.70412
 20
0.339408
 30
0.0
 11
1.71119
 21
0.332341
 31
0.0
  0
LINE
  5
62B
  8
0
 10
1.71119
 20
0.332341
 30
0.0
 11
0.724769
 21
-0.654076
 31
0.0
  0
LINE
  5
62C
  8
0
 10
-0.318196
 20
-1.72533
 30
0.0
 11
-0.325274
 21
-1.71825
 31
0.0
  0
LINE
  5
62D
  8
0
 10
-0.325274
 20
-1.71825
 30
0.0
 11
0.661143
 21
-0.731837
 31
0.0
  0
LINE
  5
62E
  8
0
 10
0.661143
 20
-0.731837
 30
0.0
 11
0.668221
 21
-0.738915
 31
0.0
  0
LINE
  5
62F
  8
0
 10
0.668221
 20
-0.738915
 30
0.0
 11
-0.318196
 21
-1.72533
 31
0.0
  0
LINE
  5
630
  8
0
 10
0.738915
 20
-0.668221
 30
0.0
 11
0.731837
 21
-0.661143
 31
0.0
  0
LINE
  5
631
  8
0
 10
0.731837
 20
-0.661143
 30
0.0
 11
1.71825
 21
0.325274
 31
0.0
  0
LINE
  5
632
  8
0
 10
1.71825
 20
0.325274
 30
0.0
 11
1.72533
 21
0.318196
 31
0.0
  0
LINE
  5
633
  8
0
 10
1.72533
 20
0.318196
 30
0.0
 11
0.738915
 21
-0.668221
 31
0.0
  0
LINE
  5
634
  8
0
 10
-0.304051
 20
-1.73948
 30
0.0
 11
-0.311129
 21
-1.7324
 31
0.0
  0
LINE
  5
635
  8
0
 10
-0.311129
 20
-1.7324
 30
0.0
 11
0.675288
 21
-0.745982
 31
0.0
  0
LINE
  5
636
  8
0
 10
0.675288
 20
-0.745982
 30
0.0
 11
0.682366
 21
-0.75306
 31
0.0
  0
LINE
  5
637
  8
0
 10
0.682366
 20
-0.75306
 30
0.0
 11
-0.304051
 21
-1.73948
 31
0.0
  0
LINE
  5
638
  8
0
 10
0.75306
 20
-0.682366
 30
0.0
 11
0.745982
 21
-0.675288
 31
0.0
  0
LINE
  5
639
  8
0
 10
0.745982
 20
-0.675288
 30
0.0
 11
1.7324
 21
0.311129
 31
0.0
  0
LINE
  5
63A
  8
0
 10
1.7324
 20
0.311129
 30
0.0
 11
1.73948
 21
0.304051
 31
0.0
  0
LINE
  5
63B
  8
0
 10
1.73948
 20
0.304051
 30
0.0
 11
0.75306
 21
-0.682366
 31
0.0
  0
LINE
  5
63C
  8
0
 10
-0.289916
 20
-1.75361
 30
0.0
 11
-0.296984
 21
-1.74654
 31
0.0
  0
LINE
  5
63D
  8
0
 10
-0.296984
 20
-1.74654
 30
0.0
 11
0.689433
 21
-0.760127
 31
0.0
  0
LINE
  5
63E
  8
0
 10
0.689433
 20
-0.760127
 30
0.0
 11
0.696501
 21
-0.767194
 31
0.0
  0
LINE
  5
63F
  8
0
 10
0.696501
 20
-0.767194
 30
0.0
 11
-0.289916
 21
-1.75361
 31
0.0
  0
LINE
  5
640
  8
0
 10
0.767194
 20
-0.696501
 30
0.0
 11
0.760127
 21
-0.689433
 31
0.0
  0
LINE
  5
641
  8
0
 10
0.760127
 20
-0.689433
 30
0.0
 11
1.74654
 21
0.296984
 31
0.0
  0
LINE
  5
642
  8
0
 10
1.74654
 20
0.296984
 30
0.0
 11
1.75361
 21
0.289916
 31
0.0
  0
LINE
  5
643
  8
0
 10
1.75361
 20
0.289916
 30
0.0
 11
0.767194
 21
-0.696501
 31
0.0
  0
LINE
  5
644
  8
0
 10
-0.275771
 20
-1.76776
 30
0.0
 11
-0.282838
 21
-1.76069
 31
0.0
  0
LINE
  5
645
  8
0
 10
-0.282838
 20
-1.76069
 30
0.0
 11
0.703579
 21
-0.774272
 31
0.0
  0
LINE
  5
646
  8
0
 10
0.703579
 20
-0.774272
 30
0.0
 11
0.710646
 21
-0.781339
 31
0.0
  0
LINE
  5
647
  8
0
 10
0.710646
 20
-0.781339
 30
0.0
 11
-0.275771
 21
-1.76776
 31
0.0
  0
LINE
  5
648
  8
0
 10
0.781339
 20
-0.710646
 30
0.0
 11
0.774272
 21
-0.703579
 31
0.0
  0
LINE
  5
649
  8
0
 10
0.774272
 20
-0.703579
 30
0.0
 11
1.76069
 21
0.282838
 31
0.0
  0
LINE
  5
64A
  8
0
 10
1.76069
 20
0.282838
 30
0.0
 11
1.76776
 21
0.275771
 31
0.0
  0
LINE
  5
64B
  8
0
 10
1.76776
 20
0.275771
 30
0.0
 11
0.781339
 21
-0.710646
 31
0.0
  0
LINE
  5
64C
  8
0
 10
-0.261626
 20
-1.7819
 30
0.0
 11
-0.268704
 21
-1.77482
 31
0.0
  0
LINE
  5
64D
  8
0
 10
-0.268704
 20
-1.77482
 30
0.0
 11
0.717713
 21
-0.788406
 31
0.0
  0
LINE
  5
64E
  8
0
 10
0.717713
 20
-0.788406
 30
0.0
 11
0.724791
 21
-0.795484
 31
0.0
  0
LINE
  5
64F
  8
0
 10
0.724791
 20
-0.795484
 30
0.0
 11
-0.261626
 21
-1.7819
 31
0.0
  0
LINE
  5
650
  8
0
 10
0.795484
 20
-0.724791
 30
0.0
 11
0.788406
 21
-0.717713
 31
0.0
  0
LINE
  5
651
  8
0
 10
0.788406
 20
-0.717713
 30
0.0
 11
1.77482
 21
0.268704
 31
0.0
  0
LINE
  5
652
  8
0
 10
1.77482
 20
0.268704
 30
0.0
 11
1.7819
 21
0.261626
 31
0.0
  0
LINE
  5
653
  8
0
 10
1.7819
 20
0.261626
 30
0.0
 11
0.795484
 21
-0.724791
 31
0.0
  0
LINE
  5
654
  8
0
 10
-0.247492
 20
-1.79604
 30
0.0
 11
-0.254559
 21
-1.78897
 31
0.0
  0
LINE
  5
655
  8
0
 10
-0.254559
 20
-1.78897
 30
0.0
 11
0.731858
 21
-0.802552
 31
0.0
  0
LINE
  5
656
  8
0
 10
0.731858
 20
-0.802552
 30
0.0
 11
0.738925
 21
-0.809619
 31
0.0
  0
LINE
  5
657
  8
0
 10
0.738925
 20
-0.809619
 30
0.0
 11
-0.247492
 21
-1.79604
 31
0.0
  0
LINE
  5
658
  8
0
 10
0.809619
 20
-0.738925
 30
0.0
 11
0.802552
 21
-0.731858
 31
0.0
  0
LINE
  5
659
  8
0
 10
0.802552
 20
-0.731858
 30
0.0
 11
1.78897
 21
0.254559
 31
0.0
  0
LINE
  5
65A
  8
0
 10
1.78897
 20
0.254559
 30
0.0
 11
1.79604
 21
0.247492
 31
0.0
  0
LINE
  5
65B
  8
0
 10
1.79604
 20
0.247492
 30
0.0
 11
0.809619
 21
-0.738925
 31
0.0
  0
LINE
  5
65C
  8
0
 10
-0.233347
 20
-1.81018
 30
0.0
 11
-0.240414
 21
-1.80311
 31
0.0
  0
LINE
  5
65D
  8
0
 10
-0.240414
 20
-1.80311
 30
0.0
 11
0.746003
 21
-0.816697
 31
0.0
  0
LINE
  5
65E
  8
0
 10
0.746003
 20
-0.816697
 30
0.0
 11
0.75307
 21
-0.823764
 31
0.0
  0
LINE
  5
65F
  8
0
 10
0.75307
 20
-0.823764
 30
0.0
 11
-0.233347
 21
-1.81018
 31
0.0
  0
LINE
  5
660
  8
0
 10
0.823764
 20
-0.75307
 30
0.0
 11
0.816697
 21
-0.746003
 31
0.0
  0
LINE
  5
661
  8
0
 10
0.816697
 20
-0.746003
 30
0.0
 11
1.80311
 21
0.240414
 31
0.0
  0
LINE
  5
662
  8
0
 10
1.80311
 20
0.240414
 30
0.0
 11
1.81018
 21
0.233347
 31
0.0
  0
LINE
  5
663
  8
0
 10
1.81018
 20
0.233347
 30
0.0
 11
0.823764
 21
-0.75307
 31
0.0
  0
LINE
  5
664
  8
0
 10
-0.219201
 20
-1.82433
 30
0.0
 11
-0.226269
 21
-1.81726
 31
0.0
  0
LINE
  5
665
  8
0
 10
-0.226269
 20
-1.81726
 30
0.0
 11
0.760148
 21
-0.830842
 31
0.0
  0
LINE
  5
666
  8
0
 10
0.760148
 20
-0.830842
 30
0.0
 11
0.767216
 21
-0.837909
 31
0.0
  0
LINE
  5
667
  8
0
 10
0.767216
 20
-0.837909
 30
0.0
 11
-0.219201
 21
-1.82433
 31
0.0
  0
LINE
  5
668
  8
0
 10
0.837909
 20
-0.767216
 30
0.0
 11
0.830842
 21
-0.760148
 31
0.0
  0
LINE
  5
669
  8
0
 10
0.830842
 20
-0.760148
 30
0.0
 11
1.81726
 21
0.226269
 31
0.0
  0
LINE
  5
66A
  8
0
 10
1.81726
 20
0.226269
 30
0.0
 11
1.82433
 21
0.219201
 31
0.0
  0
LINE
  5
66B
  8
0
 10
1.82433
 20
0.219201
 30
0.0
 11
0.837909
 21
-0.767216
 31
0.0
  0
LINE
  5
66C
  8
0
 10
-0.205056
 20
-1.83847
 30
0.0
 11
-0.212134
 21
-1.83139
 31
0.0
  0
LINE
  5
66D
  8
0
 10
-0.212134
 20
-1.83139
 30
0.0
 11
0.774283
 21
-0.844976
 31
0.0
  0
LINE
  5
66E
  8
0
 10
0.774283
 20
-0.844976
 30
0.0
 11
0.781361
 21
-0.852054
 31
0.0
  0
LINE
  5
66F
  8
0
 10
0.781361
 20
-0.852054
 30
0.0
 11
-0.205056
 21
-1.83847
 31
0.0
  0
LINE
  5
670
  8
0
 10
0.852054
 20
-0.781361
 30
0.0
 11
0.844976
 21
-0.774283
 31
0.0
  0
LINE
  5
671
  8
0
 10
0.844976
 20
-0.774283
 30
0.0
 11
1.83139
 21
0.212134
 31
0.0
  0
LINE
  5
672
  8
0
 10
1.83139
 20
0.212134
 30
0.0
 11
1.83847
 21
0.205056
 31
0.0
  0
LINE
  5
673
  8
0
 10
1.83847
 20
0.205056
 30
0.0
 11
0.852054
 21
-0.781361
 31
0.0
  0
LINE
  5
674
  8
0
 10
-0.190922
 20
-1.85261
 30
0.0
 11
-0.197989
 21
-1.84554
 31
0.0
  0
LINE
  5
675
  8
0
 10
-0.197989
 20
-1.84554
 30
0.0
 11
0.788428
 21
-0.859121
 31
0.0
  0
LINE
  5
676
  8
0
 10
0.788428
 20
-0.859121
 30
0.0
 11
0.795495
 21
-0.866189
 31
0.0
  0
LINE
  5
677
  8
0
 10
0.795495
 20
-0.866189
 30
0.0
 11
-0.190922
 21
-1.85261
 31
0.0
  0
LINE
  5
678
  8
0
 10
0.866189
 20
-0.795495
 30
0.0
 11
0.859121
 21
-0.788428
 31
0.0
  0
LINE
  5
679
  8
0
 10
0.859121
 20
-0.788428
 30
0.0
 11
1.84554
 21
0.197989
 31
0.0
  0
LINE
  5
67A
  8
0
 10
1.84554
 20
0.197989
 30
0.0
 11
1.85261
 21
0.190922
 31
0.0
  0
LINE
  5
67B
  8
0
 10
1.85261
 20
0.190922
 30
0.0
 11
0.866189
 21
-0.795495
 31
0.0
  0
LINE
  5
67C
  8
0
 10
-0.176777
 20
-1.86675
 30
0.0
 11
-0.183844
 21
-1.85968
 31
0.0
  0
LINE
  5
67D
  8
0
 10
-0.183844
 20
-1.85968
 30
0.0
 11
0.802573
 21
-0.873267
 31
0.0
  0
LINE
  5
67E
  8
0
 10
0.802573
 20
-0.873267
 30
0.0
 11
0.80964
 21
-0.880334
 31
0.0
  0
LINE
  5
67F
  8
0
 10
0.80964
 20
-0.880334
 30
0.0
 11
-0.176777
 21
-1.86675
 31
0.0
  0
LINE
  5
680
  8
0
 10
0.880334
 20
-0.80964
 30
0.0
 11
0.873267
 21
-0.802573
 31
0.0
  0
LINE
  5
681
  8
0
 10
0.873267
 20
-0.802573
 30
0.0
 11
1.85968
 21
0.183844
 31
0.0
  0
LINE
  5
682
  8
0
 10
1.85968
 20
0.183844
 30
0.0
 11
1.86675
 21
0.176777
 31
0.0
  0
LINE
  5
683
  8
0
 10
1.86675
 20
0.176777
 30
0.0
 11
0.880334
 21
-0.80964
 31
0.0
  0
LINE
  5
684
  8
0
 10
-0.162632
 20
-1.8809
 30
0.0
 11
-0.16971
 21
-1.87382
 31
0.0
  0
LINE
  5
685
  8
0
 10
-0.16971
 20
-1.87382
 30
0.0
 11
0.816707
 21
-0.887401
 31
0.0
  0
LINE
  5
686
  8
0
 10
0.816707
 20
-0.887401
 30
0.0
 11
0.823785
 21
-0.894479
 31
0.0
  0
LINE
  5
687
  8
0
 10
0.823785
 20
-0.894479
 30
0.0
 11
-0.162632
 21
-1.8809
 31
0.0
  0
LINE
  5
688
  8
0
 10
0.894479
 20
-0.823785
 30
0.0
 11
0.887401
 21
-0.816707
 31
0.0
  0
LINE
  5
689
  8
0
 10
0.887401
 20
-0.816707
 30
0.0
 11
1.87382
 21
0.16971
 31
0.0
  0
LINE
  5
68A
  8
0
 10
1.87382
 20
0.16971
 30
0.0
 11
1.8809
 21
0.162632
 31
0.0
  0
LINE
  5
68B
  8
0
 10
1.8809
 20
0.162632
 30
0.0
 11
0.894479
 21
-0.823785
 31
0.0
  0
LINE
  5
68C
  8
0
 10
-0.148497
 20
-1.89503
 30
0.0
 11
-0.155564
 21
-1.88796
 31
0.0
  0
LINE
  5
68D
  8
0
 10
-0.155564
 20
-1.88796
 30
0.0
 11
0.830853
 21
-0.901546
 31
0.0
  0
LINE
  5
68E
  8
0
 10
0.830853
 20
-0.901546
 30
0.0
 11
0.83792
 21
-0.908613
 31
0.0
  0
LINE
  5
68F
  8
0
 10
0.83792
 20
-0.908613
 30
0.0
 11
-0.148497
 21
-1.89503
 31
0.0
  0
LINE
  5
690
  8
0
 10
0.908613
 20
-0.83792
 30
0.0
 11
0.901546
 21
-0.830853
 31
0.0
  0
LINE
  5
691
  8
0
 10
0.901546
 20
-0.830853
 30
0.0
 11
1.88796
 21
0.155564
 31
0.0
  0
LINE
  5
692
  8
0
 10
1.88796
 20
0.155564
 30
0.0
 11
1.89503
 21
0.148497
 31
0.0
  0
LINE
  5
693
  8
0
 10
1.89503
 20
0.148497
 30
0.0
 11
0.908613
 21
-0.83792
 31
0.0
  0
LINE
  5
694
  8
0
 10
-0.134352
 20
-1.90918
 30
0.0
 11
-0.141419
 21
-1.90211
 31
0.0
  0
LINE
  5
695
  8
0
 10
-0.141419
 20
-1.90211
 30
0.0
 11
0.844998
 21
-0.915691
 31
0.0
  0
LINE
  5
696
  8
0
 10
0.844998
 20
-0.915691
 30
0.0
 11
0.852065
 21
-0.922758
 31
0.0
  0
LINE
  5
697
  8
0
 10
0.852065
 20
-0.922758
 30
0.0
 11
-0.134352
 21
-1.90918
 31
0.0
  0
LINE
  5
698
  8
0
 10
0.922758
 20
-0.852065
 30
0.0
 11
0.915691
 21
-0.844998
 31
0.0
  0
LINE
  5
699
  8
0
 10
0.915691
 20
-0.844998
 30
0.0
 11
1.90211
 21
0.141419
 31
0.0
  0
LINE
  5
69A
  8
0
 10
1.90211
 20
0.141419
 30
0.0
 11
1.90918
 21
0.134352
 31
0.0
  0
LINE
  5
69B
  8
0
 10
1.90918
 20
0.134352
 30
0.0
 11
0.922758
 21
-0.852065
 31
0.0
  0
LINE
  5
69C
  8
0
 10
-0.120207
 20
-1.92332
 30
0.0
 11
-0.127274
 21
-1.91625
 31
0.0
  0
LINE
  5
69D
  8
0
 10
-0.127274
 20
-1.91625
 30
0.0
 11
0.859143
 21
-0.929836
 31
0.0
  0
LINE
  5
69E
  8
0
 10
0.859143
 20
-0.929836
 30
0.0
 11
0.86621
 21
-0.936904
 31
0.0
  0
LINE
  5
69F
  8
0
 10
0.86621
 20
-0.936904
 30
0.0
 11
-0.120207
 21
-1.92332
 31
0.0
  0
LINE
  5
6A0
  8
0
 10
0.936904
 20
-0.86621
 30
0.0
 11
0.929836
 21
-0.859143
 31
0.0
  0
LINE
  5
6A1
  8
0
 10
0.929836
 20
-0.859143
 30
0.0
 11
1.91625
 21
0.127274
 31
0.0
  0
LINE
  5
6A2
  8
0
 10
1.91625
 20
0.127274
 30
0.0
 11
1.92332
 21
0.120207
 31
0.0
  0
LINE
  5
6A3
  8
0
 10
1.92332
 20
0.120207
 30
0.0
 11
0.936904
 21
-0.86621
 31
0.0
  0
LINE
  5
6A4
  8
0
 10
-0.106062
 20
-1.93747
 30
0.0
 11
-0.11314
 21
-1.93039
 31
0.0
  0
LINE
  5
6A5
  8
0
 10
-0.11314
 20
-1.93039
 30
0.0
 11
0.873277
 21
-0.943971
 31
0.0
  0
LINE
  5
6A6
  8
0
 10
0.873277
 20
-0.943971
 30
0.0
 11
0.880355
 21
-0.951049
 31
0.0
  0
LINE
  5
6A7
  8
0
 10
0.880355
 20
-0.951049
 30
0.0
 11
-0.106062
 21
-1.93747
 31
0.0
  0
LINE
  5
6A8
  8
0
 10
0.951049
 20
-0.880355
 30
0.0
 11
0.943971
 21
-0.873277
 31
0.0
  0
LINE
  5
6A9
  8
0
 10
0.943971
 20
-0.873277
 30
0.0
 11
1.93039
 21
0.11314
 31
0.0
  0
LINE
  5
6AA
  8
0
 10
1.93039
 20
0.11314
 30
0.0
 11
1.93747
 21
0.106062
 31
0.0
  0
LINE
  5
6AB
  8
0
 10
1.93747
 20
0.106062
 30
0.0
 11
0.951049
 21
-0.880355
 31
0.0
  0
LINE
  5
6AC
  8
0
 10
-0.0919273
 20
-1.9516
 30
0.0
 11
-0.0989945
 21
-1.94453
 31
0.0
  0
LINE
  5
6AD
  8
0
 10
-0.0989945
 20
-1.94453
 30
0.0
 11
0.887422
 21
-0.958116
 31
0.0
  0
LINE
  5
6AE
  8
0
 10
0.887422
 20
-0.958116
 30
0.0
 11
0.89449
 21
-0.965183
 31
0.0
  0
LINE
  5
6AF
  8
0
 10
0.89449
 20
-0.965183
 30
0.0
 11
-0.0919273
 21
-1.9516
 31
0.0
  0
LINE
  5
6B0
  8
0
 10
0.965183
 20
-0.89449
 30
0.0
 11
0.958116
 21
-0.887422
 31
0.0
  0
LINE
  5
6B1
  8
0
 10
0.958116
 20
-0.887422
 30
0.0
 11
1.94453
 21
0.0989945
 31
0.0
  0
LINE
  5
6B2
  8
0
 10
1.94453
 20
0.0989945
 30
0.0
 11
1.9516
 21
0.0919273
 31
0.0
  0
LINE
  5
6B3
  8
0
 10
1.9516
 20
0.0919273
 30
0.0
 11
0.965183
 21
-0.89449
 31
0.0
  0
LINE
  5
6B4
  8
0
 10
-0.0777822
 20
-1.96575
 30
0.0
 11
-0.0848494
 21
-1.95868
 31
0.0
  0
LINE
  5
6B5
  8
0
 10
-0.0848494
 20
-1.95868
 30
0.0
 11
0.901568
 21
-0.972261
 31
0.0
  0
LINE
  5
6B6
  8
0
 10
0.901568
 20
-0.972261
 30
0.0
 11
0.908635
 21
-0.979328
 31
0.0
  0
LINE
  5
6B7
  8
0
 10
0.908635
 20
-0.979328
 30
0.0
 11
-0.0777822
 21
-1.96575
 31
0.0
  0
LINE
  5
6B8
  8
0
 10
0.979328
 20
-0.908635
 30
0.0
 11
0.972261
 21
-0.901568
 31
0.0
  0
LINE
  5
6B9
  8
0
 10
0.972261
 20
-0.901568
 30
0.0
 11
1.95868
 21
0.0848494
 31
0.0
  0
LINE
  5
6BA
  8
0
 10
1.95868
 20
0.0848494
 30
0.0
 11
1.96575
 21
0.0777822
 31
0.0
  0
LINE
  5
6BB
  8
0
 10
1.96575
 20
0.0777822
 30
0.0
 11
0.979328
 21
-0.908635
 31
0.0
  0
LINE
  5
6BC
  8
0
 10
-0.063637
 20
-1.97989
 30
0.0
 11
-0.070715
 21
-1.97281
 31
0.0
  0
LINE
  5
6BD
  8
0
 10
-0.070715
 20
-1.97281
 30
0.0
 11
0.915702
 21
-0.986395
 31
0.0
  0
LINE
  5
6BE
  8
0
 10
0.915702
 20
-0.986395
 30
0.0
 11
0.92278
 21
-0.993473
 31
0.0
  0
LINE
  5
6BF
  8
0
 10
0.92278
 20
-0.993473
 30
0.0
 11
-0.063637
 21
-1.97989
 31
0.0
  0
LINE
  5
6C0
  8
0
 10
0.993473
 20
-0.92278
 30
0.0
 11
0.986395
 21
-0.915702
 31
0.0
  0
LINE
  5
6C1
  8
0
 10
0.986395
 20
-0.915702
 30
0.0
 11
1.97281
 21
0.070715
 31
0.0
  0
LINE
  5
6C2
  8
0
 10
1.97281
 20
0.070715
 30
0.0
 11
1.97989
 21
0.063637
 31
0.0
  0
LINE
  5
6C3
  8
0
 10
1.97989
 20
0.063637
 30
0.0
 11
0.993473
 21
-0.92278
 31
0.0
  0
LINE
  5
6C4
  8
0
 10
-0.0494919
 20
-1.99404
 30
0.0
 11
-0.0565698
 21
-1.98696
 31
0.0
  0
LINE
  5
6C5
  8
0
 10
-0.0565698
 20
-1.98696
 30
0.0
 11
0.929847
 21
-1.00054
 31
0.0
  0
LINE
  5
6C6
  8
0
 10
0.929847
 20
-1.00054
 30
0.0
 11
0.936925
 21
-1.00762
 31
0.0
  0
LINE
  5
6C7
  8
0
 10
0.936925
 20
-1.00762
 30
0.0
 11
-0.0494919
 21
-1.99404
 31
0.0
  0
LINE
  5
6C8
  8
0
 10
1.00762
 20
-0.936925
 30
0.0
 11
1.00054
 21
-0.929847
 31
0.0
  0
LINE
  5
6C9
  8
0
 10
1.00054
 20
-0.929847
 30
0.0
 11
1.98696
 21
0.0565698
 31
0.0
  0
LINE
  5
6CA
  8
0
 10
1.98696
 20
0.0565698
 30
0.0
 11
1.99404
 21
0.0494919
 31
0.0
  0
LINE
  5
6CB
  8
0
 10
1.99404
 20
0.0494919
 30
0.0
 11
1.00762
 21
-0.936925
 31
0.0
  0
LINE
  5
6CC
  8
0
 10
-0.0353575
 20
-2.00817
 30
0.0
 11
-0.0424247
 21
-2.0011
 31
0.0
  0
LINE
  5
6CD
  8
0
 10
-0.0424247
 20
-2.0011
 30
0.0
 11
0.943992
 21
-1.01469
 31
0.0
  0
LINE
  5
6CE
  8
0
 10
0.943992
 20
-1.01469
 30
0.0
 11
0.951059
 21
-1.02175
 31
0.0
  0
LINE
  5
6CF
  8
0
 10
0.951059
 20
-1.02175
 30
0.0
 11
-0.0353575
 21
-2.00817
 31
0.0
  0
LINE
  5
6D0
  8
0
 10
1.02175
 20
-0.951059
 30
0.0
 11
1.01469
 21
-0.943992
 31
0.0
  0
LINE
  5
6D1
  8
0
 10
1.01469
 20
-0.943992
 30
0.0
 11
2.0011
 21
0.0424247
 31
0.0
  0
LINE
  5
6D2
  8
0
 10
2.0011
 20
0.0424247
 30
0.0
 11
2.00817
 21
0.0353575
 31
0.0
  0
LINE
  5
6D3
  8
0
 10
2.00817
 20
0.0353575
 30
0.0
 11
1.02175
 21
-0.951059
 31
0.0
  0
LINE
  5
6D4
  8
0
 10
-0.0212123
 20
-2.02232
 30
0.0
 11
-0.0282795
 21
-2.01525
 31
0.0
  0
LINE
  5
6D5
  8
0
 10
-0.0282795
 20
-2.01525
 30
0.0
 11
0.958137
 21
-1.02883
 31
0.0
  0
LINE
  5
6D6
  8
0
 10
0.958137
 20
-1.02883
 30
0.0
 11
0.965205
 21
-1.0359
 31
0.0
  0
LINE
  5
6D7
  8
0
 10
0.965205
 20
-1.0359
 30
0.0
 11
-0.0212123
 21
-2.02232
 31
0.0
  0
LINE
  5
6D8
  8
0
 10
1.0359
 20
-0.965205
 30
0.0
 11
1.02883
 21
-0.958137
 31
0.0
  0
LINE
  5
6D9
  8
0
 10
1.02883
 20
-0.958137
 30
0.0
 11
2.01525
 21
0.0282795
 31
0.0
  0
LINE
  5
6DA
  8
0
 10
2.01525
 20
0.0282795
 30
0.0
 11
2.02232
 21
0.0212123
 31
0.0
  0
LINE
  5
6DB
  8
0
 10
2.02232
 20
0.0212123
 30
0.0
 11
1.0359
 21
-0.965205
 31
0.0
  0
LINE
  5
6DC
  8
0
 10
-0.00706718
 20
-2.03646
 30
0.0
 11
-0.0141452
 21
-2.02938
 31
0.0
  0
LINE
  5
6DD
  8
0
 10
-0.0141452
 20
-2.02938
 30
0.0
 11
0.972272
 21
-1.04297
 31
0.0
  0
LINE
  5
6DE
  8
0
 10
0.972272
 20
-1.04297
 30
0.0
 11
0.97935
 21
-1.05004
 31
0.0
  0
LINE
  5
6DF
  8
0
 10
0.97935
 20
-1.05004
 30
0.0
 11
-0.00706718
 21
-2.03646
 31
0.0
  0
LINE
  5
6E0
  8
0
 10
1.05004
 20
-0.97935
 30
0.0
 11
1.04297
 21
-0.972272
 31
0.0
  0
LINE
  5
6E1
  8
0
 10
1.04297
 20
-0.972272
 30
0.0
 11
2.02938
 21
0.0141452
 31
0.0
  0
LINE
  5
6E2
  8
0
 10
2.02938
 20
0.0141452
 30
0.0
 11
2.03646
 21
0.00706718
 31
0.0
  0
LINE
  5
6E3
  8
0
 10
2.03646
 20
0.00706718
 30
0.0
 11
1.05004
 21
-0.97935
 31
0.0
  0
LINE
  5
6E4
  8
0
 10
0.00706718
 20
-2.05059
 30
0.0
 11
0.0
 21
-2.04353
 31
0.0
  0
LINE
  5
6E5
  8
0
 10
0.0
 20
-2.04353
 30
0.0
 11
0.986417
 21
-1.05711
 31
0.0
  0
LINE
  5
6E6
  8
0
 10
0.986417
 20
-1.05711
 30
0.0
 11
0.993484
 21
-1.06418
 31
0.0
  0
LINE
  5
6E7
  8
0
 10
0.993484
 20
-1.06418
 30
0.0
 11
0.00706718
 21
-2.05059
 31
0.0
  0
LINE
  5
6E8
  8
0
 10
1.06418
 20
-0.993484
 30
0.0
 11
1.05711
 21
-0.986417
 31
0.0
  0
LINE
  5
6E9
  8
0
 10
1.05711
 20
-0.986417
 30
0.0
 11
2.04353
 21
0.0
 31
0.0
  0
LINE
  5
6EA
  8
0
 10
2.04353
 20
0.0
 30
0.0
 11
2.05059
 21
-0.00706718
 31
0.0
  0
LINE
  5
6EB
  8
0
 10
2.05059
 20
-0.00706718
 30
0.0
 11
1.06418
 21
-0.993484
 31
0.0
  0
LINE
  5
6EC
  8
0
 10
0.0212123
 20
-2.06474
 30
0.0
 11
0.0141452
 21
-2.05767
 31
0.0
  0
LINE
  5
6ED
  8
0
 10
0.0141452
 20
-2.05767
 30
0.0
 11
1.00056
 21
-1.07126
 31
0.0
  0
LINE
  5
6EE
  8
0
 10
1.00056
 20
-1.07126
 30
0.0
 11
1.00763
 21
-1.07832
 31
0.0
  0
LINE
  5
6EF
  8
0
 10
1.00763
 20
-1.07832
 30
0.0
 11
0.0212123
 21
-2.06474
 31
0.0
  0
LINE
  5
6F0
  8
0
 10
1.07832
 20
-1.00763
 30
0.0
 11
1.07126
 21
-1.00056
 31
0.0
  0
LINE
  5
6F1
  8
0
 10
1.07126
 20
-1.00056
 30
0.0
 11
2.05767
 21
-0.0141452
 31
0.0
  0
LINE
  5
6F2
  8
0
 10
2.05767
 20
-0.0141452
 30
0.0
 11
2.06474
 21
-0.0212123
 31
0.0
  0
LINE
  5
6F3
  8
0
 10
2.06474
 20
-0.0212123
 30
0.0
 11
1.07832
 21
-1.00763
 31
0.0
  0
LINE
  5
6F4
  8
0
 10
0.0353575
 20
-2.07888
 30
0.0
 11
0.0282795
 21
-2.07181
 31
0.0
  0
LINE
  5
6F5
  8
0
 10
0.0282795
 20
-2.07181
 30
0.0
 11
1.0147
 21
-1.08539
 31
0.0
  0
LINE
  5
6F6
  8
0
 10
1.0147
 20
-1.08539
 30
0.0
 11
1.02177
 21
-1.09247
 31
0.0
  0
LINE
  5
6F7
  8
0
 10
1.02177
 20
-1.09247
 30
0.0
 11
0.0353575
 21
-2.07888
 31
0.0
  0
LINE
  5
6F8
  8
0
 10
1.09247
 20
-1.02177
 30
0.0
 11
1.08539
 21
-1.0147
 31
0.0
  0
LINE
  5
6F9
  8
0
 10
1.08539
 20
-1.0147
 30
0.0
 11
2.07181
 21
-0.0282795
 31
0.0
  0
LINE
  5
6FA
  8
0
 10
2.07181
 20
-0.0282795
 30
0.0
 11
2.07888
 21
-0.0353575
 31
0.0
  0
LINE
  5
6FB
  8
0
 10
2.07888
 20
-0.0353575
 30
0.0
 11
1.09247
 21
-1.02177
 31
0.0
  0
LINE
  5
6FC
  8
0
 10
0.0495027
 20
-2.09303
 30
0.0
 11
0.0424247
 21
-2.08595
 31
0.0
  0
LINE
  5
6FD
  8
0
 10
0.0424247
 20
-2.08595
 30
0.0
 11
1.02884
 21
-1.09954
 31
0.0
  0
LINE
  5
6FE
  8
0
 10
1.02884
 20
-1.09954
 30
0.0
 11
1.03592
 21
-1.10661
 31
0.0
  0
LINE
  5
6FF
  8
0
 10
1.03592
 20
-1.10661
 30
0.0
 11
0.0495027
 21
-2.09303
 31
0.0
  0
LINE
  5
700
  8
0
 10
1.10661
 20
-1.03592
 30
0.0
 11
1.09954
 21
-1.02884
 31
0.0
  0
LINE
  5
701
  8
0
 10
1.09954
 20
-1.02884
 30
0.0
 11
2.08595
 21
-0.0424247
 31
0.0
  0
LINE
  5
702
  8
0
 10
2.08595
 20
-0.0424247
 30
0.0
 11
2.09303
 21
-0.0495027
 31
0.0
  0
LINE
  5
703
  8
0
 10
2.09303
 20
-0.0495027
 30
0.0
 11
1.10661
 21
-1.03592
 31
0.0
  0
LINE
  5
704
  8
0
 10
0.063637
 20
-2.10716
 30
0.0
 11
0.0565698
 21
-2.1001
 31
0.0
  0
LINE
  5
705
  8
0
 10
0.0565698
 20
-2.1001
 30
0.0
 11
1.04299
 21
-1.11368
 31
0.0
  0
LINE
  5
706
  8
0
 10
1.04299
 20
-1.11368
 30
0.0
 11
1.05005
 21
-1.12075
 31
0.0
  0
LINE
  5
707
  8
0
 10
1.05005
 20
-1.12075
 30
0.0
 11
0.063637
 21
-2.10716
 31
0.0
  0
LINE
  5
708
  8
0
 10
1.12075
 20
-1.05005
 30
0.0
 11
1.11368
 21
-1.04299
 31
0.0
  0
LINE
  5
709
  8
0
 10
1.11368
 20
-1.04299
 30
0.0
 11
2.1001
 21
-0.0565698
 31
0.0
  0
LINE
  5
70A
  8
0
 10
2.1001
 20
-0.0565698
 30
0.0
 11
2.10716
 21
-0.063637
 31
0.0
  0
LINE
  5
70B
  8
0
 10
2.10716
 20
-0.063637
 30
0.0
 11
1.12075
 21
-1.05005
 31
0.0
  0
LINE
  5
70C
  8
0
 10
0.0777822
 20
-2.12131
 30
0.0
 11
0.070715
 21
-2.11424
 31
0.0
  0
LINE
  5
70D
  8
0
 10
0.070715
 20
-2.11424
 30
0.0
 11
1.05713
 21
-1.12783
 31
0.0
  0
LINE
  5
70E
  8
0
 10
1.05713
 20
-1.12783
 30
0.0
 11
1.0642
 21
-1.13489
 31
0.0
  0
LINE
  5
70F
  8
0
 10
1.0642
 20
-1.13489
 30
0.0
 11
0.0777822
 21
-2.12131
 31
0.0
  0
LINE
  5
710
  8
0
 10
1.13489
 20
-1.0642
 30
0.0
 11
1.12783
 21
-1.05713
 31
0.0
  0
LINE
  5
711
  8
0
 10
1.12783
 20
-1.05713
 30
0.0
 11
2.11424
 21
-0.070715
 31
0.0
  0
LINE
  5
712
  8
0
 10
2.11424
 20
-0.070715
 30
0.0
 11
2.12131
 21
-0.0777822
 31
0.0
  0
LINE
  5
713
  8
0
 10
2.12131
 20
-0.0777822
 30
0.0
 11
1.13489
 21
-1.0642
 31
0.0
  0
LINE
  5
714
  8
0
 10
0.0919273
 20
-2.13545
 30
0.0
 11
0.0848494
 21
-2.12838
 31
0.0
  0
LINE
  5
715
  8
0
 10
0.0848494
 20
-2.12838
 30
0.0
 11
1.07127
 21
-1.14196
 31
0.0
  0
LINE
  5
716
  8
0
 10
1.07127
 20
-1.14196
 30
0.0
 11
1.07834
 21
-1.14904
 31
0.0
  0
LINE
  5
717
  8
0
 10
1.07834
 20
-1.14904
 30
0.0
 11
0.0919273
 21
-2.13545
 31
0.0
  0
LINE
  5
718
  8
0
 10
1.14904
 20
-1.07834
 30
0.0
 11
1.14196
 21
-1.07127
 31
0.0
  0
LINE
  5
719
  8
0
 10
1.14196
 20
-1.07127
 30
0.0
 11
2.12838
 21
-0.0848494
 31
0.0
  0
LINE
  5
71A
  8
0
 10
2.12838
 20
-0.0848494
 30
0.0
 11
2.13545
 21
-0.0919273
 31
0.0
  0
LINE
  5
71B
  8
0
 10
2.13545
 20
-0.0919273
 30
0.0
 11
1.14904
 21
-1.07834
 31
0.0
  0
LINE
  5
71C
  8
0
 10
0.106062
 20
-2.14959
 30
0.0
 11
0.0989945
 21
-2.14252
 31
0.0
  0
LINE
  5
71D
  8
0
 10
0.0989945
 20
-2.14252
 30
0.0
 11
1.08541
 21
-1.1561
 31
0.0
  0
LINE
  5
71E
  8
0
 10
1.08541
 20
-1.1561
 30
0.0
 11
1.09248
 21
-1.16317
 31
0.0
  0
LINE
  5
71F
  8
0
 10
1.09248
 20
-1.16317
 30
0.0
 11
0.106062
 21
-2.14959
 31
0.0
  0
LINE
  5
720
  8
0
 10
1.16317
 20
-1.09248
 30
0.0
 11
1.1561
 21
-1.08541
 31
0.0
  0
LINE
  5
721
  8
0
 10
1.1561
 20
-1.08541
 30
0.0
 11
2.14252
 21
-0.0989945
 31
0.0
  0
LINE
  5
722
  8
0
 10
2.14252
 20
-0.0989945
 30
0.0
 11
2.14959
 21
-0.106062
 31
0.0
  0
LINE
  5
723
  8
0
 10
2.14959
 20
-0.106062
 30
0.0
 11
1.16317
 21
-1.09248
 31
0.0
  0
LINE
  5
724
  8
0
 10
0.120207
 20
-2.16373
 30
0.0
 11
0.11314
 21
-2.15667
 31
0.0
  0
LINE
  5
725
  8
0
 10
0.11314
 20
-2.15667
 30
0.0
 11
1.09956
 21
-1.17025
 31
0.0
  0
LINE
  5
726
  8
0
 10
1.09956
 20
-1.17025
 30
0.0
 11
1.10662
 21
-1.17732
 31
0.0
  0
LINE
  5
727
  8
0
 10
1.10662
 20
-1.17732
 30
0.0
 11
0.120207
 21
-2.16373
 31
0.0
  0
LINE
  5
728
  8
0
 10
1.17732
 20
-1.10662
 30
0.0
 11
1.17025
 21
-1.09956
 31
0.0
  0
LINE
  5
729
  8
0
 10
1.17025
 20
-1.09956
 30
0.0
 11
2.15667
 21
-0.11314
 31
0.0
  0
LINE
  5
72A
  8
0
 10
2.15667
 20
-0.11314
 30
0.0
 11
2.16373
 21
-0.120207
 31
0.0
  0
LINE
  5
72B
  8
0
 10
2.16373
 20
-0.120207
 30
0.0
 11
1.17732
 21
-1.10662
 31
0.0
  0
LINE
  5
72C
  8
0
 10
0.134352
 20
-2.17788
 30
0.0
 11
0.127285
 21
-2.17081
 31
0.0
  0
LINE
  5
72D
  8
0
 10
0.127285
 20
-2.17081
 30
0.0
 11
1.1137
 21
-1.1844
 31
0.0
  0
LINE
  5
72E
  8
0
 10
1.1137
 20
-1.1844
 30
0.0
 11
1.12077
 21
-1.19146
 31
0.0
  0
LINE
  5
72F
  8
0
 10
1.12077
 20
-1.19146
 30
0.0
 11
0.134352
 21
-2.17788
 31
0.0
  0
LINE
  5
730
  8
0
 10
1.19146
 20
-1.12077
 30
0.0
 11
1.1844
 21
-1.1137
 31
0.0
  0
LINE
  5
731
  8
0
 10
1.1844
 20
-1.1137
 30
0.0
 11
2.17081
 21
-0.127285
 31
0.0
  0
LINE
  5
732
  8
0
 10
2.17081
 20
-0.127285
 30
0.0
 11
2.17788
 21
-0.134352
 31
0.0
  0
LINE
  5
733
  8
0
 10
2.17788
 20
-0.134352
 30
0.0
 11
1.19146
 21
-1.12077
 31
0.0
  0
LINE
  5
734
  8
0
 10
0.148497
 20
-2.19202
 30
0.0
 11
0.141419
 21
-2.18495
 31
0.0
  0
LINE
  5
735
  8
0
 10
0.141419
 20
-2.18495
 30
0.0
 11
1.12784
 21
-1.19853
 31
0.0
  0
LINE
  5
736
  8
0
 10
1.12784
 20
-1.19853
 30
0.0
 11
1.13491
 21
-1.20561
 31
0.0
  0
LINE
  5
737
  8
0
 10
1.13491
 20
-1.20561
 30
0.0
 11
0.148497
 21
-2.19202
 31
0.0
  0
LINE
  5
738
  8
0
 10
1.20561
 20
-1.13491
 30
0.0
 11
1.19853
 21
-1.12784
 31
0.0
  0
LINE
  5
739
  8
0
 10
1.19853
 20
-1.12784
 30
0.0
 11
2.18495
 21
-0.141419
 31
0.0
  0
LINE
  5
73A
  8
0
 10
2.18495
 20
-0.141419
 30
0.0
 11
2.19202
 21
-0.148497
 31
0.0
  0
LINE
  5
73B
  8
0
 10
2.19202
 20
-0.148497
 30
0.0
 11
1.20561
 21
-1.13491
 31
0.0
  0
LINE
  5
73C
  8
0
 10
0.162632
 20
-2.20616
 30
0.0
 11
0.155564
 21
-2.19909
 31
0.0
  0
LINE
  5
73D
  8
0
 10
0.155564
 20
-2.19909
 30
0.0
 11
1.14198
 21
-1.21267
 31
0.0
  0
LINE
  5
73E
  8
0
 10
1.14198
 20
-1.21267
 30
0.0
 11
1.14905
 21
-1.21974
 31
0.0
  0
LINE
  5
73F
  8
0
 10
1.14905
 20
-1.21974
 30
0.0
 11
0.162632
 21
-2.20616
 31
0.0
  0
LINE
  5
740
  8
0
 10
1.21974
 20
-1.14905
 30
0.0
 11
1.21267
 21
-1.14198
 31
0.0
  0
LINE
  5
741
  8
0
 10
1.21267
 20
-1.14198
 30
0.0
 11
2.19909
 21
-0.155564
 31
0.0
  0
LINE
  5
742
  8
0
 10
2.19909
 20
-0.155564
 30
0.0
 11
2.20616
 21
-0.162632
 31
0.0
  0
LINE
  5
743
  8
0
 10
2.20616
 20
-0.162632
 30
0.0
 11
1.21974
 21
-1.14905
 31
0.0
  0
LINE
  5
744
  8
0
 10
0.176777
 20
-2.2203
 30
0.0
 11
0.16971
 21
-2.21324
 31
0.0
  0
LINE
  5
745
  8
0
 10
0.16971
 20
-2.21324
 30
0.0
 11
1.15613
 21
-1.22682
 31
0.0
  0
LINE
  5
746
  8
0
 10
1.15613
 20
-1.22682
 30
0.0
 11
1.16319
 21
-1.23389
 31
0.0
  0
LINE
  5
747
  8
0
 10
1.16319
 20
-1.23389
 30
0.0
 11
0.176777
 21
-2.2203
 31
0.0
  0
LINE
  5
748
  8
0
 10
1.23389
 20
-1.16319
 30
0.0
 11
1.22682
 21
-1.15613
 31
0.0
  0
LINE
  5
749
  8
0
 10
1.22682
 20
-1.15613
 30
0.0
 11
2.21324
 21
-0.16971
 31
0.0
  0
LINE
  5
74A
  8
0
 10
2.21324
 20
-0.16971
 30
0.0
 11
2.2203
 21
-0.176777
 31
0.0
  0
LINE
  5
74B
  8
0
 10
2.2203
 20
-0.176777
 30
0.0
 11
1.23389
 21
-1.16319
 31
0.0
  0
LINE
  5
74C
  8
0
 10
0.190922
 20
-2.23445
 30
0.0
 11
0.183844
 21
-2.22737
 31
0.0
  0
LINE
  5
74D
  8
0
 10
0.183844
 20
-2.22737
 30
0.0
 11
1.17026
 21
-1.24095
 31
0.0
  0
LINE
  5
74E
  8
0
 10
1.17026
 20
-1.24095
 30
0.0
 11
1.17734
 21
-1.24803
 31
0.0
  0
LINE
  5
74F
  8
0
 10
1.17734
 20
-1.24803
 30
0.0
 11
0.190922
 21
-2.23445
 31
0.0
  0
LINE
  5
750
  8
0
 10
1.24803
 20
-1.17734
 30
0.0
 11
1.24095
 21
-1.17026
 31
0.0
  0
LINE
  5
751
  8
0
 10
1.24095
 20
-1.17026
 30
0.0
 11
2.22737
 21
-0.183844
 31
0.0
  0
LINE
  5
752
  8
0
 10
2.22737
 20
-0.183844
 30
0.0
 11
2.23445
 21
-0.190922
 31
0.0
  0
LINE
  5
753
  8
0
 10
2.23445
 20
-0.190922
 30
0.0
 11
1.24803
 21
-1.17734
 31
0.0
  0
ENDSEC
  0
EOF
