  0
SECTION
  2
HEADER
  9
$ACADVER
  1
AC1009
  9
$DWGCODEPAGE
  3
ANSI_1252
  9
$INSBASE
 10
0.0
 20
0.0
 30
0.0
  9
$EXTMIN
 10
1e+20
 20
1e+20
 30
1e+20
  9
$EXTMAX
 10
-1e+20
 20
-1e+20
 30
-1e+20
  9
$LIMMIN
 10
0.0
 20
0.0
  9
$LIMMAX
 10
420.0
 20
297.0
  9
$ORTHOMODE
 70
0
  9
$REGENMODE
 70
1
  9
$FILLMODE
 70
1
  9
$DRAGMODE
 70
2
  9
$QTEXTMODE
 70
0
  9
$MIRRTEXT
 70
1
  9
$OSMODE
 70
20583
  9
$LTSCALE
 40
1.0
  9
$ATTMODE
 70
1
  9
$TEXTSIZE
 40
2.5
  9
$TRACEWID
 40
1.0
  9
$TEXTSTYLE
  7
Standard
  9
$CLAYER
  8
0
  9
$CELTYPE
  6
ByLayer
  9
$CECOLOR
 62
256
  9
$DIMSCALE
 40
1.0
  9
$DIMASZ
 40
2.5
  9
$DIMEXO
 40
0.625
  9
$DIMDLI
 40
3.75
  9
$DIMRND
 40
0.0
  9
$DIMDLE
 40
0.0
  9
$DIMEXE
 40
1.25
  9
$DIMTP
 40
0.0
  9
$DIMTM
 40
0.0
  9
$DIMTXT
 40
2.5
  9
$DIMCEN
 40
2.5
  9
$DIMTSZ
 40
0.0
  9
$DIMTOL
 70
0
  9
$DIMLIM
 70
0
  9
$DIMTIH
 70
0
  9
$DIMTOH
 70
0
  9
$DIMSE1
 70
0
  9
$DIMSE2
 70
0
  9
$DIMTAD
 70
1
  9
$DIMZIN
 70
8
  9
$DIMBLK
  1

  9
$DIMASO
 70
1
  9
$DIMSHO
 70
1
  9
$DIMPOST
  1

  9
$DIMAPOST
  1

  9
$DIMALT
 70
0
  9
$DIMALTD
 70
3
  9
$DIMALTF
 40
0.03937007874
  9
$DIMLFAC
 40
1.0
  9
$DIMTOFL
 70
1
  9
$DIMTVP
 40
0.0
  9
$DIMTIX
 70
0
  9
$DIMSOXD
 70
0
  9
$DIMSAH
 70
0
  9
$DIMBLK1
  1

  9
$DIMBLK2
  1

  9
$DIMSTYLE
  2
ISO-25
  9
$DIMCLRD
 70
0
  9
$DIMCLRE
 70
0
  9
$DIMCLRT
 70
0
  9
$DIMTFAC
 40
1.0
  9
$DIMGAP
 40
0.625
  9
$COORDS
 70
1
  9
$ATTDIA
 70
0
  9
$ATTREQ
 70
1
  9
$HANDLING
 70
1
  9
$LUNITS
 70
2
  9
$LUPREC
 70
4
  9
$SKETCHINC
 40
1.0
  9
$FILLETRAD
 40
10.0
  9
$AUNITS
 70
0
  9
$AUPREC
 70
2
  9
$MENU
  1
.
  9
$ELEVATION
 40
0.0
  9
$PELEVATION
 40
0.0
  9
$THICKNESS
 40
0.0
  9
$LIMCHECK
 70
0
  9
$CHAMFERA
 40
0.0
  9
$CHAMFERB
 40
0.0
  9
$SKPOLY
 70
0
  9
$TDCREATE
 40
2461215.538425926
  9
$TDUPDATE
 40
2461215.538425926
  9
$TDINDWG
 40
0.0
  9
$TDUSRTIMER
 40
0.0
  9
$USRTIMER
 70
1
  9
$ANGBASE
 50
0.0
  9
$ANGDIR
 70
0
  9
$PDMODE
 70
0
  9
$PDSIZE
 40
0.0
  9
$PLINEWID
 40
0.0
  9
$SPLFRAME
 70
0
  9
$SPLINETYPE
 70
6
  9
$SPLINESEGS
 70
8
  9
$HANDSEED
  5
23B
  9
$SURFTAB1
 70
6
  9
$SURFTAB2
 70
6
  9
$SURFTYPE
 70
6
  9
$SURFU
 70
6
  9
$SURFV
 70
6
  9
$UCSNAME
  2

  9
$UCSORG
 10
0.0
 20
0.0
 30
0.0
  9
$UCSXDIR
 10
1.0
 20
0.0
 30
0.0
  9
$UCSYDIR
 10
0.0
 20
1.0
 30
0.0
  9
$PUCSNAME
  2

  9
$PUCSORG
 10
0.0
 20
0.0
 30
0.0
  9
$PUCSXDIR
 10
1.0
 20
0.0
 30
0.0
  9
$PUCSYDIR
 10
0.0
 20
1.0
 30
0.0
  9
$USERI1
 70
0
  9
$USERI2
 70
0
  9
$USERI3
 70
0
  9
$USERI4
 70
0
  9
$USERI5
 70
0
  9
$USERR1
 40
0.0
  9
$USERR2
 40
0.0
  9
$USERR3
 40
0.0
  9
$USERR4
 40
0.0
  9
$USERR5
 40
0.0
  9
$WORLDVIEW
 70
1
  9
$SHADEDGE
 70
3
  9
$SHADEDIF
 70
70
  9
$TILEMODE
 70
1
  9
$MAXACTVP
 70
64
  9
$PLIMCHECK
 70
0
  9
$PEXTMIN
 10
1e+20
 20
1e+20
 30
1e+20
  9
$PEXTMAX
 10
-1e+20
 20
-1e+20
 30
-1e+20
  9
$PLIMMIN
 10
0.0
 20
0.0
  9
$PLIMMAX
 10
420.0
 20
297.0
  9
$UNITMODE
 70
0
  9
$VISRETAIN
 70
1
  9
$PLINEGEN
 70
0
  9
$PSLTSCALE
 70
1
  0
ENDSEC
  0
SECTION
  2
TABLES
  0
TABLE
  2
VPORT
 70
1
  0
VPORT
  5
22F
  2
*Active
 70
0
 10
0.0
 20
0.0
 11
1.0
 21
1.0
 12
0.0
 22
0.0
 13
0.0
 23
0.0
 14
0.5
 24
0.5
 15
0.5
 25
0.5
 16
0.0
 26
0.0
 36
1.0
 17
0.0
 27
0.0
 37
0.0
 40
1000.0
 41
1.34
 42
50.0
 43
0.0
 44
0.0
 50
0.0
 51
0.0
 71
0
 72
1000
 73
1
 74
3
 75
0
 76
0
 77
0
 78
0
  0
ENDTAB
  0
TABLE
  2
LTYPE
 70
3
  0
LTYPE
  5
230
  2
ByBlock
 70
0
  3

 72
65
 73
0
 40
0.0
  0
LTYPE
  5
231
  2
ByLayer
 70
0
  3

 72
65
 73
0
 40
0.0
  0
LTYPE
  5
232
  2
Continuous
 70
0
  3

 72
65
 73
0
 40
0.0
  0
ENDTAB
  0
TABLE
  2
LAYER
 70
2
  0
LAYER
  5
233
  2
0
 70
0
 62
7
  6
Continuous
  0
LAYER
  5
234
  2
Defpoints
 70
0
 62
7
  6
Continuous
  0
ENDTAB
  0
TABLE
  2
STYLE
 70
1
  0
STYLE
  5
235
  2
Standard
 70
0
 40
0.0
 41
1.0
 50
0.0
 71
0
 42
2.5
  3
txt
  4

  0
ENDTAB
  0
TABLE
  2
VIEW
 70
0
  0
ENDTAB
  0
TABLE
  2
UCS
 70
0
  0
ENDTAB
  0
TABLE
  2
APPID
 70
3
  0
APPID
  5
236
  2
ACAD
 70
0
  0
APPID
  5
239
  2
HATCHBACKGROUNDCOLOR
 70
0
  0
APPID
  5
23A
  2
EZDXF
 70
0
  0
ENDTAB
  0
TABLE
  2
DIMSTYLE
 70
1
  0
DIMSTYLE
105
237
  2
Standard
 70
0
  3

  4

  5

  6

  7

 40
1.0
 41
2.5
 42
0.625
 43
3.75
 44
1.25
 45
0.0
 46
0.0
 47
0.0
 48
0.0
140
2.5
141
2.5
142
0.0
143
0.03937007874
144
1.0
145
0.0
146
1.0
147
0.625
 71
0
 72
0
 73
0
 74
0
 75
0
 76
0
 77
1
 78
8
170
0
171
3
172
1
173
0
174
0
175
0
176
0
177
0
178
0
  0
ENDTAB
  0
ENDSEC
  0
SECTION
  2
BLOCKS
  0
BLOCK
  5
210
  8
0
  2
$Model_Space
 70
0
 10
0.0
 20
0.0
 30
0.0
  3
$Model_Space
  1

1001
EZDXF
1000
WRITTEN_BY_EZDXF
1000
1.4.3 @ 2026-06-23T16:55:20.259477+00:00
  0
ENDBLK
  5
211
  8
0
  0
BLOCK
  5
212
  8
0
  2
$Paper_Space
 70
0
 10
0.0
 20
0.0
 30
0.0
  3
$Paper_Space
  1

  0
ENDBLK
  5
213
  8
0
  0
ENDSEC
  0
SECTION
  2
ENTITIES
  0
LINE
  5
100
  8
0
 10
4.83731
 20
-7.95047
 30
0.0
 11
5.17415
 21
-7.90051
 31
0.0
  0
LINE
  5
101
  8
0
 10
5.17415
 20
-7.90051
 30
0.0
 11
5.50447
 21
-7.81776
 31
0.0
  0
LINE
  5
102
  8
0
 10
5.50447
 20
-7.81776
 30
0.0
 11
5.8251
 21
-7.70305
 31
0.0
  0
LINE
  5
103
  8
0
 10
5.8251
 20
-7.70305
 30
0.0
 11
6.13293
 21
-7.55745
 31
0.0
  0
LINE
  5
104
  8
0
 10
6.13293
 20
-7.55745
 30
0.0
 11
6.42502
 21
-7.38239
 31
0.0
  0
LINE
  5
105
  8
0
 10
6.42502
 20
-7.38239
 30
0.0
 11
6.69853
 21
-7.17953
 31
0.0
  0
LINE
  5
106
  8
0
 10
6.69853
 20
-7.17953
 30
0.0
 11
6.95084
 21
-6.95084
 31
0.0
  0
LINE
  5
107
  8
0
 10
6.95084
 20
-6.95084
 30
0.0
 11
7.17953
 21
-6.69853
 31
0.0
  0
LINE
  5
108
  8
0
 10
7.17953
 20
-6.69853
 30
0.0
 11
7.38239
 21
-6.42502
 31
0.0
  0
LINE
  5
109
  8
0
 10
7.38239
 20
-6.42502
 30
0.0
 11
7.55745
 21
-6.13293
 31
0.0
  0
LINE
  5
10A
  8
0
 10
7.55745
 20
-6.13293
 30
0.0
 11
7.70305
 21
-5.8251
 31
0.0
  0
LINE
  5
10B
  8
0
 10
7.70305
 20
-5.8251
 30
0.0
 11
7.81776
 21
-5.50447
 31
0.0
  0
LINE
  5
10C
  8
0
 10
7.81776
 20
-5.50447
 30
0.0
 11
7.90051
 21
-5.17415
 31
0.0
  0
LINE
  5
10D
  8
0
 10
7.90051
 20
-5.17415
 30
0.0
 11
7.95047
 21
-4.83731
 31
0.0
  0
LINE
  5
10E
  8
0
 10
7.95047
 20
-4.83731
 30
0.0
 11
7.96719
 21
-4.49719
 31
0.0
  0
LINE
  5
10F
  8
0
 10
7.96719
 20
-4.49719
 30
0.0
 11
7.95047
 21
-4.15707
 31
0.0
  0
LINE
  5
110
  8
0
 10
7.95047
 20
-4.15707
 30
0.0
 11
7.90051
 21
-3.82024
 31
0.0
  0
LINE
  5
111
  8
0
 10
7.90051
 20
-3.82024
 30
0.0
 11
7.81776
 21
-3.48991
 31
0.0
  0
LINE
  5
112
  8
0
 10
7.81776
 20
-3.48991
 30
0.0
 11
7.70303
 21
-3.16928
 31
0.0
  0
LINE
  5
113
  8
0
 10
7.70303
 20
-3.16928
 30
0.0
 11
7.55745
 21
-2.86145
 31
0.0
  0
LINE
  5
114
  8
0
 10
7.55745
 20
-2.86145
 30
0.0
 11
7.38239
 21
-2.56937
 31
0.0
  0
LINE
  5
115
  8
0
 10
7.38239
 20
-2.56937
 30
0.0
 11
7.17953
 21
-2.29585
 31
0.0
  0
LINE
  5
116
  8
0
 10
7.17953
 20
-2.29585
 30
0.0
 11
6.95084
 21
-2.04353
 31
0.0
  0
LINE
  5
117
  8
0
 10
6.95084
 20
-2.04353
 30
0.0
 11
6.69852
 21
-1.81485
 31
0.0
  0
LINE
  5
118
  8
0
 10
6.69852
 20
-1.81485
 30
0.0
 11
6.42502
 21
-1.61198
 31
0.0
  0
LINE
  5
119
  8
0
 10
6.42502
 20
-1.61198
 30
0.0
 11
6.13292
 21
-1.43694
 31
0.0
  0
LINE
  5
11A
  8
0
 10
6.13292
 20
-1.43694
 30
0.0
 11
5.82509
 21
-1.29132
 31
0.0
  0
LINE
  5
11B
  8
0
 10
5.82509
 20
-1.29132
 30
0.0
 11
5.50447
 21
-1.17661
 31
0.0
  0
LINE
  5
11C
  8
0
 10
5.50447
 20
-1.17661
 30
0.0
 11
5.17415
 21
-1.09386
 31
0.0
  0
LINE
  5
11D
  8
0
 10
5.17415
 20
-1.09386
 30
0.0
 11
4.8373
 21
-1.0439
 31
0.0
  0
LINE
  5
11E
  8
0
 10
4.8373
 20
-1.0439
 30
0.0
 11
4.49718
 21
-1.02718
 31
0.0
  0
LINE
  5
11F
  8
0
 10
4.49718
 20
-1.02718
 30
0.0
 11
4.15706
 21
-1.0439
 31
0.0
  0
LINE
  5
120
  8
0
 10
4.15706
 20
-1.0439
 30
0.0
 11
3.82022
 21
-1.09386
 31
0.0
  0
LINE
  5
121
  8
0
 10
3.82022
 20
-1.09386
 30
0.0
 11
3.4899
 21
-1.17661
 31
0.0
  0
LINE
  5
122
  8
0
 10
3.4899
 20
-1.17661
 30
0.0
 11
3.16928
 21
-1.29132
 31
0.0
  0
LINE
  5
123
  8
0
 10
3.16928
 20
-1.29132
 30
0.0
 11
2.86143
 21
-1.43694
 31
0.0
  0
LINE
  5
124
  8
0
 10
2.86143
 20
-1.43694
 30
0.0
 11
2.56935
 21
-1.61198
 31
0.0
  0
LINE
  5
125
  8
0
 10
2.56935
 20
-1.61198
 30
0.0
 11
2.29585
 21
-1.81485
 31
0.0
  0
LINE
  5
126
  8
0
 10
2.29585
 20
-1.81485
 30
0.0
 11
2.08061
 21
-2.00992
 31
0.0
  0
LINE
  5
127
  8
0
 10
2.08061
 20
-2.00992
 30
0.0
 11
-2.00992
 21
2.08061
 31
0.0
  0
LINE
  5
128
  8
0
 10
-2.00992
 20
2.08061
 30
0.0
 11
-1.81485
 21
2.29585
 31
0.0
  0
LINE
  5
129
  8
0
 10
-1.81485
 20
2.29585
 30
0.0
 11
-1.61198
 21
2.56935
 31
0.0
  0
LINE
  5
12A
  8
0
 10
-1.61198
 20
2.56935
 30
0.0
 11
-1.43694
 21
2.86143
 31
0.0
  0
LINE
  5
12B
  8
0
 10
-1.43694
 20
2.86143
 30
0.0
 11
-1.29132
 21
3.16928
 31
0.0
  0
LINE
  5
12C
  8
0
 10
-1.29132
 20
3.16928
 30
0.0
 11
-1.17661
 21
3.4899
 31
0.0
  0
LINE
  5
12D
  8
0
 10
-1.17661
 20
3.4899
 30
0.0
 11
-1.09386
 21
3.82022
 31
0.0
  0
LINE
  5
12E
  8
0
 10
-1.09386
 20
3.82022
 30
0.0
 11
-1.0439
 21
4.15706
 31
0.0
  0
LINE
  5
12F
  8
0
 10
-1.0439
 20
4.15706
 30
0.0
 11
-1.02718
 21
4.49718
 31
0.0
  0
LINE
  5
130
  8
0
 10
-1.02718
 20
4.49718
 30
0.0
 11
-1.0439
 21
4.8373
 31
0.0
  0
LINE
  5
131
  8
0
 10
-1.0439
 20
4.8373
 30
0.0
 11
-1.09386
 21
5.17415
 31
0.0
  0
LINE
  5
132
  8
0
 10
-1.09386
 20
5.17415
 30
0.0
 11
-1.17661
 21
5.50447
 31
0.0
  0
LINE
  5
133
  8
0
 10
-1.17661
 20
5.50447
 30
0.0
 11
-1.29132
 21
5.82509
 31
0.0
  0
LINE
  5
134
  8
0
 10
-1.29132
 20
5.82509
 30
0.0
 11
-1.43694
 21
6.13292
 31
0.0
  0
LINE
  5
135
  8
0
 10
-1.43694
 20
6.13292
 30
0.0
 11
-1.61198
 21
6.42502
 31
0.0
  0
LINE
  5
136
  8
0
 10
-1.61198
 20
6.42502
 30
0.0
 11
-1.81485
 21
6.69852
 31
0.0
  0
LINE
  5
137
  8
0
 10
-1.81485
 20
6.69852
 30
0.0
 11
-2.04353
 21
6.95084
 31
0.0
  0
LINE
  5
138
  8
0
 10
-2.04353
 20
6.95084
 30
0.0
 11
-2.29585
 21
7.17953
 31
0.0
  0
LINE
  5
139
  8
0
 10
-2.29585
 20
7.17953
 30
0.0
 11
-2.56937
 21
7.38239
 31
0.0
  0
LINE
  5
13A
  8
0
 10
-2.56937
 20
7.38239
 30
0.0
 11
-2.86145
 21
7.55745
 31
0.0
  0
LINE
  5
13B
  8
0
 10
-2.86145
 20
7.55745
 30
0.0
 11
-3.16928
 21
7.70303
 31
0.0
  0
LINE
  5
13C
  8
0
 10
-3.16928
 20
7.70303
 30
0.0
 11
-3.48991
 21
7.81776
 31
0.0
  0
LINE
  5
13D
  8
0
 10
-3.48991
 20
7.81776
 30
0.0
 11
-3.82024
 21
7.90051
 31
0.0
  0
LINE
  5
13E
  8
0
 10
-3.82024
 20
7.90051
 30
0.0
 11
-4.15707
 21
7.95047
 31
0.0
  0
LINE
  5
13F
  8
0
 10
-4.15707
 20
7.95047
 30
0.0
 11
-4.49719
 21
7.96719
 31
0.0
  0
LINE
  5
140
  8
0
 10
-4.49719
 20
7.96719
 30
0.0
 11
-4.83731
 21
7.95047
 31
0.0
  0
LINE
  5
141
  8
0
 10
-4.83731
 20
7.95047
 30
0.0
 11
-5.17415
 21
7.90051
 31
0.0
  0
LINE
  5
142
  8
0
 10
-5.17415
 20
7.90051
 30
0.0
 11
-5.50447
 21
7.81776
 31
0.0
  0
LINE
  5
143
  8
0
 10
-5.50447
 20
7.81776
 30
0.0
 11
-5.8251
 21
7.70305
 31
0.0
  0
LINE
  5
144
  8
0
 10
-5.8251
 20
7.70305
 30
0.0
 11
-6.13293
 21
7.55745
 31
0.0
  0
LINE
  5
145
  8
0
 10
-6.13293
 20
7.55745
 30
0.0
 11
-6.42502
 21
7.38239
 31
0.0
  0
LINE
  5
146
  8
0
 10
-6.42502
 20
7.38239
 30
0.0
 11
-6.69853
 21
7.17953
 31
0.0
  0
LINE
  5
147
  8
0
 10
-6.69853
 20
7.17953
 30
0.0
 11
-6.95084
 21
6.95084
 31
0.0
  0
LINE
  5
148
  8
0
 10
-6.95084
 20
6.95084
 30
0.0
 11
-7.17953
 21
6.69853
 31
0.0
  0
LINE
  5
149
  8
0
 10
-7.17953
 20
6.69853
 30
0.0
 11
-7.38239
 21
6.42502
 31
0.0
  0
LINE
  5
14A
  8
0
 10
-7.38239
 20
6.42502
 30
0.0
 11
-7.55745
 21
6.13293
 31
0.0
  0
LINE
  5
14B
  8
0
 10
-7.55745
 20
6.13293
 30
0.0
 11
-7.70305
 21
5.8251
 31
0.0
  0
LINE
  5
14C
  8
0
 10
-7.70305
 20
5.8251
 30
0.0
 11
-7.81776
 21
5.50447
 31
0.0
  0
LINE
  5
14D
  8
0
 10
-7.81776
 20
5.50447
 30
0.0
 11
-7.90051
 21
5.17415
 31
0.0
  0
LINE
  5
14E
  8
0
 10
-7.90051
 20
5.17415
 30
0.0
 11
-7.95047
 21
4.83731
 31
0.0
  0
LINE
  5
14F
  8
0
 10
-7.95047
 20
4.83731
 30
0.0
 11
-7.96719
 21
4.49719
 31
0.0
  0
LINE
  5
150
  8
0
 10
-7.96719
 20
4.49719
 30
0.0
 11
-7.95047
 21
4.15707
 31
0.0
  0
LINE
  5
151
  8
0
 10
-7.95047
 20
4.15707
 30
0.0
 11
-7.90051
 21
3.82024
 31
0.0
  0
LINE
  5
152
  8
0
 10
-7.90051
 20
3.82024
 30
0.0
 11
-7.81776
 21
3.48991
 31
0.0
  0
LINE
  5
153
  8
0
 10
-7.81776
 20
3.48991
 30
0.0
 11
-7.70303
 21
3.16928
 31
0.0
  0
LINE
  5
154
  8
0
 10
-7.70303
 20
3.16928
 30
0.0
 11
-7.55745
 21
2.86145
 31
0.0
  0
LINE
  5
155
  8
0
 10
-7.55745
 20
2.86145
 30
0.0
 11
-7.38239
 21
2.56937
 31
0.0
  0
LINE
  5
156
  8
0
 10
-7.38239
 20
2.56937
 30
0.0
 11
-7.17953
 21
2.29585
 31
0.0
  0
LINE
  5
157
  8
0
 10
-7.17953
 20
2.29585
 30
0.0
 11
-6.95084
 21
2.04353
 31
0.0
  0
LINE
  5
158
  8
0
 10
-6.95084
 20
2.04353
 30
0.0
 11
-6.69852
 21
1.81485
 31
0.0
  0
LINE
  5
159
  8
0
 10
-6.69852
 20
1.81485
 30
0.0
 11
-6.42502
 21
1.61198
 31
0.0
  0
LINE
  5
15A
  8
0
 10
-6.42502
 20
1.61198
 30
0.0
 11
-6.13292
 21
1.43694
 31
0.0
  0
LINE
  5
15B
  8
0
 10
-6.13292
 20
1.43694
 30
0.0
 11
-5.82509
 21
1.29132
 31
0.0
  0
LINE
  5
15C
  8
0
 10
-5.82509
 20
1.29132
 30
0.0
 11
-5.50447
 21
1.17661
 31
0.0
  0
LINE
  5
15D
  8
0
 10
-5.50447
 20
1.17661
 30
0.0
 11
-5.17415
 21
1.09386
 31
0.0
  0
LINE
  5
15E
  8
0
 10
-5.17415
 20
1.09386
 30
0.0
 11
-4.8373
 21
1.0439
 31
0.0
  0
LINE
  5
15F
  8
0
 10
-4.8373
 20
1.0439
 30
0.0
 11
-4.49718
 21
1.02718
 31
0.0
  0
LINE
  5
160
  8
0
 10
-4.49718
 20
1.02718
 30
0.0
 11
-4.15706
 21
1.0439
 31
0.0
  0
LINE
  5
161
  8
0
 10
-4.15706
 20
1.0439
 30
0.0
 11
-3.82022
 21
1.09386
 31
0.0
  0
LINE
  5
162
  8
0
 10
-3.82022
 20
1.09386
 30
0.0
 11
-3.4899
 21
1.17661
 31
0.0
  0
LINE
  5
163
  8
0
 10
-3.4899
 20
1.17661
 30
0.0
 11
-3.16928
 21
1.29132
 31
0.0
  0
LINE
  5
164
  8
0
 10
-3.16928
 20
1.29132
 30
0.0
 11
-2.86143
 21
1.43694
 31
0.0
  0
LINE
  5
165
  8
0
 10
-2.86143
 20
1.43694
 30
0.0
 11
-2.56935
 21
1.61198
 31
0.0
  0
LINE
  5
166
  8
0
 10
-2.56935
 20
1.61198
 30
0.0
 11
-2.29585
 21
1.81485
 31
0.0
  0
LINE
  5
167
  8
0
 10
-2.29585
 20
1.81485
 30
0.0
 11
-2.08061
 21
2.00992
 31
0.0
  0
LINE
  5
168
  8
0
 10
-2.08061
 20
2.00992
 30
0.0
 11
2.00992
 21
-2.08061
 31
0.0
  0
LINE
  5
169
  8
0
 10
2.00992
 20
-2.08061
 30
0.0
 11
1.81485
 21
-2.29585
 31
0.0
  0
LINE
  5
16A
  8
0
 10
1.81485
 20
-2.29585
 30
0.0
 11
1.61198
 21
-2.56935
 31
0.0
  0
LINE
  5
16B
  8
0
 10
1.61198
 20
-2.56935
 30
0.0
 11
1.43694
 21
-2.86143
 31
0.0
  0
LINE
  5
16C
  8
0
 10
1.43694
 20
-2.86143
 30
0.0
 11
1.29132
 21
-3.16928
 31
0.0
  0
LINE
  5
16D
  8
0
 10
1.29132
 20
-3.16928
 30
0.0
 11
1.17661
 21
-3.4899
 31
0.0
  0
LINE
  5
16E
  8
0
 10
1.17661
 20
-3.4899
 30
0.0
 11
1.09386
 21
-3.82022
 31
0.0
  0
LINE
  5
16F
  8
0
 10
1.09386
 20
-3.82022
 30
0.0
 11
1.0439
 21
-4.15706
 31
0.0
  0
LINE
  5
170
  8
0
 10
1.0439
 20
-4.15706
 30
0.0
 11
1.02718
 21
-4.49718
 31
0.0
  0
LINE
  5
171
  8
0
 10
1.02718
 20
-4.49718
 30
0.0
 11
1.0439
 21
-4.8373
 31
0.0
  0
LINE
  5
172
  8
0
 10
1.0439
 20
-4.8373
 30
0.0
 11
1.09386
 21
-5.17415
 31
0.0
  0
LINE
  5
173
  8
0
 10
1.09386
 20
-5.17415
 30
0.0
 11
1.17661
 21
-5.50447
 31
0.0
  0
LINE
  5
174
  8
0
 10
1.17661
 20
-5.50447
 30
0.0
 11
1.29132
 21
-5.82509
 31
0.0
  0
LINE
  5
175
  8
0
 10
1.29132
 20
-5.82509
 30
0.0
 11
1.43694
 21
-6.13292
 31
0.0
  0
LINE
  5
176
  8
0
 10
1.43694
 20
-6.13292
 30
0.0
 11
1.61198
 21
-6.42502
 31
0.0
  0
LINE
  5
177
  8
0
 10
1.61198
 20
-6.42502
 30
0.0
 11
1.81485
 21
-6.69852
 31
0.0
  0
LINE
  5
178
  8
0
 10
1.81485
 20
-6.69852
 30
0.0
 11
2.04353
 21
-6.95084
 31
0.0
  0
LINE
  5
179
  8
0
 10
2.04353
 20
-6.95084
 30
0.0
 11
2.29585
 21
-7.17953
 31
0.0
  0
LINE
  5
17A
  8
0
 10
2.29585
 20
-7.17953
 30
0.0
 11
2.56937
 21
-7.38239
 31
0.0
  0
LINE
  5
17B
  8
0
 10
2.56937
 20
-7.38239
 30
0.0
 11
2.86145
 21
-7.55745
 31
0.0
  0
LINE
  5
17C
  8
0
 10
2.86145
 20
-7.55745
 30
0.0
 11
3.16928
 21
-7.70303
 31
0.0
  0
LINE
  5
17D
  8
0
 10
3.16928
 20
-7.70303
 30
0.0
 11
3.48991
 21
-7.81776
 31
0.0
  0
LINE
  5
17E
  8
0
 10
3.48991
 20
-7.81776
 30
0.0
 11
3.82024
 21
-7.90051
 31
0.0
  0
LINE
  5
17F
  8
0
 10
3.82024
 20
-7.90051
 30
0.0
 11
4.15707
 21
-7.95047
 31
0.0
  0
LINE
  5
180
  8
0
 10
4.15707
 20
-7.95047
 30
0.0
 11
4.49719
 21
-7.96719
 31
0.0
  0
LINE
  5
181
  8
0
 10
4.49719
 20
-7.96719
 30
0.0
 11
4.83731
 21
-7.95047
 31
0.0
  0
LINE
  5
182
  8
0
 10
-5.55785
 20
4.14363
 30
0.0
 11
-4.14363
 21
5.55785
 31
0.0
  0
LINE
  5
183
  8
0
 10
-4.14363
 20
5.55785
 30
0.0
 11
-2.72943
 21
4.14363
 31
0.0
  0
LINE
  5
184
  8
0
 10
-2.72943
 20
4.14363
 30
0.0
 11
-4.14363
 21
2.72943
 31
0.0
  0
LINE
  5
185
  8
0
 10
-4.14363
 20
2.72943
 30
0.0
 11
-5.55785
 21
4.14363
 31
0.0
  0
LINE
  5
186
  8
0
 10
2.72943
 20
-4.14363
 30
0.0
 11
4.14363
 21
-2.72943
 31
0.0
  0
LINE
  5
187
  8
0
 10
4.14363
 20
-2.72943
 30
0.0
 11
5.55785
 21
-4.14363
 31
0.0
  0
LINE
  5
188
  8
0
 10
5.55785
 20
-4.14363
 30
0.0
 11
4.14363
 21
-5.55785
 31
0.0
  0
LINE
  5
189
  8
0
 10
4.14363
 20
-5.55785
 30
0.0
 11
2.72943
 21
-4.14363
 31
0.0
  0
LINE
  5
18A
  8
0
 10
3.59084
 20
1.15132
 30
0.0
 11
3.82022
 21
1.09386
 31
0.0
  0
LINE
  5
18B
  8
0
 10
3.82022
 20
1.09386
 30
0.0
 11
4.15706
 21
1.0439
 31
0.0
  0
LINE
  5
18C
  8
0
 10
4.15706
 20
1.0439
 30
0.0
 11
4.49718
 21
1.02718
 31
0.0
  0
LINE
  5
18D
  8
0
 10
4.49718
 20
1.02718
 30
0.0
 11
4.8373
 21
1.0439
 31
0.0
  0
LINE
  5
18E
  8
0
 10
4.8373
 20
1.0439
 30
0.0
 11
5.17415
 21
1.09386
 31
0.0
  0
LINE
  5
18F
  8
0
 10
5.17415
 20
1.09386
 30
0.0
 11
5.50447
 21
1.17661
 31
0.0
  0
LINE
  5
190
  8
0
 10
5.50447
 20
1.17661
 30
0.0
 11
5.82509
 21
1.29132
 31
0.0
  0
LINE
  5
191
  8
0
 10
5.82509
 20
1.29132
 30
0.0
 11
6.13292
 21
1.43694
 31
0.0
  0
LINE
  5
192
  8
0
 10
6.13292
 20
1.43694
 30
0.0
 11
6.42502
 21
1.61198
 31
0.0
  0
LINE
  5
193
  8
0
 10
6.42502
 20
1.61198
 30
0.0
 11
6.69852
 21
1.81485
 31
0.0
  0
LINE
  5
194
  8
0
 10
6.69852
 20
1.81485
 30
0.0
 11
6.95084
 21
2.04353
 31
0.0
  0
LINE
  5
195
  8
0
 10
6.95084
 20
2.04353
 30
0.0
 11
7.17953
 21
2.29585
 31
0.0
  0
LINE
  5
196
  8
0
 10
7.17953
 20
2.29585
 30
0.0
 11
7.38239
 21
2.56937
 31
0.0
  0
LINE
  5
197
  8
0
 10
7.38239
 20
2.56937
 30
0.0
 11
7.55745
 21
2.86145
 31
0.0
  0
LINE
  5
198
  8
0
 10
7.55745
 20
2.86145
 30
0.0
 11
7.70303
 21
3.16928
 31
0.0
  0
LINE
  5
199
  8
0
 10
7.70303
 20
3.16928
 30
0.0
 11
7.81776
 21
3.48991
 31
0.0
  0
LINE
  5
19A
  8
0
 10
7.81776
 20
3.48991
 30
0.0
 11
7.90051
 21
3.82024
 31
0.0
  0
LINE
  5
19B
  8
0
 10
7.90051
 20
3.82024
 30
0.0
 11
7.95047
 21
4.15707
 31
0.0
  0
LINE
  5
19C
  8
0
 10
7.95047
 20
4.15707
 30
0.0
 11
7.96719
 21
4.49719
 31
0.0
  0
LINE
  5
19D
  8
0
 10
7.96719
 20
4.49719
 30
0.0
 11
7.95047
 21
4.83731
 31
0.0
  0
LINE
  5
19E
  8
0
 10
7.95047
 20
4.83731
 30
0.0
 11
7.90051
 21
5.17415
 31
0.0
  0
LINE
  5
19F
  8
0
 10
7.90051
 20
5.17415
 30
0.0
 11
7.81776
 21
5.50447
 31
0.0
  0
LINE
  5
1A0
  8
0
 10
7.81776
 20
5.50447
 30
0.0
 11
7.70305
 21
5.8251
 31
0.0
  0
LINE
  5
1A1
  8
0
 10
7.70305
 20
5.8251
 30
0.0
 11
7.55745
 21
6.13293
 31
0.0
  0
LINE
  5
1A2
  8
0
 10
7.55745
 20
6.13293
 30
0.0
 11
7.38239
 21
6.42502
 31
0.0
  0
LINE
  5
1A3
  8
0
 10
7.38239
 20
6.42502
 30
0.0
 11
7.17953
 21
6.69853
 31
0.0
  0
LINE
  5
1A4
  8
0
 10
7.17953
 20
6.69853
 30
0.0
 11
6.95084
 21
6.95084
 31
0.0
  0
LINE
  5
1A5
  8
0
 10
6.95084
 20
6.95084
 30
0.0
 11
6.69853
 21
7.17953
 31
0.0
  0
LINE
  5
1A6
  8
0
 10
6.69853
 20
7.17953
 30
0.0
 11
6.42502
 21
7.38239
 31
0.0
  0
LINE
  5
1A7
  8
0
 10
6.42502
 20
7.38239
 30
0.0
 11
6.13293
 21
7.55745
 31
0.0
  0
LINE
  5
1A8
  8
0
 10
6.13293
 20
7.55745
 30
0.0
 11
5.8251
 21
7.70305
 31
0.0
  0
LINE
  5
1A9
  8
0
 10
5.8251
 20
7.70305
 30
0.0
 11
5.50447
 21
7.81776
 31
0.0
  0
LINE
  5
1AA
  8
0
 10
5.50447
 20
7.81776
 30
0.0
 11
5.17415
 21
7.90051
 31
0.0
  0
LINE
  5
1AB
  8
0
 10
5.17415
 20
7.90051
 30
0.0
 11
4.83731
 21
7.95047
 31
0.0
  0
LINE
  5
1AC
  8
0
 10
4.83731
 20
7.95047
 30
0.0
 11
4.49719
 21
7.96719
 31
0.0
  0
LINE
  5
1AD
  8
0
 10
4.49719
 20
7.96719
 30
0.0
 11
4.15707
 21
7.95047
 31
0.0
  0
LINE
  5
1AE
  8
0
 10
4.15707
 20
7.95047
 30
0.0
 11
3.82024
 21
7.90051
 31
0.0
  0
LINE
  5
1AF
  8
0
 10
3.82024
 20
7.90051
 30
0.0
 11
3.48991
 21
7.81776
 31
0.0
  0
LINE
  5
1B0
  8
0
 10
3.48991
 20
7.81776
 30
0.0
 11
3.16928
 21
7.70303
 31
0.0
  0
LINE
  5
1B1
  8
0
 10
3.16928
 20
7.70303
 30
0.0
 11
2.86145
 21
7.55745
 31
0.0
  0
LINE
  5
1B2
  8
0
 10
2.86145
 20
7.55745
 30
0.0
 11
2.56937
 21
7.38239
 31
0.0
  0
LINE
  5
1B3
  8
0
 10
2.56937
 20
7.38239
 30
0.0
 11
2.29585
 21
7.17953
 31
0.0
  0
LINE
  5
1B4
  8
0
 10
2.29585
 20
7.17953
 30
0.0
 11
2.04353
 21
6.95084
 31
0.0
  0
LINE
  5
1B5
  8
0
 10
2.04353
 20
6.95084
 30
0.0
 11
1.81485
 21
6.69852
 31
0.0
  0
LINE
  5
1B6
  8
0
 10
1.81485
 20
6.69852
 30
0.0
 11
1.61198
 21
6.42502
 31
0.0
  0
LINE
  5
1B7
  8
0
 10
1.61198
 20
6.42502
 30
0.0
 11
1.43694
 21
6.13292
 31
0.0
  0
LINE
  5
1B8
  8
0
 10
1.43694
 20
6.13292
 30
0.0
 11
1.29132
 21
5.82509
 31
0.0
  0
LINE
  5
1B9
  8
0
 10
1.29132
 20
5.82509
 30
0.0
 11
1.17661
 21
5.50447
 31
0.0
  0
LINE
  5
1BA
  8
0
 10
1.17661
 20
5.50447
 30
0.0
 11
1.09386
 21
5.17415
 31
0.0
  0
LINE
  5
1BB
  8
0
 10
1.09386
 20
5.17415
 30
0.0
 11
1.0439
 21
4.8373
 31
0.0
  0
LINE
  5
1BC
  8
0
 10
1.0439
 20
4.8373
 30
0.0
 11
1.02718
 21
4.49718
 31
0.0
  0
LINE
  5
1BD
  8
0
 10
1.02718
 20
4.49718
 30
0.0
 11
1.0439
 21
4.15706
 31
0.0
  0
LINE
  5
1BE
  8
0
 10
1.0439
 20
4.15706
 30
0.0
 11
1.09386
 21
3.82022
 31
0.0
  0
LINE
  5
1BF
  8
0
 10
1.09386
 20
3.82022
 30
0.0
 11
1.15132
 21
3.59084
 31
0.0
  0
LINE
  5
1C0
  8
0
 10
1.15132
 20
3.59084
 30
0.0
 11
-0.197983
 21
2.24152
 31
0.0
  0
LINE
  5
1C1
  8
0
 10
-0.197983
 20
2.24152
 30
0.0
 11
2.24152
 21
-0.197983
 31
0.0
  0
LINE
  5
1C2
  8
0
 10
2.24152
 20
-0.197983
 30
0.0
 11
3.59084
 21
1.15132
 31
0.0
  0
LINE
  5
1C3
  8
0
 10
2.72943
 20
4.14363
 30
0.0
 11
4.14363
 21
5.55785
 31
0.0
  0
LINE
  5
1C4
  8
0
 10
4.14363
 20
5.55785
 30
0.0
 11
5.55785
 21
4.14363
 31
0.0
  0
LINE
  5
1C5
  8
0
 10
5.55785
 20
4.14363
 30
0.0
 11
4.14363
 21
2.72943
 31
0.0
  0
LINE
  5
1C6
  8
0
 10
4.14363
 20
2.72943
 30
0.0
 11
2.72943
 21
4.14363
 31
0.0
  0
LINE
  5
1C7
  8
0
 10
-4.15707
 20
-7.95047
 30
0.0
 11
-3.82024
 21
-7.90051
 31
0.0
  0
LINE
  5
1C8
  8
0
 10
-3.82024
 20
-7.90051
 30
0.0
 11
-3.48991
 21
-7.81776
 31
0.0
  0
LINE
  5
1C9
  8
0
 10
-3.48991
 20
-7.81776
 30
0.0
 11
-3.16928
 21
-7.70303
 31
0.0
  0
LINE
  5
1CA
  8
0
 10
-3.16928
 20
-7.70303
 30
0.0
 11
-2.86145
 21
-7.55745
 31
0.0
  0
LINE
  5
1CB
  8
0
 10
-2.86145
 20
-7.55745
 30
0.0
 11
-2.56937
 21
-7.38239
 31
0.0
  0
LINE
  5
1CC
  8
0
 10
-2.56937
 20
-7.38239
 30
0.0
 11
-2.29585
 21
-7.17953
 31
0.0
  0
LINE
  5
1CD
  8
0
 10
-2.29585
 20
-7.17953
 30
0.0
 11
-2.04353
 21
-6.95084
 31
0.0
  0
LINE
  5
1CE
  8
0
 10
-2.04353
 20
-6.95084
 30
0.0
 11
-1.81485
 21
-6.69852
 31
0.0
  0
LINE
  5
1CF
  8
0
 10
-1.81485
 20
-6.69852
 30
0.0
 11
-1.61198
 21
-6.42502
 31
0.0
  0
LINE
  5
1D0
  8
0
 10
-1.61198
 20
-6.42502
 30
0.0
 11
-1.43694
 21
-6.13292
 31
0.0
  0
LINE
  5
1D1
  8
0
 10
-1.43694
 20
-6.13292
 30
0.0
 11
-1.29132
 21
-5.82509
 31
0.0
  0
LINE
  5
1D2
  8
0
 10
-1.29132
 20
-5.82509
 30
0.0
 11
-1.17661
 21
-5.50447
 31
0.0
  0
LINE
  5
1D3
  8
0
 10
-1.17661
 20
-5.50447
 30
0.0
 11
-1.09386
 21
-5.17415
 31
0.0
  0
LINE
  5
1D4
  8
0
 10
-1.09386
 20
-5.17415
 30
0.0
 11
-1.0439
 21
-4.8373
 31
0.0
  0
LINE
  5
1D5
  8
0
 10
-1.0439
 20
-4.8373
 30
0.0
 11
-1.02718
 21
-4.49718
 31
0.0
  0
LINE
  5
1D6
  8
0
 10
-1.02718
 20
-4.49718
 30
0.0
 11
-1.0439
 21
-4.15706
 31
0.0
  0
LINE
  5
1D7
  8
0
 10
-1.0439
 20
-4.15706
 30
0.0
 11
-1.09386
 21
-3.82022
 31
0.0
  0
LINE
  5
1D8
  8
0
 10
-1.09386
 20
-3.82022
 30
0.0
 11
-1.15132
 21
-3.59084
 31
0.0
  0
LINE
  5
1D9
  8
0
 10
-1.15132
 20
-3.59084
 30
0.0
 11
0.197983
 21
-2.24152
 31
0.0
  0
LINE
  5
1DA
  8
0
 10
0.197983
 20
-2.24152
 30
0.0
 11
-2.24152
 21
0.197983
 31
0.0
  0
LINE
  5
1DB
  8
0
 10
-2.24152
 20
0.197983
 30
0.0
 11
-3.59084
 21
-1.15132
 31
0.0
  0
LINE
  5
1DC
  8
0
 10
-3.59084
 20
-1.15132
 30
0.0
 11
-3.82022
 21
-1.09386
 31
0.0
  0
LINE
  5
1DD
  8
0
 10
-3.82022
 20
-1.09386
 30
0.0
 11
-4.15706
 21
-1.0439
 31
0.0
  0
LINE
  5
1DE
  8
0
 10
-4.15706
 20
-1.0439
 30
0.0
 11
-4.49718
 21
-1.02718
 31
0.0
  0
LINE
  5
1DF
  8
0
 10
-4.49718
 20
-1.02718
 30
0.0
 11
-4.8373
 21
-1.0439
 31
0.0
  0
LINE
  5
1E0
  8
0
 10
-4.8373
 20
-1.0439
 30
0.0
 11
-5.17415
 21
-1.09386
 31
0.0
  0
LINE
  5
1E1
  8
0
 10
-5.17415
 20
-1.09386
 30
0.0
 11
-5.50447
 21
-1.17661
 31
0.0
  0
LINE
  5
1E2
  8
0
 10
-5.50447
 20
-1.17661
 30
0.0
 11
-5.82509
 21
-1.29132
 31
0.0
  0
LINE
  5
1E3
  8
0
 10
-5.82509
 20
-1.29132
 30
0.0
 11
-6.13292
 21
-1.43694
 31
0.0
  0
LINE
  5
1E4
  8
0
 10
-6.13292
 20
-1.43694
 30
0.0
 11
-6.42502
 21
-1.61198
 31
0.0
  0
LINE
  5
1E5
  8
0
 10
-6.42502
 20
-1.61198
 30
0.0
 11
-6.69852
 21
-1.81485
 31
0.0
  0
LINE
  5
1E6
  8
0
 10
-6.69852
 20
-1.81485
 30
0.0
 11
-6.95084
 21
-2.04353
 31
0.0
  0
LINE
  5
1E7
  8
0
 10
-6.95084
 20
-2.04353
 30
0.0
 11
-7.17953
 21
-2.29585
 31
0.0
  0
LINE
  5
1E8
  8
0
 10
-7.17953
 20
-2.29585
 30
0.0
 11
-7.38239
 21
-2.56937
 31
0.0
  0
LINE
  5
1E9
  8
0
 10
-7.38239
 20
-2.56937
 30
0.0
 11
-7.55745
 21
-2.86145
 31
0.0
  0
LINE
  5
1EA
  8
0
 10
-7.55745
 20
-2.86145
 30
0.0
 11
-7.70303
 21
-3.16928
 31
0.0
  0
LINE
  5
1EB
  8
0
 10
-7.70303
 20
-3.16928
 30
0.0
 11
-7.81776
 21
-3.48991
 31
0.0
  0
LINE
  5
1EC
  8
0
 10
-7.81776
 20
-3.48991
 30
0.0
 11
-7.90051
 21
-3.82024
 31
0.0
  0
LINE
  5
1ED
  8
0
 10
-7.90051
 20
-3.82024
 30
0.0
 11
-7.95047
 21
-4.15707
 31
0.0
  0
LINE
  5
1EE
  8
0
 10
-7.95047
 20
-4.15707
 30
0.0
 11
-7.96719
 21
-4.49719
 31
0.0
  0
LINE
  5
1EF
  8
0
 10
-7.96719
 20
-4.49719
 30
0.0
 11
-7.95047
 21
-4.83731
 31
0.0
  0
LINE
  5
1F0
  8
0
 10
-7.95047
 20
-4.83731
 30
0.0
 11
-7.90051
 21
-5.17415
 31
0.0
  0
LINE
  5
1F1
  8
0
 10
-7.90051
 20
-5.17415
 30
0.0
 11
-7.81776
 21
-5.50447
 31
0.0
  0
LINE
  5
1F2
  8
0
 10
-7.81776
 20
-5.50447
 30
0.0
 11
-7.70305
 21
-5.8251
 31
0.0
  0
LINE
  5
1F3
  8
0
 10
-7.70305
 20
-5.8251
 30
0.0
 11
-7.55745
 21
-6.13293
 31
0.0
  0
LINE
  5
1F4
  8
0
 10
-7.55745
 20
-6.13293
 30
0.0
 11
-7.38239
 21
-6.42502
 31
0.0
  0
LINE
  5
1F5
  8
0
 10
-7.38239
 20
-6.42502
 30
0.0
 11
-7.17953
 21
-6.69853
 31
0.0
  0
LINE
  5
1F6
  8
0
 10
-7.17953
 20
-6.69853
 30
0.0
 11
-6.95084
 21
-6.95084
 31
0.0
  0
LINE
  5
1F7
  8
0
 10
-6.95084
 20
-6.95084
 30
0.0
 11
-6.69853
 21
-7.17953
 31
0.0
  0
LINE
  5
1F8
  8
0
 10
-6.69853
 20
-7.17953
 30
0.0
 11
-6.42502
 21
-7.38239
 31
0.0
  0
LINE
  5
1F9
  8
0
 10
-6.42502
 20
-7.38239
 30
0.0
 11
-6.13293
 21
-7.55745
 31
0.0
  0
LINE
  5
1FA
  8
0
 10
-6.13293
 20
-7.55745
 30
0.0
 11
-5.8251
 21
-7.70305
 31
0.0
  0
LINE
  5
1FB
  8
0
 10
-5.8251
 20
-7.70305
 30
0.0
 11
-5.50447
 21
-7.81776
 31
0.0
  0
LINE
  5
1FC
  8
0
 10
-5.50447
 20
-7.81776
 30
0.0
 11
-5.17415
 21
-7.90051
 31
0.0
  0
LINE
  5
1FD
  8
0
 10
-5.17415
 20
-7.90051
 30
0.0
 11
-4.83731
 21
-7.95047
 31
0.0
  0
LINE
  5
1FE
  8
0
 10
-4.83731
 20
-7.95047
 30
0.0
 11
-4.49719
 21
-7.96719
 31
0.0
  0
LINE
  5
1FF
  8
0
 10
-4.49719
 20
-7.96719
 30
0.0
 11
-4.15707
 21
-7.95047
 31
0.0
  0
LINE
  5
200
  8
0
 10
-5.55785
 20
-4.14363
 30
0.0
 11
-4.14363
 21
-2.72943
 31
0.0
  0
LINE
  5
201
  8
0
 10
-4.14363
 20
-2.72943
 30
0.0
 11
-2.72943
 21
-4.14363
 31
0.0
  0
LINE
  5
202
  8
0
 10
-2.72943
 20
-4.14363
 30
0.0
 11
-4.14363
 21
-5.55785
 31
0.0
  0
LINE
  5
203
  8
0
 10
-4.14363
 20
-5.55785
 30
0.0
 11
-5.55785
 21
-4.14363
 31
0.0
  0
ENDSEC
  0
EOF
