  0
SECTION
  2
HEADER
  9
$ACADVER
  1
AC1009
  9
$DWGCODEPAGE
  3
ANSI_1252
  9
$INSBASE
 10
0.0
 20
0.0
 30
0.0
  9
$EXTMIN
 10
1e+20
 20
1e+20
 30
1e+20
  9
$EXTMAX
 10
-1e+20
 20
-1e+20
 30
-1e+20
  9
$LIMMIN
 10
0.0
 20
0.0
  9
$LIMMAX
 10
420.0
 20
297.0
  9
$ORTHOMODE
 70
0
  9
$REGENMODE
 70
1
  9
$FILLMODE
 70
1
  9
$DRAGMODE
 70
2
  9
$QTEXTMODE
 70
0
  9
$MIRRTEXT
 70
1
  9
$OSMODE
 70
20583
  9
$LTSCALE
 40
1.0
  9
$ATTMODE
 70
1
  9
$TEXTSIZE
 40
2.5
  9
$TRACEWID
 40
1.0
  9
$TEXTSTYLE
  7
Standard
  9
$CLAYER
  8
0
  9
$CELTYPE
  6
ByLayer
  9
$CECOLOR
 62
256
  9
$DIMSCALE
 40
1.0
  9
$DIMASZ
 40
2.5
  9
$DIMEXO
 40
0.625
  9
$DIMDLI
 40
3.75
  9
$DIMRND
 40
0.0
  9
$DIMDLE
 40
0.0
  9
$DIMEXE
 40
1.25
  9
$DIMTP
 40
0.0
  9
$DIMTM
 40
0.0
  9
$DIMTXT
 40
2.5
  9
$DIMCEN
 40
2.5
  9
$DIMTSZ
 40
0.0
  9
$DIMTOL
 70
0
  9
$DIMLIM
 70
0
  9
$DIMTIH
 70
0
  9
$DIMTOH
 70
0
  9
$DIMSE1
 70
0
  9
$DIMSE2
 70
0
  9
$DIMTAD
 70
1
  9
$DIMZIN
 70
8
  9
$DIMBLK
  1

  9
$DIMASO
 70
1
  9
$DIMSHO
 70
1
  9
$DIMPOST
  1

  9
$DIMAPOST
  1

  9
$DIMALT
 70
0
  9
$DIMALTD
 70
3
  9
$DIMALTF
 40
0.03937007874
  9
$DIMLFAC
 40
1.0
  9
$DIMTOFL
 70
1
  9
$DIMTVP
 40
0.0
  9
$DIMTIX
 70
0
  9
$DIMSOXD
 70
0
  9
$DIMSAH
 70
0
  9
$DIMBLK1
  1

  9
$DIMBLK2
  1

  9
$DIMSTYLE
  2
ISO-25
  9
$DIMCLRD
 70
0
  9
$DIMCLRE
 70
0
  9
$DIMCLRT
 70
0
  9
$DIMTFAC
 40
1.0
  9
$DIMGAP
 40
0.625
  9
$COORDS
 70
1
  9
$ATTDIA
 70
0
  9
$ATTREQ
 70
1
  9
$HANDLING
 70
1
  9
$LUNITS
 70
2
  9
$LUPREC
 70
4
  9
$SKETCHINC
 40
1.0
  9
$FILLETRAD
 40
10.0
  9
$AUNITS
 70
0
  9
$AUPREC
 70
2
  9
$MENU
  1
.
  9
$ELEVATION
 40
0.0
  9
$PELEVATION
 40
0.0
  9
$THICKNESS
 40
0.0
  9
$LIMCHECK
 70
0
  9
$CHAMFERA
 40
0.0
  9
$CHAMFERB
 40
0.0
  9
$SKPOLY
 70
0
  9
$TDCREATE
 40
2461215.538425926
  9
$TDUPDATE
 40
2461215.538425926
  9
$TDINDWG
 40
0.0
  9
$TDUSRTIMER
 40
0.0
  9
$USRTIMER
 70
1
  9
$ANGBASE
 50
0.0
  9
$ANGDIR
 70
0
  9
$PDMODE
 70
0
  9
$PDSIZE
 40
0.0
  9
$PLINEWID
 40
0.0
  9
$SPLFRAME
 70
0
  9
$SPLINETYPE
 70
6
  9
$SPLINESEGS
 70
8
  9
$HANDSEED
  5
78B
  9
$SURFTAB1
 70
6
  9
$SURFTAB2
 70
6
  9
$SURFTYPE
 70
6
  9
$SURFU
 70
6
  9
$SURFV
 70
6
  9
$UCSNAME
  2

  9
$UCSORG
 10
0.0
 20
0.0
 30
0.0
  9
$UCSXDIR
 10
1.0
 20
0.0
 30
0.0
  9
$UCSYDIR
 10
0.0
 20
1.0
 30
0.0
  9
$PUCSNAME
  2

  9
$PUCSORG
 10
0.0
 20
0.0
 30
0.0
  9
$PUCSXDIR
 10
1.0
 20
0.0
 30
0.0
  9
$PUCSYDIR
 10
0.0
 20
1.0
 30
0.0
  9
$USERI1
 70
0
  9
$USERI2
 70
0
  9
$USERI3
 70
0
  9
$USERI4
 70
0
  9
$USERI5
 70
0
  9
$USERR1
 40
0.0
  9
$USERR2
 40
0.0
  9
$USERR3
 40
0.0
  9
$USERR4
 40
0.0
  9
$USERR5
 40
0.0
  9
$WORLDVIEW
 70
1
  9
$SHADEDGE
 70
3
  9
$SHADEDIF
 70
70
  9
$TILEMODE
 70
1
  9
$MAXACTVP
 70
64
  9
$PLIMCHECK
 70
0
  9
$PEXTMIN
 10
1e+20
 20
1e+20
 30
1e+20
  9
$PEXTMAX
 10
-1e+20
 20
-1e+20
 30
-1e+20
  9
$PLIMMIN
 10
0.0
 20
0.0
  9
$PLIMMAX
 10
420.0
 20
297.0
  9
$UNITMODE
 70
0
  9
$VISRETAIN
 70
1
  9
$PLINEGEN
 70
0
  9
$PSLTSCALE
 70
1
  0
ENDSEC
  0
SECTION
  2
TABLES
  0
TABLE
  2
VPORT
 70
1
  0
VPORT
  5
77F
  2
*Active
 70
0
 10
0.0
 20
0.0
 11
1.0
 21
1.0
 12
0.0
 22
0.0
 13
0.0
 23
0.0
 14
0.5
 24
0.5
 15
0.5
 25
0.5
 16
0.0
 26
0.0
 36
1.0
 17
0.0
 27
0.0
 37
0.0
 40
1000.0
 41
1.34
 42
50.0
 43
0.0
 44
0.0
 50
0.0
 51
0.0
 71
0
 72
1000
 73
1
 74
3
 75
0
 76
0
 77
0
 78
0
  0
ENDTAB
  0
TABLE
  2
LTYPE
 70
3
  0
LTYPE
  5
780
  2
ByBlock
 70
0
  3

 72
65
 73
0
 40
0.0
  0
LTYPE
  5
781
  2
ByLayer
 70
0
  3

 72
65
 73
0
 40
0.0
  0
LTYPE
  5
782
  2
Continuous
 70
0
  3

 72
65
 73
0
 40
0.0
  0
ENDTAB
  0
TABLE
  2
LAYER
 70
2
  0
LAYER
  5
783
  2
0
 70
0
 62
7
  6
Continuous
  0
LAYER
  5
784
  2
Defpoints
 70
0
 62
7
  6
Continuous
  0
ENDTAB
  0
TABLE
  2
STYLE
 70
1
  0
STYLE
  5
785
  2
Standard
 70
0
 40
0.0
 41
1.0
 50
0.0
 71
0
 42
2.5
  3
txt
  4

  0
ENDTAB
  0
TABLE
  2
VIEW
 70
0
  0
ENDTAB
  0
TABLE
  2
UCS
 70
0
  0
ENDTAB
  0
TABLE
  2
APPID
 70
3
  0
APPID
  5
786
  2
ACAD
 70
0
  0
APPID
  5
789
  2
HATCHBACKGROUNDCOLOR
 70
0
  0
APPID
  5
78A
  2
EZDXF
 70
0
  0
ENDTAB
  0
TABLE
  2
DIMSTYLE
 70
1
  0
DIMSTYLE
105
787
  2
Standard
 70
0
  3

  4

  5

  6

  7

 40
1.0
 41
2.5
 42
0.625
 43
3.75
 44
1.25
 45
0.0
 46
0.0
 47
0.0
 48
0.0
140
2.5
141
2.5
142
0.0
143
0.03937007874
144
1.0
145
0.0
146
1.0
147
0.625
 71
0
 72
0
 73
0
 74
0
 75
0
 76
0
 77
1
 78
8
170
0
171
3
172
1
173
0
174
0
175
0
176
0
177
0
178
0
  0
ENDTAB
  0
ENDSEC
  0
SECTION
  2
BLOCKS
  0
BLOCK
  5
760
  8
0
  2
$Model_Space
 70
0
 10
0.0
 20
0.0
 30
0.0
  3
$Model_Space
  1

1001
EZDXF
1000
WRITTEN_BY_EZDXF
1000
1.4.3 @ 2026-06-23T16:55:20.457141+00:00
  0
ENDBLK
  5
761
  8
0
  0
BLOCK
  5
762
  8
0
  2
$Paper_Space
 70
0
 10
0.0
 20
0.0
 30
0.0
  3
$Paper_Space
  1

  0
ENDBLK
  5
763
  8
0
  0
ENDSEC
  0
SECTION
  2
ENTITIES
  0
LINE
  5
100
  8
0
 10
-3.82022
 20
1.09386
 30
0.0
 11
-3.4899
 21
1.17661
 31
0.0
  0
LINE
  5
101
  8
0
 10
-3.4899
 20
1.17661
 30
0.0
 11
-3.16928
 21
1.29132
 31
0.0
  0
LINE
  5
102
  8
0
 10
-3.16928
 20
1.29132
 30
0.0
 11
-2.86143
 21
1.43694
 31
0.0
  0
LINE
  5
103
  8
0
 10
-2.86143
 20
1.43694
 30
0.0
 11
-2.56935
 21
1.61198
 31
0.0
  0
LINE
  5
104
  8
0
 10
-2.56935
 20
1.61198
 30
0.0
 11
-2.29585
 21
1.81485
 31
0.0
  0
LINE
  5
105
  8
0
 10
-2.29585
 20
1.81485
 30
0.0
 11
-2.08061
 21
2.00992
 31
0.0
  0
LINE
  5
106
  8
0
 10
-2.08061
 20
2.00992
 30
0.0
 11
-1.2551
 21
1.1844
 31
0.0
  0
LINE
  5
107
  8
0
 10
-1.2551
 20
1.1844
 30
0.0
 11
-3.59084
 21
-1.15132
 31
0.0
  0
LINE
  5
108
  8
0
 10
-3.59084
 20
-1.15132
 30
0.0
 11
-3.82022
 21
-1.09386
 31
0.0
  0
LINE
  5
109
  8
0
 10
-3.82022
 20
-1.09386
 30
0.0
 11
-4.15706
 21
-1.0439
 31
0.0
  0
LINE
  5
10A
  8
0
 10
-4.15706
 20
-1.0439
 30
0.0
 11
-4.49718
 21
-1.02718
 31
0.0
  0
LINE
  5
10B
  8
0
 10
-4.49718
 20
-1.02718
 30
0.0
 11
-4.8373
 21
-1.0439
 31
0.0
  0
LINE
  5
10C
  8
0
 10
-4.8373
 20
-1.0439
 30
0.0
 11
-5.17415
 21
-1.09386
 31
0.0
  0
LINE
  5
10D
  8
0
 10
-5.17415
 20
-1.09386
 30
0.0
 11
-5.50447
 21
-1.17661
 31
0.0
  0
LINE
  5
10E
  8
0
 10
-5.50447
 20
-1.17661
 30
0.0
 11
-5.82509
 21
-1.29132
 31
0.0
  0
LINE
  5
10F
  8
0
 10
-5.82509
 20
-1.29132
 30
0.0
 11
-6.13292
 21
-1.43694
 31
0.0
  0
LINE
  5
110
  8
0
 10
-6.13292
 20
-1.43694
 30
0.0
 11
-6.42502
 21
-1.61198
 31
0.0
  0
LINE
  5
111
  8
0
 10
-6.42502
 20
-1.61198
 30
0.0
 11
-6.69852
 21
-1.81485
 31
0.0
  0
LINE
  5
112
  8
0
 10
-6.69852
 20
-1.81485
 30
0.0
 11
-6.95084
 21
-2.04353
 31
0.0
  0
LINE
  5
113
  8
0
 10
-6.95084
 20
-2.04353
 30
0.0
 11
-7.17953
 21
-2.29585
 31
0.0
  0
LINE
  5
114
  8
0
 10
-7.17953
 20
-2.29585
 30
0.0
 11
-7.38239
 21
-2.56937
 31
0.0
  0
LINE
  5
115
  8
0
 10
-7.38239
 20
-2.56937
 30
0.0
 11
-7.55745
 21
-2.86145
 31
0.0
  0
LINE
  5
116
  8
0
 10
-7.55745
 20
-2.86145
 30
0.0
 11
-7.70303
 21
-3.16928
 31
0.0
  0
LINE
  5
117
  8
0
 10
-7.70303
 20
-3.16928
 30
0.0
 11
-7.81776
 21
-3.48991
 31
0.0
  0
LINE
  5
118
  8
0
 10
-7.81776
 20
-3.48991
 30
0.0
 11
-7.90051
 21
-3.82024
 31
0.0
  0
LINE
  5
119
  8
0
 10
-7.90051
 20
-3.82024
 30
0.0
 11
-7.95047
 21
-4.15707
 31
0.0
  0
LINE
  5
11A
  8
0
 10
-7.95047
 20
-4.15707
 30
0.0
 11
-7.96719
 21
-4.49719
 31
0.0
  0
LINE
  5
11B
  8
0
 10
-7.96719
 20
-4.49719
 30
0.0
 11
-7.95047
 21
-4.83731
 31
0.0
  0
LINE
  5
11C
  8
0
 10
-7.95047
 20
-4.83731
 30
0.0
 11
-7.90051
 21
-5.17415
 31
0.0
  0
LINE
  5
11D
  8
0
 10
-7.90051
 20
-5.17415
 30
0.0
 11
-7.81776
 21
-5.50447
 31
0.0
  0
LINE
  5
11E
  8
0
 10
-7.81776
 20
-5.50447
 30
0.0
 11
-7.70305
 21
-5.8251
 31
0.0
  0
LINE
  5
11F
  8
0
 10
-7.70305
 20
-5.8251
 30
0.0
 11
-7.55745
 21
-6.13293
 31
0.0
  0
LINE
  5
120
  8
0
 10
-7.55745
 20
-6.13293
 30
0.0
 11
-7.38239
 21
-6.42502
 31
0.0
  0
LINE
  5
121
  8
0
 10
-7.38239
 20
-6.42502
 30
0.0
 11
-7.17953
 21
-6.69853
 31
0.0
  0
LINE
  5
122
  8
0
 10
-7.17953
 20
-6.69853
 30
0.0
 11
-6.95084
 21
-6.95084
 31
0.0
  0
LINE
  5
123
  8
0
 10
-6.95084
 20
-6.95084
 30
0.0
 11
-6.69853
 21
-7.17953
 31
0.0
  0
LINE
  5
124
  8
0
 10
-6.69853
 20
-7.17953
 30
0.0
 11
-6.42502
 21
-7.38239
 31
0.0
  0
LINE
  5
125
  8
0
 10
-6.42502
 20
-7.38239
 30
0.0
 11
-6.13293
 21
-7.55745
 31
0.0
  0
LINE
  5
126
  8
0
 10
-6.13293
 20
-7.55745
 30
0.0
 11
-5.8251
 21
-7.70305
 31
0.0
  0
LINE
  5
127
  8
0
 10
-5.8251
 20
-7.70305
 30
0.0
 11
-5.50447
 21
-7.81776
 31
0.0
  0
LINE
  5
128
  8
0
 10
-5.50447
 20
-7.81776
 30
0.0
 11
-5.17415
 21
-7.90051
 31
0.0
  0
LINE
  5
129
  8
0
 10
-5.17415
 20
-7.90051
 30
0.0
 11
-4.83731
 21
-7.95047
 31
0.0
  0
LINE
  5
12A
  8
0
 10
-4.83731
 20
-7.95047
 30
0.0
 11
-4.49719
 21
-7.96719
 31
0.0
  0
LINE
  5
12B
  8
0
 10
-4.49719
 20
-7.96719
 30
0.0
 11
-4.15707
 21
-7.95047
 31
0.0
  0
LINE
  5
12C
  8
0
 10
-4.15707
 20
-7.95047
 30
0.0
 11
-3.82024
 21
-7.90051
 31
0.0
  0
LINE
  5
12D
  8
0
 10
-3.82024
 20
-7.90051
 30
0.0
 11
-3.48991
 21
-7.81776
 31
0.0
  0
LINE
  5
12E
  8
0
 10
-3.48991
 20
-7.81776
 30
0.0
 11
-3.16928
 21
-7.70303
 31
0.0
  0
LINE
  5
12F
  8
0
 10
-3.16928
 20
-7.70303
 30
0.0
 11
-2.86145
 21
-7.55745
 31
0.0
  0
LINE
  5
130
  8
0
 10
-2.86145
 20
-7.55745
 30
0.0
 11
-2.56937
 21
-7.38239
 31
0.0
  0
LINE
  5
131
  8
0
 10
-2.56937
 20
-7.38239
 30
0.0
 11
-2.29585
 21
-7.17953
 31
0.0
  0
LINE
  5
132
  8
0
 10
-2.29585
 20
-7.17953
 30
0.0
 11
-2.04353
 21
-6.95084
 31
0.0
  0
LINE
  5
133
  8
0
 10
-2.04353
 20
-6.95084
 30
0.0
 11
-1.81485
 21
-6.69852
 31
0.0
  0
LINE
  5
134
  8
0
 10
-1.81485
 20
-6.69852
 30
0.0
 11
-1.61198
 21
-6.42502
 31
0.0
  0
LINE
  5
135
  8
0
 10
-1.61198
 20
-6.42502
 30
0.0
 11
-1.43694
 21
-6.13292
 31
0.0
  0
LINE
  5
136
  8
0
 10
-1.43694
 20
-6.13292
 30
0.0
 11
-1.29132
 21
-5.82509
 31
0.0
  0
LINE
  5
137
  8
0
 10
-1.29132
 20
-5.82509
 30
0.0
 11
-1.17661
 21
-5.50447
 31
0.0
  0
LINE
  5
138
  8
0
 10
-1.17661
 20
-5.50447
 30
0.0
 11
-1.09386
 21
-5.17415
 31
0.0
  0
LINE
  5
139
  8
0
 10
-1.09386
 20
-5.17415
 30
0.0
 11
-1.0439
 21
-4.8373
 31
0.0
  0
LINE
  5
13A
  8
0
 10
-1.0439
 20
-4.8373
 30
0.0
 11
-1.02718
 21
-4.49718
 31
0.0
  0
LINE
  5
13B
  8
0
 10
-1.02718
 20
-4.49718
 30
0.0
 11
-1.0439
 21
-4.15706
 31
0.0
  0
LINE
  5
13C
  8
0
 10
-1.0439
 20
-4.15706
 30
0.0
 11
-1.09386
 21
-3.82022
 31
0.0
  0
LINE
  5
13D
  8
0
 10
-1.09386
 20
-3.82022
 30
0.0
 11
-1.15132
 21
-3.59084
 31
0.0
  0
LINE
  5
13E
  8
0
 10
-1.15132
 20
-3.59084
 30
0.0
 11
1.1844
 21
-1.2551
 31
0.0
  0
LINE
  5
13F
  8
0
 10
1.1844
 20
-1.2551
 30
0.0
 11
2.00992
 21
-2.08061
 31
0.0
  0
LINE
  5
140
  8
0
 10
2.00992
 20
-2.08061
 30
0.0
 11
1.81485
 21
-2.29585
 31
0.0
  0
LINE
  5
141
  8
0
 10
1.81485
 20
-2.29585
 30
0.0
 11
1.61198
 21
-2.56935
 31
0.0
  0
LINE
  5
142
  8
0
 10
1.61198
 20
-2.56935
 30
0.0
 11
1.43694
 21
-2.86143
 31
0.0
  0
LINE
  5
143
  8
0
 10
1.43694
 20
-2.86143
 30
0.0
 11
1.29132
 21
-3.16928
 31
0.0
  0
LINE
  5
144
  8
0
 10
1.29132
 20
-3.16928
 30
0.0
 11
1.17661
 21
-3.4899
 31
0.0
  0
LINE
  5
145
  8
0
 10
1.17661
 20
-3.4899
 30
0.0
 11
1.09386
 21
-3.82022
 31
0.0
  0
LINE
  5
146
  8
0
 10
1.09386
 20
-3.82022
 30
0.0
 11
1.0439
 21
-4.15706
 31
0.0
  0
LINE
  5
147
  8
0
 10
1.0439
 20
-4.15706
 30
0.0
 11
1.02718
 21
-4.49718
 31
0.0
  0
LINE
  5
148
  8
0
 10
1.02718
 20
-4.49718
 30
0.0
 11
1.0439
 21
-4.8373
 31
0.0
  0
LINE
  5
149
  8
0
 10
1.0439
 20
-4.8373
 30
0.0
 11
1.09386
 21
-5.17415
 31
0.0
  0
LINE
  5
14A
  8
0
 10
1.09386
 20
-5.17415
 30
0.0
 11
1.17661
 21
-5.50447
 31
0.0
  0
LINE
  5
14B
  8
0
 10
1.17661
 20
-5.50447
 30
0.0
 11
1.29132
 21
-5.82509
 31
0.0
  0
LINE
  5
14C
  8
0
 10
1.29132
 20
-5.82509
 30
0.0
 11
1.43694
 21
-6.13292
 31
0.0
  0
LINE
  5
14D
  8
0
 10
1.43694
 20
-6.13292
 30
0.0
 11
1.61198
 21
-6.42502
 31
0.0
  0
LINE
  5
14E
  8
0
 10
1.61198
 20
-6.42502
 30
0.0
 11
1.81485
 21
-6.69852
 31
0.0
  0
LINE
  5
14F
  8
0
 10
1.81485
 20
-6.69852
 30
0.0
 11
2.04353
 21
-6.95084
 31
0.0
  0
LINE
  5
150
  8
0
 10
2.04353
 20
-6.95084
 30
0.0
 11
2.29585
 21
-7.17953
 31
0.0
  0
LINE
  5
151
  8
0
 10
2.29585
 20
-7.17953
 30
0.0
 11
2.56937
 21
-7.38239
 31
0.0
  0
LINE
  5
152
  8
0
 10
2.56937
 20
-7.38239
 30
0.0
 11
2.86145
 21
-7.55745
 31
0.0
  0
LINE
  5
153
  8
0
 10
2.86145
 20
-7.55745
 30
0.0
 11
3.16928
 21
-7.70303
 31
0.0
  0
LINE
  5
154
  8
0
 10
3.16928
 20
-7.70303
 30
0.0
 11
3.48991
 21
-7.81776
 31
0.0
  0
LINE
  5
155
  8
0
 10
3.48991
 20
-7.81776
 30
0.0
 11
3.82024
 21
-7.90051
 31
0.0
  0
LINE
  5
156
  8
0
 10
3.82024
 20
-7.90051
 30
0.0
 11
4.15707
 21
-7.95047
 31
0.0
  0
LINE
  5
157
  8
0
 10
4.15707
 20
-7.95047
 30
0.0
 11
4.49719
 21
-7.96719
 31
0.0
  0
LINE
  5
158
  8
0
 10
4.49719
 20
-7.96719
 30
0.0
 11
4.83731
 21
-7.95047
 31
0.0
  0
LINE
  5
159
  8
0
 10
4.83731
 20
-7.95047
 30
0.0
 11
5.17415
 21
-7.90051
 31
0.0
  0
LINE
  5
15A
  8
0
 10
5.17415
 20
-7.90051
 30
0.0
 11
5.50447
 21
-7.81776
 31
0.0
  0
LINE
  5
15B
  8
0
 10
5.50447
 20
-7.81776
 30
0.0
 11
5.8251
 21
-7.70305
 31
0.0
  0
LINE
  5
15C
  8
0
 10
5.8251
 20
-7.70305
 30
0.0
 11
6.13293
 21
-7.55745
 31
0.0
  0
LINE
  5
15D
  8
0
 10
6.13293
 20
-7.55745
 30
0.0
 11
6.42502
 21
-7.38239
 31
0.0
  0
LINE
  5
15E
  8
0
 10
6.42502
 20
-7.38239
 30
0.0
 11
6.69853
 21
-7.17953
 31
0.0
  0
LINE
  5
15F
  8
0
 10
6.69853
 20
-7.17953
 30
0.0
 11
6.95084
 21
-6.95084
 31
0.0
  0
LINE
  5
160
  8
0
 10
6.95084
 20
-6.95084
 30
0.0
 11
7.17953
 21
-6.69853
 31
0.0
  0
LINE
  5
161
  8
0
 10
7.17953
 20
-6.69853
 30
0.0
 11
7.38239
 21
-6.42502
 31
0.0
  0
LINE
  5
162
  8
0
 10
7.38239
 20
-6.42502
 30
0.0
 11
7.55745
 21
-6.13293
 31
0.0
  0
LINE
  5
163
  8
0
 10
7.55745
 20
-6.13293
 30
0.0
 11
7.70305
 21
-5.8251
 31
0.0
  0
LINE
  5
164
  8
0
 10
7.70305
 20
-5.8251
 30
0.0
 11
7.81776
 21
-5.50447
 31
0.0
  0
LINE
  5
165
  8
0
 10
7.81776
 20
-5.50447
 30
0.0
 11
7.90051
 21
-5.17415
 31
0.0
  0
LINE
  5
166
  8
0
 10
7.90051
 20
-5.17415
 30
0.0
 11
7.95047
 21
-4.83731
 31
0.0
  0
LINE
  5
167
  8
0
 10
7.95047
 20
-4.83731
 30
0.0
 11
7.96719
 21
-4.49719
 31
0.0
  0
LINE
  5
168
  8
0
 10
7.96719
 20
-4.49719
 30
0.0
 11
7.95047
 21
-4.15707
 31
0.0
  0
LINE
  5
169
  8
0
 10
7.95047
 20
-4.15707
 30
0.0
 11
7.90051
 21
-3.82024
 31
0.0
  0
LINE
  5
16A
  8
0
 10
7.90051
 20
-3.82024
 30
0.0
 11
7.81776
 21
-3.48991
 31
0.0
  0
LINE
  5
16B
  8
0
 10
7.81776
 20
-3.48991
 30
0.0
 11
7.70303
 21
-3.16928
 31
0.0
  0
LINE
  5
16C
  8
0
 10
7.70303
 20
-3.16928
 30
0.0
 11
7.55745
 21
-2.86145
 31
0.0
  0
LINE
  5
16D
  8
0
 10
7.55745
 20
-2.86145
 30
0.0
 11
7.38239
 21
-2.56937
 31
0.0
  0
LINE
  5
16E
  8
0
 10
7.38239
 20
-2.56937
 30
0.0
 11
7.17953
 21
-2.29585
 31
0.0
  0
LINE
  5
16F
  8
0
 10
7.17953
 20
-2.29585
 30
0.0
 11
6.95084
 21
-2.04353
 31
0.0
  0
LINE
  5
170
  8
0
 10
6.95084
 20
-2.04353
 30
0.0
 11
6.69852
 21
-1.81485
 31
0.0
  0
LINE
  5
171
  8
0
 10
6.69852
 20
-1.81485
 30
0.0
 11
6.42502
 21
-1.61198
 31
0.0
  0
LINE
  5
172
  8
0
 10
6.42502
 20
-1.61198
 30
0.0
 11
6.13292
 21
-1.43694
 31
0.0
  0
LINE
  5
173
  8
0
 10
6.13292
 20
-1.43694
 30
0.0
 11
5.82509
 21
-1.29132
 31
0.0
  0
LINE
  5
174
  8
0
 10
5.82509
 20
-1.29132
 30
0.0
 11
5.50447
 21
-1.17661
 31
0.0
  0
LINE
  5
175
  8
0
 10
5.50447
 20
-1.17661
 30
0.0
 11
5.17415
 21
-1.09386
 31
0.0
  0
LINE
  5
176
  8
0
 10
5.17415
 20
-1.09386
 30
0.0
 11
4.8373
 21
-1.0439
 31
0.0
  0
LINE
  5
177
  8
0
 10
4.8373
 20
-1.0439
 30
0.0
 11
4.49718
 21
-1.02718
 31
0.0
  0
LINE
  5
178
  8
0
 10
4.49718
 20
-1.02718
 30
0.0
 11
4.15706
 21
-1.0439
 31
0.0
  0
LINE
  5
179
  8
0
 10
4.15706
 20
-1.0439
 30
0.0
 11
3.82022
 21
-1.09386
 31
0.0
  0
LINE
  5
17A
  8
0
 10
3.82022
 20
-1.09386
 30
0.0
 11
3.4899
 21
-1.17661
 31
0.0
  0
LINE
  5
17B
  8
0
 10
3.4899
 20
-1.17661
 30
0.0
 11
3.16928
 21
-1.29132
 31
0.0
  0
LINE
  5
17C
  8
0
 10
3.16928
 20
-1.29132
 30
0.0
 11
2.86143
 21
-1.43694
 31
0.0
  0
LINE
  5
17D
  8
0
 10
2.86143
 20
-1.43694
 30
0.0
 11
2.56935
 21
-1.61198
 31
0.0
  0
LINE
  5
17E
  8
0
 10
2.56935
 20
-1.61198
 30
0.0
 11
2.29585
 21
-1.81485
 31
0.0
  0
LINE
  5
17F
  8
0
 10
2.29585
 20
-1.81485
 30
0.0
 11
2.08061
 21
-2.00992
 31
0.0
  0
LINE
  5
180
  8
0
 10
2.08061
 20
-2.00992
 30
0.0
 11
1.2551
 21
-1.1844
 31
0.0
  0
LINE
  5
181
  8
0
 10
1.2551
 20
-1.1844
 30
0.0
 11
3.59084
 21
1.15132
 31
0.0
  0
LINE
  5
182
  8
0
 10
3.59084
 20
1.15132
 30
0.0
 11
3.82022
 21
1.09386
 31
0.0
  0
LINE
  5
183
  8
0
 10
3.82022
 20
1.09386
 30
0.0
 11
4.15706
 21
1.0439
 31
0.0
  0
LINE
  5
184
  8
0
 10
4.15706
 20
1.0439
 30
0.0
 11
4.49718
 21
1.02718
 31
0.0
  0
LINE
  5
185
  8
0
 10
4.49718
 20
1.02718
 30
0.0
 11
4.8373
 21
1.0439
 31
0.0
  0
LINE
  5
186
  8
0
 10
4.8373
 20
1.0439
 30
0.0
 11
5.17415
 21
1.09386
 31
0.0
  0
LINE
  5
187
  8
0
 10
5.17415
 20
1.09386
 30
0.0
 11
5.50447
 21
1.17661
 31
0.0
  0
LINE
  5
188
  8
0
 10
5.50447
 20
1.17661
 30
0.0
 11
5.82509
 21
1.29132
 31
0.0
  0
LINE
  5
189
  8
0
 10
5.82509
 20
1.29132
 30
0.0
 11
6.13292
 21
1.43694
 31
0.0
  0
LINE
  5
18A
  8
0
 10
6.13292
 20
1.43694
 30
0.0
 11
6.42502
 21
1.61198
 31
0.0
  0
LINE
  5
18B
  8
0
 10
6.42502
 20
1.61198
 30
0.0
 11
6.69852
 21
1.81485
 31
0.0
  0
LINE
  5
18C
  8
0
 10
6.69852
 20
1.81485
 30
0.0
 11
6.95084
 21
2.04353
 31
0.0
  0
LINE
  5
18D
  8
0
 10
6.95084
 20
2.04353
 30
0.0
 11
7.17953
 21
2.29585
 31
0.0
  0
LINE
  5
18E
  8
0
 10
7.17953
 20
2.29585
 30
0.0
 11
7.38239
 21
2.56937
 31
0.0
  0
LINE
  5
18F
  8
0
 10
7.38239
 20
2.56937
 30
0.0
 11
7.55745
 21
2.86145
 31
0.0
  0
LINE
  5
190
  8
0
 10
7.55745
 20
2.86145
 30
0.0
 11
7.70303
 21
3.16928
 31
0.0
  0
LINE
  5
191
  8
0
 10
7.70303
 20
3.16928
 30
0.0
 11
7.81776
 21
3.48991
 31
0.0
  0
LINE
  5
192
  8
0
 10
7.81776
 20
3.48991
 30
0.0
 11
7.90051
 21
3.82024
 31
0.0
  0
LINE
  5
193
  8
0
 10
7.90051
 20
3.82024
 30
0.0
 11
7.95047
 21
4.15707
 31
0.0
  0
LINE
  5
194
  8
0
 10
7.95047
 20
4.15707
 30
0.0
 11
7.96719
 21
4.49719
 31
0.0
  0
LINE
  5
195
  8
0
 10
7.96719
 20
4.49719
 30
0.0
 11
7.95047
 21
4.83731
 31
0.0
  0
LINE
  5
196
  8
0
 10
7.95047
 20
4.83731
 30
0.0
 11
7.90051
 21
5.17415
 31
0.0
  0
LINE
  5
197
  8
0
 10
7.90051
 20
5.17415
 30
0.0
 11
7.81776
 21
5.50447
 31
0.0
  0
LINE
  5
198
  8
0
 10
7.81776
 20
5.50447
 30
0.0
 11
7.70305
 21
5.8251
 31
0.0
  0
LINE
  5
199
  8
0
 10
7.70305
 20
5.8251
 30
0.0
 11
7.55745
 21
6.13293
 31
0.0
  0
LINE
  5
19A
  8
0
 10
7.55745
 20
6.13293
 30
0.0
 11
7.38239
 21
6.42502
 31
0.0
  0
LINE
  5
19B
  8
0
 10
7.38239
 20
6.42502
 30
0.0
 11
7.17953
 21
6.69853
 31
0.0
  0
LINE
  5
19C
  8
0
 10
7.17953
 20
6.69853
 30
0.0
 11
6.95084
 21
6.95084
 31
0.0
  0
LINE
  5
19D
  8
0
 10
6.95084
 20
6.95084
 30
0.0
 11
6.69853
 21
7.17953
 31
0.0
  0
LINE
  5
19E
  8
0
 10
6.69853
 20
7.17953
 30
0.0
 11
6.42502
 21
7.38239
 31
0.0
  0
LINE
  5
19F
  8
0
 10
6.42502
 20
7.38239
 30
0.0
 11
6.13293
 21
7.55745
 31
0.0
  0
LINE
  5
1A0
  8
0
 10
6.13293
 20
7.55745
 30
0.0
 11
5.8251
 21
7.70305
 31
0.0
  0
LINE
  5
1A1
  8
0
 10
5.8251
 20
7.70305
 30
0.0
 11
5.50447
 21
7.81776
 31
0.0
  0
LINE
  5
1A2
  8
0
 10
5.50447
 20
7.81776
 30
0.0
 11
5.17415
 21
7.90051
 31
0.0
  0
LINE
  5
1A3
  8
0
 10
5.17415
 20
7.90051
 30
0.0
 11
4.83731
 21
7.95047
 31
0.0
  0
LINE
  5
1A4
  8
0
 10
4.83731
 20
7.95047
 30
0.0
 11
4.49719
 21
7.96719
 31
0.0
  0
LINE
  5
1A5
  8
0
 10
4.49719
 20
7.96719
 30
0.0
 11
4.15707
 21
7.95047
 31
0.0
  0
LINE
  5
1A6
  8
0
 10
4.15707
 20
7.95047
 30
0.0
 11
3.82024
 21
7.90051
 31
0.0
  0
LINE
  5
1A7
  8
0
 10
3.82024
 20
7.90051
 30
0.0
 11
3.48991
 21
7.81776
 31
0.0
  0
LINE
  5
1A8
  8
0
 10
3.48991
 20
7.81776
 30
0.0
 11
3.16928
 21
7.70303
 31
0.0
  0
LINE
  5
1A9
  8
0
 10
3.16928
 20
7.70303
 30
0.0
 11
2.86145
 21
7.55745
 31
0.0
  0
LINE
  5
1AA
  8
0
 10
2.86145
 20
7.55745
 30
0.0
 11
2.56937
 21
7.38239
 31
0.0
  0
LINE
  5
1AB
  8
0
 10
2.56937
 20
7.38239
 30
0.0
 11
2.29585
 21
7.17953
 31
0.0
  0
LINE
  5
1AC
  8
0
 10
2.29585
 20
7.17953
 30
0.0
 11
2.04353
 21
6.95084
 31
0.0
  0
LINE
  5
1AD
  8
0
 10
2.04353
 20
6.95084
 30
0.0
 11
1.81485
 21
6.69852
 31
0.0
  0
LINE
  5
1AE
  8
0
 10
1.81485
 20
6.69852
 30
0.0
 11
1.61198
 21
6.42502
 31
0.0
  0
LINE
  5
1AF
  8
0
 10
1.61198
 20
6.42502
 30
0.0
 11
1.43694
 21
6.13292
 31
0.0
  0
LINE
  5
1B0
  8
0
 10
1.43694
 20
6.13292
 30
0.0
 11
1.29132
 21
5.82509
 31
0.0
  0
LINE
  5
1B1
  8
0
 10
1.29132
 20
5.82509
 30
0.0
 11
1.17661
 21
5.50447
 31
0.0
  0
LINE
  5
1B2
  8
0
 10
1.17661
 20
5.50447
 30
0.0
 11
1.09386
 21
5.17415
 31
0.0
  0
LINE
  5
1B3
  8
0
 10
1.09386
 20
5.17415
 30
0.0
 11
1.0439
 21
4.8373
 31
0.0
  0
LINE
  5
1B4
  8
0
 10
1.0439
 20
4.8373
 30
0.0
 11
1.02718
 21
4.49718
 31
0.0
  0
LINE
  5
1B5
  8
0
 10
1.02718
 20
4.49718
 30
0.0
 11
1.0439
 21
4.15706
 31
0.0
  0
LINE
  5
1B6
  8
0
 10
1.0439
 20
4.15706
 30
0.0
 11
1.09386
 21
3.82022
 31
0.0
  0
LINE
  5
1B7
  8
0
 10
1.09386
 20
3.82022
 30
0.0
 11
1.15132
 21
3.59084
 31
0.0
  0
LINE
  5
1B8
  8
0
 10
1.15132
 20
3.59084
 30
0.0
 11
-1.1844
 21
1.2551
 31
0.0
  0
LINE
  5
1B9
  8
0
 10
-1.1844
 20
1.2551
 30
0.0
 11
-2.00992
 21
2.08061
 31
0.0
  0
LINE
  5
1BA
  8
0
 10
-2.00992
 20
2.08061
 30
0.0
 11
-1.81485
 21
2.29585
 31
0.0
  0
LINE
  5
1BB
  8
0
 10
-1.81485
 20
2.29585
 30
0.0
 11
-1.61198
 21
2.56935
 31
0.0
  0
LINE
  5
1BC
  8
0
 10
-1.61198
 20
2.56935
 30
0.0
 11
-1.43694
 21
2.86143
 31
0.0
  0
LINE
  5
1BD
  8
0
 10
-1.43694
 20
2.86143
 30
0.0
 11
-1.29132
 21
3.16928
 31
0.0
  0
LINE
  5
1BE
  8
0
 10
-1.29132
 20
3.16928
 30
0.0
 11
-1.17661
 21
3.4899
 31
0.0
  0
LINE
  5
1BF
  8
0
 10
-1.17661
 20
3.4899
 30
0.0
 11
-1.09386
 21
3.82022
 31
0.0
  0
LINE
  5
1C0
  8
0
 10
-1.09386
 20
3.82022
 30
0.0
 11
-1.0439
 21
4.15706
 31
0.0
  0
LINE
  5
1C1
  8
0
 10
-1.0439
 20
4.15706
 30
0.0
 11
-1.02718
 21
4.49718
 31
0.0
  0
LINE
  5
1C2
  8
0
 10
-1.02718
 20
4.49718
 30
0.0
 11
-1.0439
 21
4.8373
 31
0.0
  0
LINE
  5
1C3
  8
0
 10
-1.0439
 20
4.8373
 30
0.0
 11
-1.09386
 21
5.17415
 31
0.0
  0
LINE
  5
1C4
  8
0
 10
-1.09386
 20
5.17415
 30
0.0
 11
-1.17661
 21
5.50447
 31
0.0
  0
LINE
  5
1C5
  8
0
 10
-1.17661
 20
5.50447
 30
0.0
 11
-1.29132
 21
5.82509
 31
0.0
  0
LINE
  5
1C6
  8
0
 10
-1.29132
 20
5.82509
 30
0.0
 11
-1.43694
 21
6.13292
 31
0.0
  0
LINE
  5
1C7
  8
0
 10
-1.43694
 20
6.13292
 30
0.0
 11
-1.61198
 21
6.42502
 31
0.0
  0
LINE
  5
1C8
  8
0
 10
-1.61198
 20
6.42502
 30
0.0
 11
-1.81485
 21
6.69852
 31
0.0
  0
LINE
  5
1C9
  8
0
 10
-1.81485
 20
6.69852
 30
0.0
 11
-2.04353
 21
6.95084
 31
0.0
  0
LINE
  5
1CA
  8
0
 10
-2.04353
 20
6.95084
 30
0.0
 11
-2.29585
 21
7.17953
 31
0.0
  0
LINE
  5
1CB
  8
0
 10
-2.29585
 20
7.17953
 30
0.0
 11
-2.56937
 21
7.38239
 31
0.0
  0
LINE
  5
1CC
  8
0
 10
-2.56937
 20
7.38239
 30
0.0
 11
-2.86145
 21
7.55745
 31
0.0
  0
LINE
  5
1CD
  8
0
 10
-2.86145
 20
7.55745
 30
0.0
 11
-3.16928
 21
7.70303
 31
0.0
  0
LINE
  5
1CE
  8
0
 10
-3.16928
 20
7.70303
 30
0.0
 11
-3.48991
 21
7.81776
 31
0.0
  0
LINE
  5
1CF
  8
0
 10
-3.48991
 20
7.81776
 30
0.0
 11
-3.82024
 21
7.90051
 31
0.0
  0
LINE
  5
1D0
  8
0
 10
-3.82024
 20
7.90051
 30
0.0
 11
-4.15707
 21
7.95047
 31
0.0
  0
LINE
  5
1D1
  8
0
 10
-4.15707
 20
7.95047
 30
0.0
 11
-4.49719
 21
7.96719
 31
0.0
  0
LINE
  5
1D2
  8
0
 10
-4.49719
 20
7.96719
 30
0.0
 11
-4.83731
 21
7.95047
 31
0.0
  0
LINE
  5
1D3
  8
0
 10
-4.83731
 20
7.95047
 30
0.0
 11
-5.17415
 21
7.90051
 31
0.0
  0
LINE
  5
1D4
  8
0
 10
-5.17415
 20
7.90051
 30
0.0
 11
-5.50447
 21
7.81776
 31
0.0
  0
LINE
  5
1D5
  8
0
 10
-5.50447
 20
7.81776
 30
0.0
 11
-5.8251
 21
7.70305
 31
0.0
  0
LINE
  5
1D6
  8
0
 10
-5.8251
 20
7.70305
 30
0.0
 11
-6.13293
 21
7.55745
 31
0.0
  0
LINE
  5
1D7
  8
0
 10
-6.13293
 20
7.55745
 30
0.0
 11
-6.42502
 21
7.38239
 31
0.0
  0
LINE
  5
1D8
  8
0
 10
-6.42502
 20
7.38239
 30
0.0
 11
-6.69853
 21
7.17953
 31
0.0
  0
LINE
  5
1D9
  8
0
 10
-6.69853
 20
7.17953
 30
0.0
 11
-6.95084
 21
6.95084
 31
0.0
  0
LINE
  5
1DA
  8
0
 10
-6.95084
 20
6.95084
 30
0.0
 11
-7.17953
 21
6.69853
 31
0.0
  0
LINE
  5
1DB
  8
0
 10
-7.17953
 20
6.69853
 30
0.0
 11
-7.38239
 21
6.42502
 31
0.0
  0
LINE
  5
1DC
  8
0
 10
-7.38239
 20
6.42502
 30
0.0
 11
-7.55745
 21
6.13293
 31
0.0
  0
LINE
  5
1DD
  8
0
 10
-7.55745
 20
6.13293
 30
0.0
 11
-7.70305
 21
5.8251
 31
0.0
  0
LINE
  5
1DE
  8
0
 10
-7.70305
 20
5.8251
 30
0.0
 11
-7.81776
 21
5.50447
 31
0.0
  0
LINE
  5
1DF
  8
0
 10
-7.81776
 20
5.50447
 30
0.0
 11
-7.90051
 21
5.17415
 31
0.0
  0
LINE
  5
1E0
  8
0
 10
-7.90051
 20
5.17415
 30
0.0
 11
-7.95047
 21
4.83731
 31
0.0
  0
LINE
  5
1E1
  8
0
 10
-7.95047
 20
4.83731
 30
0.0
 11
-7.96719
 21
4.49719
 31
0.0
  0
LINE
  5
1E2
  8
0
 10
-7.96719
 20
4.49719
 30
0.0
 11
-7.95047
 21
4.15707
 31
0.0
  0
LINE
  5
1E3
  8
0
 10
-7.95047
 20
4.15707
 30
0.0
 11
-7.90051
 21
3.82024
 31
0.0
  0
LINE
  5
1E4
  8
0
 10
-7.90051
 20
3.82024
 30
0.0
 11
-7.81776
 21
3.48991
 31
0.0
  0
LINE
  5
1E5
  8
0
 10
-7.81776
 20
3.48991
 30
0.0
 11
-7.70303
 21
3.16928
 31
0.0
  0
LINE
  5
1E6
  8
0
 10
-7.70303
 20
3.16928
 30
0.0
 11
-7.55745
 21
2.86145
 31
0.0
  0
LINE
  5
1E7
  8
0
 10
-7.55745
 20
2.86145
 30
0.0
 11
-7.38239
 21
2.56937
 31
0.0
  0
LINE
  5
1E8
  8
0
 10
-7.38239
 20
2.56937
 30
0.0
 11
-7.17953
 21
2.29585
 31
0.0
  0
LINE
  5
1E9
  8
0
 10
-7.17953
 20
2.29585
 30
0.0
 11
-6.95084
 21
2.04353
 31
0.0
  0
LINE
  5
1EA
  8
0
 10
-6.95084
 20
2.04353
 30
0.0
 11
-6.69852
 21
1.81485
 31
0.0
  0
LINE
  5
1EB
  8
0
 10
-6.69852
 20
1.81485
 30
0.0
 11
-6.42502
 21
1.61198
 31
0.0
  0
LINE
  5
1EC
  8
0
 10
-6.42502
 20
1.61198
 30
0.0
 11
-6.13292
 21
1.43694
 31
0.0
  0
LINE
  5
1ED
  8
0
 10
-6.13292
 20
1.43694
 30
0.0
 11
-5.82509
 21
1.29132
 31
0.0
  0
LINE
  5
1EE
  8
0
 10
-5.82509
 20
1.29132
 30
0.0
 11
-5.50447
 21
1.17661
 31
0.0
  0
LINE
  5
1EF
  8
0
 10
-5.50447
 20
1.17661
 30
0.0
 11
-5.17415
 21
1.09386
 31
0.0
  0
LINE
  5
1F0
  8
0
 10
-5.17415
 20
1.09386
 30
0.0
 11
-4.8373
 21
1.0439
 31
0.0
  0
LINE
  5
1F1
  8
0
 10
-4.8373
 20
1.0439
 30
0.0
 11
-4.49718
 21
1.02718
 31
0.0
  0
LINE
  5
1F2
  8
0
 10
-4.49718
 20
1.02718
 30
0.0
 11
-4.15706
 21
1.0439
 31
0.0
  0
LINE
  5
1F3
  8
0
 10
-4.15706
 20
1.0439
 30
0.0
 11
-3.82022
 21
1.09386
 31
0.0
  0
LINE
  5
1F4
  8
0
 10
-1.17734
 20
1.24803
 30
0.0
 11
-0.190918
 21
2.23444
 31
0.0
  0
LINE
  5
1F5
  8
0
 10
-0.190918
 20
2.23444
 30
0.0
 11
-0.183838
 21
2.22737
 31
0.0
  0
LINE
  5
1F6
  8
0
 10
-0.183838
 20
2.22737
 30
0.0
 11
-1.17026
 21
1.24095
 31
0.0
  0
LINE
  5
1F7
  8
0
 10
-1.17026
 20
1.24095
 30
0.0
 11
-1.17734
 21
1.24803
 31
0.0
  0
LINE
  5
1F8
  8
0
 10
-1.16319
 20
1.23389
 30
0.0
 11
-0.176773
 21
2.22029
 31
0.0
  0
LINE
  5
1F9
  8
0
 10
-0.176773
 20
2.22029
 30
0.0
 11
-0.169708
 21
2.21323
 31
0.0
  0
LINE
  5
1FA
  8
0
 10
-0.169708
 20
2.21323
 30
0.0
 11
-1.15611
 21
1.22681
 31
0.0
  0
LINE
  5
1FB
  8
0
 10
-1.15611
 20
1.22681
 30
0.0
 11
-1.16319
 21
1.23389
 31
0.0
  0
LINE
  5
1FC
  8
0
 10
-1.14905
 20
1.21974
 30
0.0
 11
-0.162628
 21
2.20615
 31
0.0
  0
LINE
  5
1FD
  8
0
 10
-0.162628
 20
2.20615
 30
0.0
 11
-0.155563
 21
2.19908
 31
0.0
  0
LINE
  5
1FE
  8
0
 10
-0.155563
 20
2.19908
 30
0.0
 11
-1.14197
 21
1.21266
 31
0.0
  0
LINE
  5
1FF
  8
0
 10
-1.14197
 20
1.21266
 30
0.0
 11
-1.14905
 21
1.21974
 31
0.0
  0
LINE
  5
200
  8
0
 10
-1.1349
 20
1.2056
 30
0.0
 11
-0.148483
 21
2.19202
 31
0.0
  0
LINE
  5
201
  8
0
 10
-0.148483
 20
2.19202
 30
0.0
 11
-0.141418
 21
2.18494
 31
0.0
  0
LINE
  5
202
  8
0
 10
-0.141418
 20
2.18494
 30
0.0
 11
-1.12782
 21
1.19852
 31
0.0
  0
LINE
  5
203
  8
0
 10
-1.12782
 20
1.19852
 30
0.0
 11
-1.1349
 21
1.2056
 31
0.0
  0
LINE
  5
204
  8
0
 10
-1.12076
 20
1.19145
 30
0.0
 11
-0.134338
 21
2.17787
 31
0.0
  0
LINE
  5
205
  8
0
 10
-0.134338
 20
2.17787
 30
0.0
 11
-0.127274
 21
2.17081
 31
0.0
  0
LINE
  5
206
  8
0
 10
-0.127274
 20
2.17081
 30
0.0
 11
-1.11369
 21
1.18439
 31
0.0
  0
LINE
  5
207
  8
0
 10
-1.11369
 20
1.18439
 30
0.0
 11
-1.12076
 21
1.19145
 31
0.0
  0
LINE
  5
208
  8
0
 10
-1.10661
 20
1.17731
 30
0.0
 11
-0.120193
 21
2.16373
 31
0.0
  0
LINE
  5
209
  8
0
 10
-0.120193
 20
2.16373
 30
0.0
 11
-0.113129
 21
2.15666
 31
0.0
  0
LINE
  5
20A
  8
0
 10
-0.113129
 20
2.15666
 30
0.0
 11
-1.09955
 21
1.17024
 31
0.0
  0
LINE
  5
20B
  8
0
 10
-1.09955
 20
1.17024
 30
0.0
 11
-1.10661
 21
1.17731
 31
0.0
  0
LINE
  5
20C
  8
0
 10
-1.09247
 20
1.16316
 30
0.0
 11
-0.106049
 21
2.14958
 31
0.0
  0
LINE
  5
20D
  8
0
 10
-0.106049
 20
2.14958
 30
0.0
 11
-0.0989838
 21
2.14252
 31
0.0
  0
LINE
  5
20E
  8
0
 10
-0.0989838
 20
2.14252
 30
0.0
 11
-1.0854
 21
1.1561
 31
0.0
  0
LINE
  5
20F
  8
0
 10
-1.0854
 20
1.1561
 30
0.0
 11
-1.09247
 21
1.16316
 31
0.0
  0
LINE
  5
210
  8
0
 10
-1.07834
 20
1.14903
 30
0.0
 11
-0.0919189
 21
2.13545
 31
0.0
  0
LINE
  5
211
  8
0
 10
-0.0919189
 20
2.13545
 30
0.0
 11
-0.0848389
 21
2.12837
 31
0.0
  0
LINE
  5
212
  8
0
 10
-0.0848389
 20
2.12837
 30
0.0
 11
-1.07126
 21
1.14195
 31
0.0
  0
LINE
  5
213
  8
0
 10
-1.07126
 20
1.14195
 30
0.0
 11
-1.07834
 21
1.14903
 31
0.0
  0
LINE
  5
214
  8
0
 10
-1.06419
 20
1.13489
 30
0.0
 11
-0.077774
 21
2.12131
 31
0.0
  0
LINE
  5
215
  8
0
 10
-0.077774
 20
2.12131
 30
0.0
 11
-0.0707092
 21
2.11423
 31
0.0
  0
LINE
  5
216
  8
0
 10
-0.0707092
 20
2.11423
 30
0.0
 11
-1.05713
 21
1.12782
 31
0.0
  0
LINE
  5
217
  8
0
 10
-1.05713
 20
1.12782
 30
0.0
 11
-1.06419
 21
1.13489
 31
0.0
  0
LINE
  5
218
  8
0
 10
-1.05005
 20
1.12074
 30
0.0
 11
-0.0636292
 21
2.10716
 31
0.0
  0
LINE
  5
219
  8
0
 10
-0.0636292
 20
2.10716
 30
0.0
 11
-0.0565643
 21
2.10008
 31
0.0
  0
LINE
  5
21A
  8
0
 10
-0.0565643
 20
2.10008
 30
0.0
 11
-1.04298
 21
1.11368
 31
0.0
  0
LINE
  5
21B
  8
0
 10
-1.04298
 20
1.11368
 30
0.0
 11
-1.05005
 21
1.12074
 31
0.0
  0
LINE
  5
21C
  8
0
 10
-1.03592
 20
1.10661
 30
0.0
 11
-0.0494995
 21
2.09302
 31
0.0
  0
LINE
  5
21D
  8
0
 10
-0.0494995
 20
2.09302
 30
0.0
 11
-0.0424194
 21
2.08594
 31
0.0
  0
LINE
  5
21E
  8
0
 10
-0.0424194
 20
2.08594
 30
0.0
 11
-1.02884
 21
1.09953
 31
0.0
  0
LINE
  5
21F
  8
0
 10
-1.02884
 20
1.09953
 30
0.0
 11
-1.03592
 21
1.10661
 31
0.0
  0
LINE
  5
220
  8
0
 10
-1.02177
 20
1.09247
 30
0.0
 11
-0.0353546
 21
2.07887
 31
0.0
  0
LINE
  5
221
  8
0
 10
-0.0353546
 20
2.07887
 30
0.0
 11
-0.0282745
 21
2.07179
 31
0.0
  0
LINE
  5
222
  8
0
 10
-0.0282745
 20
2.07179
 30
0.0
 11
-1.01469
 21
1.08539
 31
0.0
  0
LINE
  5
223
  8
0
 10
-1.01469
 20
1.08539
 30
0.0
 11
-1.02177
 21
1.09247
 31
0.0
  0
LINE
  5
224
  8
0
 10
-1.00761
 20
1.07831
 30
0.0
 11
-0.0212097
 21
2.06473
 31
0.0
  0
LINE
  5
225
  8
0
 10
-0.0212097
 20
2.06473
 30
0.0
 11
-0.0141449
 21
2.05766
 31
0.0
  0
LINE
  5
226
  8
0
 10
-0.0141449
 20
2.05766
 30
0.0
 11
-1.00055
 21
1.07124
 31
0.0
  0
LINE
  5
227
  8
0
 10
-1.00055
 20
1.07124
 30
0.0
 11
-1.00761
 21
1.07831
 31
0.0
  0
LINE
  5
228
  8
0
 10
-0.993469
 20
1.06416
 30
0.0
 11
-0.00706482
 21
2.05058
 31
0.0
  0
LINE
  5
229
  8
0
 10
-0.00706482
 20
2.05058
 30
0.0
 11
0.0
 21
2.04352
 31
0.0
  0
LINE
  5
22A
  8
0
 10
0.0
 20
2.04352
 30
0.0
 11
-0.986404
 21
1.0571
 31
0.0
  0
LINE
  5
22B
  8
0
 10
-0.986404
 20
1.0571
 30
0.0
 11
-0.993469
 21
1.06416
 31
0.0
  0
LINE
  5
22C
  8
0
 10
-0.97934
 20
1.05003
 30
0.0
 11
0.00706482
 21
2.03645
 31
0.0
  0
LINE
  5
22D
  8
0
 10
0.00706482
 20
2.03645
 30
0.0
 11
0.0141449
 21
2.02937
 31
0.0
  0
LINE
  5
22E
  8
0
 10
0.0141449
 20
2.02937
 30
0.0
 11
-0.97226
 21
1.04295
 31
0.0
  0
LINE
  5
22F
  8
0
 10
-0.97226
 20
1.04295
 30
0.0
 11
-0.97934
 21
1.05003
 31
0.0
  0
LINE
  5
230
  8
0
 10
-0.965195
 20
1.03589
 30
0.0
 11
0.0212097
 21
2.02231
 31
0.0
  0
LINE
  5
231
  8
0
 10
0.0212097
 20
2.02231
 30
0.0
 11
0.0282745
 21
2.01524
 31
0.0
  0
LINE
  5
232
  8
0
 10
0.0282745
 20
2.01524
 30
0.0
 11
-0.95813
 21
1.02882
 31
0.0
  0
LINE
  5
233
  8
0
 10
-0.95813
 20
1.02882
 30
0.0
 11
-0.965195
 21
1.03589
 31
0.0
  0
LINE
  5
234
  8
0
 10
-0.95105
 20
1.02174
 30
0.0
 11
0.0353546
 21
2.00816
 31
0.0
  0
LINE
  5
235
  8
0
 10
0.0353546
 20
2.00816
 30
0.0
 11
0.0424194
 21
2.0011
 31
0.0
  0
LINE
  5
236
  8
0
 10
0.0424194
 20
2.0011
 30
0.0
 11
-0.943985
 21
1.01468
 31
0.0
  0
LINE
  5
237
  8
0
 10
-0.943985
 20
1.01468
 30
0.0
 11
-0.95105
 21
1.02174
 31
0.0
  0
LINE
  5
238
  8
0
 10
-0.93692
 20
1.00761
 30
0.0
 11
0.0494843
 21
1.99403
 31
0.0
  0
LINE
  5
239
  8
0
 10
0.0494843
 20
1.99403
 30
0.0
 11
0.0565643
 21
1.98695
 31
0.0
  0
LINE
  5
23A
  8
0
 10
0.0565643
 20
1.98695
 30
0.0
 11
-0.92984
 21
1.00053
 31
0.0
  0
LINE
  5
23B
  8
0
 10
-0.92984
 20
1.00053
 30
0.0
 11
-0.93692
 21
1.00761
 31
0.0
  0
LINE
  5
23C
  8
0
 10
-0.922775
 20
0.993469
 30
0.0
 11
0.0636292
 21
1.97989
 31
0.0
  0
LINE
  5
23D
  8
0
 10
0.0636292
 20
1.97989
 30
0.0
 11
0.0707092
 21
1.97281
 31
0.0
  0
LINE
  5
23E
  8
0
 10
0.0707092
 20
1.97281
 30
0.0
 11
-0.915695
 21
0.986389
 31
0.0
  0
LINE
  5
23F
  8
0
 10
-0.915695
 20
0.986389
 30
0.0
 11
-0.922775
 21
0.993469
 31
0.0
  0
LINE
  5
240
  8
0
 10
-0.90863
 20
0.979324
 30
0.0
 11
0.077774
 21
1.96574
 31
0.0
  0
LINE
  5
241
  8
0
 10
0.077774
 20
1.96574
 30
0.0
 11
0.0848389
 21
1.95866
 31
0.0
  0
LINE
  5
242
  8
0
 10
0.0848389
 20
1.95866
 30
0.0
 11
-0.901566
 21
0.97226
 31
0.0
  0
LINE
  5
243
  8
0
 10
-0.901566
 20
0.97226
 30
0.0
 11
-0.90863
 21
0.979324
 31
0.0
  0
LINE
  5
244
  8
0
 10
-0.894485
 20
0.965179
 30
0.0
 11
0.0919189
 21
1.9516
 31
0.0
  0
LINE
  5
245
  8
0
 10
0.0919189
 20
1.9516
 30
0.0
 11
0.0989838
 21
1.94452
 31
0.0
  0
LINE
  5
246
  8
0
 10
0.0989838
 20
1.94452
 30
0.0
 11
-0.887421
 21
0.958115
 31
0.0
  0
LINE
  5
247
  8
0
 10
-0.887421
 20
0.958115
 30
0.0
 11
-0.894485
 21
0.965179
 31
0.0
  0
LINE
  5
248
  8
0
 10
-0.880341
 20
0.951035
 30
0.0
 11
0.106049
 21
1.93745
 31
0.0
  0
LINE
  5
249
  8
0
 10
0.106049
 20
1.93745
 30
0.0
 11
0.113129
 21
1.93037
 31
0.0
  0
LINE
  5
24A
  8
0
 10
0.113129
 20
1.93037
 30
0.0
 11
-0.873276
 21
0.94397
 31
0.0
  0
LINE
  5
24B
  8
0
 10
-0.873276
 20
0.94397
 30
0.0
 11
-0.880341
 21
0.951035
 31
0.0
  0
LINE
  5
24C
  8
0
 10
-0.866196
 20
0.93689
 30
0.0
 11
0.120193
 21
1.92331
 31
0.0
  0
LINE
  5
24D
  8
0
 10
0.120193
 20
1.92331
 30
0.0
 11
0.127274
 21
1.91624
 31
0.0
  0
LINE
  5
24E
  8
0
 10
0.127274
 20
1.91624
 30
0.0
 11
-0.859131
 21
0.929825
 31
0.0
  0
LINE
  5
24F
  8
0
 10
-0.859131
 20
0.929825
 30
0.0
 11
-0.866196
 21
0.93689
 31
0.0
  0
LINE
  5
250
  8
0
 10
-0.852051
 20
0.922745
 30
0.0
 11
0.134338
 21
1.90916
 31
0.0
  0
LINE
  5
251
  8
0
 10
0.134338
 20
1.90916
 30
0.0
 11
0.141418
 21
1.9021
 31
0.0
  0
LINE
  5
252
  8
0
 10
0.141418
 20
1.9021
 30
0.0
 11
-0.844986
 21
0.91568
 31
0.0
  0
LINE
  5
253
  8
0
 10
-0.844986
 20
0.91568
 30
0.0
 11
-0.852051
 21
0.922745
 31
0.0
  0
LINE
  5
254
  8
0
 10
-0.837906
 20
0.9086
 30
0.0
 11
0.148483
 21
1.89502
 31
0.0
  0
LINE
  5
255
  8
0
 10
0.148483
 20
1.89502
 30
0.0
 11
0.155563
 21
1.88795
 31
0.0
  0
LINE
  5
256
  8
0
 10
0.155563
 20
1.88795
 30
0.0
 11
-0.830841
 21
0.901535
 31
0.0
  0
LINE
  5
257
  8
0
 10
-0.830841
 20
0.901535
 30
0.0
 11
-0.837906
 21
0.9086
 31
0.0
  0
LINE
  5
258
  8
0
 10
-0.823776
 20
0.89447
 30
0.0
 11
0.162628
 21
1.88089
 31
0.0
  0
LINE
  5
259
  8
0
 10
0.162628
 20
1.88089
 30
0.0
 11
0.169708
 21
1.87381
 31
0.0
  0
LINE
  5
25A
  8
0
 10
0.169708
 20
1.87381
 30
0.0
 11
-0.816696
 21
0.88739
 31
0.0
  0
LINE
  5
25B
  8
0
 10
-0.816696
 20
0.88739
 30
0.0
 11
-0.823776
 21
0.89447
 31
0.0
  0
LINE
  5
25C
  8
0
 10
-0.809631
 20
0.880325
 30
0.0
 11
0.176773
 21
1.86674
 31
0.0
  0
LINE
  5
25D
  8
0
 10
0.176773
 20
1.86674
 30
0.0
 11
0.183838
 21
1.85968
 31
0.0
  0
LINE
  5
25E
  8
0
 10
0.183838
 20
1.85968
 30
0.0
 11
-0.802567
 21
0.87326
 31
0.0
  0
LINE
  5
25F
  8
0
 10
-0.802567
 20
0.87326
 30
0.0
 11
-0.809631
 21
0.880325
 31
0.0
  0
LINE
  5
260
  8
0
 10
-0.795486
 20
0.86618
 30
0.0
 11
0.190918
 21
1.8526
 31
0.0
  0
LINE
  5
261
  8
0
 10
0.190918
 20
1.8526
 30
0.0
 11
0.197983
 21
1.84554
 31
0.0
  0
LINE
  5
262
  8
0
 10
0.197983
 20
1.84554
 30
0.0
 11
-0.788422
 21
0.859116
 31
0.0
  0
LINE
  5
263
  8
0
 10
-0.788422
 20
0.859116
 30
0.0
 11
-0.795486
 21
0.86618
 31
0.0
  0
LINE
  5
264
  8
0
 10
-0.781357
 20
0.852051
 30
0.0
 11
0.205048
 21
1.83847
 31
0.0
  0
LINE
  5
265
  8
0
 10
0.205048
 20
1.83847
 30
0.0
 11
0.212128
 21
1.83139
 31
0.0
  0
LINE
  5
266
  8
0
 10
0.212128
 20
1.83139
 30
0.0
 11
-0.774277
 21
0.844971
 31
0.0
  0
LINE
  5
267
  8
0
 10
-0.774277
 20
0.844971
 30
0.0
 11
-0.781357
 21
0.852051
 31
0.0
  0
LINE
  5
268
  8
0
 10
-0.767212
 20
0.837906
 30
0.0
 11
0.219193
 21
1.82433
 31
0.0
  0
LINE
  5
269
  8
0
 10
0.219193
 20
1.82433
 30
0.0
 11
0.226257
 21
1.81725
 31
0.0
  0
LINE
  5
26A
  8
0
 10
0.226257
 20
1.81725
 30
0.0
 11
-0.760147
 21
0.830841
 31
0.0
  0
LINE
  5
26B
  8
0
 10
-0.760147
 20
0.830841
 30
0.0
 11
-0.767212
 21
0.837906
 31
0.0
  0
LINE
  5
26C
  8
0
 10
-0.753067
 20
0.823761
 30
0.0
 11
0.233337
 21
1.81018
 31
0.0
  0
LINE
  5
26D
  8
0
 10
0.233337
 20
1.81018
 30
0.0
 11
0.240402
 21
1.8031
 31
0.0
  0
LINE
  5
26E
  8
0
 10
0.240402
 20
1.8031
 30
0.0
 11
-0.746002
 21
0.816696
 31
0.0
  0
LINE
  5
26F
  8
0
 10
-0.746002
 20
0.816696
 30
0.0
 11
-0.753067
 21
0.823761
 31
0.0
  0
LINE
  5
270
  8
0
 10
-0.738922
 20
0.809616
 30
0.0
 11
0.247482
 21
1.79602
 31
0.0
  0
LINE
  5
271
  8
0
 10
0.247482
 20
1.79602
 30
0.0
 11
0.254547
 21
1.78896
 31
0.0
  0
LINE
  5
272
  8
0
 10
0.254547
 20
1.78896
 30
0.0
 11
-0.731857
 21
0.802551
 31
0.0
  0
LINE
  5
273
  8
0
 10
-0.731857
 20
0.802551
 30
0.0
 11
-0.738922
 21
0.809616
 31
0.0
  0
LINE
  5
274
  8
0
 10
0.261612
 20
1.78189
 30
0.0
 11
0.268692
 21
1.77481
 31
0.0
  0
LINE
  5
275
  8
0
 10
0.268692
 20
1.77481
 30
0.0
 11
-0.717712
 21
0.788406
 31
0.0
  0
LINE
  5
276
  8
0
 10
-0.717712
 20
0.788406
 30
0.0
 11
-0.724777
 21
0.795471
 31
0.0
  0
LINE
  5
277
  8
0
 10
-0.724777
 20
0.795471
 30
0.0
 11
0.261612
 21
1.78189
 31
0.0
  0
LINE
  5
278
  8
0
 10
-0.710632
 20
0.781326
 30
0.0
 11
0.275757
 21
1.76775
 31
0.0
  0
LINE
  5
279
  8
0
 10
0.275757
 20
1.76775
 30
0.0
 11
0.282837
 21
1.76068
 31
0.0
  0
LINE
  5
27A
  8
0
 10
0.282837
 20
1.76068
 30
0.0
 11
-0.703568
 21
0.774261
 31
0.0
  0
LINE
  5
27B
  8
0
 10
-0.703568
 20
0.774261
 30
0.0
 11
-0.710632
 21
0.781326
 31
0.0
  0
LINE
  5
27C
  8
0
 10
-0.696487
 20
0.767181
 30
0.0
 11
0.289902
 21
1.7536
 31
0.0
  0
LINE
  5
27D
  8
0
 10
0.289902
 20
1.7536
 30
0.0
 11
0.296982
 21
1.74654
 31
0.0
  0
LINE
  5
27E
  8
0
 10
0.296982
 20
1.74654
 30
0.0
 11
-0.689423
 21
0.760117
 31
0.0
  0
LINE
  5
27F
  8
0
 10
-0.689423
 20
0.760117
 30
0.0
 11
-0.696487
 21
0.767181
 31
0.0
  0
LINE
  5
280
  8
0
 10
-0.682358
 20
0.753052
 30
0.0
 11
0.304047
 21
1.73947
 31
0.0
  0
LINE
  5
281
  8
0
 10
0.304047
 20
1.73947
 30
0.0
 11
0.311127
 21
1.73239
 31
0.0
  0
LINE
  5
282
  8
0
 10
0.311127
 20
1.73239
 30
0.0
 11
-0.675278
 21
0.745972
 31
0.0
  0
LINE
  5
283
  8
0
 10
-0.675278
 20
0.745972
 30
0.0
 11
-0.682358
 21
0.753052
 31
0.0
  0
LINE
  5
284
  8
0
 10
-0.668213
 20
0.738907
 30
0.0
 11
0.318192
 21
1.72533
 31
0.0
  0
LINE
  5
285
  8
0
 10
0.318192
 20
1.72533
 30
0.0
 11
0.325272
 21
1.71825
 31
0.0
  0
LINE
  5
286
  8
0
 10
0.325272
 20
1.71825
 30
0.0
 11
-0.661133
 21
0.731827
 31
0.0
  0
LINE
  5
287
  8
0
 10
-0.661133
 20
0.731827
 30
0.0
 11
-0.668213
 21
0.738907
 31
0.0
  0
LINE
  5
288
  8
0
 10
-0.654068
 20
0.724762
 30
0.0
 11
0.332336
 21
1.71118
 31
0.0
  0
LINE
  5
289
  8
0
 10
0.332336
 20
1.71118
 30
0.0
 11
0.339401
 21
1.70412
 31
0.0
  0
LINE
  5
28A
  8
0
 10
0.339401
 20
1.70412
 30
0.0
 11
-0.647003
 21
0.717697
 31
0.0
  0
LINE
  5
28B
  8
0
 10
-0.647003
 20
0.717697
 30
0.0
 11
-0.654068
 21
0.724762
 31
0.0
  0
LINE
  5
28C
  8
0
 10
-0.639923
 20
0.710617
 30
0.0
 11
0.346481
 21
1.69704
 31
0.0
  0
LINE
  5
28D
  8
0
 10
0.346481
 20
1.69704
 30
0.0
 11
0.353546
 21
1.68997
 31
0.0
  0
LINE
  5
28E
  8
0
 10
0.353546
 20
1.68997
 30
0.0
 11
-0.632858
 21
0.703552
 31
0.0
  0
LINE
  5
28F
  8
0
 10
-0.632858
 20
0.703552
 30
0.0
 11
-0.639923
 21
0.710617
 31
0.0
  0
LINE
  5
290
  8
0
 10
-0.625793
 20
0.696487
 30
0.0
 11
0.360611
 21
1.68289
 31
0.0
  0
LINE
  5
291
  8
0
 10
0.360611
 20
1.68289
 30
0.0
 11
0.367691
 21
1.67583
 31
0.0
  0
LINE
  5
292
  8
0
 10
0.367691
 20
1.67583
 30
0.0
 11
-0.618713
 21
0.689407
 31
0.0
  0
LINE
  5
293
  8
0
 10
-0.618713
 20
0.689407
 30
0.0
 11
-0.625793
 21
0.696487
 31
0.0
  0
LINE
  5
294
  8
0
 10
0.374756
 20
1.66875
 30
0.0
 11
0.381821
 21
1.66168
 31
0.0
  0
LINE
  5
295
  8
0
 10
0.381821
 20
1.66168
 30
0.0
 11
-0.604584
 21
0.675278
 31
0.0
  0
LINE
  5
296
  8
0
 10
-0.604584
 20
0.675278
 30
0.0
 11
-0.611649
 21
0.682343
 31
0.0
  0
LINE
  5
297
  8
0
 10
-0.611649
 20
0.682343
 30
0.0
 11
0.374756
 21
1.66875
 31
0.0
  0
LINE
  5
298
  8
0
 10
0.388901
 20
1.6546
 30
0.0
 11
0.395966
 21
1.64754
 31
0.0
  0
LINE
  5
299
  8
0
 10
0.395966
 20
1.64754
 30
0.0
 11
-0.590439
 21
0.661133
 31
0.0
  0
LINE
  5
29A
  8
0
 10
-0.590439
 20
0.661133
 30
0.0
 11
-0.597504
 21
0.668198
 31
0.0
  0
LINE
  5
29B
  8
0
 10
-0.597504
 20
0.668198
 30
0.0
 11
0.388901
 21
1.6546
 31
0.0
  0
LINE
  5
29C
  8
0
 10
-0.583359
 20
0.654053
 30
0.0
 11
0.40303
 21
1.64047
 31
0.0
  0
LINE
  5
29D
  8
0
 10
0.40303
 20
1.64047
 30
0.0
 11
0.41011
 21
1.63339
 31
0.0
  0
LINE
  5
29E
  8
0
 10
0.41011
 20
1.63339
 30
0.0
 11
-0.576279
 21
0.646973
 31
0.0
  0
LINE
  5
29F
  8
0
 10
-0.576279
 20
0.646973
 30
0.0
 11
-0.583359
 21
0.654053
 31
0.0
  0
LINE
  5
2A0
  8
0
 10
-0.569214
 20
0.639908
 30
0.0
 11
0.417175
 21
1.62633
 31
0.0
  0
LINE
  5
2A1
  8
0
 10
0.417175
 20
1.62633
 30
0.0
 11
0.424255
 21
1.61925
 31
0.0
  0
LINE
  5
2A2
  8
0
 10
0.424255
 20
1.61925
 30
0.0
 11
-0.562134
 21
0.632828
 31
0.0
  0
LINE
  5
2A3
  8
0
 10
-0.562134
 20
0.632828
 30
0.0
 11
-0.569214
 21
0.639908
 31
0.0
  0
LINE
  5
2A4
  8
0
 10
-0.555069
 20
0.625763
 30
0.0
 11
0.431335
 21
1.61218
 31
0.0
  0
LINE
  5
2A5
  8
0
 10
0.431335
 20
1.61218
 30
0.0
 11
0.4384
 21
1.60512
 31
0.0
  0
LINE
  5
2A6
  8
0
 10
0.4384
 20
1.60512
 30
0.0
 11
-0.548004
 21
0.618698
 31
0.0
  0
LINE
  5
2A7
  8
0
 10
-0.548004
 20
0.618698
 30
0.0
 11
-0.555069
 21
0.625763
 31
0.0
  0
LINE
  5
2A8
  8
0
 10
-0.540924
 20
0.611618
 30
0.0
 11
0.44548
 21
1.59804
 31
0.0
  0
LINE
  5
2A9
  8
0
 10
0.44548
 20
1.59804
 30
0.0
 11
0.452545
 21
1.59097
 31
0.0
  0
LINE
  5
2AA
  8
0
 10
0.452545
 20
1.59097
 30
0.0
 11
-0.533859
 21
0.604553
 31
0.0
  0
LINE
  5
2AB
  8
0
 10
-0.533859
 20
0.604553
 30
0.0
 11
-0.540924
 21
0.611618
 31
0.0
  0
LINE
  5
2AC
  8
0
 10
-0.526794
 20
0.597488
 30
0.0
 11
0.45961
 21
1.58391
 31
0.0
  0
LINE
  5
2AD
  8
0
 10
0.45961
 20
1.58391
 30
0.0
 11
0.46669
 21
1.57683
 31
0.0
  0
LINE
  5
2AE
  8
0
 10
0.46669
 20
1.57683
 30
0.0
 11
-0.519714
 21
0.590408
 31
0.0
  0
LINE
  5
2AF
  8
0
 10
-0.519714
 20
0.590408
 30
0.0
 11
-0.526794
 21
0.597488
 31
0.0
  0
LINE
  5
2B0
  8
0
 10
-0.51265
 20
0.583344
 30
0.0
 11
0.473755
 21
1.56976
 31
0.0
  0
LINE
  5
2B1
  8
0
 10
0.473755
 20
1.56976
 30
0.0
 11
0.48082
 21
1.5627
 31
0.0
  0
LINE
  5
2B2
  8
0
 10
0.48082
 20
1.5627
 30
0.0
 11
-0.505585
 21
0.576279
 31
0.0
  0
LINE
  5
2B3
  8
0
 10
-0.505585
 20
0.576279
 30
0.0
 11
-0.51265
 21
0.583344
 31
0.0
  0
LINE
  5
2B4
  8
0
 10
-0.498505
 20
0.569199
 30
0.0
 11
0.4879
 21
1.55562
 31
0.0
  0
LINE
  5
2B5
  8
0
 10
0.4879
 20
1.55562
 30
0.0
 11
0.494965
 21
1.54855
 31
0.0
  0
LINE
  5
2B6
  8
0
 10
0.494965
 20
1.54855
 30
0.0
 11
-0.49144
 21
0.562134
 31
0.0
  0
LINE
  5
2B7
  8
0
 10
-0.49144
 20
0.562134
 30
0.0
 11
-0.498505
 21
0.569199
 31
0.0
  0
LINE
  5
2B8
  8
0
 10
-0.48436
 20
0.555054
 30
0.0
 11
0.502045
 21
1.54147
 31
0.0
  0
LINE
  5
2B9
  8
0
 10
0.502045
 20
1.54147
 30
0.0
 11
0.509109
 21
1.53441
 31
0.0
  0
LINE
  5
2BA
  8
0
 10
0.509109
 20
1.53441
 30
0.0
 11
-0.477295
 21
0.547989
 31
0.0
  0
LINE
  5
2BB
  8
0
 10
-0.477295
 20
0.547989
 30
0.0
 11
-0.48436
 21
0.555054
 31
0.0
  0
LINE
  5
2BC
  8
0
 10
-0.47023
 20
0.540924
 30
0.0
 11
0.516174
 21
1.52733
 31
0.0
  0
LINE
  5
2BD
  8
0
 10
0.516174
 20
1.52733
 30
0.0
 11
0.523254
 21
1.52026
 31
0.0
  0
LINE
  5
2BE
  8
0
 10
0.523254
 20
1.52026
 30
0.0
 11
-0.46315
 21
0.533844
 31
0.0
  0
LINE
  5
2BF
  8
0
 10
-0.46315
 20
0.533844
 30
0.0
 11
-0.47023
 21
0.540924
 31
0.0
  0
LINE
  5
2C0
  8
0
 10
-0.456085
 20
0.526779
 30
0.0
 11
0.530319
 21
1.51318
 31
0.0
  0
LINE
  5
2C1
  8
0
 10
0.530319
 20
1.51318
 30
0.0
 11
0.537384
 21
1.50612
 31
0.0
  0
LINE
  5
2C2
  8
0
 10
0.537384
 20
1.50612
 30
0.0
 11
-0.449005
 21
0.519699
 31
0.0
  0
LINE
  5
2C3
  8
0
 10
-0.449005
 20
0.519699
 30
0.0
 11
-0.456085
 21
0.526779
 31
0.0
  0
LINE
  5
2C4
  8
0
 10
-0.44194
 20
0.512634
 30
0.0
 11
0.544464
 21
1.49904
 31
0.0
  0
LINE
  5
2C5
  8
0
 10
0.544464
 20
1.49904
 30
0.0
 11
0.551529
 21
1.49197
 31
0.0
  0
LINE
  5
2C6
  8
0
 10
0.551529
 20
1.49197
 30
0.0
 11
-0.43486
 21
0.505554
 31
0.0
  0
LINE
  5
2C7
  8
0
 10
-0.43486
 20
0.505554
 30
0.0
 11
-0.44194
 21
0.512634
 31
0.0
  0
LINE
  5
2C8
  8
0
 10
-0.427795
 20
0.498489
 30
0.0
 11
0.558609
 21
1.48491
 31
0.0
  0
LINE
  5
2C9
  8
0
 10
0.558609
 20
1.48491
 30
0.0
 11
0.565674
 21
1.47783
 31
0.0
  0
LINE
  5
2CA
  8
0
 10
0.565674
 20
1.47783
 30
0.0
 11
-0.420715
 21
0.491409
 31
0.0
  0
LINE
  5
2CB
  8
0
 10
-0.420715
 20
0.491409
 30
0.0
 11
-0.427795
 21
0.498489
 31
0.0
  0
LINE
  5
2CC
  8
0
 10
-0.413651
 20
0.484344
 30
0.0
 11
0.572754
 21
1.47076
 31
0.0
  0
LINE
  5
2CD
  8
0
 10
0.572754
 20
1.47076
 30
0.0
 11
0.579819
 21
1.4637
 31
0.0
  0
LINE
  5
2CE
  8
0
 10
0.579819
 20
1.4637
 30
0.0
 11
-0.406586
 21
0.47728
 31
0.0
  0
LINE
  5
2CF
  8
0
 10
-0.406586
 20
0.47728
 30
0.0
 11
-0.413651
 21
0.484344
 31
0.0
  0
LINE
  5
2D0
  8
0
 10
-0.399506
 20
0.4702
 30
0.0
 11
0.586899
 21
1.45662
 31
0.0
  0
LINE
  5
2D1
  8
0
 10
0.586899
 20
1.45662
 30
0.0
 11
0.593964
 21
1.44955
 31
0.0
  0
LINE
  5
2D2
  8
0
 10
0.593964
 20
1.44955
 30
0.0
 11
-0.392441
 21
0.463135
 31
0.0
  0
LINE
  5
2D3
  8
0
 10
-0.392441
 20
0.463135
 30
0.0
 11
-0.399506
 21
0.4702
 31
0.0
  0
LINE
  5
2D4
  8
0
 10
-0.385361
 20
0.456055
 30
0.0
 11
0.601044
 21
1.44247
 31
0.0
  0
LINE
  5
2D5
  8
0
 10
0.601044
 20
1.44247
 30
0.0
 11
0.608109
 21
1.43541
 31
0.0
  0
LINE
  5
2D6
  8
0
 10
0.608109
 20
1.43541
 30
0.0
 11
-0.378296
 21
0.44899
 31
0.0
  0
LINE
  5
2D7
  8
0
 10
-0.378296
 20
0.44899
 30
0.0
 11
-0.385361
 21
0.456055
 31
0.0
  0
LINE
  5
2D8
  8
0
 10
-0.371231
 20
0.441925
 30
0.0
 11
0.615173
 21
1.42834
 31
0.0
  0
LINE
  5
2D9
  8
0
 10
0.615173
 20
1.42834
 30
0.0
 11
0.622253
 21
1.42126
 31
0.0
  0
LINE
  5
2DA
  8
0
 10
0.622253
 20
1.42126
 30
0.0
 11
-0.364151
 21
0.434845
 31
0.0
  0
LINE
  5
2DB
  8
0
 10
-0.364151
 20
0.434845
 30
0.0
 11
-0.371231
 21
0.441925
 31
0.0
  0
LINE
  5
2DC
  8
0
 10
-0.357086
 20
0.42778
 30
0.0
 11
0.629318
 21
1.4142
 31
0.0
  0
LINE
  5
2DD
  8
0
 10
0.629318
 20
1.4142
 30
0.0
 11
0.636383
 21
1.40714
 31
0.0
  0
LINE
  5
2DE
  8
0
 10
0.636383
 20
1.40714
 30
0.0
 11
-0.350021
 21
0.420715
 31
0.0
  0
LINE
  5
2DF
  8
0
 10
-0.350021
 20
0.420715
 30
0.0
 11
-0.357086
 21
0.42778
 31
0.0
  0
LINE
  5
2E0
  8
0
 10
-0.342941
 20
0.413635
 30
0.0
 11
0.643463
 21
1.40005
 31
0.0
  0
LINE
  5
2E1
  8
0
 10
0.643463
 20
1.40005
 30
0.0
 11
0.650528
 21
1.39299
 31
0.0
  0
LINE
  5
2E2
  8
0
 10
0.650528
 20
1.39299
 30
0.0
 11
-0.335876
 21
0.40657
 31
0.0
  0
LINE
  5
2E3
  8
0
 10
-0.335876
 20
0.40657
 30
0.0
 11
-0.342941
 21
0.413635
 31
0.0
  0
LINE
  5
2E4
  8
0
 10
-0.328812
 20
0.399506
 30
0.0
 11
0.657593
 21
1.38591
 31
0.0
  0
LINE
  5
2E5
  8
0
 10
0.657593
 20
1.38591
 30
0.0
 11
0.664673
 21
1.37885
 31
0.0
  0
LINE
  5
2E6
  8
0
 10
0.664673
 20
1.37885
 30
0.0
 11
-0.321732
 21
0.392426
 31
0.0
  0
LINE
  5
2E7
  8
0
 10
-0.321732
 20
0.392426
 30
0.0
 11
-0.328812
 21
0.399506
 31
0.0
  0
LINE
  5
2E8
  8
0
 10
-0.314667
 20
0.385361
 30
0.0
 11
0.671738
 21
1.37177
 31
0.0
  0
LINE
  5
2E9
  8
0
 10
0.671738
 20
1.37177
 30
0.0
 11
0.678818
 21
1.36469
 31
0.0
  0
LINE
  5
2EA
  8
0
 10
0.678818
 20
1.36469
 30
0.0
 11
-0.307587
 21
0.378281
 31
0.0
  0
LINE
  5
2EB
  8
0
 10
-0.307587
 20
0.378281
 30
0.0
 11
-0.314667
 21
0.385361
 31
0.0
  0
LINE
  5
2EC
  8
0
 10
-0.300522
 20
0.371216
 30
0.0
 11
0.685883
 21
1.35762
 31
0.0
  0
LINE
  5
2ED
  8
0
 10
0.685883
 20
1.35762
 30
0.0
 11
0.692947
 21
1.35056
 31
0.0
  0
LINE
  5
2EE
  8
0
 10
0.692947
 20
1.35056
 30
0.0
 11
-0.293442
 21
0.364136
 31
0.0
  0
LINE
  5
2EF
  8
0
 10
-0.293442
 20
0.364136
 30
0.0
 11
-0.300522
 21
0.371216
 31
0.0
  0
LINE
  5
2F0
  8
0
 10
-0.286377
 20
0.357071
 30
0.0
 11
0.700027
 21
1.34348
 31
0.0
  0
LINE
  5
2F1
  8
0
 10
0.700027
 20
1.34348
 30
0.0
 11
0.707092
 21
1.33641
 31
0.0
  0
LINE
  5
2F2
  8
0
 10
0.707092
 20
1.33641
 30
0.0
 11
-0.279297
 21
0.349991
 31
0.0
  0
LINE
  5
2F3
  8
0
 10
-0.279297
 20
0.349991
 30
0.0
 11
-0.286377
 21
0.357071
 31
0.0
  0
LINE
  5
2F4
  8
0
 10
-0.272232
 20
0.342926
 30
0.0
 11
0.714172
 21
1.32935
 31
0.0
  0
LINE
  5
2F5
  8
0
 10
0.714172
 20
1.32935
 30
0.0
 11
0.721237
 21
1.32227
 31
0.0
  0
LINE
  5
2F6
  8
0
 10
0.721237
 20
1.32227
 30
0.0
 11
-0.265152
 21
0.335846
 31
0.0
  0
LINE
  5
2F7
  8
0
 10
-0.265152
 20
0.335846
 30
0.0
 11
-0.272232
 21
0.342926
 31
0.0
  0
LINE
  5
2F8
  8
0
 10
-0.258087
 20
0.328781
 30
0.0
 11
0.728317
 21
1.3152
 31
0.0
  0
LINE
  5
2F9
  8
0
 10
0.728317
 20
1.3152
 30
0.0
 11
0.735382
 21
1.30814
 31
0.0
  0
LINE
  5
2FA
  8
0
 10
0.735382
 20
1.30814
 30
0.0
 11
-0.251022
 21
0.321716
 31
0.0
  0
LINE
  5
2FB
  8
0
 10
-0.251022
 20
0.321716
 30
0.0
 11
-0.258087
 21
0.328781
 31
0.0
  0
LINE
  5
2FC
  8
0
 10
-0.243942
 20
0.314636
 30
0.0
 11
0.742462
 21
1.30106
 31
0.0
  0
LINE
  5
2FD
  8
0
 10
0.742462
 20
1.30106
 30
0.0
 11
0.749527
 21
1.29399
 31
0.0
  0
LINE
  5
2FE
  8
0
 10
0.749527
 20
1.29399
 30
0.0
 11
-0.236877
 21
0.307571
 31
0.0
  0
LINE
  5
2FF
  8
0
 10
-0.236877
 20
0.307571
 30
0.0
 11
-0.243942
 21
0.314636
 31
0.0
  0
LINE
  5
300
  8
0
 10
-0.229813
 20
0.300507
 30
0.0
 11
0.756592
 21
1.28693
 31
0.0
  0
LINE
  5
301
  8
0
 10
0.756592
 20
1.28693
 30
0.0
 11
0.763672
 21
1.27985
 31
0.0
  0
LINE
  5
302
  8
0
 10
0.763672
 20
1.27985
 30
0.0
 11
-0.222733
 21
0.293427
 31
0.0
  0
LINE
  5
303
  8
0
 10
-0.222733
 20
0.293427
 30
0.0
 11
-0.229813
 21
0.300507
 31
0.0
  0
LINE
  5
304
  8
0
 10
-0.215668
 20
0.286362
 30
0.0
 11
0.770737
 21
1.27278
 31
0.0
  0
LINE
  5
305
  8
0
 10
0.770737
 20
1.27278
 30
0.0
 11
0.777817
 21
1.2657
 31
0.0
  0
LINE
  5
306
  8
0
 10
0.777817
 20
1.2657
 30
0.0
 11
-0.208588
 21
0.279282
 31
0.0
  0
LINE
  5
307
  8
0
 10
-0.208588
 20
0.279282
 30
0.0
 11
-0.215668
 21
0.286362
 31
0.0
  0
LINE
  5
308
  8
0
 10
-0.201523
 20
0.272217
 30
0.0
 11
0.784882
 21
1.25864
 31
0.0
  0
LINE
  5
309
  8
0
 10
0.784882
 20
1.25864
 30
0.0
 11
0.791946
 21
1.25156
 31
0.0
  0
LINE
  5
30A
  8
0
 10
0.791946
 20
1.25156
 30
0.0
 11
-0.194458
 21
0.265152
 31
0.0
  0
LINE
  5
30B
  8
0
 10
-0.194458
 20
0.265152
 30
0.0
 11
-0.201523
 21
0.272217
 31
0.0
  0
LINE
  5
30C
  8
0
 10
-0.187378
 20
0.258072
 30
0.0
 11
0.799026
 21
1.24449
 31
0.0
  0
LINE
  5
30D
  8
0
 10
0.799026
 20
1.24449
 30
0.0
 11
0.806091
 21
1.23741
 31
0.0
  0
LINE
  5
30E
  8
0
 10
0.806091
 20
1.23741
 30
0.0
 11
-0.180313
 21
0.251007
 31
0.0
  0
LINE
  5
30F
  8
0
 10
-0.180313
 20
0.251007
 30
0.0
 11
-0.187378
 21
0.258072
 31
0.0
  0
LINE
  5
310
  8
0
 10
-0.173248
 20
0.243942
 30
0.0
 11
0.813156
 21
1.23035
 31
0.0
  0
LINE
  5
311
  8
0
 10
0.813156
 20
1.23035
 30
0.0
 11
0.820236
 21
1.22327
 31
0.0
  0
LINE
  5
312
  8
0
 10
0.820236
 20
1.22327
 30
0.0
 11
-0.166168
 21
0.236862
 31
0.0
  0
LINE
  5
313
  8
0
 10
-0.166168
 20
0.236862
 30
0.0
 11
-0.173248
 21
0.243942
 31
0.0
  0
LINE
  5
314
  8
0
 10
-0.159088
 20
0.229782
 30
0.0
 11
0.827301
 21
1.2162
 31
0.0
  0
LINE
  5
315
  8
0
 10
0.827301
 20
1.2162
 30
0.0
 11
0.834366
 21
1.20914
 31
0.0
  0
LINE
  5
316
  8
0
 10
0.834366
 20
1.20914
 30
0.0
 11
-0.152023
 21
0.222717
 31
0.0
  0
LINE
  5
317
  8
0
 10
-0.152023
 20
0.222717
 30
0.0
 11
-0.159088
 21
0.229782
 31
0.0
  0
LINE
  5
318
  8
0
 10
-0.144943
 20
0.215637
 30
0.0
 11
0.841446
 21
1.20206
 31
0.0
  0
LINE
  5
319
  8
0
 10
0.841446
 20
1.20206
 30
0.0
 11
0.848511
 21
1.19499
 31
0.0
  0
LINE
  5
31A
  8
0
 10
0.848511
 20
1.19499
 30
0.0
 11
-0.137878
 21
0.208572
 31
0.0
  0
LINE
  5
31B
  8
0
 10
-0.137878
 20
0.208572
 30
0.0
 11
-0.144943
 21
0.215637
 31
0.0
  0
LINE
  5
31C
  8
0
 10
-0.130798
 20
0.201492
 30
0.0
 11
0.855591
 21
1.18791
 31
0.0
  0
LINE
  5
31D
  8
0
 10
0.855591
 20
1.18791
 30
0.0
 11
0.862671
 21
1.18085
 31
0.0
  0
LINE
  5
31E
  8
0
 10
0.862671
 20
1.18085
 30
0.0
 11
-0.123734
 21
0.194427
 31
0.0
  0
LINE
  5
31F
  8
0
 10
-0.123734
 20
0.194427
 30
0.0
 11
-0.130798
 21
0.201492
 31
0.0
  0
LINE
  5
320
  8
0
 10
-2.23444
 20
0.190918
 30
0.0
 11
-1.24803
 21
1.17734
 31
0.0
  0
LINE
  5
321
  8
0
 10
-1.24803
 20
1.17734
 30
0.0
 11
-1.24095
 21
1.17026
 31
0.0
  0
LINE
  5
322
  8
0
 10
-1.24095
 20
1.17026
 30
0.0
 11
-2.22737
 21
0.183838
 31
0.0
  0
LINE
  5
323
  8
0
 10
-2.22737
 20
0.183838
 30
0.0
 11
-2.23444
 21
0.190918
 31
0.0
  0
LINE
  5
324
  8
0
 10
-0.116669
 20
0.187363
 30
0.0
 11
0.869736
 21
1.17378
 31
0.0
  0
LINE
  5
325
  8
0
 10
0.869736
 20
1.17378
 30
0.0
 11
0.876816
 21
1.1667
 31
0.0
  0
LINE
  5
326
  8
0
 10
0.876816
 20
1.1667
 30
0.0
 11
-0.109589
 21
0.180283
 31
0.0
  0
LINE
  5
327
  8
0
 10
-0.109589
 20
0.180283
 30
0.0
 11
-0.116669
 21
0.187363
 31
0.0
  0
LINE
  5
328
  8
0
 10
-2.22029
 20
0.176773
 30
0.0
 11
-1.23389
 21
1.16319
 31
0.0
  0
LINE
  5
329
  8
0
 10
-1.23389
 20
1.16319
 30
0.0
 11
-1.22681
 21
1.15611
 31
0.0
  0
LINE
  5
32A
  8
0
 10
-1.22681
 20
1.15611
 30
0.0
 11
-2.21323
 21
0.169708
 31
0.0
  0
LINE
  5
32B
  8
0
 10
-2.21323
 20
0.169708
 30
0.0
 11
-2.22029
 21
0.176773
 31
0.0
  0
LINE
  5
32C
  8
0
 10
-0.102524
 20
0.173218
 30
0.0
 11
0.883881
 21
1.15964
 31
0.0
  0
LINE
  5
32D
  8
0
 10
0.883881
 20
1.15964
 30
0.0
 11
0.890945
 21
1.15257
 31
0.0
  0
LINE
  5
32E
  8
0
 10
0.890945
 20
1.15257
 30
0.0
 11
-0.095459
 21
0.166153
 31
0.0
  0
LINE
  5
32F
  8
0
 10
-0.095459
 20
0.166153
 30
0.0
 11
-0.102524
 21
0.173218
 31
0.0
  0
LINE
  5
330
  8
0
 10
-2.20615
 20
0.162628
 30
0.0
 11
-1.21974
 21
1.14905
 31
0.0
  0
LINE
  5
331
  8
0
 10
-1.21974
 20
1.14905
 30
0.0
 11
-1.21266
 21
1.14197
 31
0.0
  0
LINE
  5
332
  8
0
 10
-1.21266
 20
1.14197
 30
0.0
 11
-2.19908
 21
0.155563
 31
0.0
  0
LINE
  5
333
  8
0
 10
-2.19908
 20
0.155563
 30
0.0
 11
-2.20615
 21
0.162628
 31
0.0
  0
LINE
  5
334
  8
0
 10
-0.0883789
 20
0.159073
 30
0.0
 11
0.898026
 21
1.14549
 31
0.0
  0
LINE
  5
335
  8
0
 10
0.898026
 20
1.14549
 30
0.0
 11
0.90509
 21
1.13843
 31
0.0
  0
LINE
  5
336
  8
0
 10
0.90509
 20
1.13843
 30
0.0
 11
-0.0813141
 21
0.152008
 31
0.0
  0
LINE
  5
337
  8
0
 10
-0.0813141
 20
0.152008
 30
0.0
 11
-0.0883789
 21
0.159073
 31
0.0
  0
LINE
  5
338
  8
0
 10
-2.19202
 20
0.148483
 30
0.0
 11
-1.2056
 21
1.1349
 31
0.0
  0
LINE
  5
339
  8
0
 10
-1.2056
 20
1.1349
 30
0.0
 11
-1.19852
 21
1.12782
 31
0.0
  0
LINE
  5
33A
  8
0
 10
-1.19852
 20
1.12782
 30
0.0
 11
-2.18494
 21
0.141418
 31
0.0
  0
LINE
  5
33B
  8
0
 10
-2.18494
 20
0.141418
 30
0.0
 11
-2.19202
 21
0.148483
 31
0.0
  0
LINE
  5
33C
  8
0
 10
-0.0742493
 20
0.144943
 30
0.0
 11
0.912155
 21
1.13136
 31
0.0
  0
LINE
  5
33D
  8
0
 10
0.912155
 20
1.13136
 30
0.0
 11
0.919235
 21
1.12428
 31
0.0
  0
LINE
  5
33E
  8
0
 10
0.919235
 20
1.12428
 30
0.0
 11
-0.0671692
 21
0.137863
 31
0.0
  0
LINE
  5
33F
  8
0
 10
-0.0671692
 20
0.137863
 30
0.0
 11
-0.0742493
 21
0.144943
 31
0.0
  0
LINE
  5
340
  8
0
 10
-2.17787
 20
0.134338
 30
0.0
 11
-1.19145
 21
1.12076
 31
0.0
  0
LINE
  5
341
  8
0
 10
-1.19145
 20
1.12076
 30
0.0
 11
-1.18439
 21
1.11369
 31
0.0
  0
LINE
  5
342
  8
0
 10
-1.18439
 20
1.11369
 30
0.0
 11
-2.17081
 21
0.127274
 31
0.0
  0
LINE
  5
343
  8
0
 10
-2.17081
 20
0.127274
 30
0.0
 11
-2.17787
 21
0.134338
 31
0.0
  0
LINE
  5
344
  8
0
 10
-0.0601044
 20
0.130798
 30
0.0
 11
0.9263
 21
1.11722
 31
0.0
  0
LINE
  5
345
  8
0
 10
0.9263
 20
1.11722
 30
0.0
 11
0.933365
 21
1.11014
 31
0.0
  0
LINE
  5
346
  8
0
 10
0.933365
 20
1.11014
 30
0.0
 11
-0.0530396
 21
0.123734
 31
0.0
  0
LINE
  5
347
  8
0
 10
-0.0530396
 20
0.123734
 30
0.0
 11
-0.0601044
 21
0.130798
 31
0.0
  0
LINE
  5
348
  8
0
 10
-2.16373
 20
0.120193
 30
0.0
 11
-1.17731
 21
1.10661
 31
0.0
  0
LINE
  5
349
  8
0
 10
-1.17731
 20
1.10661
 30
0.0
 11
-1.17024
 21
1.09955
 31
0.0
  0
LINE
  5
34A
  8
0
 10
-1.17024
 20
1.09955
 30
0.0
 11
-2.15666
 21
0.113129
 31
0.0
  0
LINE
  5
34B
  8
0
 10
-2.15666
 20
0.113129
 30
0.0
 11
-2.16373
 21
0.120193
 31
0.0
  0
LINE
  5
34C
  8
0
 10
-0.0459595
 20
0.116653
 30
0.0
 11
0.940445
 21
1.10307
 31
0.0
  0
LINE
  5
34D
  8
0
 10
0.940445
 20
1.10307
 30
0.0
 11
0.94751
 21
1.09599
 31
0.0
  0
LINE
  5
34E
  8
0
 10
0.94751
 20
1.09599
 30
0.0
 11
-0.0388947
 21
0.109589
 31
0.0
  0
LINE
  5
34F
  8
0
 10
-0.0388947
 20
0.109589
 30
0.0
 11
-0.0459595
 21
0.116653
 31
0.0
  0
LINE
  5
350
  8
0
 10
-2.14958
 20
0.106049
 30
0.0
 11
-1.16316
 21
1.09247
 31
0.0
  0
LINE
  5
351
  8
0
 10
-1.16316
 20
1.09247
 30
0.0
 11
-1.1561
 21
1.0854
 31
0.0
  0
LINE
  5
352
  8
0
 10
-1.1561
 20
1.0854
 30
0.0
 11
-2.14252
 21
0.0989838
 31
0.0
  0
LINE
  5
353
  8
0
 10
-2.14252
 20
0.0989838
 30
0.0
 11
-2.14958
 21
0.106049
 31
0.0
  0
LINE
  5
354
  8
0
 10
-0.0318146
 20
0.102509
 30
0.0
 11
0.95459
 21
1.08893
 31
0.0
  0
LINE
  5
355
  8
0
 10
0.95459
 20
1.08893
 30
0.0
 11
0.961655
 21
1.08185
 31
0.0
  0
LINE
  5
356
  8
0
 10
0.961655
 20
1.08185
 30
0.0
 11
-0.0247498
 21
0.0954437
 31
0.0
  0
LINE
  5
357
  8
0
 10
-0.0247498
 20
0.0954437
 30
0.0
 11
-0.0318146
 21
0.102509
 31
0.0
  0
LINE
  5
358
  8
0
 10
-2.13545
 20
0.0919189
 30
0.0
 11
-1.14903
 21
1.07834
 31
0.0
  0
LINE
  5
359
  8
0
 10
-1.14903
 20
1.07834
 30
0.0
 11
-1.14195
 21
1.07126
 31
0.0
  0
LINE
  5
35A
  8
0
 10
-1.14195
 20
1.07126
 30
0.0
 11
-2.12837
 21
0.0848389
 31
0.0
  0
LINE
  5
35B
  8
0
 10
-2.12837
 20
0.0848389
 30
0.0
 11
-2.13545
 21
0.0919189
 31
0.0
  0
LINE
  5
35C
  8
0
 10
-0.0176697
 20
0.0883636
 30
0.0
 11
0.968719
 21
1.07478
 31
0.0
  0
LINE
  5
35D
  8
0
 10
0.968719
 20
1.07478
 30
0.0
 11
0.9758
 21
1.0677
 31
0.0
  0
LINE
  5
35E
  8
0
 10
0.9758
 20
1.0677
 30
0.0
 11
-0.0106049
 21
0.0812988
 31
0.0
  0
LINE
  5
35F
  8
0
 10
-0.0106049
 20
0.0812988
 30
0.0
 11
-0.0176697
 21
0.0883636
 31
0.0
  0
LINE
  5
360
  8
0
 10
-2.12131
 20
0.077774
 30
0.0
 11
-1.13489
 21
1.06419
 31
0.0
  0
LINE
  5
361
  8
0
 10
-1.13489
 20
1.06419
 30
0.0
 11
-1.12782
 21
1.05713
 31
0.0
  0
LINE
  5
362
  8
0
 10
-1.12782
 20
1.05713
 30
0.0
 11
-2.11423
 21
0.0707092
 31
0.0
  0
LINE
  5
363
  8
0
 10
-2.11423
 20
0.0707092
 30
0.0
 11
-2.12131
 21
0.077774
 31
0.0
  0
LINE
  5
364
  8
0
 10
0.00354004
 20
0.0671692
 30
0.0
 11
-0.00352478
 21
0.0742188
 31
0.0
  0
LINE
  5
365
  8
0
 10
-0.00352478
 20
0.0742188
 30
0.0
 11
0.982864
 21
1.06064
 31
0.0
  0
LINE
  5
366
  8
0
 10
0.982864
 20
1.06064
 30
0.0
 11
0.989944
 21
1.05357
 31
0.0
  0
LINE
  5
367
  8
0
 10
0.989944
 20
1.05357
 30
0.0
 11
0.00354004
 21
0.0671692
 31
0.0
  0
LINE
  5
368
  8
0
 10
-2.10716
 20
0.0636292
 30
0.0
 11
-1.12074
 21
1.05005
 31
0.0
  0
LINE
  5
369
  8
0
 10
-1.12074
 20
1.05005
 30
0.0
 11
-1.11368
 21
1.04298
 31
0.0
  0
LINE
  5
36A
  8
0
 10
-1.11368
 20
1.04298
 30
0.0
 11
-2.10008
 21
0.0565643
 31
0.0
  0
LINE
  5
36B
  8
0
 10
-2.10008
 20
0.0565643
 30
0.0
 11
-2.10716
 21
0.0636292
 31
0.0
  0
LINE
  5
36C
  8
0
 10
0.0106049
 20
0.0600891
 30
0.0
 11
0.997009
 21
1.04649
 31
0.0
  0
LINE
  5
36D
  8
0
 10
0.997009
 20
1.04649
 30
0.0
 11
1.00409
 21
1.03943
 31
0.0
  0
LINE
  5
36E
  8
0
 10
1.00409
 20
1.03943
 30
0.0
 11
0.0176849
 21
0.0530243
 31
0.0
  0
LINE
  5
36F
  8
0
 10
0.0176849
 20
0.0530243
 30
0.0
 11
0.0106049
 21
0.0600891
 31
0.0
  0
LINE
  5
370
  8
0
 10
-2.09302
 20
0.0494995
 30
0.0
 11
-1.10661
 21
1.03592
 31
0.0
  0
LINE
  5
371
  8
0
 10
-1.10661
 20
1.03592
 30
0.0
 11
-1.09953
 21
1.02884
 31
0.0
  0
LINE
  5
372
  8
0
 10
-1.09953
 20
1.02884
 30
0.0
 11
-2.08594
 21
0.0424194
 31
0.0
  0
LINE
  5
373
  8
0
 10
-2.08594
 20
0.0424194
 30
0.0
 11
-2.09302
 21
0.0494995
 31
0.0
  0
LINE
  5
374
  8
0
 10
0.0247498
 20
0.0459595
 30
0.0
 11
1.01115
 21
1.03236
 31
0.0
  0
LINE
  5
375
  8
0
 10
1.01115
 20
1.03236
 30
0.0
 11
1.01823
 21
1.02528
 31
0.0
  0
LINE
  5
376
  8
0
 10
1.01823
 20
1.02528
 30
0.0
 11
0.0318298
 21
0.0388794
 31
0.0
  0
LINE
  5
377
  8
0
 10
0.0318298
 20
0.0388794
 30
0.0
 11
0.0247498
 21
0.0459595
 31
0.0
  0
LINE
  5
378
  8
0
 10
-2.07887
 20
0.0353546
 30
0.0
 11
-1.09247
 21
1.02177
 31
0.0
  0
LINE
  5
379
  8
0
 10
-1.09247
 20
1.02177
 30
0.0
 11
-1.08539
 21
1.01469
 31
0.0
  0
LINE
  5
37A
  8
0
 10
-1.08539
 20
1.01469
 30
0.0
 11
-2.07179
 21
0.0282745
 31
0.0
  0
LINE
  5
37B
  8
0
 10
-2.07179
 20
0.0282745
 30
0.0
 11
-2.07887
 21
0.0353546
 31
0.0
  0
LINE
  5
37C
  8
0
 10
0.0388794
 20
0.0318298
 30
0.0
 11
1.02528
 21
1.01823
 31
0.0
  0
LINE
  5
37D
  8
0
 10
1.02528
 20
1.01823
 30
0.0
 11
1.03236
 21
1.01115
 31
0.0
  0
LINE
  5
37E
  8
0
 10
1.03236
 20
1.01115
 30
0.0
 11
0.0459595
 21
0.0247498
 31
0.0
  0
LINE
  5
37F
  8
0
 10
0.0459595
 20
0.0247498
 30
0.0
 11
0.0388794
 21
0.0318298
 31
0.0
  0
LINE
  5
380
  8
0
 10
-2.06473
 20
0.0212097
 30
0.0
 11
-1.07831
 21
1.00761
 31
0.0
  0
LINE
  5
381
  8
0
 10
-1.07831
 20
1.00761
 30
0.0
 11
-1.07124
 21
1.00055
 31
0.0
  0
LINE
  5
382
  8
0
 10
-1.07124
 20
1.00055
 30
0.0
 11
-2.05766
 21
0.0141449
 31
0.0
  0
LINE
  5
383
  8
0
 10
-2.05766
 20
0.0141449
 30
0.0
 11
-2.06473
 21
0.0212097
 31
0.0
  0
LINE
  5
384
  8
0
 10
0.0530243
 20
0.0176849
 30
0.0
 11
1.03943
 21
1.00409
 31
0.0
  0
LINE
  5
385
  8
0
 10
1.03943
 20
1.00409
 30
0.0
 11
1.04649
 21
0.997009
 31
0.0
  0
LINE
  5
386
  8
0
 10
1.04649
 20
0.997009
 30
0.0
 11
0.0600891
 21
0.0106049
 31
0.0
  0
LINE
  5
387
  8
0
 10
0.0600891
 20
0.0106049
 30
0.0
 11
0.0530243
 21
0.0176849
 31
0.0
  0
LINE
  5
388
  8
0
 10
-2.05058
 20
0.00706482
 30
0.0
 11
-1.06416
 21
0.993469
 31
0.0
  0
LINE
  5
389
  8
0
 10
-1.06416
 20
0.993469
 30
0.0
 11
-1.0571
 21
0.986404
 31
0.0
  0
LINE
  5
38A
  8
0
 10
-1.0571
 20
0.986404
 30
0.0
 11
-2.04352
 21
0.0
 31
0.0
  0
LINE
  5
38B
  8
0
 10
-2.04352
 20
0.0
 30
0.0
 11
-2.05058
 21
0.00706482
 31
0.0
  0
LINE
  5
38C
  8
0
 10
0.0671692
 20
0.00354004
 30
0.0
 11
1.05357
 21
0.989944
 31
0.0
  0
LINE
  5
38D
  8
0
 10
1.05357
 20
0.989944
 30
0.0
 11
1.06064
 21
0.982864
 31
0.0
  0
LINE
  5
38E
  8
0
 10
1.06064
 20
0.982864
 30
0.0
 11
0.0742188
 21
-0.00352478
 31
0.0
  0
LINE
  5
38F
  8
0
 10
0.0742188
 20
-0.00352478
 30
0.0
 11
0.0671692
 21
0.00354004
 31
0.0
  0
LINE
  5
390
  8
0
 10
-2.03645
 20
-0.00706482
 30
0.0
 11
-1.05003
 21
0.97934
 31
0.0
  0
LINE
  5
391
  8
0
 10
-1.05003
 20
0.97934
 30
0.0
 11
-1.04295
 21
0.97226
 31
0.0
  0
LINE
  5
392
  8
0
 10
-1.04295
 20
0.97226
 30
0.0
 11
-2.02937
 21
-0.0141449
 31
0.0
  0
LINE
  5
393
  8
0
 10
-2.02937
 20
-0.0141449
 30
0.0
 11
-2.03645
 21
-0.00706482
 31
0.0
  0
LINE
  5
394
  8
0
 10
0.0812988
 20
-0.0106049
 30
0.0
 11
1.0677
 21
0.9758
 31
0.0
  0
LINE
  5
395
  8
0
 10
1.0677
 20
0.9758
 30
0.0
 11
1.07478
 21
0.968719
 31
0.0
  0
LINE
  5
396
  8
0
 10
1.07478
 20
0.968719
 30
0.0
 11
0.0883636
 21
-0.0176697
 31
0.0
  0
LINE
  5
397
  8
0
 10
0.0883636
 20
-0.0176697
 30
0.0
 11
0.0812988
 21
-0.0106049
 31
0.0
  0
LINE
  5
398
  8
0
 10
-2.02231
 20
-0.0212097
 30
0.0
 11
-1.03589
 21
0.965195
 31
0.0
  0
LINE
  5
399
  8
0
 10
-1.03589
 20
0.965195
 30
0.0
 11
-1.02882
 21
0.95813
 31
0.0
  0
LINE
  5
39A
  8
0
 10
-1.02882
 20
0.95813
 30
0.0
 11
-2.01524
 21
-0.0282745
 31
0.0
  0
LINE
  5
39B
  8
0
 10
-2.01524
 20
-0.0282745
 30
0.0
 11
-2.02231
 21
-0.0212097
 31
0.0
  0
LINE
  5
39C
  8
0
 10
0.0954437
 20
-0.0247498
 30
0.0
 11
1.08185
 21
0.961655
 31
0.0
  0
LINE
  5
39D
  8
0
 10
1.08185
 20
0.961655
 30
0.0
 11
1.08893
 21
0.95459
 31
0.0
  0
LINE
  5
39E
  8
0
 10
1.08893
 20
0.95459
 30
0.0
 11
0.102509
 21
-0.0318146
 31
0.0
  0
LINE
  5
39F
  8
0
 10
0.102509
 20
-0.0318146
 30
0.0
 11
0.0954437
 21
-0.0247498
 31
0.0
  0
LINE
  5
3A0
  8
0
 10
-2.00816
 20
-0.0353546
 30
0.0
 11
-1.02174
 21
0.95105
 31
0.0
  0
LINE
  5
3A1
  8
0
 10
-1.02174
 20
0.95105
 30
0.0
 11
-1.01468
 21
0.943985
 31
0.0
  0
LINE
  5
3A2
  8
0
 10
-1.01468
 20
0.943985
 30
0.0
 11
-2.0011
 21
-0.0424194
 31
0.0
  0
LINE
  5
3A3
  8
0
 10
-2.0011
 20
-0.0424194
 30
0.0
 11
-2.00816
 21
-0.0353546
 31
0.0
  0
LINE
  5
3A4
  8
0
 10
0.109589
 20
-0.0388947
 30
0.0
 11
1.09599
 21
0.94751
 31
0.0
  0
LINE
  5
3A5
  8
0
 10
1.09599
 20
0.94751
 30
0.0
 11
1.10307
 21
0.940445
 31
0.0
  0
LINE
  5
3A6
  8
0
 10
1.10307
 20
0.940445
 30
0.0
 11
0.116653
 21
-0.0459595
 31
0.0
  0
LINE
  5
3A7
  8
0
 10
0.116653
 20
-0.0459595
 30
0.0
 11
0.109589
 21
-0.0388947
 31
0.0
  0
LINE
  5
3A8
  8
0
 10
-1.99403
 20
-0.0494843
 30
0.0
 11
-1.00761
 21
0.93692
 31
0.0
  0
LINE
  5
3A9
  8
0
 10
-1.00761
 20
0.93692
 30
0.0
 11
-1.00053
 21
0.92984
 31
0.0
  0
LINE
  5
3AA
  8
0
 10
-1.00053
 20
0.92984
 30
0.0
 11
-1.98695
 21
-0.0565643
 31
0.0
  0
LINE
  5
3AB
  8
0
 10
-1.98695
 20
-0.0565643
 30
0.0
 11
-1.99403
 21
-0.0494843
 31
0.0
  0
LINE
  5
3AC
  8
0
 10
0.123734
 20
-0.0530396
 30
0.0
 11
1.11014
 21
0.933365
 31
0.0
  0
LINE
  5
3AD
  8
0
 10
1.11014
 20
0.933365
 30
0.0
 11
1.11722
 21
0.9263
 31
0.0
  0
LINE
  5
3AE
  8
0
 10
1.11722
 20
0.9263
 30
0.0
 11
0.130798
 21
-0.0601044
 31
0.0
  0
LINE
  5
3AF
  8
0
 10
0.130798
 20
-0.0601044
 30
0.0
 11
0.123734
 21
-0.0530396
 31
0.0
  0
LINE
  5
3B0
  8
0
 10
-1.97989
 20
-0.0636292
 30
0.0
 11
-0.993469
 21
0.922775
 31
0.0
  0
LINE
  5
3B1
  8
0
 10
-0.993469
 20
0.922775
 30
0.0
 11
-0.986389
 21
0.915695
 31
0.0
  0
LINE
  5
3B2
  8
0
 10
-0.986389
 20
0.915695
 30
0.0
 11
-1.97281
 21
-0.0707092
 31
0.0
  0
LINE
  5
3B3
  8
0
 10
-1.97281
 20
-0.0707092
 30
0.0
 11
-1.97989
 21
-0.0636292
 31
0.0
  0
LINE
  5
3B4
  8
0
 10
0.137863
 20
-0.0671692
 30
0.0
 11
1.12428
 21
0.919235
 31
0.0
  0
LINE
  5
3B5
  8
0
 10
1.12428
 20
0.919235
 30
0.0
 11
1.13136
 21
0.912155
 31
0.0
  0
LINE
  5
3B6
  8
0
 10
1.13136
 20
0.912155
 30
0.0
 11
0.144943
 21
-0.0742493
 31
0.0
  0
LINE
  5
3B7
  8
0
 10
0.144943
 20
-0.0742493
 30
0.0
 11
0.137863
 21
-0.0671692
 31
0.0
  0
LINE
  5
3B8
  8
0
 10
-1.96574
 20
-0.077774
 30
0.0
 11
-0.979324
 21
0.90863
 31
0.0
  0
LINE
  5
3B9
  8
0
 10
-0.979324
 20
0.90863
 30
0.0
 11
-0.97226
 21
0.901566
 31
0.0
  0
LINE
  5
3BA
  8
0
 10
-0.97226
 20
0.901566
 30
0.0
 11
-1.95866
 21
-0.0848389
 31
0.0
  0
LINE
  5
3BB
  8
0
 10
-1.95866
 20
-0.0848389
 30
0.0
 11
-1.96574
 21
-0.077774
 31
0.0
  0
LINE
  5
3BC
  8
0
 10
0.152008
 20
-0.0813141
 30
0.0
 11
1.13843
 21
0.90509
 31
0.0
  0
LINE
  5
3BD
  8
0
 10
1.13843
 20
0.90509
 30
0.0
 11
1.14549
 21
0.898026
 31
0.0
  0
LINE
  5
3BE
  8
0
 10
1.14549
 20
0.898026
 30
0.0
 11
0.159073
 21
-0.0883789
 31
0.0
  0
LINE
  5
3BF
  8
0
 10
0.159073
 20
-0.0883789
 30
0.0
 11
0.152008
 21
-0.0813141
 31
0.0
  0
LINE
  5
3C0
  8
0
 10
-1.9516
 20
-0.0919189
 30
0.0
 11
-0.965179
 21
0.894485
 31
0.0
  0
LINE
  5
3C1
  8
0
 10
-0.965179
 20
0.894485
 30
0.0
 11
-0.958115
 21
0.887421
 31
0.0
  0
LINE
  5
3C2
  8
0
 10
-0.958115
 20
0.887421
 30
0.0
 11
-1.94452
 21
-0.0989838
 31
0.0
  0
LINE
  5
3C3
  8
0
 10
-1.94452
 20
-0.0989838
 30
0.0
 11
-1.9516
 21
-0.0919189
 31
0.0
  0
LINE
  5
3C4
  8
0
 10
0.166153
 20
-0.095459
 30
0.0
 11
1.15257
 21
0.890945
 31
0.0
  0
LINE
  5
3C5
  8
0
 10
1.15257
 20
0.890945
 30
0.0
 11
1.15964
 21
0.883881
 31
0.0
  0
LINE
  5
3C6
  8
0
 10
1.15964
 20
0.883881
 30
0.0
 11
0.173218
 21
-0.102524
 31
0.0
  0
LINE
  5
3C7
  8
0
 10
0.173218
 20
-0.102524
 30
0.0
 11
0.166153
 21
-0.095459
 31
0.0
  0
LINE
  5
3C8
  8
0
 10
-1.93745
 20
-0.106049
 30
0.0
 11
-0.951035
 21
0.880341
 31
0.0
  0
LINE
  5
3C9
  8
0
 10
-0.951035
 20
0.880341
 30
0.0
 11
-0.94397
 21
0.873276
 31
0.0
  0
LINE
  5
3CA
  8
0
 10
-0.94397
 20
0.873276
 30
0.0
 11
-1.93037
 21
-0.113129
 31
0.0
  0
LINE
  5
3CB
  8
0
 10
-1.93037
 20
-0.113129
 30
0.0
 11
-1.93745
 21
-0.106049
 31
0.0
  0
LINE
  5
3CC
  8
0
 10
0.180283
 20
-0.109589
 30
0.0
 11
1.1667
 21
0.876816
 31
0.0
  0
LINE
  5
3CD
  8
0
 10
1.1667
 20
0.876816
 30
0.0
 11
1.17378
 21
0.869736
 31
0.0
  0
LINE
  5
3CE
  8
0
 10
1.17378
 20
0.869736
 30
0.0
 11
0.187363
 21
-0.116669
 31
0.0
  0
LINE
  5
3CF
  8
0
 10
0.187363
 20
-0.116669
 30
0.0
 11
0.180283
 21
-0.109589
 31
0.0
  0
LINE
  5
3D0
  8
0
 10
-1.92331
 20
-0.120193
 30
0.0
 11
-0.93689
 21
0.866196
 31
0.0
  0
LINE
  5
3D1
  8
0
 10
-0.93689
 20
0.866196
 30
0.0
 11
-0.929825
 21
0.859131
 31
0.0
  0
LINE
  5
3D2
  8
0
 10
-0.929825
 20
0.859131
 30
0.0
 11
-1.91624
 21
-0.127274
 31
0.0
  0
LINE
  5
3D3
  8
0
 10
-1.91624
 20
-0.127274
 30
0.0
 11
-1.92331
 21
-0.120193
 31
0.0
  0
LINE
  5
3D4
  8
0
 10
0.194427
 20
-0.123734
 30
0.0
 11
1.18085
 21
0.862671
 31
0.0
  0
LINE
  5
3D5
  8
0
 10
1.18085
 20
0.862671
 30
0.0
 11
1.18791
 21
0.855591
 31
0.0
  0
LINE
  5
3D6
  8
0
 10
1.18791
 20
0.855591
 30
0.0
 11
0.201492
 21
-0.130798
 31
0.0
  0
LINE
  5
3D7
  8
0
 10
0.201492
 20
-0.130798
 30
0.0
 11
0.194427
 21
-0.123734
 31
0.0
  0
LINE
  5
3D8
  8
0
 10
-1.90916
 20
-0.134338
 30
0.0
 11
-0.922745
 21
0.852051
 31
0.0
  0
LINE
  5
3D9
  8
0
 10
-0.922745
 20
0.852051
 30
0.0
 11
-0.91568
 21
0.844986
 31
0.0
  0
LINE
  5
3DA
  8
0
 10
-0.91568
 20
0.844986
 30
0.0
 11
-1.9021
 21
-0.141418
 31
0.0
  0
LINE
  5
3DB
  8
0
 10
-1.9021
 20
-0.141418
 30
0.0
 11
-1.90916
 21
-0.134338
 31
0.0
  0
LINE
  5
3DC
  8
0
 10
0.208572
 20
-0.137878
 30
0.0
 11
1.19499
 21
0.848511
 31
0.0
  0
LINE
  5
3DD
  8
0
 10
1.19499
 20
0.848511
 30
0.0
 11
1.20206
 21
0.841446
 31
0.0
  0
LINE
  5
3DE
  8
0
 10
1.20206
 20
0.841446
 30
0.0
 11
0.215637
 21
-0.144943
 31
0.0
  0
LINE
  5
3DF
  8
0
 10
0.215637
 20
-0.144943
 30
0.0
 11
0.208572
 21
-0.137878
 31
0.0
  0
LINE
  5
3E0
  8
0
 10
-1.89502
 20
-0.148483
 30
0.0
 11
-0.9086
 21
0.837906
 31
0.0
  0
LINE
  5
3E1
  8
0
 10
-0.9086
 20
0.837906
 30
0.0
 11
-0.901535
 21
0.830841
 31
0.0
  0
LINE
  5
3E2
  8
0
 10
-0.901535
 20
0.830841
 30
0.0
 11
-1.88795
 21
-0.155563
 31
0.0
  0
LINE
  5
3E3
  8
0
 10
-1.88795
 20
-0.155563
 30
0.0
 11
-1.89502
 21
-0.148483
 31
0.0
  0
LINE
  5
3E4
  8
0
 10
0.222717
 20
-0.152023
 30
0.0
 11
1.20914
 21
0.834366
 31
0.0
  0
LINE
  5
3E5
  8
0
 10
1.20914
 20
0.834366
 30
0.0
 11
1.2162
 21
0.827301
 31
0.0
  0
LINE
  5
3E6
  8
0
 10
1.2162
 20
0.827301
 30
0.0
 11
0.229782
 21
-0.159088
 31
0.0
  0
LINE
  5
3E7
  8
0
 10
0.229782
 20
-0.159088
 30
0.0
 11
0.222717
 21
-0.152023
 31
0.0
  0
LINE
  5
3E8
  8
0
 10
-1.88089
 20
-0.162628
 30
0.0
 11
-0.89447
 21
0.823776
 31
0.0
  0
LINE
  5
3E9
  8
0
 10
-0.89447
 20
0.823776
 30
0.0
 11
-0.88739
 21
0.816696
 31
0.0
  0
LINE
  5
3EA
  8
0
 10
-0.88739
 20
0.816696
 30
0.0
 11
-1.87381
 21
-0.169708
 31
0.0
  0
LINE
  5
3EB
  8
0
 10
-1.87381
 20
-0.169708
 30
0.0
 11
-1.88089
 21
-0.162628
 31
0.0
  0
LINE
  5
3EC
  8
0
 10
1.22327
 20
0.820236
 30
0.0
 11
1.23035
 21
0.813156
 31
0.0
  0
LINE
  5
3ED
  8
0
 10
1.23035
 20
0.813156
 30
0.0
 11
0.243942
 21
-0.173248
 31
0.0
  0
LINE
  5
3EE
  8
0
 10
0.243942
 20
-0.173248
 30
0.0
 11
0.236862
 21
-0.166168
 31
0.0
  0
LINE
  5
3EF
  8
0
 10
0.236862
 20
-0.166168
 30
0.0
 11
1.22327
 21
0.820236
 31
0.0
  0
LINE
  5
3F0
  8
0
 10
-1.86674
 20
-0.176773
 30
0.0
 11
-0.880325
 21
0.809631
 31
0.0
  0
LINE
  5
3F1
  8
0
 10
-0.880325
 20
0.809631
 30
0.0
 11
-0.87326
 21
0.802567
 31
0.0
  0
LINE
  5
3F2
  8
0
 10
-0.87326
 20
0.802567
 30
0.0
 11
-1.85968
 21
-0.183838
 31
0.0
  0
LINE
  5
3F3
  8
0
 10
-1.85968
 20
-0.183838
 30
0.0
 11
-1.86674
 21
-0.176773
 31
0.0
  0
LINE
  5
3F4
  8
0
 10
0.251007
 20
-0.180313
 30
0.0
 11
1.23741
 21
0.806091
 31
0.0
  0
LINE
  5
3F5
  8
0
 10
1.23741
 20
0.806091
 30
0.0
 11
1.24449
 21
0.799026
 31
0.0
  0
LINE
  5
3F6
  8
0
 10
1.24449
 20
0.799026
 30
0.0
 11
0.258072
 21
-0.187378
 31
0.0
  0
LINE
  5
3F7
  8
0
 10
0.258072
 20
-0.187378
 30
0.0
 11
0.251007
 21
-0.180313
 31
0.0
  0
LINE
  5
3F8
  8
0
 10
-1.8526
 20
-0.190918
 30
0.0
 11
-0.86618
 21
0.795486
 31
0.0
  0
LINE
  5
3F9
  8
0
 10
-0.86618
 20
0.795486
 30
0.0
 11
-0.859116
 21
0.788422
 31
0.0
  0
LINE
  5
3FA
  8
0
 10
-0.859116
 20
0.788422
 30
0.0
 11
-1.84554
 21
-0.197983
 31
0.0
  0
LINE
  5
3FB
  8
0
 10
-1.84554
 20
-0.197983
 30
0.0
 11
-1.8526
 21
-0.190918
 31
0.0
  0
LINE
  5
3FC
  8
0
 10
0.265152
 20
-0.194458
 30
0.0
 11
1.25156
 21
0.791946
 31
0.0
  0
LINE
  5
3FD
  8
0
 10
1.25156
 20
0.791946
 30
0.0
 11
1.25864
 21
0.784882
 31
0.0
  0
LINE
  5
3FE
  8
0
 10
1.25864
 20
0.784882
 30
0.0
 11
0.272217
 21
-0.201523
 31
0.0
  0
LINE
  5
3FF
  8
0
 10
0.272217
 20
-0.201523
 30
0.0
 11
0.265152
 21
-0.194458
 31
0.0
  0
LINE
  5
400
  8
0
 10
-1.83847
 20
-0.205048
 30
0.0
 11
-0.852051
 21
0.781357
 31
0.0
  0
LINE
  5
401
  8
0
 10
-0.852051
 20
0.781357
 30
0.0
 11
-0.844971
 21
0.774277
 31
0.0
  0
LINE
  5
402
  8
0
 10
-0.844971
 20
0.774277
 30
0.0
 11
-1.83139
 21
-0.212128
 31
0.0
  0
LINE
  5
403
  8
0
 10
-1.83139
 20
-0.212128
 30
0.0
 11
-1.83847
 21
-0.205048
 31
0.0
  0
LINE
  5
404
  8
0
 10
0.279282
 20
-0.208588
 30
0.0
 11
1.2657
 21
0.777817
 31
0.0
  0
LINE
  5
405
  8
0
 10
1.2657
 20
0.777817
 30
0.0
 11
1.27278
 21
0.770737
 31
0.0
  0
LINE
  5
406
  8
0
 10
1.27278
 20
0.770737
 30
0.0
 11
0.286362
 21
-0.215668
 31
0.0
  0
LINE
  5
407
  8
0
 10
0.286362
 20
-0.215668
 30
0.0
 11
0.279282
 21
-0.208588
 31
0.0
  0
LINE
  5
408
  8
0
 10
-1.82433
 20
-0.219193
 30
0.0
 11
-0.837906
 21
0.767212
 31
0.0
  0
LINE
  5
409
  8
0
 10
-0.837906
 20
0.767212
 30
0.0
 11
-0.830841
 21
0.760147
 31
0.0
  0
LINE
  5
40A
  8
0
 10
-0.830841
 20
0.760147
 30
0.0
 11
-1.81725
 21
-0.226257
 31
0.0
  0
LINE
  5
40B
  8
0
 10
-1.81725
 20
-0.226257
 30
0.0
 11
-1.82433
 21
-0.219193
 31
0.0
  0
LINE
  5
40C
  8
0
 10
0.293427
 20
-0.222733
 30
0.0
 11
1.27985
 21
0.763672
 31
0.0
  0
LINE
  5
40D
  8
0
 10
1.27985
 20
0.763672
 30
0.0
 11
1.28693
 21
0.756592
 31
0.0
  0
LINE
  5
40E
  8
0
 10
1.28693
 20
0.756592
 30
0.0
 11
0.300507
 21
-0.229813
 31
0.0
  0
LINE
  5
40F
  8
0
 10
0.300507
 20
-0.229813
 30
0.0
 11
0.293427
 21
-0.222733
 31
0.0
  0
LINE
  5
410
  8
0
 10
-1.81018
 20
-0.233337
 30
0.0
 11
-0.823761
 21
0.753067
 31
0.0
  0
LINE
  5
411
  8
0
 10
-0.823761
 20
0.753067
 30
0.0
 11
-0.816696
 21
0.746002
 31
0.0
  0
LINE
  5
412
  8
0
 10
-0.816696
 20
0.746002
 30
0.0
 11
-1.8031
 21
-0.240402
 31
0.0
  0
LINE
  5
413
  8
0
 10
-1.8031
 20
-0.240402
 30
0.0
 11
-1.81018
 21
-0.233337
 31
0.0
  0
LINE
  5
414
  8
0
 10
0.307571
 20
-0.236877
 30
0.0
 11
1.29399
 21
0.749527
 31
0.0
  0
LINE
  5
415
  8
0
 10
1.29399
 20
0.749527
 30
0.0
 11
1.30106
 21
0.742462
 31
0.0
  0
LINE
  5
416
  8
0
 10
1.30106
 20
0.742462
 30
0.0
 11
0.314636
 21
-0.243942
 31
0.0
  0
LINE
  5
417
  8
0
 10
0.314636
 20
-0.243942
 30
0.0
 11
0.307571
 21
-0.236877
 31
0.0
  0
LINE
  5
418
  8
0
 10
-1.79602
 20
-0.247482
 30
0.0
 11
-0.809616
 21
0.738922
 31
0.0
  0
LINE
  5
419
  8
0
 10
-0.809616
 20
0.738922
 30
0.0
 11
-0.802551
 21
0.731857
 31
0.0
  0
LINE
  5
41A
  8
0
 10
-0.802551
 20
0.731857
 30
0.0
 11
-1.78896
 21
-0.254547
 31
0.0
  0
LINE
  5
41B
  8
0
 10
-1.78896
 20
-0.254547
 30
0.0
 11
-1.79602
 21
-0.247482
 31
0.0
  0
LINE
  5
41C
  8
0
 10
0.321716
 20
-0.251022
 30
0.0
 11
1.30814
 21
0.735382
 31
0.0
  0
LINE
  5
41D
  8
0
 10
1.30814
 20
0.735382
 30
0.0
 11
1.3152
 21
0.728317
 31
0.0
  0
LINE
  5
41E
  8
0
 10
1.3152
 20
0.728317
 30
0.0
 11
0.328781
 21
-0.258087
 31
0.0
  0
LINE
  5
41F
  8
0
 10
0.328781
 20
-0.258087
 30
0.0
 11
0.321716
 21
-0.251022
 31
0.0
  0
LINE
  5
420
  8
0
 10
-1.78189
 20
-0.261612
 30
0.0
 11
-0.795471
 21
0.724777
 31
0.0
  0
LINE
  5
421
  8
0
 10
-0.795471
 20
0.724777
 30
0.0
 11
-0.788406
 21
0.717712
 31
0.0
  0
LINE
  5
422
  8
0
 10
-0.788406
 20
0.717712
 30
0.0
 11
-1.77481
 21
-0.268692
 31
0.0
  0
LINE
  5
423
  8
0
 10
-1.77481
 20
-0.268692
 30
0.0
 11
-1.78189
 21
-0.261612
 31
0.0
  0
LINE
  5
424
  8
0
 10
0.335846
 20
-0.265152
 30
0.0
 11
1.32227
 21
0.721237
 31
0.0
  0
LINE
  5
425
  8
0
 10
1.32227
 20
0.721237
 30
0.0
 11
1.32935
 21
0.714172
 31
0.0
  0
LINE
  5
426
  8
0
 10
1.32935
 20
0.714172
 30
0.0
 11
0.342926
 21
-0.272232
 31
0.0
  0
LINE
  5
427
  8
0
 10
0.342926
 20
-0.272232
 30
0.0
 11
0.335846
 21
-0.265152
 31
0.0
  0
LINE
  5
428
  8
0
 10
-1.76775
 20
-0.275757
 30
0.0
 11
-0.781326
 21
0.710632
 31
0.0
  0
LINE
  5
429
  8
0
 10
-0.781326
 20
0.710632
 30
0.0
 11
-0.774261
 21
0.703568
 31
0.0
  0
LINE
  5
42A
  8
0
 10
-0.774261
 20
0.703568
 30
0.0
 11
-1.76068
 21
-0.282837
 31
0.0
  0
LINE
  5
42B
  8
0
 10
-1.76068
 20
-0.282837
 30
0.0
 11
-1.76775
 21
-0.275757
 31
0.0
  0
LINE
  5
42C
  8
0
 10
1.33641
 20
0.707092
 30
0.0
 11
1.34348
 21
0.700027
 31
0.0
  0
LINE
  5
42D
  8
0
 10
1.34348
 20
0.700027
 30
0.0
 11
0.357071
 21
-0.286377
 31
0.0
  0
LINE
  5
42E
  8
0
 10
0.357071
 20
-0.286377
 30
0.0
 11
0.349991
 21
-0.279297
 31
0.0
  0
LINE
  5
42F
  8
0
 10
0.349991
 20
-0.279297
 30
0.0
 11
1.33641
 21
0.707092
 31
0.0
  0
LINE
  5
430
  8
0
 10
-1.7536
 20
-0.289902
 30
0.0
 11
-0.767181
 21
0.696487
 31
0.0
  0
LINE
  5
431
  8
0
 10
-0.767181
 20
0.696487
 30
0.0
 11
-0.760117
 21
0.689423
 31
0.0
  0
LINE
  5
432
  8
0
 10
-0.760117
 20
0.689423
 30
0.0
 11
-1.74654
 21
-0.296982
 31
0.0
  0
LINE
  5
433
  8
0
 10
-1.74654
 20
-0.296982
 30
0.0
 11
-1.7536
 21
-0.289902
 31
0.0
  0
LINE
  5
434
  8
0
 10
0.364136
 20
-0.293442
 30
0.0
 11
1.35056
 21
0.692947
 31
0.0
  0
LINE
  5
435
  8
0
 10
1.35056
 20
0.692947
 30
0.0
 11
1.35762
 21
0.685883
 31
0.0
  0
LINE
  5
436
  8
0
 10
1.35762
 20
0.685883
 30
0.0
 11
0.371216
 21
-0.300522
 31
0.0
  0
LINE
  5
437
  8
0
 10
0.371216
 20
-0.300522
 30
0.0
 11
0.364136
 21
-0.293442
 31
0.0
  0
LINE
  5
438
  8
0
 10
-1.73947
 20
-0.304047
 30
0.0
 11
-0.753052
 21
0.682358
 31
0.0
  0
LINE
  5
439
  8
0
 10
-0.753052
 20
0.682358
 30
0.0
 11
-0.745972
 21
0.675278
 31
0.0
  0
LINE
  5
43A
  8
0
 10
-0.745972
 20
0.675278
 30
0.0
 11
-1.73239
 21
-0.311127
 31
0.0
  0
LINE
  5
43B
  8
0
 10
-1.73239
 20
-0.311127
 30
0.0
 11
-1.73947
 21
-0.304047
 31
0.0
  0
LINE
  5
43C
  8
0
 10
0.378281
 20
-0.307587
 30
0.0
 11
1.36469
 21
0.678818
 31
0.0
  0
LINE
  5
43D
  8
0
 10
1.36469
 20
0.678818
 30
0.0
 11
1.37177
 21
0.671738
 31
0.0
  0
LINE
  5
43E
  8
0
 10
1.37177
 20
0.671738
 30
0.0
 11
0.385361
 21
-0.314667
 31
0.0
  0
LINE
  5
43F
  8
0
 10
0.385361
 20
-0.314667
 30
0.0
 11
0.378281
 21
-0.307587
 31
0.0
  0
LINE
  5
440
  8
0
 10
-1.72533
 20
-0.318192
 30
0.0
 11
-0.738907
 21
0.668213
 31
0.0
  0
LINE
  5
441
  8
0
 10
-0.738907
 20
0.668213
 30
0.0
 11
-0.731827
 21
0.661133
 31
0.0
  0
LINE
  5
442
  8
0
 10
-0.731827
 20
0.661133
 30
0.0
 11
-1.71825
 21
-0.325272
 31
0.0
  0
LINE
  5
443
  8
0
 10
-1.71825
 20
-0.325272
 30
0.0
 11
-1.72533
 21
-0.318192
 31
0.0
  0
LINE
  5
444
  8
0
 10
0.392426
 20
-0.321732
 30
0.0
 11
1.37885
 21
0.664673
 31
0.0
  0
LINE
  5
445
  8
0
 10
1.37885
 20
0.664673
 30
0.0
 11
1.38591
 21
0.657593
 31
0.0
  0
LINE
  5
446
  8
0
 10
1.38591
 20
0.657593
 30
0.0
 11
0.399506
 21
-0.328812
 31
0.0
  0
LINE
  5
447
  8
0
 10
0.399506
 20
-0.328812
 30
0.0
 11
0.392426
 21
-0.321732
 31
0.0
  0
LINE
  5
448
  8
0
 10
-1.71118
 20
-0.332336
 30
0.0
 11
-0.724762
 21
0.654068
 31
0.0
  0
LINE
  5
449
  8
0
 10
-0.724762
 20
0.654068
 30
0.0
 11
-0.717697
 21
0.647003
 31
0.0
  0
LINE
  5
44A
  8
0
 10
-0.717697
 20
0.647003
 30
0.0
 11
-1.70412
 21
-0.339401
 31
0.0
  0
LINE
  5
44B
  8
0
 10
-1.70412
 20
-0.339401
 30
0.0
 11
-1.71118
 21
-0.332336
 31
0.0
  0
LINE
  5
44C
  8
0
 10
0.40657
 20
-0.335876
 30
0.0
 11
1.39299
 21
0.650528
 31
0.0
  0
LINE
  5
44D
  8
0
 10
1.39299
 20
0.650528
 30
0.0
 11
1.40005
 21
0.643463
 31
0.0
  0
LINE
  5
44E
  8
0
 10
1.40005
 20
0.643463
 30
0.0
 11
0.413635
 21
-0.342941
 31
0.0
  0
LINE
  5
44F
  8
0
 10
0.413635
 20
-0.342941
 30
0.0
 11
0.40657
 21
-0.335876
 31
0.0
  0
LINE
  5
450
  8
0
 10
-1.69704
 20
-0.346481
 30
0.0
 11
-0.710617
 21
0.639923
 31
0.0
  0
LINE
  5
451
  8
0
 10
-0.710617
 20
0.639923
 30
0.0
 11
-0.703552
 21
0.632858
 31
0.0
  0
LINE
  5
452
  8
0
 10
-0.703552
 20
0.632858
 30
0.0
 11
-1.68997
 21
-0.353546
 31
0.0
  0
LINE
  5
453
  8
0
 10
-1.68997
 20
-0.353546
 30
0.0
 11
-1.69704
 21
-0.346481
 31
0.0
  0
LINE
  5
454
  8
0
 10
0.420715
 20
-0.350021
 30
0.0
 11
1.40714
 21
0.636383
 31
0.0
  0
LINE
  5
455
  8
0
 10
1.40714
 20
0.636383
 30
0.0
 11
1.4142
 21
0.629318
 31
0.0
  0
LINE
  5
456
  8
0
 10
1.4142
 20
0.629318
 30
0.0
 11
0.42778
 21
-0.357086
 31
0.0
  0
LINE
  5
457
  8
0
 10
0.42778
 20
-0.357086
 30
0.0
 11
0.420715
 21
-0.350021
 31
0.0
  0
LINE
  5
458
  8
0
 10
-1.68289
 20
-0.360611
 30
0.0
 11
-0.696487
 21
0.625793
 31
0.0
  0
LINE
  5
459
  8
0
 10
-0.696487
 20
0.625793
 30
0.0
 11
-0.689407
 21
0.618713
 31
0.0
  0
LINE
  5
45A
  8
0
 10
-0.689407
 20
0.618713
 30
0.0
 11
-1.67583
 21
-0.367691
 31
0.0
  0
LINE
  5
45B
  8
0
 10
-1.67583
 20
-0.367691
 30
0.0
 11
-1.68289
 21
-0.360611
 31
0.0
  0
LINE
  5
45C
  8
0
 10
0.434845
 20
-0.364151
 30
0.0
 11
1.42126
 21
0.622253
 31
0.0
  0
LINE
  5
45D
  8
0
 10
1.42126
 20
0.622253
 30
0.0
 11
1.42834
 21
0.615173
 31
0.0
  0
LINE
  5
45E
  8
0
 10
1.42834
 20
0.615173
 30
0.0
 11
0.441925
 21
-0.371231
 31
0.0
  0
LINE
  5
45F
  8
0
 10
0.441925
 20
-0.371231
 30
0.0
 11
0.434845
 21
-0.364151
 31
0.0
  0
LINE
  5
460
  8
0
 10
-1.66875
 20
-0.374756
 30
0.0
 11
-0.682343
 21
0.611649
 31
0.0
  0
LINE
  5
461
  8
0
 10
-0.682343
 20
0.611649
 30
0.0
 11
-0.675278
 21
0.604584
 31
0.0
  0
LINE
  5
462
  8
0
 10
-0.675278
 20
0.604584
 30
0.0
 11
-1.66168
 21
-0.381821
 31
0.0
  0
LINE
  5
463
  8
0
 10
-1.66168
 20
-0.381821
 30
0.0
 11
-1.66875
 21
-0.374756
 31
0.0
  0
LINE
  5
464
  8
0
 10
0.44899
 20
-0.378296
 30
0.0
 11
1.43541
 21
0.608109
 31
0.0
  0
LINE
  5
465
  8
0
 10
1.43541
 20
0.608109
 30
0.0
 11
1.44247
 21
0.601044
 31
0.0
  0
LINE
  5
466
  8
0
 10
1.44247
 20
0.601044
 30
0.0
 11
0.456055
 21
-0.385361
 31
0.0
  0
LINE
  5
467
  8
0
 10
0.456055
 20
-0.385361
 30
0.0
 11
0.44899
 21
-0.378296
 31
0.0
  0
LINE
  5
468
  8
0
 10
-1.6546
 20
-0.388901
 30
0.0
 11
-0.668198
 21
0.597504
 31
0.0
  0
LINE
  5
469
  8
0
 10
-0.668198
 20
0.597504
 30
0.0
 11
-0.661133
 21
0.590439
 31
0.0
  0
LINE
  5
46A
  8
0
 10
-0.661133
 20
0.590439
 30
0.0
 11
-1.64754
 21
-0.395966
 31
0.0
  0
LINE
  5
46B
  8
0
 10
-1.64754
 20
-0.395966
 30
0.0
 11
-1.6546
 21
-0.388901
 31
0.0
  0
LINE
  5
46C
  8
0
 10
0.463135
 20
-0.392441
 30
0.0
 11
1.44955
 21
0.593964
 31
0.0
  0
LINE
  5
46D
  8
0
 10
1.44955
 20
0.593964
 30
0.0
 11
1.45662
 21
0.586899
 31
0.0
  0
LINE
  5
46E
  8
0
 10
1.45662
 20
0.586899
 30
0.0
 11
0.4702
 21
-0.399506
 31
0.0
  0
LINE
  5
46F
  8
0
 10
0.4702
 20
-0.399506
 30
0.0
 11
0.463135
 21
-0.392441
 31
0.0
  0
LINE
  5
470
  8
0
 10
-1.64047
 20
-0.40303
 30
0.0
 11
-0.654053
 21
0.583359
 31
0.0
  0
LINE
  5
471
  8
0
 10
-0.654053
 20
0.583359
 30
0.0
 11
-0.646973
 21
0.576279
 31
0.0
  0
LINE
  5
472
  8
0
 10
-0.646973
 20
0.576279
 30
0.0
 11
-1.63339
 21
-0.41011
 31
0.0
  0
LINE
  5
473
  8
0
 10
-1.63339
 20
-0.41011
 30
0.0
 11
-1.64047
 21
-0.40303
 31
0.0
  0
LINE
  5
474
  8
0
 10
0.47728
 20
-0.406586
 30
0.0
 11
1.4637
 21
0.579819
 31
0.0
  0
LINE
  5
475
  8
0
 10
1.4637
 20
0.579819
 30
0.0
 11
1.47076
 21
0.572754
 31
0.0
  0
LINE
  5
476
  8
0
 10
1.47076
 20
0.572754
 30
0.0
 11
0.484344
 21
-0.413651
 31
0.0
  0
LINE
  5
477
  8
0
 10
0.484344
 20
-0.413651
 30
0.0
 11
0.47728
 21
-0.406586
 31
0.0
  0
LINE
  5
478
  8
0
 10
-1.62633
 20
-0.417175
 30
0.0
 11
-0.639908
 21
0.569214
 31
0.0
  0
LINE
  5
479
  8
0
 10
-0.639908
 20
0.569214
 30
0.0
 11
-0.632828
 21
0.562134
 31
0.0
  0
LINE
  5
47A
  8
0
 10
-0.632828
 20
0.562134
 30
0.0
 11
-1.61925
 21
-0.424255
 31
0.0
  0
LINE
  5
47B
  8
0
 10
-1.61925
 20
-0.424255
 30
0.0
 11
-1.62633
 21
-0.417175
 31
0.0
  0
LINE
  5
47C
  8
0
 10
0.491409
 20
-0.420715
 30
0.0
 11
1.47783
 21
0.565674
 31
0.0
  0
LINE
  5
47D
  8
0
 10
1.47783
 20
0.565674
 30
0.0
 11
1.48491
 21
0.558609
 31
0.0
  0
LINE
  5
47E
  8
0
 10
1.48491
 20
0.558609
 30
0.0
 11
0.498489
 21
-0.427795
 31
0.0
  0
LINE
  5
47F
  8
0
 10
0.498489
 20
-0.427795
 30
0.0
 11
0.491409
 21
-0.420715
 31
0.0
  0
LINE
  5
480
  8
0
 10
-1.61218
 20
-0.431335
 30
0.0
 11
-0.625763
 21
0.555069
 31
0.0
  0
LINE
  5
481
  8
0
 10
-0.625763
 20
0.555069
 30
0.0
 11
-0.618698
 21
0.548004
 31
0.0
  0
LINE
  5
482
  8
0
 10
-0.618698
 20
0.548004
 30
0.0
 11
-1.60512
 21
-0.4384
 31
0.0
  0
LINE
  5
483
  8
0
 10
-1.60512
 20
-0.4384
 30
0.0
 11
-1.61218
 21
-0.431335
 31
0.0
  0
LINE
  5
484
  8
0
 10
0.505554
 20
-0.43486
 30
0.0
 11
1.49197
 21
0.551529
 31
0.0
  0
LINE
  5
485
  8
0
 10
1.49197
 20
0.551529
 30
0.0
 11
1.49904
 21
0.544464
 31
0.0
  0
LINE
  5
486
  8
0
 10
1.49904
 20
0.544464
 30
0.0
 11
0.512634
 21
-0.44194
 31
0.0
  0
LINE
  5
487
  8
0
 10
0.512634
 20
-0.44194
 30
0.0
 11
0.505554
 21
-0.43486
 31
0.0
  0
LINE
  5
488
  8
0
 10
-1.59804
 20
-0.44548
 30
0.0
 11
-0.611618
 21
0.540924
 31
0.0
  0
LINE
  5
489
  8
0
 10
-0.611618
 20
0.540924
 30
0.0
 11
-0.604553
 21
0.533859
 31
0.0
  0
LINE
  5
48A
  8
0
 10
-0.604553
 20
0.533859
 30
0.0
 11
-1.59097
 21
-0.452545
 31
0.0
  0
LINE
  5
48B
  8
0
 10
-1.59097
 20
-0.452545
 30
0.0
 11
-1.59804
 21
-0.44548
 31
0.0
  0
LINE
  5
48C
  8
0
 10
0.519699
 20
-0.449005
 30
0.0
 11
1.50612
 21
0.537384
 31
0.0
  0
LINE
  5
48D
  8
0
 10
1.50612
 20
0.537384
 30
0.0
 11
1.51318
 21
0.530319
 31
0.0
  0
LINE
  5
48E
  8
0
 10
1.51318
 20
0.530319
 30
0.0
 11
0.526779
 21
-0.456085
 31
0.0
  0
LINE
  5
48F
  8
0
 10
0.526779
 20
-0.456085
 30
0.0
 11
0.519699
 21
-0.449005
 31
0.0
  0
LINE
  5
490
  8
0
 10
-1.58391
 20
-0.45961
 30
0.0
 11
-0.597488
 21
0.526794
 31
0.0
  0
LINE
  5
491
  8
0
 10
-0.597488
 20
0.526794
 30
0.0
 11
-0.590408
 21
0.519714
 31
0.0
  0
LINE
  5
492
  8
0
 10
-0.590408
 20
0.519714
 30
0.0
 11
-1.57683
 21
-0.46669
 31
0.0
  0
LINE
  5
493
  8
0
 10
-1.57683
 20
-0.46669
 30
0.0
 11
-1.58391
 21
-0.45961
 31
0.0
  0
LINE
  5
494
  8
0
 10
0.533844
 20
-0.46315
 30
0.0
 11
1.52026
 21
0.523254
 31
0.0
  0
LINE
  5
495
  8
0
 10
1.52026
 20
0.523254
 30
0.0
 11
1.52733
 21
0.516174
 31
0.0
  0
LINE
  5
496
  8
0
 10
1.52733
 20
0.516174
 30
0.0
 11
0.540924
 21
-0.47023
 31
0.0
  0
LINE
  5
497
  8
0
 10
0.540924
 20
-0.47023
 30
0.0
 11
0.533844
 21
-0.46315
 31
0.0
  0
LINE
  5
498
  8
0
 10
-1.56976
 20
-0.473755
 30
0.0
 11
-0.583344
 21
0.51265
 31
0.0
  0
LINE
  5
499
  8
0
 10
-0.583344
 20
0.51265
 30
0.0
 11
-0.576279
 21
0.505585
 31
0.0
  0
LINE
  5
49A
  8
0
 10
-0.576279
 20
0.505585
 30
0.0
 11
-1.5627
 21
-0.48082
 31
0.0
  0
LINE
  5
49B
  8
0
 10
-1.5627
 20
-0.48082
 30
0.0
 11
-1.56976
 21
-0.473755
 31
0.0
  0
LINE
  5
49C
  8
0
 10
0.547989
 20
-0.477295
 30
0.0
 11
1.53441
 21
0.509109
 31
0.0
  0
LINE
  5
49D
  8
0
 10
1.53441
 20
0.509109
 30
0.0
 11
1.54147
 21
0.502045
 31
0.0
  0
LINE
  5
49E
  8
0
 10
1.54147
 20
0.502045
 30
0.0
 11
0.555054
 21
-0.48436
 31
0.0
  0
LINE
  5
49F
  8
0
 10
0.555054
 20
-0.48436
 30
0.0
 11
0.547989
 21
-0.477295
 31
0.0
  0
LINE
  5
4A0
  8
0
 10
-1.55562
 20
-0.4879
 30
0.0
 11
-0.569199
 21
0.498505
 31
0.0
  0
LINE
  5
4A1
  8
0
 10
-0.569199
 20
0.498505
 30
0.0
 11
-0.562134
 21
0.49144
 31
0.0
  0
LINE
  5
4A2
  8
0
 10
-0.562134
 20
0.49144
 30
0.0
 11
-1.54855
 21
-0.494965
 31
0.0
  0
LINE
  5
4A3
  8
0
 10
-1.54855
 20
-0.494965
 30
0.0
 11
-1.55562
 21
-0.4879
 31
0.0
  0
LINE
  5
4A4
  8
0
 10
0.562134
 20
-0.49144
 30
0.0
 11
1.54855
 21
0.494965
 31
0.0
  0
LINE
  5
4A5
  8
0
 10
1.54855
 20
0.494965
 30
0.0
 11
1.55562
 21
0.4879
 31
0.0
  0
LINE
  5
4A6
  8
0
 10
1.55562
 20
0.4879
 30
0.0
 11
0.569199
 21
-0.498505
 31
0.0
  0
LINE
  5
4A7
  8
0
 10
0.569199
 20
-0.498505
 30
0.0
 11
0.562134
 21
-0.49144
 31
0.0
  0
LINE
  5
4A8
  8
0
 10
-1.54147
 20
-0.502045
 30
0.0
 11
-0.555054
 21
0.48436
 31
0.0
  0
LINE
  5
4A9
  8
0
 10
-0.555054
 20
0.48436
 30
0.0
 11
-0.547989
 21
0.477295
 31
0.0
  0
LINE
  5
4AA
  8
0
 10
-0.547989
 20
0.477295
 30
0.0
 11
-1.53441
 21
-0.509109
 31
0.0
  0
LINE
  5
4AB
  8
0
 10
-1.53441
 20
-0.509109
 30
0.0
 11
-1.54147
 21
-0.502045
 31
0.0
  0
LINE
  5
4AC
  8
0
 10
0.576279
 20
-0.505585
 30
0.0
 11
1.5627
 21
0.48082
 31
0.0
  0
LINE
  5
4AD
  8
0
 10
1.5627
 20
0.48082
 30
0.0
 11
1.56976
 21
0.473755
 31
0.0
  0
LINE
  5
4AE
  8
0
 10
1.56976
 20
0.473755
 30
0.0
 11
0.583344
 21
-0.51265
 31
0.0
  0
LINE
  5
4AF
  8
0
 10
0.583344
 20
-0.51265
 30
0.0
 11
0.576279
 21
-0.505585
 31
0.0
  0
LINE
  5
4B0
  8
0
 10
-1.52733
 20
-0.516174
 30
0.0
 11
-0.540924
 21
0.47023
 31
0.0
  0
LINE
  5
4B1
  8
0
 10
-0.540924
 20
0.47023
 30
0.0
 11
-0.533844
 21
0.46315
 31
0.0
  0
LINE
  5
4B2
  8
0
 10
-0.533844
 20
0.46315
 30
0.0
 11
-1.52026
 21
-0.523254
 31
0.0
  0
LINE
  5
4B3
  8
0
 10
-1.52026
 20
-0.523254
 30
0.0
 11
-1.52733
 21
-0.516174
 31
0.0
  0
LINE
  5
4B4
  8
0
 10
0.590408
 20
-0.519714
 30
0.0
 11
1.57683
 21
0.46669
 31
0.0
  0
LINE
  5
4B5
  8
0
 10
1.57683
 20
0.46669
 30
0.0
 11
1.58391
 21
0.45961
 31
0.0
  0
LINE
  5
4B6
  8
0
 10
1.58391
 20
0.45961
 30
0.0
 11
0.597488
 21
-0.526794
 31
0.0
  0
LINE
  5
4B7
  8
0
 10
0.597488
 20
-0.526794
 30
0.0
 11
0.590408
 21
-0.519714
 31
0.0
  0
LINE
  5
4B8
  8
0
 10
-1.51318
 20
-0.530319
 30
0.0
 11
-0.526779
 21
0.456085
 31
0.0
  0
LINE
  5
4B9
  8
0
 10
-0.526779
 20
0.456085
 30
0.0
 11
-0.519699
 21
0.449005
 31
0.0
  0
LINE
  5
4BA
  8
0
 10
-0.519699
 20
0.449005
 30
0.0
 11
-1.50612
 21
-0.537384
 31
0.0
  0
LINE
  5
4BB
  8
0
 10
-1.50612
 20
-0.537384
 30
0.0
 11
-1.51318
 21
-0.530319
 31
0.0
  0
LINE
  5
4BC
  8
0
 10
0.604553
 20
-0.533859
 30
0.0
 11
1.59097
 21
0.452545
 31
0.0
  0
LINE
  5
4BD
  8
0
 10
1.59097
 20
0.452545
 30
0.0
 11
1.59804
 21
0.44548
 31
0.0
  0
LINE
  5
4BE
  8
0
 10
1.59804
 20
0.44548
 30
0.0
 11
0.611618
 21
-0.540924
 31
0.0
  0
LINE
  5
4BF
  8
0
 10
0.611618
 20
-0.540924
 30
0.0
 11
0.604553
 21
-0.533859
 31
0.0
  0
LINE
  5
4C0
  8
0
 10
-1.49904
 20
-0.544464
 30
0.0
 11
-0.512634
 21
0.44194
 31
0.0
  0
LINE
  5
4C1
  8
0
 10
-0.512634
 20
0.44194
 30
0.0
 11
-0.505554
 21
0.43486
 31
0.0
  0
LINE
  5
4C2
  8
0
 10
-0.505554
 20
0.43486
 30
0.0
 11
-1.49197
 21
-0.551529
 31
0.0
  0
LINE
  5
4C3
  8
0
 10
-1.49197
 20
-0.551529
 30
0.0
 11
-1.49904
 21
-0.544464
 31
0.0
  0
LINE
  5
4C4
  8
0
 10
0.618698
 20
-0.548004
 30
0.0
 11
1.60512
 21
0.4384
 31
0.0
  0
LINE
  5
4C5
  8
0
 10
1.60512
 20
0.4384
 30
0.0
 11
1.61218
 21
0.431335
 31
0.0
  0
LINE
  5
4C6
  8
0
 10
1.61218
 20
0.431335
 30
0.0
 11
0.625763
 21
-0.555069
 31
0.0
  0
LINE
  5
4C7
  8
0
 10
0.625763
 20
-0.555069
 30
0.0
 11
0.618698
 21
-0.548004
 31
0.0
  0
LINE
  5
4C8
  8
0
 10
-1.48491
 20
-0.558609
 30
0.0
 11
-0.498489
 21
0.427795
 31
0.0
  0
LINE
  5
4C9
  8
0
 10
-0.498489
 20
0.427795
 30
0.0
 11
-0.491409
 21
0.420715
 31
0.0
  0
LINE
  5
4CA
  8
0
 10
-0.491409
 20
0.420715
 30
0.0
 11
-1.47783
 21
-0.565674
 31
0.0
  0
LINE
  5
4CB
  8
0
 10
-1.47783
 20
-0.565674
 30
0.0
 11
-1.48491
 21
-0.558609
 31
0.0
  0
LINE
  5
4CC
  8
0
 10
0.632828
 20
-0.562134
 30
0.0
 11
1.61925
 21
0.424255
 31
0.0
  0
LINE
  5
4CD
  8
0
 10
1.61925
 20
0.424255
 30
0.0
 11
1.62633
 21
0.417175
 31
0.0
  0
LINE
  5
4CE
  8
0
 10
1.62633
 20
0.417175
 30
0.0
 11
0.639908
 21
-0.569214
 31
0.0
  0
LINE
  5
4CF
  8
0
 10
0.639908
 20
-0.569214
 30
0.0
 11
0.632828
 21
-0.562134
 31
0.0
  0
LINE
  5
4D0
  8
0
 10
-1.47076
 20
-0.572754
 30
0.0
 11
-0.484344
 21
0.413651
 31
0.0
  0
LINE
  5
4D1
  8
0
 10
-0.484344
 20
0.413651
 30
0.0
 11
-0.47728
 21
0.406586
 31
0.0
  0
LINE
  5
4D2
  8
0
 10
-0.47728
 20
0.406586
 30
0.0
 11
-1.4637
 21
-0.579819
 31
0.0
  0
LINE
  5
4D3
  8
0
 10
-1.4637
 20
-0.579819
 30
0.0
 11
-1.47076
 21
-0.572754
 31
0.0
  0
LINE
  5
4D4
  8
0
 10
0.646973
 20
-0.576279
 30
0.0
 11
1.63339
 21
0.41011
 31
0.0
  0
LINE
  5
4D5
  8
0
 10
1.63339
 20
0.41011
 30
0.0
 11
1.64047
 21
0.40303
 31
0.0
  0
LINE
  5
4D6
  8
0
 10
1.64047
 20
0.40303
 30
0.0
 11
0.654053
 21
-0.583359
 31
0.0
  0
LINE
  5
4D7
  8
0
 10
0.654053
 20
-0.583359
 30
0.0
 11
0.646973
 21
-0.576279
 31
0.0
  0
LINE
  5
4D8
  8
0
 10
-1.45662
 20
-0.586899
 30
0.0
 11
-0.4702
 21
0.399506
 31
0.0
  0
LINE
  5
4D9
  8
0
 10
-0.4702
 20
0.399506
 30
0.0
 11
-0.463135
 21
0.392441
 31
0.0
  0
LINE
  5
4DA
  8
0
 10
-0.463135
 20
0.392441
 30
0.0
 11
-1.44955
 21
-0.593964
 31
0.0
  0
LINE
  5
4DB
  8
0
 10
-1.44955
 20
-0.593964
 30
0.0
 11
-1.45662
 21
-0.586899
 31
0.0
  0
LINE
  5
4DC
  8
0
 10
0.661133
 20
-0.590439
 30
0.0
 11
1.64754
 21
0.395966
 31
0.0
  0
LINE
  5
4DD
  8
0
 10
1.64754
 20
0.395966
 30
0.0
 11
1.6546
 21
0.388901
 31
0.0
  0
LINE
  5
4DE
  8
0
 10
1.6546
 20
0.388901
 30
0.0
 11
0.668198
 21
-0.597504
 31
0.0
  0
LINE
  5
4DF
  8
0
 10
0.668198
 20
-0.597504
 30
0.0
 11
0.661133
 21
-0.590439
 31
0.0
  0
LINE
  5
4E0
  8
0
 10
-1.44247
 20
-0.601044
 30
0.0
 11
-0.456055
 21
0.385361
 31
0.0
  0
LINE
  5
4E1
  8
0
 10
-0.456055
 20
0.385361
 30
0.0
 11
-0.44899
 21
0.378296
 31
0.0
  0
LINE
  5
4E2
  8
0
 10
-0.44899
 20
0.378296
 30
0.0
 11
-1.43541
 21
-0.608109
 31
0.0
  0
LINE
  5
4E3
  8
0
 10
-1.43541
 20
-0.608109
 30
0.0
 11
-1.44247
 21
-0.601044
 31
0.0
  0
LINE
  5
4E4
  8
0
 10
0.675278
 20
-0.604584
 30
0.0
 11
1.66168
 21
0.381821
 31
0.0
  0
LINE
  5
4E5
  8
0
 10
1.66168
 20
0.381821
 30
0.0
 11
1.66875
 21
0.374756
 31
0.0
  0
LINE
  5
4E6
  8
0
 10
1.66875
 20
0.374756
 30
0.0
 11
0.682343
 21
-0.611649
 31
0.0
  0
LINE
  5
4E7
  8
0
 10
0.682343
 20
-0.611649
 30
0.0
 11
0.675278
 21
-0.604584
 31
0.0
  0
LINE
  5
4E8
  8
0
 10
-1.42834
 20
-0.615173
 30
0.0
 11
-0.441925
 21
0.371231
 31
0.0
  0
LINE
  5
4E9
  8
0
 10
-0.441925
 20
0.371231
 30
0.0
 11
-0.434845
 21
0.364151
 31
0.0
  0
LINE
  5
4EA
  8
0
 10
-0.434845
 20
0.364151
 30
0.0
 11
-1.42126
 21
-0.622253
 31
0.0
  0
LINE
  5
4EB
  8
0
 10
-1.42126
 20
-0.622253
 30
0.0
 11
-1.42834
 21
-0.615173
 31
0.0
  0
LINE
  5
4EC
  8
0
 10
0.689407
 20
-0.618713
 30
0.0
 11
1.67583
 21
0.367691
 31
0.0
  0
LINE
  5
4ED
  8
0
 10
1.67583
 20
0.367691
 30
0.0
 11
1.68289
 21
0.360611
 31
0.0
  0
LINE
  5
4EE
  8
0
 10
1.68289
 20
0.360611
 30
0.0
 11
0.696487
 21
-0.625793
 31
0.0
  0
LINE
  5
4EF
  8
0
 10
0.696487
 20
-0.625793
 30
0.0
 11
0.689407
 21
-0.618713
 31
0.0
  0
LINE
  5
4F0
  8
0
 10
-1.4142
 20
-0.629318
 30
0.0
 11
-0.42778
 21
0.357086
 31
0.0
  0
LINE
  5
4F1
  8
0
 10
-0.42778
 20
0.357086
 30
0.0
 11
-0.420715
 21
0.350021
 31
0.0
  0
LINE
  5
4F2
  8
0
 10
-0.420715
 20
0.350021
 30
0.0
 11
-1.40714
 21
-0.636383
 31
0.0
  0
LINE
  5
4F3
  8
0
 10
-1.40714
 20
-0.636383
 30
0.0
 11
-1.4142
 21
-0.629318
 31
0.0
  0
LINE
  5
4F4
  8
0
 10
0.703552
 20
-0.632858
 30
0.0
 11
1.68997
 21
0.353546
 31
0.0
  0
LINE
  5
4F5
  8
0
 10
1.68997
 20
0.353546
 30
0.0
 11
1.69704
 21
0.346481
 31
0.0
  0
LINE
  5
4F6
  8
0
 10
1.69704
 20
0.346481
 30
0.0
 11
0.710617
 21
-0.639923
 31
0.0
  0
LINE
  5
4F7
  8
0
 10
0.710617
 20
-0.639923
 30
0.0
 11
0.703552
 21
-0.632858
 31
0.0
  0
LINE
  5
4F8
  8
0
 10
-1.40005
 20
-0.643463
 30
0.0
 11
-0.413635
 21
0.342941
 31
0.0
  0
LINE
  5
4F9
  8
0
 10
-0.413635
 20
0.342941
 30
0.0
 11
-0.40657
 21
0.335876
 31
0.0
  0
LINE
  5
4FA
  8
0
 10
-0.40657
 20
0.335876
 30
0.0
 11
-1.39299
 21
-0.650528
 31
0.0
  0
LINE
  5
4FB
  8
0
 10
-1.39299
 20
-0.650528
 30
0.0
 11
-1.40005
 21
-0.643463
 31
0.0
  0
LINE
  5
4FC
  8
0
 10
0.717697
 20
-0.647003
 30
0.0
 11
1.70412
 21
0.339401
 31
0.0
  0
LINE
  5
4FD
  8
0
 10
1.70412
 20
0.339401
 30
0.0
 11
1.71118
 21
0.332336
 31
0.0
  0
LINE
  5
4FE
  8
0
 10
1.71118
 20
0.332336
 30
0.0
 11
0.724762
 21
-0.654068
 31
0.0
  0
LINE
  5
4FF
  8
0
 10
0.724762
 20
-0.654068
 30
0.0
 11
0.717697
 21
-0.647003
 31
0.0
  0
LINE
  5
500
  8
0
 10
-1.38591
 20
-0.657593
 30
0.0
 11
-0.399506
 21
0.328812
 31
0.0
  0
LINE
  5
501
  8
0
 10
-0.399506
 20
0.328812
 30
0.0
 11
-0.392426
 21
0.321732
 31
0.0
  0
LINE
  5
502
  8
0
 10
-0.392426
 20
0.321732
 30
0.0
 11
-1.37885
 21
-0.664673
 31
0.0
  0
LINE
  5
503
  8
0
 10
-1.37885
 20
-0.664673
 30
0.0
 11
-1.38591
 21
-0.657593
 31
0.0
  0
LINE
  5
504
  8
0
 10
0.731827
 20
-0.661133
 30
0.0
 11
1.71825
 21
0.325272
 31
0.0
  0
LINE
  5
505
  8
0
 10
1.71825
 20
0.325272
 30
0.0
 11
1.72533
 21
0.318192
 31
0.0
  0
LINE
  5
506
  8
0
 10
1.72533
 20
0.318192
 30
0.0
 11
0.738907
 21
-0.668213
 31
0.0
  0
LINE
  5
507
  8
0
 10
0.738907
 20
-0.668213
 30
0.0
 11
0.731827
 21
-0.661133
 31
0.0
  0
LINE
  5
508
  8
0
 10
-1.37177
 20
-0.671738
 30
0.0
 11
-0.385361
 21
0.314667
 31
0.0
  0
LINE
  5
509
  8
0
 10
-0.385361
 20
0.314667
 30
0.0
 11
-0.378281
 21
0.307587
 31
0.0
  0
LINE
  5
50A
  8
0
 10
-0.378281
 20
0.307587
 30
0.0
 11
-1.36469
 21
-0.678818
 31
0.0
  0
LINE
  5
50B
  8
0
 10
-1.36469
 20
-0.678818
 30
0.0
 11
-1.37177
 21
-0.671738
 31
0.0
  0
LINE
  5
50C
  8
0
 10
0.745972
 20
-0.675278
 30
0.0
 11
1.73239
 21
0.311127
 31
0.0
  0
LINE
  5
50D
  8
0
 10
1.73239
 20
0.311127
 30
0.0
 11
1.73947
 21
0.304047
 31
0.0
  0
LINE
  5
50E
  8
0
 10
1.73947
 20
0.304047
 30
0.0
 11
0.753052
 21
-0.682358
 31
0.0
  0
LINE
  5
50F
  8
0
 10
0.753052
 20
-0.682358
 30
0.0
 11
0.745972
 21
-0.675278
 31
0.0
  0
LINE
  5
510
  8
0
 10
-1.35762
 20
-0.685883
 30
0.0
 11
-0.371216
 21
0.300522
 31
0.0
  0
LINE
  5
511
  8
0
 10
-0.371216
 20
0.300522
 30
0.0
 11
-0.364136
 21
0.293442
 31
0.0
  0
LINE
  5
512
  8
0
 10
-0.364136
 20
0.293442
 30
0.0
 11
-1.35056
 21
-0.692947
 31
0.0
  0
LINE
  5
513
  8
0
 10
-1.35056
 20
-0.692947
 30
0.0
 11
-1.35762
 21
-0.685883
 31
0.0
  0
LINE
  5
514
  8
0
 10
0.760117
 20
-0.689423
 30
0.0
 11
1.74654
 21
0.296982
 31
0.0
  0
LINE
  5
515
  8
0
 10
1.74654
 20
0.296982
 30
0.0
 11
1.7536
 21
0.289902
 31
0.0
  0
LINE
  5
516
  8
0
 10
1.7536
 20
0.289902
 30
0.0
 11
0.767181
 21
-0.696487
 31
0.0
  0
LINE
  5
517
  8
0
 10
0.767181
 20
-0.696487
 30
0.0
 11
0.760117
 21
-0.689423
 31
0.0
  0
LINE
  5
518
  8
0
 10
-1.34348
 20
-0.700027
 30
0.0
 11
-0.357071
 21
0.286377
 31
0.0
  0
LINE
  5
519
  8
0
 10
-0.357071
 20
0.286377
 30
0.0
 11
-0.349991
 21
0.279297
 31
0.0
  0
LINE
  5
51A
  8
0
 10
-0.349991
 20
0.279297
 30
0.0
 11
-1.33641
 21
-0.707092
 31
0.0
  0
LINE
  5
51B
  8
0
 10
-1.33641
 20
-0.707092
 30
0.0
 11
-1.34348
 21
-0.700027
 31
0.0
  0
LINE
  5
51C
  8
0
 10
0.774261
 20
-0.703568
 30
0.0
 11
1.76068
 21
0.282837
 31
0.0
  0
LINE
  5
51D
  8
0
 10
1.76068
 20
0.282837
 30
0.0
 11
1.76775
 21
0.275757
 31
0.0
  0
LINE
  5
51E
  8
0
 10
1.76775
 20
0.275757
 30
0.0
 11
0.781326
 21
-0.710632
 31
0.0
  0
LINE
  5
51F
  8
0
 10
0.781326
 20
-0.710632
 30
0.0
 11
0.774261
 21
-0.703568
 31
0.0
  0
LINE
  5
520
  8
0
 10
-1.32935
 20
-0.714172
 30
0.0
 11
-0.342926
 21
0.272232
 31
0.0
  0
LINE
  5
521
  8
0
 10
-0.342926
 20
0.272232
 30
0.0
 11
-0.335846
 21
0.265152
 31
0.0
  0
LINE
  5
522
  8
0
 10
-0.335846
 20
0.265152
 30
0.0
 11
-1.32227
 21
-0.721237
 31
0.0
  0
LINE
  5
523
  8
0
 10
-1.32227
 20
-0.721237
 30
0.0
 11
-1.32935
 21
-0.714172
 31
0.0
  0
LINE
  5
524
  8
0
 10
0.788406
 20
-0.717712
 30
0.0
 11
1.77481
 21
0.268692
 31
0.0
  0
LINE
  5
525
  8
0
 10
1.77481
 20
0.268692
 30
0.0
 11
1.78189
 21
0.261612
 31
0.0
  0
LINE
  5
526
  8
0
 10
1.78189
 20
0.261612
 30
0.0
 11
0.795471
 21
-0.724777
 31
0.0
  0
LINE
  5
527
  8
0
 10
0.795471
 20
-0.724777
 30
0.0
 11
0.788406
 21
-0.717712
 31
0.0
  0
LINE
  5
528
  8
0
 10
-1.3152
 20
-0.728317
 30
0.0
 11
-0.328781
 21
0.258087
 31
0.0
  0
LINE
  5
529
  8
0
 10
-0.328781
 20
0.258087
 30
0.0
 11
-0.321716
 21
0.251022
 31
0.0
  0
LINE
  5
52A
  8
0
 10
-0.321716
 20
0.251022
 30
0.0
 11
-1.30814
 21
-0.735382
 31
0.0
  0
LINE
  5
52B
  8
0
 10
-1.30814
 20
-0.735382
 30
0.0
 11
-1.3152
 21
-0.728317
 31
0.0
  0
LINE
  5
52C
  8
0
 10
0.802551
 20
-0.731857
 30
0.0
 11
1.78896
 21
0.254547
 31
0.0
  0
LINE
  5
52D
  8
0
 10
1.78896
 20
0.254547
 30
0.0
 11
1.79602
 21
0.247482
 31
0.0
  0
LINE
  5
52E
  8
0
 10
1.79602
 20
0.247482
 30
0.0
 11
0.809616
 21
-0.738922
 31
0.0
  0
LINE
  5
52F
  8
0
 10
0.809616
 20
-0.738922
 30
0.0
 11
0.802551
 21
-0.731857
 31
0.0
  0
LINE
  5
530
  8
0
 10
-1.30106
 20
-0.742462
 30
0.0
 11
-0.314636
 21
0.243942
 31
0.0
  0
LINE
  5
531
  8
0
 10
-0.314636
 20
0.243942
 30
0.0
 11
-0.307571
 21
0.236877
 31
0.0
  0
LINE
  5
532
  8
0
 10
-0.307571
 20
0.236877
 30
0.0
 11
-1.29399
 21
-0.749527
 31
0.0
  0
LINE
  5
533
  8
0
 10
-1.29399
 20
-0.749527
 30
0.0
 11
-1.30106
 21
-0.742462
 31
0.0
  0
LINE
  5
534
  8
0
 10
0.816696
 20
-0.746002
 30
0.0
 11
1.8031
 21
0.240402
 31
0.0
  0
LINE
  5
535
  8
0
 10
1.8031
 20
0.240402
 30
0.0
 11
1.81018
 21
0.233337
 31
0.0
  0
LINE
  5
536
  8
0
 10
1.81018
 20
0.233337
 30
0.0
 11
0.823761
 21
-0.753067
 31
0.0
  0
LINE
  5
537
  8
0
 10
0.823761
 20
-0.753067
 30
0.0
 11
0.816696
 21
-0.746002
 31
0.0
  0
LINE
  5
538
  8
0
 10
-1.28693
 20
-0.756592
 30
0.0
 11
-0.300507
 21
0.229813
 31
0.0
  0
LINE
  5
539
  8
0
 10
-0.300507
 20
0.229813
 30
0.0
 11
-0.293427
 21
0.222733
 31
0.0
  0
LINE
  5
53A
  8
0
 10
-0.293427
 20
0.222733
 30
0.0
 11
-1.27985
 21
-0.763672
 31
0.0
  0
LINE
  5
53B
  8
0
 10
-1.27985
 20
-0.763672
 30
0.0
 11
-1.28693
 21
-0.756592
 31
0.0
  0
LINE
  5
53C
  8
0
 10
0.830841
 20
-0.760147
 30
0.0
 11
1.81725
 21
0.226257
 31
0.0
  0
LINE
  5
53D
  8
0
 10
1.81725
 20
0.226257
 30
0.0
 11
1.82433
 21
0.219193
 31
0.0
  0
LINE
  5
53E
  8
0
 10
1.82433
 20
0.219193
 30
0.0
 11
0.837906
 21
-0.767212
 31
0.0
  0
LINE
  5
53F
  8
0
 10
0.837906
 20
-0.767212
 30
0.0
 11
0.830841
 21
-0.760147
 31
0.0
  0
LINE
  5
540
  8
0
 10
-1.27278
 20
-0.770737
 30
0.0
 11
-0.286362
 21
0.215668
 31
0.0
  0
LINE
  5
541
  8
0
 10
-0.286362
 20
0.215668
 30
0.0
 11
-0.279282
 21
0.208588
 31
0.0
  0
LINE
  5
542
  8
0
 10
-0.279282
 20
0.208588
 30
0.0
 11
-1.2657
 21
-0.777817
 31
0.0
  0
LINE
  5
543
  8
0
 10
-1.2657
 20
-0.777817
 30
0.0
 11
-1.27278
 21
-0.770737
 31
0.0
  0
LINE
  5
544
  8
0
 10
0.844971
 20
-0.774277
 30
0.0
 11
1.83139
 21
0.212128
 31
0.0
  0
LINE
  5
545
  8
0
 10
1.83139
 20
0.212128
 30
0.0
 11
1.83847
 21
0.205048
 31
0.0
  0
LINE
  5
546
  8
0
 10
1.83847
 20
0.205048
 30
0.0
 11
0.852051
 21
-0.781357
 31
0.0
  0
LINE
  5
547
  8
0
 10
0.852051
 20
-0.781357
 30
0.0
 11
0.844971
 21
-0.774277
 31
0.0
  0
LINE
  5
548
  8
0
 10
-1.25864
 20
-0.784882
 30
0.0
 11
-0.272217
 21
0.201523
 31
0.0
  0
LINE
  5
549
  8
0
 10
-0.272217
 20
0.201523
 30
0.0
 11
-0.265152
 21
0.194458
 31
0.0
  0
LINE
  5
54A
  8
0
 10
-0.265152
 20
0.194458
 30
0.0
 11
-1.25156
 21
-0.791946
 31
0.0
  0
LINE
  5
54B
  8
0
 10
-1.25156
 20
-0.791946
 30
0.0
 11
-1.25864
 21
-0.784882
 31
0.0
  0
LINE
  5
54C
  8
0
 10
0.859116
 20
-0.788422
 30
0.0
 11
1.84554
 21
0.197983
 31
0.0
  0
LINE
  5
54D
  8
0
 10
1.84554
 20
0.197983
 30
0.0
 11
1.8526
 21
0.190918
 31
0.0
  0
LINE
  5
54E
  8
0
 10
1.8526
 20
0.190918
 30
0.0
 11
0.86618
 21
-0.795486
 31
0.0
  0
LINE
  5
54F
  8
0
 10
0.86618
 20
-0.795486
 30
0.0
 11
0.859116
 21
-0.788422
 31
0.0
  0
LINE
  5
550
  8
0
 10
-1.24449
 20
-0.799026
 30
0.0
 11
-0.258072
 21
0.187378
 31
0.0
  0
LINE
  5
551
  8
0
 10
-0.258072
 20
0.187378
 30
0.0
 11
-0.251007
 21
0.180313
 31
0.0
  0
LINE
  5
552
  8
0
 10
-0.251007
 20
0.180313
 30
0.0
 11
-1.23741
 21
-0.806091
 31
0.0
  0
LINE
  5
553
  8
0
 10
-1.23741
 20
-0.806091
 30
0.0
 11
-1.24449
 21
-0.799026
 31
0.0
  0
LINE
  5
554
  8
0
 10
0.87326
 20
-0.802567
 30
0.0
 11
1.85968
 21
0.183838
 31
0.0
  0
LINE
  5
555
  8
0
 10
1.85968
 20
0.183838
 30
0.0
 11
1.86674
 21
0.176773
 31
0.0
  0
LINE
  5
556
  8
0
 10
1.86674
 20
0.176773
 30
0.0
 11
0.880325
 21
-0.809631
 31
0.0
  0
LINE
  5
557
  8
0
 10
0.880325
 20
-0.809631
 30
0.0
 11
0.87326
 21
-0.802567
 31
0.0
  0
LINE
  5
558
  8
0
 10
-1.23035
 20
-0.813156
 30
0.0
 11
-0.243942
 21
0.173248
 31
0.0
  0
LINE
  5
559
  8
0
 10
-0.243942
 20
0.173248
 30
0.0
 11
-0.236862
 21
0.166168
 31
0.0
  0
LINE
  5
55A
  8
0
 10
-0.236862
 20
0.166168
 30
0.0
 11
-1.22327
 21
-0.820236
 31
0.0
  0
LINE
  5
55B
  8
0
 10
-1.22327
 20
-0.820236
 30
0.0
 11
-1.23035
 21
-0.813156
 31
0.0
  0
LINE
  5
55C
  8
0
 10
0.88739
 20
-0.816696
 30
0.0
 11
1.87381
 21
0.169708
 31
0.0
  0
LINE
  5
55D
  8
0
 10
1.87381
 20
0.169708
 30
0.0
 11
1.88089
 21
0.162628
 31
0.0
  0
LINE
  5
55E
  8
0
 10
1.88089
 20
0.162628
 30
0.0
 11
0.89447
 21
-0.823776
 31
0.0
  0
LINE
  5
55F
  8
0
 10
0.89447
 20
-0.823776
 30
0.0
 11
0.88739
 21
-0.816696
 31
0.0
  0
LINE
  5
560
  8
0
 10
-1.2162
 20
-0.827301
 30
0.0
 11
-0.229782
 21
0.159088
 31
0.0
  0
LINE
  5
561
  8
0
 10
-0.229782
 20
0.159088
 30
0.0
 11
-0.222717
 21
0.152023
 31
0.0
  0
LINE
  5
562
  8
0
 10
-0.222717
 20
0.152023
 30
0.0
 11
-1.20914
 21
-0.834366
 31
0.0
  0
LINE
  5
563
  8
0
 10
-1.20914
 20
-0.834366
 30
0.0
 11
-1.2162
 21
-0.827301
 31
0.0
  0
LINE
  5
564
  8
0
 10
0.901535
 20
-0.830841
 30
0.0
 11
1.88795
 21
0.155563
 31
0.0
  0
LINE
  5
565
  8
0
 10
1.88795
 20
0.155563
 30
0.0
 11
1.89502
 21
0.148483
 31
0.0
  0
LINE
  5
566
  8
0
 10
1.89502
 20
0.148483
 30
0.0
 11
0.9086
 21
-0.837906
 31
0.0
  0
LINE
  5
567
  8
0
 10
0.9086
 20
-0.837906
 30
0.0
 11
0.901535
 21
-0.830841
 31
0.0
  0
LINE
  5
568
  8
0
 10
-1.20206
 20
-0.841446
 30
0.0
 11
-0.215637
 21
0.144943
 31
0.0
  0
LINE
  5
569
  8
0
 10
-0.215637
 20
0.144943
 30
0.0
 11
-0.208572
 21
0.137878
 31
0.0
  0
LINE
  5
56A
  8
0
 10
-0.208572
 20
0.137878
 30
0.0
 11
-1.19499
 21
-0.848511
 31
0.0
  0
LINE
  5
56B
  8
0
 10
-1.19499
 20
-0.848511
 30
0.0
 11
-1.20206
 21
-0.841446
 31
0.0
  0
LINE
  5
56C
  8
0
 10
0.91568
 20
-0.844986
 30
0.0
 11
1.9021
 21
0.141418
 31
0.0
  0
LINE
  5
56D
  8
0
 10
1.9021
 20
0.141418
 30
0.0
 11
1.90916
 21
0.134338
 31
0.0
  0
LINE
  5
56E
  8
0
 10
1.90916
 20
0.134338
 30
0.0
 11
0.922745
 21
-0.852051
 31
0.0
  0
LINE
  5
56F
  8
0
 10
0.922745
 20
-0.852051
 30
0.0
 11
0.91568
 21
-0.844986
 31
0.0
  0
LINE
  5
570
  8
0
 10
-1.18791
 20
-0.855591
 30
0.0
 11
-0.201492
 21
0.130798
 31
0.0
  0
LINE
  5
571
  8
0
 10
-0.201492
 20
0.130798
 30
0.0
 11
-0.194427
 21
0.123734
 31
0.0
  0
LINE
  5
572
  8
0
 10
-0.194427
 20
0.123734
 30
0.0
 11
-1.18085
 21
-0.862671
 31
0.0
  0
LINE
  5
573
  8
0
 10
-1.18085
 20
-0.862671
 30
0.0
 11
-1.18791
 21
-0.855591
 31
0.0
  0
LINE
  5
574
  8
0
 10
0.929825
 20
-0.859131
 30
0.0
 11
1.91624
 21
0.127274
 31
0.0
  0
LINE
  5
575
  8
0
 10
1.91624
 20
0.127274
 30
0.0
 11
1.92331
 21
0.120193
 31
0.0
  0
LINE
  5
576
  8
0
 10
1.92331
 20
0.120193
 30
0.0
 11
0.93689
 21
-0.866196
 31
0.0
  0
LINE
  5
577
  8
0
 10
0.93689
 20
-0.866196
 30
0.0
 11
0.929825
 21
-0.859131
 31
0.0
  0
LINE
  5
578
  8
0
 10
-1.17378
 20
-0.869736
 30
0.0
 11
-0.187363
 21
0.116669
 31
0.0
  0
LINE
  5
579
  8
0
 10
-0.187363
 20
0.116669
 30
0.0
 11
-0.180283
 21
0.109589
 31
0.0
  0
LINE
  5
57A
  8
0
 10
-0.180283
 20
0.109589
 30
0.0
 11
-1.1667
 21
-0.876816
 31
0.0
  0
LINE
  5
57B
  8
0
 10
-1.1667
 20
-0.876816
 30
0.0
 11
-1.17378
 21
-0.869736
 31
0.0
  0
LINE
  5
57C
  8
0
 10
0.94397
 20
-0.873276
 30
0.0
 11
1.93037
 21
0.113129
 31
0.0
  0
LINE
  5
57D
  8
0
 10
1.93037
 20
0.113129
 30
0.0
 11
1.93745
 21
0.106049
 31
0.0
  0
LINE
  5
57E
  8
0
 10
1.93745
 20
0.106049
 30
0.0
 11
0.951035
 21
-0.880341
 31
0.0
  0
LINE
  5
57F
  8
0
 10
0.951035
 20
-0.880341
 30
0.0
 11
0.94397
 21
-0.873276
 31
0.0
  0
LINE
  5
580
  8
0
 10
-1.15964
 20
-0.883881
 30
0.0
 11
-0.173218
 21
0.102524
 31
0.0
  0
LINE
  5
581
  8
0
 10
-0.173218
 20
0.102524
 30
0.0
 11
-0.166153
 21
0.095459
 31
0.0
  0
LINE
  5
582
  8
0
 10
-0.166153
 20
0.095459
 30
0.0
 11
-1.15257
 21
-0.890945
 31
0.0
  0
LINE
  5
583
  8
0
 10
-1.15257
 20
-0.890945
 30
0.0
 11
-1.15964
 21
-0.883881
 31
0.0
  0
LINE
  5
584
  8
0
 10
0.958115
 20
-0.887421
 30
0.0
 11
1.94452
 21
0.0989838
 31
0.0
  0
LINE
  5
585
  8
0
 10
1.94452
 20
0.0989838
 30
0.0
 11
1.9516
 21
0.0919189
 31
0.0
  0
LINE
  5
586
  8
0
 10
1.9516
 20
0.0919189
 30
0.0
 11
0.965179
 21
-0.894485
 31
0.0
  0
LINE
  5
587
  8
0
 10
0.965179
 20
-0.894485
 30
0.0
 11
0.958115
 21
-0.887421
 31
0.0
  0
LINE
  5
588
  8
0
 10
-1.14549
 20
-0.898026
 30
0.0
 11
-0.159073
 21
0.0883789
 31
0.0
  0
LINE
  5
589
  8
0
 10
-0.159073
 20
0.0883789
 30
0.0
 11
-0.152008
 21
0.0813141
 31
0.0
  0
LINE
  5
58A
  8
0
 10
-0.152008
 20
0.0813141
 30
0.0
 11
-1.13843
 21
-0.90509
 31
0.0
  0
LINE
  5
58B
  8
0
 10
-1.13843
 20
-0.90509
 30
0.0
 11
-1.14549
 21
-0.898026
 31
0.0
  0
LINE
  5
58C
  8
0
 10
0.97226
 20
-0.901566
 30
0.0
 11
1.95866
 21
0.0848389
 31
0.0
  0
LINE
  5
58D
  8
0
 10
1.95866
 20
0.0848389
 30
0.0
 11
1.96574
 21
0.077774
 31
0.0
  0
LINE
  5
58E
  8
0
 10
1.96574
 20
0.077774
 30
0.0
 11
0.979324
 21
-0.90863
 31
0.0
  0
LINE
  5
58F
  8
0
 10
0.979324
 20
-0.90863
 30
0.0
 11
0.97226
 21
-0.901566
 31
0.0
  0
LINE
  5
590
  8
0
 10
-1.13136
 20
-0.912155
 30
0.0
 11
-0.144943
 21
0.0742493
 31
0.0
  0
LINE
  5
591
  8
0
 10
-0.144943
 20
0.0742493
 30
0.0
 11
-0.137863
 21
0.0671692
 31
0.0
  0
LINE
  5
592
  8
0
 10
-0.137863
 20
0.0671692
 30
0.0
 11
-1.12428
 21
-0.919235
 31
0.0
  0
LINE
  5
593
  8
0
 10
-1.12428
 20
-0.919235
 30
0.0
 11
-1.13136
 21
-0.912155
 31
0.0
  0
LINE
  5
594
  8
0
 10
0.986389
 20
-0.915695
 30
0.0
 11
1.97281
 21
0.0707092
 31
0.0
  0
LINE
  5
595
  8
0
 10
1.97281
 20
0.0707092
 30
0.0
 11
1.97989
 21
0.0636292
 31
0.0
  0
LINE
  5
596
  8
0
 10
1.97989
 20
0.0636292
 30
0.0
 11
0.993469
 21
-0.922775
 31
0.0
  0
LINE
  5
597
  8
0
 10
0.993469
 20
-0.922775
 30
0.0
 11
0.986389
 21
-0.915695
 31
0.0
  0
LINE
  5
598
  8
0
 10
-1.11722
 20
-0.9263
 30
0.0
 11
-0.130798
 21
0.0601044
 31
0.0
  0
LINE
  5
599
  8
0
 10
-0.130798
 20
0.0601044
 30
0.0
 11
-0.123734
 21
0.0530396
 31
0.0
  0
LINE
  5
59A
  8
0
 10
-0.123734
 20
0.0530396
 30
0.0
 11
-1.11014
 21
-0.933365
 31
0.0
  0
LINE
  5
59B
  8
0
 10
-1.11014
 20
-0.933365
 30
0.0
 11
-1.11722
 21
-0.9263
 31
0.0
  0
LINE
  5
59C
  8
0
 10
1.00053
 20
-0.92984
 30
0.0
 11
1.98695
 21
0.0565643
 31
0.0
  0
LINE
  5
59D
  8
0
 10
1.98695
 20
0.0565643
 30
0.0
 11
1.99403
 21
0.0494843
 31
0.0
  0
LINE
  5
59E
  8
0
 10
1.99403
 20
0.0494843
 30
0.0
 11
1.00761
 21
-0.93692
 31
0.0
  0
LINE
  5
59F
  8
0
 10
1.00761
 20
-0.93692
 30
0.0
 11
1.00053
 21
-0.92984
 31
0.0
  0
LINE
  5
5A0
  8
0
 10
-1.10307
 20
-0.940445
 30
0.0
 11
-0.116653
 21
0.0459595
 31
0.0
  0
LINE
  5
5A1
  8
0
 10
-0.116653
 20
0.0459595
 30
0.0
 11
-0.109589
 21
0.0388947
 31
0.0
  0
LINE
  5
5A2
  8
0
 10
-0.109589
 20
0.0388947
 30
0.0
 11
-1.09599
 21
-0.94751
 31
0.0
  0
LINE
  5
5A3
  8
0
 10
-1.09599
 20
-0.94751
 30
0.0
 11
-1.10307
 21
-0.940445
 31
0.0
  0
LINE
  5
5A4
  8
0
 10
1.01468
 20
-0.943985
 30
0.0
 11
2.0011
 21
0.0424194
 31
0.0
  0
LINE
  5
5A5
  8
0
 10
2.0011
 20
0.0424194
 30
0.0
 11
2.00816
 21
0.0353546
 31
0.0
  0
LINE
  5
5A6
  8
0
 10
2.00816
 20
0.0353546
 30
0.0
 11
1.02174
 21
-0.95105
 31
0.0
  0
LINE
  5
5A7
  8
0
 10
1.02174
 20
-0.95105
 30
0.0
 11
1.01468
 21
-0.943985
 31
0.0
  0
LINE
  5
5A8
  8
0
 10
-1.08893
 20
-0.95459
 30
0.0
 11
-0.102509
 21
0.0318146
 31
0.0
  0
LINE
  5
5A9
  8
0
 10
-0.102509
 20
0.0318146
 30
0.0
 11
-0.0954437
 21
0.0247498
 31
0.0
  0
LINE
  5
5AA
  8
0
 10
-0.0954437
 20
0.0247498
 30
0.0
 11
-1.08185
 21
-0.961655
 31
0.0
  0
LINE
  5
5AB
  8
0
 10
-1.08185
 20
-0.961655
 30
0.0
 11
-1.08893
 21
-0.95459
 31
0.0
  0
LINE
  5
5AC
  8
0
 10
1.02882
 20
-0.95813
 30
0.0
 11
2.01524
 21
0.0282745
 31
0.0
  0
LINE
  5
5AD
  8
0
 10
2.01524
 20
0.0282745
 30
0.0
 11
2.02231
 21
0.0212097
 31
0.0
  0
LINE
  5
5AE
  8
0
 10
2.02231
 20
0.0212097
 30
0.0
 11
1.03589
 21
-0.965195
 31
0.0
  0
LINE
  5
5AF
  8
0
 10
1.03589
 20
-0.965195
 30
0.0
 11
1.02882
 21
-0.95813
 31
0.0
  0
LINE
  5
5B0
  8
0
 10
-1.07478
 20
-0.968719
 30
0.0
 11
-0.0883636
 21
0.0176697
 31
0.0
  0
LINE
  5
5B1
  8
0
 10
-0.0883636
 20
0.0176697
 30
0.0
 11
-0.0812988
 21
0.0106049
 31
0.0
  0
LINE
  5
5B2
  8
0
 10
-0.0812988
 20
0.0106049
 30
0.0
 11
-1.0677
 21
-0.9758
 31
0.0
  0
LINE
  5
5B3
  8
0
 10
-1.0677
 20
-0.9758
 30
0.0
 11
-1.07478
 21
-0.968719
 31
0.0
  0
LINE
  5
5B4
  8
0
 10
1.04295
 20
-0.97226
 30
0.0
 11
2.02937
 21
0.0141449
 31
0.0
  0
LINE
  5
5B5
  8
0
 10
2.02937
 20
0.0141449
 30
0.0
 11
2.03645
 21
0.00706482
 31
0.0
  0
LINE
  5
5B6
  8
0
 10
2.03645
 20
0.00706482
 30
0.0
 11
1.05003
 21
-0.97934
 31
0.0
  0
LINE
  5
5B7
  8
0
 10
1.05003
 20
-0.97934
 30
0.0
 11
1.04295
 21
-0.97226
 31
0.0
  0
LINE
  5
5B8
  8
0
 10
-1.06064
 20
-0.982864
 30
0.0
 11
-0.0742188
 21
0.00352478
 31
0.0
  0
LINE
  5
5B9
  8
0
 10
-0.0742188
 20
0.00352478
 30
0.0
 11
-0.0671692
 21
-0.00354004
 31
0.0
  0
LINE
  5
5BA
  8
0
 10
-0.0671692
 20
-0.00354004
 30
0.0
 11
-1.05357
 21
-0.989944
 31
0.0
  0
LINE
  5
5BB
  8
0
 10
-1.05357
 20
-0.989944
 30
0.0
 11
-1.06064
 21
-0.982864
 31
0.0
  0
LINE
  5
5BC
  8
0
 10
1.0571
 20
-0.986404
 30
0.0
 11
2.04352
 21
0.0
 31
0.0
  0
LINE
  5
5BD
  8
0
 10
2.04352
 20
0.0
 30
0.0
 11
2.05058
 21
-0.00706482
 31
0.0
  0
LINE
  5
5BE
  8
0
 10
2.05058
 20
-0.00706482
 30
0.0
 11
1.06416
 21
-0.993469
 31
0.0
  0
LINE
  5
5BF
  8
0
 10
1.06416
 20
-0.993469
 30
0.0
 11
1.0571
 21
-0.986404
 31
0.0
  0
LINE
  5
5C0
  8
0
 10
-1.04649
 20
-0.997009
 30
0.0
 11
-0.0600891
 21
-0.0106049
 31
0.0
  0
LINE
  5
5C1
  8
0
 10
-0.0600891
 20
-0.0106049
 30
0.0
 11
-0.0530243
 21
-0.0176849
 31
0.0
  0
LINE
  5
5C2
  8
0
 10
-0.0530243
 20
-0.0176849
 30
0.0
 11
-1.03943
 21
-1.00409
 31
0.0
  0
LINE
  5
5C3
  8
0
 10
-1.03943
 20
-1.00409
 30
0.0
 11
-1.04649
 21
-0.997009
 31
0.0
  0
LINE
  5
5C4
  8
0
 10
1.07124
 20
-1.00055
 30
0.0
 11
2.05766
 21
-0.0141449
 31
0.0
  0
LINE
  5
5C5
  8
0
 10
2.05766
 20
-0.0141449
 30
0.0
 11
2.06473
 21
-0.0212097
 31
0.0
  0
LINE
  5
5C6
  8
0
 10
2.06473
 20
-0.0212097
 30
0.0
 11
1.07831
 21
-1.00761
 31
0.0
  0
LINE
  5
5C7
  8
0
 10
1.07831
 20
-1.00761
 30
0.0
 11
1.07124
 21
-1.00055
 31
0.0
  0
LINE
  5
5C8
  8
0
 10
-1.03236
 20
-1.01115
 30
0.0
 11
-0.0459595
 21
-0.0247498
 31
0.0
  0
LINE
  5
5C9
  8
0
 10
-0.0459595
 20
-0.0247498
 30
0.0
 11
-0.0388794
 21
-0.0318298
 31
0.0
  0
LINE
  5
5CA
  8
0
 10
-0.0388794
 20
-0.0318298
 30
0.0
 11
-1.02528
 21
-1.01823
 31
0.0
  0
LINE
  5
5CB
  8
0
 10
-1.02528
 20
-1.01823
 30
0.0
 11
-1.03236
 21
-1.01115
 31
0.0
  0
LINE
  5
5CC
  8
0
 10
2.07179
 20
-0.0282745
 30
0.0
 11
2.07887
 21
-0.0353546
 31
0.0
  0
LINE
  5
5CD
  8
0
 10
2.07887
 20
-0.0353546
 30
0.0
 11
1.09247
 21
-1.02177
 31
0.0
  0
LINE
  5
5CE
  8
0
 10
1.09247
 20
-1.02177
 30
0.0
 11
1.08539
 21
-1.01469
 31
0.0
  0
LINE
  5
5CF
  8
0
 10
1.08539
 20
-1.01469
 30
0.0
 11
2.07179
 21
-0.0282745
 31
0.0
  0
LINE
  5
5D0
  8
0
 10
-1.01823
 20
-1.02528
 30
0.0
 11
-0.0318298
 21
-0.0388794
 31
0.0
  0
LINE
  5
5D1
  8
0
 10
-0.0318298
 20
-0.0388794
 30
0.0
 11
-0.0247498
 21
-0.0459595
 31
0.0
  0
LINE
  5
5D2
  8
0
 10
-0.0247498
 20
-0.0459595
 30
0.0
 11
-1.01115
 21
-1.03236
 31
0.0
  0
LINE
  5
5D3
  8
0
 10
-1.01115
 20
-1.03236
 30
0.0
 11
-1.01823
 21
-1.02528
 31
0.0
  0
LINE
  5
5D4
  8
0
 10
2.08594
 20
-0.0424194
 30
0.0
 11
2.09302
 21
-0.0494995
 31
0.0
  0
LINE
  5
5D5
  8
0
 10
2.09302
 20
-0.0494995
 30
0.0
 11
1.10661
 21
-1.03592
 31
0.0
  0
LINE
  5
5D6
  8
0
 10
1.10661
 20
-1.03592
 30
0.0
 11
1.09953
 21
-1.02884
 31
0.0
  0
LINE
  5
5D7
  8
0
 10
1.09953
 20
-1.02884
 30
0.0
 11
2.08594
 21
-0.0424194
 31
0.0
  0
LINE
  5
5D8
  8
0
 10
-1.00409
 20
-1.03943
 30
0.0
 11
-0.0176849
 21
-0.0530243
 31
0.0
  0
LINE
  5
5D9
  8
0
 10
-0.0176849
 20
-0.0530243
 30
0.0
 11
-0.0106049
 21
-0.0600891
 31
0.0
  0
LINE
  5
5DA
  8
0
 10
-0.0106049
 20
-0.0600891
 30
0.0
 11
-0.997009
 21
-1.04649
 31
0.0
  0
LINE
  5
5DB
  8
0
 10
-0.997009
 20
-1.04649
 30
0.0
 11
-1.00409
 21
-1.03943
 31
0.0
  0
LINE
  5
5DC
  8
0
 10
1.11368
 20
-1.04298
 30
0.0
 11
2.10008
 21
-0.0565643
 31
0.0
  0
LINE
  5
5DD
  8
0
 10
2.10008
 20
-0.0565643
 30
0.0
 11
2.10716
 21
-0.0636292
 31
0.0
  0
LINE
  5
5DE
  8
0
 10
2.10716
 20
-0.0636292
 30
0.0
 11
1.12074
 21
-1.05005
 31
0.0
  0
LINE
  5
5DF
  8
0
 10
1.12074
 20
-1.05005
 30
0.0
 11
1.11368
 21
-1.04298
 31
0.0
  0
LINE
  5
5E0
  8
0
 10
-0.989944
 20
-1.05357
 30
0.0
 11
-0.00354004
 21
-0.0671692
 31
0.0
  0
LINE
  5
5E1
  8
0
 10
-0.00354004
 20
-0.0671692
 30
0.0
 11
0.00352478
 21
-0.0742188
 31
0.0
  0
LINE
  5
5E2
  8
0
 10
0.00352478
 20
-0.0742188
 30
0.0
 11
-0.982864
 21
-1.06064
 31
0.0
  0
LINE
  5
5E3
  8
0
 10
-0.982864
 20
-1.06064
 30
0.0
 11
-0.989944
 21
-1.05357
 31
0.0
  0
LINE
  5
5E4
  8
0
 10
1.12782
 20
-1.05713
 30
0.0
 11
2.11423
 21
-0.0707092
 31
0.0
  0
LINE
  5
5E5
  8
0
 10
2.11423
 20
-0.0707092
 30
0.0
 11
2.12131
 21
-0.077774
 31
0.0
  0
LINE
  5
5E6
  8
0
 10
2.12131
 20
-0.077774
 30
0.0
 11
1.13489
 21
-1.06419
 31
0.0
  0
LINE
  5
5E7
  8
0
 10
1.13489
 20
-1.06419
 30
0.0
 11
1.12782
 21
-1.05713
 31
0.0
  0
LINE
  5
5E8
  8
0
 10
-0.9758
 20
-1.0677
 30
0.0
 11
0.0106049
 21
-0.0812988
 31
0.0
  0
LINE
  5
5E9
  8
0
 10
0.0106049
 20
-0.0812988
 30
0.0
 11
0.0176697
 21
-0.0883636
 31
0.0
  0
LINE
  5
5EA
  8
0
 10
0.0176697
 20
-0.0883636
 30
0.0
 11
-0.968719
 21
-1.07478
 31
0.0
  0
LINE
  5
5EB
  8
0
 10
-0.968719
 20
-1.07478
 30
0.0
 11
-0.9758
 21
-1.0677
 31
0.0
  0
LINE
  5
5EC
  8
0
 10
1.14195
 20
-1.07126
 30
0.0
 11
2.12837
 21
-0.0848389
 31
0.0
  0
LINE
  5
5ED
  8
0
 10
2.12837
 20
-0.0848389
 30
0.0
 11
2.13545
 21
-0.0919189
 31
0.0
  0
LINE
  5
5EE
  8
0
 10
2.13545
 20
-0.0919189
 30
0.0
 11
1.14903
 21
-1.07834
 31
0.0
  0
LINE
  5
5EF
  8
0
 10
1.14903
 20
-1.07834
 30
0.0
 11
1.14195
 21
-1.07126
 31
0.0
  0
LINE
  5
5F0
  8
0
 10
-0.961655
 20
-1.08185
 30
0.0
 11
0.0247498
 21
-0.0954437
 31
0.0
  0
LINE
  5
5F1
  8
0
 10
0.0247498
 20
-0.0954437
 30
0.0
 11
0.0318146
 21
-0.102509
 31
0.0
  0
LINE
  5
5F2
  8
0
 10
0.0318146
 20
-0.102509
 30
0.0
 11
-0.95459
 21
-1.08893
 31
0.0
  0
LINE
  5
5F3
  8
0
 10
-0.95459
 20
-1.08893
 30
0.0
 11
-0.961655
 21
-1.08185
 31
0.0
  0
LINE
  5
5F4
  8
0
 10
1.1561
 20
-1.0854
 30
0.0
 11
2.14252
 21
-0.0989838
 31
0.0
  0
LINE
  5
5F5
  8
0
 10
2.14252
 20
-0.0989838
 30
0.0
 11
2.14958
 21
-0.106049
 31
0.0
  0
LINE
  5
5F6
  8
0
 10
2.14958
 20
-0.106049
 30
0.0
 11
1.16316
 21
-1.09247
 31
0.0
  0
LINE
  5
5F7
  8
0
 10
1.16316
 20
-1.09247
 30
0.0
 11
1.1561
 21
-1.0854
 31
0.0
  0
LINE
  5
5F8
  8
0
 10
-0.94751
 20
-1.09599
 30
0.0
 11
0.0388947
 21
-0.109589
 31
0.0
  0
LINE
  5
5F9
  8
0
 10
0.0388947
 20
-0.109589
 30
0.0
 11
0.0459595
 21
-0.116653
 31
0.0
  0
LINE
  5
5FA
  8
0
 10
0.0459595
 20
-0.116653
 30
0.0
 11
-0.940445
 21
-1.10307
 31
0.0
  0
LINE
  5
5FB
  8
0
 10
-0.940445
 20
-1.10307
 30
0.0
 11
-0.94751
 21
-1.09599
 31
0.0
  0
LINE
  5
5FC
  8
0
 10
1.17024
 20
-1.09955
 30
0.0
 11
2.15666
 21
-0.113129
 31
0.0
  0
LINE
  5
5FD
  8
0
 10
2.15666
 20
-0.113129
 30
0.0
 11
2.16373
 21
-0.120193
 31
0.0
  0
LINE
  5
5FE
  8
0
 10
2.16373
 20
-0.120193
 30
0.0
 11
1.17731
 21
-1.10661
 31
0.0
  0
LINE
  5
5FF
  8
0
 10
1.17731
 20
-1.10661
 30
0.0
 11
1.17024
 21
-1.09955
 31
0.0
  0
LINE
  5
600
  8
0
 10
-0.933365
 20
-1.11014
 30
0.0
 11
0.0530396
 21
-0.123734
 31
0.0
  0
LINE
  5
601
  8
0
 10
0.0530396
 20
-0.123734
 30
0.0
 11
0.0601044
 21
-0.130798
 31
0.0
  0
LINE
  5
602
  8
0
 10
0.0601044
 20
-0.130798
 30
0.0
 11
-0.9263
 21
-1.11722
 31
0.0
  0
LINE
  5
603
  8
0
 10
-0.9263
 20
-1.11722
 30
0.0
 11
-0.933365
 21
-1.11014
 31
0.0
  0
LINE
  5
604
  8
0
 10
1.18439
 20
-1.11369
 30
0.0
 11
2.17081
 21
-0.127274
 31
0.0
  0
LINE
  5
605
  8
0
 10
2.17081
 20
-0.127274
 30
0.0
 11
2.17787
 21
-0.134338
 31
0.0
  0
LINE
  5
606
  8
0
 10
2.17787
 20
-0.134338
 30
0.0
 11
1.19145
 21
-1.12076
 31
0.0
  0
LINE
  5
607
  8
0
 10
1.19145
 20
-1.12076
 30
0.0
 11
1.18439
 21
-1.11369
 31
0.0
  0
LINE
  5
608
  8
0
 10
-0.919235
 20
-1.12428
 30
0.0
 11
0.0671692
 21
-0.137863
 31
0.0
  0
LINE
  5
609
  8
0
 10
0.0671692
 20
-0.137863
 30
0.0
 11
0.0742493
 21
-0.144943
 31
0.0
  0
LINE
  5
60A
  8
0
 10
0.0742493
 20
-0.144943
 30
0.0
 11
-0.912155
 21
-1.13136
 31
0.0
  0
LINE
  5
60B
  8
0
 10
-0.912155
 20
-1.13136
 30
0.0
 11
-0.919235
 21
-1.12428
 31
0.0
  0
LINE
  5
60C
  8
0
 10
1.19852
 20
-1.12782
 30
0.0
 11
2.18494
 21
-0.141418
 31
0.0
  0
LINE
  5
60D
  8
0
 10
2.18494
 20
-0.141418
 30
0.0
 11
2.19202
 21
-0.148483
 31
0.0
  0
LINE
  5
60E
  8
0
 10
2.19202
 20
-0.148483
 30
0.0
 11
1.2056
 21
-1.1349
 31
0.0
  0
LINE
  5
60F
  8
0
 10
1.2056
 20
-1.1349
 30
0.0
 11
1.19852
 21
-1.12782
 31
0.0
  0
LINE
  5
610
  8
0
 10
-0.90509
 20
-1.13843
 30
0.0
 11
0.0813141
 21
-0.152008
 31
0.0
  0
LINE
  5
611
  8
0
 10
0.0813141
 20
-0.152008
 30
0.0
 11
0.0883789
 21
-0.159073
 31
0.0
  0
LINE
  5
612
  8
0
 10
0.0883789
 20
-0.159073
 30
0.0
 11
-0.898026
 21
-1.14549
 31
0.0
  0
LINE
  5
613
  8
0
 10
-0.898026
 20
-1.14549
 30
0.0
 11
-0.90509
 21
-1.13843
 31
0.0
  0
LINE
  5
614
  8
0
 10
1.21266
 20
-1.14197
 30
0.0
 11
2.19908
 21
-0.155563
 31
0.0
  0
LINE
  5
615
  8
0
 10
2.19908
 20
-0.155563
 30
0.0
 11
2.20615
 21
-0.162628
 31
0.0
  0
LINE
  5
616
  8
0
 10
2.20615
 20
-0.162628
 30
0.0
 11
1.21974
 21
-1.14905
 31
0.0
  0
LINE
  5
617
  8
0
 10
1.21974
 20
-1.14905
 30
0.0
 11
1.21266
 21
-1.14197
 31
0.0
  0
LINE
  5
618
  8
0
 10
-0.890945
 20
-1.15257
 30
0.0
 11
0.095459
 21
-0.166153
 31
0.0
  0
LINE
  5
619
  8
0
 10
0.095459
 20
-0.166153
 30
0.0
 11
0.102524
 21
-0.173218
 31
0.0
  0
LINE
  5
61A
  8
0
 10
0.102524
 20
-0.173218
 30
0.0
 11
-0.883881
 21
-1.15964
 31
0.0
  0
LINE
  5
61B
  8
0
 10
-0.883881
 20
-1.15964
 30
0.0
 11
-0.890945
 21
-1.15257
 31
0.0
  0
LINE
  5
61C
  8
0
 10
1.22681
 20
-1.15611
 30
0.0
 11
2.21323
 21
-0.169708
 31
0.0
  0
LINE
  5
61D
  8
0
 10
2.21323
 20
-0.169708
 30
0.0
 11
2.22029
 21
-0.176773
 31
0.0
  0
LINE
  5
61E
  8
0
 10
2.22029
 20
-0.176773
 30
0.0
 11
1.23389
 21
-1.16319
 31
0.0
  0
LINE
  5
61F
  8
0
 10
1.23389
 20
-1.16319
 30
0.0
 11
1.22681
 21
-1.15611
 31
0.0
  0
LINE
  5
620
  8
0
 10
-0.876816
 20
-1.1667
 30
0.0
 11
0.109589
 21
-0.180283
 31
0.0
  0
LINE
  5
621
  8
0
 10
0.109589
 20
-0.180283
 30
0.0
 11
0.116669
 21
-0.187363
 31
0.0
  0
LINE
  5
622
  8
0
 10
0.116669
 20
-0.187363
 30
0.0
 11
-0.869736
 21
-1.17378
 31
0.0
  0
LINE
  5
623
  8
0
 10
-0.869736
 20
-1.17378
 30
0.0
 11
-0.876816
 21
-1.1667
 31
0.0
  0
LINE
  5
624
  8
0
 10
1.24095
 20
-1.17026
 30
0.0
 11
2.22737
 21
-0.183838
 31
0.0
  0
LINE
  5
625
  8
0
 10
2.22737
 20
-0.183838
 30
0.0
 11
2.23444
 21
-0.190918
 31
0.0
  0
LINE
  5
626
  8
0
 10
2.23444
 20
-0.190918
 30
0.0
 11
1.24803
 21
-1.17734
 31
0.0
  0
LINE
  5
627
  8
0
 10
1.24803
 20
-1.17734
 30
0.0
 11
1.24095
 21
-1.17026
 31
0.0
  0
LINE
  5
628
  8
0
 10
-0.862671
 20
-1.18085
 30
0.0
 11
0.123734
 21
-0.194427
 31
0.0
  0
LINE
  5
629
  8
0
 10
0.123734
 20
-0.194427
 30
0.0
 11
0.130798
 21
-0.201492
 31
0.0
  0
LINE
  5
62A
  8
0
 10
0.130798
 20
-0.201492
 30
0.0
 11
-0.855591
 21
-1.18791
 31
0.0
  0
LINE
  5
62B
  8
0
 10
-0.855591
 20
-1.18791
 30
0.0
 11
-0.862671
 21
-1.18085
 31
0.0
  0
LINE
  5
62C
  8
0
 10
-0.848511
 20
-1.19499
 30
0.0
 11
0.137878
 21
-0.208572
 31
0.0
  0
LINE
  5
62D
  8
0
 10
0.137878
 20
-0.208572
 30
0.0
 11
0.144943
 21
-0.215637
 31
0.0
  0
LINE
  5
62E
  8
0
 10
0.144943
 20
-0.215637
 30
0.0
 11
-0.841446
 21
-1.20206
 31
0.0
  0
LINE
  5
62F
  8
0
 10
-0.841446
 20
-1.20206
 30
0.0
 11
-0.848511
 21
-1.19499
 31
0.0
  0
LINE
  5
630
  8
0
 10
-0.834366
 20
-1.20914
 30
0.0
 11
0.152023
 21
-0.222717
 31
0.0
  0
LINE
  5
631
  8
0
 10
0.152023
 20
-0.222717
 30
0.0
 11
0.159088
 21
-0.229782
 31
0.0
  0
LINE
  5
632
  8
0
 10
0.159088
 20
-0.229782
 30
0.0
 11
-0.827301
 21
-1.2162
 31
0.0
  0
LINE
  5
633
  8
0
 10
-0.827301
 20
-1.2162
 30
0.0
 11
-0.834366
 21
-1.20914
 31
0.0
  0
LINE
  5
634
  8
0
 10
-0.820236
 20
-1.22327
 30
0.0
 11
0.166168
 21
-0.236862
 31
0.0
  0
LINE
  5
635
  8
0
 10
0.166168
 20
-0.236862
 30
0.0
 11
0.173248
 21
-0.243942
 31
0.0
  0
LINE
  5
636
  8
0
 10
0.173248
 20
-0.243942
 30
0.0
 11
-0.813156
 21
-1.23035
 31
0.0
  0
LINE
  5
637
  8
0
 10
-0.813156
 20
-1.23035
 30
0.0
 11
-0.820236
 21
-1.22327
 31
0.0
  0
LINE
  5
638
  8
0
 10
-0.806091
 20
-1.23741
 30
0.0
 11
0.180313
 21
-0.251007
 31
0.0
  0
LINE
  5
639
  8
0
 10
0.180313
 20
-0.251007
 30
0.0
 11
0.187378
 21
-0.258072
 31
0.0
  0
LINE
  5
63A
  8
0
 10
0.187378
 20
-0.258072
 30
0.0
 11
-0.799026
 21
-1.24449
 31
0.0
  0
LINE
  5
63B
  8
0
 10
-0.799026
 20
-1.24449
 30
0.0
 11
-0.806091
 21
-1.23741
 31
0.0
  0
LINE
  5
63C
  8
0
 10
-0.791946
 20
-1.25156
 30
0.0
 11
0.194458
 21
-0.265152
 31
0.0
  0
LINE
  5
63D
  8
0
 10
0.194458
 20
-0.265152
 30
0.0
 11
0.201523
 21
-0.272217
 31
0.0
  0
LINE
  5
63E
  8
0
 10
0.201523
 20
-0.272217
 30
0.0
 11
-0.784882
 21
-1.25864
 31
0.0
  0
LINE
  5
63F
  8
0
 10
-0.784882
 20
-1.25864
 30
0.0
 11
-0.791946
 21
-1.25156
 31
0.0
  0
LINE
  5
640
  8
0
 10
-0.777817
 20
-1.2657
 30
0.0
 11
0.208588
 21
-0.279282
 31
0.0
  0
LINE
  5
641
  8
0
 10
0.208588
 20
-0.279282
 30
0.0
 11
0.215668
 21
-0.286362
 31
0.0
  0
LINE
  5
642
  8
0
 10
0.215668
 20
-0.286362
 30
0.0
 11
-0.770737
 21
-1.27278
 31
0.0
  0
LINE
  5
643
  8
0
 10
-0.770737
 20
-1.27278
 30
0.0
 11
-0.777817
 21
-1.2657
 31
0.0
  0
LINE
  5
644
  8
0
 10
-0.763672
 20
-1.27985
 30
0.0
 11
0.222733
 21
-0.293427
 31
0.0
  0
LINE
  5
645
  8
0
 10
0.222733
 20
-0.293427
 30
0.0
 11
0.229813
 21
-0.300507
 31
0.0
  0
LINE
  5
646
  8
0
 10
0.229813
 20
-0.300507
 30
0.0
 11
-0.756592
 21
-1.28693
 31
0.0
  0
LINE
  5
647
  8
0
 10
-0.756592
 20
-1.28693
 30
0.0
 11
-0.763672
 21
-1.27985
 31
0.0
  0
LINE
  5
648
  8
0
 10
-0.749527
 20
-1.29399
 30
0.0
 11
0.236877
 21
-0.307571
 31
0.0
  0
LINE
  5
649
  8
0
 10
0.236877
 20
-0.307571
 30
0.0
 11
0.243942
 21
-0.314636
 31
0.0
  0
LINE
  5
64A
  8
0
 10
0.243942
 20
-0.314636
 30
0.0
 11
-0.742462
 21
-1.30106
 31
0.0
  0
LINE
  5
64B
  8
0
 10
-0.742462
 20
-1.30106
 30
0.0
 11
-0.749527
 21
-1.29399
 31
0.0
  0
LINE
  5
64C
  8
0
 10
-0.735382
 20
-1.30814
 30
0.0
 11
0.251022
 21
-0.321716
 31
0.0
  0
LINE
  5
64D
  8
0
 10
0.251022
 20
-0.321716
 30
0.0
 11
0.258087
 21
-0.328781
 31
0.0
  0
LINE
  5
64E
  8
0
 10
0.258087
 20
-0.328781
 30
0.0
 11
-0.728317
 21
-1.3152
 31
0.0
  0
LINE
  5
64F
  8
0
 10
-0.728317
 20
-1.3152
 30
0.0
 11
-0.735382
 21
-1.30814
 31
0.0
  0
LINE
  5
650
  8
0
 10
-0.721237
 20
-1.32227
 30
0.0
 11
0.265152
 21
-0.335846
 31
0.0
  0
LINE
  5
651
  8
0
 10
0.265152
 20
-0.335846
 30
0.0
 11
0.272232
 21
-0.342926
 31
0.0
  0
LINE
  5
652
  8
0
 10
0.272232
 20
-0.342926
 30
0.0
 11
-0.714172
 21
-1.32935
 31
0.0
  0
LINE
  5
653
  8
0
 10
-0.714172
 20
-1.32935
 30
0.0
 11
-0.721237
 21
-1.32227
 31
0.0
  0
LINE
  5
654
  8
0
 10
-0.707092
 20
-1.33641
 30
0.0
 11
0.279297
 21
-0.349991
 31
0.0
  0
LINE
  5
655
  8
0
 10
0.279297
 20
-0.349991
 30
0.0
 11
0.286377
 21
-0.357071
 31
0.0
  0
LINE
  5
656
  8
0
 10
0.286377
 20
-0.357071
 30
0.0
 11
-0.700027
 21
-1.34348
 31
0.0
  0
LINE
  5
657
  8
0
 10
-0.700027
 20
-1.34348
 30
0.0
 11
-0.707092
 21
-1.33641
 31
0.0
  0
LINE
  5
658
  8
0
 10
-0.692947
 20
-1.35056
 30
0.0
 11
0.293442
 21
-0.364136
 31
0.0
  0
LINE
  5
659
  8
0
 10
0.293442
 20
-0.364136
 30
0.0
 11
0.300522
 21
-0.371216
 31
0.0
  0
LINE
  5
65A
  8
0
 10
0.300522
 20
-0.371216
 30
0.0
 11
-0.685883
 21
-1.35762
 31
0.0
  0
LINE
  5
65B
  8
0
 10
-0.685883
 20
-1.35762
 30
0.0
 11
-0.692947
 21
-1.35056
 31
0.0
  0
LINE
  5
65C
  8
0
 10
-0.678818
 20
-1.36469
 30
0.0
 11
0.307587
 21
-0.378281
 31
0.0
  0
LINE
  5
65D
  8
0
 10
0.307587
 20
-0.378281
 30
0.0
 11
0.314667
 21
-0.385361
 31
0.0
  0
LINE
  5
65E
  8
0
 10
0.314667
 20
-0.385361
 30
0.0
 11
-0.671738
 21
-1.37177
 31
0.0
  0
LINE
  5
65F
  8
0
 10
-0.671738
 20
-1.37177
 30
0.0
 11
-0.678818
 21
-1.36469
 31
0.0
  0
LINE
  5
660
  8
0
 10
-0.664673
 20
-1.37885
 30
0.0
 11
0.321732
 21
-0.392426
 31
0.0
  0
LINE
  5
661
  8
0
 10
0.321732
 20
-0.392426
 30
0.0
 11
0.328812
 21
-0.399506
 31
0.0
  0
LINE
  5
662
  8
0
 10
0.328812
 20
-0.399506
 30
0.0
 11
-0.657593
 21
-1.38591
 31
0.0
  0
LINE
  5
663
  8
0
 10
-0.657593
 20
-1.38591
 30
0.0
 11
-0.664673
 21
-1.37885
 31
0.0
  0
LINE
  5
664
  8
0
 10
-0.650528
 20
-1.39299
 30
0.0
 11
0.335876
 21
-0.40657
 31
0.0
  0
LINE
  5
665
  8
0
 10
0.335876
 20
-0.40657
 30
0.0
 11
0.342941
 21
-0.413635
 31
0.0
  0
LINE
  5
666
  8
0
 10
0.342941
 20
-0.413635
 30
0.0
 11
-0.643463
 21
-1.40005
 31
0.0
  0
LINE
  5
667
  8
0
 10
-0.643463
 20
-1.40005
 30
0.0
 11
-0.650528
 21
-1.39299
 31
0.0
  0
LINE
  5
668
  8
0
 10
-0.636383
 20
-1.40714
 30
0.0
 11
0.350021
 21
-0.420715
 31
0.0
  0
LINE
  5
669
  8
0
 10
0.350021
 20
-0.420715
 30
0.0
 11
0.357086
 21
-0.42778
 31
0.0
  0
LINE
  5
66A
  8
0
 10
0.357086
 20
-0.42778
 30
0.0
 11
-0.629318
 21
-1.4142
 31
0.0
  0
LINE
  5
66B
  8
0
 10
-0.629318
 20
-1.4142
 30
0.0
 11
-0.636383
 21
-1.40714
 31
0.0
  0
LINE
  5
66C
  8
0
 10
-0.622253
 20
-1.42126
 30
0.0
 11
0.364151
 21
-0.434845
 31
0.0
  0
LINE
  5
66D
  8
0
 10
0.364151
 20
-0.434845
 30
0.0
 11
0.371231
 21
-0.441925
 31
0.0
  0
LINE
  5
66E
  8
0
 10
0.371231
 20
-0.441925
 30
0.0
 11
-0.615173
 21
-1.42834
 31
0.0
  0
LINE
  5
66F
  8
0
 10
-0.615173
 20
-1.42834
 30
0.0
 11
-0.622253
 21
-1.42126
 31
0.0
  0
LINE
  5
670
  8
0
 10
-0.608109
 20
-1.43541
 30
0.0
 11
0.378296
 21
-0.44899
 31
0.0
  0
LINE
  5
671
  8
0
 10
0.378296
 20
-0.44899
 30
0.0
 11
0.385361
 21
-0.456055
 31
0.0
  0
LINE
  5
672
  8
0
 10
0.385361
 20
-0.456055
 30
0.0
 11
-0.601044
 21
-1.44247
 31
0.0
  0
LINE
  5
673
  8
0
 10
-0.601044
 20
-1.44247
 30
0.0
 11
-0.608109
 21
-1.43541
 31
0.0
  0
LINE
  5
674
  8
0
 10
-0.593964
 20
-1.44955
 30
0.0
 11
0.392441
 21
-0.463135
 31
0.0
  0
LINE
  5
675
  8
0
 10
0.392441
 20
-0.463135
 30
0.0
 11
0.399506
 21
-0.4702
 31
0.0
  0
LINE
  5
676
  8
0
 10
0.399506
 20
-0.4702
 30
0.0
 11
-0.586899
 21
-1.45662
 31
0.0
  0
LINE
  5
677
  8
0
 10
-0.586899
 20
-1.45662
 30
0.0
 11
-0.593964
 21
-1.44955
 31
0.0
  0
LINE
  5
678
  8
0
 10
-0.579819
 20
-1.4637
 30
0.0
 11
0.406586
 21
-0.47728
 31
0.0
  0
LINE
  5
679
  8
0
 10
0.406586
 20
-0.47728
 30
0.0
 11
0.413651
 21
-0.484344
 31
0.0
  0
LINE
  5
67A
  8
0
 10
0.413651
 20
-0.484344
 30
0.0
 11
-0.572754
 21
-1.47076
 31
0.0
  0
LINE
  5
67B
  8
0
 10
-0.572754
 20
-1.47076
 30
0.0
 11
-0.579819
 21
-1.4637
 31
0.0
  0
LINE
  5
67C
  8
0
 10
-0.565674
 20
-1.47783
 30
0.0
 11
0.420715
 21
-0.491409
 31
0.0
  0
LINE
  5
67D
  8
0
 10
0.420715
 20
-0.491409
 30
0.0
 11
0.427795
 21
-0.498489
 31
0.0
  0
LINE
  5
67E
  8
0
 10
0.427795
 20
-0.498489
 30
0.0
 11
-0.558609
 21
-1.48491
 31
0.0
  0
LINE
  5
67F
  8
0
 10
-0.558609
 20
-1.48491
 30
0.0
 11
-0.565674
 21
-1.47783
 31
0.0
  0
LINE
  5
680
  8
0
 10
-0.551529
 20
-1.49197
 30
0.0
 11
0.43486
 21
-0.505554
 31
0.0
  0
LINE
  5
681
  8
0
 10
0.43486
 20
-0.505554
 30
0.0
 11
0.44194
 21
-0.512634
 31
0.0
  0
LINE
  5
682
  8
0
 10
0.44194
 20
-0.512634
 30
0.0
 11
-0.544464
 21
-1.49904
 31
0.0
  0
LINE
  5
683
  8
0
 10
-0.544464
 20
-1.49904
 30
0.0
 11
-0.551529
 21
-1.49197
 31
0.0
  0
LINE
  5
684
  8
0
 10
-0.537384
 20
-1.50612
 30
0.0
 11
0.449005
 21
-0.519699
 31
0.0
  0
LINE
  5
685
  8
0
 10
0.449005
 20
-0.519699
 30
0.0
 11
0.456085
 21
-0.526779
 31
0.0
  0
LINE
  5
686
  8
0
 10
0.456085
 20
-0.526779
 30
0.0
 11
-0.530319
 21
-1.51318
 31
0.0
  0
LINE
  5
687
  8
0
 10
-0.530319
 20
-1.51318
 30
0.0
 11
-0.537384
 21
-1.50612
 31
0.0
  0
LINE
  5
688
  8
0
 10
-0.523254
 20
-1.52026
 30
0.0
 11
0.46315
 21
-0.533844
 31
0.0
  0
LINE
  5
689
  8
0
 10
0.46315
 20
-0.533844
 30
0.0
 11
0.47023
 21
-0.540924
 31
0.0
  0
LINE
  5
68A
  8
0
 10
0.47023
 20
-0.540924
 30
0.0
 11
-0.516174
 21
-1.52733
 31
0.0
  0
LINE
  5
68B
  8
0
 10
-0.516174
 20
-1.52733
 30
0.0
 11
-0.523254
 21
-1.52026
 31
0.0
  0
LINE
  5
68C
  8
0
 10
-0.509109
 20
-1.53441
 30
0.0
 11
0.477295
 21
-0.547989
 31
0.0
  0
LINE
  5
68D
  8
0
 10
0.477295
 20
-0.547989
 30
0.0
 11
0.48436
 21
-0.555054
 31
0.0
  0
LINE
  5
68E
  8
0
 10
0.48436
 20
-0.555054
 30
0.0
 11
-0.502045
 21
-1.54147
 31
0.0
  0
LINE
  5
68F
  8
0
 10
-0.502045
 20
-1.54147
 30
0.0
 11
-0.509109
 21
-1.53441
 31
0.0
  0
LINE
  5
690
  8
0
 10
-0.494965
 20
-1.54855
 30
0.0
 11
0.49144
 21
-0.562134
 31
0.0
  0
LINE
  5
691
  8
0
 10
0.49144
 20
-0.562134
 30
0.0
 11
0.498505
 21
-0.569199
 31
0.0
  0
LINE
  5
692
  8
0
 10
0.498505
 20
-0.569199
 30
0.0
 11
-0.4879
 21
-1.55562
 31
0.0
  0
LINE
  5
693
  8
0
 10
-0.4879
 20
-1.55562
 30
0.0
 11
-0.494965
 21
-1.54855
 31
0.0
  0
LINE
  5
694
  8
0
 10
-0.48082
 20
-1.5627
 30
0.0
 11
0.505585
 21
-0.576279
 31
0.0
  0
LINE
  5
695
  8
0
 10
0.505585
 20
-0.576279
 30
0.0
 11
0.51265
 21
-0.583344
 31
0.0
  0
LINE
  5
696
  8
0
 10
0.51265
 20
-0.583344
 30
0.0
 11
-0.473755
 21
-1.56976
 31
0.0
  0
LINE
  5
697
  8
0
 10
-0.473755
 20
-1.56976
 30
0.0
 11
-0.48082
 21
-1.5627
 31
0.0
  0
LINE
  5
698
  8
0
 10
-0.46669
 20
-1.57683
 30
0.0
 11
0.519714
 21
-0.590408
 31
0.0
  0
LINE
  5
699
  8
0
 10
0.519714
 20
-0.590408
 30
0.0
 11
0.526794
 21
-0.597488
 31
0.0
  0
LINE
  5
69A
  8
0
 10
0.526794
 20
-0.597488
 30
0.0
 11
-0.45961
 21
-1.58391
 31
0.0
  0
LINE
  5
69B
  8
0
 10
-0.45961
 20
-1.58391
 30
0.0
 11
-0.46669
 21
-1.57683
 31
0.0
  0
LINE
  5
69C
  8
0
 10
-0.452545
 20
-1.59097
 30
0.0
 11
0.533859
 21
-0.604553
 31
0.0
  0
LINE
  5
69D
  8
0
 10
0.533859
 20
-0.604553
 30
0.0
 11
0.540924
 21
-0.611618
 31
0.0
  0
LINE
  5
69E
  8
0
 10
0.540924
 20
-0.611618
 30
0.0
 11
-0.44548
 21
-1.59804
 31
0.0
  0
LINE
  5
69F
  8
0
 10
-0.44548
 20
-1.59804
 30
0.0
 11
-0.452545
 21
-1.59097
 31
0.0
  0
LINE
  5
6A0
  8
0
 10
-0.4384
 20
-1.60512
 30
0.0
 11
0.548004
 21
-0.618698
 31
0.0
  0
LINE
  5
6A1
  8
0
 10
0.548004
 20
-0.618698
 30
0.0
 11
0.555069
 21
-0.625763
 31
0.0
  0
LINE
  5
6A2
  8
0
 10
0.555069
 20
-0.625763
 30
0.0
 11
-0.431335
 21
-1.61218
 31
0.0
  0
LINE
  5
6A3
  8
0
 10
-0.431335
 20
-1.61218
 30
0.0
 11
-0.4384
 21
-1.60512
 31
0.0
  0
LINE
  5
6A4
  8
0
 10
-0.424255
 20
-1.61925
 30
0.0
 11
0.562134
 21
-0.632828
 31
0.0
  0
LINE
  5
6A5
  8
0
 10
0.562134
 20
-0.632828
 30
0.0
 11
0.569214
 21
-0.639908
 31
0.0
  0
LINE
  5
6A6
  8
0
 10
0.569214
 20
-0.639908
 30
0.0
 11
-0.417175
 21
-1.62633
 31
0.0
  0
LINE
  5
6A7
  8
0
 10
-0.417175
 20
-1.62633
 30
0.0
 11
-0.424255
 21
-1.61925
 31
0.0
  0
LINE
  5
6A8
  8
0
 10
-0.41011
 20
-1.63339
 30
0.0
 11
0.576279
 21
-0.646973
 31
0.0
  0
LINE
  5
6A9
  8
0
 10
0.576279
 20
-0.646973
 30
0.0
 11
0.583359
 21
-0.654053
 31
0.0
  0
LINE
  5
6AA
  8
0
 10
0.583359
 20
-0.654053
 30
0.0
 11
-0.40303
 21
-1.64047
 31
0.0
  0
LINE
  5
6AB
  8
0
 10
-0.40303
 20
-1.64047
 30
0.0
 11
-0.41011
 21
-1.63339
 31
0.0
  0
LINE
  5
6AC
  8
0
 10
-0.395966
 20
-1.64754
 30
0.0
 11
0.590439
 21
-0.661133
 31
0.0
  0
LINE
  5
6AD
  8
0
 10
0.590439
 20
-0.661133
 30
0.0
 11
0.597504
 21
-0.668198
 31
0.0
  0
LINE
  5
6AE
  8
0
 10
0.597504
 20
-0.668198
 30
0.0
 11
-0.388901
 21
-1.6546
 31
0.0
  0
LINE
  5
6AF
  8
0
 10
-0.388901
 20
-1.6546
 30
0.0
 11
-0.395966
 21
-1.64754
 31
0.0
  0
LINE
  5
6B0
  8
0
 10
-0.381821
 20
-1.66168
 30
0.0
 11
0.604584
 21
-0.675278
 31
0.0
  0
LINE
  5
6B1
  8
0
 10
0.604584
 20
-0.675278
 30
0.0
 11
0.611649
 21
-0.682343
 31
0.0
  0
LINE
  5
6B2
  8
0
 10
0.611649
 20
-0.682343
 30
0.0
 11
-0.374756
 21
-1.66875
 31
0.0
  0
LINE
  5
6B3
  8
0
 10
-0.374756
 20
-1.66875
 30
0.0
 11
-0.381821
 21
-1.66168
 31
0.0
  0
LINE
  5
6B4
  8
0
 10
-0.367691
 20
-1.67583
 30
0.0
 11
0.618713
 21
-0.689407
 31
0.0
  0
LINE
  5
6B5
  8
0
 10
0.618713
 20
-0.689407
 30
0.0
 11
0.625793
 21
-0.696487
 31
0.0
  0
LINE
  5
6B6
  8
0
 10
0.625793
 20
-0.696487
 30
0.0
 11
-0.360611
 21
-1.68289
 31
0.0
  0
LINE
  5
6B7
  8
0
 10
-0.360611
 20
-1.68289
 30
0.0
 11
-0.367691
 21
-1.67583
 31
0.0
  0
LINE
  5
6B8
  8
0
 10
-0.353546
 20
-1.68997
 30
0.0
 11
0.632858
 21
-0.703552
 31
0.0
  0
LINE
  5
6B9
  8
0
 10
0.632858
 20
-0.703552
 30
0.0
 11
0.639923
 21
-0.710617
 31
0.0
  0
LINE
  5
6BA
  8
0
 10
0.639923
 20
-0.710617
 30
0.0
 11
-0.346481
 21
-1.69704
 31
0.0
  0
LINE
  5
6BB
  8
0
 10
-0.346481
 20
-1.69704
 30
0.0
 11
-0.353546
 21
-1.68997
 31
0.0
  0
LINE
  5
6BC
  8
0
 10
-0.339401
 20
-1.70412
 30
0.0
 11
0.647003
 21
-0.717697
 31
0.0
  0
LINE
  5
6BD
  8
0
 10
0.647003
 20
-0.717697
 30
0.0
 11
0.654068
 21
-0.724762
 31
0.0
  0
LINE
  5
6BE
  8
0
 10
0.654068
 20
-0.724762
 30
0.0
 11
-0.332336
 21
-1.71118
 31
0.0
  0
LINE
  5
6BF
  8
0
 10
-0.332336
 20
-1.71118
 30
0.0
 11
-0.339401
 21
-1.70412
 31
0.0
  0
LINE
  5
6C0
  8
0
 10
-0.325272
 20
-1.71825
 30
0.0
 11
0.661133
 21
-0.731827
 31
0.0
  0
LINE
  5
6C1
  8
0
 10
0.661133
 20
-0.731827
 30
0.0
 11
0.668213
 21
-0.738907
 31
0.0
  0
LINE
  5
6C2
  8
0
 10
0.668213
 20
-0.738907
 30
0.0
 11
-0.318192
 21
-1.72533
 31
0.0
  0
LINE
  5
6C3
  8
0
 10
-0.318192
 20
-1.72533
 30
0.0
 11
-0.325272
 21
-1.71825
 31
0.0
  0
LINE
  5
6C4
  8
0
 10
-0.311127
 20
-1.73239
 30
0.0
 11
0.675278
 21
-0.745972
 31
0.0
  0
LINE
  5
6C5
  8
0
 10
0.675278
 20
-0.745972
 30
0.0
 11
0.682358
 21
-0.753052
 31
0.0
  0
LINE
  5
6C6
  8
0
 10
0.682358
 20
-0.753052
 30
0.0
 11
-0.304047
 21
-1.73947
 31
0.0
  0
LINE
  5
6C7
  8
0
 10
-0.304047
 20
-1.73947
 30
0.0
 11
-0.311127
 21
-1.73239
 31
0.0
  0
LINE
  5
6C8
  8
0
 10
-0.296982
 20
-1.74654
 30
0.0
 11
0.689423
 21
-0.760117
 31
0.0
  0
LINE
  5
6C9
  8
0
 10
0.689423
 20
-0.760117
 30
0.0
 11
0.696487
 21
-0.767181
 31
0.0
  0
LINE
  5
6CA
  8
0
 10
0.696487
 20
-0.767181
 30
0.0
 11
-0.289902
 21
-1.7536
 31
0.0
  0
LINE
  5
6CB
  8
0
 10
-0.289902
 20
-1.7536
 30
0.0
 11
-0.296982
 21
-1.74654
 31
0.0
  0
LINE
  5
6CC
  8
0
 10
-0.282837
 20
-1.76068
 30
0.0
 11
0.703568
 21
-0.774261
 31
0.0
  0
LINE
  5
6CD
  8
0
 10
0.703568
 20
-0.774261
 30
0.0
 11
0.710632
 21
-0.781326
 31
0.0
  0
LINE
  5
6CE
  8
0
 10
0.710632
 20
-0.781326
 30
0.0
 11
-0.275757
 21
-1.76775
 31
0.0
  0
LINE
  5
6CF
  8
0
 10
-0.275757
 20
-1.76775
 30
0.0
 11
-0.282837
 21
-1.76068
 31
0.0
  0
LINE
  5
6D0
  8
0
 10
-0.268692
 20
-1.77481
 30
0.0
 11
0.717712
 21
-0.788406
 31
0.0
  0
LINE
  5
6D1
  8
0
 10
0.717712
 20
-0.788406
 30
0.0
 11
0.724777
 21
-0.795471
 31
0.0
  0
LINE
  5
6D2
  8
0
 10
0.724777
 20
-0.795471
 30
0.0
 11
-0.261612
 21
-1.78189
 31
0.0
  0
LINE
  5
6D3
  8
0
 10
-0.261612
 20
-1.78189
 30
0.0
 11
-0.268692
 21
-1.77481
 31
0.0
  0
LINE
  5
6D4
  8
0
 10
-0.254547
 20
-1.78896
 30
0.0
 11
0.731857
 21
-0.802551
 31
0.0
  0
LINE
  5
6D5
  8
0
 10
0.731857
 20
-0.802551
 30
0.0
 11
0.738922
 21
-0.809616
 31
0.0
  0
LINE
  5
6D6
  8
0
 10
0.738922
 20
-0.809616
 30
0.0
 11
-0.247482
 21
-1.79602
 31
0.0
  0
LINE
  5
6D7
  8
0
 10
-0.247482
 20
-1.79602
 30
0.0
 11
-0.254547
 21
-1.78896
 31
0.0
  0
LINE
  5
6D8
  8
0
 10
-0.240402
 20
-1.8031
 30
0.0
 11
0.746002
 21
-0.816696
 31
0.0
  0
LINE
  5
6D9
  8
0
 10
0.746002
 20
-0.816696
 30
0.0
 11
0.753067
 21
-0.823761
 31
0.0
  0
LINE
  5
6DA
  8
0
 10
0.753067
 20
-0.823761
 30
0.0
 11
-0.233337
 21
-1.81018
 31
0.0
  0
LINE
  5
6DB
  8
0
 10
-0.233337
 20
-1.81018
 30
0.0
 11
-0.240402
 21
-1.8031
 31
0.0
  0
LINE
  5
6DC
  8
0
 10
-0.226257
 20
-1.81725
 30
0.0
 11
0.760147
 21
-0.830841
 31
0.0
  0
LINE
  5
6DD
  8
0
 10
0.760147
 20
-0.830841
 30
0.0
 11
0.767212
 21
-0.837906
 31
0.0
  0
LINE
  5
6DE
  8
0
 10
0.767212
 20
-0.837906
 30
0.0
 11
-0.219193
 21
-1.82433
 31
0.0
  0
LINE
  5
6DF
  8
0
 10
-0.219193
 20
-1.82433
 30
0.0
 11
-0.226257
 21
-1.81725
 31
0.0
  0
LINE
  5
6E0
  8
0
 10
-0.212128
 20
-1.83139
 30
0.0
 11
0.774277
 21
-0.844971
 31
0.0
  0
LINE
  5
6E1
  8
0
 10
0.774277
 20
-0.844971
 30
0.0
 11
0.781357
 21
-0.852051
 31
0.0
  0
LINE
  5
6E2
  8
0
 10
0.781357
 20
-0.852051
 30
0.0
 11
-0.205048
 21
-1.83847
 31
0.0
  0
LINE
  5
6E3
  8
0
 10
-0.205048
 20
-1.83847
 30
0.0
 11
-0.212128
 21
-1.83139
 31
0.0
  0
LINE
  5
6E4
  8
0
 10
-0.197983
 20
-1.84554
 30
0.0
 11
0.788422
 21
-0.859116
 31
0.0
  0
LINE
  5
6E5
  8
0
 10
0.788422
 20
-0.859116
 30
0.0
 11
0.795486
 21
-0.86618
 31
0.0
  0
LINE
  5
6E6
  8
0
 10
0.795486
 20
-0.86618
 30
0.0
 11
-0.190918
 21
-1.8526
 31
0.0
  0
LINE
  5
6E7
  8
0
 10
-0.190918
 20
-1.8526
 30
0.0
 11
-0.197983
 21
-1.84554
 31
0.0
  0
LINE
  5
6E8
  8
0
 10
-0.183838
 20
-1.85968
 30
0.0
 11
0.802567
 21
-0.87326
 31
0.0
  0
LINE
  5
6E9
  8
0
 10
0.802567
 20
-0.87326
 30
0.0
 11
0.809631
 21
-0.880325
 31
0.0
  0
LINE
  5
6EA
  8
0
 10
0.809631
 20
-0.880325
 30
0.0
 11
-0.176773
 21
-1.86674
 31
0.0
  0
LINE
  5
6EB
  8
0
 10
-0.176773
 20
-1.86674
 30
0.0
 11
-0.183838
 21
-1.85968
 31
0.0
  0
LINE
  5
6EC
  8
0
 10
-0.169708
 20
-1.87381
 30
0.0
 11
0.816696
 21
-0.88739
 31
0.0
  0
LINE
  5
6ED
  8
0
 10
0.816696
 20
-0.88739
 30
0.0
 11
0.823776
 21
-0.89447
 31
0.0
  0
LINE
  5
6EE
  8
0
 10
0.823776
 20
-0.89447
 30
0.0
 11
-0.162628
 21
-1.88089
 31
0.0
  0
LINE
  5
6EF
  8
0
 10
-0.162628
 20
-1.88089
 30
0.0
 11
-0.169708
 21
-1.87381
 31
0.0
  0
LINE
  5
6F0
  8
0
 10
-0.155563
 20
-1.88795
 30
0.0
 11
0.830841
 21
-0.901535
 31
0.0
  0
LINE
  5
6F1
  8
0
 10
0.830841
 20
-0.901535
 30
0.0
 11
0.837906
 21
-0.9086
 31
0.0
  0
LINE
  5
6F2
  8
0
 10
0.837906
 20
-0.9086
 30
0.0
 11
-0.148483
 21
-1.89502
 31
0.0
  0
LINE
  5
6F3
  8
0
 10
-0.148483
 20
-1.89502
 30
0.0
 11
-0.155563
 21
-1.88795
 31
0.0
  0
LINE
  5
6F4
  8
0
 10
-0.141418
 20
-1.9021
 30
0.0
 11
0.844986
 21
-0.91568
 31
0.0
  0
LINE
  5
6F5
  8
0
 10
0.844986
 20
-0.91568
 30
0.0
 11
0.852051
 21
-0.922745
 31
0.0
  0
LINE
  5
6F6
  8
0
 10
0.852051
 20
-0.922745
 30
0.0
 11
-0.134338
 21
-1.90916
 31
0.0
  0
LINE
  5
6F7
  8
0
 10
-0.134338
 20
-1.90916
 30
0.0
 11
-0.141418
 21
-1.9021
 31
0.0
  0
LINE
  5
6F8
  8
0
 10
-0.127274
 20
-1.91624
 30
0.0
 11
0.859131
 21
-0.929825
 31
0.0
  0
LINE
  5
6F9
  8
0
 10
0.859131
 20
-0.929825
 30
0.0
 11
0.866196
 21
-0.93689
 31
0.0
  0
LINE
  5
6FA
  8
0
 10
0.866196
 20
-0.93689
 30
0.0
 11
-0.120193
 21
-1.92331
 31
0.0
  0
LINE
  5
6FB
  8
0
 10
-0.120193
 20
-1.92331
 30
0.0
 11
-0.127274
 21
-1.91624
 31
0.0
  0
LINE
  5
6FC
  8
0
 10
-0.113129
 20
-1.93037
 30
0.0
 11
0.873276
 21
-0.94397
 31
0.0
  0
LINE
  5
6FD
  8
0
 10
0.873276
 20
-0.94397
 30
0.0
 11
0.880341
 21
-0.951035
 31
0.0
  0
LINE
  5
6FE
  8
0
 10
0.880341
 20
-0.951035
 30
0.0
 11
-0.106049
 21
-1.93745
 31
0.0
  0
LINE
  5
6FF
  8
0
 10
-0.106049
 20
-1.93745
 30
0.0
 11
-0.113129
 21
-1.93037
 31
0.0
  0
LINE
  5
700
  8
0
 10
-0.0989838
 20
-1.94452
 30
0.0
 11
0.887421
 21
-0.958115
 31
0.0
  0
LINE
  5
701
  8
0
 10
0.887421
 20
-0.958115
 30
0.0
 11
0.894485
 21
-0.965179
 31
0.0
  0
LINE
  5
702
  8
0
 10
0.894485
 20
-0.965179
 30
0.0
 11
-0.0919189
 21
-1.9516
 31
0.0
  0
LINE
  5
703
  8
0
 10
-0.0919189
 20
-1.9516
 30
0.0
 11
-0.0989838
 21
-1.94452
 31
0.0
  0
LINE
  5
704
  8
0
 10
-0.0848389
 20
-1.95866
 30
0.0
 11
0.901566
 21
-0.97226
 31
0.0
  0
LINE
  5
705
  8
0
 10
0.901566
 20
-0.97226
 30
0.0
 11
0.90863
 21
-0.979324
 31
0.0
  0
LINE
  5
706
  8
0
 10
0.90863
 20
-0.979324
 30
0.0
 11
-0.077774
 21
-1.96574
 31
0.0
  0
LINE
  5
707
  8
0
 10
-0.077774
 20
-1.96574
 30
0.0
 11
-0.0848389
 21
-1.95866
 31
0.0
  0
LINE
  5
708
  8
0
 10
-0.0707092
 20
-1.97281
 30
0.0
 11
0.915695
 21
-0.986389
 31
0.0
  0
LINE
  5
709
  8
0
 10
0.915695
 20
-0.986389
 30
0.0
 11
0.922775
 21
-0.993469
 31
0.0
  0
LINE
  5
70A
  8
0
 10
0.922775
 20
-0.993469
 30
0.0
 11
-0.0636292
 21
-1.97989
 31
0.0
  0
LINE
  5
70B
  8
0
 10
-0.0636292
 20
-1.97989
 30
0.0
 11
-0.0707092
 21
-1.97281
 31
0.0
  0
LINE
  5
70C
  8
0
 10
-0.0565643
 20
-1.98695
 30
0.0
 11
0.92984
 21
-1.00053
 31
0.0
  0
LINE
  5
70D
  8
0
 10
0.92984
 20
-1.00053
 30
0.0
 11
0.93692
 21
-1.00761
 31
0.0
  0
LINE
  5
70E
  8
0
 10
0.93692
 20
-1.00761
 30
0.0
 11
-0.0494843
 21
-1.99403
 31
0.0
  0
LINE
  5
70F
  8
0
 10
-0.0494843
 20
-1.99403
 30
0.0
 11
-0.0565643
 21
-1.98695
 31
0.0
  0
LINE
  5
710
  8
0
 10
-0.0424194
 20
-2.0011
 30
0.0
 11
0.943985
 21
-1.01468
 31
0.0
  0
LINE
  5
711
  8
0
 10
0.943985
 20
-1.01468
 30
0.0
 11
0.95105
 21
-1.02174
 31
0.0
  0
LINE
  5
712
  8
0
 10
0.95105
 20
-1.02174
 30
0.0
 11
-0.0353546
 21
-2.00816
 31
0.0
  0
LINE
  5
713
  8
0
 10
-0.0353546
 20
-2.00816
 30
0.0
 11
-0.0424194
 21
-2.0011
 31
0.0
  0
LINE
  5
714
  8
0
 10
-0.0282745
 20
-2.01524
 30
0.0
 11
0.95813
 21
-1.02882
 31
0.0
  0
LINE
  5
715
  8
0
 10
0.95813
 20
-1.02882
 30
0.0
 11
0.965195
 21
-1.03589
 31
0.0
  0
LINE
  5
716
  8
0
 10
0.965195
 20
-1.03589
 30
0.0
 11
-0.0212097
 21
-2.02231
 31
0.0
  0
LINE
  5
717
  8
0
 10
-0.0212097
 20
-2.02231
 30
0.0
 11
-0.0282745
 21
-2.01524
 31
0.0
  0
LINE
  5
718
  8
0
 10
-0.0141449
 20
-2.02937
 30
0.0
 11
0.97226
 21
-1.04295
 31
0.0
  0
LINE
  5
719
  8
0
 10
0.97226
 20
-1.04295
 30
0.0
 11
0.97934
 21
-1.05003
 31
0.0
  0
LINE
  5
71A
  8
0
 10
0.97934
 20
-1.05003
 30
0.0
 11
-0.00706482
 21
-2.03645
 31
0.0
  0
LINE
  5
71B
  8
0
 10
-0.00706482
 20
-2.03645
 30
0.0
 11
-0.0141449
 21
-2.02937
 31
0.0
  0
LINE
  5
71C
  8
0
 10
0.0
 20
-2.04352
 30
0.0
 11
0.986404
 21
-1.0571
 31
0.0
  0
LINE
  5
71D
  8
0
 10
0.986404
 20
-1.0571
 30
0.0
 11
0.993469
 21
-1.06416
 31
0.0
  0
LINE
  5
71E
  8
0
 10
0.993469
 20
-1.06416
 30
0.0
 11
0.00706482
 21
-2.05058
 31
0.0
  0
LINE
  5
71F
  8
0
 10
0.00706482
 20
-2.05058
 30
0.0
 11
0.0
 21
-2.04352
 31
0.0
  0
LINE
  5
720
  8
0
 10
0.0141449
 20
-2.05766
 30
0.0
 11
1.00055
 21
-1.07124
 31
0.0
  0
LINE
  5
721
  8
0
 10
1.00055
 20
-1.07124
 30
0.0
 11
1.00761
 21
-1.07831
 31
0.0
  0
LINE
  5
722
  8
0
 10
1.00761
 20
-1.07831
 30
0.0
 11
0.0212097
 21
-2.06473
 31
0.0
  0
LINE
  5
723
  8
0
 10
0.0212097
 20
-2.06473
 30
0.0
 11
0.0141449
 21
-2.05766
 31
0.0
  0
LINE
  5
724
  8
0
 10
0.0282745
 20
-2.07179
 30
0.0
 11
1.01469
 21
-1.08539
 31
0.0
  0
LINE
  5
725
  8
0
 10
1.01469
 20
-1.08539
 30
0.0
 11
1.02177
 21
-1.09247
 31
0.0
  0
LINE
  5
726
  8
0
 10
1.02177
 20
-1.09247
 30
0.0
 11
0.0353546
 21
-2.07887
 31
0.0
  0
LINE
  5
727
  8
0
 10
0.0353546
 20
-2.07887
 30
0.0
 11
0.0282745
 21
-2.07179
 31
0.0
  0
LINE
  5
728
  8
0
 10
0.0424194
 20
-2.08594
 30
0.0
 11
1.02884
 21
-1.09953
 31
0.0
  0
LINE
  5
729
  8
0
 10
1.02884
 20
-1.09953
 30
0.0
 11
1.03592
 21
-1.10661
 31
0.0
  0
LINE
  5
72A
  8
0
 10
1.03592
 20
-1.10661
 30
0.0
 11
0.0494995
 21
-2.09302
 31
0.0
  0
LINE
  5
72B
  8
0
 10
0.0494995
 20
-2.09302
 30
0.0
 11
0.0424194
 21
-2.08594
 31
0.0
  0
LINE
  5
72C
  8
0
 10
0.0565643
 20
-2.10008
 30
0.0
 11
1.04298
 21
-1.11368
 31
0.0
  0
LINE
  5
72D
  8
0
 10
1.04298
 20
-1.11368
 30
0.0
 11
1.05005
 21
-1.12074
 31
0.0
  0
LINE
  5
72E
  8
0
 10
1.05005
 20
-1.12074
 30
0.0
 11
0.0636292
 21
-2.10716
 31
0.0
  0
LINE
  5
72F
  8
0
 10
0.0636292
 20
-2.10716
 30
0.0
 11
0.0565643
 21
-2.10008
 31
0.0
  0
LINE
  5
730
  8
0
 10
0.0707092
 20
-2.11423
 30
0.0
 11
1.05713
 21
-1.12782
 31
0.0
  0
LINE
  5
731
  8
0
 10
1.05713
 20
-1.12782
 30
0.0
 11
1.06419
 21
-1.13489
 31
0.0
  0
LINE
  5
732
  8
0
 10
1.06419
 20
-1.13489
 30
0.0
 11
0.077774
 21
-2.12131
 31
0.0
  0
LINE
  5
733
  8
0
 10
0.077774
 20
-2.12131
 30
0.0
 11
0.0707092
 21
-2.11423
 31
0.0
  0
LINE
  5
734
  8
0
 10
0.0848389
 20
-2.12837
 30
0.0
 11
1.07126
 21
-1.14195
 31
0.0
  0
LINE
  5
735
  8
0
 10
1.07126
 20
-1.14195
 30
0.0
 11
1.07834
 21
-1.14903
 31
0.0
  0
LINE
  5
736
  8
0
 10
1.07834
 20
-1.14903
 30
0.0
 11
0.0919189
 21
-2.13545
 31
0.0
  0
LINE
  5
737
  8
0
 10
0.0919189
 20
-2.13545
 30
0.0
 11
0.0848389
 21
-2.12837
 31
0.0
  0
LINE
  5
738
  8
0
 10
0.0989838
 20
-2.14252
 30
0.0
 11
1.0854
 21
-1.1561
 31
0.0
  0
LINE
  5
739
  8
0
 10
1.0854
 20
-1.1561
 30
0.0
 11
1.09247
 21
-1.16316
 31
0.0
  0
LINE
  5
73A
  8
0
 10
1.09247
 20
-1.16316
 30
0.0
 11
0.106049
 21
-2.14958
 31
0.0
  0
LINE
  5
73B
  8
0
 10
0.106049
 20
-2.14958
 30
0.0
 11
0.0989838
 21
-2.14252
 31
0.0
  0
LINE
  5
73C
  8
0
 10
0.113129
 20
-2.15666
 30
0.0
 11
1.09955
 21
-1.17024
 31
0.0
  0
LINE
  5
73D
  8
0
 10
1.09955
 20
-1.17024
 30
0.0
 11
1.10661
 21
-1.17731
 31
0.0
  0
LINE
  5
73E
  8
0
 10
1.10661
 20
-1.17731
 30
0.0
 11
0.120193
 21
-2.16373
 31
0.0
  0
LINE
  5
73F
  8
0
 10
0.120193
 20
-2.16373
 30
0.0
 11
0.113129
 21
-2.15666
 31
0.0
  0
LINE
  5
740
  8
0
 10
0.127274
 20
-2.17081
 30
0.0
 11
1.11369
 21
-1.18439
 31
0.0
  0
LINE
  5
741
  8
0
 10
1.11369
 20
-1.18439
 30
0.0
 11
1.12076
 21
-1.19145
 31
0.0
  0
LINE
  5
742
  8
0
 10
1.12076
 20
-1.19145
 30
0.0
 11
0.134338
 21
-2.17787
 31
0.0
  0
LINE
  5
743
  8
0
 10
0.134338
 20
-2.17787
 30
0.0
 11
0.127274
 21
-2.17081
 31
0.0
  0
LINE
  5
744
  8
0
 10
0.141418
 20
-2.18494
 30
0.0
 11
1.12782
 21
-1.19852
 31
0.0
  0
LINE
  5
745
  8
0
 10
1.12782
 20
-1.19852
 30
0.0
 11
1.1349
 21
-1.2056
 31
0.0
  0
LINE
  5
746
  8
0
 10
1.1349
 20
-1.2056
 30
0.0
 11
0.148483
 21
-2.19202
 31
0.0
  0
LINE
  5
747
  8
0
 10
0.148483
 20
-2.19202
 30
0.0
 11
0.141418
 21
-2.18494
 31
0.0
  0
LINE
  5
748
  8
0
 10
0.155563
 20
-2.19908
 30
0.0
 11
1.14197
 21
-1.21266
 31
0.0
  0
LINE
  5
749
  8
0
 10
1.14197
 20
-1.21266
 30
0.0
 11
1.14905
 21
-1.21974
 31
0.0
  0
LINE
  5
74A
  8
0
 10
1.14905
 20
-1.21974
 30
0.0
 11
0.162628
 21
-2.20615
 31
0.0
  0
LINE
  5
74B
  8
0
 10
0.162628
 20
-2.20615
 30
0.0
 11
0.155563
 21
-2.19908
 31
0.0
  0
LINE
  5
74C
  8
0
 10
0.169708
 20
-2.21323
 30
0.0
 11
1.15611
 21
-1.22681
 31
0.0
  0
LINE
  5
74D
  8
0
 10
1.15611
 20
-1.22681
 30
0.0
 11
1.16319
 21
-1.23389
 31
0.0
  0
LINE
  5
74E
  8
0
 10
1.16319
 20
-1.23389
 30
0.0
 11
0.176773
 21
-2.22029
 31
0.0
  0
LINE
  5
74F
  8
0
 10
0.176773
 20
-2.22029
 30
0.0
 11
0.169708
 21
-2.21323
 31
0.0
  0
LINE
  5
750
  8
0
 10
0.183838
 20
-2.22737
 30
0.0
 11
1.17026
 21
-1.24095
 31
0.0
  0
LINE
  5
751
  8
0
 10
1.17026
 20
-1.24095
 30
0.0
 11
1.17734
 21
-1.24803
 31
0.0
  0
LINE
  5
752
  8
0
 10
1.17734
 20
-1.24803
 30
0.0
 11
0.190918
 21
-2.23444
 31
0.0
  0
LINE
  5
753
  8
0
 10
0.190918
 20
-2.23444
 30
0.0
 11
0.183838
 21
-2.22737
 31
0.0
  0
ENDSEC
  0
EOF
