  0
SECTION
  2
HEADER
  9
$ACADVER
  1
AC1009
  9
$DWGCODEPAGE
  3
ANSI_1252
  9
$INSBASE
 10
0.0
 20
0.0
 30
0.0
  9
$EXTMIN
 10
1e+20
 20
1e+20
 30
1e+20
  9
$EXTMAX
 10
-1e+20
 20
-1e+20
 30
-1e+20
  9
$LIMMIN
 10
0.0
 20
0.0
  9
$LIMMAX
 10
420.0
 20
297.0
  9
$ORTHOMODE
 70
0
  9
$REGENMODE
 70
1
  9
$FILLMODE
 70
1
  9
$DRAGMODE
 70
2
  9
$QTEXTMODE
 70
0
  9
$MIRRTEXT
 70
1
  9
$OSMODE
 70
20583
  9
$LTSCALE
 40
1.0
  9
$ATTMODE
 70
1
  9
$TEXTSIZE
 40
2.5
  9
$TRACEWID
 40
1.0
  9
$TEXTSTYLE
  7
Standard
  9
$CLAYER
  8
0
  9
$CELTYPE
  6
ByLayer
  9
$CECOLOR
 62
256
  9
$DIMSCALE
 40
1.0
  9
$DIMASZ
 40
2.5
  9
$DIMEXO
 40
0.625
  9
$DIMDLI
 40
3.75
  9
$DIMRND
 40
0.0
  9
$DIMDLE
 40
0.0
  9
$DIMEXE
 40
1.25
  9
$DIMTP
 40
0.0
  9
$DIMTM
 40
0.0
  9
$DIMTXT
 40
2.5
  9
$DIMCEN
 40
2.5
  9
$DIMTSZ
 40
0.0
  9
$DIMTOL
 70
0
  9
$DIMLIM
 70
0
  9
$DIMTIH
 70
0
  9
$DIMTOH
 70
0
  9
$DIMSE1
 70
0
  9
$DIMSE2
 70
0
  9
$DIMTAD
 70
1
  9
$DIMZIN
 70
8
  9
$DIMBLK
  1

  9
$DIMASO
 70
1
  9
$DIMSHO
 70
1
  9
$DIMPOST
  1

  9
$DIMAPOST
  1

  9
$DIMALT
 70
0
  9
$DIMALTD
 70
3
  9
$DIMALTF
 40
0.03937007874
  9
$DIMLFAC
 40
1.0
  9
$DIMTOFL
 70
1
  9
$DIMTVP
 40
0.0
  9
$DIMTIX
 70
0
  9
$DIMSOXD
 70
0
  9
$DIMSAH
 70
0
  9
$DIMBLK1
  1

  9
$DIMBLK2
  1

  9
$DIMSTYLE
  2
ISO-25
  9
$DIMCLRD
 70
0
  9
$DIMCLRE
 70
0
  9
$DIMCLRT
 70
0
  9
$DIMTFAC
 40
1.0
  9
$DIMGAP
 40
0.625
  9
$COORDS
 70
1
  9
$ATTDIA
 70
0
  9
$ATTREQ
 70
1
  9
$HANDLING
 70
1
  9
$LUNITS
 70
2
  9
$LUPREC
 70
4
  9
$SKETCHINC
 40
1.0
  9
$FILLETRAD
 40
10.0
  9
$AUNITS
 70
0
  9
$AUPREC
 70
2
  9
$MENU
  1
.
  9
$ELEVATION
 40
0.0
  9
$PELEVATION
 40
0.0
  9
$THICKNESS
 40
0.0
  9
$LIMCHECK
 70
0
  9
$CHAMFERA
 40
0.0
  9
$CHAMFERB
 40
0.0
  9
$SKPOLY
 70
0
  9
$TDCREATE
 40
2460710.0588425924
  9
$TDUPDATE
 40
2460710.0588425924
  9
$TDINDWG
 40
0.0
  9
$TDUSRTIMER
 40
0.0
  9
$USRTIMER
 70
1
  9
$ANGBASE
 50
0.0
  9
$ANGDIR
 70
0
  9
$PDMODE
 70
0
  9
$PDSIZE
 40
0.0
  9
$PLINEWID
 40
0.0
  9
$SPLFRAME
 70
0
  9
$SPLINETYPE
 70
6
  9
$SPLINESEGS
 70
8
  9
$HANDSEED
  5
2F8
  9
$SURFTAB1
 70
6
  9
$SURFTAB2
 70
6
  9
$SURFTYPE
 70
6
  9
$SURFU
 70
6
  9
$SURFV
 70
6
  9
$UCSNAME
  2

  9
$UCSORG
 10
0.0
 20
0.0
 30
0.0
  9
$UCSXDIR
 10
1.0
 20
0.0
 30
0.0
  9
$UCSYDIR
 10
0.0
 20
1.0
 30
0.0
  9
$PUCSNAME
  2

  9
$PUCSORG
 10
0.0
 20
0.0
 30
0.0
  9
$PUCSXDIR
 10
1.0
 20
0.0
 30
0.0
  9
$PUCSYDIR
 10
0.0
 20
1.0
 30
0.0
  9
$USERI1
 70
0
  9
$USERI2
 70
0
  9
$USERI3
 70
0
  9
$USERI4
 70
0
  9
$USERI5
 70
0
  9
$USERR1
 40
0.0
  9
$USERR2
 40
0.0
  9
$USERR3
 40
0.0
  9
$USERR4
 40
0.0
  9
$USERR5
 40
0.0
  9
$WORLDVIEW
 70
1
  9
$SHADEDGE
 70
3
  9
$SHADEDIF
 70
70
  9
$TILEMODE
 70
1
  9
$MAXACTVP
 70
64
  9
$PLIMCHECK
 70
0
  9
$PEXTMIN
 10
1e+20
 20
1e+20
 30
1e+20
  9
$PEXTMAX
 10
-1e+20
 20
-1e+20
 30
-1e+20
  9
$PLIMMIN
 10
0.0
 20
0.0
  9
$PLIMMAX
 10
420.0
 20
297.0
  9
$UNITMODE
 70
0
  9
$VISRETAIN
 70
1
  9
$PLINEGEN
 70
0
  9
$PSLTSCALE
 70
1
  0
ENDSEC
  0
SECTION
  2
TABLES
  0
TABLE
  2
VPORT
 70
1
  0
VPORT
  5
2EC
  2
*Active
 70
0
 10
0.0
 20
0.0
 11
1.0
 21
1.0
 12
0.0
 22
0.0
 13
0.0
 23
0.0
 14
0.5
 24
0.5
 15
0.5
 25
0.5
 16
0.0
 26
0.0
 36
1.0
 17
0.0
 27
0.0
 37
0.0
 40
1000.0
 41
1.34
 42
50.0
 43
0.0
 44
0.0
 50
0.0
 51
0.0
 71
0
 72
1000
 73
1
 74
3
 75
0
 76
0
 77
0
 78
0
  0
ENDTAB
  0
TABLE
  2
LTYPE
 70
3
  0
LTYPE
  5
2ED
  2
ByBlock
 70
0
  3

 72
65
 73
0
 40
0.0
  0
LTYPE
  5
2EE
  2
ByLayer
 70
0
  3

 72
65
 73
0
 40
0.0
  0
LTYPE
  5
2EF
  2
Continuous
 70
0
  3

 72
65
 73
0
 40
0.0
  0
ENDTAB
  0
TABLE
  2
LAYER
 70
2
  0
LAYER
  5
2F0
  2
0
 70
0
 62
7
  6
Continuous
  0
LAYER
  5
2F1
  2
Defpoints
 70
0
 62
7
  6
Continuous
  0
ENDTAB
  0
TABLE
  2
STYLE
 70
1
  0
STYLE
  5
2F2
  2
Standard
 70
0
 40
0.0
 41
1.0
 50
0.0
 71
0
 42
2.5
  3
txt
  4

  0
ENDTAB
  0
TABLE
  2
VIEW
 70
0
  0
ENDTAB
  0
TABLE
  2
UCS
 70
0
  0
ENDTAB
  0
TABLE
  2
APPID
 70
3
  0
APPID
  5
2F3
  2
ACAD
 70
0
  0
APPID
  5
2F6
  2
HATCHBACKGROUNDCOLOR
 70
0
  0
APPID
  5
2F7
  2
EZDXF
 70
0
  0
ENDTAB
  0
TABLE
  2
DIMSTYLE
 70
1
  0
DIMSTYLE
105
2F4
  2
Standard
 70
0
  3

  4

  5

  6

  7

 40
1.0
 41
2.5
 42
0.625
 43
3.75
 44
1.25
 45
0.0
 46
0.0
 47
0.0
 48
0.0
140
2.5
141
2.5
142
0.0
143
0.03937007874
144
1.0
145
0.0
146
1.0
147
0.625
 71
0
 72
0
 73
0
 74
0
 75
0
 76
0
 77
1
 78
8
170
0
171
3
172
1
173
0
174
0
175
0
176
0
177
0
178
0
  0
ENDTAB
  0
ENDSEC
  0
SECTION
  2
BLOCKS
  0
BLOCK
  5
2CD
  8
0
  2
$Model_Space
 70
0
 10
0.0
 20
0.0
 30
0.0
  3
$Model_Space
  1

1001
EZDXF
1000
WRITTEN_BY_EZDXF
1000
1.3.5 @ 2025-02-03T06:24:44.937121+00:00
  0
ENDBLK
  5
2CE
  8
0
  0
BLOCK
  5
2CF
  8
0
  2
$Paper_Space
 70
0
 10
0.0
 20
0.0
 30
0.0
  3
$Paper_Space
  1

  0
ENDBLK
  5
2D0
  8
0
  0
ENDSEC
  0
SECTION
  2
ENTITIES
  0
LINE
  5
100
  8
0
 10
0.920364
 20
-74.9944
 30
0.0
 11
1.84059
 21
-74.9774
 31
0.0
  0
LINE
  5
101
  8
0
 10
1.84059
 20
-74.9774
 30
0.0
 11
2.76053
 21
-74.9492
 31
0.0
  0
LINE
  5
102
  8
0
 10
2.76053
 20
-74.9492
 30
0.0
 11
3.68007
 21
-74.9097
 31
0.0
  0
LINE
  5
103
  8
0
 10
3.68007
 20
-74.9097
 30
0.0
 11
4.59904
 21
-74.8589
 31
0.0
  0
LINE
  5
104
  8
0
 10
4.59904
 20
-74.8589
 30
0.0
 11
5.51733
 21
-74.7968
 31
0.0
  0
LINE
  5
105
  8
0
 10
5.51733
 20
-74.7968
 30
0.0
 11
6.43478
 21
-74.7234
 31
0.0
  0
LINE
  5
106
  8
0
 10
6.43478
 20
-74.7234
 30
0.0
 11
7.35127
 21
-74.6389
 31
0.0
  0
LINE
  5
107
  8
0
 10
7.35127
 20
-74.6389
 30
0.0
 11
8.26666
 21
-74.543
 31
0.0
  0
LINE
  5
108
  8
0
 10
8.26666
 20
-74.543
 30
0.0
 11
9.18079
 21
-74.436
 31
0.0
  0
LINE
  5
109
  8
0
 10
9.18079
 20
-74.436
 30
0.0
 11
10.0936
 21
-74.3177
 31
0.0
  0
LINE
  5
10A
  8
0
 10
10.0936
 20
-74.3177
 30
0.0
 11
11.0048
 21
-74.1882
 31
0.0
  0
LINE
  5
10B
  8
0
 10
11.0048
 20
-74.1882
 30
0.0
 11
11.9144
 21
-74.0476
 31
0.0
  0
LINE
  5
10C
  8
0
 10
11.9144
 20
-74.0476
 30
0.0
 11
12.8221
 21
-73.8958
 31
0.0
  0
LINE
  5
10D
  8
0
 10
12.8221
 20
-73.8958
 30
0.0
 11
13.728
 21
-73.7329
 31
0.0
  0
LINE
  5
10E
  8
0
 10
13.728
 20
-73.7329
 30
0.0
 11
14.6318
 21
-73.5589
 31
0.0
  0
LINE
  5
10F
  8
0
 10
14.6318
 20
-73.5589
 30
0.0
 11
15.5333
 21
-73.3738
 31
0.0
  0
LINE
  5
110
  8
0
 10
15.5333
 20
-73.3738
 30
0.0
 11
16.4326
 21
-73.1777
 31
0.0
  0
LINE
  5
111
  8
0
 10
16.4326
 20
-73.1777
 30
0.0
 11
17.3293
 21
-72.9705
 31
0.0
  0
LINE
  5
112
  8
0
 10
17.3293
 20
-72.9705
 30
0.0
 11
18.2235
 21
-72.7523
 31
0.0
  0
LINE
  5
113
  8
0
 10
18.2235
 20
-72.7523
 30
0.0
 11
19.1149
 21
-72.5232
 31
0.0
  0
LINE
  5
114
  8
0
 10
19.1149
 20
-72.5232
 30
0.0
 11
20.0034
 21
-72.2832
 31
0.0
  0
LINE
  5
115
  8
0
 10
20.0034
 20
-72.2832
 30
0.0
 11
20.889
 21
-72.0323
 31
0.0
  0
LINE
  5
116
  8
0
 10
20.889
 20
-72.0323
 30
0.0
 11
21.7713
 21
-71.7705
 31
0.0
  0
LINE
  5
117
  8
0
 10
21.7713
 20
-71.7705
 30
0.0
 11
22.6504
 21
-71.498
 31
0.0
  0
LINE
  5
118
  8
0
 10
22.6504
 20
-71.498
 30
0.0
 11
23.5261
 21
-71.2146
 31
0.0
  0
LINE
  5
119
  8
0
 10
23.5261
 20
-71.2146
 30
0.0
 11
24.3983
 21
-70.9205
 31
0.0
  0
LINE
  5
11A
  8
0
 10
24.3983
 20
-70.9205
 30
0.0
 11
25.2667
 21
-70.6158
 31
0.0
  0
LINE
  5
11B
  8
0
 10
25.2667
 20
-70.6158
 30
0.0
 11
26.1314
 21
-70.3004
 31
0.0
  0
LINE
  5
11C
  8
0
 10
26.1314
 20
-70.3004
 30
0.0
 11
26.9921
 21
-69.9745
 31
0.0
  0
LINE
  5
11D
  8
0
 10
26.9921
 20
-69.9745
 30
0.0
 11
27.8488
 21
-69.638
 31
0.0
  0
LINE
  5
11E
  8
0
 10
27.8488
 20
-69.638
 30
0.0
 11
28.7012
 21
-69.291
 31
0.0
  0
LINE
  5
11F
  8
0
 10
28.7012
 20
-69.291
 30
0.0
 11
29.5494
 21
-68.9335
 31
0.0
  0
LINE
  5
120
  8
0
 10
29.5494
 20
-68.9335
 30
0.0
 11
30.3931
 21
-68.5657
 31
0.0
  0
LINE
  5
121
  8
0
 10
30.3931
 20
-68.5657
 30
0.0
 11
31.2322
 21
-68.1876
 31
0.0
  0
LINE
  5
122
  8
0
 10
31.2322
 20
-68.1876
 30
0.0
 11
32.0666
 21
-67.7992
 31
0.0
  0
LINE
  5
123
  8
0
 10
32.0666
 20
-67.7992
 30
0.0
 11
32.8962
 21
-67.4006
 31
0.0
  0
LINE
  5
124
  8
0
 10
32.8962
 20
-67.4006
 30
0.0
 11
33.7208
 21
-66.9918
 31
0.0
  0
LINE
  5
125
  8
0
 10
33.7208
 20
-66.9918
 30
0.0
 11
34.5404
 21
-66.573
 31
0.0
  0
LINE
  5
126
  8
0
 10
34.5404
 20
-66.573
 30
0.0
 11
35.3548
 21
-66.1441
 31
0.0
  0
LINE
  5
127
  8
0
 10
35.3548
 20
-66.1441
 30
0.0
 11
36.1638
 21
-65.7052
 31
0.0
  0
LINE
  5
128
  8
0
 10
36.1638
 20
-65.7052
 30
0.0
 11
36.9674
 21
-65.2565
 31
0.0
  0
LINE
  5
129
  8
0
 10
36.9674
 20
-65.2565
 30
0.0
 11
37.7654
 21
-64.798
 31
0.0
  0
LINE
  5
12A
  8
0
 10
37.7654
 20
-64.798
 30
0.0
 11
38.5577
 21
-64.3296
 31
0.0
  0
LINE
  5
12B
  8
0
 10
38.5577
 20
-64.3296
 30
0.0
 11
39.3442
 21
-63.8516
 31
0.0
  0
LINE
  5
12C
  8
0
 10
39.3442
 20
-63.8516
 30
0.0
 11
40.1248
 21
-63.364
 31
0.0
  0
LINE
  5
12D
  8
0
 10
40.1248
 20
-63.364
 30
0.0
 11
40.8994
 21
-62.8669
 31
0.0
  0
LINE
  5
12E
  8
0
 10
40.8994
 20
-62.8669
 30
0.0
 11
41.6678
 21
-62.3602
 31
0.0
  0
LINE
  5
12F
  8
0
 10
41.6678
 20
-62.3602
 30
0.0
 11
42.4299
 21
-61.8442
 31
0.0
  0
LINE
  5
130
  8
0
 10
42.4299
 20
-61.8442
 30
0.0
 11
43.1856
 21
-61.3188
 31
0.0
  0
LINE
  5
131
  8
0
 10
43.1856
 20
-61.3188
 30
0.0
 11
43.9348
 21
-60.7843
 31
0.0
  0
LINE
  5
132
  8
0
 10
43.9348
 20
-60.7843
 30
0.0
 11
44.6774
 21
-60.2406
 31
0.0
  0
LINE
  5
133
  8
0
 10
44.6774
 20
-60.2406
 30
0.0
 11
45.4133
 21
-59.6878
 31
0.0
  0
LINE
  5
134
  8
0
 10
45.4133
 20
-59.6878
 30
0.0
 11
46.1424
 21
-59.126
 31
0.0
  0
LINE
  5
135
  8
0
 10
46.1424
 20
-59.126
 30
0.0
 11
46.8645
 21
-58.5553
 31
0.0
  0
LINE
  5
136
  8
0
 10
46.8645
 20
-58.5553
 30
0.0
 11
47.5795
 21
-57.9758
 31
0.0
  0
LINE
  5
137
  8
0
 10
47.5795
 20
-57.9758
 30
0.0
 11
48.2874
 21
-57.3875
 31
0.0
  0
LINE
  5
138
  8
0
 10
48.2874
 20
-57.3875
 30
0.0
 11
48.988
 21
-56.7907
 31
0.0
  0
LINE
  5
139
  8
0
 10
48.988
 20
-56.7907
 30
0.0
 11
49.6812
 21
-56.1852
 31
0.0
  0
LINE
  5
13A
  8
0
 10
49.6812
 20
-56.1852
 30
0.0
 11
50.3669
 21
-55.5713
 31
0.0
  0
LINE
  5
13B
  8
0
 10
50.3669
 20
-55.5713
 30
0.0
 11
51.0451
 21
-54.9491
 31
0.0
  0
LINE
  5
13C
  8
0
 10
51.0451
 20
-54.9491
 30
0.0
 11
51.7155
 21
-54.3185
 31
0.0
  0
LINE
  5
13D
  8
0
 10
51.7155
 20
-54.3185
 30
0.0
 11
52.3782
 21
-53.6798
 31
0.0
  0
LINE
  5
13E
  8
0
 10
52.3782
 20
-53.6798
 30
0.0
 11
53.033
 21
-53.033
 31
0.0
  0
LINE
  5
13F
  8
0
 10
53.033
 20
-53.033
 30
0.0
 11
53.6798
 21
-52.3782
 31
0.0
  0
LINE
  5
140
  8
0
 10
53.6798
 20
-52.3782
 30
0.0
 11
54.3185
 21
-51.7155
 31
0.0
  0
LINE
  5
141
  8
0
 10
54.3185
 20
-51.7155
 30
0.0
 11
54.9491
 21
-51.0451
 31
0.0
  0
LINE
  5
142
  8
0
 10
54.9491
 20
-51.0451
 30
0.0
 11
55.5713
 21
-50.3669
 31
0.0
  0
LINE
  5
143
  8
0
 10
55.5713
 20
-50.3669
 30
0.0
 11
56.1852
 21
-49.6812
 31
0.0
  0
LINE
  5
144
  8
0
 10
56.1852
 20
-49.6812
 30
0.0
 11
56.7907
 21
-48.988
 31
0.0
  0
LINE
  5
145
  8
0
 10
56.7907
 20
-48.988
 30
0.0
 11
57.3875
 21
-48.2874
 31
0.0
  0
LINE
  5
146
  8
0
 10
57.3875
 20
-48.2874
 30
0.0
 11
57.9758
 21
-47.5795
 31
0.0
  0
LINE
  5
147
  8
0
 10
57.9758
 20
-47.5795
 30
0.0
 11
58.5553
 21
-46.8645
 31
0.0
  0
LINE
  5
148
  8
0
 10
58.5553
 20
-46.8645
 30
0.0
 11
59.126
 21
-46.1424
 31
0.0
  0
LINE
  5
149
  8
0
 10
59.126
 20
-46.1424
 30
0.0
 11
59.6878
 21
-45.4133
 31
0.0
  0
LINE
  5
14A
  8
0
 10
59.6878
 20
-45.4133
 30
0.0
 11
60.2406
 21
-44.6774
 31
0.0
  0
LINE
  5
14B
  8
0
 10
60.2406
 20
-44.6774
 30
0.0
 11
60.7843
 21
-43.9348
 31
0.0
  0
LINE
  5
14C
  8
0
 10
60.7843
 20
-43.9348
 30
0.0
 11
61.3188
 21
-43.1856
 31
0.0
  0
LINE
  5
14D
  8
0
 10
61.3188
 20
-43.1856
 30
0.0
 11
61.8442
 21
-42.4299
 31
0.0
  0
LINE
  5
14E
  8
0
 10
61.8442
 20
-42.4299
 30
0.0
 11
62.3602
 21
-41.6678
 31
0.0
  0
LINE
  5
14F
  8
0
 10
62.3602
 20
-41.6678
 30
0.0
 11
62.8669
 21
-40.8994
 31
0.0
  0
LINE
  5
150
  8
0
 10
62.8669
 20
-40.8994
 30
0.0
 11
63.364
 21
-40.1248
 31
0.0
  0
LINE
  5
151
  8
0
 10
63.364
 20
-40.1248
 30
0.0
 11
63.8516
 21
-39.3442
 31
0.0
  0
LINE
  5
152
  8
0
 10
63.8516
 20
-39.3442
 30
0.0
 11
64.3296
 21
-38.5577
 31
0.0
  0
LINE
  5
153
  8
0
 10
64.3296
 20
-38.5577
 30
0.0
 11
64.798
 21
-37.7654
 31
0.0
  0
LINE
  5
154
  8
0
 10
64.798
 20
-37.7654
 30
0.0
 11
65.2565
 21
-36.9674
 31
0.0
  0
LINE
  5
155
  8
0
 10
65.2565
 20
-36.9674
 30
0.0
 11
65.7052
 21
-36.1638
 31
0.0
  0
LINE
  5
156
  8
0
 10
65.7052
 20
-36.1638
 30
0.0
 11
66.1441
 21
-35.3548
 31
0.0
  0
LINE
  5
157
  8
0
 10
66.1441
 20
-35.3548
 30
0.0
 11
66.573
 21
-34.5404
 31
0.0
  0
LINE
  5
158
  8
0
 10
66.573
 20
-34.5404
 30
0.0
 11
66.9918
 21
-33.7208
 31
0.0
  0
LINE
  5
159
  8
0
 10
66.9918
 20
-33.7208
 30
0.0
 11
67.4006
 21
-32.8962
 31
0.0
  0
LINE
  5
15A
  8
0
 10
67.4006
 20
-32.8962
 30
0.0
 11
67.7992
 21
-32.0666
 31
0.0
  0
LINE
  5
15B
  8
0
 10
67.7992
 20
-32.0666
 30
0.0
 11
68.1876
 21
-31.2322
 31
0.0
  0
LINE
  5
15C
  8
0
 10
68.1876
 20
-31.2322
 30
0.0
 11
68.5657
 21
-30.3931
 31
0.0
  0
LINE
  5
15D
  8
0
 10
68.5657
 20
-30.3931
 30
0.0
 11
68.9335
 21
-29.5494
 31
0.0
  0
LINE
  5
15E
  8
0
 10
68.9335
 20
-29.5494
 30
0.0
 11
69.291
 21
-28.7012
 31
0.0
  0
LINE
  5
15F
  8
0
 10
69.291
 20
-28.7012
 30
0.0
 11
69.638
 21
-27.8488
 31
0.0
  0
LINE
  5
160
  8
0
 10
69.638
 20
-27.8488
 30
0.0
 11
69.9745
 21
-26.9921
 31
0.0
  0
LINE
  5
161
  8
0
 10
69.9745
 20
-26.9921
 30
0.0
 11
70.3004
 21
-26.1314
 31
0.0
  0
LINE
  5
162
  8
0
 10
70.3004
 20
-26.1314
 30
0.0
 11
70.6158
 21
-25.2667
 31
0.0
  0
LINE
  5
163
  8
0
 10
70.6158
 20
-25.2667
 30
0.0
 11
70.9205
 21
-24.3983
 31
0.0
  0
LINE
  5
164
  8
0
 10
70.9205
 20
-24.3983
 30
0.0
 11
71.2146
 21
-23.5261
 31
0.0
  0
LINE
  5
165
  8
0
 10
71.2146
 20
-23.5261
 30
0.0
 11
71.498
 21
-22.6504
 31
0.0
  0
LINE
  5
166
  8
0
 10
71.498
 20
-22.6504
 30
0.0
 11
71.7705
 21
-21.7713
 31
0.0
  0
LINE
  5
167
  8
0
 10
71.7705
 20
-21.7713
 30
0.0
 11
72.0323
 21
-20.889
 31
0.0
  0
LINE
  5
168
  8
0
 10
72.0323
 20
-20.889
 30
0.0
 11
72.2832
 21
-20.0034
 31
0.0
  0
LINE
  5
169
  8
0
 10
72.2832
 20
-20.0034
 30
0.0
 11
72.5232
 21
-19.1149
 31
0.0
  0
LINE
  5
16A
  8
0
 10
72.5232
 20
-19.1149
 30
0.0
 11
72.7523
 21
-18.2235
 31
0.0
  0
LINE
  5
16B
  8
0
 10
72.7523
 20
-18.2235
 30
0.0
 11
72.9705
 21
-17.3293
 31
0.0
  0
LINE
  5
16C
  8
0
 10
72.9705
 20
-17.3293
 30
0.0
 11
73.1777
 21
-16.4326
 31
0.0
  0
LINE
  5
16D
  8
0
 10
73.1777
 20
-16.4326
 30
0.0
 11
73.3738
 21
-15.5333
 31
0.0
  0
LINE
  5
16E
  8
0
 10
73.3738
 20
-15.5333
 30
0.0
 11
73.5589
 21
-14.6318
 31
0.0
  0
LINE
  5
16F
  8
0
 10
73.5589
 20
-14.6318
 30
0.0
 11
73.7329
 21
-13.728
 31
0.0
  0
LINE
  5
170
  8
0
 10
73.7329
 20
-13.728
 30
0.0
 11
73.8958
 21
-12.8221
 31
0.0
  0
LINE
  5
171
  8
0
 10
73.8958
 20
-12.8221
 30
0.0
 11
74.0476
 21
-11.9144
 31
0.0
  0
LINE
  5
172
  8
0
 10
74.0476
 20
-11.9144
 30
0.0
 11
74.1882
 21
-11.0048
 31
0.0
  0
LINE
  5
173
  8
0
 10
74.1882
 20
-11.0048
 30
0.0
 11
74.3177
 21
-10.0936
 31
0.0
  0
LINE
  5
174
  8
0
 10
74.3177
 20
-10.0936
 30
0.0
 11
74.436
 21
-9.18079
 31
0.0
  0
LINE
  5
175
  8
0
 10
74.436
 20
-9.18079
 30
0.0
 11
74.543
 21
-8.26666
 31
0.0
  0
LINE
  5
176
  8
0
 10
74.543
 20
-8.26666
 30
0.0
 11
74.6389
 21
-7.35127
 31
0.0
  0
LINE
  5
177
  8
0
 10
74.6389
 20
-7.35127
 30
0.0
 11
74.7234
 21
-6.43478
 31
0.0
  0
LINE
  5
178
  8
0
 10
74.7234
 20
-6.43478
 30
0.0
 11
74.7968
 21
-5.51733
 31
0.0
  0
LINE
  5
179
  8
0
 10
74.7968
 20
-5.51733
 30
0.0
 11
74.8589
 21
-4.59904
 31
0.0
  0
LINE
  5
17A
  8
0
 10
74.8589
 20
-4.59904
 30
0.0
 11
74.9097
 21
-3.68007
 31
0.0
  0
LINE
  5
17B
  8
0
 10
74.9097
 20
-3.68007
 30
0.0
 11
74.9492
 21
-2.76053
 31
0.0
  0
LINE
  5
17C
  8
0
 10
74.9492
 20
-2.76053
 30
0.0
 11
74.9774
 21
-1.84059
 31
0.0
  0
LINE
  5
17D
  8
0
 10
74.9774
 20
-1.84059
 30
0.0
 11
74.9944
 21
-0.920364
 31
0.0
  0
LINE
  5
17E
  8
0
 10
74.9944
 20
-0.920364
 30
0.0
 11
75.0
 21
0.0
 31
0.0
  0
LINE
  5
17F
  8
0
 10
75.0
 20
0.0
 30
0.0
 11
74.9944
 21
0.920364
 31
0.0
  0
LINE
  5
180
  8
0
 10
74.9944
 20
0.920364
 30
0.0
 11
74.9774
 21
1.84059
 31
0.0
  0
LINE
  5
181
  8
0
 10
74.9774
 20
1.84059
 30
0.0
 11
74.9492
 21
2.76053
 31
0.0
  0
LINE
  5
182
  8
0
 10
74.9492
 20
2.76053
 30
0.0
 11
74.9097
 21
3.68007
 31
0.0
  0
LINE
  5
183
  8
0
 10
74.9097
 20
3.68007
 30
0.0
 11
74.8589
 21
4.59904
 31
0.0
  0
LINE
  5
184
  8
0
 10
74.8589
 20
4.59904
 30
0.0
 11
74.7968
 21
5.51733
 31
0.0
  0
LINE
  5
185
  8
0
 10
74.7968
 20
5.51733
 30
0.0
 11
74.7234
 21
6.43478
 31
0.0
  0
LINE
  5
186
  8
0
 10
74.7234
 20
6.43478
 30
0.0
 11
74.6389
 21
7.35127
 31
0.0
  0
LINE
  5
187
  8
0
 10
74.6389
 20
7.35127
 30
0.0
 11
74.543
 21
8.26666
 31
0.0
  0
LINE
  5
188
  8
0
 10
74.543
 20
8.26666
 30
0.0
 11
74.436
 21
9.18079
 31
0.0
  0
LINE
  5
189
  8
0
 10
74.436
 20
9.18079
 30
0.0
 11
74.3177
 21
10.0936
 31
0.0
  0
LINE
  5
18A
  8
0
 10
74.3177
 20
10.0936
 30
0.0
 11
74.1882
 21
11.0048
 31
0.0
  0
LINE
  5
18B
  8
0
 10
74.1882
 20
11.0048
 30
0.0
 11
74.0476
 21
11.9144
 31
0.0
  0
LINE
  5
18C
  8
0
 10
74.0476
 20
11.9144
 30
0.0
 11
73.8958
 21
12.8221
 31
0.0
  0
LINE
  5
18D
  8
0
 10
73.8958
 20
12.8221
 30
0.0
 11
73.7329
 21
13.728
 31
0.0
  0
LINE
  5
18E
  8
0
 10
73.7329
 20
13.728
 30
0.0
 11
73.5589
 21
14.6318
 31
0.0
  0
LINE
  5
18F
  8
0
 10
73.5589
 20
14.6318
 30
0.0
 11
73.3738
 21
15.5333
 31
0.0
  0
LINE
  5
190
  8
0
 10
73.3738
 20
15.5333
 30
0.0
 11
73.1777
 21
16.4326
 31
0.0
  0
LINE
  5
191
  8
0
 10
73.1777
 20
16.4326
 30
0.0
 11
72.9705
 21
17.3293
 31
0.0
  0
LINE
  5
192
  8
0
 10
72.9705
 20
17.3293
 30
0.0
 11
72.7523
 21
18.2235
 31
0.0
  0
LINE
  5
193
  8
0
 10
72.7523
 20
18.2235
 30
0.0
 11
72.5232
 21
19.1149
 31
0.0
  0
LINE
  5
194
  8
0
 10
72.5232
 20
19.1149
 30
0.0
 11
72.2832
 21
20.0034
 31
0.0
  0
LINE
  5
195
  8
0
 10
72.2832
 20
20.0034
 30
0.0
 11
72.0323
 21
20.889
 31
0.0
  0
LINE
  5
196
  8
0
 10
72.0323
 20
20.889
 30
0.0
 11
71.7705
 21
21.7713
 31
0.0
  0
LINE
  5
197
  8
0
 10
71.7705
 20
21.7713
 30
0.0
 11
71.498
 21
22.6504
 31
0.0
  0
LINE
  5
198
  8
0
 10
71.498
 20
22.6504
 30
0.0
 11
71.2146
 21
23.5261
 31
0.0
  0
LINE
  5
199
  8
0
 10
71.2146
 20
23.5261
 30
0.0
 11
70.9205
 21
24.3983
 31
0.0
  0
LINE
  5
19A
  8
0
 10
70.9205
 20
24.3983
 30
0.0
 11
70.6158
 21
25.2667
 31
0.0
  0
LINE
  5
19B
  8
0
 10
70.6158
 20
25.2667
 30
0.0
 11
70.3004
 21
26.1314
 31
0.0
  0
LINE
  5
19C
  8
0
 10
70.3004
 20
26.1314
 30
0.0
 11
69.9745
 21
26.9921
 31
0.0
  0
LINE
  5
19D
  8
0
 10
69.9745
 20
26.9921
 30
0.0
 11
69.638
 21
27.8488
 31
0.0
  0
LINE
  5
19E
  8
0
 10
69.638
 20
27.8488
 30
0.0
 11
69.291
 21
28.7012
 31
0.0
  0
LINE
  5
19F
  8
0
 10
69.291
 20
28.7012
 30
0.0
 11
68.9335
 21
29.5494
 31
0.0
  0
LINE
  5
1A0
  8
0
 10
68.9335
 20
29.5494
 30
0.0
 11
68.5657
 21
30.3931
 31
0.0
  0
LINE
  5
1A1
  8
0
 10
68.5657
 20
30.3931
 30
0.0
 11
68.1876
 21
31.2322
 31
0.0
  0
LINE
  5
1A2
  8
0
 10
68.1876
 20
31.2322
 30
0.0
 11
67.7992
 21
32.0666
 31
0.0
  0
LINE
  5
1A3
  8
0
 10
67.7992
 20
32.0666
 30
0.0
 11
67.4006
 21
32.8962
 31
0.0
  0
LINE
  5
1A4
  8
0
 10
67.4006
 20
32.8962
 30
0.0
 11
66.9918
 21
33.7208
 31
0.0
  0
LINE
  5
1A5
  8
0
 10
66.9918
 20
33.7208
 30
0.0
 11
66.573
 21
34.5404
 31
0.0
  0
LINE
  5
1A6
  8
0
 10
66.573
 20
34.5404
 30
0.0
 11
66.1441
 21
35.3548
 31
0.0
  0
LINE
  5
1A7
  8
0
 10
66.1441
 20
35.3548
 30
0.0
 11
65.7052
 21
36.1638
 31
0.0
  0
LINE
  5
1A8
  8
0
 10
65.7052
 20
36.1638
 30
0.0
 11
65.2565
 21
36.9674
 31
0.0
  0
LINE
  5
1A9
  8
0
 10
65.2565
 20
36.9674
 30
0.0
 11
64.798
 21
37.7654
 31
0.0
  0
LINE
  5
1AA
  8
0
 10
64.798
 20
37.7654
 30
0.0
 11
64.3296
 21
38.5577
 31
0.0
  0
LINE
  5
1AB
  8
0
 10
64.3296
 20
38.5577
 30
0.0
 11
63.8516
 21
39.3442
 31
0.0
  0
LINE
  5
1AC
  8
0
 10
63.8516
 20
39.3442
 30
0.0
 11
63.364
 21
40.1248
 31
0.0
  0
LINE
  5
1AD
  8
0
 10
63.364
 20
40.1248
 30
0.0
 11
62.8669
 21
40.8994
 31
0.0
  0
LINE
  5
1AE
  8
0
 10
62.8669
 20
40.8994
 30
0.0
 11
62.3602
 21
41.6678
 31
0.0
  0
LINE
  5
1AF
  8
0
 10
62.3602
 20
41.6678
 30
0.0
 11
61.8442
 21
42.4299
 31
0.0
  0
LINE
  5
1B0
  8
0
 10
61.8442
 20
42.4299
 30
0.0
 11
61.3188
 21
43.1856
 31
0.0
  0
LINE
  5
1B1
  8
0
 10
61.3188
 20
43.1856
 30
0.0
 11
60.7843
 21
43.9348
 31
0.0
  0
LINE
  5
1B2
  8
0
 10
60.7843
 20
43.9348
 30
0.0
 11
60.2406
 21
44.6774
 31
0.0
  0
LINE
  5
1B3
  8
0
 10
60.2406
 20
44.6774
 30
0.0
 11
59.6878
 21
45.4133
 31
0.0
  0
LINE
  5
1B4
  8
0
 10
59.6878
 20
45.4133
 30
0.0
 11
59.126
 21
46.1424
 31
0.0
  0
LINE
  5
1B5
  8
0
 10
59.126
 20
46.1424
 30
0.0
 11
58.5553
 21
46.8645
 31
0.0
  0
LINE
  5
1B6
  8
0
 10
58.5553
 20
46.8645
 30
0.0
 11
57.9758
 21
47.5795
 31
0.0
  0
LINE
  5
1B7
  8
0
 10
57.9758
 20
47.5795
 30
0.0
 11
57.3875
 21
48.2874
 31
0.0
  0
LINE
  5
1B8
  8
0
 10
57.3875
 20
48.2874
 30
0.0
 11
56.7907
 21
48.988
 31
0.0
  0
LINE
  5
1B9
  8
0
 10
56.7907
 20
48.988
 30
0.0
 11
56.1852
 21
49.6812
 31
0.0
  0
LINE
  5
1BA
  8
0
 10
56.1852
 20
49.6812
 30
0.0
 11
55.5713
 21
50.3669
 31
0.0
  0
LINE
  5
1BB
  8
0
 10
55.5713
 20
50.3669
 30
0.0
 11
54.9491
 21
51.0451
 31
0.0
  0
LINE
  5
1BC
  8
0
 10
54.9491
 20
51.0451
 30
0.0
 11
54.3185
 21
51.7155
 31
0.0
  0
LINE
  5
1BD
  8
0
 10
54.3185
 20
51.7155
 30
0.0
 11
53.6798
 21
52.3782
 31
0.0
  0
LINE
  5
1BE
  8
0
 10
53.6798
 20
52.3782
 30
0.0
 11
53.033
 21
53.033
 31
0.0
  0
LINE
  5
1BF
  8
0
 10
53.033
 20
53.033
 30
0.0
 11
52.3782
 21
53.6798
 31
0.0
  0
LINE
  5
1C0
  8
0
 10
52.3782
 20
53.6798
 30
0.0
 11
51.7155
 21
54.3185
 31
0.0
  0
LINE
  5
1C1
  8
0
 10
51.7155
 20
54.3185
 30
0.0
 11
51.0451
 21
54.9491
 31
0.0
  0
LINE
  5
1C2
  8
0
 10
51.0451
 20
54.9491
 30
0.0
 11
50.3669
 21
55.5713
 31
0.0
  0
LINE
  5
1C3
  8
0
 10
50.3669
 20
55.5713
 30
0.0
 11
49.6812
 21
56.1852
 31
0.0
  0
LINE
  5
1C4
  8
0
 10
49.6812
 20
56.1852
 30
0.0
 11
48.988
 21
56.7907
 31
0.0
  0
LINE
  5
1C5
  8
0
 10
48.988
 20
56.7907
 30
0.0
 11
48.2874
 21
57.3875
 31
0.0
  0
LINE
  5
1C6
  8
0
 10
48.2874
 20
57.3875
 30
0.0
 11
47.5795
 21
57.9758
 31
0.0
  0
LINE
  5
1C7
  8
0
 10
47.5795
 20
57.9758
 30
0.0
 11
46.8645
 21
58.5553
 31
0.0
  0
LINE
  5
1C8
  8
0
 10
46.8645
 20
58.5553
 30
0.0
 11
46.1424
 21
59.126
 31
0.0
  0
LINE
  5
1C9
  8
0
 10
46.1424
 20
59.126
 30
0.0
 11
45.4133
 21
59.6878
 31
0.0
  0
LINE
  5
1CA
  8
0
 10
45.4133
 20
59.6878
 30
0.0
 11
44.6774
 21
60.2406
 31
0.0
  0
LINE
  5
1CB
  8
0
 10
44.6774
 20
60.2406
 30
0.0
 11
43.9348
 21
60.7843
 31
0.0
  0
LINE
  5
1CC
  8
0
 10
43.9348
 20
60.7843
 30
0.0
 11
43.1856
 21
61.3188
 31
0.0
  0
LINE
  5
1CD
  8
0
 10
43.1856
 20
61.3188
 30
0.0
 11
42.4299
 21
61.8442
 31
0.0
  0
LINE
  5
1CE
  8
0
 10
42.4299
 20
61.8442
 30
0.0
 11
41.6678
 21
62.3602
 31
0.0
  0
LINE
  5
1CF
  8
0
 10
41.6678
 20
62.3602
 30
0.0
 11
40.8994
 21
62.8669
 31
0.0
  0
LINE
  5
1D0
  8
0
 10
40.8994
 20
62.8669
 30
0.0
 11
40.1248
 21
63.364
 31
0.0
  0
LINE
  5
1D1
  8
0
 10
40.1248
 20
63.364
 30
0.0
 11
39.3442
 21
63.8516
 31
0.0
  0
LINE
  5
1D2
  8
0
 10
39.3442
 20
63.8516
 30
0.0
 11
38.5577
 21
64.3296
 31
0.0
  0
LINE
  5
1D3
  8
0
 10
38.5577
 20
64.3296
 30
0.0
 11
37.7654
 21
64.798
 31
0.0
  0
LINE
  5
1D4
  8
0
 10
37.7654
 20
64.798
 30
0.0
 11
36.9674
 21
65.2565
 31
0.0
  0
LINE
  5
1D5
  8
0
 10
36.9674
 20
65.2565
 30
0.0
 11
36.1638
 21
65.7052
 31
0.0
  0
LINE
  5
1D6
  8
0
 10
36.1638
 20
65.7052
 30
0.0
 11
35.3548
 21
66.1441
 31
0.0
  0
LINE
  5
1D7
  8
0
 10
35.3548
 20
66.1441
 30
0.0
 11
34.5404
 21
66.573
 31
0.0
  0
LINE
  5
1D8
  8
0
 10
34.5404
 20
66.573
 30
0.0
 11
33.7208
 21
66.9918
 31
0.0
  0
LINE
  5
1D9
  8
0
 10
33.7208
 20
66.9918
 30
0.0
 11
32.8962
 21
67.4006
 31
0.0
  0
LINE
  5
1DA
  8
0
 10
32.8962
 20
67.4006
 30
0.0
 11
32.0666
 21
67.7992
 31
0.0
  0
LINE
  5
1DB
  8
0
 10
32.0666
 20
67.7992
 30
0.0
 11
31.2322
 21
68.1876
 31
0.0
  0
LINE
  5
1DC
  8
0
 10
31.2322
 20
68.1876
 30
0.0
 11
30.3931
 21
68.5657
 31
0.0
  0
LINE
  5
1DD
  8
0
 10
30.3931
 20
68.5657
 30
0.0
 11
29.5494
 21
68.9335
 31
0.0
  0
LINE
  5
1DE
  8
0
 10
29.5494
 20
68.9335
 30
0.0
 11
28.7012
 21
69.291
 31
0.0
  0
LINE
  5
1DF
  8
0
 10
28.7012
 20
69.291
 30
0.0
 11
27.8488
 21
69.638
 31
0.0
  0
LINE
  5
1E0
  8
0
 10
27.8488
 20
69.638
 30
0.0
 11
26.9921
 21
69.9745
 31
0.0
  0
LINE
  5
1E1
  8
0
 10
26.9921
 20
69.9745
 30
0.0
 11
26.1314
 21
70.3004
 31
0.0
  0
LINE
  5
1E2
  8
0
 10
26.1314
 20
70.3004
 30
0.0
 11
25.2667
 21
70.6158
 31
0.0
  0
LINE
  5
1E3
  8
0
 10
25.2667
 20
70.6158
 30
0.0
 11
24.3983
 21
70.9205
 31
0.0
  0
LINE
  5
1E4
  8
0
 10
24.3983
 20
70.9205
 30
0.0
 11
23.5261
 21
71.2146
 31
0.0
  0
LINE
  5
1E5
  8
0
 10
23.5261
 20
71.2146
 30
0.0
 11
22.6504
 21
71.498
 31
0.0
  0
LINE
  5
1E6
  8
0
 10
22.6504
 20
71.498
 30
0.0
 11
21.7713
 21
71.7705
 31
0.0
  0
LINE
  5
1E7
  8
0
 10
21.7713
 20
71.7705
 30
0.0
 11
20.889
 21
72.0323
 31
0.0
  0
LINE
  5
1E8
  8
0
 10
20.889
 20
72.0323
 30
0.0
 11
20.0034
 21
72.2832
 31
0.0
  0
LINE
  5
1E9
  8
0
 10
20.0034
 20
72.2832
 30
0.0
 11
19.1149
 21
72.5232
 31
0.0
  0
LINE
  5
1EA
  8
0
 10
19.1149
 20
72.5232
 30
0.0
 11
18.2235
 21
72.7523
 31
0.0
  0
LINE
  5
1EB
  8
0
 10
18.2235
 20
72.7523
 30
0.0
 11
17.3293
 21
72.9705
 31
0.0
  0
LINE
  5
1EC
  8
0
 10
17.3293
 20
72.9705
 30
0.0
 11
16.4326
 21
73.1777
 31
0.0
  0
LINE
  5
1ED
  8
0
 10
16.4326
 20
73.1777
 30
0.0
 11
15.5333
 21
73.3738
 31
0.0
  0
LINE
  5
1EE
  8
0
 10
15.5333
 20
73.3738
 30
0.0
 11
14.6318
 21
73.5589
 31
0.0
  0
LINE
  5
1EF
  8
0
 10
14.6318
 20
73.5589
 30
0.0
 11
13.728
 21
73.7329
 31
0.0
  0
LINE
  5
1F0
  8
0
 10
13.728
 20
73.7329
 30
0.0
 11
12.8221
 21
73.8958
 31
0.0
  0
LINE
  5
1F1
  8
0
 10
12.8221
 20
73.8958
 30
0.0
 11
11.9144
 21
74.0476
 31
0.0
  0
LINE
  5
1F2
  8
0
 10
11.9144
 20
74.0476
 30
0.0
 11
11.0048
 21
74.1882
 31
0.0
  0
LINE
  5
1F3
  8
0
 10
11.0048
 20
74.1882
 30
0.0
 11
10.0936
 21
74.3177
 31
0.0
  0
LINE
  5
1F4
  8
0
 10
10.0936
 20
74.3177
 30
0.0
 11
9.18079
 21
74.436
 31
0.0
  0
LINE
  5
1F5
  8
0
 10
9.18079
 20
74.436
 30
0.0
 11
8.26666
 21
74.543
 31
0.0
  0
LINE
  5
1F6
  8
0
 10
8.26666
 20
74.543
 30
0.0
 11
7.35127
 21
74.6389
 31
0.0
  0
LINE
  5
1F7
  8
0
 10
7.35127
 20
74.6389
 30
0.0
 11
6.43478
 21
74.7234
 31
0.0
  0
LINE
  5
1F8
  8
0
 10
6.43478
 20
74.7234
 30
0.0
 11
5.51733
 21
74.7968
 31
0.0
  0
LINE
  5
1F9
  8
0
 10
5.51733
 20
74.7968
 30
0.0
 11
4.59904
 21
74.8589
 31
0.0
  0
LINE
  5
1FA
  8
0
 10
4.59904
 20
74.8589
 30
0.0
 11
3.68007
 21
74.9097
 31
0.0
  0
LINE
  5
1FB
  8
0
 10
3.68007
 20
74.9097
 30
0.0
 11
2.76053
 21
74.9492
 31
0.0
  0
LINE
  5
1FC
  8
0
 10
2.76053
 20
74.9492
 30
0.0
 11
1.84059
 21
74.9774
 31
0.0
  0
LINE
  5
1FD
  8
0
 10
1.84059
 20
74.9774
 30
0.0
 11
0.920364
 21
74.9944
 31
0.0
  0
LINE
  5
1FE
  8
0
 10
0.920364
 20
74.9944
 30
0.0
 11
0.0
 21
75.0
 31
0.0
  0
LINE
  5
1FF
  8
0
 10
0.0
 20
75.0
 30
0.0
 11
-0.920364
 21
74.9944
 31
0.0
  0
LINE
  5
200
  8
0
 10
-0.920364
 20
74.9944
 30
0.0
 11
-1.84059
 21
74.9774
 31
0.0
  0
LINE
  5
201
  8
0
 10
-1.84059
 20
74.9774
 30
0.0
 11
-2.76053
 21
74.9492
 31
0.0
  0
LINE
  5
202
  8
0
 10
-2.76053
 20
74.9492
 30
0.0
 11
-3.68007
 21
74.9097
 31
0.0
  0
LINE
  5
203
  8
0
 10
-3.68007
 20
74.9097
 30
0.0
 11
-4.59904
 21
74.8589
 31
0.0
  0
LINE
  5
204
  8
0
 10
-4.59904
 20
74.8589
 30
0.0
 11
-5.51733
 21
74.7968
 31
0.0
  0
LINE
  5
205
  8
0
 10
-5.51733
 20
74.7968
 30
0.0
 11
-6.43478
 21
74.7234
 31
0.0
  0
LINE
  5
206
  8
0
 10
-6.43478
 20
74.7234
 30
0.0
 11
-7.35127
 21
74.6389
 31
0.0
  0
LINE
  5
207
  8
0
 10
-7.35127
 20
74.6389
 30
0.0
 11
-8.26666
 21
74.543
 31
0.0
  0
LINE
  5
208
  8
0
 10
-8.26666
 20
74.543
 30
0.0
 11
-9.18079
 21
74.436
 31
0.0
  0
LINE
  5
209
  8
0
 10
-9.18079
 20
74.436
 30
0.0
 11
-10.0936
 21
74.3177
 31
0.0
  0
LINE
  5
20A
  8
0
 10
-10.0936
 20
74.3177
 30
0.0
 11
-11.0048
 21
74.1882
 31
0.0
  0
LINE
  5
20B
  8
0
 10
-11.0048
 20
74.1882
 30
0.0
 11
-11.9144
 21
74.0476
 31
0.0
  0
LINE
  5
20C
  8
0
 10
-11.9144
 20
74.0476
 30
0.0
 11
-12.8221
 21
73.8958
 31
0.0
  0
LINE
  5
20D
  8
0
 10
-12.8221
 20
73.8958
 30
0.0
 11
-13.728
 21
73.7329
 31
0.0
  0
LINE
  5
20E
  8
0
 10
-13.728
 20
73.7329
 30
0.0
 11
-14.6318
 21
73.5589
 31
0.0
  0
LINE
  5
20F
  8
0
 10
-14.6318
 20
73.5589
 30
0.0
 11
-15.5333
 21
73.3738
 31
0.0
  0
LINE
  5
210
  8
0
 10
-15.5333
 20
73.3738
 30
0.0
 11
-16.4326
 21
73.1777
 31
0.0
  0
LINE
  5
211
  8
0
 10
-16.4326
 20
73.1777
 30
0.0
 11
-17.3293
 21
72.9705
 31
0.0
  0
LINE
  5
212
  8
0
 10
-17.3293
 20
72.9705
 30
0.0
 11
-18.2235
 21
72.7523
 31
0.0
  0
LINE
  5
213
  8
0
 10
-18.2235
 20
72.7523
 30
0.0
 11
-19.1149
 21
72.5232
 31
0.0
  0
LINE
  5
214
  8
0
 10
-19.1149
 20
72.5232
 30
0.0
 11
-20.0034
 21
72.2832
 31
0.0
  0
LINE
  5
215
  8
0
 10
-20.0034
 20
72.2832
 30
0.0
 11
-20.889
 21
72.0323
 31
0.0
  0
LINE
  5
216
  8
0
 10
-20.889
 20
72.0323
 30
0.0
 11
-21.7713
 21
71.7705
 31
0.0
  0
LINE
  5
217
  8
0
 10
-21.7713
 20
71.7705
 30
0.0
 11
-22.6504
 21
71.498
 31
0.0
  0
LINE
  5
218
  8
0
 10
-22.6504
 20
71.498
 30
0.0
 11
-23.5261
 21
71.2146
 31
0.0
  0
LINE
  5
219
  8
0
 10
-23.5261
 20
71.2146
 30
0.0
 11
-24.3983
 21
70.9205
 31
0.0
  0
LINE
  5
21A
  8
0
 10
-24.3983
 20
70.9205
 30
0.0
 11
-25.2667
 21
70.6158
 31
0.0
  0
LINE
  5
21B
  8
0
 10
-25.2667
 20
70.6158
 30
0.0
 11
-26.1314
 21
70.3004
 31
0.0
  0
LINE
  5
21C
  8
0
 10
-26.1314
 20
70.3004
 30
0.0
 11
-26.9921
 21
69.9745
 31
0.0
  0
LINE
  5
21D
  8
0
 10
-26.9921
 20
69.9745
 30
0.0
 11
-27.8488
 21
69.638
 31
0.0
  0
LINE
  5
21E
  8
0
 10
-27.8488
 20
69.638
 30
0.0
 11
-28.7012
 21
69.291
 31
0.0
  0
LINE
  5
21F
  8
0
 10
-28.7012
 20
69.291
 30
0.0
 11
-29.5494
 21
68.9335
 31
0.0
  0
LINE
  5
220
  8
0
 10
-29.5494
 20
68.9335
 30
0.0
 11
-30.3931
 21
68.5657
 31
0.0
  0
LINE
  5
221
  8
0
 10
-30.3931
 20
68.5657
 30
0.0
 11
-31.2322
 21
68.1876
 31
0.0
  0
LINE
  5
222
  8
0
 10
-31.2322
 20
68.1876
 30
0.0
 11
-32.0666
 21
67.7992
 31
0.0
  0
LINE
  5
223
  8
0
 10
-32.0666
 20
67.7992
 30
0.0
 11
-32.8962
 21
67.4006
 31
0.0
  0
LINE
  5
224
  8
0
 10
-32.8962
 20
67.4006
 30
0.0
 11
-33.7208
 21
66.9918
 31
0.0
  0
LINE
  5
225
  8
0
 10
-33.7208
 20
66.9918
 30
0.0
 11
-34.5404
 21
66.573
 31
0.0
  0
LINE
  5
226
  8
0
 10
-34.5404
 20
66.573
 30
0.0
 11
-35.3548
 21
66.1441
 31
0.0
  0
LINE
  5
227
  8
0
 10
-35.3548
 20
66.1441
 30
0.0
 11
-36.1638
 21
65.7052
 31
0.0
  0
LINE
  5
228
  8
0
 10
-36.1638
 20
65.7052
 30
0.0
 11
-36.9674
 21
65.2565
 31
0.0
  0
LINE
  5
229
  8
0
 10
-36.9674
 20
65.2565
 30
0.0
 11
-37.7654
 21
64.798
 31
0.0
  0
LINE
  5
22A
  8
0
 10
-37.7654
 20
64.798
 30
0.0
 11
-38.5577
 21
64.3296
 31
0.0
  0
LINE
  5
22B
  8
0
 10
-38.5577
 20
64.3296
 30
0.0
 11
-39.3442
 21
63.8516
 31
0.0
  0
LINE
  5
22C
  8
0
 10
-39.3442
 20
63.8516
 30
0.0
 11
-40.1248
 21
63.364
 31
0.0
  0
LINE
  5
22D
  8
0
 10
-40.1248
 20
63.364
 30
0.0
 11
-40.8994
 21
62.8669
 31
0.0
  0
LINE
  5
22E
  8
0
 10
-40.8994
 20
62.8669
 30
0.0
 11
-41.6678
 21
62.3602
 31
0.0
  0
LINE
  5
22F
  8
0
 10
-41.6678
 20
62.3602
 30
0.0
 11
-42.4299
 21
61.8442
 31
0.0
  0
LINE
  5
230
  8
0
 10
-42.4299
 20
61.8442
 30
0.0
 11
-43.1856
 21
61.3188
 31
0.0
  0
LINE
  5
231
  8
0
 10
-43.1856
 20
61.3188
 30
0.0
 11
-43.9348
 21
60.7843
 31
0.0
  0
LINE
  5
232
  8
0
 10
-43.9348
 20
60.7843
 30
0.0
 11
-44.6774
 21
60.2406
 31
0.0
  0
LINE
  5
233
  8
0
 10
-44.6774
 20
60.2406
 30
0.0
 11
-45.4133
 21
59.6878
 31
0.0
  0
LINE
  5
234
  8
0
 10
-45.4133
 20
59.6878
 30
0.0
 11
-46.1424
 21
59.126
 31
0.0
  0
LINE
  5
235
  8
0
 10
-46.1424
 20
59.126
 30
0.0
 11
-46.8645
 21
58.5553
 31
0.0
  0
LINE
  5
236
  8
0
 10
-46.8645
 20
58.5553
 30
0.0
 11
-47.5795
 21
57.9758
 31
0.0
  0
LINE
  5
237
  8
0
 10
-47.5795
 20
57.9758
 30
0.0
 11
-48.2874
 21
57.3875
 31
0.0
  0
LINE
  5
238
  8
0
 10
-48.2874
 20
57.3875
 30
0.0
 11
-48.988
 21
56.7907
 31
0.0
  0
LINE
  5
239
  8
0
 10
-48.988
 20
56.7907
 30
0.0
 11
-49.6812
 21
56.1852
 31
0.0
  0
LINE
  5
23A
  8
0
 10
-49.6812
 20
56.1852
 30
0.0
 11
-50.3669
 21
55.5713
 31
0.0
  0
LINE
  5
23B
  8
0
 10
-50.3669
 20
55.5713
 30
0.0
 11
-51.0451
 21
54.9491
 31
0.0
  0
LINE
  5
23C
  8
0
 10
-51.0451
 20
54.9491
 30
0.0
 11
-51.7155
 21
54.3185
 31
0.0
  0
LINE
  5
23D
  8
0
 10
-51.7155
 20
54.3185
 30
0.0
 11
-52.3782
 21
53.6798
 31
0.0
  0
LINE
  5
23E
  8
0
 10
-52.3782
 20
53.6798
 30
0.0
 11
-53.033
 21
53.033
 31
0.0
  0
LINE
  5
23F
  8
0
 10
-53.033
 20
53.033
 30
0.0
 11
-53.6798
 21
52.3782
 31
0.0
  0
LINE
  5
240
  8
0
 10
-53.6798
 20
52.3782
 30
0.0
 11
-54.3185
 21
51.7155
 31
0.0
  0
LINE
  5
241
  8
0
 10
-54.3185
 20
51.7155
 30
0.0
 11
-54.9491
 21
51.0451
 31
0.0
  0
LINE
  5
242
  8
0
 10
-54.9491
 20
51.0451
 30
0.0
 11
-55.5713
 21
50.3669
 31
0.0
  0
LINE
  5
243
  8
0
 10
-55.5713
 20
50.3669
 30
0.0
 11
-56.1852
 21
49.6812
 31
0.0
  0
LINE
  5
244
  8
0
 10
-56.1852
 20
49.6812
 30
0.0
 11
-56.7907
 21
48.988
 31
0.0
  0
LINE
  5
245
  8
0
 10
-56.7907
 20
48.988
 30
0.0
 11
-57.3875
 21
48.2874
 31
0.0
  0
LINE
  5
246
  8
0
 10
-57.3875
 20
48.2874
 30
0.0
 11
-57.9758
 21
47.5795
 31
0.0
  0
LINE
  5
247
  8
0
 10
-57.9758
 20
47.5795
 30
0.0
 11
-58.5553
 21
46.8645
 31
0.0
  0
LINE
  5
248
  8
0
 10
-58.5553
 20
46.8645
 30
0.0
 11
-59.126
 21
46.1424
 31
0.0
  0
LINE
  5
249
  8
0
 10
-59.126
 20
46.1424
 30
0.0
 11
-59.6878
 21
45.4133
 31
0.0
  0
LINE
  5
24A
  8
0
 10
-59.6878
 20
45.4133
 30
0.0
 11
-60.2406
 21
44.6774
 31
0.0
  0
LINE
  5
24B
  8
0
 10
-60.2406
 20
44.6774
 30
0.0
 11
-60.7843
 21
43.9348
 31
0.0
  0
LINE
  5
24C
  8
0
 10
-60.7843
 20
43.9348
 30
0.0
 11
-61.3188
 21
43.1856
 31
0.0
  0
LINE
  5
24D
  8
0
 10
-61.3188
 20
43.1856
 30
0.0
 11
-61.8442
 21
42.4299
 31
0.0
  0
LINE
  5
24E
  8
0
 10
-61.8442
 20
42.4299
 30
0.0
 11
-62.3602
 21
41.6678
 31
0.0
  0
LINE
  5
24F
  8
0
 10
-62.3602
 20
41.6678
 30
0.0
 11
-62.8669
 21
40.8994
 31
0.0
  0
LINE
  5
250
  8
0
 10
-62.8669
 20
40.8994
 30
0.0
 11
-63.364
 21
40.1248
 31
0.0
  0
LINE
  5
251
  8
0
 10
-63.364
 20
40.1248
 30
0.0
 11
-63.8516
 21
39.3442
 31
0.0
  0
LINE
  5
252
  8
0
 10
-63.8516
 20
39.3442
 30
0.0
 11
-64.3296
 21
38.5577
 31
0.0
  0
LINE
  5
253
  8
0
 10
-64.3296
 20
38.5577
 30
0.0
 11
-64.798
 21
37.7654
 31
0.0
  0
LINE
  5
254
  8
0
 10
-64.798
 20
37.7654
 30
0.0
 11
-65.2565
 21
36.9674
 31
0.0
  0
LINE
  5
255
  8
0
 10
-65.2565
 20
36.9674
 30
0.0
 11
-65.7052
 21
36.1638
 31
0.0
  0
LINE
  5
256
  8
0
 10
-65.7052
 20
36.1638
 30
0.0
 11
-66.1441
 21
35.3548
 31
0.0
  0
LINE
  5
257
  8
0
 10
-66.1441
 20
35.3548
 30
0.0
 11
-66.573
 21
34.5404
 31
0.0
  0
LINE
  5
258
  8
0
 10
-66.573
 20
34.5404
 30
0.0
 11
-66.9918
 21
33.7208
 31
0.0
  0
LINE
  5
259
  8
0
 10
-66.9918
 20
33.7208
 30
0.0
 11
-67.4006
 21
32.8962
 31
0.0
  0
LINE
  5
25A
  8
0
 10
-67.4006
 20
32.8962
 30
0.0
 11
-67.7992
 21
32.0666
 31
0.0
  0
LINE
  5
25B
  8
0
 10
-67.7992
 20
32.0666
 30
0.0
 11
-68.1876
 21
31.2322
 31
0.0
  0
LINE
  5
25C
  8
0
 10
-68.1876
 20
31.2322
 30
0.0
 11
-68.5657
 21
30.3931
 31
0.0
  0
LINE
  5
25D
  8
0
 10
-68.5657
 20
30.3931
 30
0.0
 11
-68.9335
 21
29.5494
 31
0.0
  0
LINE
  5
25E
  8
0
 10
-68.9335
 20
29.5494
 30
0.0
 11
-69.2708
 21
28.7492
 31
0.0
  0
LINE
  5
25F
  8
0
 10
-69.2708
 20
28.7492
 30
0.0
 11
-69.2708
 21
-28.7492
 31
0.0
  0
LINE
  5
260
  8
0
 10
-69.2708
 20
-28.7492
 30
0.0
 11
-68.9335
 21
-29.5494
 31
0.0
  0
LINE
  5
261
  8
0
 10
-68.9335
 20
-29.5494
 30
0.0
 11
-68.5657
 21
-30.3931
 31
0.0
  0
LINE
  5
262
  8
0
 10
-68.5657
 20
-30.3931
 30
0.0
 11
-68.1876
 21
-31.2322
 31
0.0
  0
LINE
  5
263
  8
0
 10
-68.1876
 20
-31.2322
 30
0.0
 11
-67.7992
 21
-32.0666
 31
0.0
  0
LINE
  5
264
  8
0
 10
-67.7992
 20
-32.0666
 30
0.0
 11
-67.4006
 21
-32.8962
 31
0.0
  0
LINE
  5
265
  8
0
 10
-67.4006
 20
-32.8962
 30
0.0
 11
-66.9918
 21
-33.7208
 31
0.0
  0
LINE
  5
266
  8
0
 10
-66.9918
 20
-33.7208
 30
0.0
 11
-66.573
 21
-34.5404
 31
0.0
  0
LINE
  5
267
  8
0
 10
-66.573
 20
-34.5404
 30
0.0
 11
-66.1441
 21
-35.3548
 31
0.0
  0
LINE
  5
268
  8
0
 10
-66.1441
 20
-35.3548
 30
0.0
 11
-65.7052
 21
-36.1638
 31
0.0
  0
LINE
  5
269
  8
0
 10
-65.7052
 20
-36.1638
 30
0.0
 11
-65.2565
 21
-36.9674
 31
0.0
  0
LINE
  5
26A
  8
0
 10
-65.2565
 20
-36.9674
 30
0.0
 11
-64.798
 21
-37.7654
 31
0.0
  0
LINE
  5
26B
  8
0
 10
-64.798
 20
-37.7654
 30
0.0
 11
-64.3296
 21
-38.5577
 31
0.0
  0
LINE
  5
26C
  8
0
 10
-64.3296
 20
-38.5577
 30
0.0
 11
-63.8516
 21
-39.3442
 31
0.0
  0
LINE
  5
26D
  8
0
 10
-63.8516
 20
-39.3442
 30
0.0
 11
-63.364
 21
-40.1248
 31
0.0
  0
LINE
  5
26E
  8
0
 10
-63.364
 20
-40.1248
 30
0.0
 11
-62.8669
 21
-40.8994
 31
0.0
  0
LINE
  5
26F
  8
0
 10
-62.8669
 20
-40.8994
 30
0.0
 11
-62.3602
 21
-41.6678
 31
0.0
  0
LINE
  5
270
  8
0
 10
-62.3602
 20
-41.6678
 30
0.0
 11
-61.8442
 21
-42.4299
 31
0.0
  0
LINE
  5
271
  8
0
 10
-61.8442
 20
-42.4299
 30
0.0
 11
-61.3188
 21
-43.1856
 31
0.0
  0
LINE
  5
272
  8
0
 10
-61.3188
 20
-43.1856
 30
0.0
 11
-60.7843
 21
-43.9348
 31
0.0
  0
LINE
  5
273
  8
0
 10
-60.7843
 20
-43.9348
 30
0.0
 11
-60.2406
 21
-44.6774
 31
0.0
  0
LINE
  5
274
  8
0
 10
-60.2406
 20
-44.6774
 30
0.0
 11
-59.6878
 21
-45.4133
 31
0.0
  0
LINE
  5
275
  8
0
 10
-59.6878
 20
-45.4133
 30
0.0
 11
-59.126
 21
-46.1424
 31
0.0
  0
LINE
  5
276
  8
0
 10
-59.126
 20
-46.1424
 30
0.0
 11
-58.5553
 21
-46.8645
 31
0.0
  0
LINE
  5
277
  8
0
 10
-58.5553
 20
-46.8645
 30
0.0
 11
-57.9758
 21
-47.5795
 31
0.0
  0
LINE
  5
278
  8
0
 10
-57.9758
 20
-47.5795
 30
0.0
 11
-57.3875
 21
-48.2874
 31
0.0
  0
LINE
  5
279
  8
0
 10
-57.3875
 20
-48.2874
 30
0.0
 11
-56.7907
 21
-48.988
 31
0.0
  0
LINE
  5
27A
  8
0
 10
-56.7907
 20
-48.988
 30
0.0
 11
-56.1852
 21
-49.6812
 31
0.0
  0
LINE
  5
27B
  8
0
 10
-56.1852
 20
-49.6812
 30
0.0
 11
-55.5713
 21
-50.3669
 31
0.0
  0
LINE
  5
27C
  8
0
 10
-55.5713
 20
-50.3669
 30
0.0
 11
-54.9491
 21
-51.0451
 31
0.0
  0
LINE
  5
27D
  8
0
 10
-54.9491
 20
-51.0451
 30
0.0
 11
-54.3185
 21
-51.7155
 31
0.0
  0
LINE
  5
27E
  8
0
 10
-54.3185
 20
-51.7155
 30
0.0
 11
-53.6798
 21
-52.3782
 31
0.0
  0
LINE
  5
27F
  8
0
 10
-53.6798
 20
-52.3782
 30
0.0
 11
-53.033
 21
-53.033
 31
0.0
  0
LINE
  5
280
  8
0
 10
-53.033
 20
-53.033
 30
0.0
 11
-52.3782
 21
-53.6798
 31
0.0
  0
LINE
  5
281
  8
0
 10
-52.3782
 20
-53.6798
 30
0.0
 11
-51.7155
 21
-54.3185
 31
0.0
  0
LINE
  5
282
  8
0
 10
-51.7155
 20
-54.3185
 30
0.0
 11
-51.0451
 21
-54.9491
 31
0.0
  0
LINE
  5
283
  8
0
 10
-51.0451
 20
-54.9491
 30
0.0
 11
-50.3669
 21
-55.5713
 31
0.0
  0
LINE
  5
284
  8
0
 10
-50.3669
 20
-55.5713
 30
0.0
 11
-49.6812
 21
-56.1852
 31
0.0
  0
LINE
  5
285
  8
0
 10
-49.6812
 20
-56.1852
 30
0.0
 11
-48.988
 21
-56.7907
 31
0.0
  0
LINE
  5
286
  8
0
 10
-48.988
 20
-56.7907
 30
0.0
 11
-48.2874
 21
-57.3875
 31
0.0
  0
LINE
  5
287
  8
0
 10
-48.2874
 20
-57.3875
 30
0.0
 11
-47.5795
 21
-57.9758
 31
0.0
  0
LINE
  5
288
  8
0
 10
-47.5795
 20
-57.9758
 30
0.0
 11
-46.8645
 21
-58.5553
 31
0.0
  0
LINE
  5
289
  8
0
 10
-46.8645
 20
-58.5553
 30
0.0
 11
-46.1424
 21
-59.126
 31
0.0
  0
LINE
  5
28A
  8
0
 10
-46.1424
 20
-59.126
 30
0.0
 11
-45.4133
 21
-59.6878
 31
0.0
  0
LINE
  5
28B
  8
0
 10
-45.4133
 20
-59.6878
 30
0.0
 11
-44.6774
 21
-60.2406
 31
0.0
  0
LINE
  5
28C
  8
0
 10
-44.6774
 20
-60.2406
 30
0.0
 11
-43.9348
 21
-60.7843
 31
0.0
  0
LINE
  5
28D
  8
0
 10
-43.9348
 20
-60.7843
 30
0.0
 11
-43.1856
 21
-61.3188
 31
0.0
  0
LINE
  5
28E
  8
0
 10
-43.1856
 20
-61.3188
 30
0.0
 11
-42.4299
 21
-61.8442
 31
0.0
  0
LINE
  5
28F
  8
0
 10
-42.4299
 20
-61.8442
 30
0.0
 11
-41.6678
 21
-62.3602
 31
0.0
  0
LINE
  5
290
  8
0
 10
-41.6678
 20
-62.3602
 30
0.0
 11
-40.8994
 21
-62.8669
 31
0.0
  0
LINE
  5
291
  8
0
 10
-40.8994
 20
-62.8669
 30
0.0
 11
-40.1248
 21
-63.364
 31
0.0
  0
LINE
  5
292
  8
0
 10
-40.1248
 20
-63.364
 30
0.0
 11
-39.3442
 21
-63.8516
 31
0.0
  0
LINE
  5
293
  8
0
 10
-39.3442
 20
-63.8516
 30
0.0
 11
-38.5577
 21
-64.3296
 31
0.0
  0
LINE
  5
294
  8
0
 10
-38.5577
 20
-64.3296
 30
0.0
 11
-37.7654
 21
-64.798
 31
0.0
  0
LINE
  5
295
  8
0
 10
-37.7654
 20
-64.798
 30
0.0
 11
-36.9674
 21
-65.2565
 31
0.0
  0
LINE
  5
296
  8
0
 10
-36.9674
 20
-65.2565
 30
0.0
 11
-36.1638
 21
-65.7052
 31
0.0
  0
LINE
  5
297
  8
0
 10
-36.1638
 20
-65.7052
 30
0.0
 11
-35.3548
 21
-66.1441
 31
0.0
  0
LINE
  5
298
  8
0
 10
-35.3548
 20
-66.1441
 30
0.0
 11
-34.5404
 21
-66.573
 31
0.0
  0
LINE
  5
299
  8
0
 10
-34.5404
 20
-66.573
 30
0.0
 11
-33.7208
 21
-66.9918
 31
0.0
  0
LINE
  5
29A
  8
0
 10
-33.7208
 20
-66.9918
 30
0.0
 11
-32.8962
 21
-67.4006
 31
0.0
  0
LINE
  5
29B
  8
0
 10
-32.8962
 20
-67.4006
 30
0.0
 11
-32.0666
 21
-67.7992
 31
0.0
  0
LINE
  5
29C
  8
0
 10
-32.0666
 20
-67.7992
 30
0.0
 11
-31.2322
 21
-68.1876
 31
0.0
  0
LINE
  5
29D
  8
0
 10
-31.2322
 20
-68.1876
 30
0.0
 11
-30.3931
 21
-68.5657
 31
0.0
  0
LINE
  5
29E
  8
0
 10
-30.3931
 20
-68.5657
 30
0.0
 11
-29.5494
 21
-68.9335
 31
0.0
  0
LINE
  5
29F
  8
0
 10
-29.5494
 20
-68.9335
 30
0.0
 11
-28.7012
 21
-69.291
 31
0.0
  0
LINE
  5
2A0
  8
0
 10
-28.7012
 20
-69.291
 30
0.0
 11
-27.8488
 21
-69.638
 31
0.0
  0
LINE
  5
2A1
  8
0
 10
-27.8488
 20
-69.638
 30
0.0
 11
-26.9921
 21
-69.9745
 31
0.0
  0
LINE
  5
2A2
  8
0
 10
-26.9921
 20
-69.9745
 30
0.0
 11
-26.1314
 21
-70.3004
 31
0.0
  0
LINE
  5
2A3
  8
0
 10
-26.1314
 20
-70.3004
 30
0.0
 11
-25.2667
 21
-70.6158
 31
0.0
  0
LINE
  5
2A4
  8
0
 10
-25.2667
 20
-70.6158
 30
0.0
 11
-24.3983
 21
-70.9205
 31
0.0
  0
LINE
  5
2A5
  8
0
 10
-24.3983
 20
-70.9205
 30
0.0
 11
-23.5261
 21
-71.2146
 31
0.0
  0
LINE
  5
2A6
  8
0
 10
-23.5261
 20
-71.2146
 30
0.0
 11
-22.6504
 21
-71.498
 31
0.0
  0
LINE
  5
2A7
  8
0
 10
-22.6504
 20
-71.498
 30
0.0
 11
-21.7713
 21
-71.7705
 31
0.0
  0
LINE
  5
2A8
  8
0
 10
-21.7713
 20
-71.7705
 30
0.0
 11
-20.889
 21
-72.0323
 31
0.0
  0
LINE
  5
2A9
  8
0
 10
-20.889
 20
-72.0323
 30
0.0
 11
-20.0034
 21
-72.2832
 31
0.0
  0
LINE
  5
2AA
  8
0
 10
-20.0034
 20
-72.2832
 30
0.0
 11
-19.1149
 21
-72.5232
 31
0.0
  0
LINE
  5
2AB
  8
0
 10
-19.1149
 20
-72.5232
 30
0.0
 11
-18.2235
 21
-72.7523
 31
0.0
  0
LINE
  5
2AC
  8
0
 10
-18.2235
 20
-72.7523
 30
0.0
 11
-17.3293
 21
-72.9705
 31
0.0
  0
LINE
  5
2AD
  8
0
 10
-17.3293
 20
-72.9705
 30
0.0
 11
-16.4326
 21
-73.1777
 31
0.0
  0
LINE
  5
2AE
  8
0
 10
-16.4326
 20
-73.1777
 30
0.0
 11
-15.5333
 21
-73.3738
 31
0.0
  0
LINE
  5
2AF
  8
0
 10
-15.5333
 20
-73.3738
 30
0.0
 11
-14.6318
 21
-73.5589
 31
0.0
  0
LINE
  5
2B0
  8
0
 10
-14.6318
 20
-73.5589
 30
0.0
 11
-13.728
 21
-73.7329
 31
0.0
  0
LINE
  5
2B1
  8
0
 10
-13.728
 20
-73.7329
 30
0.0
 11
-12.8221
 21
-73.8958
 31
0.0
  0
LINE
  5
2B2
  8
0
 10
-12.8221
 20
-73.8958
 30
0.0
 11
-11.9144
 21
-74.0476
 31
0.0
  0
LINE
  5
2B3
  8
0
 10
-11.9144
 20
-74.0476
 30
0.0
 11
-11.0048
 21
-74.1882
 31
0.0
  0
LINE
  5
2B4
  8
0
 10
-11.0048
 20
-74.1882
 30
0.0
 11
-10.0936
 21
-74.3177
 31
0.0
  0
LINE
  5
2B5
  8
0
 10
-10.0936
 20
-74.3177
 30
0.0
 11
-9.18079
 21
-74.436
 31
0.0
  0
LINE
  5
2B6
  8
0
 10
-9.18079
 20
-74.436
 30
0.0
 11
-8.26666
 21
-74.543
 31
0.0
  0
LINE
  5
2B7
  8
0
 10
-8.26666
 20
-74.543
 30
0.0
 11
-7.35127
 21
-74.6389
 31
0.0
  0
LINE
  5
2B8
  8
0
 10
-7.35127
 20
-74.6389
 30
0.0
 11
-6.43478
 21
-74.7234
 31
0.0
  0
LINE
  5
2B9
  8
0
 10
-6.43478
 20
-74.7234
 30
0.0
 11
-5.51733
 21
-74.7968
 31
0.0
  0
LINE
  5
2BA
  8
0
 10
-5.51733
 20
-74.7968
 30
0.0
 11
-4.59904
 21
-74.8589
 31
0.0
  0
LINE
  5
2BB
  8
0
 10
-4.59904
 20
-74.8589
 30
0.0
 11
-3.68007
 21
-74.9097
 31
0.0
  0
LINE
  5
2BC
  8
0
 10
-3.68007
 20
-74.9097
 30
0.0
 11
-2.76053
 21
-74.9492
 31
0.0
  0
LINE
  5
2BD
  8
0
 10
-2.76053
 20
-74.9492
 30
0.0
 11
-1.84059
 21
-74.9774
 31
0.0
  0
LINE
  5
2BE
  8
0
 10
-1.84059
 20
-74.9774
 30
0.0
 11
-0.920364
 21
-74.9944
 31
0.0
  0
LINE
  5
2BF
  8
0
 10
-0.920364
 20
-74.9944
 30
0.0
 11
0.0
 21
-75.0
 31
0.0
  0
LINE
  5
2C0
  8
0
 10
0.0
 20
-75.0
 30
0.0
 11
0.920364
 21
-74.9944
 31
0.0
  0
ENDSEC
  0
EOF
