  0
SECTION
  2
BLOCKS
  0
ENDSEC
  0
SECTION
  2
ENTITIES
  0
LINE
  8
0
 10
4.5
 20
4.5
 11
-4.5
 21
4.5
  0
LINE
  8
0
 10
-4.5
 20
4.5
 11
-4.5
 21
-4.5
  0
LINE
  8
0
 10
-4.5
 20
-4.5
 11
4.5
 21
-4.5
  0
LINE
  8
0
 10
4.5
 20
-4.5
 11
4.5
 21
4.5
  0
LINE
  8
0
 10
2.10297
 20
-3.74277
 11
1.95735
 21
-3.72118
  0
LINE
  8
0
 10
1.95735
 20
-3.72118
 11
1.81456
 21
-3.68541
  0
LINE
  8
0
 10
1.81456
 20
-3.68541
 11
1.67596
 21
-3.63582
  0
LINE
  8
0
 10
1.67596
 20
-3.63582
 11
1.54289
 21
-3.57288
  0
LINE
  8
0
 10
1.54289
 20
-3.57288
 11
1.41664
 21
-3.49719
  0
LINE
  8
0
 10
1.41664
 20
-3.49719
 11
1.2984
 21
-3.40952
  0
LINE
  8
0
 10
1.2984
 20
-3.40952
 11
1.18933
 21
-3.31065
  0
LINE
  8
0
 10
1.18933
 20
-3.31065
 11
1.09047
 21
-3.20158
  0
LINE
  8
0
 10
1.09047
 20
-3.20158
 11
1.00279
 21
-3.08334
  0
LINE
  8
0
 10
1.00279
 20
-3.08334
 11
0.927109
 21
-2.95709
  0
LINE
  8
0
 10
0.927109
 20
-2.95709
 11
0.864166
 21
-2.82402
  0
LINE
  8
0
 10
0.864166
 20
-2.82402
 11
0.814575
 21
-2.68542
  0
LINE
  8
0
 10
0.814575
 20
-2.68542
 11
0.778809
 21
-2.54263
  0
LINE
  8
0
 10
0.778809
 20
-2.54263
 11
0.757217
 21
-2.39702
  0
LINE
  8
0
 10
0.757217
 20
-2.39702
 11
0.75
 21
-2.25
  0
LINE
  8
0
 10
0.75
 20
-2.25
 11
0.752213
 21
-2.20499
  0
LINE
  8
0
 10
0.752213
 20
-2.20499
 11
-0.752213
 21
-2.20499
  0
LINE
  8
0
 10
-0.752213
 20
-2.20499
 11
-0.75
 21
-2.25
  0
LINE
  8
0
 10
-0.75
 20
-2.25
 11
-0.757217
 21
-2.39702
  0
LINE
  8
0
 10
-0.757217
 20
-2.39702
 11
-0.778809
 21
-2.54263
  0
LINE
  8
0
 10
-0.778809
 20
-2.54263
 11
-0.814575
 21
-2.68542
  0
LINE
  8
0
 10
-0.814575
 20
-2.68542
 11
-0.864166
 21
-2.82402
  0
LINE
  8
0
 10
-0.864166
 20
-2.82402
 11
-0.927109
 21
-2.95709
  0
LINE
  8
0
 10
-0.927109
 20
-2.95709
 11
-1.00279
 21
-3.08334
  0
LINE
  8
0
 10
-1.00279
 20
-3.08334
 11
-1.09047
 21
-3.20158
  0
LINE
  8
0
 10
-1.09047
 20
-3.20158
 11
-1.18933
 21
-3.31065
  0
LINE
  8
0
 10
-1.18933
 20
-3.31065
 11
-1.2984
 21
-3.40952
  0
LINE
  8
0
 10
-1.2984
 20
-3.40952
 11
-1.41664
 21
-3.49719
  0
LINE
  8
0
 10
-1.41664
 20
-3.49719
 11
-1.54289
 21
-3.57288
  0
LINE
  8
0
 10
-1.54289
 20
-3.57288
 11
-1.67596
 21
-3.63582
  0
LINE
  8
0
 10
-1.67596
 20
-3.63582
 11
-1.81456
 21
-3.68541
  0
LINE
  8
0
 10
-1.81456
 20
-3.68541
 11
-1.95735
 21
-3.72118
  0
LINE
  8
0
 10
-1.95735
 20
-3.72118
 11
-2.10297
 21
-3.74277
  0
LINE
  8
0
 10
-2.10297
 20
-3.74277
 11
-2.25
 21
-3.75
  0
LINE
  8
0
 10
-2.25
 20
-3.75
 11
-2.39702
 21
-3.74277
  0
LINE
  8
0
 10
-2.39702
 20
-3.74277
 11
-2.54263
 21
-3.72118
  0
LINE
  8
0
 10
-2.54263
 20
-3.72118
 11
-2.68542
 21
-3.68541
  0
LINE
  8
0
 10
-2.68542
 20
-3.68541
 11
-2.82402
 21
-3.63582
  0
LINE
  8
0
 10
-2.82402
 20
-3.63582
 11
-2.95709
 21
-3.57288
  0
LINE
  8
0
 10
-2.95709
 20
-3.57288
 11
-3.08334
 21
-3.49719
  0
LINE
  8
0
 10
-3.08334
 20
-3.49719
 11
-3.20158
 21
-3.40952
  0
LINE
  8
0
 10
-3.20158
 20
-3.40952
 11
-3.31065
 21
-3.31065
  0
LINE
  8
0
 10
-3.31065
 20
-3.31065
 11
-3.40952
 21
-3.20158
  0
LINE
  8
0
 10
-3.40952
 20
-3.20158
 11
-3.49719
 21
-3.08334
  0
LINE
  8
0
 10
-3.49719
 20
-3.08334
 11
-3.57288
 21
-2.95709
  0
LINE
  8
0
 10
-3.57288
 20
-2.95709
 11
-3.63582
 21
-2.82402
  0
LINE
  8
0
 10
-3.63582
 20
-2.82402
 11
-3.68541
 21
-2.68542
  0
LINE
  8
0
 10
-3.68541
 20
-2.68542
 11
-3.72118
 21
-2.54263
  0
LINE
  8
0
 10
-3.72118
 20
-2.54263
 11
-3.74277
 21
-2.39702
  0
LINE
  8
0
 10
-3.74277
 20
-2.39702
 11
-3.75
 21
-2.25
  0
LINE
  8
0
 10
-3.75
 20
-2.25
 11
-3.74277
 21
-2.10297
  0
LINE
  8
0
 10
-3.74277
 20
-2.10297
 11
-3.72118
 21
-1.95735
  0
LINE
  8
0
 10
-3.72118
 20
-1.95735
 11
-3.68541
 21
-1.81456
  0
LINE
  8
0
 10
-3.68541
 20
-1.81456
 11
-3.63582
 21
-1.67596
  0
LINE
  8
0
 10
-3.63582
 20
-1.67596
 11
-3.57288
 21
-1.54289
  0
LINE
  8
0
 10
-3.57288
 20
-1.54289
 11
-3.49719
 21
-1.41664
  0
LINE
  8
0
 10
-3.49719
 20
-1.41664
 11
-3.40952
 21
-1.2984
  0
LINE
  8
0
 10
-3.40952
 20
-1.2984
 11
-3.31065
 21
-1.18933
  0
LINE
  8
0
 10
-3.31065
 20
-1.18933
 11
-3.20158
 21
-1.09047
  0
LINE
  8
0
 10
-3.20158
 20
-1.09047
 11
-3.08334
 21
-1.00279
  0
LINE
  8
0
 10
-3.08334
 20
-1.00279
 11
-2.95709
 21
-0.927109
  0
LINE
  8
0
 10
-2.95709
 20
-0.927109
 11
-2.82402
 21
-0.864166
  0
LINE
  8
0
 10
-2.82402
 20
-0.864166
 11
-2.68542
 21
-0.814575
  0
LINE
  8
0
 10
-2.68542
 20
-0.814575
 11
-2.54263
 21
-0.778809
  0
LINE
  8
0
 10
-2.54263
 20
-0.778809
 11
-2.39702
 21
-0.757217
  0
LINE
  8
0
 10
-2.39702
 20
-0.757217
 11
-2.25
 21
-0.75
  0
LINE
  8
0
 10
-2.25
 20
-0.75
 11
-2.25
 21
0.75
  0
LINE
  8
0
 10
-2.25
 20
0.75
 11
-2.39702
 21
0.757217
  0
LINE
  8
0
 10
-2.39702
 20
0.757217
 11
-2.54263
 21
0.778809
  0
LINE
  8
0
 10
-2.54263
 20
0.778809
 11
-2.68542
 21
0.814575
  0
LINE
  8
0
 10
-2.68542
 20
0.814575
 11
-2.82402
 21
0.864166
  0
LINE
  8
0
 10
-2.82402
 20
0.864166
 11
-2.95709
 21
0.927109
  0
LINE
  8
0
 10
-2.95709
 20
0.927109
 11
-3.08334
 21
1.00279
  0
LINE
  8
0
 10
-3.08334
 20
1.00279
 11
-3.20158
 21
1.09047
  0
LINE
  8
0
 10
-3.20158
 20
1.09047
 11
-3.31065
 21
1.18933
  0
LINE
  8
0
 10
-3.31065
 20
1.18933
 11
-3.40952
 21
1.2984
  0
LINE
  8
0
 10
-3.40952
 20
1.2984
 11
-3.49719
 21
1.41664
  0
LINE
  8
0
 10
-3.49719
 20
1.41664
 11
-3.57288
 21
1.54289
  0
LINE
  8
0
 10
-3.57288
 20
1.54289
 11
-3.63582
 21
1.67596
  0
LINE
  8
0
 10
-3.63582
 20
1.67596
 11
-3.68541
 21
1.81456
  0
LINE
  8
0
 10
-3.68541
 20
1.81456
 11
-3.72118
 21
1.95735
  0
LINE
  8
0
 10
-3.72118
 20
1.95735
 11
-3.74277
 21
2.10297
  0
LINE
  8
0
 10
-3.74277
 20
2.10297
 11
-3.75
 21
2.25
  0
LINE
  8
0
 10
-3.75
 20
2.25
 11
-3.74277
 21
2.39702
  0
LINE
  8
0
 10
-3.74277
 20
2.39702
 11
-3.72118
 21
2.54263
  0
LINE
  8
0
 10
-3.72118
 20
2.54263
 11
-3.68541
 21
2.68542
  0
LINE
  8
0
 10
-3.68541
 20
2.68542
 11
-3.63582
 21
2.82402
  0
LINE
  8
0
 10
-3.63582
 20
2.82402
 11
-3.57288
 21
2.95709
  0
LINE
  8
0
 10
-3.57288
 20
2.95709
 11
-3.49719
 21
3.08334
  0
LINE
  8
0
 10
-3.49719
 20
3.08334
 11
-3.40952
 21
3.20158
  0
LINE
  8
0
 10
-3.40952
 20
3.20158
 11
-3.31065
 21
3.31065
  0
LINE
  8
0
 10
-3.31065
 20
3.31065
 11
-3.20158
 21
3.40952
  0
LINE
  8
0
 10
-3.20158
 20
3.40952
 11
-3.08334
 21
3.49719
  0
LINE
  8
0
 10
-3.08334
 20
3.49719
 11
-2.95709
 21
3.57288
  0
LINE
  8
0
 10
-2.95709
 20
3.57288
 11
-2.82402
 21
3.63582
  0
LINE
  8
0
 10
-2.82402
 20
3.63582
 11
-2.68542
 21
3.68541
  0
LINE
  8
0
 10
-2.68542
 20
3.68541
 11
-2.54263
 21
3.72118
  0
LINE
  8
0
 10
-2.54263
 20
3.72118
 11
-2.39702
 21
3.74277
  0
LINE
  8
0
 10
-2.39702
 20
3.74277
 11
-2.25
 21
3.75
  0
LINE
  8
0
 10
-2.25
 20
3.75
 11
-2.10297
 21
3.74277
  0
LINE
  8
0
 10
-2.10297
 20
3.74277
 11
-1.95735
 21
3.72118
  0
LINE
  8
0
 10
-1.95735
 20
3.72118
 11
-1.81456
 21
3.68541
  0
LINE
  8
0
 10
-1.81456
 20
3.68541
 11
-1.67596
 21
3.63582
  0
LINE
  8
0
 10
-1.67596
 20
3.63582
 11
-1.54289
 21
3.57288
  0
LINE
  8
0
 10
-1.54289
 20
3.57288
 11
-1.41664
 21
3.49719
  0
LINE
  8
0
 10
-1.41664
 20
3.49719
 11
-1.2984
 21
3.40952
  0
LINE
  8
0
 10
-1.2984
 20
3.40952
 11
-1.18933
 21
3.31065
  0
LINE
  8
0
 10
-1.18933
 20
3.31065
 11
-1.09047
 21
3.20158
  0
LINE
  8
0
 10
-1.09047
 20
3.20158
 11
-1.00279
 21
3.08334
  0
LINE
  8
0
 10
-1.00279
 20
3.08334
 11
-0.927109
 21
2.95709
  0
LINE
  8
0
 10
-0.927109
 20
2.95709
 11
-0.864166
 21
2.82402
  0
LINE
  8
0
 10
-0.864166
 20
2.82402
 11
-0.814575
 21
2.68542
  0
LINE
  8
0
 10
-0.814575
 20
2.68542
 11
-0.778809
 21
2.54263
  0
LINE
  8
0
 10
-0.778809
 20
2.54263
 11
-0.757217
 21
2.39702
  0
LINE
  8
0
 10
-0.757217
 20
2.39702
 11
-0.75
 21
2.25
  0
LINE
  8
0
 10
-0.75
 20
2.25
 11
-0.752213
 21
2.20499
  0
LINE
  8
0
 10
-0.752213
 20
2.20499
 11
0.752213
 21
2.20499
  0
LINE
  8
0
 10
0.752213
 20
2.20499
 11
0.75
 21
2.25
  0
LINE
  8
0
 10
0.75
 20
2.25
 11
0.757217
 21
2.39702
  0
LINE
  8
0
 10
0.757217
 20
2.39702
 11
0.778809
 21
2.54263
  0
LINE
  8
0
 10
0.778809
 20
2.54263
 11
0.814575
 21
2.68542
  0
LINE
  8
0
 10
0.814575
 20
2.68542
 11
0.864166
 21
2.82402
  0
LINE
  8
0
 10
0.864166
 20
2.82402
 11
0.927109
 21
2.95709
  0
LINE
  8
0
 10
0.927109
 20
2.95709
 11
1.00279
 21
3.08334
  0
LINE
  8
0
 10
1.00279
 20
3.08334
 11
1.09047
 21
3.20158
  0
LINE
  8
0
 10
1.09047
 20
3.20158
 11
1.18933
 21
3.31065
  0
LINE
  8
0
 10
1.18933
 20
3.31065
 11
1.2984
 21
3.40952
  0
LINE
  8
0
 10
1.2984
 20
3.40952
 11
1.41664
 21
3.49719
  0
LINE
  8
0
 10
1.41664
 20
3.49719
 11
1.54289
 21
3.57288
  0
LINE
  8
0
 10
1.54289
 20
3.57288
 11
1.67596
 21
3.63582
  0
LINE
  8
0
 10
1.67596
 20
3.63582
 11
1.81456
 21
3.68541
  0
LINE
  8
0
 10
1.81456
 20
3.68541
 11
1.95735
 21
3.72118
  0
LINE
  8
0
 10
1.95735
 20
3.72118
 11
2.10297
 21
3.74277
  0
LINE
  8
0
 10
2.10297
 20
3.74277
 11
2.25
 21
3.75
  0
LINE
  8
0
 10
2.25
 20
3.75
 11
2.39702
 21
3.74277
  0
LINE
  8
0
 10
2.39702
 20
3.74277
 11
2.54263
 21
3.72118
  0
LINE
  8
0
 10
2.54263
 20
3.72118
 11
2.68542
 21
3.68541
  0
LINE
  8
0
 10
2.68542
 20
3.68541
 11
2.82402
 21
3.63582
  0
LINE
  8
0
 10
2.82402
 20
3.63582
 11
2.95709
 21
3.57288
  0
LINE
  8
0
 10
2.95709
 20
3.57288
 11
3.08334
 21
3.49719
  0
LINE
  8
0
 10
3.08334
 20
3.49719
 11
3.20158
 21
3.40952
  0
LINE
  8
0
 10
3.20158
 20
3.40952
 11
3.31065
 21
3.31065
  0
LINE
  8
0
 10
3.31065
 20
3.31065
 11
3.40952
 21
3.20158
  0
LINE
  8
0
 10
3.40952
 20
3.20158
 11
3.49719
 21
3.08334
  0
LINE
  8
0
 10
3.49719
 20
3.08334
 11
3.57288
 21
2.95709
  0
LINE
  8
0
 10
3.57288
 20
2.95709
 11
3.63582
 21
2.82402
  0
LINE
  8
0
 10
3.63582
 20
2.82402
 11
3.68541
 21
2.68542
  0
LINE
  8
0
 10
3.68541
 20
2.68542
 11
3.72118
 21
2.54263
  0
LINE
  8
0
 10
3.72118
 20
2.54263
 11
3.74277
 21
2.39702
  0
LINE
  8
0
 10
3.74277
 20
2.39702
 11
3.75
 21
2.25
  0
LINE
  8
0
 10
3.75
 20
2.25
 11
3.74277
 21
2.10297
  0
LINE
  8
0
 10
3.74277
 20
2.10297
 11
3.72118
 21
1.95735
  0
LINE
  8
0
 10
3.72118
 20
1.95735
 11
3.68541
 21
1.81456
  0
LINE
  8
0
 10
3.68541
 20
1.81456
 11
3.63582
 21
1.67596
  0
LINE
  8
0
 10
3.63582
 20
1.67596
 11
3.57288
 21
1.54289
  0
LINE
  8
0
 10
3.57288
 20
1.54289
 11
3.49719
 21
1.41664
  0
LINE
  8
0
 10
3.49719
 20
1.41664
 11
3.40952
 21
1.2984
  0
LINE
  8
0
 10
3.40952
 20
1.2984
 11
3.31065
 21
1.18933
  0
LINE
  8
0
 10
3.31065
 20
1.18933
 11
3.20158
 21
1.09047
  0
LINE
  8
0
 10
3.20158
 20
1.09047
 11
3.08334
 21
1.00279
  0
LINE
  8
0
 10
3.08334
 20
1.00279
 11
2.95709
 21
0.927109
  0
LINE
  8
0
 10
2.95709
 20
0.927109
 11
2.82402
 21
0.864166
  0
LINE
  8
0
 10
2.82402
 20
0.864166
 11
2.68542
 21
0.814575
  0
LINE
  8
0
 10
2.68542
 20
0.814575
 11
2.54263
 21
0.778809
  0
LINE
  8
0
 10
2.54263
 20
0.778809
 11
2.39702
 21
0.757217
  0
LINE
  8
0
 10
2.39702
 20
0.757217
 11
2.25
 21
0.75
  0
LINE
  8
0
 10
2.25
 20
0.75
 11
2.25
 21
-0.75
  0
LINE
  8
0
 10
2.25
 20
-0.75
 11
2.39702
 21
-0.757217
  0
LINE
  8
0
 10
2.39702
 20
-0.757217
 11
2.54263
 21
-0.778809
  0
LINE
  8
0
 10
2.54263
 20
-0.778809
 11
2.68542
 21
-0.814575
  0
LINE
  8
0
 10
2.68542
 20
-0.814575
 11
2.82402
 21
-0.864166
  0
LINE
  8
0
 10
2.82402
 20
-0.864166
 11
2.95709
 21
-0.927109
  0
LINE
  8
0
 10
2.95709
 20
-0.927109
 11
3.08334
 21
-1.00279
  0
LINE
  8
0
 10
3.08334
 20
-1.00279
 11
3.20158
 21
-1.09047
  0
LINE
  8
0
 10
3.20158
 20
-1.09047
 11
3.31065
 21
-1.18933
  0
LINE
  8
0
 10
3.31065
 20
-1.18933
 11
3.40952
 21
-1.2984
  0
LINE
  8
0
 10
3.40952
 20
-1.2984
 11
3.49719
 21
-1.41664
  0
LINE
  8
0
 10
3.49719
 20
-1.41664
 11
3.57288
 21
-1.54289
  0
LINE
  8
0
 10
3.57288
 20
-1.54289
 11
3.63582
 21
-1.67596
  0
LINE
  8
0
 10
3.63582
 20
-1.67596
 11
3.68541
 21
-1.81456
  0
LINE
  8
0
 10
3.68541
 20
-1.81456
 11
3.72118
 21
-1.95735
  0
LINE
  8
0
 10
3.72118
 20
-1.95735
 11
3.74277
 21
-2.10297
  0
LINE
  8
0
 10
3.74277
 20
-2.10297
 11
3.75
 21
-2.25
  0
LINE
  8
0
 10
3.75
 20
-2.25
 11
3.74277
 21
-2.39702
  0
LINE
  8
0
 10
3.74277
 20
-2.39702
 11
3.72118
 21
-2.54263
  0
LINE
  8
0
 10
3.72118
 20
-2.54263
 11
3.68541
 21
-2.68542
  0
LINE
  8
0
 10
3.68541
 20
-2.68542
 11
3.63582
 21
-2.82402
  0
LINE
  8
0
 10
3.63582
 20
-2.82402
 11
3.57288
 21
-2.95709
  0
LINE
  8
0
 10
3.57288
 20
-2.95709
 11
3.49719
 21
-3.08334
  0
LINE
  8
0
 10
3.49719
 20
-3.08334
 11
3.40952
 21
-3.20158
  0
LINE
  8
0
 10
3.40952
 20
-3.20158
 11
3.31065
 21
-3.31065
  0
LINE
  8
0
 10
3.31065
 20
-3.31065
 11
3.20158
 21
-3.40952
  0
LINE
  8
0
 10
3.20158
 20
-3.40952
 11
3.08334
 21
-3.49719
  0
LINE
  8
0
 10
3.08334
 20
-3.49719
 11
2.95709
 21
-3.57288
  0
LINE
  8
0
 10
2.95709
 20
-3.57288
 11
2.82402
 21
-3.63582
  0
LINE
  8
0
 10
2.82402
 20
-3.63582
 11
2.68542
 21
-3.68541
  0
LINE
  8
0
 10
2.68542
 20
-3.68541
 11
2.54263
 21
-3.72118
  0
LINE
  8
0
 10
2.54263
 20
-3.72118
 11
2.39702
 21
-3.74277
  0
LINE
  8
0
 10
2.39702
 20
-3.74277
 11
2.25
 21
-3.75
  0
LINE
  8
0
 10
2.25
 20
-3.75
 11
2.10297
 21
-3.74277
  0
LINE
  8
0
 10
0.399994
 20
2.19499
 11
-0.399994
 21
2.19499
  0
LINE
  8
0
 10
-0.399994
 20
2.19499
 11
-0.399994
 21
2.155
  0
LINE
  8
0
 10
-0.399994
 20
2.155
 11
0.399994
 21
2.155
  0
LINE
  8
0
 10
0.399994
 20
2.155
 11
0.399994
 21
2.19499
  0
LINE
  8
0
 10
0.399994
 20
2.14499
 11
-0.399994
 21
2.14499
  0
LINE
  8
0
 10
-0.399994
 20
2.14499
 11
-0.399994
 21
2.105
  0
LINE
  8
0
 10
-0.399994
 20
2.105
 11
0.399994
 21
2.105
  0
LINE
  8
0
 10
0.399994
 20
2.105
 11
0.399994
 21
2.14499
  0
LINE
  8
0
 10
0.399994
 20
2.09499
 11
-0.399994
 21
2.09499
  0
LINE
  8
0
 10
-0.399994
 20
2.09499
 11
-0.399994
 21
2.05499
  0
LINE
  8
0
 10
-0.399994
 20
2.05499
 11
0.399994
 21
2.05499
  0
LINE
  8
0
 10
0.399994
 20
2.05499
 11
0.399994
 21
2.09499
  0
LINE
  8
0
 10
0.399994
 20
2.045
 11
-0.399994
 21
2.045
  0
LINE
  8
0
 10
-0.399994
 20
2.045
 11
-0.399994
 21
2.00499
  0
LINE
  8
0
 10
-0.399994
 20
2.00499
 11
0.399994
 21
2.00499
  0
LINE
  8
0
 10
0.399994
 20
2.00499
 11
0.399994
 21
2.045
  0
LINE
  8
0
 10
0.399994
 20
1.995
 11
-0.399994
 21
1.995
  0
LINE
  8
0
 10
-0.399994
 20
1.995
 11
-0.399994
 21
1.95499
  0
LINE
  8
0
 10
-0.399994
 20
1.95499
 11
0.399994
 21
1.95499
  0
LINE
  8
0
 10
0.399994
 20
1.95499
 11
0.399994
 21
1.995
  0
LINE
  8
0
 10
0.399994
 20
1.94499
 11
-0.399994
 21
1.94499
  0
LINE
  8
0
 10
-0.399994
 20
1.94499
 11
-0.399994
 21
1.905
  0
LINE
  8
0
 10
-0.399994
 20
1.905
 11
0.399994
 21
1.905
  0
LINE
  8
0
 10
0.399994
 20
1.905
 11
0.399994
 21
1.94499
  0
LINE
  8
0
 10
0.399994
 20
1.89499
 11
-0.399994
 21
1.89499
  0
LINE
  8
0
 10
-0.399994
 20
1.89499
 11
-0.399994
 21
1.855
  0
LINE
  8
0
 10
-0.399994
 20
1.855
 11
0.399994
 21
1.855
  0
LINE
  8
0
 10
0.399994
 20
1.855
 11
0.399994
 21
1.89499
  0
LINE
  8
0
 10
0.399994
 20
1.84499
 11
-0.399994
 21
1.84499
  0
LINE
  8
0
 10
-0.399994
 20
1.84499
 11
-0.399994
 21
1.80499
  0
LINE
  8
0
 10
-0.399994
 20
1.80499
 11
0.399994
 21
1.80499
  0
LINE
  8
0
 10
0.399994
 20
1.80499
 11
0.399994
 21
1.84499
  0
LINE
  8
0
 10
0.399994
 20
1.795
 11
-0.399994
 21
1.795
  0
LINE
  8
0
 10
-0.399994
 20
1.795
 11
-0.399994
 21
1.75499
  0
LINE
  8
0
 10
-0.399994
 20
1.75499
 11
0.399994
 21
1.75499
  0
LINE
  8
0
 10
0.399994
 20
1.75499
 11
0.399994
 21
1.795
  0
LINE
  8
0
 10
0.399994
 20
1.745
 11
-0.399994
 21
1.745
  0
LINE
  8
0
 10
-0.399994
 20
1.745
 11
-0.399994
 21
1.70499
  0
LINE
  8
0
 10
-0.399994
 20
1.70499
 11
0.399994
 21
1.70499
  0
LINE
  8
0
 10
0.399994
 20
1.70499
 11
0.399994
 21
1.745
  0
LINE
  8
0
 10
0.399994
 20
1.69499
 11
-0.399994
 21
1.69499
  0
LINE
  8
0
 10
-0.399994
 20
1.69499
 11
-0.399994
 21
1.655
  0
LINE
  8
0
 10
-0.399994
 20
1.655
 11
0.399994
 21
1.655
  0
LINE
  8
0
 10
0.399994
 20
1.655
 11
0.399994
 21
1.69499
  0
LINE
  8
0
 10
0.399994
 20
1.64499
 11
-0.399994
 21
1.64499
  0
LINE
  8
0
 10
-0.399994
 20
1.64499
 11
-0.399994
 21
1.605
  0
LINE
  8
0
 10
-0.399994
 20
1.605
 11
0.399994
 21
1.605
  0
LINE
  8
0
 10
0.399994
 20
1.605
 11
0.399994
 21
1.64499
  0
LINE
  8
0
 10
0.399994
 20
1.59499
 11
-0.399994
 21
1.59499
  0
LINE
  8
0
 10
-0.399994
 20
1.59499
 11
-0.399994
 21
1.55499
  0
LINE
  8
0
 10
-0.399994
 20
1.55499
 11
0.399994
 21
1.55499
  0
LINE
  8
0
 10
0.399994
 20
1.55499
 11
0.399994
 21
1.59499
  0
LINE
  8
0
 10
0.399994
 20
1.545
 11
-0.399994
 21
1.545
  0
LINE
  8
0
 10
-0.399994
 20
1.545
 11
-0.399994
 21
1.50499
  0
LINE
  8
0
 10
-0.399994
 20
1.50499
 11
0.399994
 21
1.50499
  0
LINE
  8
0
 10
0.399994
 20
1.50499
 11
0.399994
 21
1.545
  0
LINE
  8
0
 10
0.399994
 20
1.495
 11
-0.399994
 21
1.495
  0
LINE
  8
0
 10
-0.399994
 20
1.495
 11
-0.399994
 21
1.45499
  0
LINE
  8
0
 10
-0.399994
 20
1.45499
 11
0.399994
 21
1.45499
  0
LINE
  8
0
 10
0.399994
 20
1.45499
 11
0.399994
 21
1.495
  0
LINE
  8
0
 10
0.399994
 20
1.44499
 11
-0.399994
 21
1.44499
  0
LINE
  8
0
 10
-0.399994
 20
1.44499
 11
-0.399994
 21
1.405
  0
LINE
  8
0
 10
-0.399994
 20
1.405
 11
0.399994
 21
1.405
  0
LINE
  8
0
 10
0.399994
 20
1.405
 11
0.399994
 21
1.44499
  0
LINE
  8
0
 10
0.399994
 20
1.39499
 11
-0.399994
 21
1.39499
  0
LINE
  8
0
 10
-0.399994
 20
1.39499
 11
-0.399994
 21
1.355
  0
LINE
  8
0
 10
-0.399994
 20
1.355
 11
0.399994
 21
1.355
  0
LINE
  8
0
 10
0.399994
 20
1.355
 11
0.399994
 21
1.39499
  0
LINE
  8
0
 10
0.399994
 20
1.34499
 11
-0.399994
 21
1.34499
  0
LINE
  8
0
 10
-0.399994
 20
1.34499
 11
-0.399994
 21
1.30499
  0
LINE
  8
0
 10
-0.399994
 20
1.30499
 11
0.399994
 21
1.30499
  0
LINE
  8
0
 10
0.399994
 20
1.30499
 11
0.399994
 21
1.34499
  0
LINE
  8
0
 10
0.399994
 20
1.295
 11
-0.399994
 21
1.295
  0
LINE
  8
0
 10
-0.399994
 20
1.295
 11
-0.399994
 21
1.25499
  0
LINE
  8
0
 10
-0.399994
 20
1.25499
 11
0.399994
 21
1.25499
  0
LINE
  8
0
 10
0.399994
 20
1.25499
 11
0.399994
 21
1.295
  0
LINE
  8
0
 10
0.399994
 20
1.245
 11
-0.399994
 21
1.245
  0
LINE
  8
0
 10
-0.399994
 20
1.245
 11
-0.399994
 21
1.20499
  0
LINE
  8
0
 10
-0.399994
 20
1.20499
 11
0.399994
 21
1.20499
  0
LINE
  8
0
 10
0.399994
 20
1.20499
 11
0.399994
 21
1.245
  0
LINE
  8
0
 10
0.399994
 20
1.19499
 11
-0.399994
 21
1.19499
  0
LINE
  8
0
 10
-0.399994
 20
1.19499
 11
-0.399994
 21
1.155
  0
LINE
  8
0
 10
-0.399994
 20
1.155
 11
0.399994
 21
1.155
  0
LINE
  8
0
 10
0.399994
 20
1.155
 11
0.399994
 21
1.19499
  0
LINE
  8
0
 10
0.399994
 20
1.14499
 11
-0.399994
 21
1.14499
  0
LINE
  8
0
 10
-0.399994
 20
1.14499
 11
-0.399994
 21
1.105
  0
LINE
  8
0
 10
-0.399994
 20
1.105
 11
0.399994
 21
1.105
  0
LINE
  8
0
 10
0.399994
 20
1.105
 11
0.399994
 21
1.14499
  0
LINE
  8
0
 10
0.399994
 20
1.09499
 11
-0.399994
 21
1.09499
  0
LINE
  8
0
 10
-0.399994
 20
1.09499
 11
-0.399994
 21
1.05499
  0
LINE
  8
0
 10
-0.399994
 20
1.05499
 11
0.399994
 21
1.05499
  0
LINE
  8
0
 10
0.399994
 20
1.05499
 11
0.399994
 21
1.09499
  0
LINE
  8
0
 10
0.399994
 20
1.045
 11
-0.399994
 21
1.045
  0
LINE
  8
0
 10
-0.399994
 20
1.045
 11
-0.399994
 21
1.00499
  0
LINE
  8
0
 10
-0.399994
 20
1.00499
 11
0.399994
 21
1.00499
  0
LINE
  8
0
 10
0.399994
 20
1.00499
 11
0.399994
 21
1.045
  0
LINE
  8
0
 10
0.399994
 20
0.994995
 11
-0.399994
 21
0.994995
  0
LINE
  8
0
 10
-0.399994
 20
0.994995
 11
-0.399994
 21
0.954987
  0
LINE
  8
0
 10
-0.399994
 20
0.954987
 11
0.399994
 21
0.954987
  0
LINE
  8
0
 10
0.399994
 20
0.954987
 11
0.399994
 21
0.994995
  0
LINE
  8
0
 10
0.399994
 20
0.944992
 11
-0.399994
 21
0.944992
  0
LINE
  8
0
 10
-0.399994
 20
0.944992
 11
-0.399994
 21
0.904999
  0
LINE
  8
0
 10
-0.399994
 20
0.904999
 11
0.399994
 21
0.904999
  0
LINE
  8
0
 10
0.399994
 20
0.904999
 11
0.399994
 21
0.944992
  0
LINE
  8
0
 10
0.399994
 20
0.894989
 11
-0.399994
 21
0.894989
  0
LINE
  8
0
 10
-0.399994
 20
0.894989
 11
-0.399994
 21
0.854996
  0
LINE
  8
0
 10
-0.399994
 20
0.854996
 11
0.399994
 21
0.854996
  0
LINE
  8
0
 10
0.399994
 20
0.854996
 11
0.399994
 21
0.894989
  0
LINE
  8
0
 10
0.399994
 20
0.844986
 11
-0.399994
 21
0.844986
  0
LINE
  8
0
 10
-0.399994
 20
0.844986
 11
-0.399994
 21
0.804993
  0
LINE
  8
0
 10
-0.399994
 20
0.804993
 11
0.399994
 21
0.804993
  0
LINE
  8
0
 10
0.399994
 20
0.804993
 11
0.399994
 21
0.844986
  0
LINE
  8
0
 10
0.399994
 20
0.794998
 11
-0.399994
 21
0.794998
  0
LINE
  8
0
 10
-0.399994
 20
0.794998
 11
-0.399994
 21
0.75499
  0
LINE
  8
0
 10
-0.399994
 20
0.75499
 11
0.399994
 21
0.75499
  0
LINE
  8
0
 10
0.399994
 20
0.75499
 11
0.399994
 21
0.794998
  0
LINE
  8
0
 10
0.399994
 20
0.744995
 11
-0.399994
 21
0.744995
  0
LINE
  8
0
 10
-0.399994
 20
0.744995
 11
-0.399994
 21
0.704987
  0
LINE
  8
0
 10
-0.399994
 20
0.704987
 11
0.399994
 21
0.704987
  0
LINE
  8
0
 10
0.399994
 20
0.704987
 11
0.399994
 21
0.744995
  0
LINE
  8
0
 10
0.399994
 20
0.694992
 11
-0.399994
 21
0.694992
  0
LINE
  8
0
 10
-0.399994
 20
0.694992
 11
-0.399994
 21
0.654999
  0
LINE
  8
0
 10
-0.399994
 20
0.654999
 11
0.399994
 21
0.654999
  0
LINE
  8
0
 10
0.399994
 20
0.654999
 11
0.399994
 21
0.694992
  0
LINE
  8
0
 10
0.399994
 20
0.644989
 11
-0.399994
 21
0.644989
  0
LINE
  8
0
 10
-0.399994
 20
0.644989
 11
-0.399994
 21
0.604996
  0
LINE
  8
0
 10
-0.399994
 20
0.604996
 11
0.399994
 21
0.604996
  0
LINE
  8
0
 10
0.399994
 20
0.604996
 11
0.399994
 21
0.644989
  0
LINE
  8
0
 10
0.399994
 20
0.594986
 11
-0.399994
 21
0.594986
  0
LINE
  8
0
 10
-0.399994
 20
0.594986
 11
-0.399994
 21
0.554993
  0
LINE
  8
0
 10
-0.399994
 20
0.554993
 11
0.399994
 21
0.554993
  0
LINE
  8
0
 10
0.399994
 20
0.554993
 11
0.399994
 21
0.594986
  0
LINE
  8
0
 10
0.399994
 20
0.544998
 11
-0.399994
 21
0.544998
  0
LINE
  8
0
 10
-0.399994
 20
0.544998
 11
-0.399994
 21
0.50499
  0
LINE
  8
0
 10
-0.399994
 20
0.50499
 11
0.399994
 21
0.50499
  0
LINE
  8
0
 10
0.399994
 20
0.50499
 11
0.399994
 21
0.544998
  0
LINE
  8
0
 10
0.399994
 20
0.494995
 11
-0.399994
 21
0.494995
  0
LINE
  8
0
 10
-0.399994
 20
0.494995
 11
-0.399994
 21
0.454987
  0
LINE
  8
0
 10
-0.399994
 20
0.454987
 11
0.399994
 21
0.454987
  0
LINE
  8
0
 10
0.399994
 20
0.454987
 11
0.399994
 21
0.494995
  0
LINE
  8
0
 10
0.399994
 20
0.444992
 11
-0.399994
 21
0.444992
  0
LINE
  8
0
 10
-0.399994
 20
0.444992
 11
-0.399994
 21
0.404999
  0
LINE
  8
0
 10
-0.399994
 20
0.404999
 11
0.399994
 21
0.404999
  0
LINE
  8
0
 10
0.399994
 20
0.404999
 11
0.399994
 21
0.444992
  0
LINE
  8
0
 10
0.399994
 20
0.394989
 11
-0.399994
 21
0.394989
  0
LINE
  8
0
 10
-0.399994
 20
0.394989
 11
-0.399994
 21
0.354996
  0
LINE
  8
0
 10
-0.399994
 20
0.354996
 11
0.399994
 21
0.354996
  0
LINE
  8
0
 10
0.399994
 20
0.354996
 11
0.399994
 21
0.394989
  0
LINE
  8
0
 10
0.399994
 20
0.344986
 11
-0.399994
 21
0.344986
  0
LINE
  8
0
 10
-0.399994
 20
0.344986
 11
-0.399994
 21
0.304993
  0
LINE
  8
0
 10
-0.399994
 20
0.304993
 11
0.399994
 21
0.304993
  0
LINE
  8
0
 10
0.399994
 20
0.304993
 11
0.399994
 21
0.344986
  0
LINE
  8
0
 10
0.399994
 20
0.294998
 11
-0.399994
 21
0.294998
  0
LINE
  8
0
 10
-0.399994
 20
0.294998
 11
-0.399994
 21
0.25499
  0
LINE
  8
0
 10
-0.399994
 20
0.25499
 11
0.399994
 21
0.25499
  0
LINE
  8
0
 10
0.399994
 20
0.25499
 11
0.399994
 21
0.294998
  0
LINE
  8
0
 10
0.399994
 20
0.244995
 11
-0.399994
 21
0.244995
  0
LINE
  8
0
 10
-0.399994
 20
0.244995
 11
-0.399994
 21
0.204987
  0
LINE
  8
0
 10
-0.399994
 20
0.204987
 11
0.399994
 21
0.204987
  0
LINE
  8
0
 10
0.399994
 20
0.204987
 11
0.399994
 21
0.244995
  0
LINE
  8
0
 10
0.399994
 20
0.194992
 11
-0.399994
 21
0.194992
  0
LINE
  8
0
 10
-0.399994
 20
0.194992
 11
-0.399994
 21
0.154999
  0
LINE
  8
0
 10
-0.399994
 20
0.154999
 11
0.399994
 21
0.154999
  0
LINE
  8
0
 10
0.399994
 20
0.154999
 11
0.399994
 21
0.194992
  0
LINE
  8
0
 10
0.399994
 20
0.144989
 11
-0.399994
 21
0.144989
  0
LINE
  8
0
 10
-0.399994
 20
0.144989
 11
-0.399994
 21
0.104996
  0
LINE
  8
0
 10
-0.399994
 20
0.104996
 11
0.399994
 21
0.104996
  0
LINE
  8
0
 10
0.399994
 20
0.104996
 11
0.399994
 21
0.144989
  0
LINE
  8
0
 10
0.399994
 20
0.094986
 11
-0.399994
 21
0.094986
  0
LINE
  8
0
 10
-0.399994
 20
0.094986
 11
-0.399994
 21
0.0549927
  0
LINE
  8
0
 10
-0.399994
 20
0.0549927
 11
0.399994
 21
0.0549927
  0
LINE
  8
0
 10
0.399994
 20
0.0549927
 11
0.399994
 21
0.094986
  0
LINE
  8
0
 10
0.399994
 20
0.0449982
 11
-0.399994
 21
0.0449982
  0
LINE
  8
0
 10
-0.399994
 20
0.0449982
 11
-0.399994
 21
0.00498962
  0
LINE
  8
0
 10
-0.399994
 20
0.00498962
 11
0.399994
 21
0.00498962
  0
LINE
  8
0
 10
0.399994
 20
0.00498962
 11
0.399994
 21
0.0449982
  0
LINE
  8
0
 10
0.399994
 20
-0.00498962
 11
-0.399994
 21
-0.00498962
  0
LINE
  8
0
 10
-0.399994
 20
-0.00498962
 11
-0.399994
 21
-0.0449982
  0
LINE
  8
0
 10
-0.399994
 20
-0.0449982
 11
0.399994
 21
-0.0449982
  0
LINE
  8
0
 10
0.399994
 20
-0.0449982
 11
0.399994
 21
-0.00498962
  0
LINE
  8
0
 10
0.399994
 20
-0.0549927
 11
-0.399994
 21
-0.0549927
  0
LINE
  8
0
 10
-0.399994
 20
-0.0549927
 11
-0.399994
 21
-0.094986
  0
LINE
  8
0
 10
-0.399994
 20
-0.094986
 11
0.399994
 21
-0.094986
  0
LINE
  8
0
 10
0.399994
 20
-0.094986
 11
0.399994
 21
-0.0549927
  0
LINE
  8
0
 10
0.399994
 20
-0.104996
 11
-0.399994
 21
-0.104996
  0
LINE
  8
0
 10
-0.399994
 20
-0.104996
 11
-0.399994
 21
-0.144989
  0
LINE
  8
0
 10
-0.399994
 20
-0.144989
 11
0.399994
 21
-0.144989
  0
LINE
  8
0
 10
0.399994
 20
-0.144989
 11
0.399994
 21
-0.104996
  0
LINE
  8
0
 10
0.399994
 20
-0.154999
 11
-0.399994
 21
-0.154999
  0
LINE
  8
0
 10
-0.399994
 20
-0.154999
 11
-0.399994
 21
-0.194992
  0
LINE
  8
0
 10
-0.399994
 20
-0.194992
 11
0.399994
 21
-0.194992
  0
LINE
  8
0
 10
0.399994
 20
-0.194992
 11
0.399994
 21
-0.154999
  0
LINE
  8
0
 10
0.399994
 20
-0.204987
 11
-0.399994
 21
-0.204987
  0
LINE
  8
0
 10
-0.399994
 20
-0.204987
 11
-0.399994
 21
-0.244995
  0
LINE
  8
0
 10
-0.399994
 20
-0.244995
 11
0.399994
 21
-0.244995
  0
LINE
  8
0
 10
0.399994
 20
-0.244995
 11
0.399994
 21
-0.204987
  0
LINE
  8
0
 10
0.399994
 20
-0.25499
 11
-0.399994
 21
-0.25499
  0
LINE
  8
0
 10
-0.399994
 20
-0.25499
 11
-0.399994
 21
-0.294998
  0
LINE
  8
0
 10
-0.399994
 20
-0.294998
 11
0.399994
 21
-0.294998
  0
LINE
  8
0
 10
0.399994
 20
-0.294998
 11
0.399994
 21
-0.25499
  0
LINE
  8
0
 10
0.399994
 20
-0.304993
 11
-0.399994
 21
-0.304993
  0
LINE
  8
0
 10
-0.399994
 20
-0.304993
 11
-0.399994
 21
-0.344986
  0
LINE
  8
0
 10
-0.399994
 20
-0.344986
 11
0.399994
 21
-0.344986
  0
LINE
  8
0
 10
0.399994
 20
-0.344986
 11
0.399994
 21
-0.304993
  0
LINE
  8
0
 10
0.399994
 20
-0.354996
 11
-0.399994
 21
-0.354996
  0
LINE
  8
0
 10
-0.399994
 20
-0.354996
 11
-0.399994
 21
-0.394989
  0
LINE
  8
0
 10
-0.399994
 20
-0.394989
 11
0.399994
 21
-0.394989
  0
LINE
  8
0
 10
0.399994
 20
-0.394989
 11
0.399994
 21
-0.354996
  0
LINE
  8
0
 10
0.399994
 20
-0.404999
 11
-0.399994
 21
-0.404999
  0
LINE
  8
0
 10
-0.399994
 20
-0.404999
 11
-0.399994
 21
-0.444992
  0
LINE
  8
0
 10
-0.399994
 20
-0.444992
 11
0.399994
 21
-0.444992
  0
LINE
  8
0
 10
0.399994
 20
-0.444992
 11
0.399994
 21
-0.404999
  0
LINE
  8
0
 10
0.399994
 20
-0.454987
 11
-0.399994
 21
-0.454987
  0
LINE
  8
0
 10
-0.399994
 20
-0.454987
 11
-0.399994
 21
-0.494995
  0
LINE
  8
0
 10
-0.399994
 20
-0.494995
 11
0.399994
 21
-0.494995
  0
LINE
  8
0
 10
0.399994
 20
-0.494995
 11
0.399994
 21
-0.454987
  0
LINE
  8
0
 10
0.399994
 20
-0.50499
 11
-0.399994
 21
-0.50499
  0
LINE
  8
0
 10
-0.399994
 20
-0.50499
 11
-0.399994
 21
-0.544998
  0
LINE
  8
0
 10
-0.399994
 20
-0.544998
 11
0.399994
 21
-0.544998
  0
LINE
  8
0
 10
0.399994
 20
-0.544998
 11
0.399994
 21
-0.50499
  0
LINE
  8
0
 10
0.399994
 20
-0.554993
 11
-0.399994
 21
-0.554993
  0
LINE
  8
0
 10
-0.399994
 20
-0.554993
 11
-0.399994
 21
-0.594986
  0
LINE
  8
0
 10
-0.399994
 20
-0.594986
 11
0.399994
 21
-0.594986
  0
LINE
  8
0
 10
0.399994
 20
-0.594986
 11
0.399994
 21
-0.554993
  0
LINE
  8
0
 10
0.399994
 20
-0.604996
 11
-0.399994
 21
-0.604996
  0
LINE
  8
0
 10
-0.399994
 20
-0.604996
 11
-0.399994
 21
-0.644989
  0
LINE
  8
0
 10
-0.399994
 20
-0.644989
 11
0.399994
 21
-0.644989
  0
LINE
  8
0
 10
0.399994
 20
-0.644989
 11
0.399994
 21
-0.604996
  0
LINE
  8
0
 10
0.399994
 20
-0.654999
 11
-0.399994
 21
-0.654999
  0
LINE
  8
0
 10
-0.399994
 20
-0.654999
 11
-0.399994
 21
-0.694992
  0
LINE
  8
0
 10
-0.399994
 20
-0.694992
 11
0.399994
 21
-0.694992
  0
LINE
  8
0
 10
0.399994
 20
-0.694992
 11
0.399994
 21
-0.654999
  0
LINE
  8
0
 10
0.399994
 20
-0.704987
 11
-0.399994
 21
-0.704987
  0
LINE
  8
0
 10
-0.399994
 20
-0.704987
 11
-0.399994
 21
-0.744995
  0
LINE
  8
0
 10
-0.399994
 20
-0.744995
 11
0.399994
 21
-0.744995
  0
LINE
  8
0
 10
0.399994
 20
-0.744995
 11
0.399994
 21
-0.704987
  0
LINE
  8
0
 10
0.399994
 20
-0.75499
 11
-0.399994
 21
-0.75499
  0
LINE
  8
0
 10
-0.399994
 20
-0.75499
 11
-0.399994
 21
-0.794998
  0
LINE
  8
0
 10
-0.399994
 20
-0.794998
 11
0.399994
 21
-0.794998
  0
LINE
  8
0
 10
0.399994
 20
-0.794998
 11
0.399994
 21
-0.75499
  0
LINE
  8
0
 10
0.399994
 20
-0.804993
 11
-0.399994
 21
-0.804993
  0
LINE
  8
0
 10
-0.399994
 20
-0.804993
 11
-0.399994
 21
-0.844986
  0
LINE
  8
0
 10
-0.399994
 20
-0.844986
 11
0.399994
 21
-0.844986
  0
LINE
  8
0
 10
0.399994
 20
-0.844986
 11
0.399994
 21
-0.804993
  0
LINE
  8
0
 10
0.399994
 20
-0.854996
 11
-0.399994
 21
-0.854996
  0
LINE
  8
0
 10
-0.399994
 20
-0.854996
 11
-0.399994
 21
-0.894989
  0
LINE
  8
0
 10
-0.399994
 20
-0.894989
 11
0.399994
 21
-0.894989
  0
LINE
  8
0
 10
0.399994
 20
-0.894989
 11
0.399994
 21
-0.854996
  0
LINE
  8
0
 10
0.399994
 20
-0.904999
 11
-0.399994
 21
-0.904999
  0
LINE
  8
0
 10
-0.399994
 20
-0.904999
 11
-0.399994
 21
-0.944992
  0
LINE
  8
0
 10
-0.399994
 20
-0.944992
 11
0.399994
 21
-0.944992
  0
LINE
  8
0
 10
0.399994
 20
-0.944992
 11
0.399994
 21
-0.904999
  0
LINE
  8
0
 10
0.399994
 20
-0.954987
 11
-0.399994
 21
-0.954987
  0
LINE
  8
0
 10
-0.399994
 20
-0.954987
 11
-0.399994
 21
-0.994995
  0
LINE
  8
0
 10
-0.399994
 20
-0.994995
 11
0.399994
 21
-0.994995
  0
LINE
  8
0
 10
0.399994
 20
-0.994995
 11
0.399994
 21
-0.954987
  0
LINE
  8
0
 10
0.399994
 20
-1.00499
 11
-0.399994
 21
-1.00499
  0
LINE
  8
0
 10
-0.399994
 20
-1.00499
 11
-0.399994
 21
-1.045
  0
LINE
  8
0
 10
-0.399994
 20
-1.045
 11
0.399994
 21
-1.045
  0
LINE
  8
0
 10
0.399994
 20
-1.045
 11
0.399994
 21
-1.00499
  0
LINE
  8
0
 10
0.399994
 20
-1.05499
 11
-0.399994
 21
-1.05499
  0
LINE
  8
0
 10
-0.399994
 20
-1.05499
 11
-0.399994
 21
-1.09499
  0
LINE
  8
0
 10
-0.399994
 20
-1.09499
 11
0.399994
 21
-1.09499
  0
LINE
  8
0
 10
0.399994
 20
-1.09499
 11
0.399994
 21
-1.05499
  0
LINE
  8
0
 10
0.399994
 20
-1.105
 11
-0.399994
 21
-1.105
  0
LINE
  8
0
 10
-0.399994
 20
-1.105
 11
-0.399994
 21
-1.14499
  0
LINE
  8
0
 10
-0.399994
 20
-1.14499
 11
0.399994
 21
-1.14499
  0
LINE
  8
0
 10
0.399994
 20
-1.14499
 11
0.399994
 21
-1.105
  0
LINE
  8
0
 10
0.399994
 20
-1.155
 11
-0.399994
 21
-1.155
  0
LINE
  8
0
 10
-0.399994
 20
-1.155
 11
-0.399994
 21
-1.19499
  0
LINE
  8
0
 10
-0.399994
 20
-1.19499
 11
0.399994
 21
-1.19499
  0
LINE
  8
0
 10
0.399994
 20
-1.19499
 11
0.399994
 21
-1.155
  0
LINE
  8
0
 10
0.399994
 20
-1.20499
 11
-0.399994
 21
-1.20499
  0
LINE
  8
0
 10
-0.399994
 20
-1.20499
 11
-0.399994
 21
-1.245
  0
LINE
  8
0
 10
-0.399994
 20
-1.245
 11
0.399994
 21
-1.245
  0
LINE
  8
0
 10
0.399994
 20
-1.245
 11
0.399994
 21
-1.20499
  0
LINE
  8
0
 10
0.399994
 20
-1.25499
 11
-0.399994
 21
-1.25499
  0
LINE
  8
0
 10
-0.399994
 20
-1.25499
 11
-0.399994
 21
-1.295
  0
LINE
  8
0
 10
-0.399994
 20
-1.295
 11
0.399994
 21
-1.295
  0
LINE
  8
0
 10
0.399994
 20
-1.295
 11
0.399994
 21
-1.25499
  0
LINE
  8
0
 10
0.399994
 20
-1.30499
 11
-0.399994
 21
-1.30499
  0
LINE
  8
0
 10
-0.399994
 20
-1.30499
 11
-0.399994
 21
-1.34499
  0
LINE
  8
0
 10
-0.399994
 20
-1.34499
 11
0.399994
 21
-1.34499
  0
LINE
  8
0
 10
0.399994
 20
-1.34499
 11
0.399994
 21
-1.30499
  0
LINE
  8
0
 10
0.399994
 20
-1.355
 11
-0.399994
 21
-1.355
  0
LINE
  8
0
 10
-0.399994
 20
-1.355
 11
-0.399994
 21
-1.39499
  0
LINE
  8
0
 10
-0.399994
 20
-1.39499
 11
0.399994
 21
-1.39499
  0
LINE
  8
0
 10
0.399994
 20
-1.39499
 11
0.399994
 21
-1.355
  0
LINE
  8
0
 10
0.399994
 20
-1.405
 11
-0.399994
 21
-1.405
  0
LINE
  8
0
 10
-0.399994
 20
-1.405
 11
-0.399994
 21
-1.44499
  0
LINE
  8
0
 10
-0.399994
 20
-1.44499
 11
0.399994
 21
-1.44499
  0
LINE
  8
0
 10
0.399994
 20
-1.44499
 11
0.399994
 21
-1.405
  0
LINE
  8
0
 10
0.399994
 20
-1.45499
 11
-0.399994
 21
-1.45499
  0
LINE
  8
0
 10
-0.399994
 20
-1.45499
 11
-0.399994
 21
-1.495
  0
LINE
  8
0
 10
-0.399994
 20
-1.495
 11
0.399994
 21
-1.495
  0
LINE
  8
0
 10
0.399994
 20
-1.495
 11
0.399994
 21
-1.45499
  0
LINE
  8
0
 10
0.399994
 20
-1.50499
 11
-0.399994
 21
-1.50499
  0
LINE
  8
0
 10
-0.399994
 20
-1.50499
 11
-0.399994
 21
-1.545
  0
LINE
  8
0
 10
-0.399994
 20
-1.545
 11
0.399994
 21
-1.545
  0
LINE
  8
0
 10
0.399994
 20
-1.545
 11
0.399994
 21
-1.50499
  0
LINE
  8
0
 10
0.399994
 20
-1.55499
 11
-0.399994
 21
-1.55499
  0
LINE
  8
0
 10
-0.399994
 20
-1.55499
 11
-0.399994
 21
-1.59499
  0
LINE
  8
0
 10
-0.399994
 20
-1.59499
 11
0.399994
 21
-1.59499
  0
LINE
  8
0
 10
0.399994
 20
-1.59499
 11
0.399994
 21
-1.55499
  0
LINE
  8
0
 10
0.399994
 20
-1.605
 11
-0.399994
 21
-1.605
  0
LINE
  8
0
 10
-0.399994
 20
-1.605
 11
-0.399994
 21
-1.64499
  0
LINE
  8
0
 10
-0.399994
 20
-1.64499
 11
0.399994
 21
-1.64499
  0
LINE
  8
0
 10
0.399994
 20
-1.64499
 11
0.399994
 21
-1.605
  0
LINE
  8
0
 10
0.399994
 20
-1.655
 11
-0.399994
 21
-1.655
  0
LINE
  8
0
 10
-0.399994
 20
-1.655
 11
-0.399994
 21
-1.69499
  0
LINE
  8
0
 10
-0.399994
 20
-1.69499
 11
0.399994
 21
-1.69499
  0
LINE
  8
0
 10
0.399994
 20
-1.69499
 11
0.399994
 21
-1.655
  0
LINE
  8
0
 10
0.399994
 20
-1.70499
 11
-0.399994
 21
-1.70499
  0
LINE
  8
0
 10
-0.399994
 20
-1.70499
 11
-0.399994
 21
-1.745
  0
LINE
  8
0
 10
-0.399994
 20
-1.745
 11
0.399994
 21
-1.745
  0
LINE
  8
0
 10
0.399994
 20
-1.745
 11
0.399994
 21
-1.70499
  0
LINE
  8
0
 10
0.399994
 20
-1.75499
 11
-0.399994
 21
-1.75499
  0
LINE
  8
0
 10
-0.399994
 20
-1.75499
 11
-0.399994
 21
-1.795
  0
LINE
  8
0
 10
-0.399994
 20
-1.795
 11
0.399994
 21
-1.795
  0
LINE
  8
0
 10
0.399994
 20
-1.795
 11
0.399994
 21
-1.75499
  0
LINE
  8
0
 10
0.399994
 20
-1.80499
 11
-0.399994
 21
-1.80499
  0
LINE
  8
0
 10
-0.399994
 20
-1.80499
 11
-0.399994
 21
-1.84499
  0
LINE
  8
0
 10
-0.399994
 20
-1.84499
 11
0.399994
 21
-1.84499
  0
LINE
  8
0
 10
0.399994
 20
-1.84499
 11
0.399994
 21
-1.80499
  0
LINE
  8
0
 10
0.399994
 20
-1.855
 11
-0.399994
 21
-1.855
  0
LINE
  8
0
 10
-0.399994
 20
-1.855
 11
-0.399994
 21
-1.89499
  0
LINE
  8
0
 10
-0.399994
 20
-1.89499
 11
0.399994
 21
-1.89499
  0
LINE
  8
0
 10
0.399994
 20
-1.89499
 11
0.399994
 21
-1.855
  0
LINE
  8
0
 10
0.399994
 20
-1.905
 11
-0.399994
 21
-1.905
  0
LINE
  8
0
 10
-0.399994
 20
-1.905
 11
-0.399994
 21
-1.94499
  0
LINE
  8
0
 10
-0.399994
 20
-1.94499
 11
0.399994
 21
-1.94499
  0
LINE
  8
0
 10
0.399994
 20
-1.94499
 11
0.399994
 21
-1.905
  0
LINE
  8
0
 10
0.399994
 20
-1.95499
 11
-0.399994
 21
-1.95499
  0
LINE
  8
0
 10
-0.399994
 20
-1.95499
 11
-0.399994
 21
-1.995
  0
LINE
  8
0
 10
-0.399994
 20
-1.995
 11
0.399994
 21
-1.995
  0
LINE
  8
0
 10
0.399994
 20
-1.995
 11
0.399994
 21
-1.95499
  0
LINE
  8
0
 10
0.399994
 20
-2.00499
 11
-0.399994
 21
-2.00499
  0
LINE
  8
0
 10
-0.399994
 20
-2.00499
 11
-0.399994
 21
-2.045
  0
LINE
  8
0
 10
-0.399994
 20
-2.045
 11
0.399994
 21
-2.045
  0
LINE
  8
0
 10
0.399994
 20
-2.045
 11
0.399994
 21
-2.00499
  0
LINE
  8
0
 10
0.399994
 20
-2.05499
 11
-0.399994
 21
-2.05499
  0
LINE
  8
0
 10
-0.399994
 20
-2.05499
 11
-0.399994
 21
-2.09499
  0
LINE
  8
0
 10
-0.399994
 20
-2.09499
 11
0.399994
 21
-2.09499
  0
LINE
  8
0
 10
0.399994
 20
-2.09499
 11
0.399994
 21
-2.05499
  0
LINE
  8
0
 10
0.399994
 20
-2.105
 11
-0.399994
 21
-2.105
  0
LINE
  8
0
 10
-0.399994
 20
-2.105
 11
-0.399994
 21
-2.14499
  0
LINE
  8
0
 10
-0.399994
 20
-2.14499
 11
0.399994
 21
-2.14499
  0
LINE
  8
0
 10
0.399994
 20
-2.14499
 11
0.399994
 21
-2.105
  0
LINE
  8
0
 10
0.399994
 20
-2.155
 11
-0.399994
 21
-2.155
  0
LINE
  8
0
 10
-0.399994
 20
-2.155
 11
-0.399994
 21
-2.19499
  0
LINE
  8
0
 10
-0.399994
 20
-2.19499
 11
0.399994
 21
-2.19499
  0
LINE
  8
0
 10
0.399994
 20
-2.19499
 11
0.399994
 21
-2.155
  0
ENDSEC
  0
SECTION
  2
OBJECTS
  0
DICTIONARY
  0
ENDSEC
  0
EOF
