solid OpenSCAD_Model
  facet normal 0 0 1
    outer loop
      vertex 53.2 115 8
      vertex 48.72 113.471 8
      vertex 53.2 113.471 8
    endloop
  endfacet
  facet normal 0 0 1
    outer loop
      vertex 48.72 113.471 8
      vertex -0.0499992 108.05 8
      vertex 48.72 109.579 8
    endloop
  endfacet
  facet normal -0 0 1
    outer loop
      vertex -7 115 8
      vertex 48.72 113.471 8
      vertex 53.2 115 8
    endloop
  endfacet
  facet normal 0 0 1
    outer loop
      vertex -0.0499992 108.05 8
      vertex -7 115 8
      vertex -0.0499992 -0.0499992 8
    endloop
  endfacet
  facet normal 0 0 1
    outer loop
      vertex 48.72 113.471 8
      vertex -7 115 8
      vertex -0.0499992 108.05 8
    endloop
  endfacet
  facet normal 0 0 1
    outer loop
      vertex 50.666 109.579 8
      vertex 53.2 111.525 8
      vertex 50.666 111.525 8
    endloop
  endfacet
  facet normal 0 0 1
    outer loop
      vertex 53.2 111.525 8
      vertex 50.666 109.579 8
      vertex 53.2 108.05 8
    endloop
  endfacet
  facet normal -0 0 1
    outer loop
      vertex 48.72 109.579 8
      vertex 53.2 108.05 8
      vertex 50.666 109.579 8
    endloop
  endfacet
  facet normal 0 0 1
    outer loop
      vertex 53.2 108.05 8
      vertex 48.72 109.579 8
      vertex -0.0499992 108.05 8
    endloop
  endfacet
  facet normal 0 0 1
    outer loop
      vertex 53.2 -0.0499992 8
      vertex 48.72 -1.579 8
      vertex 53.2 -1.579 8
    endloop
  endfacet
  facet normal 0 0 1
    outer loop
      vertex 48.72 -1.579 8
      vertex -0.0499992 -0.0499992 8
      vertex 48.72 -5.471 8
    endloop
  endfacet
  facet normal -0 0 1
    outer loop
      vertex -0.0499992 -0.0499992 8
      vertex 48.72 -1.579 8
      vertex 53.2 -0.0499992 8
    endloop
  endfacet
  facet normal 0 0 1
    outer loop
      vertex 50.666 -5.471 8
      vertex 53.2 -3.525 8
      vertex 50.666 -3.525 8
    endloop
  endfacet
  facet normal 0 0 1
    outer loop
      vertex 53.2 -3.525 8
      vertex 50.666 -5.471 8
      vertex 53.2 -7 8
    endloop
  endfacet
  facet normal -0 0 1
    outer loop
      vertex 48.72 -5.471 8
      vertex 53.2 -7 8
      vertex 50.666 -5.471 8
    endloop
  endfacet
  facet normal 0 0 1
    outer loop
      vertex -7 -7 8
      vertex 48.72 -5.471 8
      vertex -0.0499992 -0.0499992 8
    endloop
  endfacet
  facet normal 0 0 1
    outer loop
      vertex 48.72 -5.471 8
      vertex -7 -7 8
      vertex 53.2 -7 8
    endloop
  endfacet
  facet normal 0 0 1
    outer loop
      vertex -7 -7 8
      vertex -0.0499992 -0.0499992 8
      vertex -7 115 8
    endloop
  endfacet
  facet normal 0 0 -1
    outer loop
      vertex 53.2 -1 0
      vertex -0.0499992 -0.0499992 0
      vertex 53.2 -0.0499992 0
    endloop
  endfacet
  facet normal -0 0 -1
    outer loop
      vertex -0.0499992 -0.0499992 0
      vertex -1 -1 0
      vertex -0.0499992 108.05 0
    endloop
  endfacet
  facet normal 0 0 -1
    outer loop
      vertex -1 -1 0
      vertex -0.0499992 -0.0499992 0
      vertex 53.2 -1 0
    endloop
  endfacet
  facet normal 0 0 -1
    outer loop
      vertex -0.0499992 108.05 0
      vertex 53.2 109 0
      vertex 53.2 108.05 0
    endloop
  endfacet
  facet normal 0 0 -1
    outer loop
      vertex -0.0499992 108.05 0
      vertex -1 109 0
      vertex 53.2 109 0
    endloop
  endfacet
  facet normal 0 0 -1
    outer loop
      vertex -1 109 0
      vertex -0.0499992 108.05 0
      vertex -1 -1 0
    endloop
  endfacet
  facet normal -1 0 0
    outer loop
      vertex -1 -1 0
      vertex -1 109 1
      vertex -1 109 0
    endloop
  endfacet
  facet normal -1 -0 0
    outer loop
      vertex -1 109 1
      vertex -1 -1 0
      vertex -1 -1 1
    endloop
  endfacet
  facet normal 0 1 -0
    outer loop
      vertex 53.2 109 0
      vertex -1 109 1
      vertex 53.2 109 1
    endloop
  endfacet
  facet normal 0 1 0
    outer loop
      vertex -1 109 1
      vertex 53.2 109 0
      vertex -1 109 0
    endloop
  endfacet
  facet normal 0 -1 0
    outer loop
      vertex -1 -1 0
      vertex 53.2 -1 1
      vertex -1 -1 1
    endloop
  endfacet
  facet normal 0 -1 -0
    outer loop
      vertex 53.2 -1 1
      vertex -1 -1 0
      vertex 53.2 -1 0
    endloop
  endfacet
  facet normal 1 -0 0
    outer loop
      vertex -0.0499992 -0.0499992 8
      vertex -0.0499992 108.05 0
      vertex -0.0499992 108.05 8
    endloop
  endfacet
  facet normal 1 0 0
    outer loop
      vertex -0.0499992 108.05 0
      vertex -0.0499992 -0.0499992 8
      vertex -0.0499992 -0.0499992 0
    endloop
  endfacet
  facet normal 0 -1 0
    outer loop
      vertex -0.0499992 108.05 0
      vertex 53.2 108.05 8
      vertex -0.0499992 108.05 8
    endloop
  endfacet
  facet normal 0 -1 -0
    outer loop
      vertex 53.2 108.05 8
      vertex -0.0499992 108.05 0
      vertex 53.2 108.05 0
    endloop
  endfacet
  facet normal 0 1 -0
    outer loop
      vertex 53.2 -0.0499992 0
      vertex -0.0499992 -0.0499992 8
      vertex 53.2 -0.0499992 8
    endloop
  endfacet
  facet normal 0 1 0
    outer loop
      vertex -0.0499992 -0.0499992 8
      vertex 53.2 -0.0499992 0
      vertex -0.0499992 -0.0499992 0
    endloop
  endfacet
  facet normal 0 0 -1
    outer loop
      vertex 53.2 -7 1
      vertex -1 -1 1
      vertex 53.2 -1 1
    endloop
  endfacet
  facet normal -0 0 -1
    outer loop
      vertex -1 -1 1
      vertex -7 -7 1
      vertex -1 109 1
    endloop
  endfacet
  facet normal 0 0 -1
    outer loop
      vertex -7 -7 1
      vertex -1 -1 1
      vertex 53.2 -7 1
    endloop
  endfacet
  facet normal 0 0 -1
    outer loop
      vertex -1 109 1
      vertex 53.2 115 1
      vertex 53.2 109 1
    endloop
  endfacet
  facet normal 0 0 -1
    outer loop
      vertex -1 109 1
      vertex -7 115 1
      vertex 53.2 115 1
    endloop
  endfacet
  facet normal 0 0 -1
    outer loop
      vertex -7 115 1
      vertex -1 109 1
      vertex -7 -7 1
    endloop
  endfacet
  facet normal -1 0 0
    outer loop
      vertex -7 -7 1
      vertex -7 115 8
      vertex -7 115 1
    endloop
  endfacet
  facet normal -1 -0 0
    outer loop
      vertex -7 115 8
      vertex -7 -7 1
      vertex -7 -7 8
    endloop
  endfacet
  facet normal 0 1 -0
    outer loop
      vertex 53.2 115 1
      vertex -7 115 8
      vertex 53.2 115 8
    endloop
  endfacet
  facet normal 0 1 0
    outer loop
      vertex -7 115 8
      vertex 53.2 115 1
      vertex -7 115 1
    endloop
  endfacet
  facet normal 0 -1 0
    outer loop
      vertex -7 -7 1
      vertex 53.2 -7 8
      vertex -7 -7 8
    endloop
  endfacet
  facet normal 0 -1 -0
    outer loop
      vertex 53.2 -7 8
      vertex -7 -7 1
      vertex 53.2 -7 1
    endloop
  endfacet
  facet normal 1 -0 0
    outer loop
      vertex 53.2 108.05 8
      vertex 53.2 111.525 1.5
      vertex 53.2 111.525 8
    endloop
  endfacet
  facet normal 1 0 0
    outer loop
      vertex 53.2 111.525 1.5
      vertex 53.2 108.05 8
      vertex 53.2 109 1
    endloop
  endfacet
  facet normal 1 0 0
    outer loop
      vertex 53.2 108.05 0
      vertex 53.2 109 1
      vertex 53.2 108.05 8
    endloop
  endfacet
  facet normal 1 0 0
    outer loop
      vertex 53.2 109 1
      vertex 53.2 108.05 0
      vertex 53.2 109 0
    endloop
  endfacet
  facet normal 1 0 0
    outer loop
      vertex 53.2 113.471 1.5
      vertex 53.2 115 8
      vertex 53.2 113.471 8
    endloop
  endfacet
  facet normal 1 0 0
    outer loop
      vertex 53.2 115 8
      vertex 53.2 113.471 1.5
      vertex 53.2 115 1
    endloop
  endfacet
  facet normal 1 -0 0
    outer loop
      vertex 53.2 111.525 1.5
      vertex 53.2 115 1
      vertex 53.2 113.471 1.5
    endloop
  endfacet
  facet normal 1 0 0
    outer loop
      vertex 53.2 115 1
      vertex 53.2 111.525 1.5
      vertex 53.2 109 1
    endloop
  endfacet
  facet normal 1 0 0
    outer loop
      vertex 53.2 -3.525 8
      vertex 53.2 -7 8
      vertex 53.2 -3.525 1.5
    endloop
  endfacet
  facet normal 1 0 0
    outer loop
      vertex 53.2 -0.0499992 8
      vertex 53.2 -1 1
      vertex 53.2 -0.0499992 0
    endloop
  endfacet
  facet normal 1 0 0
    outer loop
      vertex 53.2 -1.579 1.5
      vertex 53.2 -0.0499992 8
      vertex 53.2 -1.579 8
    endloop
  endfacet
  facet normal 1 0 0
    outer loop
      vertex 53.2 -0.0499992 8
      vertex 53.2 -1.579 1.5
      vertex 53.2 -1 1
    endloop
  endfacet
  facet normal 1 -0 0
    outer loop
      vertex 53.2 -3.525 1.5
      vertex 53.2 -1 1
      vertex 53.2 -1.579 1.5
    endloop
  endfacet
  facet normal 1 0 0
    outer loop
      vertex 53.2 -3.525 1.5
      vertex 53.2 -7 1
      vertex 53.2 -1 1
    endloop
  endfacet
  facet normal 1 0 0
    outer loop
      vertex 53.2 -7 1
      vertex 53.2 -3.525 1.5
      vertex 53.2 -7 8
    endloop
  endfacet
  facet normal 1 0 0
    outer loop
      vertex 53.2 -0.0499992 0
      vertex 53.2 -1 1
      vertex 53.2 -1 0
    endloop
  endfacet
  facet normal 1 -0 0
    outer loop
      vertex 48.72 -5.471 8
      vertex 48.72 -1.579 1.5
      vertex 48.72 -1.579 8
    endloop
  endfacet
  facet normal 1 0 0
    outer loop
      vertex 48.72 -1.579 1.5
      vertex 48.72 -5.471 8
      vertex 48.72 -5.471 1.5
    endloop
  endfacet
  facet normal 0 0 1
    outer loop
      vertex 53.2 -1.579 1.5
      vertex 50.666 -3.525 1.5
      vertex 53.2 -3.525 1.5
    endloop
  endfacet
  facet normal -0 0 1
    outer loop
      vertex 48.72 -1.579 1.5
      vertex 50.666 -3.525 1.5
      vertex 53.2 -1.579 1.5
    endloop
  endfacet
  facet normal 0 0 1
    outer loop
      vertex 48.72 -5.471 1.5
      vertex 50.666 -3.525 1.5
      vertex 48.72 -1.579 1.5
    endloop
  endfacet
  facet normal 0 0 1
    outer loop
      vertex 50.666 -3.525 1.5
      vertex 48.72 -5.471 1.5
      vertex 50.666 -5.471 1.5
    endloop
  endfacet
  facet normal -1 0 0
    outer loop
      vertex 50.666 -5.471 1.5
      vertex 50.666 -3.525 8
      vertex 50.666 -3.525 1.5
    endloop
  endfacet
  facet normal -1 -0 0
    outer loop
      vertex 50.666 -3.525 8
      vertex 50.666 -5.471 1.5
      vertex 50.666 -5.471 8
    endloop
  endfacet
  facet normal 0 1 -0
    outer loop
      vertex 50.666 -5.471 1.5
      vertex 48.72 -5.471 8
      vertex 50.666 -5.471 8
    endloop
  endfacet
  facet normal 0 1 0
    outer loop
      vertex 48.72 -5.471 8
      vertex 50.666 -5.471 1.5
      vertex 48.72 -5.471 1.5
    endloop
  endfacet
  facet normal 0 -1 0
    outer loop
      vertex 48.72 -1.579 1.5
      vertex 53.2 -1.579 8
      vertex 48.72 -1.579 8
    endloop
  endfacet
  facet normal 0 -1 -0
    outer loop
      vertex 53.2 -1.579 8
      vertex 48.72 -1.579 1.5
      vertex 53.2 -1.579 1.5
    endloop
  endfacet
  facet normal 0 1 -0
    outer loop
      vertex 53.2 -3.525 1.5
      vertex 50.666 -3.525 8
      vertex 53.2 -3.525 8
    endloop
  endfacet
  facet normal 0 1 0
    outer loop
      vertex 50.666 -3.525 8
      vertex 53.2 -3.525 1.5
      vertex 50.666 -3.525 1.5
    endloop
  endfacet
  facet normal 1 -0 0
    outer loop
      vertex 48.72 109.579 8
      vertex 48.72 113.471 1.5
      vertex 48.72 113.471 8
    endloop
  endfacet
  facet normal 1 0 0
    outer loop
      vertex 48.72 113.471 1.5
      vertex 48.72 109.579 8
      vertex 48.72 109.579 1.5
    endloop
  endfacet
  facet normal 0 0 1
    outer loop
      vertex 53.2 113.471 1.5
      vertex 50.666 111.525 1.5
      vertex 53.2 111.525 1.5
    endloop
  endfacet
  facet normal -0 0 1
    outer loop
      vertex 48.72 113.471 1.5
      vertex 50.666 111.525 1.5
      vertex 53.2 113.471 1.5
    endloop
  endfacet
  facet normal 0 0 1
    outer loop
      vertex 48.72 109.579 1.5
      vertex 50.666 111.525 1.5
      vertex 48.72 113.471 1.5
    endloop
  endfacet
  facet normal 0 0 1
    outer loop
      vertex 50.666 111.525 1.5
      vertex 48.72 109.579 1.5
      vertex 50.666 109.579 1.5
    endloop
  endfacet
  facet normal -1 0 0
    outer loop
      vertex 50.666 109.579 1.5
      vertex 50.666 111.525 8
      vertex 50.666 111.525 1.5
    endloop
  endfacet
  facet normal -1 -0 0
    outer loop
      vertex 50.666 111.525 8
      vertex 50.666 109.579 1.5
      vertex 50.666 109.579 8
    endloop
  endfacet
  facet normal 0 1 -0
    outer loop
      vertex 50.666 109.579 1.5
      vertex 48.72 109.579 8
      vertex 50.666 109.579 8
    endloop
  endfacet
  facet normal 0 1 0
    outer loop
      vertex 48.72 109.579 8
      vertex 50.666 109.579 1.5
      vertex 48.72 109.579 1.5
    endloop
  endfacet
  facet normal 0 -1 0
    outer loop
      vertex 48.72 113.471 1.5
      vertex 53.2 113.471 8
      vertex 48.72 113.471 8
    endloop
  endfacet
  facet normal 0 -1 -0
    outer loop
      vertex 53.2 113.471 8
      vertex 48.72 113.471 1.5
      vertex 53.2 113.471 1.5
    endloop
  endfacet
  facet normal 0 1 -0
    outer loop
      vertex 53.2 111.525 1.5
      vertex 50.666 111.525 8
      vertex 53.2 111.525 8
    endloop
  endfacet
  facet normal 0 1 0
    outer loop
      vertex 50.666 111.525 8
      vertex 53.2 111.525 1.5
      vertex 50.666 111.525 1.5
    endloop
  endfacet
endsolid OpenSCAD_Model
