  0
SECTION
  2
BLOCKS
  0
ENDSEC
  0
SECTION
  2
ENTITIES
  0
LINE
  8
0
 10
4.5
 20
4.5
 11
-4.5
 21
4.5
  0
LINE
  8
0
 10
-4.5
 20
4.5
 11
-4.5
 21
-4.5
  0
LINE
  8
0
 10
-4.5
 20
-4.5
 11
4.5
 21
-4.5
  0
LINE
  8
0
 10
4.5
 20
-4.5
 11
4.5
 21
4.5
  0
LINE
  8
0
 10
-2.39702
 20
-3.74277
 11
-2.54263
 21
-3.72118
  0
LINE
  8
0
 10
-2.54263
 20
-3.72118
 11
-2.68542
 21
-3.68541
  0
LINE
  8
0
 10
-2.68542
 20
-3.68541
 11
-2.82402
 21
-3.63582
  0
LINE
  8
0
 10
-2.82402
 20
-3.63582
 11
-2.95709
 21
-3.57288
  0
LINE
  8
0
 10
-2.95709
 20
-3.57288
 11
-3.08334
 21
-3.49719
  0
LINE
  8
0
 10
-3.08334
 20
-3.49719
 11
-3.20158
 21
-3.40952
  0
LINE
  8
0
 10
-3.20158
 20
-3.40952
 11
-3.31065
 21
-3.31065
  0
LINE
  8
0
 10
-3.31065
 20
-3.31065
 11
-3.40952
 21
-3.20158
  0
LINE
  8
0
 10
-3.40952
 20
-3.20158
 11
-3.49719
 21
-3.08334
  0
LINE
  8
0
 10
-3.49719
 20
-3.08334
 11
-3.57288
 21
-2.95709
  0
LINE
  8
0
 10
-3.57288
 20
-2.95709
 11
-3.63582
 21
-2.82402
  0
LINE
  8
0
 10
-3.63582
 20
-2.82402
 11
-3.68541
 21
-2.68542
  0
LINE
  8
0
 10
-3.68541
 20
-2.68542
 11
-3.72118
 21
-2.54263
  0
LINE
  8
0
 10
-3.72118
 20
-2.54263
 11
-3.74277
 21
-2.39702
  0
LINE
  8
0
 10
-3.74277
 20
-2.39702
 11
-3.75
 21
-2.25
  0
LINE
  8
0
 10
-3.75
 20
-2.25
 11
-3.74277
 21
-2.10297
  0
LINE
  8
0
 10
-3.74277
 20
-2.10297
 11
-3.72118
 21
-1.95735
  0
LINE
  8
0
 10
-3.72118
 20
-1.95735
 11
-3.68541
 21
-1.81456
  0
LINE
  8
0
 10
-3.68541
 20
-1.81456
 11
-3.63582
 21
-1.67596
  0
LINE
  8
0
 10
-3.63582
 20
-1.67596
 11
-3.57288
 21
-1.54289
  0
LINE
  8
0
 10
-3.57288
 20
-1.54289
 11
-3.49719
 21
-1.41664
  0
LINE
  8
0
 10
-3.49719
 20
-1.41664
 11
-3.40952
 21
-1.2984
  0
LINE
  8
0
 10
-3.40952
 20
-1.2984
 11
-3.31065
 21
-1.18933
  0
LINE
  8
0
 10
-3.31065
 20
-1.18933
 11
-3.20158
 21
-1.09047
  0
LINE
  8
0
 10
-3.20158
 20
-1.09047
 11
-3.08334
 21
-1.00279
  0
LINE
  8
0
 10
-3.08334
 20
-1.00279
 11
-2.95709
 21
-0.927109
  0
LINE
  8
0
 10
-2.95709
 20
-0.927109
 11
-2.82402
 21
-0.864166
  0
LINE
  8
0
 10
-2.82402
 20
-0.864166
 11
-2.68542
 21
-0.814575
  0
LINE
  8
0
 10
-2.68542
 20
-0.814575
 11
-2.54263
 21
-0.778809
  0
LINE
  8
0
 10
-2.54263
 20
-0.778809
 11
-2.39702
 21
-0.757217
  0
LINE
  8
0
 10
-2.39702
 20
-0.757217
 11
-2.25
 21
-0.75
  0
LINE
  8
0
 10
-2.25
 20
-0.75
 11
-2.25
 21
0.75
  0
LINE
  8
0
 10
-2.25
 20
0.75
 11
-2.39702
 21
0.757217
  0
LINE
  8
0
 10
-2.39702
 20
0.757217
 11
-2.54263
 21
0.778809
  0
LINE
  8
0
 10
-2.54263
 20
0.778809
 11
-2.68542
 21
0.814575
  0
LINE
  8
0
 10
-2.68542
 20
0.814575
 11
-2.82402
 21
0.864166
  0
LINE
  8
0
 10
-2.82402
 20
0.864166
 11
-2.95709
 21
0.927109
  0
LINE
  8
0
 10
-2.95709
 20
0.927109
 11
-3.08334
 21
1.00279
  0
LINE
  8
0
 10
-3.08334
 20
1.00279
 11
-3.20158
 21
1.09047
  0
LINE
  8
0
 10
-3.20158
 20
1.09047
 11
-3.31065
 21
1.18933
  0
LINE
  8
0
 10
-3.31065
 20
1.18933
 11
-3.40952
 21
1.2984
  0
LINE
  8
0
 10
-3.40952
 20
1.2984
 11
-3.49719
 21
1.41664
  0
LINE
  8
0
 10
-3.49719
 20
1.41664
 11
-3.57288
 21
1.54289
  0
LINE
  8
0
 10
-3.57288
 20
1.54289
 11
-3.63582
 21
1.67596
  0
LINE
  8
0
 10
-3.63582
 20
1.67596
 11
-3.68541
 21
1.81456
  0
LINE
  8
0
 10
-3.68541
 20
1.81456
 11
-3.72118
 21
1.95735
  0
LINE
  8
0
 10
-3.72118
 20
1.95735
 11
-3.74277
 21
2.10297
  0
LINE
  8
0
 10
-3.74277
 20
2.10297
 11
-3.75
 21
2.25
  0
LINE
  8
0
 10
-3.75
 20
2.25
 11
-3.74277
 21
2.39702
  0
LINE
  8
0
 10
-3.74277
 20
2.39702
 11
-3.72118
 21
2.54263
  0
LINE
  8
0
 10
-3.72118
 20
2.54263
 11
-3.68541
 21
2.68542
  0
LINE
  8
0
 10
-3.68541
 20
2.68542
 11
-3.63582
 21
2.82402
  0
LINE
  8
0
 10
-3.63582
 20
2.82402
 11
-3.57288
 21
2.95709
  0
LINE
  8
0
 10
-3.57288
 20
2.95709
 11
-3.49719
 21
3.08334
  0
LINE
  8
0
 10
-3.49719
 20
3.08334
 11
-3.40952
 21
3.20158
  0
LINE
  8
0
 10
-3.40952
 20
3.20158
 11
-3.31065
 21
3.31065
  0
LINE
  8
0
 10
-3.31065
 20
3.31065
 11
-3.20158
 21
3.40952
  0
LINE
  8
0
 10
-3.20158
 20
3.40952
 11
-3.08334
 21
3.49719
  0
LINE
  8
0
 10
-3.08334
 20
3.49719
 11
-2.95709
 21
3.57288
  0
LINE
  8
0
 10
-2.95709
 20
3.57288
 11
-2.82402
 21
3.63582
  0
LINE
  8
0
 10
-2.82402
 20
3.63582
 11
-2.68542
 21
3.68541
  0
LINE
  8
0
 10
-2.68542
 20
3.68541
 11
-2.54263
 21
3.72118
  0
LINE
  8
0
 10
-2.54263
 20
3.72118
 11
-2.39702
 21
3.74277
  0
LINE
  8
0
 10
-2.39702
 20
3.74277
 11
-2.25
 21
3.75
  0
LINE
  8
0
 10
-2.25
 20
3.75
 11
-2.10297
 21
3.74277
  0
LINE
  8
0
 10
-2.10297
 20
3.74277
 11
-1.95735
 21
3.72118
  0
LINE
  8
0
 10
-1.95735
 20
3.72118
 11
-1.81456
 21
3.68541
  0
LINE
  8
0
 10
-1.81456
 20
3.68541
 11
-1.67596
 21
3.63582
  0
LINE
  8
0
 10
-1.67596
 20
3.63582
 11
-1.54289
 21
3.57288
  0
LINE
  8
0
 10
-1.54289
 20
3.57288
 11
-1.41664
 21
3.49719
  0
LINE
  8
0
 10
-1.41664
 20
3.49719
 11
-1.2984
 21
3.40952
  0
LINE
  8
0
 10
-1.2984
 20
3.40952
 11
-1.18933
 21
3.31065
  0
LINE
  8
0
 10
-1.18933
 20
3.31065
 11
-1.09047
 21
3.20158
  0
LINE
  8
0
 10
-1.09047
 20
3.20158
 11
-1.00279
 21
3.08334
  0
LINE
  8
0
 10
-1.00279
 20
3.08334
 11
-0.927109
 21
2.95709
  0
LINE
  8
0
 10
-0.927109
 20
2.95709
 11
-0.864166
 21
2.82402
  0
LINE
  8
0
 10
-0.864166
 20
2.82402
 11
-0.814575
 21
2.68542
  0
LINE
  8
0
 10
-0.814575
 20
2.68542
 11
-0.778809
 21
2.54263
  0
LINE
  8
0
 10
-0.778809
 20
2.54263
 11
-0.757217
 21
2.39702
  0
LINE
  8
0
 10
-0.757217
 20
2.39702
 11
-0.75
 21
2.25
  0
LINE
  8
0
 10
-0.75
 20
2.25
 11
-0.752457
 21
2.2
  0
LINE
  8
0
 10
-0.752457
 20
2.2
 11
-0.399994
 21
2.2
  0
LINE
  8
0
 10
-0.399994
 20
2.2
 11
-0.399994
 21
-2.2
  0
LINE
  8
0
 10
-0.399994
 20
-2.2
 11
-0.752457
 21
-2.2
  0
LINE
  8
0
 10
-0.752457
 20
-2.2
 11
-0.75
 21
-2.25
  0
LINE
  8
0
 10
-0.75
 20
-2.25
 11
-0.757217
 21
-2.39702
  0
LINE
  8
0
 10
-0.757217
 20
-2.39702
 11
-0.778809
 21
-2.54263
  0
LINE
  8
0
 10
-0.778809
 20
-2.54263
 11
-0.814575
 21
-2.68542
  0
LINE
  8
0
 10
-0.814575
 20
-2.68542
 11
-0.864166
 21
-2.82402
  0
LINE
  8
0
 10
-0.864166
 20
-2.82402
 11
-0.927109
 21
-2.95709
  0
LINE
  8
0
 10
-0.927109
 20
-2.95709
 11
-1.00279
 21
-3.08334
  0
LINE
  8
0
 10
-1.00279
 20
-3.08334
 11
-1.09047
 21
-3.20158
  0
LINE
  8
0
 10
-1.09047
 20
-3.20158
 11
-1.18933
 21
-3.31065
  0
LINE
  8
0
 10
-1.18933
 20
-3.31065
 11
-1.2984
 21
-3.40952
  0
LINE
  8
0
 10
-1.2984
 20
-3.40952
 11
-1.41664
 21
-3.49719
  0
LINE
  8
0
 10
-1.41664
 20
-3.49719
 11
-1.54289
 21
-3.57288
  0
LINE
  8
0
 10
-1.54289
 20
-3.57288
 11
-1.67596
 21
-3.63582
  0
LINE
  8
0
 10
-1.67596
 20
-3.63582
 11
-1.81456
 21
-3.68541
  0
LINE
  8
0
 10
-1.81456
 20
-3.68541
 11
-1.95735
 21
-3.72118
  0
LINE
  8
0
 10
-1.95735
 20
-3.72118
 11
-2.10297
 21
-3.74277
  0
LINE
  8
0
 10
-2.10297
 20
-3.74277
 11
-2.25
 21
-3.75
  0
LINE
  8
0
 10
-2.25
 20
-3.75
 11
-2.39702
 21
-3.74277
  0
LINE
  8
0
 10
2.10297
 20
-3.74277
 11
1.95735
 21
-3.72118
  0
LINE
  8
0
 10
1.95735
 20
-3.72118
 11
1.81456
 21
-3.68541
  0
LINE
  8
0
 10
1.81456
 20
-3.68541
 11
1.67596
 21
-3.63582
  0
LINE
  8
0
 10
1.67596
 20
-3.63582
 11
1.54289
 21
-3.57288
  0
LINE
  8
0
 10
1.54289
 20
-3.57288
 11
1.41664
 21
-3.49719
  0
LINE
  8
0
 10
1.41664
 20
-3.49719
 11
1.2984
 21
-3.40952
  0
LINE
  8
0
 10
1.2984
 20
-3.40952
 11
1.18933
 21
-3.31065
  0
LINE
  8
0
 10
1.18933
 20
-3.31065
 11
1.09047
 21
-3.20158
  0
LINE
  8
0
 10
1.09047
 20
-3.20158
 11
1.00279
 21
-3.08334
  0
LINE
  8
0
 10
1.00279
 20
-3.08334
 11
0.927109
 21
-2.95709
  0
LINE
  8
0
 10
0.927109
 20
-2.95709
 11
0.864166
 21
-2.82402
  0
LINE
  8
0
 10
0.864166
 20
-2.82402
 11
0.814575
 21
-2.68542
  0
LINE
  8
0
 10
0.814575
 20
-2.68542
 11
0.778809
 21
-2.54263
  0
LINE
  8
0
 10
0.778809
 20
-2.54263
 11
0.757217
 21
-2.39702
  0
LINE
  8
0
 10
0.757217
 20
-2.39702
 11
0.75
 21
-2.25
  0
LINE
  8
0
 10
0.75
 20
-2.25
 11
0.752457
 21
-2.2
  0
LINE
  8
0
 10
0.752457
 20
-2.2
 11
0.399994
 21
-2.2
  0
LINE
  8
0
 10
0.399994
 20
-2.2
 11
0.399994
 21
2.2
  0
LINE
  8
0
 10
0.399994
 20
2.2
 11
0.752457
 21
2.2
  0
LINE
  8
0
 10
0.752457
 20
2.2
 11
0.75
 21
2.25
  0
LINE
  8
0
 10
0.75
 20
2.25
 11
0.757217
 21
2.39702
  0
LINE
  8
0
 10
0.757217
 20
2.39702
 11
0.778809
 21
2.54263
  0
LINE
  8
0
 10
0.778809
 20
2.54263
 11
0.814575
 21
2.68542
  0
LINE
  8
0
 10
0.814575
 20
2.68542
 11
0.864166
 21
2.82402
  0
LINE
  8
0
 10
0.864166
 20
2.82402
 11
0.927109
 21
2.95709
  0
LINE
  8
0
 10
0.927109
 20
2.95709
 11
1.00279
 21
3.08334
  0
LINE
  8
0
 10
1.00279
 20
3.08334
 11
1.09047
 21
3.20158
  0
LINE
  8
0
 10
1.09047
 20
3.20158
 11
1.18933
 21
3.31065
  0
LINE
  8
0
 10
1.18933
 20
3.31065
 11
1.2984
 21
3.40952
  0
LINE
  8
0
 10
1.2984
 20
3.40952
 11
1.41664
 21
3.49719
  0
LINE
  8
0
 10
1.41664
 20
3.49719
 11
1.54289
 21
3.57288
  0
LINE
  8
0
 10
1.54289
 20
3.57288
 11
1.67596
 21
3.63582
  0
LINE
  8
0
 10
1.67596
 20
3.63582
 11
1.81456
 21
3.68541
  0
LINE
  8
0
 10
1.81456
 20
3.68541
 11
1.95735
 21
3.72118
  0
LINE
  8
0
 10
1.95735
 20
3.72118
 11
2.10297
 21
3.74277
  0
LINE
  8
0
 10
2.10297
 20
3.74277
 11
2.25
 21
3.75
  0
LINE
  8
0
 10
2.25
 20
3.75
 11
2.39702
 21
3.74277
  0
LINE
  8
0
 10
2.39702
 20
3.74277
 11
2.54263
 21
3.72118
  0
LINE
  8
0
 10
2.54263
 20
3.72118
 11
2.68542
 21
3.68541
  0
LINE
  8
0
 10
2.68542
 20
3.68541
 11
2.82402
 21
3.63582
  0
LINE
  8
0
 10
2.82402
 20
3.63582
 11
2.95709
 21
3.57288
  0
LINE
  8
0
 10
2.95709
 20
3.57288
 11
3.08334
 21
3.49719
  0
LINE
  8
0
 10
3.08334
 20
3.49719
 11
3.20158
 21
3.40952
  0
LINE
  8
0
 10
3.20158
 20
3.40952
 11
3.31065
 21
3.31065
  0
LINE
  8
0
 10
3.31065
 20
3.31065
 11
3.40952
 21
3.20158
  0
LINE
  8
0
 10
3.40952
 20
3.20158
 11
3.49719
 21
3.08334
  0
LINE
  8
0
 10
3.49719
 20
3.08334
 11
3.57288
 21
2.95709
  0
LINE
  8
0
 10
3.57288
 20
2.95709
 11
3.63582
 21
2.82402
  0
LINE
  8
0
 10
3.63582
 20
2.82402
 11
3.68541
 21
2.68542
  0
LINE
  8
0
 10
3.68541
 20
2.68542
 11
3.72118
 21
2.54263
  0
LINE
  8
0
 10
3.72118
 20
2.54263
 11
3.74277
 21
2.39702
  0
LINE
  8
0
 10
3.74277
 20
2.39702
 11
3.75
 21
2.25
  0
LINE
  8
0
 10
3.75
 20
2.25
 11
3.74277
 21
2.10297
  0
LINE
  8
0
 10
3.74277
 20
2.10297
 11
3.72118
 21
1.95735
  0
LINE
  8
0
 10
3.72118
 20
1.95735
 11
3.68541
 21
1.81456
  0
LINE
  8
0
 10
3.68541
 20
1.81456
 11
3.63582
 21
1.67596
  0
LINE
  8
0
 10
3.63582
 20
1.67596
 11
3.57288
 21
1.54289
  0
LINE
  8
0
 10
3.57288
 20
1.54289
 11
3.49719
 21
1.41664
  0
LINE
  8
0
 10
3.49719
 20
1.41664
 11
3.40952
 21
1.2984
  0
LINE
  8
0
 10
3.40952
 20
1.2984
 11
3.31065
 21
1.18933
  0
LINE
  8
0
 10
3.31065
 20
1.18933
 11
3.20158
 21
1.09047
  0
LINE
  8
0
 10
3.20158
 20
1.09047
 11
3.08334
 21
1.00279
  0
LINE
  8
0
 10
3.08334
 20
1.00279
 11
2.95709
 21
0.927109
  0
LINE
  8
0
 10
2.95709
 20
0.927109
 11
2.82402
 21
0.864166
  0
LINE
  8
0
 10
2.82402
 20
0.864166
 11
2.68542
 21
0.814575
  0
LINE
  8
0
 10
2.68542
 20
0.814575
 11
2.54263
 21
0.778809
  0
LINE
  8
0
 10
2.54263
 20
0.778809
 11
2.39702
 21
0.757217
  0
LINE
  8
0
 10
2.39702
 20
0.757217
 11
2.25
 21
0.75
  0
LINE
  8
0
 10
2.25
 20
0.75
 11
2.25
 21
-0.75
  0
LINE
  8
0
 10
2.25
 20
-0.75
 11
2.39702
 21
-0.757217
  0
LINE
  8
0
 10
2.39702
 20
-0.757217
 11
2.54263
 21
-0.778809
  0
LINE
  8
0
 10
2.54263
 20
-0.778809
 11
2.68542
 21
-0.814575
  0
LINE
  8
0
 10
2.68542
 20
-0.814575
 11
2.82402
 21
-0.864166
  0
LINE
  8
0
 10
2.82402
 20
-0.864166
 11
2.95709
 21
-0.927109
  0
LINE
  8
0
 10
2.95709
 20
-0.927109
 11
3.08334
 21
-1.00279
  0
LINE
  8
0
 10
3.08334
 20
-1.00279
 11
3.20158
 21
-1.09047
  0
LINE
  8
0
 10
3.20158
 20
-1.09047
 11
3.31065
 21
-1.18933
  0
LINE
  8
0
 10
3.31065
 20
-1.18933
 11
3.40952
 21
-1.2984
  0
LINE
  8
0
 10
3.40952
 20
-1.2984
 11
3.49719
 21
-1.41664
  0
LINE
  8
0
 10
3.49719
 20
-1.41664
 11
3.57288
 21
-1.54289
  0
LINE
  8
0
 10
3.57288
 20
-1.54289
 11
3.63582
 21
-1.67596
  0
LINE
  8
0
 10
3.63582
 20
-1.67596
 11
3.68541
 21
-1.81456
  0
LINE
  8
0
 10
3.68541
 20
-1.81456
 11
3.72118
 21
-1.95735
  0
LINE
  8
0
 10
3.72118
 20
-1.95735
 11
3.74277
 21
-2.10297
  0
LINE
  8
0
 10
3.74277
 20
-2.10297
 11
3.75
 21
-2.25
  0
LINE
  8
0
 10
3.75
 20
-2.25
 11
3.74277
 21
-2.39702
  0
LINE
  8
0
 10
3.74277
 20
-2.39702
 11
3.72118
 21
-2.54263
  0
LINE
  8
0
 10
3.72118
 20
-2.54263
 11
3.68541
 21
-2.68542
  0
LINE
  8
0
 10
3.68541
 20
-2.68542
 11
3.63582
 21
-2.82402
  0
LINE
  8
0
 10
3.63582
 20
-2.82402
 11
3.57288
 21
-2.95709
  0
LINE
  8
0
 10
3.57288
 20
-2.95709
 11
3.49719
 21
-3.08334
  0
LINE
  8
0
 10
3.49719
 20
-3.08334
 11
3.40952
 21
-3.20158
  0
LINE
  8
0
 10
3.40952
 20
-3.20158
 11
3.31065
 21
-3.31065
  0
LINE
  8
0
 10
3.31065
 20
-3.31065
 11
3.20158
 21
-3.40952
  0
LINE
  8
0
 10
3.20158
 20
-3.40952
 11
3.08334
 21
-3.49719
  0
LINE
  8
0
 10
3.08334
 20
-3.49719
 11
2.95709
 21
-3.57288
  0
LINE
  8
0
 10
2.95709
 20
-3.57288
 11
2.82402
 21
-3.63582
  0
LINE
  8
0
 10
2.82402
 20
-3.63582
 11
2.68542
 21
-3.68541
  0
LINE
  8
0
 10
2.68542
 20
-3.68541
 11
2.54263
 21
-3.72118
  0
LINE
  8
0
 10
2.54263
 20
-3.72118
 11
2.39702
 21
-3.74277
  0
LINE
  8
0
 10
2.39702
 20
-3.74277
 11
2.25
 21
-3.75
  0
LINE
  8
0
 10
2.25
 20
-3.75
 11
2.10297
 21
-3.74277
  0
ENDSEC
  0
SECTION
  2
OBJECTS
  0
DICTIONARY
  0
ENDSEC
  0
EOF
