solid OpenSCAD_Model
  facet normal 1 -0 0
    outer loop
      vertex 73 -1 1
      vertex 73 109 0
      vertex 73 109 1
    endloop
  endfacet
  facet normal 1 0 0
    outer loop
      vertex 73 109 0
      vertex 73 -1 1
      vertex 73 -1 0
    endloop
  endfacet
  facet normal 0 0 1
    outer loop
      vertex 53 -1.856 8
      vertex 50.899 -3.275 8
      vertex 53 -3.275 8
    endloop
  endfacet
  facet normal -0 0 1
    outer loop
      vertex 49.48 -1.856 8
      vertex 50.899 -3.275 8
      vertex 53 -1.856 8
    endloop
  endfacet
  facet normal 0 0 1
    outer loop
      vertex 49.48 -4.694 8
      vertex 50.899 -3.275 8
      vertex 49.48 -1.856 8
    endloop
  endfacet
  facet normal 0 0 1
    outer loop
      vertex 50.899 -3.275 8
      vertex 49.48 -4.694 8
      vertex 50.899 -4.694 8
    endloop
  endfacet
  facet normal 0 0 1
    outer loop
      vertex 53 112.694 8
      vertex 50.899 111.275 8
      vertex 53 111.275 8
    endloop
  endfacet
  facet normal -0 0 1
    outer loop
      vertex 49.48 112.694 8
      vertex 50.899 111.275 8
      vertex 53 112.694 8
    endloop
  endfacet
  facet normal 0 0 1
    outer loop
      vertex 49.48 109.856 8
      vertex 50.899 111.275 8
      vertex 49.48 112.694 8
    endloop
  endfacet
  facet normal 0 0 1
    outer loop
      vertex 50.899 111.275 8
      vertex 49.48 109.856 8
      vertex 50.899 109.856 8
    endloop
  endfacet
  facet normal 0 0 1
    outer loop
      vertex 78.5 114.5 8
      vertex 72.05 108.05 8
      vertex 78.5 -6.5 8
    endloop
  endfacet
  facet normal -0 0 1
    outer loop
      vertex 53 114.5 8
      vertex 72.05 108.05 8
      vertex 78.5 114.5 8
    endloop
  endfacet
  facet normal -0 0 1
    outer loop
      vertex 53 112.694 8
      vertex 72.05 108.05 8
      vertex 53 114.5 8
    endloop
  endfacet
  facet normal -0 0 1
    outer loop
      vertex 53 111.275 8
      vertex 72.05 108.05 8
      vertex 53 112.694 8
    endloop
  endfacet
  facet normal 0 0 1
    outer loop
      vertex 72.05 108.05 8
      vertex 53 111.275 8
      vertex 53 108.05 8
    endloop
  endfacet
  facet normal -0 0 1
    outer loop
      vertex 72.05 -0.0499992 8
      vertex 78.5 -6.5 8
      vertex 72.05 108.05 8
    endloop
  endfacet
  facet normal 0 0 1
    outer loop
      vertex 53 -1.856 8
      vertex 72.05 -0.0499992 8
      vertex 53 -0.0499992 8
    endloop
  endfacet
  facet normal 0 0 1
    outer loop
      vertex 53 -3.275 8
      vertex 72.05 -0.0499992 8
      vertex 53 -1.856 8
    endloop
  endfacet
  facet normal 0 0 1
    outer loop
      vertex 53 -6.5 8
      vertex 72.05 -0.0499992 8
      vertex 53 -3.275 8
    endloop
  endfacet
  facet normal 0 0 1
    outer loop
      vertex 72.05 -0.0499992 8
      vertex 53 -6.5 8
      vertex 78.5 -6.5 8
    endloop
  endfacet
  facet normal 0 0 -1
    outer loop
      vertex 73 -1 0
      vertex 72.05 -0.0499992 0
      vertex 73 109 0
    endloop
  endfacet
  facet normal 0 0 -1
    outer loop
      vertex 53 -1 0
      vertex 72.05 -0.0499992 0
      vertex 73 -1 0
    endloop
  endfacet
  facet normal -0 0 -1
    outer loop
      vertex 72.05 -0.0499992 0
      vertex 53 -1 0
      vertex 53 -0.0499992 0
    endloop
  endfacet
  facet normal 0 0 -1
    outer loop
      vertex 72.05 108.05 0
      vertex 73 109 0
      vertex 72.05 -0.0499992 0
    endloop
  endfacet
  facet normal 0 0 -1
    outer loop
      vertex 53 109 0
      vertex 72.05 108.05 0
      vertex 53 108.05 0
    endloop
  endfacet
  facet normal 0 0 -1
    outer loop
      vertex 72.05 108.05 0
      vertex 53 109 0
      vertex 73 109 0
    endloop
  endfacet
  facet normal 0 1 -0
    outer loop
      vertex 73 109 0
      vertex 53 109 1
      vertex 73 109 1
    endloop
  endfacet
  facet normal 0 1 0
    outer loop
      vertex 53 109 1
      vertex 73 109 0
      vertex 53 109 0
    endloop
  endfacet
  facet normal 0 -1 0
    outer loop
      vertex 53 -1 0
      vertex 73 -1 1
      vertex 53 -1 1
    endloop
  endfacet
  facet normal 0 -1 -0
    outer loop
      vertex 73 -1 1
      vertex 53 -1 0
      vertex 73 -1 0
    endloop
  endfacet
  facet normal -1 0 0
    outer loop
      vertex 72.05 -0.0499992 0
      vertex 72.05 108.05 8
      vertex 72.05 108.05 0
    endloop
  endfacet
  facet normal -1 -0 0
    outer loop
      vertex 72.05 108.05 8
      vertex 72.05 -0.0499992 0
      vertex 72.05 -0.0499992 8
    endloop
  endfacet
  facet normal 0 -1 0
    outer loop
      vertex 53 108.05 0
      vertex 72.05 108.05 8
      vertex 53 108.05 8
    endloop
  endfacet
  facet normal 0 -1 -0
    outer loop
      vertex 72.05 108.05 8
      vertex 53 108.05 0
      vertex 72.05 108.05 0
    endloop
  endfacet
  facet normal 0 1 -0
    outer loop
      vertex 72.05 -0.0499992 0
      vertex 53 -0.0499992 8
      vertex 72.05 -0.0499992 8
    endloop
  endfacet
  facet normal 0 1 0
    outer loop
      vertex 53 -0.0499992 8
      vertex 72.05 -0.0499992 0
      vertex 53 -0.0499992 0
    endloop
  endfacet
  facet normal 1 -0 0
    outer loop
      vertex 78.5 -6.5 8
      vertex 78.5 114.5 1
      vertex 78.5 114.5 8
    endloop
  endfacet
  facet normal 1 0 0
    outer loop
      vertex 78.5 114.5 1
      vertex 78.5 -6.5 8
      vertex 78.5 -6.5 1
    endloop
  endfacet
  facet normal 0 0 -1
    outer loop
      vertex 78.5 -6.5 1
      vertex 73 -1 1
      vertex 78.5 114.5 1
    endloop
  endfacet
  facet normal 0 0 -1
    outer loop
      vertex 53 -6.5 1
      vertex 73 -1 1
      vertex 78.5 -6.5 1
    endloop
  endfacet
  facet normal -0 0 -1
    outer loop
      vertex 73 -1 1
      vertex 53 -6.5 1
      vertex 53 -1 1
    endloop
  endfacet
  facet normal 0 0 -1
    outer loop
      vertex 73 109 1
      vertex 78.5 114.5 1
      vertex 73 -1 1
    endloop
  endfacet
  facet normal 0 0 -1
    outer loop
      vertex 53 114.5 1
      vertex 73 109 1
      vertex 53 109 1
    endloop
  endfacet
  facet normal 0 0 -1
    outer loop
      vertex 73 109 1
      vertex 53 114.5 1
      vertex 78.5 114.5 1
    endloop
  endfacet
  facet normal 0 1 -0
    outer loop
      vertex 78.5 114.5 1
      vertex 53 114.5 8
      vertex 78.5 114.5 8
    endloop
  endfacet
  facet normal 0 1 0
    outer loop
      vertex 53 114.5 8
      vertex 78.5 114.5 1
      vertex 53 114.5 1
    endloop
  endfacet
  facet normal 0 -1 0
    outer loop
      vertex 53 -6.5 1
      vertex 78.5 -6.5 8
      vertex 53 -6.5 8
    endloop
  endfacet
  facet normal 0 -1 -0
    outer loop
      vertex 78.5 -6.5 8
      vertex 53 -6.5 1
      vertex 78.5 -6.5 1
    endloop
  endfacet
  facet normal -1 0 0
    outer loop
      vertex 53 109 0
      vertex 53 108.05 0
      vertex 53 109 1
    endloop
  endfacet
  facet normal -1 0 0
    outer loop
      vertex 53 114.5 1
      vertex 53 112.694 1.5
      vertex 53 114.5 8
    endloop
  endfacet
  facet normal -1 0 0
    outer loop
      vertex 53 114.5 1
      vertex 53 111.275 1.5
      vertex 53 112.694 1.5
    endloop
  endfacet
  facet normal -1 0 0
    outer loop
      vertex 53 109 1
      vertex 53 111.275 1.5
      vertex 53 114.5 1
    endloop
  endfacet
  facet normal -1 0 0
    outer loop
      vertex 53 108.05 8
      vertex 53 111.275 1.5
      vertex 53 109 1
    endloop
  endfacet
  facet normal -1 0 0
    outer loop
      vertex 53 108.05 8
      vertex 53 109 1
      vertex 53 108.05 0
    endloop
  endfacet
  facet normal -1 0 0
    outer loop
      vertex 53 111.275 1.5
      vertex 53 108.05 8
      vertex 53 111.275 8
    endloop
  endfacet
  facet normal -1 -0 0
    outer loop
      vertex 53 114.5 8
      vertex 53 112.694 1.5
      vertex 53 112.694 8
    endloop
  endfacet
  facet normal -1 0 0
    outer loop
      vertex 53 -1 1
      vertex 53 -3.275 1.5
      vertex 53 -1.856 1.5
    endloop
  endfacet
  facet normal -1 0 0
    outer loop
      vertex 53 -6.5 1
      vertex 53 -3.275 1.5
      vertex 53 -1 1
    endloop
  endfacet
  facet normal -1 0 0
    outer loop
      vertex 53 -6.5 8
      vertex 53 -3.275 1.5
      vertex 53 -6.5 1
    endloop
  endfacet
  facet normal -1 0 0
    outer loop
      vertex 53 -3.275 1.5
      vertex 53 -6.5 8
      vertex 53 -3.275 8
    endloop
  endfacet
  facet normal -1 0 0
    outer loop
      vertex 53 -1 1
      vertex 53 -0.0499992 0
      vertex 53 -1 0
    endloop
  endfacet
  facet normal -1 0 0
    outer loop
      vertex 53 -0.0499992 0
      vertex 53 -1 1
      vertex 53 -0.0499992 8
    endloop
  endfacet
  facet normal -1 0 0
    outer loop
      vertex 53 -1.856 1.5
      vertex 53 -0.0499992 8
      vertex 53 -1 1
    endloop
  endfacet
  facet normal -1 -0 0
    outer loop
      vertex 53 -0.0499992 8
      vertex 53 -1.856 1.5
      vertex 53 -1.856 8
    endloop
  endfacet
  facet normal -1 0 0
    outer loop
      vertex 49.48 -4.694 1.5
      vertex 49.48 -1.856 8
      vertex 49.48 -1.856 1.5
    endloop
  endfacet
  facet normal -1 -0 0
    outer loop
      vertex 49.48 -1.856 8
      vertex 49.48 -4.694 1.5
      vertex 49.48 -4.694 8
    endloop
  endfacet
  facet normal 0 0 -1
    outer loop
      vertex 50.899 -4.694 1.5
      vertex 49.48 -4.694 1.5
      vertex 50.899 -3.275 1.5
    endloop
  endfacet
  facet normal 0 0 -1
    outer loop
      vertex 50.899 -3.275 1.5
      vertex 53 -1.856 1.5
      vertex 53 -3.275 1.5
    endloop
  endfacet
  facet normal 0 0 -1
    outer loop
      vertex 50.899 -3.275 1.5
      vertex 49.48 -1.856 1.5
      vertex 53 -1.856 1.5
    endloop
  endfacet
  facet normal 0 0 -1
    outer loop
      vertex 49.48 -1.856 1.5
      vertex 50.899 -3.275 1.5
      vertex 49.48 -4.694 1.5
    endloop
  endfacet
  facet normal 1 -0 0
    outer loop
      vertex 50.899 -4.694 8
      vertex 50.899 -3.275 1.5
      vertex 50.899 -3.275 8
    endloop
  endfacet
  facet normal 1 0 0
    outer loop
      vertex 50.899 -3.275 1.5
      vertex 50.899 -4.694 8
      vertex 50.899 -4.694 1.5
    endloop
  endfacet
  facet normal 0 -1 0
    outer loop
      vertex 49.48 -4.694 1.5
      vertex 50.899 -4.694 8
      vertex 49.48 -4.694 8
    endloop
  endfacet
  facet normal 0 -1 -0
    outer loop
      vertex 50.899 -4.694 8
      vertex 49.48 -4.694 1.5
      vertex 50.899 -4.694 1.5
    endloop
  endfacet
  facet normal 0 1 -0
    outer loop
      vertex 53 -1.856 1.5
      vertex 49.48 -1.856 8
      vertex 53 -1.856 8
    endloop
  endfacet
  facet normal 0 1 0
    outer loop
      vertex 49.48 -1.856 8
      vertex 53 -1.856 1.5
      vertex 49.48 -1.856 1.5
    endloop
  endfacet
  facet normal 0 -1 0
    outer loop
      vertex 50.899 -3.275 1.5
      vertex 53 -3.275 8
      vertex 50.899 -3.275 8
    endloop
  endfacet
  facet normal 0 -1 -0
    outer loop
      vertex 53 -3.275 8
      vertex 50.899 -3.275 1.5
      vertex 53 -3.275 1.5
    endloop
  endfacet
  facet normal -1 0 0
    outer loop
      vertex 49.48 109.856 1.5
      vertex 49.48 112.694 8
      vertex 49.48 112.694 1.5
    endloop
  endfacet
  facet normal -1 -0 0
    outer loop
      vertex 49.48 112.694 8
      vertex 49.48 109.856 1.5
      vertex 49.48 109.856 8
    endloop
  endfacet
  facet normal 0 0 -1
    outer loop
      vertex 50.899 109.856 1.5
      vertex 49.48 109.856 1.5
      vertex 50.899 111.275 1.5
    endloop
  endfacet
  facet normal 0 0 -1
    outer loop
      vertex 50.899 111.275 1.5
      vertex 53 112.694 1.5
      vertex 53 111.275 1.5
    endloop
  endfacet
  facet normal 0 0 -1
    outer loop
      vertex 50.899 111.275 1.5
      vertex 49.48 112.694 1.5
      vertex 53 112.694 1.5
    endloop
  endfacet
  facet normal 0 0 -1
    outer loop
      vertex 49.48 112.694 1.5
      vertex 50.899 111.275 1.5
      vertex 49.48 109.856 1.5
    endloop
  endfacet
  facet normal 1 -0 0
    outer loop
      vertex 50.899 109.856 8
      vertex 50.899 111.275 1.5
      vertex 50.899 111.275 8
    endloop
  endfacet
  facet normal 1 0 0
    outer loop
      vertex 50.899 111.275 1.5
      vertex 50.899 109.856 8
      vertex 50.899 109.856 1.5
    endloop
  endfacet
  facet normal 0 -1 0
    outer loop
      vertex 49.48 109.856 1.5
      vertex 50.899 109.856 8
      vertex 49.48 109.856 8
    endloop
  endfacet
  facet normal 0 -1 -0
    outer loop
      vertex 50.899 109.856 8
      vertex 49.48 109.856 1.5
      vertex 50.899 109.856 1.5
    endloop
  endfacet
  facet normal 0 1 -0
    outer loop
      vertex 53 112.694 1.5
      vertex 49.48 112.694 8
      vertex 53 112.694 8
    endloop
  endfacet
  facet normal 0 1 0
    outer loop
      vertex 49.48 112.694 8
      vertex 53 112.694 1.5
      vertex 49.48 112.694 1.5
    endloop
  endfacet
  facet normal 0 -1 0
    outer loop
      vertex 50.899 111.275 1.5
      vertex 53 111.275 8
      vertex 50.899 111.275 8
    endloop
  endfacet
  facet normal 0 -1 -0
    outer loop
      vertex 53 111.275 8
      vertex 50.899 111.275 1.5
      vertex 53 111.275 1.5
    endloop
  endfacet
endsolid OpenSCAD_Model
